M48
; DRILL file {KiCad 5.1.2} date ma 01 jul 2019 14:10:41 CEST
; FORMAT={-:-/ absolute / inch / decimal}
; #@! TF.CreationDate,2019-07-01T14:10:41+02:00
; #@! TF.GenerationSoftware,Kicad,Pcbnew,5.1.2
; #@! TF.FileFunction,Plated,1,2,PTH
FMAT,2
INCH
T1C0.0157
T2C0.0394
T3C0.0433
T4C0.0512
%
G90
G05
T1
X2.626Y-3.253
X2.971Y-1.98
X3.019Y-3.247
X3.1693Y-2.0472
X3.273Y-2.268
X3.275Y-1.9
X3.287Y-2.038
X3.297Y-1.716
X3.383Y-1.669
X3.383Y-2.233
X3.479Y-2.191
X3.502Y-1.912
X3.542Y-1.671
X3.709Y-2.122
X3.842Y-2.632
X3.907Y-2.415
X4.054Y-1.808
X4.096Y-1.97
X4.157Y-2.005
X4.253Y-2.846
X4.269Y-2.733
X4.275Y-2.288
X4.29Y-2.494
X4.29Y-2.565
X4.327Y-1.932
X4.368Y-2.506
X4.458Y-2.154
X4.46Y-3.068
X4.473Y-3.206
T2
X3.0369Y-1.2992
X3.1369Y-1.2992
X3.2369Y-1.2992
X3.3369Y-1.2992
X3.4369Y-1.2992
X3.5369Y-1.2992
X3.6369Y-1.2992
X3.7369Y-1.2992
X2.5264Y-1.6228
X2.5264Y-1.7228
X2.5264Y-1.8228
X2.5264Y-1.9228
X2.5264Y-2.0228
X2.5264Y-2.1228
X2.5264Y-2.2228
X2.5264Y-2.3228
X3.9764Y-1.6228
X3.9764Y-1.7228
X3.9764Y-1.8228
X3.9764Y-1.9228
X3.9764Y-2.0228
X3.9764Y-2.1228
X3.9764Y-2.2228
X3.9764Y-2.3228
X2.435Y-1.2992
X2.535Y-1.2992
X2.635Y-1.2992
X2.735Y-1.2992
X3.816Y-3.164
X3.816Y-3.264
X3.816Y-3.364
X3.816Y-3.464
X3.916Y-3.164
X3.916Y-3.264
X3.916Y-3.364
X3.916Y-3.464
T3
X2.5984Y-2.674
X2.5984Y-2.774
X2.5984Y-2.874
X2.0733Y-2.112
X2.0733Y-2.3679
X2.2505Y-2.112
X2.2505Y-2.3679
T4
X2.4914Y-3.352
X2.6883Y-3.352
X3.2788Y-3.352
X3.4757Y-3.352
X4.8643Y-2.0291
X4.8643Y-2.226
X4.8672Y-2.9615
X4.8672Y-3.1583
X2.8851Y-3.352
X3.082Y-3.352
X2.2047Y-1.6929
X2.2047Y-1.8898
X2.2047Y-2.6772
X2.2047Y-2.874
X4.8643Y-1.6313
X4.8643Y-1.8282
X4.8666Y-2.5576
X4.8666Y-2.7545
T0
M30
