G04 #@! TF.GenerationSoftware,KiCad,Pcbnew,5.1.2*
G04 #@! TF.CreationDate,2019-07-01T14:10:27+02:00*
G04 #@! TF.ProjectId,pcb,7063622e-6b69-4636-9164-5f7063625858,rev?*
G04 #@! TF.SameCoordinates,Original*
G04 #@! TF.FileFunction,Legend,Top*
G04 #@! TF.FilePolarity,Positive*
%FSLAX46Y46*%
G04 Gerber Fmt 4.6, Leading zero omitted, Abs format (unit mm)*
G04 Created by KiCad (PCBNEW 5.1.2) date 2019-07-01 14:10:27*
%MOMM*%
%LPD*%
G04 APERTURE LIST*
%ADD10C,0.150000*%
%ADD11C,0.120000*%
G04 APERTURE END LIST*
D10*
X96761904Y-90571428D02*
X97523809Y-90571428D01*
X97142857Y-90952380D02*
X97142857Y-90190476D01*
X98476190Y-89952380D02*
X98000000Y-89952380D01*
X97952380Y-90428571D01*
X98000000Y-90380952D01*
X98095238Y-90333333D01*
X98333333Y-90333333D01*
X98428571Y-90380952D01*
X98476190Y-90428571D01*
X98523809Y-90523809D01*
X98523809Y-90761904D01*
X98476190Y-90857142D01*
X98428571Y-90904761D01*
X98333333Y-90952380D01*
X98095238Y-90952380D01*
X98000000Y-90904761D01*
X97952380Y-90857142D01*
X98857142Y-90285714D02*
X99095238Y-90952380D01*
X99333333Y-90285714D01*
X101666666Y-82452380D02*
X102285714Y-82452380D01*
X101952380Y-82833333D01*
X102095238Y-82833333D01*
X102190476Y-82880952D01*
X102238095Y-82928571D01*
X102285714Y-83023809D01*
X102285714Y-83261904D01*
X102238095Y-83357142D01*
X102190476Y-83404761D01*
X102095238Y-83452380D01*
X101809523Y-83452380D01*
X101714285Y-83404761D01*
X101666666Y-83357142D01*
X101714285Y-85047619D02*
X101761904Y-85000000D01*
X101857142Y-84952380D01*
X102095238Y-84952380D01*
X102190476Y-85000000D01*
X102238095Y-85047619D01*
X102285714Y-85142857D01*
X102285714Y-85238095D01*
X102238095Y-85380952D01*
X101666666Y-85952380D01*
X102285714Y-85952380D01*
X94452380Y-84952380D02*
X94547619Y-84952380D01*
X94642857Y-85000000D01*
X94690476Y-85047619D01*
X94738095Y-85142857D01*
X94785714Y-85333333D01*
X94785714Y-85571428D01*
X94738095Y-85761904D01*
X94690476Y-85857142D01*
X94642857Y-85904761D01*
X94547619Y-85952380D01*
X94452380Y-85952380D01*
X94357142Y-85904761D01*
X94309523Y-85857142D01*
X94261904Y-85761904D01*
X94214285Y-85571428D01*
X94214285Y-85333333D01*
X94261904Y-85142857D01*
X94309523Y-85047619D01*
X94357142Y-85000000D01*
X94452380Y-84952380D01*
X94785714Y-83452380D02*
X94214285Y-83452380D01*
X94500000Y-83452380D02*
X94500000Y-82452380D01*
X94404761Y-82595238D01*
X94309523Y-82690476D01*
X94214285Y-82738095D01*
X93357142Y-80000000D02*
X93261904Y-79952380D01*
X93119047Y-79952380D01*
X92976190Y-80000000D01*
X92880952Y-80095238D01*
X92833333Y-80190476D01*
X92785714Y-80380952D01*
X92785714Y-80523809D01*
X92833333Y-80714285D01*
X92880952Y-80809523D01*
X92976190Y-80904761D01*
X93119047Y-80952380D01*
X93214285Y-80952380D01*
X93357142Y-80904761D01*
X93404761Y-80857142D01*
X93404761Y-80523809D01*
X93214285Y-80523809D01*
X93833333Y-80285714D02*
X93833333Y-80952380D01*
X93833333Y-80380952D02*
X93880952Y-80333333D01*
X93976190Y-80285714D01*
X94119047Y-80285714D01*
X94214285Y-80333333D01*
X94261904Y-80428571D01*
X94261904Y-80952380D01*
X95166666Y-80952380D02*
X95166666Y-79952380D01*
X95166666Y-80904761D02*
X95071428Y-80952380D01*
X94880952Y-80952380D01*
X94785714Y-80904761D01*
X94738095Y-80857142D01*
X94690476Y-80761904D01*
X94690476Y-80476190D01*
X94738095Y-80380952D01*
X94785714Y-80333333D01*
X94880952Y-80285714D01*
X95071428Y-80285714D01*
X95166666Y-80333333D01*
X101857142Y-80000000D02*
X101761904Y-79952380D01*
X101619047Y-79952380D01*
X101476190Y-80000000D01*
X101380952Y-80095238D01*
X101333333Y-80190476D01*
X101285714Y-80380952D01*
X101285714Y-80523809D01*
X101333333Y-80714285D01*
X101380952Y-80809523D01*
X101476190Y-80904761D01*
X101619047Y-80952380D01*
X101714285Y-80952380D01*
X101857142Y-80904761D01*
X101904761Y-80857142D01*
X101904761Y-80523809D01*
X101714285Y-80523809D01*
X102333333Y-80285714D02*
X102333333Y-80952380D01*
X102333333Y-80380952D02*
X102380952Y-80333333D01*
X102476190Y-80285714D01*
X102619047Y-80285714D01*
X102714285Y-80333333D01*
X102761904Y-80428571D01*
X102761904Y-80952380D01*
X103666666Y-80952380D02*
X103666666Y-79952380D01*
X103666666Y-80904761D02*
X103571428Y-80952380D01*
X103380952Y-80952380D01*
X103285714Y-80904761D01*
X103238095Y-80857142D01*
X103190476Y-80761904D01*
X103190476Y-80476190D01*
X103238095Y-80380952D01*
X103285714Y-80333333D01*
X103380952Y-80285714D01*
X103571428Y-80285714D01*
X103666666Y-80333333D01*
X77000000Y-90952380D02*
X77000000Y-89952380D01*
X77476190Y-90952380D02*
X77476190Y-89952380D01*
X78047619Y-90952380D01*
X78047619Y-89952380D01*
X78428571Y-89952380D02*
X79047619Y-89952380D01*
X78714285Y-90333333D01*
X78857142Y-90333333D01*
X78952380Y-90380952D01*
X79000000Y-90428571D01*
X79047619Y-90523809D01*
X79047619Y-90761904D01*
X79000000Y-90857142D01*
X78952380Y-90904761D01*
X78857142Y-90952380D01*
X78571428Y-90952380D01*
X78476190Y-90904761D01*
X78428571Y-90857142D01*
X72000000Y-90952380D02*
X72000000Y-89952380D01*
X72476190Y-90952380D02*
X72476190Y-89952380D01*
X73047619Y-90952380D01*
X73047619Y-89952380D01*
X73476190Y-90047619D02*
X73523809Y-90000000D01*
X73619047Y-89952380D01*
X73857142Y-89952380D01*
X73952380Y-90000000D01*
X74000000Y-90047619D01*
X74047619Y-90142857D01*
X74047619Y-90238095D01*
X74000000Y-90380952D01*
X73428571Y-90952380D01*
X74047619Y-90952380D01*
X67000000Y-90952380D02*
X67000000Y-89952380D01*
X67476190Y-90952380D02*
X67476190Y-89952380D01*
X68047619Y-90952380D01*
X68047619Y-89952380D01*
X69047619Y-90952380D02*
X68476190Y-90952380D01*
X68761904Y-90952380D02*
X68761904Y-89952380D01*
X68666666Y-90095238D01*
X68571428Y-90190476D01*
X68476190Y-90238095D01*
X62000000Y-90952380D02*
X62000000Y-89952380D01*
X62476190Y-90952380D02*
X62476190Y-89952380D01*
X63047619Y-90952380D01*
X63047619Y-89952380D01*
X63714285Y-89952380D02*
X63809523Y-89952380D01*
X63904761Y-90000000D01*
X63952380Y-90047619D01*
X64000000Y-90142857D01*
X64047619Y-90333333D01*
X64047619Y-90571428D01*
X64000000Y-90761904D01*
X63952380Y-90857142D01*
X63904761Y-90904761D01*
X63809523Y-90952380D01*
X63714285Y-90952380D01*
X63619047Y-90904761D01*
X63571428Y-90857142D01*
X63523809Y-90761904D01*
X63476190Y-90571428D01*
X63476190Y-90333333D01*
X63523809Y-90142857D01*
X63571428Y-90047619D01*
X63619047Y-90000000D01*
X63714285Y-89952380D01*
X105042009Y-87387180D02*
X105232485Y-87387180D01*
X105327723Y-87434800D01*
X105422961Y-87530038D01*
X105470580Y-87720514D01*
X105470580Y-88053847D01*
X105422961Y-88244323D01*
X105327723Y-88339561D01*
X105232485Y-88387180D01*
X105042009Y-88387180D01*
X104946771Y-88339561D01*
X104851533Y-88244323D01*
X104803914Y-88053847D01*
X104803914Y-87720514D01*
X104851533Y-87530038D01*
X104946771Y-87434800D01*
X105042009Y-87387180D01*
X105803914Y-87720514D02*
X106042009Y-88387180D01*
X106280104Y-87720514D01*
X107089628Y-88387180D02*
X107089628Y-87387180D01*
X107089628Y-88339561D02*
X106994390Y-88387180D01*
X106803914Y-88387180D01*
X106708676Y-88339561D01*
X106661057Y-88291942D01*
X106613438Y-88196704D01*
X106613438Y-87910990D01*
X106661057Y-87815752D01*
X106708676Y-87768133D01*
X106803914Y-87720514D01*
X106994390Y-87720514D01*
X107089628Y-87768133D01*
X107946771Y-88339561D02*
X107851533Y-88387180D01*
X107661057Y-88387180D01*
X107565819Y-88339561D01*
X107518200Y-88244323D01*
X107518200Y-87863371D01*
X107565819Y-87768133D01*
X107661057Y-87720514D01*
X107851533Y-87720514D01*
X107946771Y-87768133D01*
X107994390Y-87863371D01*
X107994390Y-87958609D01*
X107518200Y-88053847D01*
X108422961Y-88291942D02*
X108470580Y-88339561D01*
X108422961Y-88387180D01*
X108375342Y-88339561D01*
X108422961Y-88291942D01*
X108422961Y-88387180D01*
X108899152Y-88387180D02*
X108899152Y-87387180D01*
X108899152Y-87768133D02*
X108994390Y-87720514D01*
X109184866Y-87720514D01*
X109280104Y-87768133D01*
X109327723Y-87815752D01*
X109375342Y-87910990D01*
X109375342Y-88196704D01*
X109327723Y-88291942D01*
X109280104Y-88339561D01*
X109184866Y-88387180D01*
X108994390Y-88387180D01*
X108899152Y-88339561D01*
X110184866Y-88339561D02*
X110089628Y-88387180D01*
X109899152Y-88387180D01*
X109803914Y-88339561D01*
X109756295Y-88244323D01*
X109756295Y-87863371D01*
X109803914Y-87768133D01*
X109899152Y-87720514D01*
X110089628Y-87720514D01*
X110184866Y-87768133D01*
X110232485Y-87863371D01*
X110232485Y-87958609D01*
X109756295Y-88053847D01*
X99038590Y-34730180D02*
X99038590Y-33730180D01*
X99610019Y-34730180D02*
X99181447Y-34158752D01*
X99610019Y-33730180D02*
X99038590Y-34301609D01*
X100038590Y-34730180D02*
X100038590Y-33730180D01*
X100610019Y-34730180D01*
X100610019Y-33730180D01*
X100990971Y-33730180D02*
X101657638Y-34730180D01*
X101657638Y-33730180D02*
X100990971Y-34730180D01*
X102657638Y-34063514D02*
X103038590Y-34063514D01*
X102800495Y-33730180D02*
X102800495Y-34587323D01*
X102848114Y-34682561D01*
X102943352Y-34730180D01*
X103038590Y-34730180D01*
X103752876Y-34682561D02*
X103657638Y-34730180D01*
X103467161Y-34730180D01*
X103371923Y-34682561D01*
X103324304Y-34587323D01*
X103324304Y-34206371D01*
X103371923Y-34111133D01*
X103467161Y-34063514D01*
X103657638Y-34063514D01*
X103752876Y-34111133D01*
X103800495Y-34206371D01*
X103800495Y-34301609D01*
X103324304Y-34396847D01*
X104229066Y-34730180D02*
X104229066Y-34063514D01*
X104229066Y-34158752D02*
X104276685Y-34111133D01*
X104371923Y-34063514D01*
X104514780Y-34063514D01*
X104610019Y-34111133D01*
X104657638Y-34206371D01*
X104657638Y-34730180D01*
X104657638Y-34206371D02*
X104705257Y-34111133D01*
X104800495Y-34063514D01*
X104943352Y-34063514D01*
X105038590Y-34111133D01*
X105086209Y-34206371D01*
X105086209Y-34730180D01*
X105562400Y-34063514D02*
X105562400Y-35063514D01*
X105562400Y-34111133D02*
X105657638Y-34063514D01*
X105848114Y-34063514D01*
X105943352Y-34111133D01*
X105990971Y-34158752D01*
X106038590Y-34253990D01*
X106038590Y-34539704D01*
X105990971Y-34634942D01*
X105943352Y-34682561D01*
X105848114Y-34730180D01*
X105657638Y-34730180D01*
X105562400Y-34682561D01*
X106848114Y-34682561D02*
X106752876Y-34730180D01*
X106562400Y-34730180D01*
X106467161Y-34682561D01*
X106419542Y-34587323D01*
X106419542Y-34206371D01*
X106467161Y-34111133D01*
X106562400Y-34063514D01*
X106752876Y-34063514D01*
X106848114Y-34111133D01*
X106895733Y-34206371D01*
X106895733Y-34301609D01*
X106419542Y-34396847D01*
X107324304Y-34730180D02*
X107324304Y-34063514D01*
X107324304Y-34253990D02*
X107371923Y-34158752D01*
X107419542Y-34111133D01*
X107514780Y-34063514D01*
X107610019Y-34063514D01*
X108371923Y-34730180D02*
X108371923Y-34206371D01*
X108324304Y-34111133D01*
X108229066Y-34063514D01*
X108038590Y-34063514D01*
X107943352Y-34111133D01*
X108371923Y-34682561D02*
X108276685Y-34730180D01*
X108038590Y-34730180D01*
X107943352Y-34682561D01*
X107895733Y-34587323D01*
X107895733Y-34492085D01*
X107943352Y-34396847D01*
X108038590Y-34349228D01*
X108276685Y-34349228D01*
X108371923Y-34301609D01*
X108705257Y-34063514D02*
X109086209Y-34063514D01*
X108848114Y-33730180D02*
X108848114Y-34587323D01*
X108895733Y-34682561D01*
X108990971Y-34730180D01*
X109086209Y-34730180D01*
X109848114Y-34063514D02*
X109848114Y-34730180D01*
X109419542Y-34063514D02*
X109419542Y-34587323D01*
X109467161Y-34682561D01*
X109562400Y-34730180D01*
X109705257Y-34730180D01*
X109800495Y-34682561D01*
X109848114Y-34634942D01*
X110324304Y-34730180D02*
X110324304Y-34063514D01*
X110324304Y-34253990D02*
X110371923Y-34158752D01*
X110419542Y-34111133D01*
X110514780Y-34063514D01*
X110610019Y-34063514D01*
X111324304Y-34682561D02*
X111229066Y-34730180D01*
X111038590Y-34730180D01*
X110943352Y-34682561D01*
X110895733Y-34587323D01*
X110895733Y-34206371D01*
X110943352Y-34111133D01*
X111038590Y-34063514D01*
X111229066Y-34063514D01*
X111324304Y-34111133D01*
X111371923Y-34206371D01*
X111371923Y-34301609D01*
X110895733Y-34396847D01*
X97990971Y-36380180D02*
X97990971Y-35713514D01*
X97990971Y-35808752D02*
X98038590Y-35761133D01*
X98133828Y-35713514D01*
X98276685Y-35713514D01*
X98371923Y-35761133D01*
X98419542Y-35856371D01*
X98419542Y-36380180D01*
X98419542Y-35856371D02*
X98467161Y-35761133D01*
X98562400Y-35713514D01*
X98705257Y-35713514D01*
X98800495Y-35761133D01*
X98848114Y-35856371D01*
X98848114Y-36380180D01*
X99467161Y-36380180D02*
X99371923Y-36332561D01*
X99324304Y-36284942D01*
X99276685Y-36189704D01*
X99276685Y-35903990D01*
X99324304Y-35808752D01*
X99371923Y-35761133D01*
X99467161Y-35713514D01*
X99610019Y-35713514D01*
X99705257Y-35761133D01*
X99752876Y-35808752D01*
X99800495Y-35903990D01*
X99800495Y-36189704D01*
X99752876Y-36284942D01*
X99705257Y-36332561D01*
X99610019Y-36380180D01*
X99467161Y-36380180D01*
X100229066Y-35713514D02*
X100229066Y-36380180D01*
X100229066Y-35808752D02*
X100276685Y-35761133D01*
X100371923Y-35713514D01*
X100514780Y-35713514D01*
X100610019Y-35761133D01*
X100657638Y-35856371D01*
X100657638Y-36380180D01*
X101133828Y-36380180D02*
X101133828Y-35713514D01*
X101133828Y-35380180D02*
X101086209Y-35427800D01*
X101133828Y-35475419D01*
X101181447Y-35427800D01*
X101133828Y-35380180D01*
X101133828Y-35475419D01*
X101467161Y-35713514D02*
X101848114Y-35713514D01*
X101610019Y-35380180D02*
X101610019Y-36237323D01*
X101657638Y-36332561D01*
X101752876Y-36380180D01*
X101848114Y-36380180D01*
X102324304Y-36380180D02*
X102229066Y-36332561D01*
X102181447Y-36284942D01*
X102133828Y-36189704D01*
X102133828Y-35903990D01*
X102181447Y-35808752D01*
X102229066Y-35761133D01*
X102324304Y-35713514D01*
X102467161Y-35713514D01*
X102562400Y-35761133D01*
X102610019Y-35808752D01*
X102657638Y-35903990D01*
X102657638Y-36189704D01*
X102610019Y-36284942D01*
X102562400Y-36332561D01*
X102467161Y-36380180D01*
X102324304Y-36380180D01*
X103086209Y-36380180D02*
X103086209Y-35713514D01*
X103086209Y-35903990D02*
X103133828Y-35808752D01*
X103181447Y-35761133D01*
X103276685Y-35713514D01*
X103371923Y-35713514D01*
X104324304Y-35380180D02*
X104657638Y-36380180D01*
X104990971Y-35380180D01*
X105848114Y-36380180D02*
X105276685Y-36380180D01*
X105562400Y-36380180D02*
X105562400Y-35380180D01*
X105467161Y-35523038D01*
X105371923Y-35618276D01*
X105276685Y-35665895D01*
X106276685Y-36284942D02*
X106324304Y-36332561D01*
X106276685Y-36380180D01*
X106229066Y-36332561D01*
X106276685Y-36284942D01*
X106276685Y-36380180D01*
X107276685Y-36380180D02*
X106705257Y-36380180D01*
X106990971Y-36380180D02*
X106990971Y-35380180D01*
X106895733Y-35523038D01*
X106800495Y-35618276D01*
X106705257Y-35665895D01*
X108752876Y-36761133D02*
X108705257Y-36713514D01*
X108610019Y-36570657D01*
X108562400Y-36475419D01*
X108514780Y-36332561D01*
X108467161Y-36094466D01*
X108467161Y-35903990D01*
X108514780Y-35665895D01*
X108562400Y-35523038D01*
X108610019Y-35427800D01*
X108705257Y-35284942D01*
X108752876Y-35237323D01*
X109086209Y-35475419D02*
X109133828Y-35427800D01*
X109229066Y-35380180D01*
X109467161Y-35380180D01*
X109562400Y-35427800D01*
X109610019Y-35475419D01*
X109657638Y-35570657D01*
X109657638Y-35665895D01*
X109610019Y-35808752D01*
X109038590Y-36380180D01*
X109657638Y-36380180D01*
X110276685Y-35380180D02*
X110371923Y-35380180D01*
X110467161Y-35427800D01*
X110514780Y-35475419D01*
X110562400Y-35570657D01*
X110610019Y-35761133D01*
X110610019Y-35999228D01*
X110562400Y-36189704D01*
X110514780Y-36284942D01*
X110467161Y-36332561D01*
X110371923Y-36380180D01*
X110276685Y-36380180D01*
X110181447Y-36332561D01*
X110133828Y-36284942D01*
X110086209Y-36189704D01*
X110038590Y-35999228D01*
X110038590Y-35761133D01*
X110086209Y-35570657D01*
X110133828Y-35475419D01*
X110181447Y-35427800D01*
X110276685Y-35380180D01*
X111562400Y-36380180D02*
X110990971Y-36380180D01*
X111276685Y-36380180D02*
X111276685Y-35380180D01*
X111181447Y-35523038D01*
X111086209Y-35618276D01*
X110990971Y-35665895D01*
X112038590Y-36380180D02*
X112229066Y-36380180D01*
X112324304Y-36332561D01*
X112371923Y-36284942D01*
X112467161Y-36142085D01*
X112514780Y-35951609D01*
X112514780Y-35570657D01*
X112467161Y-35475419D01*
X112419542Y-35427800D01*
X112324304Y-35380180D01*
X112133828Y-35380180D01*
X112038590Y-35427800D01*
X111990971Y-35475419D01*
X111943352Y-35570657D01*
X111943352Y-35808752D01*
X111990971Y-35903990D01*
X112038590Y-35951609D01*
X112133828Y-35999228D01*
X112324304Y-35999228D01*
X112419542Y-35951609D01*
X112467161Y-35903990D01*
X112514780Y-35808752D01*
X112848114Y-36761133D02*
X112895733Y-36713514D01*
X112990971Y-36570657D01*
X113038590Y-36475419D01*
X113086209Y-36332561D01*
X113133828Y-36094466D01*
X113133828Y-35903990D01*
X113086209Y-35665895D01*
X113038590Y-35523038D01*
X112990971Y-35427800D01*
X112895733Y-35284942D01*
X112848114Y-35237323D01*
X98241790Y-31659580D02*
X98432266Y-31659580D01*
X98527504Y-31707200D01*
X98622742Y-31802438D01*
X98670361Y-31992914D01*
X98670361Y-32326247D01*
X98622742Y-32516723D01*
X98527504Y-32611961D01*
X98432266Y-32659580D01*
X98241790Y-32659580D01*
X98146552Y-32611961D01*
X98051314Y-32516723D01*
X98003695Y-32326247D01*
X98003695Y-31992914D01*
X98051314Y-31802438D01*
X98146552Y-31707200D01*
X98241790Y-31659580D01*
X99241790Y-32659580D02*
X99146552Y-32611961D01*
X99098933Y-32516723D01*
X99098933Y-31659580D01*
X99622742Y-32659580D02*
X99622742Y-31992914D01*
X99622742Y-31659580D02*
X99575123Y-31707200D01*
X99622742Y-31754819D01*
X99670361Y-31707200D01*
X99622742Y-31659580D01*
X99622742Y-31754819D01*
X100003695Y-31992914D02*
X100241790Y-32659580D01*
X100479885Y-31992914D01*
X100860838Y-32659580D02*
X100860838Y-31992914D01*
X100860838Y-31659580D02*
X100813219Y-31707200D01*
X100860838Y-31754819D01*
X100908457Y-31707200D01*
X100860838Y-31659580D01*
X100860838Y-31754819D01*
X101717980Y-32611961D02*
X101622742Y-32659580D01*
X101432266Y-32659580D01*
X101337028Y-32611961D01*
X101289409Y-32516723D01*
X101289409Y-32135771D01*
X101337028Y-32040533D01*
X101432266Y-31992914D01*
X101622742Y-31992914D01*
X101717980Y-32040533D01*
X101765600Y-32135771D01*
X101765600Y-32231009D01*
X101289409Y-32326247D01*
X102194171Y-32659580D02*
X102194171Y-31992914D01*
X102194171Y-32183390D02*
X102241790Y-32088152D01*
X102289409Y-32040533D01*
X102384647Y-31992914D01*
X102479885Y-31992914D01*
X103432266Y-31659580D02*
X103765600Y-32659580D01*
X104098933Y-31659580D01*
X104860838Y-32659580D02*
X104860838Y-32135771D01*
X104813219Y-32040533D01*
X104717980Y-31992914D01*
X104527504Y-31992914D01*
X104432266Y-32040533D01*
X104860838Y-32611961D02*
X104765600Y-32659580D01*
X104527504Y-32659580D01*
X104432266Y-32611961D01*
X104384647Y-32516723D01*
X104384647Y-32421485D01*
X104432266Y-32326247D01*
X104527504Y-32278628D01*
X104765600Y-32278628D01*
X104860838Y-32231009D01*
X105337028Y-31992914D02*
X105337028Y-32659580D01*
X105337028Y-32088152D02*
X105384647Y-32040533D01*
X105479885Y-31992914D01*
X105622742Y-31992914D01*
X105717980Y-32040533D01*
X105765600Y-32135771D01*
X105765600Y-32659580D01*
X107432266Y-32659580D02*
X107432266Y-31659580D01*
X107432266Y-32611961D02*
X107337028Y-32659580D01*
X107146552Y-32659580D01*
X107051314Y-32611961D01*
X107003695Y-32564342D01*
X106956076Y-32469104D01*
X106956076Y-32183390D01*
X107003695Y-32088152D01*
X107051314Y-32040533D01*
X107146552Y-31992914D01*
X107337028Y-31992914D01*
X107432266Y-32040533D01*
X108289409Y-32611961D02*
X108194171Y-32659580D01*
X108003695Y-32659580D01*
X107908457Y-32611961D01*
X107860838Y-32516723D01*
X107860838Y-32135771D01*
X107908457Y-32040533D01*
X108003695Y-31992914D01*
X108194171Y-31992914D01*
X108289409Y-32040533D01*
X108337028Y-32135771D01*
X108337028Y-32231009D01*
X107860838Y-32326247D01*
X108765600Y-31992914D02*
X108765600Y-32659580D01*
X108765600Y-32088152D02*
X108813219Y-32040533D01*
X108908457Y-31992914D01*
X109051314Y-31992914D01*
X109146552Y-32040533D01*
X109194171Y-32135771D01*
X109194171Y-32659580D01*
X110432266Y-32135771D02*
X110765600Y-32135771D01*
X110908457Y-32659580D02*
X110432266Y-32659580D01*
X110432266Y-31659580D01*
X110908457Y-31659580D01*
X111717980Y-32611961D02*
X111622742Y-32659580D01*
X111432266Y-32659580D01*
X111337028Y-32611961D01*
X111289409Y-32516723D01*
X111289409Y-32135771D01*
X111337028Y-32040533D01*
X111432266Y-31992914D01*
X111622742Y-31992914D01*
X111717980Y-32040533D01*
X111765600Y-32135771D01*
X111765600Y-32231009D01*
X111289409Y-32326247D01*
X112622742Y-32659580D02*
X112622742Y-31659580D01*
X112622742Y-32611961D02*
X112527504Y-32659580D01*
X112337028Y-32659580D01*
X112241790Y-32611961D01*
X112194171Y-32564342D01*
X112146552Y-32469104D01*
X112146552Y-32183390D01*
X112194171Y-32088152D01*
X112241790Y-32040533D01*
X112337028Y-31992914D01*
X112527504Y-31992914D01*
X112622742Y-32040533D01*
X113479885Y-32611961D02*
X113384647Y-32659580D01*
X113194171Y-32659580D01*
X113098933Y-32611961D01*
X113051314Y-32516723D01*
X113051314Y-32135771D01*
X113098933Y-32040533D01*
X113194171Y-31992914D01*
X113384647Y-31992914D01*
X113479885Y-32040533D01*
X113527504Y-32135771D01*
X113527504Y-32231009D01*
X113051314Y-32326247D01*
X50619047Y-73071428D02*
X51380952Y-73071428D01*
X51000000Y-73452380D02*
X51000000Y-72690476D01*
X51071428Y-68380952D02*
X51071428Y-67619047D01*
X50619047Y-48071428D02*
X51380952Y-48071428D01*
X51000000Y-48452380D02*
X51000000Y-47690476D01*
X51071428Y-43306952D02*
X51071428Y-42545047D01*
X77490580Y-36677552D02*
X77014390Y-37010885D01*
X77490580Y-37248980D02*
X76490580Y-37248980D01*
X76490580Y-36868028D01*
X76538200Y-36772790D01*
X76585819Y-36725171D01*
X76681057Y-36677552D01*
X76823914Y-36677552D01*
X76919152Y-36725171D01*
X76966771Y-36772790D01*
X77014390Y-36868028D01*
X77014390Y-37248980D01*
X77442961Y-36296600D02*
X77490580Y-36201361D01*
X77490580Y-36010885D01*
X77442961Y-35915647D01*
X77347723Y-35868028D01*
X77300104Y-35868028D01*
X77204866Y-35915647D01*
X77157247Y-36010885D01*
X77157247Y-36153742D01*
X77109628Y-36248980D01*
X77014390Y-36296600D01*
X76966771Y-36296600D01*
X76871533Y-36248980D01*
X76823914Y-36153742D01*
X76823914Y-36010885D01*
X76871533Y-35915647D01*
X76823914Y-35582314D02*
X76823914Y-35201361D01*
X76490580Y-35439457D02*
X77347723Y-35439457D01*
X77442961Y-35391838D01*
X77490580Y-35296600D01*
X77490580Y-35201361D01*
X68918200Y-36812457D02*
X68870580Y-36907695D01*
X68870580Y-37050552D01*
X68918200Y-37193409D01*
X69013438Y-37288647D01*
X69108676Y-37336266D01*
X69299152Y-37383885D01*
X69442009Y-37383885D01*
X69632485Y-37336266D01*
X69727723Y-37288647D01*
X69822961Y-37193409D01*
X69870580Y-37050552D01*
X69870580Y-36955314D01*
X69822961Y-36812457D01*
X69775342Y-36764838D01*
X69442009Y-36764838D01*
X69442009Y-36955314D01*
X69203914Y-36336266D02*
X69870580Y-36336266D01*
X69299152Y-36336266D02*
X69251533Y-36288647D01*
X69203914Y-36193409D01*
X69203914Y-36050552D01*
X69251533Y-35955314D01*
X69346771Y-35907695D01*
X69870580Y-35907695D01*
X69870580Y-35002933D02*
X68870580Y-35002933D01*
X69822961Y-35002933D02*
X69870580Y-35098171D01*
X69870580Y-35288647D01*
X69822961Y-35383885D01*
X69775342Y-35431504D01*
X69680104Y-35479123D01*
X69394390Y-35479123D01*
X69299152Y-35431504D01*
X69251533Y-35383885D01*
X69203914Y-35288647D01*
X69203914Y-35098171D01*
X69251533Y-35002933D01*
X67362342Y-36298142D02*
X67409961Y-36345761D01*
X67457580Y-36488619D01*
X67457580Y-36583857D01*
X67409961Y-36726714D01*
X67314723Y-36821952D01*
X67219485Y-36869571D01*
X67029009Y-36917190D01*
X66886152Y-36917190D01*
X66695676Y-36869571D01*
X66600438Y-36821952D01*
X66505200Y-36726714D01*
X66457580Y-36583857D01*
X66457580Y-36488619D01*
X66505200Y-36345761D01*
X66552819Y-36298142D01*
X67457580Y-35726714D02*
X67409961Y-35821952D01*
X67314723Y-35869571D01*
X66457580Y-35869571D01*
X67457580Y-35345761D02*
X66457580Y-35345761D01*
X67076628Y-35250523D02*
X67457580Y-34964809D01*
X66790914Y-34964809D02*
X67171866Y-35345761D01*
X64688980Y-37926780D02*
X63688980Y-37926780D01*
X63688980Y-37688685D01*
X63736600Y-37545828D01*
X63831838Y-37450590D01*
X63927076Y-37402971D01*
X64117552Y-37355352D01*
X64260409Y-37355352D01*
X64450885Y-37402971D01*
X64546123Y-37450590D01*
X64641361Y-37545828D01*
X64688980Y-37688685D01*
X64688980Y-37926780D01*
X64688980Y-36498209D02*
X64165171Y-36498209D01*
X64069933Y-36545828D01*
X64022314Y-36641066D01*
X64022314Y-36831542D01*
X64069933Y-36926780D01*
X64641361Y-36498209D02*
X64688980Y-36593447D01*
X64688980Y-36831542D01*
X64641361Y-36926780D01*
X64546123Y-36974400D01*
X64450885Y-36974400D01*
X64355647Y-36926780D01*
X64308028Y-36831542D01*
X64308028Y-36593447D01*
X64260409Y-36498209D01*
X64022314Y-36164876D02*
X64022314Y-35783923D01*
X63688980Y-36022019D02*
X64546123Y-36022019D01*
X64641361Y-35974400D01*
X64688980Y-35879161D01*
X64688980Y-35783923D01*
X64688980Y-35022019D02*
X64165171Y-35022019D01*
X64069933Y-35069638D01*
X64022314Y-35164876D01*
X64022314Y-35355352D01*
X64069933Y-35450590D01*
X64641361Y-35022019D02*
X64688980Y-35117257D01*
X64688980Y-35355352D01*
X64641361Y-35450590D01*
X64546123Y-35498209D01*
X64450885Y-35498209D01*
X64355647Y-35450590D01*
X64308028Y-35355352D01*
X64308028Y-35117257D01*
X64260409Y-35022019D01*
X62301380Y-36550552D02*
X61825190Y-36883885D01*
X62301380Y-37121980D02*
X61301380Y-37121980D01*
X61301380Y-36741028D01*
X61349000Y-36645790D01*
X61396619Y-36598171D01*
X61491857Y-36550552D01*
X61634714Y-36550552D01*
X61729952Y-36598171D01*
X61777571Y-36645790D01*
X61825190Y-36741028D01*
X61825190Y-37121980D01*
X62253761Y-36169600D02*
X62301380Y-36074361D01*
X62301380Y-35883885D01*
X62253761Y-35788647D01*
X62158523Y-35741028D01*
X62110904Y-35741028D01*
X62015666Y-35788647D01*
X61968047Y-35883885D01*
X61968047Y-36026742D01*
X61920428Y-36121980D01*
X61825190Y-36169600D01*
X61777571Y-36169600D01*
X61682333Y-36121980D01*
X61634714Y-36026742D01*
X61634714Y-35883885D01*
X61682333Y-35788647D01*
X61634714Y-35455314D02*
X61634714Y-35074361D01*
X61301380Y-35312457D02*
X62158523Y-35312457D01*
X62253761Y-35264838D01*
X62301380Y-35169600D01*
X62301380Y-35074361D01*
X105140714Y-61275980D02*
X105331190Y-61275980D01*
X105426428Y-61323600D01*
X105521666Y-61418838D01*
X105569285Y-61609314D01*
X105569285Y-61942647D01*
X105521666Y-62133123D01*
X105426428Y-62228361D01*
X105331190Y-62275980D01*
X105140714Y-62275980D01*
X105045476Y-62228361D01*
X104950238Y-62133123D01*
X104902619Y-61942647D01*
X104902619Y-61609314D01*
X104950238Y-61418838D01*
X105045476Y-61323600D01*
X105140714Y-61275980D01*
X106426428Y-61609314D02*
X106426428Y-62275980D01*
X105997857Y-61609314D02*
X105997857Y-62133123D01*
X106045476Y-62228361D01*
X106140714Y-62275980D01*
X106283571Y-62275980D01*
X106378809Y-62228361D01*
X106426428Y-62180742D01*
X106759761Y-61609314D02*
X107140714Y-61609314D01*
X106902619Y-61275980D02*
X106902619Y-62133123D01*
X106950238Y-62228361D01*
X107045476Y-62275980D01*
X107140714Y-62275980D01*
X107902619Y-62275980D02*
X107902619Y-61275980D01*
X107902619Y-62228361D02*
X107807380Y-62275980D01*
X107616904Y-62275980D01*
X107521666Y-62228361D01*
X107474047Y-62180742D01*
X107426428Y-62085504D01*
X107426428Y-61799790D01*
X107474047Y-61704552D01*
X107521666Y-61656933D01*
X107616904Y-61609314D01*
X107807380Y-61609314D01*
X107902619Y-61656933D01*
X108521666Y-62275980D02*
X108426428Y-62228361D01*
X108378809Y-62180742D01*
X108331190Y-62085504D01*
X108331190Y-61799790D01*
X108378809Y-61704552D01*
X108426428Y-61656933D01*
X108521666Y-61609314D01*
X108664523Y-61609314D01*
X108759761Y-61656933D01*
X108807380Y-61704552D01*
X108855000Y-61799790D01*
X108855000Y-62085504D01*
X108807380Y-62180742D01*
X108759761Y-62228361D01*
X108664523Y-62275980D01*
X108521666Y-62275980D01*
X109426428Y-62275980D02*
X109331190Y-62228361D01*
X109283571Y-62180742D01*
X109235952Y-62085504D01*
X109235952Y-61799790D01*
X109283571Y-61704552D01*
X109331190Y-61656933D01*
X109426428Y-61609314D01*
X109569285Y-61609314D01*
X109664523Y-61656933D01*
X109712142Y-61704552D01*
X109759761Y-61799790D01*
X109759761Y-62085504D01*
X109712142Y-62180742D01*
X109664523Y-62228361D01*
X109569285Y-62275980D01*
X109426428Y-62275980D01*
X110188333Y-62275980D02*
X110188333Y-61609314D01*
X110188333Y-61799790D02*
X110235952Y-61704552D01*
X110283571Y-61656933D01*
X110378809Y-61609314D01*
X110474047Y-61609314D01*
X111426428Y-61609314D02*
X111807380Y-61609314D01*
X111569285Y-61275980D02*
X111569285Y-62133123D01*
X111616904Y-62228361D01*
X111712142Y-62275980D01*
X111807380Y-62275980D01*
X112521666Y-62228361D02*
X112426428Y-62275980D01*
X112235952Y-62275980D01*
X112140714Y-62228361D01*
X112093095Y-62133123D01*
X112093095Y-61752171D01*
X112140714Y-61656933D01*
X112235952Y-61609314D01*
X112426428Y-61609314D01*
X112521666Y-61656933D01*
X112569285Y-61752171D01*
X112569285Y-61847409D01*
X112093095Y-61942647D01*
X112997857Y-62275980D02*
X112997857Y-61609314D01*
X112997857Y-61704552D02*
X113045476Y-61656933D01*
X113140714Y-61609314D01*
X113283571Y-61609314D01*
X113378809Y-61656933D01*
X113426428Y-61752171D01*
X113426428Y-62275980D01*
X113426428Y-61752171D02*
X113474047Y-61656933D01*
X113569285Y-61609314D01*
X113712142Y-61609314D01*
X113807380Y-61656933D01*
X113855000Y-61752171D01*
X113855000Y-62275980D01*
X114331190Y-61609314D02*
X114331190Y-62609314D01*
X114331190Y-61656933D02*
X114426428Y-61609314D01*
X114616904Y-61609314D01*
X114712142Y-61656933D01*
X114759761Y-61704552D01*
X114807380Y-61799790D01*
X114807380Y-62085504D01*
X114759761Y-62180742D01*
X114712142Y-62228361D01*
X114616904Y-62275980D01*
X114426428Y-62275980D01*
X114331190Y-62228361D01*
X104846952Y-38161980D02*
X105085047Y-39161980D01*
X105275523Y-38447695D01*
X105466000Y-39161980D01*
X105704095Y-38161980D01*
X106513619Y-39161980D02*
X106513619Y-38638171D01*
X106466000Y-38542933D01*
X106370761Y-38495314D01*
X106180285Y-38495314D01*
X106085047Y-38542933D01*
X106513619Y-39114361D02*
X106418380Y-39161980D01*
X106180285Y-39161980D01*
X106085047Y-39114361D01*
X106037428Y-39019123D01*
X106037428Y-38923885D01*
X106085047Y-38828647D01*
X106180285Y-38781028D01*
X106418380Y-38781028D01*
X106513619Y-38733409D01*
X106846952Y-38495314D02*
X107227904Y-38495314D01*
X106989809Y-38161980D02*
X106989809Y-39019123D01*
X107037428Y-39114361D01*
X107132666Y-39161980D01*
X107227904Y-39161980D01*
X107942190Y-39114361D02*
X107846952Y-39161980D01*
X107656476Y-39161980D01*
X107561238Y-39114361D01*
X107513619Y-39019123D01*
X107513619Y-38638171D01*
X107561238Y-38542933D01*
X107656476Y-38495314D01*
X107846952Y-38495314D01*
X107942190Y-38542933D01*
X107989809Y-38638171D01*
X107989809Y-38733409D01*
X107513619Y-38828647D01*
X108418380Y-39161980D02*
X108418380Y-38495314D01*
X108418380Y-38685790D02*
X108466000Y-38590552D01*
X108513619Y-38542933D01*
X108608857Y-38495314D01*
X108704095Y-38495314D01*
X109656476Y-38495314D02*
X110037428Y-38495314D01*
X109799333Y-38161980D02*
X109799333Y-39019123D01*
X109846952Y-39114361D01*
X109942190Y-39161980D01*
X110037428Y-39161980D01*
X110751714Y-39114361D02*
X110656476Y-39161980D01*
X110466000Y-39161980D01*
X110370761Y-39114361D01*
X110323142Y-39019123D01*
X110323142Y-38638171D01*
X110370761Y-38542933D01*
X110466000Y-38495314D01*
X110656476Y-38495314D01*
X110751714Y-38542933D01*
X110799333Y-38638171D01*
X110799333Y-38733409D01*
X110323142Y-38828647D01*
X111227904Y-39161980D02*
X111227904Y-38495314D01*
X111227904Y-38590552D02*
X111275523Y-38542933D01*
X111370761Y-38495314D01*
X111513619Y-38495314D01*
X111608857Y-38542933D01*
X111656476Y-38638171D01*
X111656476Y-39161980D01*
X111656476Y-38638171D02*
X111704095Y-38542933D01*
X111799333Y-38495314D01*
X111942190Y-38495314D01*
X112037428Y-38542933D01*
X112085047Y-38638171D01*
X112085047Y-39161980D01*
X112561238Y-38495314D02*
X112561238Y-39495314D01*
X112561238Y-38542933D02*
X112656476Y-38495314D01*
X112846952Y-38495314D01*
X112942190Y-38542933D01*
X112989809Y-38590552D01*
X113037428Y-38685790D01*
X113037428Y-38971504D01*
X112989809Y-39066742D01*
X112942190Y-39114361D01*
X112846952Y-39161980D01*
X112656476Y-39161980D01*
X112561238Y-39114361D01*
X89624447Y-39593780D02*
X89148257Y-39593780D01*
X89148257Y-38593780D01*
X90386352Y-39546161D02*
X90291114Y-39593780D01*
X90100638Y-39593780D01*
X90005400Y-39546161D01*
X89957780Y-39498542D01*
X89910161Y-39403304D01*
X89910161Y-39117590D01*
X89957780Y-39022352D01*
X90005400Y-38974733D01*
X90100638Y-38927114D01*
X90291114Y-38927114D01*
X90386352Y-38974733D01*
X91243495Y-39593780D02*
X91243495Y-38593780D01*
X91243495Y-39546161D02*
X91148257Y-39593780D01*
X90957780Y-39593780D01*
X90862542Y-39546161D01*
X90814923Y-39498542D01*
X90767304Y-39403304D01*
X90767304Y-39117590D01*
X90814923Y-39022352D01*
X90862542Y-38974733D01*
X90957780Y-38927114D01*
X91148257Y-38927114D01*
X91243495Y-38974733D01*
X92481590Y-39593780D02*
X92481590Y-38593780D01*
X92481590Y-38974733D02*
X92576828Y-38927114D01*
X92767304Y-38927114D01*
X92862542Y-38974733D01*
X92910161Y-39022352D01*
X92957780Y-39117590D01*
X92957780Y-39403304D01*
X92910161Y-39498542D01*
X92862542Y-39546161D01*
X92767304Y-39593780D01*
X92576828Y-39593780D01*
X92481590Y-39546161D01*
X93814923Y-39593780D02*
X93814923Y-39069971D01*
X93767304Y-38974733D01*
X93672066Y-38927114D01*
X93481590Y-38927114D01*
X93386352Y-38974733D01*
X93814923Y-39546161D02*
X93719685Y-39593780D01*
X93481590Y-39593780D01*
X93386352Y-39546161D01*
X93338733Y-39450923D01*
X93338733Y-39355685D01*
X93386352Y-39260447D01*
X93481590Y-39212828D01*
X93719685Y-39212828D01*
X93814923Y-39165209D01*
X94719685Y-39546161D02*
X94624447Y-39593780D01*
X94433971Y-39593780D01*
X94338733Y-39546161D01*
X94291114Y-39498542D01*
X94243495Y-39403304D01*
X94243495Y-39117590D01*
X94291114Y-39022352D01*
X94338733Y-38974733D01*
X94433971Y-38927114D01*
X94624447Y-38927114D01*
X94719685Y-38974733D01*
X95148257Y-39593780D02*
X95148257Y-38593780D01*
X95243495Y-39212828D02*
X95529209Y-39593780D01*
X95529209Y-38927114D02*
X95148257Y-39308066D01*
X96100638Y-39593780D02*
X96005400Y-39546161D01*
X95957780Y-39450923D01*
X95957780Y-38593780D01*
X96481590Y-39593780D02*
X96481590Y-38927114D01*
X96481590Y-38593780D02*
X96433971Y-38641400D01*
X96481590Y-38689019D01*
X96529209Y-38641400D01*
X96481590Y-38593780D01*
X96481590Y-38689019D01*
X97386352Y-38927114D02*
X97386352Y-39736638D01*
X97338733Y-39831876D01*
X97291114Y-39879495D01*
X97195876Y-39927114D01*
X97053019Y-39927114D01*
X96957780Y-39879495D01*
X97386352Y-39546161D02*
X97291114Y-39593780D01*
X97100638Y-39593780D01*
X97005400Y-39546161D01*
X96957780Y-39498542D01*
X96910161Y-39403304D01*
X96910161Y-39117590D01*
X96957780Y-39022352D01*
X97005400Y-38974733D01*
X97100638Y-38927114D01*
X97291114Y-38927114D01*
X97386352Y-38974733D01*
X97862542Y-39593780D02*
X97862542Y-38593780D01*
X98291114Y-39593780D02*
X98291114Y-39069971D01*
X98243495Y-38974733D01*
X98148257Y-38927114D01*
X98005400Y-38927114D01*
X97910161Y-38974733D01*
X97862542Y-39022352D01*
X98624447Y-38927114D02*
X99005400Y-38927114D01*
X98767304Y-38593780D02*
X98767304Y-39450923D01*
X98814923Y-39546161D01*
X98910161Y-39593780D01*
X99005400Y-39593780D01*
D11*
X104368600Y-83820000D02*
X129641600Y-83820000D01*
X104394000Y-60934600D02*
X104368600Y-83820000D01*
X129667000Y-60934600D02*
X104394000Y-60934600D01*
X104419400Y-60045600D02*
X129667000Y-59994800D01*
X104419400Y-37693600D02*
X104419400Y-60045600D01*
X129717800Y-37693600D02*
X104419400Y-37693600D01*
X57483352Y-47211288D02*
G75*
G02X57680000Y-48000000I-1483352J-788712D01*
G01*
X55210912Y-46516047D02*
G75*
G02X56789000Y-46516000I789088J-1483953D01*
G01*
X54516047Y-48789088D02*
G75*
G02X54516000Y-47211000I1483953J789088D01*
G01*
X56789088Y-49483953D02*
G75*
G02X55211000Y-49484000I-789088J1483953D01*
G01*
X57680450Y-47970617D02*
G75*
G02X57484000Y-48789000I-1680450J-29383D01*
G01*
X57680000Y-43000000D02*
G75*
G03X57680000Y-43000000I-1680000J0D01*
G01*
X58000000Y-50560000D02*
X58000000Y-40440000D01*
X54000000Y-50560000D02*
X54000000Y-40440000D01*
X51940000Y-50560000D02*
X51940000Y-40440000D01*
X60060000Y-50560000D02*
X60060000Y-40440000D01*
X51940000Y-50560000D02*
X60060000Y-50560000D01*
X51940000Y-40440000D02*
X60060000Y-40440000D01*
X54931000Y-41725000D02*
X55024000Y-41819000D01*
X57216000Y-44010000D02*
X57274000Y-44069000D01*
X54725000Y-41930000D02*
X54784000Y-41989000D01*
X56976000Y-44180000D02*
X57069000Y-44274000D01*
X58060000Y-50800000D02*
X60300000Y-50800000D01*
X60300000Y-50800000D02*
X60300000Y-48800000D01*
X102270000Y-60270000D02*
X62900000Y-60270000D01*
X62900000Y-60270000D02*
X62900000Y-39950000D01*
X62900000Y-39950000D02*
X102270000Y-39950000D01*
X102270000Y-39950000D02*
X102270000Y-60270000D01*
X72830948Y-46557000D02*
X73353452Y-46557000D01*
X72830948Y-45137000D02*
X73353452Y-45137000D01*
X72221348Y-50547200D02*
X72743852Y-50547200D01*
X72221348Y-51967200D02*
X72743852Y-51967200D01*
X85139600Y-57953652D02*
X85139600Y-57431148D01*
X83719600Y-57953652D02*
X83719600Y-57431148D01*
X89036252Y-47210000D02*
X88513748Y-47210000D01*
X89036252Y-45790000D02*
X88513748Y-45790000D01*
X75790000Y-43488748D02*
X75790000Y-44011252D01*
X77210000Y-43488748D02*
X77210000Y-44011252D01*
X68602000Y-72308948D02*
X68602000Y-72831452D01*
X70022000Y-72308948D02*
X70022000Y-72831452D01*
X70022000Y-68767452D02*
X70022000Y-68244948D01*
X68602000Y-68767452D02*
X68602000Y-68244948D01*
X107064880Y-55201452D02*
X107064880Y-54678948D01*
X105644880Y-55201452D02*
X105644880Y-54678948D01*
X107819120Y-55221772D02*
X107819120Y-54699268D01*
X109239120Y-55221772D02*
X109239120Y-54699268D01*
X115108920Y-47722532D02*
X115108920Y-47200028D01*
X116528920Y-47722532D02*
X116528920Y-47200028D01*
X105466000Y-78476152D02*
X105466000Y-77953648D01*
X106886000Y-78476152D02*
X106886000Y-77953648D01*
X107650400Y-78492552D02*
X107650400Y-77970048D01*
X109070400Y-78492552D02*
X109070400Y-77970048D01*
X116309400Y-71237152D02*
X116309400Y-70714648D01*
X114889400Y-71237152D02*
X114889400Y-70714648D01*
X59619000Y-56019300D02*
X59619000Y-58879300D01*
X59619000Y-58879300D02*
X61539000Y-58879300D01*
X61539000Y-58879300D02*
X61539000Y-56019300D01*
X70799000Y-34330000D02*
X70799000Y-31670000D01*
X63119000Y-34330000D02*
X70799000Y-34330000D01*
X63119000Y-31670000D02*
X70799000Y-31670000D01*
X63119000Y-34330000D02*
X63119000Y-31670000D01*
X61849000Y-34330000D02*
X60519000Y-34330000D01*
X60519000Y-34330000D02*
X60519000Y-33000000D01*
X78407760Y-34330000D02*
X78407760Y-31670000D01*
X78407760Y-34330000D02*
X96247760Y-34330000D01*
X96247760Y-34330000D02*
X96247760Y-31670000D01*
X78407760Y-31670000D02*
X96247760Y-31670000D01*
X75807760Y-31670000D02*
X77137760Y-31670000D01*
X75807760Y-33000000D02*
X75807760Y-31670000D01*
X100796400Y-89315600D02*
X98196400Y-89315600D01*
X100796400Y-89315600D02*
X100796400Y-79035600D01*
X100796400Y-79035600D02*
X95596400Y-79035600D01*
X95596400Y-86715600D02*
X95596400Y-79035600D01*
X98196400Y-86715600D02*
X95596400Y-86715600D01*
X98196400Y-89315600D02*
X98196400Y-86715600D01*
X95596400Y-89315600D02*
X95596400Y-87985600D01*
X96926400Y-89315600D02*
X95596400Y-89315600D01*
X127853220Y-59339560D02*
X127853220Y-57339560D01*
X125613220Y-59339560D02*
X127853220Y-59339560D01*
X124529220Y-52719560D02*
X124622220Y-52813560D01*
X122278220Y-50469560D02*
X122337220Y-50528560D01*
X124769220Y-52549560D02*
X124827220Y-52608560D01*
X122484220Y-50264560D02*
X122577220Y-50358560D01*
X119493220Y-48979560D02*
X127613220Y-48979560D01*
X119493220Y-59099560D02*
X127613220Y-59099560D01*
X127613220Y-59099560D02*
X127613220Y-48979560D01*
X119493220Y-59099560D02*
X119493220Y-48979560D01*
X121553220Y-59099560D02*
X121553220Y-48979560D01*
X125553220Y-59099560D02*
X125553220Y-48979560D01*
X125233220Y-51539560D02*
G75*
G03X125233220Y-51539560I-1680000J0D01*
G01*
X125233670Y-56510177D02*
G75*
G02X125037220Y-57328560I-1680450J-29383D01*
G01*
X124342308Y-58023513D02*
G75*
G02X122764220Y-58023560I-789088J1483953D01*
G01*
X122069267Y-57328648D02*
G75*
G02X122069220Y-55750560I1483953J789088D01*
G01*
X122764132Y-55055607D02*
G75*
G02X124342220Y-55055560I789088J-1483953D01*
G01*
X125036572Y-55750848D02*
G75*
G02X125233220Y-56539560I-1483352J-788712D01*
G01*
X125036572Y-45647568D02*
G75*
G02X125233220Y-46436280I-1483352J-788712D01*
G01*
X122764132Y-44952327D02*
G75*
G02X124342220Y-44952280I789088J-1483953D01*
G01*
X122069267Y-47225368D02*
G75*
G02X122069220Y-45647280I1483953J789088D01*
G01*
X124342308Y-47920233D02*
G75*
G02X122764220Y-47920280I-789088J1483953D01*
G01*
X125233670Y-46406897D02*
G75*
G02X125037220Y-47225280I-1680450J-29383D01*
G01*
X125233220Y-41436280D02*
G75*
G03X125233220Y-41436280I-1680000J0D01*
G01*
X125553220Y-48996280D02*
X125553220Y-38876280D01*
X121553220Y-48996280D02*
X121553220Y-38876280D01*
X119493220Y-48996280D02*
X119493220Y-38876280D01*
X127613220Y-48996280D02*
X127613220Y-38876280D01*
X119493220Y-48996280D02*
X127613220Y-48996280D01*
X119493220Y-38876280D02*
X127613220Y-38876280D01*
X122484220Y-40161280D02*
X122577220Y-40255280D01*
X124769220Y-42446280D02*
X124827220Y-42505280D01*
X122278220Y-40366280D02*
X122337220Y-40425280D01*
X124529220Y-42616280D02*
X124622220Y-42710280D01*
X125613220Y-49236280D02*
X127853220Y-49236280D01*
X127853220Y-49236280D02*
X127853220Y-47236280D01*
X64070912Y-86625352D02*
G75*
G02X63282200Y-86822000I-788712J1483352D01*
G01*
X64766153Y-84352912D02*
G75*
G02X64766200Y-85931000I-1483953J-789088D01*
G01*
X62493112Y-83658047D02*
G75*
G02X64071200Y-83658000I789088J-1483953D01*
G01*
X61798247Y-85931088D02*
G75*
G02X61798200Y-84353000I1483953J789088D01*
G01*
X63311583Y-86822450D02*
G75*
G02X62493200Y-86626000I-29383J1680450D01*
G01*
X69962200Y-85142000D02*
G75*
G03X69962200Y-85142000I-1680000J0D01*
G01*
X60722200Y-87142000D02*
X70842200Y-87142000D01*
X60722200Y-83142000D02*
X70842200Y-83142000D01*
X60722200Y-81082000D02*
X70842200Y-81082000D01*
X60722200Y-89202000D02*
X70842200Y-89202000D01*
X60722200Y-81082000D02*
X60722200Y-89202000D01*
X70842200Y-81082000D02*
X70842200Y-89202000D01*
X69557200Y-84073000D02*
X69463200Y-84166000D01*
X67272200Y-86358000D02*
X67213200Y-86416000D01*
X69352200Y-83867000D02*
X69293200Y-83926000D01*
X67102200Y-86118000D02*
X67008200Y-86211000D01*
X60482200Y-87202000D02*
X60482200Y-89442000D01*
X60482200Y-89442000D02*
X62482200Y-89442000D01*
X70482200Y-89442000D02*
X72482200Y-89442000D01*
X70482200Y-87202000D02*
X70482200Y-89442000D01*
X77102200Y-86118000D02*
X77008200Y-86211000D01*
X79352200Y-83867000D02*
X79293200Y-83926000D01*
X77272200Y-86358000D02*
X77213200Y-86416000D01*
X79557200Y-84073000D02*
X79463200Y-84166000D01*
X80842200Y-81082000D02*
X80842200Y-89202000D01*
X70722200Y-81082000D02*
X70722200Y-89202000D01*
X70722200Y-89202000D02*
X80842200Y-89202000D01*
X70722200Y-81082000D02*
X80842200Y-81082000D01*
X70722200Y-83142000D02*
X80842200Y-83142000D01*
X70722200Y-87142000D02*
X80842200Y-87142000D01*
X79962200Y-85142000D02*
G75*
G03X79962200Y-85142000I-1680000J0D01*
G01*
X73311583Y-86822450D02*
G75*
G02X72493200Y-86626000I-29383J1680450D01*
G01*
X71798247Y-85931088D02*
G75*
G02X71798200Y-84353000I1483953J789088D01*
G01*
X72493112Y-83658047D02*
G75*
G02X74071200Y-83658000I789088J-1483953D01*
G01*
X74766153Y-84352912D02*
G75*
G02X74766200Y-85931000I-1483953J-789088D01*
G01*
X74070912Y-86625352D02*
G75*
G02X73282200Y-86822000I-788712J1483352D01*
G01*
X80482200Y-89442000D02*
X82482200Y-89442000D01*
X80482200Y-87202000D02*
X80482200Y-89442000D01*
X87102200Y-86118000D02*
X87008200Y-86211000D01*
X89352200Y-83867000D02*
X89293200Y-83926000D01*
X87272200Y-86358000D02*
X87213200Y-86416000D01*
X89557200Y-84073000D02*
X89463200Y-84166000D01*
X90842200Y-81082000D02*
X90842200Y-89202000D01*
X80722200Y-81082000D02*
X80722200Y-89202000D01*
X80722200Y-89202000D02*
X90842200Y-89202000D01*
X80722200Y-81082000D02*
X90842200Y-81082000D01*
X80722200Y-83142000D02*
X90842200Y-83142000D01*
X80722200Y-87142000D02*
X90842200Y-87142000D01*
X89962200Y-85142000D02*
G75*
G03X89962200Y-85142000I-1680000J0D01*
G01*
X83311583Y-86822450D02*
G75*
G02X82493200Y-86626000I-29383J1680450D01*
G01*
X81798247Y-85931088D02*
G75*
G02X81798200Y-84353000I1483953J789088D01*
G01*
X82493112Y-83658047D02*
G75*
G02X84071200Y-83658000I789088J-1483953D01*
G01*
X84766153Y-84352912D02*
G75*
G02X84766200Y-85931000I-1483953J-789088D01*
G01*
X84070912Y-86625352D02*
G75*
G02X83282200Y-86822000I-788712J1483352D01*
G01*
X125109152Y-79432688D02*
G75*
G02X125305800Y-80221400I-1483352J-788712D01*
G01*
X122836712Y-78737447D02*
G75*
G02X124414800Y-78737400I789088J-1483953D01*
G01*
X122141847Y-81010488D02*
G75*
G02X122141800Y-79432400I1483953J789088D01*
G01*
X124414888Y-81705353D02*
G75*
G02X122836800Y-81705400I-789088J1483953D01*
G01*
X125306250Y-80192017D02*
G75*
G02X125109800Y-81010400I-1680450J-29383D01*
G01*
X125305800Y-75221400D02*
G75*
G03X125305800Y-75221400I-1680000J0D01*
G01*
X125625800Y-82781400D02*
X125625800Y-72661400D01*
X121625800Y-82781400D02*
X121625800Y-72661400D01*
X119565800Y-82781400D02*
X119565800Y-72661400D01*
X127685800Y-82781400D02*
X127685800Y-72661400D01*
X119565800Y-82781400D02*
X127685800Y-82781400D01*
X119565800Y-72661400D02*
X127685800Y-72661400D01*
X122556800Y-73946400D02*
X122649800Y-74040400D01*
X124841800Y-76231400D02*
X124899800Y-76290400D01*
X122350800Y-74151400D02*
X122409800Y-74210400D01*
X124601800Y-76401400D02*
X124694800Y-76495400D01*
X125685800Y-83021400D02*
X127925800Y-83021400D01*
X127925800Y-83021400D02*
X127925800Y-81021400D01*
X127912400Y-72764200D02*
X127912400Y-70764200D01*
X125672400Y-72764200D02*
X127912400Y-72764200D01*
X124588400Y-66144200D02*
X124681400Y-66238200D01*
X122337400Y-63894200D02*
X122396400Y-63953200D01*
X124828400Y-65974200D02*
X124886400Y-66033200D01*
X122543400Y-63689200D02*
X122636400Y-63783200D01*
X119552400Y-62404200D02*
X127672400Y-62404200D01*
X119552400Y-72524200D02*
X127672400Y-72524200D01*
X127672400Y-72524200D02*
X127672400Y-62404200D01*
X119552400Y-72524200D02*
X119552400Y-62404200D01*
X121612400Y-72524200D02*
X121612400Y-62404200D01*
X125612400Y-72524200D02*
X125612400Y-62404200D01*
X125292400Y-64964200D02*
G75*
G03X125292400Y-64964200I-1680000J0D01*
G01*
X125292850Y-69934817D02*
G75*
G02X125096400Y-70753200I-1680450J-29383D01*
G01*
X124401488Y-71448153D02*
G75*
G02X122823400Y-71448200I-789088J1483953D01*
G01*
X122128447Y-70753288D02*
G75*
G02X122128400Y-69175200I1483953J789088D01*
G01*
X122823312Y-68480247D02*
G75*
G02X124401400Y-68480200I789088J-1483953D01*
G01*
X125095752Y-69175488D02*
G75*
G02X125292400Y-69964200I-1483352J-788712D01*
G01*
X54516648Y-68788712D02*
G75*
G02X54320000Y-68000000I1483352J788712D01*
G01*
X56789088Y-69483953D02*
G75*
G02X55211000Y-69484000I-789088J1483953D01*
G01*
X57483953Y-67210912D02*
G75*
G02X57484000Y-68789000I-1483953J-789088D01*
G01*
X55210912Y-66516047D02*
G75*
G02X56789000Y-66516000I789088J-1483953D01*
G01*
X54319550Y-68029383D02*
G75*
G02X54516000Y-67211000I1680450J29383D01*
G01*
X57680000Y-73000000D02*
G75*
G03X57680000Y-73000000I-1680000J0D01*
G01*
X54000000Y-65440000D02*
X54000000Y-75560000D01*
X58000000Y-65440000D02*
X58000000Y-75560000D01*
X60060000Y-65440000D02*
X60060000Y-75560000D01*
X51940000Y-65440000D02*
X51940000Y-75560000D01*
X60060000Y-65440000D02*
X51940000Y-65440000D01*
X60060000Y-75560000D02*
X51940000Y-75560000D01*
X57069000Y-74275000D02*
X56976000Y-74181000D01*
X54784000Y-71990000D02*
X54726000Y-71931000D01*
X57275000Y-74070000D02*
X57216000Y-74011000D01*
X55024000Y-71820000D02*
X54931000Y-71726000D01*
X53940000Y-65200000D02*
X51700000Y-65200000D01*
X51700000Y-65200000D02*
X51700000Y-67200000D01*
X118558760Y-57037480D02*
X113058760Y-57037480D01*
X113058760Y-57037480D02*
X113058760Y-55087480D01*
X113058760Y-55087480D02*
X118558760Y-55087480D01*
X118558760Y-55087480D02*
X118558760Y-57037480D01*
X116737640Y-50802080D02*
X116737640Y-53602080D01*
X116737640Y-53602080D02*
X114737640Y-53602080D01*
X114737640Y-53602080D02*
X114737640Y-50802080D01*
X114737640Y-50802080D02*
X116737640Y-50802080D01*
X111772240Y-42087040D02*
X111772240Y-40087040D01*
X114572240Y-42087040D02*
X111772240Y-42087040D01*
X114572240Y-40087040D02*
X114572240Y-42087040D01*
X111772240Y-40087040D02*
X114572240Y-40087040D01*
X92617000Y-38033200D02*
X92617000Y-36033200D01*
X95417000Y-38033200D02*
X92617000Y-38033200D01*
X95417000Y-36033200D02*
X95417000Y-38033200D01*
X92617000Y-36033200D02*
X95417000Y-36033200D01*
X118470200Y-77840100D02*
X118470200Y-79790100D01*
X112970200Y-77840100D02*
X118470200Y-77840100D01*
X112970200Y-79790100D02*
X112970200Y-77840100D01*
X118470200Y-79790100D02*
X112970200Y-79790100D01*
X114574000Y-73719800D02*
X116574000Y-73719800D01*
X114574000Y-76519800D02*
X114574000Y-73719800D01*
X116574000Y-76519800D02*
X114574000Y-76519800D01*
X116574000Y-73719800D02*
X116574000Y-76519800D01*
X112200400Y-63033400D02*
X115000400Y-63033400D01*
X115000400Y-63033400D02*
X115000400Y-65033400D01*
X115000400Y-65033400D02*
X112200400Y-65033400D01*
X112200400Y-65033400D02*
X112200400Y-63033400D01*
X80138200Y-40489348D02*
X80138200Y-41011852D01*
X81558200Y-40489348D02*
X81558200Y-41011852D01*
X96452948Y-54634200D02*
X96975452Y-54634200D01*
X96452948Y-53214200D02*
X96975452Y-53214200D01*
X96452948Y-55754200D02*
X96975452Y-55754200D01*
X96452948Y-57174200D02*
X96975452Y-57174200D01*
X111728320Y-55205372D02*
X111728320Y-54682868D01*
X110308320Y-55205372D02*
X110308320Y-54682868D01*
X67480948Y-78557300D02*
X68003452Y-78557300D01*
X67480948Y-79977300D02*
X68003452Y-79977300D01*
X63977552Y-78570000D02*
X63455048Y-78570000D01*
X63977552Y-79990000D02*
X63455048Y-79990000D01*
X77443048Y-78544600D02*
X77965552Y-78544600D01*
X77443048Y-79964600D02*
X77965552Y-79964600D01*
X73451752Y-79964600D02*
X72929248Y-79964600D01*
X73451752Y-78544600D02*
X72929248Y-78544600D01*
X109987200Y-78488852D02*
X109987200Y-77966348D01*
X111407200Y-78488852D02*
X111407200Y-77966348D01*
X51662700Y-54644800D02*
X51662700Y-59144800D01*
X55662700Y-53394800D02*
X54162700Y-53394800D01*
X58162700Y-59144800D02*
X58162700Y-54644800D01*
X54162700Y-60394800D02*
X55662700Y-60394800D01*
X84160000Y-53610000D02*
X84610000Y-53610000D01*
X84610000Y-53610000D02*
X84610000Y-53160000D01*
X77840000Y-53610000D02*
X77390000Y-53610000D01*
X77390000Y-53610000D02*
X77390000Y-53160000D01*
X84160000Y-46390000D02*
X84610000Y-46390000D01*
X84610000Y-46390000D02*
X84610000Y-46840000D01*
X77840000Y-46390000D02*
X77390000Y-46390000D01*
X77390000Y-46390000D02*
X77390000Y-46840000D01*
X77390000Y-46840000D02*
X76100000Y-46840000D01*
D10*
X106342420Y-50754000D02*
X106692420Y-50754000D01*
X106342420Y-45004000D02*
X106792420Y-45004000D01*
X113992420Y-45004000D02*
X113542420Y-45004000D01*
X113992420Y-50754000D02*
X113542420Y-50754000D01*
X106342420Y-50754000D02*
X106342420Y-45004000D01*
X113992420Y-50754000D02*
X113992420Y-45004000D01*
X106692420Y-50754000D02*
X106692420Y-52354000D01*
D11*
X62730000Y-75580000D02*
X62730000Y-65340000D01*
X67371000Y-75580000D02*
X67371000Y-65340000D01*
X62730000Y-75580000D02*
X67371000Y-75580000D01*
X62730000Y-65340000D02*
X67371000Y-65340000D01*
X64240000Y-75580000D02*
X64240000Y-65340000D01*
X62730000Y-72310000D02*
X64240000Y-72310000D01*
X62730000Y-68609000D02*
X64240000Y-68609000D01*
X102077200Y-66623200D02*
X102077200Y-64673200D01*
X102077200Y-66623200D02*
X102077200Y-68573200D01*
X96957200Y-66623200D02*
X96957200Y-64673200D01*
X96957200Y-66623200D02*
X96957200Y-70073200D01*
D10*
X106485600Y-73638700D02*
X106485600Y-75238700D01*
X113785600Y-73638700D02*
X113785600Y-67888700D01*
X106135600Y-73638700D02*
X106135600Y-67888700D01*
X113785600Y-73638700D02*
X113335600Y-73638700D01*
X113785600Y-67888700D02*
X113335600Y-67888700D01*
X106135600Y-67888700D02*
X106585600Y-67888700D01*
X106135600Y-73638700D02*
X106485600Y-73638700D01*
D11*
X87435000Y-68505800D02*
X86965000Y-68505800D01*
X86965000Y-68505800D02*
X86965000Y-64905800D01*
X86965000Y-64905800D02*
X87435000Y-64905800D01*
X93065000Y-68505800D02*
X89265000Y-68505800D01*
X95365000Y-67205800D02*
X95365000Y-68505800D01*
X95365000Y-64905800D02*
X95365000Y-66205800D01*
X95365000Y-68505800D02*
X94895000Y-68505800D01*
X95365000Y-64905800D02*
X94895000Y-64905800D01*
X89265000Y-64905800D02*
X93065000Y-64905800D01*
X95365000Y-66205800D02*
G75*
G03X95365000Y-67205800I0J-500000D01*
G01*
D10*
X51452380Y-46619047D02*
X50452380Y-46619047D01*
X51452380Y-46047619D02*
X50880952Y-46476190D01*
X50452380Y-46047619D02*
X51023809Y-46619047D01*
X50785714Y-45619047D02*
X51452380Y-45619047D01*
X50880952Y-45619047D02*
X50833333Y-45571428D01*
X50785714Y-45476190D01*
X50785714Y-45333333D01*
X50833333Y-45238095D01*
X50928571Y-45190476D01*
X51452380Y-45190476D01*
X51452380Y-44809523D02*
X50785714Y-44285714D01*
X50785714Y-44809523D02*
X51452380Y-44285714D01*
X72925533Y-44554142D02*
X72877914Y-44601761D01*
X72735057Y-44649380D01*
X72639819Y-44649380D01*
X72496961Y-44601761D01*
X72401723Y-44506523D01*
X72354104Y-44411285D01*
X72306485Y-44220809D01*
X72306485Y-44077952D01*
X72354104Y-43887476D01*
X72401723Y-43792238D01*
X72496961Y-43697000D01*
X72639819Y-43649380D01*
X72735057Y-43649380D01*
X72877914Y-43697000D01*
X72925533Y-43744619D01*
X73877914Y-44649380D02*
X73306485Y-44649380D01*
X73592200Y-44649380D02*
X73592200Y-43649380D01*
X73496961Y-43792238D01*
X73401723Y-43887476D01*
X73306485Y-43935095D01*
X72315933Y-49964342D02*
X72268314Y-50011961D01*
X72125457Y-50059580D01*
X72030219Y-50059580D01*
X71887361Y-50011961D01*
X71792123Y-49916723D01*
X71744504Y-49821485D01*
X71696885Y-49631009D01*
X71696885Y-49488152D01*
X71744504Y-49297676D01*
X71792123Y-49202438D01*
X71887361Y-49107200D01*
X72030219Y-49059580D01*
X72125457Y-49059580D01*
X72268314Y-49107200D01*
X72315933Y-49154819D01*
X72696885Y-49154819D02*
X72744504Y-49107200D01*
X72839742Y-49059580D01*
X73077838Y-49059580D01*
X73173076Y-49107200D01*
X73220695Y-49154819D01*
X73268314Y-49250057D01*
X73268314Y-49345295D01*
X73220695Y-49488152D01*
X72649266Y-50059580D01*
X73268314Y-50059580D01*
X83136742Y-57859066D02*
X83184361Y-57906685D01*
X83231980Y-58049542D01*
X83231980Y-58144780D01*
X83184361Y-58287638D01*
X83089123Y-58382876D01*
X82993885Y-58430495D01*
X82803409Y-58478114D01*
X82660552Y-58478114D01*
X82470076Y-58430495D01*
X82374838Y-58382876D01*
X82279600Y-58287638D01*
X82231980Y-58144780D01*
X82231980Y-58049542D01*
X82279600Y-57906685D01*
X82327219Y-57859066D01*
X82231980Y-57525733D02*
X82231980Y-56906685D01*
X82612933Y-57240019D01*
X82612933Y-57097161D01*
X82660552Y-57001923D01*
X82708171Y-56954304D01*
X82803409Y-56906685D01*
X83041504Y-56906685D01*
X83136742Y-56954304D01*
X83184361Y-57001923D01*
X83231980Y-57097161D01*
X83231980Y-57382876D01*
X83184361Y-57478114D01*
X83136742Y-57525733D01*
X88608333Y-48507142D02*
X88560714Y-48554761D01*
X88417857Y-48602380D01*
X88322619Y-48602380D01*
X88179761Y-48554761D01*
X88084523Y-48459523D01*
X88036904Y-48364285D01*
X87989285Y-48173809D01*
X87989285Y-48030952D01*
X88036904Y-47840476D01*
X88084523Y-47745238D01*
X88179761Y-47650000D01*
X88322619Y-47602380D01*
X88417857Y-47602380D01*
X88560714Y-47650000D01*
X88608333Y-47697619D01*
X89465476Y-47935714D02*
X89465476Y-48602380D01*
X89227380Y-47554761D02*
X88989285Y-48269047D01*
X89608333Y-48269047D01*
X78507142Y-43916666D02*
X78554761Y-43964285D01*
X78602380Y-44107142D01*
X78602380Y-44202380D01*
X78554761Y-44345238D01*
X78459523Y-44440476D01*
X78364285Y-44488095D01*
X78173809Y-44535714D01*
X78030952Y-44535714D01*
X77840476Y-44488095D01*
X77745238Y-44440476D01*
X77650000Y-44345238D01*
X77602380Y-44202380D01*
X77602380Y-44107142D01*
X77650000Y-43964285D01*
X77697619Y-43916666D01*
X77602380Y-43011904D02*
X77602380Y-43488095D01*
X78078571Y-43535714D01*
X78030952Y-43488095D01*
X77983333Y-43392857D01*
X77983333Y-43154761D01*
X78030952Y-43059523D01*
X78078571Y-43011904D01*
X78173809Y-42964285D01*
X78411904Y-42964285D01*
X78507142Y-43011904D01*
X78554761Y-43059523D01*
X78602380Y-43154761D01*
X78602380Y-43392857D01*
X78554761Y-43488095D01*
X78507142Y-43535714D01*
X71421742Y-73718466D02*
X71469361Y-73766085D01*
X71516980Y-73908942D01*
X71516980Y-74004180D01*
X71469361Y-74147038D01*
X71374123Y-74242276D01*
X71278885Y-74289895D01*
X71088409Y-74337514D01*
X70945552Y-74337514D01*
X70755076Y-74289895D01*
X70659838Y-74242276D01*
X70564600Y-74147038D01*
X70516980Y-74004180D01*
X70516980Y-73908942D01*
X70564600Y-73766085D01*
X70612219Y-73718466D01*
X70516980Y-72861323D02*
X70516980Y-73051800D01*
X70564600Y-73147038D01*
X70612219Y-73194657D01*
X70755076Y-73289895D01*
X70945552Y-73337514D01*
X71326504Y-73337514D01*
X71421742Y-73289895D01*
X71469361Y-73242276D01*
X71516980Y-73147038D01*
X71516980Y-72956561D01*
X71469361Y-72861323D01*
X71421742Y-72813704D01*
X71326504Y-72766085D01*
X71088409Y-72766085D01*
X70993171Y-72813704D01*
X70945552Y-72861323D01*
X70897933Y-72956561D01*
X70897933Y-73147038D01*
X70945552Y-73242276D01*
X70993171Y-73289895D01*
X71088409Y-73337514D01*
X71370942Y-69629066D02*
X71418561Y-69676685D01*
X71466180Y-69819542D01*
X71466180Y-69914780D01*
X71418561Y-70057638D01*
X71323323Y-70152876D01*
X71228085Y-70200495D01*
X71037609Y-70248114D01*
X70894752Y-70248114D01*
X70704276Y-70200495D01*
X70609038Y-70152876D01*
X70513800Y-70057638D01*
X70466180Y-69914780D01*
X70466180Y-69819542D01*
X70513800Y-69676685D01*
X70561419Y-69629066D01*
X70894752Y-69057638D02*
X70847133Y-69152876D01*
X70799514Y-69200495D01*
X70704276Y-69248114D01*
X70656657Y-69248114D01*
X70561419Y-69200495D01*
X70513800Y-69152876D01*
X70466180Y-69057638D01*
X70466180Y-68867161D01*
X70513800Y-68771923D01*
X70561419Y-68724304D01*
X70656657Y-68676685D01*
X70704276Y-68676685D01*
X70799514Y-68724304D01*
X70847133Y-68771923D01*
X70894752Y-68867161D01*
X70894752Y-69057638D01*
X70942371Y-69152876D01*
X70989990Y-69200495D01*
X71085228Y-69248114D01*
X71275704Y-69248114D01*
X71370942Y-69200495D01*
X71418561Y-69152876D01*
X71466180Y-69057638D01*
X71466180Y-68867161D01*
X71418561Y-68771923D01*
X71370942Y-68724304D01*
X71275704Y-68676685D01*
X71085228Y-68676685D01*
X70989990Y-68724304D01*
X70942371Y-68771923D01*
X70894752Y-68867161D01*
X106783142Y-58027866D02*
X106830761Y-58075485D01*
X106878380Y-58218342D01*
X106878380Y-58313580D01*
X106830761Y-58456438D01*
X106735523Y-58551676D01*
X106640285Y-58599295D01*
X106449809Y-58646914D01*
X106306952Y-58646914D01*
X106116476Y-58599295D01*
X106021238Y-58551676D01*
X105926000Y-58456438D01*
X105878380Y-58313580D01*
X105878380Y-58218342D01*
X105926000Y-58075485D01*
X105973619Y-58027866D01*
X106878380Y-57551676D02*
X106878380Y-57361200D01*
X106830761Y-57265961D01*
X106783142Y-57218342D01*
X106640285Y-57123104D01*
X106449809Y-57075485D01*
X106068857Y-57075485D01*
X105973619Y-57123104D01*
X105926000Y-57170723D01*
X105878380Y-57265961D01*
X105878380Y-57456438D01*
X105926000Y-57551676D01*
X105973619Y-57599295D01*
X106068857Y-57646914D01*
X106306952Y-57646914D01*
X106402190Y-57599295D01*
X106449809Y-57551676D01*
X106497428Y-57456438D01*
X106497428Y-57265961D01*
X106449809Y-57170723D01*
X106402190Y-57123104D01*
X106306952Y-57075485D01*
X108967542Y-58986657D02*
X109015161Y-59034276D01*
X109062780Y-59177133D01*
X109062780Y-59272371D01*
X109015161Y-59415228D01*
X108919923Y-59510466D01*
X108824685Y-59558085D01*
X108634209Y-59605704D01*
X108491352Y-59605704D01*
X108300876Y-59558085D01*
X108205638Y-59510466D01*
X108110400Y-59415228D01*
X108062780Y-59272371D01*
X108062780Y-59177133D01*
X108110400Y-59034276D01*
X108158019Y-58986657D01*
X109062780Y-58034276D02*
X109062780Y-58605704D01*
X109062780Y-58319990D02*
X108062780Y-58319990D01*
X108205638Y-58415228D01*
X108300876Y-58510466D01*
X108348495Y-58605704D01*
X108062780Y-57415228D02*
X108062780Y-57319990D01*
X108110400Y-57224752D01*
X108158019Y-57177133D01*
X108253257Y-57129514D01*
X108443733Y-57081895D01*
X108681828Y-57081895D01*
X108872304Y-57129514D01*
X108967542Y-57177133D01*
X109015161Y-57224752D01*
X109062780Y-57319990D01*
X109062780Y-57415228D01*
X109015161Y-57510466D01*
X108967542Y-57558085D01*
X108872304Y-57605704D01*
X108681828Y-57653323D01*
X108443733Y-57653323D01*
X108253257Y-57605704D01*
X108158019Y-57558085D01*
X108110400Y-57510466D01*
X108062780Y-57415228D01*
X117933742Y-48572657D02*
X117981361Y-48620276D01*
X118028980Y-48763133D01*
X118028980Y-48858371D01*
X117981361Y-49001228D01*
X117886123Y-49096466D01*
X117790885Y-49144085D01*
X117600409Y-49191704D01*
X117457552Y-49191704D01*
X117267076Y-49144085D01*
X117171838Y-49096466D01*
X117076600Y-49001228D01*
X117028980Y-48858371D01*
X117028980Y-48763133D01*
X117076600Y-48620276D01*
X117124219Y-48572657D01*
X118028980Y-47620276D02*
X118028980Y-48191704D01*
X118028980Y-47905990D02*
X117028980Y-47905990D01*
X117171838Y-48001228D01*
X117267076Y-48096466D01*
X117314695Y-48191704D01*
X118028980Y-46667895D02*
X118028980Y-47239323D01*
X118028980Y-46953609D02*
X117028980Y-46953609D01*
X117171838Y-47048847D01*
X117267076Y-47144085D01*
X117314695Y-47239323D01*
X106554542Y-82176857D02*
X106602161Y-82224476D01*
X106649780Y-82367333D01*
X106649780Y-82462571D01*
X106602161Y-82605428D01*
X106506923Y-82700666D01*
X106411685Y-82748285D01*
X106221209Y-82795904D01*
X106078352Y-82795904D01*
X105887876Y-82748285D01*
X105792638Y-82700666D01*
X105697400Y-82605428D01*
X105649780Y-82462571D01*
X105649780Y-82367333D01*
X105697400Y-82224476D01*
X105745019Y-82176857D01*
X106649780Y-81224476D02*
X106649780Y-81795904D01*
X106649780Y-81510190D02*
X105649780Y-81510190D01*
X105792638Y-81605428D01*
X105887876Y-81700666D01*
X105935495Y-81795904D01*
X105983114Y-80367333D02*
X106649780Y-80367333D01*
X105602161Y-80605428D02*
X106316447Y-80843523D01*
X106316447Y-80224476D01*
X108738942Y-82202257D02*
X108786561Y-82249876D01*
X108834180Y-82392733D01*
X108834180Y-82487971D01*
X108786561Y-82630828D01*
X108691323Y-82726066D01*
X108596085Y-82773685D01*
X108405609Y-82821304D01*
X108262752Y-82821304D01*
X108072276Y-82773685D01*
X107977038Y-82726066D01*
X107881800Y-82630828D01*
X107834180Y-82487971D01*
X107834180Y-82392733D01*
X107881800Y-82249876D01*
X107929419Y-82202257D01*
X108834180Y-81249876D02*
X108834180Y-81821304D01*
X108834180Y-81535590D02*
X107834180Y-81535590D01*
X107977038Y-81630828D01*
X108072276Y-81726066D01*
X108119895Y-81821304D01*
X107834180Y-80345114D02*
X107834180Y-80821304D01*
X108310371Y-80868923D01*
X108262752Y-80821304D01*
X108215133Y-80726066D01*
X108215133Y-80487971D01*
X108262752Y-80392733D01*
X108310371Y-80345114D01*
X108405609Y-80297495D01*
X108643704Y-80297495D01*
X108738942Y-80345114D01*
X108786561Y-80392733D01*
X108834180Y-80487971D01*
X108834180Y-80726066D01*
X108786561Y-80821304D01*
X108738942Y-80868923D01*
X117645642Y-72244757D02*
X117693261Y-72292376D01*
X117740880Y-72435233D01*
X117740880Y-72530471D01*
X117693261Y-72673328D01*
X117598023Y-72768566D01*
X117502785Y-72816185D01*
X117312309Y-72863804D01*
X117169452Y-72863804D01*
X116978976Y-72816185D01*
X116883738Y-72768566D01*
X116788500Y-72673328D01*
X116740880Y-72530471D01*
X116740880Y-72435233D01*
X116788500Y-72292376D01*
X116836119Y-72244757D01*
X117740880Y-71292376D02*
X117740880Y-71863804D01*
X117740880Y-71578090D02*
X116740880Y-71578090D01*
X116883738Y-71673328D01*
X116978976Y-71768566D01*
X117026595Y-71863804D01*
X116740880Y-70435233D02*
X116740880Y-70625709D01*
X116788500Y-70720947D01*
X116836119Y-70768566D01*
X116978976Y-70863804D01*
X117169452Y-70911423D01*
X117550404Y-70911423D01*
X117645642Y-70863804D01*
X117693261Y-70816185D01*
X117740880Y-70720947D01*
X117740880Y-70530471D01*
X117693261Y-70435233D01*
X117645642Y-70387614D01*
X117550404Y-70339995D01*
X117312309Y-70339995D01*
X117217071Y-70387614D01*
X117169452Y-70435233D01*
X117121833Y-70530471D01*
X117121833Y-70720947D01*
X117169452Y-70816185D01*
X117217071Y-70863804D01*
X117312309Y-70911423D01*
X60071071Y-60332880D02*
X59594880Y-60332880D01*
X59594880Y-59332880D01*
X60785357Y-60285261D02*
X60690119Y-60332880D01*
X60499642Y-60332880D01*
X60404404Y-60285261D01*
X60356785Y-60190023D01*
X60356785Y-59809071D01*
X60404404Y-59713833D01*
X60499642Y-59666214D01*
X60690119Y-59666214D01*
X60785357Y-59713833D01*
X60832976Y-59809071D01*
X60832976Y-59904309D01*
X60356785Y-59999547D01*
X61690119Y-60332880D02*
X61690119Y-59332880D01*
X61690119Y-60285261D02*
X61594880Y-60332880D01*
X61404404Y-60332880D01*
X61309166Y-60285261D01*
X61261547Y-60237642D01*
X61213928Y-60142404D01*
X61213928Y-59856690D01*
X61261547Y-59761452D01*
X61309166Y-59713833D01*
X61404404Y-59666214D01*
X61594880Y-59666214D01*
X61690119Y-59713833D01*
X59923761Y-34357142D02*
X59971380Y-34214285D01*
X59971380Y-33976190D01*
X59923761Y-33880952D01*
X59876142Y-33833333D01*
X59780904Y-33785714D01*
X59685666Y-33785714D01*
X59590428Y-33833333D01*
X59542809Y-33880952D01*
X59495190Y-33976190D01*
X59447571Y-34166666D01*
X59399952Y-34261904D01*
X59352333Y-34309523D01*
X59257095Y-34357142D01*
X59161857Y-34357142D01*
X59066619Y-34309523D01*
X59019000Y-34261904D01*
X58971380Y-34166666D01*
X58971380Y-33928571D01*
X59019000Y-33785714D01*
X58971380Y-33452380D02*
X59971380Y-33214285D01*
X59257095Y-33023809D01*
X59971380Y-32833333D01*
X58971380Y-32595238D01*
X59971380Y-32214285D02*
X58971380Y-32214285D01*
X58971380Y-31976190D01*
X59019000Y-31833333D01*
X59114238Y-31738095D01*
X59209476Y-31690476D01*
X59399952Y-31642857D01*
X59542809Y-31642857D01*
X59733285Y-31690476D01*
X59828523Y-31738095D01*
X59923761Y-31833333D01*
X59971380Y-31976190D01*
X59971380Y-32214285D01*
X74820140Y-33690476D02*
X74820140Y-34166666D01*
X73820140Y-34166666D01*
X74724902Y-32785714D02*
X74772521Y-32833333D01*
X74820140Y-32976190D01*
X74820140Y-33071428D01*
X74772521Y-33214285D01*
X74677283Y-33309523D01*
X74582045Y-33357142D01*
X74391569Y-33404761D01*
X74248712Y-33404761D01*
X74058236Y-33357142D01*
X73962998Y-33309523D01*
X73867760Y-33214285D01*
X73820140Y-33071428D01*
X73820140Y-32976190D01*
X73867760Y-32833333D01*
X73915379Y-32785714D01*
X74820140Y-32357142D02*
X73820140Y-32357142D01*
X73820140Y-32119047D01*
X73867760Y-31976190D01*
X73962998Y-31880952D01*
X74058236Y-31833333D01*
X74248712Y-31785714D01*
X74391569Y-31785714D01*
X74582045Y-31833333D01*
X74677283Y-31880952D01*
X74772521Y-31976190D01*
X74820140Y-32119047D01*
X74820140Y-32357142D01*
X95714285Y-77952380D02*
X95380952Y-77476190D01*
X95142857Y-77952380D02*
X95142857Y-76952380D01*
X95523809Y-76952380D01*
X95619047Y-77000000D01*
X95666666Y-77047619D01*
X95714285Y-77142857D01*
X95714285Y-77285714D01*
X95666666Y-77380952D01*
X95619047Y-77428571D01*
X95523809Y-77476190D01*
X95142857Y-77476190D01*
X96523809Y-77904761D02*
X96428571Y-77952380D01*
X96238095Y-77952380D01*
X96142857Y-77904761D01*
X96095238Y-77809523D01*
X96095238Y-77428571D01*
X96142857Y-77333333D01*
X96238095Y-77285714D01*
X96428571Y-77285714D01*
X96523809Y-77333333D01*
X96571428Y-77428571D01*
X96571428Y-77523809D01*
X96095238Y-77619047D01*
X97142857Y-77952380D02*
X97047619Y-77904761D01*
X97000000Y-77809523D01*
X97000000Y-76952380D01*
X97952380Y-77952380D02*
X97952380Y-77428571D01*
X97904761Y-77333333D01*
X97809523Y-77285714D01*
X97619047Y-77285714D01*
X97523809Y-77333333D01*
X97952380Y-77904761D02*
X97857142Y-77952380D01*
X97619047Y-77952380D01*
X97523809Y-77904761D01*
X97476190Y-77809523D01*
X97476190Y-77714285D01*
X97523809Y-77619047D01*
X97619047Y-77571428D01*
X97857142Y-77571428D01*
X97952380Y-77523809D01*
X98333333Y-77285714D02*
X98571428Y-77952380D01*
X98809523Y-77285714D02*
X98571428Y-77952380D01*
X98476190Y-78190476D01*
X98428571Y-78238095D01*
X98333333Y-78285714D01*
X100095238Y-77952380D02*
X100000000Y-77904761D01*
X99952380Y-77857142D01*
X99904761Y-77761904D01*
X99904761Y-77476190D01*
X99952380Y-77380952D01*
X100000000Y-77333333D01*
X100095238Y-77285714D01*
X100238095Y-77285714D01*
X100333333Y-77333333D01*
X100380952Y-77380952D01*
X100428571Y-77476190D01*
X100428571Y-77761904D01*
X100380952Y-77857142D01*
X100333333Y-77904761D01*
X100238095Y-77952380D01*
X100095238Y-77952380D01*
X101285714Y-77285714D02*
X101285714Y-77952380D01*
X100857142Y-77285714D02*
X100857142Y-77809523D01*
X100904761Y-77904761D01*
X101000000Y-77952380D01*
X101142857Y-77952380D01*
X101238095Y-77904761D01*
X101285714Y-77857142D01*
X101619047Y-77285714D02*
X102000000Y-77285714D01*
X101761904Y-76952380D02*
X101761904Y-77809523D01*
X101809523Y-77904761D01*
X101904761Y-77952380D01*
X102000000Y-77952380D01*
X128281180Y-56859133D02*
X128281180Y-56287704D01*
X129281180Y-56573419D02*
X128281180Y-56573419D01*
X129233561Y-55573419D02*
X129281180Y-55668657D01*
X129281180Y-55859133D01*
X129233561Y-55954371D01*
X129138323Y-56001990D01*
X128757371Y-56001990D01*
X128662133Y-55954371D01*
X128614514Y-55859133D01*
X128614514Y-55668657D01*
X128662133Y-55573419D01*
X128757371Y-55525800D01*
X128852609Y-55525800D01*
X128947847Y-56001990D01*
X129281180Y-55097228D02*
X128614514Y-55097228D01*
X128709752Y-55097228D02*
X128662133Y-55049609D01*
X128614514Y-54954371D01*
X128614514Y-54811514D01*
X128662133Y-54716276D01*
X128757371Y-54668657D01*
X129281180Y-54668657D01*
X128757371Y-54668657D02*
X128662133Y-54621038D01*
X128614514Y-54525800D01*
X128614514Y-54382942D01*
X128662133Y-54287704D01*
X128757371Y-54240085D01*
X129281180Y-54240085D01*
X128614514Y-53763895D02*
X129614514Y-53763895D01*
X128662133Y-53763895D02*
X128614514Y-53668657D01*
X128614514Y-53478180D01*
X128662133Y-53382942D01*
X128709752Y-53335323D01*
X128804990Y-53287704D01*
X129090704Y-53287704D01*
X129185942Y-53335323D01*
X129233561Y-53382942D01*
X129281180Y-53478180D01*
X129281180Y-53668657D01*
X129233561Y-53763895D01*
X128900228Y-52097228D02*
X128900228Y-51335323D01*
X129281180Y-51716276D02*
X128519276Y-51716276D01*
X128281180Y-46445133D02*
X128281180Y-45873704D01*
X129281180Y-46159419D02*
X128281180Y-46159419D01*
X129233561Y-45159419D02*
X129281180Y-45254657D01*
X129281180Y-45445133D01*
X129233561Y-45540371D01*
X129138323Y-45587990D01*
X128757371Y-45587990D01*
X128662133Y-45540371D01*
X128614514Y-45445133D01*
X128614514Y-45254657D01*
X128662133Y-45159419D01*
X128757371Y-45111800D01*
X128852609Y-45111800D01*
X128947847Y-45587990D01*
X129281180Y-44683228D02*
X128614514Y-44683228D01*
X128709752Y-44683228D02*
X128662133Y-44635609D01*
X128614514Y-44540371D01*
X128614514Y-44397514D01*
X128662133Y-44302276D01*
X128757371Y-44254657D01*
X129281180Y-44254657D01*
X128757371Y-44254657D02*
X128662133Y-44207038D01*
X128614514Y-44111800D01*
X128614514Y-43968942D01*
X128662133Y-43873704D01*
X128757371Y-43826085D01*
X129281180Y-43826085D01*
X128614514Y-43349895D02*
X129614514Y-43349895D01*
X128662133Y-43349895D02*
X128614514Y-43254657D01*
X128614514Y-43064180D01*
X128662133Y-42968942D01*
X128709752Y-42921323D01*
X128804990Y-42873704D01*
X129090704Y-42873704D01*
X129185942Y-42921323D01*
X129233561Y-42968942D01*
X129281180Y-43064180D01*
X129281180Y-43254657D01*
X129233561Y-43349895D01*
X128900228Y-41683228D02*
X128900228Y-40921323D01*
X83619047Y-90806542D02*
X83571428Y-90854161D01*
X83428571Y-90901780D01*
X83333333Y-90901780D01*
X83190476Y-90854161D01*
X83095238Y-90758923D01*
X83047619Y-90663685D01*
X83000000Y-90473209D01*
X83000000Y-90330352D01*
X83047619Y-90139876D01*
X83095238Y-90044638D01*
X83190476Y-89949400D01*
X83333333Y-89901780D01*
X83428571Y-89901780D01*
X83571428Y-89949400D01*
X83619047Y-89997019D01*
X84190476Y-90901780D02*
X84095238Y-90854161D01*
X84047619Y-90806542D01*
X84000000Y-90711304D01*
X84000000Y-90425590D01*
X84047619Y-90330352D01*
X84095238Y-90282733D01*
X84190476Y-90235114D01*
X84333333Y-90235114D01*
X84428571Y-90282733D01*
X84476190Y-90330352D01*
X84523809Y-90425590D01*
X84523809Y-90711304D01*
X84476190Y-90806542D01*
X84428571Y-90854161D01*
X84333333Y-90901780D01*
X84190476Y-90901780D01*
X84952380Y-90901780D02*
X84952380Y-90235114D01*
X84952380Y-90330352D02*
X85000000Y-90282733D01*
X85095238Y-90235114D01*
X85238095Y-90235114D01*
X85333333Y-90282733D01*
X85380952Y-90377971D01*
X85380952Y-90901780D01*
X85380952Y-90377971D02*
X85428571Y-90282733D01*
X85523809Y-90235114D01*
X85666666Y-90235114D01*
X85761904Y-90282733D01*
X85809523Y-90377971D01*
X85809523Y-90901780D01*
X86285714Y-90901780D02*
X86285714Y-90235114D01*
X86285714Y-90330352D02*
X86333333Y-90282733D01*
X86428571Y-90235114D01*
X86571428Y-90235114D01*
X86666666Y-90282733D01*
X86714285Y-90377971D01*
X86714285Y-90901780D01*
X86714285Y-90377971D02*
X86761904Y-90282733D01*
X86857142Y-90235114D01*
X87000000Y-90235114D01*
X87095238Y-90282733D01*
X87142857Y-90377971D01*
X87142857Y-90901780D01*
X87761904Y-90901780D02*
X87666666Y-90854161D01*
X87619047Y-90806542D01*
X87571428Y-90711304D01*
X87571428Y-90425590D01*
X87619047Y-90330352D01*
X87666666Y-90282733D01*
X87761904Y-90235114D01*
X87904761Y-90235114D01*
X88000000Y-90282733D01*
X88047619Y-90330352D01*
X88095238Y-90425590D01*
X88095238Y-90711304D01*
X88047619Y-90806542D01*
X88000000Y-90854161D01*
X87904761Y-90901780D01*
X87761904Y-90901780D01*
X88523809Y-90235114D02*
X88523809Y-90901780D01*
X88523809Y-90330352D02*
X88571428Y-90282733D01*
X88666666Y-90235114D01*
X88809523Y-90235114D01*
X88904761Y-90282733D01*
X88952380Y-90377971D01*
X88952380Y-90901780D01*
X128331980Y-80379533D02*
X128331980Y-79808104D01*
X129331980Y-80093819D02*
X128331980Y-80093819D01*
X129284361Y-79093819D02*
X129331980Y-79189057D01*
X129331980Y-79379533D01*
X129284361Y-79474771D01*
X129189123Y-79522390D01*
X128808171Y-79522390D01*
X128712933Y-79474771D01*
X128665314Y-79379533D01*
X128665314Y-79189057D01*
X128712933Y-79093819D01*
X128808171Y-79046200D01*
X128903409Y-79046200D01*
X128998647Y-79522390D01*
X129331980Y-78617628D02*
X128665314Y-78617628D01*
X128760552Y-78617628D02*
X128712933Y-78570009D01*
X128665314Y-78474771D01*
X128665314Y-78331914D01*
X128712933Y-78236676D01*
X128808171Y-78189057D01*
X129331980Y-78189057D01*
X128808171Y-78189057D02*
X128712933Y-78141438D01*
X128665314Y-78046200D01*
X128665314Y-77903342D01*
X128712933Y-77808104D01*
X128808171Y-77760485D01*
X129331980Y-77760485D01*
X128665314Y-77284295D02*
X129665314Y-77284295D01*
X128712933Y-77284295D02*
X128665314Y-77189057D01*
X128665314Y-76998580D01*
X128712933Y-76903342D01*
X128760552Y-76855723D01*
X128855790Y-76808104D01*
X129141504Y-76808104D01*
X129236742Y-76855723D01*
X129284361Y-76903342D01*
X129331980Y-76998580D01*
X129331980Y-77189057D01*
X129284361Y-77284295D01*
X128951028Y-75617628D02*
X128951028Y-74855723D01*
X129331980Y-75236676D02*
X128570076Y-75236676D01*
X128331980Y-70168733D02*
X128331980Y-69597304D01*
X129331980Y-69883019D02*
X128331980Y-69883019D01*
X129284361Y-68883019D02*
X129331980Y-68978257D01*
X129331980Y-69168733D01*
X129284361Y-69263971D01*
X129189123Y-69311590D01*
X128808171Y-69311590D01*
X128712933Y-69263971D01*
X128665314Y-69168733D01*
X128665314Y-68978257D01*
X128712933Y-68883019D01*
X128808171Y-68835400D01*
X128903409Y-68835400D01*
X128998647Y-69311590D01*
X129331980Y-68406828D02*
X128665314Y-68406828D01*
X128760552Y-68406828D02*
X128712933Y-68359209D01*
X128665314Y-68263971D01*
X128665314Y-68121114D01*
X128712933Y-68025876D01*
X128808171Y-67978257D01*
X129331980Y-67978257D01*
X128808171Y-67978257D02*
X128712933Y-67930638D01*
X128665314Y-67835400D01*
X128665314Y-67692542D01*
X128712933Y-67597304D01*
X128808171Y-67549685D01*
X129331980Y-67549685D01*
X128665314Y-67073495D02*
X129665314Y-67073495D01*
X128712933Y-67073495D02*
X128665314Y-66978257D01*
X128665314Y-66787780D01*
X128712933Y-66692542D01*
X128760552Y-66644923D01*
X128855790Y-66597304D01*
X129141504Y-66597304D01*
X129236742Y-66644923D01*
X129284361Y-66692542D01*
X129331980Y-66787780D01*
X129331980Y-66978257D01*
X129284361Y-67073495D01*
X128951028Y-65406828D02*
X128951028Y-64644923D01*
X50547619Y-71700876D02*
X50500000Y-71653257D01*
X50452380Y-71558019D01*
X50452380Y-71319923D01*
X50500000Y-71224685D01*
X50547619Y-71177066D01*
X50642857Y-71129447D01*
X50738095Y-71129447D01*
X50880952Y-71177066D01*
X51452380Y-71748495D01*
X51452380Y-71129447D01*
X50785714Y-70272304D02*
X51452380Y-70272304D01*
X50404761Y-70510400D02*
X51119047Y-70748495D01*
X51119047Y-70129447D01*
X50452380Y-69891352D02*
X51452380Y-69558019D01*
X50452380Y-69224685D01*
X116794066Y-57516780D02*
X116794066Y-58231066D01*
X116746447Y-58373923D01*
X116651209Y-58469161D01*
X116508352Y-58516780D01*
X116413114Y-58516780D01*
X117270257Y-58516780D02*
X117270257Y-57516780D01*
X117651209Y-57516780D01*
X117746447Y-57564400D01*
X117794066Y-57612019D01*
X117841685Y-57707257D01*
X117841685Y-57850114D01*
X117794066Y-57945352D01*
X117746447Y-57992971D01*
X117651209Y-58040590D01*
X117270257Y-58040590D01*
X118794066Y-58516780D02*
X118222638Y-58516780D01*
X118508352Y-58516780D02*
X118508352Y-57516780D01*
X118413114Y-57659638D01*
X118317876Y-57754876D01*
X118222638Y-57802495D01*
X113190400Y-59342257D02*
X113142780Y-59437495D01*
X113142780Y-59580352D01*
X113190400Y-59723209D01*
X113285638Y-59818447D01*
X113380876Y-59866066D01*
X113571352Y-59913685D01*
X113714209Y-59913685D01*
X113904685Y-59866066D01*
X113999923Y-59818447D01*
X114095161Y-59723209D01*
X114142780Y-59580352D01*
X114142780Y-59485114D01*
X114095161Y-59342257D01*
X114047542Y-59294638D01*
X113714209Y-59294638D01*
X113714209Y-59485114D01*
X113476114Y-58866066D02*
X114142780Y-58866066D01*
X113571352Y-58866066D02*
X113523733Y-58818447D01*
X113476114Y-58723209D01*
X113476114Y-58580352D01*
X113523733Y-58485114D01*
X113618971Y-58437495D01*
X114142780Y-58437495D01*
X114142780Y-57532733D02*
X113142780Y-57532733D01*
X114095161Y-57532733D02*
X114142780Y-57627971D01*
X114142780Y-57818447D01*
X114095161Y-57913685D01*
X114047542Y-57961304D01*
X113952304Y-58008923D01*
X113666590Y-58008923D01*
X113571352Y-57961304D01*
X113523733Y-57913685D01*
X113476114Y-57818447D01*
X113476114Y-57627971D01*
X113523733Y-57532733D01*
X116990020Y-53035413D02*
X117704306Y-53035413D01*
X117847163Y-53083032D01*
X117942401Y-53178270D01*
X117990020Y-53321127D01*
X117990020Y-53416365D01*
X117990020Y-52559222D02*
X116990020Y-52559222D01*
X116990020Y-52178270D01*
X117037640Y-52083032D01*
X117085259Y-52035413D01*
X117180497Y-51987794D01*
X117323354Y-51987794D01*
X117418592Y-52035413D01*
X117466211Y-52083032D01*
X117513830Y-52178270D01*
X117513830Y-52559222D01*
X117085259Y-51606841D02*
X117037640Y-51559222D01*
X116990020Y-51463984D01*
X116990020Y-51225889D01*
X117037640Y-51130651D01*
X117085259Y-51083032D01*
X117180497Y-51035413D01*
X117275735Y-51035413D01*
X117418592Y-51083032D01*
X117990020Y-51654460D01*
X117990020Y-51035413D01*
X115174780Y-42616333D02*
X115889066Y-42616333D01*
X116031923Y-42663952D01*
X116127161Y-42759190D01*
X116174780Y-42902047D01*
X116174780Y-42997285D01*
X116174780Y-42140142D02*
X115174780Y-42140142D01*
X115174780Y-41759190D01*
X115222400Y-41663952D01*
X115270019Y-41616333D01*
X115365257Y-41568714D01*
X115508114Y-41568714D01*
X115603352Y-41616333D01*
X115650971Y-41663952D01*
X115698590Y-41759190D01*
X115698590Y-42140142D01*
X115174780Y-41235380D02*
X115174780Y-40616333D01*
X115555733Y-40949666D01*
X115555733Y-40806809D01*
X115603352Y-40711571D01*
X115650971Y-40663952D01*
X115746209Y-40616333D01*
X115984304Y-40616333D01*
X116079542Y-40663952D01*
X116127161Y-40711571D01*
X116174780Y-40806809D01*
X116174780Y-41092523D01*
X116127161Y-41187761D01*
X116079542Y-41235380D01*
X91095580Y-37764933D02*
X91809866Y-37764933D01*
X91952723Y-37812552D01*
X92047961Y-37907790D01*
X92095580Y-38050647D01*
X92095580Y-38145885D01*
X92095580Y-37288742D02*
X91095580Y-37288742D01*
X91095580Y-36907790D01*
X91143200Y-36812552D01*
X91190819Y-36764933D01*
X91286057Y-36717314D01*
X91428914Y-36717314D01*
X91524152Y-36764933D01*
X91571771Y-36812552D01*
X91619390Y-36907790D01*
X91619390Y-37288742D01*
X91428914Y-35860171D02*
X92095580Y-35860171D01*
X91047961Y-36098266D02*
X91762247Y-36336361D01*
X91762247Y-35717314D01*
X116743266Y-80325980D02*
X116743266Y-81040266D01*
X116695647Y-81183123D01*
X116600409Y-81278361D01*
X116457552Y-81325980D01*
X116362314Y-81325980D01*
X117219457Y-81325980D02*
X117219457Y-80325980D01*
X117600409Y-80325980D01*
X117695647Y-80373600D01*
X117743266Y-80421219D01*
X117790885Y-80516457D01*
X117790885Y-80659314D01*
X117743266Y-80754552D01*
X117695647Y-80802171D01*
X117600409Y-80849790D01*
X117219457Y-80849790D01*
X118648028Y-80325980D02*
X118457552Y-80325980D01*
X118362314Y-80373600D01*
X118314695Y-80421219D01*
X118219457Y-80564076D01*
X118171838Y-80754552D01*
X118171838Y-81135504D01*
X118219457Y-81230742D01*
X118267076Y-81278361D01*
X118362314Y-81325980D01*
X118552790Y-81325980D01*
X118648028Y-81278361D01*
X118695647Y-81230742D01*
X118743266Y-81135504D01*
X118743266Y-80897409D01*
X118695647Y-80802171D01*
X118648028Y-80754552D01*
X118552790Y-80706933D01*
X118362314Y-80706933D01*
X118267076Y-80754552D01*
X118219457Y-80802171D01*
X118171838Y-80897409D01*
X113368200Y-82100657D02*
X113320580Y-82195895D01*
X113320580Y-82338752D01*
X113368200Y-82481609D01*
X113463438Y-82576847D01*
X113558676Y-82624466D01*
X113749152Y-82672085D01*
X113892009Y-82672085D01*
X114082485Y-82624466D01*
X114177723Y-82576847D01*
X114272961Y-82481609D01*
X114320580Y-82338752D01*
X114320580Y-82243514D01*
X114272961Y-82100657D01*
X114225342Y-82053038D01*
X113892009Y-82053038D01*
X113892009Y-82243514D01*
X113653914Y-81624466D02*
X114320580Y-81624466D01*
X113749152Y-81624466D02*
X113701533Y-81576847D01*
X113653914Y-81481609D01*
X113653914Y-81338752D01*
X113701533Y-81243514D01*
X113796771Y-81195895D01*
X114320580Y-81195895D01*
X114320580Y-80291133D02*
X113320580Y-80291133D01*
X114272961Y-80291133D02*
X114320580Y-80386371D01*
X114320580Y-80576847D01*
X114272961Y-80672085D01*
X114225342Y-80719704D01*
X114130104Y-80767323D01*
X113844390Y-80767323D01*
X113749152Y-80719704D01*
X113701533Y-80672085D01*
X113653914Y-80576847D01*
X113653914Y-80386371D01*
X113701533Y-80291133D01*
X116826380Y-75953133D02*
X117540666Y-75953133D01*
X117683523Y-76000752D01*
X117778761Y-76095990D01*
X117826380Y-76238847D01*
X117826380Y-76334085D01*
X117826380Y-75476942D02*
X116826380Y-75476942D01*
X116826380Y-75095990D01*
X116874000Y-75000752D01*
X116921619Y-74953133D01*
X117016857Y-74905514D01*
X117159714Y-74905514D01*
X117254952Y-74953133D01*
X117302571Y-75000752D01*
X117350190Y-75095990D01*
X117350190Y-75476942D01*
X116826380Y-74572180D02*
X116826380Y-73905514D01*
X117826380Y-74334085D01*
X115555780Y-65196933D02*
X116270066Y-65196933D01*
X116412923Y-65244552D01*
X116508161Y-65339790D01*
X116555780Y-65482647D01*
X116555780Y-65577885D01*
X116555780Y-64720742D02*
X115555780Y-64720742D01*
X115555780Y-64339790D01*
X115603400Y-64244552D01*
X115651019Y-64196933D01*
X115746257Y-64149314D01*
X115889114Y-64149314D01*
X115984352Y-64196933D01*
X116031971Y-64244552D01*
X116079590Y-64339790D01*
X116079590Y-64720742D01*
X115984352Y-63577885D02*
X115936733Y-63673123D01*
X115889114Y-63720742D01*
X115793876Y-63768361D01*
X115746257Y-63768361D01*
X115651019Y-63720742D01*
X115603400Y-63673123D01*
X115555780Y-63577885D01*
X115555780Y-63387409D01*
X115603400Y-63292171D01*
X115651019Y-63244552D01*
X115746257Y-63196933D01*
X115793876Y-63196933D01*
X115889114Y-63244552D01*
X115936733Y-63292171D01*
X115984352Y-63387409D01*
X115984352Y-63577885D01*
X116031971Y-63673123D01*
X116079590Y-63720742D01*
X116174828Y-63768361D01*
X116365304Y-63768361D01*
X116460542Y-63720742D01*
X116508161Y-63673123D01*
X116555780Y-63577885D01*
X116555780Y-63387409D01*
X116508161Y-63292171D01*
X116460542Y-63244552D01*
X116365304Y-63196933D01*
X116174828Y-63196933D01*
X116079590Y-63244552D01*
X116031971Y-63292171D01*
X115984352Y-63387409D01*
X82950580Y-40917266D02*
X82474390Y-41250600D01*
X82950580Y-41488695D02*
X81950580Y-41488695D01*
X81950580Y-41107742D01*
X81998200Y-41012504D01*
X82045819Y-40964885D01*
X82141057Y-40917266D01*
X82283914Y-40917266D01*
X82379152Y-40964885D01*
X82426771Y-41012504D01*
X82474390Y-41107742D01*
X82474390Y-41488695D01*
X82950580Y-39964885D02*
X82950580Y-40536314D01*
X82950580Y-40250600D02*
X81950580Y-40250600D01*
X82093438Y-40345838D01*
X82188676Y-40441076D01*
X82236295Y-40536314D01*
X95819933Y-52776380D02*
X95486600Y-52300190D01*
X95248504Y-52776380D02*
X95248504Y-51776380D01*
X95629457Y-51776380D01*
X95724695Y-51824000D01*
X95772314Y-51871619D01*
X95819933Y-51966857D01*
X95819933Y-52109714D01*
X95772314Y-52204952D01*
X95724695Y-52252571D01*
X95629457Y-52300190D01*
X95248504Y-52300190D01*
X96200885Y-51871619D02*
X96248504Y-51824000D01*
X96343742Y-51776380D01*
X96581838Y-51776380D01*
X96677076Y-51824000D01*
X96724695Y-51871619D01*
X96772314Y-51966857D01*
X96772314Y-52062095D01*
X96724695Y-52204952D01*
X96153266Y-52776380D01*
X96772314Y-52776380D01*
X95794533Y-58719980D02*
X95461200Y-58243790D01*
X95223104Y-58719980D02*
X95223104Y-57719980D01*
X95604057Y-57719980D01*
X95699295Y-57767600D01*
X95746914Y-57815219D01*
X95794533Y-57910457D01*
X95794533Y-58053314D01*
X95746914Y-58148552D01*
X95699295Y-58196171D01*
X95604057Y-58243790D01*
X95223104Y-58243790D01*
X96127866Y-57719980D02*
X96746914Y-57719980D01*
X96413580Y-58100933D01*
X96556438Y-58100933D01*
X96651676Y-58148552D01*
X96699295Y-58196171D01*
X96746914Y-58291409D01*
X96746914Y-58529504D01*
X96699295Y-58624742D01*
X96651676Y-58672361D01*
X96556438Y-58719980D01*
X96270723Y-58719980D01*
X96175485Y-58672361D01*
X96127866Y-58624742D01*
X111501180Y-58078666D02*
X111024990Y-58412000D01*
X111501180Y-58650095D02*
X110501180Y-58650095D01*
X110501180Y-58269142D01*
X110548800Y-58173904D01*
X110596419Y-58126285D01*
X110691657Y-58078666D01*
X110834514Y-58078666D01*
X110929752Y-58126285D01*
X110977371Y-58173904D01*
X111024990Y-58269142D01*
X111024990Y-58650095D01*
X110834514Y-57221523D02*
X111501180Y-57221523D01*
X110453561Y-57459619D02*
X111167847Y-57697714D01*
X111167847Y-57078666D01*
X67575533Y-78069680D02*
X67242200Y-77593490D01*
X67004104Y-78069680D02*
X67004104Y-77069680D01*
X67385057Y-77069680D01*
X67480295Y-77117300D01*
X67527914Y-77164919D01*
X67575533Y-77260157D01*
X67575533Y-77403014D01*
X67527914Y-77498252D01*
X67480295Y-77545871D01*
X67385057Y-77593490D01*
X67004104Y-77593490D01*
X68480295Y-77069680D02*
X68004104Y-77069680D01*
X67956485Y-77545871D01*
X68004104Y-77498252D01*
X68099342Y-77450633D01*
X68337438Y-77450633D01*
X68432676Y-77498252D01*
X68480295Y-77545871D01*
X68527914Y-77641109D01*
X68527914Y-77879204D01*
X68480295Y-77974442D01*
X68432676Y-78022061D01*
X68337438Y-78069680D01*
X68099342Y-78069680D01*
X68004104Y-78022061D01*
X67956485Y-77974442D01*
X63549633Y-81382380D02*
X63216300Y-80906190D01*
X62978204Y-81382380D02*
X62978204Y-80382380D01*
X63359157Y-80382380D01*
X63454395Y-80430000D01*
X63502014Y-80477619D01*
X63549633Y-80572857D01*
X63549633Y-80715714D01*
X63502014Y-80810952D01*
X63454395Y-80858571D01*
X63359157Y-80906190D01*
X62978204Y-80906190D01*
X64406776Y-80382380D02*
X64216300Y-80382380D01*
X64121061Y-80430000D01*
X64073442Y-80477619D01*
X63978204Y-80620476D01*
X63930585Y-80810952D01*
X63930585Y-81191904D01*
X63978204Y-81287142D01*
X64025823Y-81334761D01*
X64121061Y-81382380D01*
X64311538Y-81382380D01*
X64406776Y-81334761D01*
X64454395Y-81287142D01*
X64502014Y-81191904D01*
X64502014Y-80953809D01*
X64454395Y-80858571D01*
X64406776Y-80810952D01*
X64311538Y-80763333D01*
X64121061Y-80763333D01*
X64025823Y-80810952D01*
X63978204Y-80858571D01*
X63930585Y-80953809D01*
X77537633Y-78056980D02*
X77204300Y-77580790D01*
X76966204Y-78056980D02*
X76966204Y-77056980D01*
X77347157Y-77056980D01*
X77442395Y-77104600D01*
X77490014Y-77152219D01*
X77537633Y-77247457D01*
X77537633Y-77390314D01*
X77490014Y-77485552D01*
X77442395Y-77533171D01*
X77347157Y-77580790D01*
X76966204Y-77580790D01*
X77870966Y-77056980D02*
X78537633Y-77056980D01*
X78109061Y-78056980D01*
X73023833Y-81356980D02*
X72690500Y-80880790D01*
X72452404Y-81356980D02*
X72452404Y-80356980D01*
X72833357Y-80356980D01*
X72928595Y-80404600D01*
X72976214Y-80452219D01*
X73023833Y-80547457D01*
X73023833Y-80690314D01*
X72976214Y-80785552D01*
X72928595Y-80833171D01*
X72833357Y-80880790D01*
X72452404Y-80880790D01*
X73595261Y-80785552D02*
X73500023Y-80737933D01*
X73452404Y-80690314D01*
X73404785Y-80595076D01*
X73404785Y-80547457D01*
X73452404Y-80452219D01*
X73500023Y-80404600D01*
X73595261Y-80356980D01*
X73785738Y-80356980D01*
X73880976Y-80404600D01*
X73928595Y-80452219D01*
X73976214Y-80547457D01*
X73976214Y-80595076D01*
X73928595Y-80690314D01*
X73880976Y-80737933D01*
X73785738Y-80785552D01*
X73595261Y-80785552D01*
X73500023Y-80833171D01*
X73452404Y-80880790D01*
X73404785Y-80976028D01*
X73404785Y-81166504D01*
X73452404Y-81261742D01*
X73500023Y-81309361D01*
X73595261Y-81356980D01*
X73785738Y-81356980D01*
X73880976Y-81309361D01*
X73928595Y-81261742D01*
X73976214Y-81166504D01*
X73976214Y-80976028D01*
X73928595Y-80880790D01*
X73880976Y-80833171D01*
X73785738Y-80785552D01*
X111247180Y-81345066D02*
X110770990Y-81678400D01*
X111247180Y-81916495D02*
X110247180Y-81916495D01*
X110247180Y-81535542D01*
X110294800Y-81440304D01*
X110342419Y-81392685D01*
X110437657Y-81345066D01*
X110580514Y-81345066D01*
X110675752Y-81392685D01*
X110723371Y-81440304D01*
X110770990Y-81535542D01*
X110770990Y-81916495D01*
X111247180Y-80868876D02*
X111247180Y-80678400D01*
X111199561Y-80583161D01*
X111151942Y-80535542D01*
X111009085Y-80440304D01*
X110818609Y-80392685D01*
X110437657Y-80392685D01*
X110342419Y-80440304D01*
X110294800Y-80487923D01*
X110247180Y-80583161D01*
X110247180Y-80773638D01*
X110294800Y-80868876D01*
X110342419Y-80916495D01*
X110437657Y-80964114D01*
X110675752Y-80964114D01*
X110770990Y-80916495D01*
X110818609Y-80868876D01*
X110866228Y-80773638D01*
X110866228Y-80583161D01*
X110818609Y-80487923D01*
X110770990Y-80440304D01*
X110675752Y-80392685D01*
X80238095Y-43602380D02*
X80238095Y-44411904D01*
X80285714Y-44507142D01*
X80333333Y-44554761D01*
X80428571Y-44602380D01*
X80619047Y-44602380D01*
X80714285Y-44554761D01*
X80761904Y-44507142D01*
X80809523Y-44411904D01*
X80809523Y-43602380D01*
X81809523Y-44602380D02*
X81238095Y-44602380D01*
X81523809Y-44602380D02*
X81523809Y-43602380D01*
X81428571Y-43745238D01*
X81333333Y-43840476D01*
X81238095Y-43888095D01*
X104869800Y-48640904D02*
X105679324Y-48640904D01*
X105774562Y-48593285D01*
X105822181Y-48545666D01*
X105869800Y-48450428D01*
X105869800Y-48259952D01*
X105822181Y-48164714D01*
X105774562Y-48117095D01*
X105679324Y-48069476D01*
X104869800Y-48069476D01*
X104965039Y-47640904D02*
X104917420Y-47593285D01*
X104869800Y-47498047D01*
X104869800Y-47259952D01*
X104917420Y-47164714D01*
X104965039Y-47117095D01*
X105060277Y-47069476D01*
X105155515Y-47069476D01*
X105298372Y-47117095D01*
X105869800Y-47688523D01*
X105869800Y-47069476D01*
X102601780Y-70230904D02*
X103411304Y-70230904D01*
X103506542Y-70183285D01*
X103554161Y-70135666D01*
X103601780Y-70040428D01*
X103601780Y-69849952D01*
X103554161Y-69754714D01*
X103506542Y-69707095D01*
X103411304Y-69659476D01*
X102601780Y-69659476D01*
X102601780Y-68707095D02*
X102601780Y-69183285D01*
X103077971Y-69230904D01*
X103030352Y-69183285D01*
X102982733Y-69088047D01*
X102982733Y-68849952D01*
X103030352Y-68754714D01*
X103077971Y-68707095D01*
X103173209Y-68659476D01*
X103411304Y-68659476D01*
X103506542Y-68707095D01*
X103554161Y-68754714D01*
X103601780Y-68849952D01*
X103601780Y-69088047D01*
X103554161Y-69183285D01*
X103506542Y-69230904D01*
X104662980Y-71525604D02*
X105472504Y-71525604D01*
X105567742Y-71477985D01*
X105615361Y-71430366D01*
X105662980Y-71335128D01*
X105662980Y-71144652D01*
X105615361Y-71049414D01*
X105567742Y-71001795D01*
X105472504Y-70954176D01*
X104662980Y-70954176D01*
X104662980Y-70049414D02*
X104662980Y-70239890D01*
X104710600Y-70335128D01*
X104758219Y-70382747D01*
X104901076Y-70477985D01*
X105091552Y-70525604D01*
X105472504Y-70525604D01*
X105567742Y-70477985D01*
X105615361Y-70430366D01*
X105662980Y-70335128D01*
X105662980Y-70144652D01*
X105615361Y-70049414D01*
X105567742Y-70001795D01*
X105472504Y-69954176D01*
X105234409Y-69954176D01*
X105139171Y-70001795D01*
X105091552Y-70049414D01*
X105043933Y-70144652D01*
X105043933Y-70335128D01*
X105091552Y-70430366D01*
X105139171Y-70477985D01*
X105234409Y-70525604D01*
X90355476Y-70658180D02*
X91022142Y-71658180D01*
X91022142Y-70658180D02*
X90355476Y-71658180D01*
X91926904Y-71658180D02*
X91355476Y-71658180D01*
X91641190Y-71658180D02*
X91641190Y-70658180D01*
X91545952Y-70801038D01*
X91450714Y-70896276D01*
X91355476Y-70943895D01*
M02*
