G04 #@! TF.GenerationSoftware,KiCad,Pcbnew,5.1.2*
G04 #@! TF.CreationDate,2019-07-01T14:10:27+02:00*
G04 #@! TF.ProjectId,pcb,7063622e-6b69-4636-9164-5f7063625858,rev?*
G04 #@! TF.SameCoordinates,Original*
G04 #@! TF.FileFunction,Soldermask,Bot*
G04 #@! TF.FilePolarity,Negative*
%FSLAX46Y46*%
G04 Gerber Fmt 4.6, Leading zero omitted, Abs format (unit mm)*
G04 Created by KiCad (PCBNEW 5.1.2) date 2019-07-01 14:10:27*
%MOMM*%
%LPD*%
G04 APERTURE LIST*
%ADD10C,0.100000*%
G04 APERTURE END LIST*
D10*
G36*
X54375256Y-86391298D02*
G01*
X54481579Y-86412447D01*
X54782042Y-86536903D01*
X55052451Y-86717585D01*
X55282415Y-86947549D01*
X55417126Y-87149158D01*
X55463098Y-87217960D01*
X55587553Y-87518422D01*
X55645348Y-87808973D01*
X55651000Y-87837391D01*
X55651000Y-88162609D01*
X55587553Y-88481579D01*
X55463097Y-88782042D01*
X55282415Y-89052451D01*
X55052451Y-89282415D01*
X54782042Y-89463097D01*
X54481579Y-89587553D01*
X54375256Y-89608702D01*
X54162611Y-89651000D01*
X53837389Y-89651000D01*
X53624744Y-89608702D01*
X53518421Y-89587553D01*
X53217958Y-89463097D01*
X52947549Y-89282415D01*
X52717585Y-89052451D01*
X52536903Y-88782042D01*
X52412447Y-88481579D01*
X52349000Y-88162609D01*
X52349000Y-87837391D01*
X52354653Y-87808973D01*
X52412447Y-87518422D01*
X52536902Y-87217960D01*
X52582874Y-87149158D01*
X52717585Y-86947549D01*
X52947549Y-86717585D01*
X53217958Y-86536903D01*
X53518421Y-86412447D01*
X53624744Y-86391298D01*
X53837389Y-86349000D01*
X54162611Y-86349000D01*
X54375256Y-86391298D01*
X54375256Y-86391298D01*
G37*
G36*
X126375256Y-86391298D02*
G01*
X126481579Y-86412447D01*
X126782042Y-86536903D01*
X127052451Y-86717585D01*
X127282415Y-86947549D01*
X127417126Y-87149158D01*
X127463098Y-87217960D01*
X127587553Y-87518422D01*
X127645348Y-87808973D01*
X127651000Y-87837391D01*
X127651000Y-88162609D01*
X127587553Y-88481579D01*
X127463097Y-88782042D01*
X127282415Y-89052451D01*
X127052451Y-89282415D01*
X126782042Y-89463097D01*
X126481579Y-89587553D01*
X126375256Y-89608702D01*
X126162611Y-89651000D01*
X125837389Y-89651000D01*
X125624744Y-89608702D01*
X125518421Y-89587553D01*
X125217958Y-89463097D01*
X124947549Y-89282415D01*
X124717585Y-89052451D01*
X124536903Y-88782042D01*
X124412447Y-88481579D01*
X124349000Y-88162609D01*
X124349000Y-87837391D01*
X124354653Y-87808973D01*
X124412447Y-87518422D01*
X124536902Y-87217960D01*
X124582874Y-87149158D01*
X124717585Y-86947549D01*
X124947549Y-86717585D01*
X125217958Y-86536903D01*
X125518421Y-86412447D01*
X125624744Y-86391298D01*
X125837389Y-86349000D01*
X126162611Y-86349000D01*
X126375256Y-86391298D01*
X126375256Y-86391298D01*
G37*
G36*
X99576843Y-87091119D02*
G01*
X99643027Y-87097637D01*
X99812866Y-87149157D01*
X99969391Y-87232822D01*
X100005129Y-87262152D01*
X100106586Y-87345414D01*
X100189848Y-87446871D01*
X100219178Y-87482609D01*
X100302843Y-87639134D01*
X100354363Y-87808973D01*
X100371759Y-87985600D01*
X100354363Y-88162227D01*
X100302843Y-88332066D01*
X100219178Y-88488591D01*
X100189848Y-88524329D01*
X100106586Y-88625786D01*
X100005129Y-88709048D01*
X99969391Y-88738378D01*
X99812866Y-88822043D01*
X99643027Y-88873563D01*
X99576842Y-88880082D01*
X99510660Y-88886600D01*
X99422140Y-88886600D01*
X99355958Y-88880082D01*
X99289773Y-88873563D01*
X99119934Y-88822043D01*
X98963409Y-88738378D01*
X98927671Y-88709048D01*
X98826214Y-88625786D01*
X98742952Y-88524329D01*
X98713622Y-88488591D01*
X98629957Y-88332066D01*
X98578437Y-88162227D01*
X98561041Y-87985600D01*
X98578437Y-87808973D01*
X98629957Y-87639134D01*
X98713622Y-87482609D01*
X98742952Y-87446871D01*
X98826214Y-87345414D01*
X98927671Y-87262152D01*
X98963409Y-87232822D01*
X99119934Y-87149157D01*
X99289773Y-87097637D01*
X99355957Y-87091119D01*
X99422140Y-87084600D01*
X99510660Y-87084600D01*
X99576843Y-87091119D01*
X99576843Y-87091119D01*
G37*
G36*
X97827400Y-88886600D02*
G01*
X96025400Y-88886600D01*
X96025400Y-87084600D01*
X97827400Y-87084600D01*
X97827400Y-88886600D01*
X97827400Y-88886600D01*
G37*
G36*
X88661687Y-83890996D02*
G01*
X88898453Y-83989068D01*
X88898455Y-83989069D01*
X89111539Y-84131447D01*
X89292753Y-84312661D01*
X89435132Y-84525747D01*
X89533204Y-84762513D01*
X89583200Y-85013861D01*
X89583200Y-85270139D01*
X89533204Y-85521487D01*
X89491476Y-85622227D01*
X89435131Y-85758255D01*
X89292753Y-85971339D01*
X89111539Y-86152553D01*
X88898455Y-86294931D01*
X88898454Y-86294932D01*
X88898453Y-86294932D01*
X88661687Y-86393004D01*
X88410339Y-86443000D01*
X88154061Y-86443000D01*
X87902713Y-86393004D01*
X87665947Y-86294932D01*
X87665946Y-86294932D01*
X87665945Y-86294931D01*
X87452861Y-86152553D01*
X87271647Y-85971339D01*
X87129269Y-85758255D01*
X87072924Y-85622227D01*
X87031196Y-85521487D01*
X86981200Y-85270139D01*
X86981200Y-85013861D01*
X87031196Y-84762513D01*
X87129268Y-84525747D01*
X87271647Y-84312661D01*
X87452861Y-84131447D01*
X87665945Y-83989069D01*
X87665947Y-83989068D01*
X87902713Y-83890996D01*
X88154061Y-83841000D01*
X88410339Y-83841000D01*
X88661687Y-83890996D01*
X88661687Y-83890996D01*
G37*
G36*
X64583200Y-86443000D02*
G01*
X61981200Y-86443000D01*
X61981200Y-83841000D01*
X64583200Y-83841000D01*
X64583200Y-86443000D01*
X64583200Y-86443000D01*
G37*
G36*
X68661687Y-83890996D02*
G01*
X68898453Y-83989068D01*
X68898455Y-83989069D01*
X69111539Y-84131447D01*
X69292753Y-84312661D01*
X69435132Y-84525747D01*
X69533204Y-84762513D01*
X69583200Y-85013861D01*
X69583200Y-85270139D01*
X69533204Y-85521487D01*
X69491476Y-85622227D01*
X69435131Y-85758255D01*
X69292753Y-85971339D01*
X69111539Y-86152553D01*
X68898455Y-86294931D01*
X68898454Y-86294932D01*
X68898453Y-86294932D01*
X68661687Y-86393004D01*
X68410339Y-86443000D01*
X68154061Y-86443000D01*
X67902713Y-86393004D01*
X67665947Y-86294932D01*
X67665946Y-86294932D01*
X67665945Y-86294931D01*
X67452861Y-86152553D01*
X67271647Y-85971339D01*
X67129269Y-85758255D01*
X67072924Y-85622227D01*
X67031196Y-85521487D01*
X66981200Y-85270139D01*
X66981200Y-85013861D01*
X67031196Y-84762513D01*
X67129268Y-84525747D01*
X67271647Y-84312661D01*
X67452861Y-84131447D01*
X67665945Y-83989069D01*
X67665947Y-83989068D01*
X67902713Y-83890996D01*
X68154061Y-83841000D01*
X68410339Y-83841000D01*
X68661687Y-83890996D01*
X68661687Y-83890996D01*
G37*
G36*
X78661687Y-83890996D02*
G01*
X78898453Y-83989068D01*
X78898455Y-83989069D01*
X79111539Y-84131447D01*
X79292753Y-84312661D01*
X79435132Y-84525747D01*
X79533204Y-84762513D01*
X79583200Y-85013861D01*
X79583200Y-85270139D01*
X79533204Y-85521487D01*
X79491476Y-85622227D01*
X79435131Y-85758255D01*
X79292753Y-85971339D01*
X79111539Y-86152553D01*
X78898455Y-86294931D01*
X78898454Y-86294932D01*
X78898453Y-86294932D01*
X78661687Y-86393004D01*
X78410339Y-86443000D01*
X78154061Y-86443000D01*
X77902713Y-86393004D01*
X77665947Y-86294932D01*
X77665946Y-86294932D01*
X77665945Y-86294931D01*
X77452861Y-86152553D01*
X77271647Y-85971339D01*
X77129269Y-85758255D01*
X77072924Y-85622227D01*
X77031196Y-85521487D01*
X76981200Y-85270139D01*
X76981200Y-85013861D01*
X77031196Y-84762513D01*
X77129268Y-84525747D01*
X77271647Y-84312661D01*
X77452861Y-84131447D01*
X77665945Y-83989069D01*
X77665947Y-83989068D01*
X77902713Y-83890996D01*
X78154061Y-83841000D01*
X78410339Y-83841000D01*
X78661687Y-83890996D01*
X78661687Y-83890996D01*
G37*
G36*
X74583200Y-86443000D02*
G01*
X71981200Y-86443000D01*
X71981200Y-83841000D01*
X74583200Y-83841000D01*
X74583200Y-86443000D01*
X74583200Y-86443000D01*
G37*
G36*
X84583200Y-86443000D02*
G01*
X81981200Y-86443000D01*
X81981200Y-83841000D01*
X84583200Y-83841000D01*
X84583200Y-86443000D01*
X84583200Y-86443000D01*
G37*
G36*
X97036842Y-84551118D02*
G01*
X97103027Y-84557637D01*
X97272866Y-84609157D01*
X97429391Y-84692822D01*
X97465129Y-84722152D01*
X97566586Y-84805414D01*
X97649848Y-84906871D01*
X97679178Y-84942609D01*
X97762843Y-85099134D01*
X97814363Y-85268973D01*
X97831759Y-85445600D01*
X97814363Y-85622227D01*
X97762843Y-85792066D01*
X97679178Y-85948591D01*
X97660509Y-85971339D01*
X97566586Y-86085786D01*
X97485229Y-86152553D01*
X97429391Y-86198378D01*
X97272866Y-86282043D01*
X97103027Y-86333563D01*
X97036843Y-86340081D01*
X96970660Y-86346600D01*
X96882140Y-86346600D01*
X96815957Y-86340081D01*
X96749773Y-86333563D01*
X96579934Y-86282043D01*
X96423409Y-86198378D01*
X96367571Y-86152553D01*
X96286214Y-86085786D01*
X96192291Y-85971339D01*
X96173622Y-85948591D01*
X96089957Y-85792066D01*
X96038437Y-85622227D01*
X96021041Y-85445600D01*
X96038437Y-85268973D01*
X96089957Y-85099134D01*
X96173622Y-84942609D01*
X96202952Y-84906871D01*
X96286214Y-84805414D01*
X96387671Y-84722152D01*
X96423409Y-84692822D01*
X96579934Y-84609157D01*
X96749773Y-84557637D01*
X96815958Y-84551118D01*
X96882140Y-84544600D01*
X96970660Y-84544600D01*
X97036842Y-84551118D01*
X97036842Y-84551118D01*
G37*
G36*
X99576842Y-84551118D02*
G01*
X99643027Y-84557637D01*
X99812866Y-84609157D01*
X99969391Y-84692822D01*
X100005129Y-84722152D01*
X100106586Y-84805414D01*
X100189848Y-84906871D01*
X100219178Y-84942609D01*
X100302843Y-85099134D01*
X100354363Y-85268973D01*
X100371759Y-85445600D01*
X100354363Y-85622227D01*
X100302843Y-85792066D01*
X100219178Y-85948591D01*
X100200509Y-85971339D01*
X100106586Y-86085786D01*
X100025229Y-86152553D01*
X99969391Y-86198378D01*
X99812866Y-86282043D01*
X99643027Y-86333563D01*
X99576843Y-86340081D01*
X99510660Y-86346600D01*
X99422140Y-86346600D01*
X99355957Y-86340081D01*
X99289773Y-86333563D01*
X99119934Y-86282043D01*
X98963409Y-86198378D01*
X98907571Y-86152553D01*
X98826214Y-86085786D01*
X98732291Y-85971339D01*
X98713622Y-85948591D01*
X98629957Y-85792066D01*
X98578437Y-85622227D01*
X98561041Y-85445600D01*
X98578437Y-85268973D01*
X98629957Y-85099134D01*
X98713622Y-84942609D01*
X98742952Y-84906871D01*
X98826214Y-84805414D01*
X98927671Y-84722152D01*
X98963409Y-84692822D01*
X99119934Y-84609157D01*
X99289773Y-84557637D01*
X99355958Y-84551118D01*
X99422140Y-84544600D01*
X99510660Y-84544600D01*
X99576842Y-84551118D01*
X99576842Y-84551118D01*
G37*
G36*
X97036843Y-82011119D02*
G01*
X97103027Y-82017637D01*
X97272866Y-82069157D01*
X97429391Y-82152822D01*
X97465129Y-82182152D01*
X97566586Y-82265414D01*
X97649848Y-82366871D01*
X97679178Y-82402609D01*
X97762843Y-82559134D01*
X97814363Y-82728973D01*
X97831759Y-82905600D01*
X97814363Y-83082227D01*
X97762843Y-83252066D01*
X97679178Y-83408591D01*
X97649848Y-83444329D01*
X97566586Y-83545786D01*
X97465129Y-83629048D01*
X97429391Y-83658378D01*
X97272866Y-83742043D01*
X97103027Y-83793563D01*
X97036843Y-83800081D01*
X96970660Y-83806600D01*
X96882140Y-83806600D01*
X96815957Y-83800081D01*
X96749773Y-83793563D01*
X96579934Y-83742043D01*
X96423409Y-83658378D01*
X96387671Y-83629048D01*
X96286214Y-83545786D01*
X96202952Y-83444329D01*
X96173622Y-83408591D01*
X96089957Y-83252066D01*
X96038437Y-83082227D01*
X96021041Y-82905600D01*
X96038437Y-82728973D01*
X96089957Y-82559134D01*
X96173622Y-82402609D01*
X96202952Y-82366871D01*
X96286214Y-82265414D01*
X96387671Y-82182152D01*
X96423409Y-82152822D01*
X96579934Y-82069157D01*
X96749773Y-82017637D01*
X96815957Y-82011119D01*
X96882140Y-82004600D01*
X96970660Y-82004600D01*
X97036843Y-82011119D01*
X97036843Y-82011119D01*
G37*
G36*
X99576843Y-82011119D02*
G01*
X99643027Y-82017637D01*
X99812866Y-82069157D01*
X99969391Y-82152822D01*
X100005129Y-82182152D01*
X100106586Y-82265414D01*
X100189848Y-82366871D01*
X100219178Y-82402609D01*
X100302843Y-82559134D01*
X100354363Y-82728973D01*
X100371759Y-82905600D01*
X100354363Y-83082227D01*
X100302843Y-83252066D01*
X100219178Y-83408591D01*
X100189848Y-83444329D01*
X100106586Y-83545786D01*
X100005129Y-83629048D01*
X99969391Y-83658378D01*
X99812866Y-83742043D01*
X99643027Y-83793563D01*
X99576843Y-83800081D01*
X99510660Y-83806600D01*
X99422140Y-83806600D01*
X99355957Y-83800081D01*
X99289773Y-83793563D01*
X99119934Y-83742043D01*
X98963409Y-83658378D01*
X98927671Y-83629048D01*
X98826214Y-83545786D01*
X98742952Y-83444329D01*
X98713622Y-83408591D01*
X98629957Y-83252066D01*
X98578437Y-83082227D01*
X98561041Y-82905600D01*
X98578437Y-82728973D01*
X98629957Y-82559134D01*
X98713622Y-82402609D01*
X98742952Y-82366871D01*
X98826214Y-82265414D01*
X98927671Y-82182152D01*
X98963409Y-82152822D01*
X99119934Y-82069157D01*
X99289773Y-82017637D01*
X99355957Y-82011119D01*
X99422140Y-82004600D01*
X99510660Y-82004600D01*
X99576843Y-82011119D01*
X99576843Y-82011119D01*
G37*
G36*
X124926800Y-81522400D02*
G01*
X122324800Y-81522400D01*
X122324800Y-78920400D01*
X124926800Y-78920400D01*
X124926800Y-81522400D01*
X124926800Y-81522400D01*
G37*
G36*
X97036842Y-79471118D02*
G01*
X97103027Y-79477637D01*
X97272866Y-79529157D01*
X97429391Y-79612822D01*
X97465129Y-79642152D01*
X97566586Y-79725414D01*
X97649848Y-79826871D01*
X97679178Y-79862609D01*
X97762843Y-80019134D01*
X97814363Y-80188973D01*
X97831759Y-80365600D01*
X97814363Y-80542227D01*
X97762843Y-80712066D01*
X97679178Y-80868591D01*
X97649848Y-80904329D01*
X97566586Y-81005786D01*
X97465129Y-81089048D01*
X97429391Y-81118378D01*
X97272866Y-81202043D01*
X97103027Y-81253563D01*
X97036842Y-81260082D01*
X96970660Y-81266600D01*
X96882140Y-81266600D01*
X96815958Y-81260082D01*
X96749773Y-81253563D01*
X96579934Y-81202043D01*
X96423409Y-81118378D01*
X96387671Y-81089048D01*
X96286214Y-81005786D01*
X96202952Y-80904329D01*
X96173622Y-80868591D01*
X96089957Y-80712066D01*
X96038437Y-80542227D01*
X96021041Y-80365600D01*
X96038437Y-80188973D01*
X96089957Y-80019134D01*
X96173622Y-79862609D01*
X96202952Y-79826871D01*
X96286214Y-79725414D01*
X96387671Y-79642152D01*
X96423409Y-79612822D01*
X96579934Y-79529157D01*
X96749773Y-79477637D01*
X96815958Y-79471118D01*
X96882140Y-79464600D01*
X96970660Y-79464600D01*
X97036842Y-79471118D01*
X97036842Y-79471118D01*
G37*
G36*
X99576842Y-79471118D02*
G01*
X99643027Y-79477637D01*
X99812866Y-79529157D01*
X99969391Y-79612822D01*
X100005129Y-79642152D01*
X100106586Y-79725414D01*
X100189848Y-79826871D01*
X100219178Y-79862609D01*
X100302843Y-80019134D01*
X100354363Y-80188973D01*
X100371759Y-80365600D01*
X100354363Y-80542227D01*
X100302843Y-80712066D01*
X100219178Y-80868591D01*
X100189848Y-80904329D01*
X100106586Y-81005786D01*
X100005129Y-81089048D01*
X99969391Y-81118378D01*
X99812866Y-81202043D01*
X99643027Y-81253563D01*
X99576842Y-81260082D01*
X99510660Y-81266600D01*
X99422140Y-81266600D01*
X99355958Y-81260082D01*
X99289773Y-81253563D01*
X99119934Y-81202043D01*
X98963409Y-81118378D01*
X98927671Y-81089048D01*
X98826214Y-81005786D01*
X98742952Y-80904329D01*
X98713622Y-80868591D01*
X98629957Y-80712066D01*
X98578437Y-80542227D01*
X98561041Y-80365600D01*
X98578437Y-80188973D01*
X98629957Y-80019134D01*
X98713622Y-79862609D01*
X98742952Y-79826871D01*
X98826214Y-79725414D01*
X98927671Y-79642152D01*
X98963409Y-79612822D01*
X99119934Y-79529157D01*
X99289773Y-79477637D01*
X99355958Y-79471118D01*
X99422140Y-79464600D01*
X99510660Y-79464600D01*
X99576842Y-79471118D01*
X99576842Y-79471118D01*
G37*
G36*
X124005287Y-73970396D02*
G01*
X124242053Y-74068468D01*
X124242055Y-74068469D01*
X124368461Y-74152931D01*
X124455139Y-74210847D01*
X124636353Y-74392061D01*
X124778732Y-74605147D01*
X124876804Y-74841913D01*
X124926800Y-75093261D01*
X124926800Y-75349539D01*
X124876804Y-75600887D01*
X124778732Y-75837653D01*
X124778731Y-75837655D01*
X124636353Y-76050739D01*
X124455139Y-76231953D01*
X124242055Y-76374331D01*
X124242054Y-76374332D01*
X124242053Y-76374332D01*
X124005287Y-76472404D01*
X123753939Y-76522400D01*
X123497661Y-76522400D01*
X123246313Y-76472404D01*
X123009547Y-76374332D01*
X123009546Y-76374332D01*
X123009545Y-76374331D01*
X122796461Y-76231953D01*
X122615247Y-76050739D01*
X122472869Y-75837655D01*
X122472868Y-75837653D01*
X122374796Y-75600887D01*
X122324800Y-75349539D01*
X122324800Y-75093261D01*
X122374796Y-74841913D01*
X122472868Y-74605147D01*
X122615247Y-74392061D01*
X122796461Y-74210847D01*
X122883139Y-74152931D01*
X123009545Y-74068469D01*
X123009547Y-74068468D01*
X123246313Y-73970396D01*
X123497661Y-73920400D01*
X123753939Y-73920400D01*
X124005287Y-73970396D01*
X124005287Y-73970396D01*
G37*
G36*
X56379487Y-71748996D02*
G01*
X56616253Y-71847068D01*
X56616255Y-71847069D01*
X56829339Y-71989447D01*
X57010553Y-72170661D01*
X57152932Y-72383747D01*
X57251004Y-72620513D01*
X57301000Y-72871861D01*
X57301000Y-73128139D01*
X57251004Y-73379487D01*
X57152932Y-73616253D01*
X57152931Y-73616255D01*
X57010553Y-73829339D01*
X56829339Y-74010553D01*
X56616255Y-74152931D01*
X56616254Y-74152932D01*
X56616253Y-74152932D01*
X56379487Y-74251004D01*
X56128139Y-74301000D01*
X55871861Y-74301000D01*
X55620513Y-74251004D01*
X55383747Y-74152932D01*
X55383746Y-74152932D01*
X55383745Y-74152931D01*
X55170661Y-74010553D01*
X54989447Y-73829339D01*
X54847069Y-73616255D01*
X54847068Y-73616253D01*
X54748996Y-73379487D01*
X54699000Y-73128139D01*
X54699000Y-72871861D01*
X54748996Y-72620513D01*
X54847068Y-72383747D01*
X54989447Y-72170661D01*
X55170661Y-71989447D01*
X55383745Y-71847069D01*
X55383747Y-71847068D01*
X55620513Y-71748996D01*
X55871861Y-71699000D01*
X56128139Y-71699000D01*
X56379487Y-71748996D01*
X56379487Y-71748996D01*
G37*
G36*
X67051000Y-74003500D02*
G01*
X64949000Y-74003500D01*
X64949000Y-71996500D01*
X67051000Y-71996500D01*
X67051000Y-74003500D01*
X67051000Y-74003500D01*
G37*
G36*
X66145936Y-69461340D02*
G01*
X66244220Y-69471020D01*
X66433381Y-69528401D01*
X66607712Y-69621583D01*
X66760515Y-69746985D01*
X66885917Y-69899788D01*
X66979099Y-70074119D01*
X67036480Y-70263280D01*
X67055855Y-70460000D01*
X67036480Y-70656720D01*
X66979099Y-70845881D01*
X66885917Y-71020212D01*
X66760515Y-71173015D01*
X66607712Y-71298417D01*
X66433381Y-71391599D01*
X66244220Y-71448980D01*
X66145936Y-71458660D01*
X66096795Y-71463500D01*
X65903205Y-71463500D01*
X65854064Y-71458660D01*
X65755780Y-71448980D01*
X65566619Y-71391599D01*
X65392288Y-71298417D01*
X65239485Y-71173015D01*
X65114083Y-71020212D01*
X65020901Y-70845881D01*
X64963520Y-70656720D01*
X64944145Y-70460000D01*
X64963520Y-70263280D01*
X65020901Y-70074119D01*
X65114083Y-69899788D01*
X65239485Y-69746985D01*
X65392288Y-69621583D01*
X65566619Y-69528401D01*
X65755780Y-69471020D01*
X65854064Y-69461340D01*
X65903205Y-69456500D01*
X66096795Y-69456500D01*
X66145936Y-69461340D01*
X66145936Y-69461340D01*
G37*
G36*
X124913400Y-71265200D02*
G01*
X122311400Y-71265200D01*
X122311400Y-68663200D01*
X124913400Y-68663200D01*
X124913400Y-71265200D01*
X124913400Y-71265200D01*
G37*
G36*
X57301000Y-69301000D02*
G01*
X54699000Y-69301000D01*
X54699000Y-66699000D01*
X57301000Y-66699000D01*
X57301000Y-69301000D01*
X57301000Y-69301000D01*
G37*
G36*
X66145936Y-66921340D02*
G01*
X66244220Y-66931020D01*
X66433381Y-66988401D01*
X66607712Y-67081583D01*
X66760515Y-67206985D01*
X66885917Y-67359788D01*
X66979099Y-67534119D01*
X67036480Y-67723280D01*
X67055855Y-67920000D01*
X67036480Y-68116720D01*
X66979099Y-68305881D01*
X66885917Y-68480212D01*
X66760515Y-68633015D01*
X66607712Y-68758417D01*
X66433381Y-68851599D01*
X66244220Y-68908980D01*
X66145936Y-68918660D01*
X66096795Y-68923500D01*
X65903205Y-68923500D01*
X65854064Y-68918660D01*
X65755780Y-68908980D01*
X65566619Y-68851599D01*
X65392288Y-68758417D01*
X65239485Y-68633015D01*
X65114083Y-68480212D01*
X65020901Y-68305881D01*
X64963520Y-68116720D01*
X64944145Y-67920000D01*
X64963520Y-67723280D01*
X65020901Y-67534119D01*
X65114083Y-67359788D01*
X65239485Y-67206985D01*
X65392288Y-67081583D01*
X65566619Y-66988401D01*
X65755780Y-66931020D01*
X65854064Y-66921340D01*
X65903205Y-66916500D01*
X66096795Y-66916500D01*
X66145936Y-66921340D01*
X66145936Y-66921340D01*
G37*
G36*
X123991887Y-63713196D02*
G01*
X124228653Y-63811268D01*
X124228655Y-63811269D01*
X124441739Y-63953647D01*
X124622953Y-64134861D01*
X124765332Y-64347947D01*
X124863404Y-64584713D01*
X124913400Y-64836061D01*
X124913400Y-65092339D01*
X124863404Y-65343687D01*
X124765332Y-65580453D01*
X124765331Y-65580455D01*
X124622953Y-65793539D01*
X124441739Y-65974753D01*
X124228655Y-66117131D01*
X124228654Y-66117132D01*
X124228653Y-66117132D01*
X123991887Y-66215204D01*
X123740539Y-66265200D01*
X123484261Y-66265200D01*
X123232913Y-66215204D01*
X122996147Y-66117132D01*
X122996146Y-66117132D01*
X122996145Y-66117131D01*
X122783061Y-65974753D01*
X122601847Y-65793539D01*
X122459469Y-65580455D01*
X122459468Y-65580453D01*
X122361396Y-65343687D01*
X122311400Y-65092339D01*
X122311400Y-64836061D01*
X122361396Y-64584713D01*
X122459468Y-64347947D01*
X122601847Y-64134861D01*
X122783061Y-63953647D01*
X122996145Y-63811269D01*
X122996147Y-63811268D01*
X123232913Y-63713196D01*
X123484261Y-63663200D01*
X123740539Y-63663200D01*
X123991887Y-63713196D01*
X123991887Y-63713196D01*
G37*
G36*
X57469264Y-59134189D02*
G01*
X57660533Y-59213415D01*
X57660535Y-59213416D01*
X57734460Y-59262811D01*
X57832673Y-59328435D01*
X57979065Y-59474827D01*
X58094085Y-59646967D01*
X58173311Y-59838236D01*
X58213700Y-60041284D01*
X58213700Y-60248316D01*
X58173311Y-60451364D01*
X58094085Y-60642633D01*
X58094084Y-60642635D01*
X57979065Y-60814773D01*
X57832673Y-60961165D01*
X57660535Y-61076184D01*
X57660534Y-61076185D01*
X57660533Y-61076185D01*
X57469264Y-61155411D01*
X57266216Y-61195800D01*
X57059184Y-61195800D01*
X56856136Y-61155411D01*
X56664867Y-61076185D01*
X56664866Y-61076185D01*
X56664865Y-61076184D01*
X56492727Y-60961165D01*
X56346335Y-60814773D01*
X56231316Y-60642635D01*
X56231315Y-60642633D01*
X56152089Y-60451364D01*
X56111700Y-60248316D01*
X56111700Y-60041284D01*
X56152089Y-59838236D01*
X56231315Y-59646967D01*
X56346335Y-59474827D01*
X56492727Y-59328435D01*
X56590940Y-59262811D01*
X56664865Y-59213416D01*
X56664867Y-59213415D01*
X56856136Y-59134189D01*
X57059184Y-59093800D01*
X57266216Y-59093800D01*
X57469264Y-59134189D01*
X57469264Y-59134189D01*
G37*
G36*
X52969264Y-59134189D02*
G01*
X53160533Y-59213415D01*
X53160535Y-59213416D01*
X53234460Y-59262811D01*
X53332673Y-59328435D01*
X53479065Y-59474827D01*
X53594085Y-59646967D01*
X53673311Y-59838236D01*
X53713700Y-60041284D01*
X53713700Y-60248316D01*
X53673311Y-60451364D01*
X53594085Y-60642633D01*
X53594084Y-60642635D01*
X53479065Y-60814773D01*
X53332673Y-60961165D01*
X53160535Y-61076184D01*
X53160534Y-61076185D01*
X53160533Y-61076185D01*
X52969264Y-61155411D01*
X52766216Y-61195800D01*
X52559184Y-61195800D01*
X52356136Y-61155411D01*
X52164867Y-61076185D01*
X52164866Y-61076185D01*
X52164865Y-61076184D01*
X51992727Y-60961165D01*
X51846335Y-60814773D01*
X51731316Y-60642635D01*
X51731315Y-60642633D01*
X51652089Y-60451364D01*
X51611700Y-60248316D01*
X51611700Y-60041284D01*
X51652089Y-59838236D01*
X51731315Y-59646967D01*
X51846335Y-59474827D01*
X51992727Y-59328435D01*
X52090940Y-59262811D01*
X52164865Y-59213416D01*
X52164867Y-59213415D01*
X52356136Y-59134189D01*
X52559184Y-59093800D01*
X52766216Y-59093800D01*
X52969264Y-59134189D01*
X52969264Y-59134189D01*
G37*
G36*
X64283512Y-58103927D02*
G01*
X64432812Y-58133624D01*
X64596784Y-58201544D01*
X64744354Y-58300147D01*
X64869853Y-58425646D01*
X64968456Y-58573216D01*
X65036376Y-58737188D01*
X65071000Y-58911259D01*
X65071000Y-59088741D01*
X65036376Y-59262812D01*
X64968456Y-59426784D01*
X64869853Y-59574354D01*
X64744354Y-59699853D01*
X64596784Y-59798456D01*
X64432812Y-59866376D01*
X64283512Y-59896073D01*
X64258742Y-59901000D01*
X64081258Y-59901000D01*
X64056488Y-59896073D01*
X63907188Y-59866376D01*
X63743216Y-59798456D01*
X63595646Y-59699853D01*
X63470147Y-59574354D01*
X63371544Y-59426784D01*
X63303624Y-59262812D01*
X63269000Y-59088741D01*
X63269000Y-58911259D01*
X63303624Y-58737188D01*
X63371544Y-58573216D01*
X63470147Y-58425646D01*
X63595646Y-58300147D01*
X63743216Y-58201544D01*
X63907188Y-58133624D01*
X64056488Y-58103927D01*
X64081258Y-58099000D01*
X64258742Y-58099000D01*
X64283512Y-58103927D01*
X64283512Y-58103927D01*
G37*
G36*
X101901000Y-59901000D02*
G01*
X100099000Y-59901000D01*
X100099000Y-58099000D01*
X101901000Y-58099000D01*
X101901000Y-59901000D01*
X101901000Y-59901000D01*
G37*
G36*
X124854220Y-57840560D02*
G01*
X122252220Y-57840560D01*
X122252220Y-55238560D01*
X124854220Y-55238560D01*
X124854220Y-57840560D01*
X124854220Y-57840560D01*
G37*
G36*
X64283512Y-55563927D02*
G01*
X64432812Y-55593624D01*
X64596784Y-55661544D01*
X64744354Y-55760147D01*
X64869853Y-55885646D01*
X64968456Y-56033216D01*
X65036376Y-56197188D01*
X65071000Y-56371259D01*
X65071000Y-56548741D01*
X65036376Y-56722812D01*
X64968456Y-56886784D01*
X64869853Y-57034354D01*
X64744354Y-57159853D01*
X64596784Y-57258456D01*
X64432812Y-57326376D01*
X64283512Y-57356073D01*
X64258742Y-57361000D01*
X64081258Y-57361000D01*
X64056488Y-57356073D01*
X63907188Y-57326376D01*
X63743216Y-57258456D01*
X63595646Y-57159853D01*
X63470147Y-57034354D01*
X63371544Y-56886784D01*
X63303624Y-56722812D01*
X63269000Y-56548741D01*
X63269000Y-56371259D01*
X63303624Y-56197188D01*
X63371544Y-56033216D01*
X63470147Y-55885646D01*
X63595646Y-55760147D01*
X63743216Y-55661544D01*
X63907188Y-55593624D01*
X64056488Y-55563927D01*
X64081258Y-55559000D01*
X64258742Y-55559000D01*
X64283512Y-55563927D01*
X64283512Y-55563927D01*
G37*
G36*
X101113512Y-55563927D02*
G01*
X101262812Y-55593624D01*
X101426784Y-55661544D01*
X101574354Y-55760147D01*
X101699853Y-55885646D01*
X101798456Y-56033216D01*
X101866376Y-56197188D01*
X101901000Y-56371259D01*
X101901000Y-56548741D01*
X101866376Y-56722812D01*
X101798456Y-56886784D01*
X101699853Y-57034354D01*
X101574354Y-57159853D01*
X101426784Y-57258456D01*
X101262812Y-57326376D01*
X101113512Y-57356073D01*
X101088742Y-57361000D01*
X100911258Y-57361000D01*
X100886488Y-57356073D01*
X100737188Y-57326376D01*
X100573216Y-57258456D01*
X100425646Y-57159853D01*
X100300147Y-57034354D01*
X100201544Y-56886784D01*
X100133624Y-56722812D01*
X100099000Y-56548741D01*
X100099000Y-56371259D01*
X100133624Y-56197188D01*
X100201544Y-56033216D01*
X100300147Y-55885646D01*
X100425646Y-55760147D01*
X100573216Y-55661544D01*
X100737188Y-55593624D01*
X100886488Y-55563927D01*
X100911258Y-55559000D01*
X101088742Y-55559000D01*
X101113512Y-55563927D01*
X101113512Y-55563927D01*
G37*
G36*
X101113512Y-53023927D02*
G01*
X101262812Y-53053624D01*
X101426784Y-53121544D01*
X101574354Y-53220147D01*
X101699853Y-53345646D01*
X101798456Y-53493216D01*
X101866376Y-53657188D01*
X101901000Y-53831259D01*
X101901000Y-54008741D01*
X101866376Y-54182812D01*
X101798456Y-54346784D01*
X101699853Y-54494354D01*
X101574354Y-54619853D01*
X101426784Y-54718456D01*
X101262812Y-54786376D01*
X101113512Y-54816073D01*
X101088742Y-54821000D01*
X100911258Y-54821000D01*
X100886488Y-54816073D01*
X100737188Y-54786376D01*
X100573216Y-54718456D01*
X100425646Y-54619853D01*
X100300147Y-54494354D01*
X100201544Y-54346784D01*
X100133624Y-54182812D01*
X100099000Y-54008741D01*
X100099000Y-53831259D01*
X100133624Y-53657188D01*
X100201544Y-53493216D01*
X100300147Y-53345646D01*
X100425646Y-53220147D01*
X100573216Y-53121544D01*
X100737188Y-53053624D01*
X100886488Y-53023927D01*
X100911258Y-53019000D01*
X101088742Y-53019000D01*
X101113512Y-53023927D01*
X101113512Y-53023927D01*
G37*
G36*
X64283512Y-53023927D02*
G01*
X64432812Y-53053624D01*
X64596784Y-53121544D01*
X64744354Y-53220147D01*
X64869853Y-53345646D01*
X64968456Y-53493216D01*
X65036376Y-53657188D01*
X65071000Y-53831259D01*
X65071000Y-54008741D01*
X65036376Y-54182812D01*
X64968456Y-54346784D01*
X64869853Y-54494354D01*
X64744354Y-54619853D01*
X64596784Y-54718456D01*
X64432812Y-54786376D01*
X64283512Y-54816073D01*
X64258742Y-54821000D01*
X64081258Y-54821000D01*
X64056488Y-54816073D01*
X63907188Y-54786376D01*
X63743216Y-54718456D01*
X63595646Y-54619853D01*
X63470147Y-54494354D01*
X63371544Y-54346784D01*
X63303624Y-54182812D01*
X63269000Y-54008741D01*
X63269000Y-53831259D01*
X63303624Y-53657188D01*
X63371544Y-53493216D01*
X63470147Y-53345646D01*
X63595646Y-53220147D01*
X63743216Y-53121544D01*
X63907188Y-53053624D01*
X64056488Y-53023927D01*
X64081258Y-53019000D01*
X64258742Y-53019000D01*
X64283512Y-53023927D01*
X64283512Y-53023927D01*
G37*
G36*
X57469264Y-52634189D02*
G01*
X57610020Y-52692492D01*
X57660535Y-52713416D01*
X57832673Y-52828435D01*
X57979065Y-52974827D01*
X58031716Y-53053624D01*
X58094085Y-53146967D01*
X58173311Y-53338236D01*
X58213700Y-53541284D01*
X58213700Y-53748316D01*
X58173311Y-53951364D01*
X58149544Y-54008742D01*
X58094084Y-54142635D01*
X57979065Y-54314773D01*
X57832673Y-54461165D01*
X57660535Y-54576184D01*
X57660534Y-54576185D01*
X57660533Y-54576185D01*
X57469264Y-54655411D01*
X57266216Y-54695800D01*
X57059184Y-54695800D01*
X56856136Y-54655411D01*
X56664867Y-54576185D01*
X56664866Y-54576185D01*
X56664865Y-54576184D01*
X56492727Y-54461165D01*
X56346335Y-54314773D01*
X56231316Y-54142635D01*
X56175856Y-54008742D01*
X56152089Y-53951364D01*
X56111700Y-53748316D01*
X56111700Y-53541284D01*
X56152089Y-53338236D01*
X56231315Y-53146967D01*
X56293685Y-53053624D01*
X56346335Y-52974827D01*
X56492727Y-52828435D01*
X56664865Y-52713416D01*
X56715380Y-52692492D01*
X56856136Y-52634189D01*
X57059184Y-52593800D01*
X57266216Y-52593800D01*
X57469264Y-52634189D01*
X57469264Y-52634189D01*
G37*
G36*
X52969264Y-52634189D02*
G01*
X53110020Y-52692492D01*
X53160535Y-52713416D01*
X53332673Y-52828435D01*
X53479065Y-52974827D01*
X53531716Y-53053624D01*
X53594085Y-53146967D01*
X53673311Y-53338236D01*
X53713700Y-53541284D01*
X53713700Y-53748316D01*
X53673311Y-53951364D01*
X53649544Y-54008742D01*
X53594084Y-54142635D01*
X53479065Y-54314773D01*
X53332673Y-54461165D01*
X53160535Y-54576184D01*
X53160534Y-54576185D01*
X53160533Y-54576185D01*
X52969264Y-54655411D01*
X52766216Y-54695800D01*
X52559184Y-54695800D01*
X52356136Y-54655411D01*
X52164867Y-54576185D01*
X52164866Y-54576185D01*
X52164865Y-54576184D01*
X51992727Y-54461165D01*
X51846335Y-54314773D01*
X51731316Y-54142635D01*
X51675856Y-54008742D01*
X51652089Y-53951364D01*
X51611700Y-53748316D01*
X51611700Y-53541284D01*
X51652089Y-53338236D01*
X51731315Y-53146967D01*
X51793685Y-53053624D01*
X51846335Y-52974827D01*
X51992727Y-52828435D01*
X52164865Y-52713416D01*
X52215380Y-52692492D01*
X52356136Y-52634189D01*
X52559184Y-52593800D01*
X52766216Y-52593800D01*
X52969264Y-52634189D01*
X52969264Y-52634189D01*
G37*
G36*
X123932707Y-50288556D02*
G01*
X124169473Y-50386628D01*
X124169475Y-50386629D01*
X124382559Y-50529007D01*
X124563773Y-50710221D01*
X124627535Y-50805647D01*
X124706152Y-50923307D01*
X124804224Y-51160073D01*
X124854220Y-51411421D01*
X124854220Y-51667699D01*
X124804224Y-51919047D01*
X124706152Y-52155813D01*
X124706151Y-52155815D01*
X124563773Y-52368899D01*
X124382559Y-52550113D01*
X124169475Y-52692491D01*
X124169474Y-52692492D01*
X124169473Y-52692492D01*
X123932707Y-52790564D01*
X123681359Y-52840560D01*
X123425081Y-52840560D01*
X123173733Y-52790564D01*
X122936967Y-52692492D01*
X122936966Y-52692492D01*
X122936965Y-52692491D01*
X122723881Y-52550113D01*
X122542667Y-52368899D01*
X122400289Y-52155815D01*
X122400288Y-52155813D01*
X122302216Y-51919047D01*
X122252220Y-51667699D01*
X122252220Y-51411421D01*
X122302216Y-51160073D01*
X122400288Y-50923307D01*
X122478906Y-50805647D01*
X122542667Y-50710221D01*
X122723881Y-50529007D01*
X122936965Y-50386629D01*
X122936967Y-50386628D01*
X123173733Y-50288556D01*
X123425081Y-50238560D01*
X123681359Y-50238560D01*
X123932707Y-50288556D01*
X123932707Y-50288556D01*
G37*
G36*
X64283512Y-50483927D02*
G01*
X64432812Y-50513624D01*
X64596784Y-50581544D01*
X64744354Y-50680147D01*
X64869853Y-50805646D01*
X64968456Y-50953216D01*
X65036376Y-51117188D01*
X65071000Y-51291259D01*
X65071000Y-51468741D01*
X65036376Y-51642812D01*
X64968456Y-51806784D01*
X64869853Y-51954354D01*
X64744354Y-52079853D01*
X64596784Y-52178456D01*
X64432812Y-52246376D01*
X64283512Y-52276073D01*
X64258742Y-52281000D01*
X64081258Y-52281000D01*
X64056488Y-52276073D01*
X63907188Y-52246376D01*
X63743216Y-52178456D01*
X63595646Y-52079853D01*
X63470147Y-51954354D01*
X63371544Y-51806784D01*
X63303624Y-51642812D01*
X63269000Y-51468741D01*
X63269000Y-51291259D01*
X63303624Y-51117188D01*
X63371544Y-50953216D01*
X63470147Y-50805646D01*
X63595646Y-50680147D01*
X63743216Y-50581544D01*
X63907188Y-50513624D01*
X64056488Y-50483927D01*
X64081258Y-50479000D01*
X64258742Y-50479000D01*
X64283512Y-50483927D01*
X64283512Y-50483927D01*
G37*
G36*
X101113512Y-50483927D02*
G01*
X101262812Y-50513624D01*
X101426784Y-50581544D01*
X101574354Y-50680147D01*
X101699853Y-50805646D01*
X101798456Y-50953216D01*
X101866376Y-51117188D01*
X101901000Y-51291259D01*
X101901000Y-51468741D01*
X101866376Y-51642812D01*
X101798456Y-51806784D01*
X101699853Y-51954354D01*
X101574354Y-52079853D01*
X101426784Y-52178456D01*
X101262812Y-52246376D01*
X101113512Y-52276073D01*
X101088742Y-52281000D01*
X100911258Y-52281000D01*
X100886488Y-52276073D01*
X100737188Y-52246376D01*
X100573216Y-52178456D01*
X100425646Y-52079853D01*
X100300147Y-51954354D01*
X100201544Y-51806784D01*
X100133624Y-51642812D01*
X100099000Y-51468741D01*
X100099000Y-51291259D01*
X100133624Y-51117188D01*
X100201544Y-50953216D01*
X100300147Y-50805646D01*
X100425646Y-50680147D01*
X100573216Y-50581544D01*
X100737188Y-50513624D01*
X100886488Y-50483927D01*
X100911258Y-50479000D01*
X101088742Y-50479000D01*
X101113512Y-50483927D01*
X101113512Y-50483927D01*
G37*
G36*
X101113512Y-47943927D02*
G01*
X101262812Y-47973624D01*
X101426784Y-48041544D01*
X101574354Y-48140147D01*
X101699853Y-48265646D01*
X101798456Y-48413216D01*
X101866376Y-48577188D01*
X101901000Y-48751259D01*
X101901000Y-48928741D01*
X101866376Y-49102812D01*
X101798456Y-49266784D01*
X101699853Y-49414354D01*
X101574354Y-49539853D01*
X101426784Y-49638456D01*
X101262812Y-49706376D01*
X101113512Y-49736073D01*
X101088742Y-49741000D01*
X100911258Y-49741000D01*
X100886488Y-49736073D01*
X100737188Y-49706376D01*
X100573216Y-49638456D01*
X100425646Y-49539853D01*
X100300147Y-49414354D01*
X100201544Y-49266784D01*
X100133624Y-49102812D01*
X100099000Y-48928741D01*
X100099000Y-48751259D01*
X100133624Y-48577188D01*
X100201544Y-48413216D01*
X100300147Y-48265646D01*
X100425646Y-48140147D01*
X100573216Y-48041544D01*
X100737188Y-47973624D01*
X100886488Y-47943927D01*
X100911258Y-47939000D01*
X101088742Y-47939000D01*
X101113512Y-47943927D01*
X101113512Y-47943927D01*
G37*
G36*
X64283512Y-47943927D02*
G01*
X64432812Y-47973624D01*
X64596784Y-48041544D01*
X64744354Y-48140147D01*
X64869853Y-48265646D01*
X64968456Y-48413216D01*
X65036376Y-48577188D01*
X65071000Y-48751259D01*
X65071000Y-48928741D01*
X65036376Y-49102812D01*
X64968456Y-49266784D01*
X64869853Y-49414354D01*
X64744354Y-49539853D01*
X64596784Y-49638456D01*
X64432812Y-49706376D01*
X64283512Y-49736073D01*
X64258742Y-49741000D01*
X64081258Y-49741000D01*
X64056488Y-49736073D01*
X63907188Y-49706376D01*
X63743216Y-49638456D01*
X63595646Y-49539853D01*
X63470147Y-49414354D01*
X63371544Y-49266784D01*
X63303624Y-49102812D01*
X63269000Y-48928741D01*
X63269000Y-48751259D01*
X63303624Y-48577188D01*
X63371544Y-48413216D01*
X63470147Y-48265646D01*
X63595646Y-48140147D01*
X63743216Y-48041544D01*
X63907188Y-47973624D01*
X64056488Y-47943927D01*
X64081258Y-47939000D01*
X64258742Y-47939000D01*
X64283512Y-47943927D01*
X64283512Y-47943927D01*
G37*
G36*
X57301000Y-49301000D02*
G01*
X54699000Y-49301000D01*
X54699000Y-46699000D01*
X57301000Y-46699000D01*
X57301000Y-49301000D01*
X57301000Y-49301000D01*
G37*
G36*
X124854220Y-47737280D02*
G01*
X122252220Y-47737280D01*
X122252220Y-45135280D01*
X124854220Y-45135280D01*
X124854220Y-47737280D01*
X124854220Y-47737280D01*
G37*
G36*
X101113512Y-45403927D02*
G01*
X101262812Y-45433624D01*
X101426784Y-45501544D01*
X101574354Y-45600147D01*
X101699853Y-45725646D01*
X101798456Y-45873216D01*
X101866376Y-46037188D01*
X101901000Y-46211259D01*
X101901000Y-46388741D01*
X101866376Y-46562812D01*
X101798456Y-46726784D01*
X101699853Y-46874354D01*
X101574354Y-46999853D01*
X101426784Y-47098456D01*
X101262812Y-47166376D01*
X101113512Y-47196073D01*
X101088742Y-47201000D01*
X100911258Y-47201000D01*
X100886488Y-47196073D01*
X100737188Y-47166376D01*
X100573216Y-47098456D01*
X100425646Y-46999853D01*
X100300147Y-46874354D01*
X100201544Y-46726784D01*
X100133624Y-46562812D01*
X100099000Y-46388741D01*
X100099000Y-46211259D01*
X100133624Y-46037188D01*
X100201544Y-45873216D01*
X100300147Y-45725646D01*
X100425646Y-45600147D01*
X100573216Y-45501544D01*
X100737188Y-45433624D01*
X100886488Y-45403927D01*
X100911258Y-45399000D01*
X101088742Y-45399000D01*
X101113512Y-45403927D01*
X101113512Y-45403927D01*
G37*
G36*
X64283512Y-45403927D02*
G01*
X64432812Y-45433624D01*
X64596784Y-45501544D01*
X64744354Y-45600147D01*
X64869853Y-45725646D01*
X64968456Y-45873216D01*
X65036376Y-46037188D01*
X65071000Y-46211259D01*
X65071000Y-46388741D01*
X65036376Y-46562812D01*
X64968456Y-46726784D01*
X64869853Y-46874354D01*
X64744354Y-46999853D01*
X64596784Y-47098456D01*
X64432812Y-47166376D01*
X64283512Y-47196073D01*
X64258742Y-47201000D01*
X64081258Y-47201000D01*
X64056488Y-47196073D01*
X63907188Y-47166376D01*
X63743216Y-47098456D01*
X63595646Y-46999853D01*
X63470147Y-46874354D01*
X63371544Y-46726784D01*
X63303624Y-46562812D01*
X63269000Y-46388741D01*
X63269000Y-46211259D01*
X63303624Y-46037188D01*
X63371544Y-45873216D01*
X63470147Y-45725646D01*
X63595646Y-45600147D01*
X63743216Y-45501544D01*
X63907188Y-45433624D01*
X64056488Y-45403927D01*
X64081258Y-45399000D01*
X64258742Y-45399000D01*
X64283512Y-45403927D01*
X64283512Y-45403927D01*
G37*
G36*
X64283512Y-42863927D02*
G01*
X64432812Y-42893624D01*
X64596784Y-42961544D01*
X64744354Y-43060147D01*
X64869853Y-43185646D01*
X64968456Y-43333216D01*
X65036376Y-43497188D01*
X65071000Y-43671259D01*
X65071000Y-43848741D01*
X65036376Y-44022812D01*
X64968456Y-44186784D01*
X64869853Y-44334354D01*
X64744354Y-44459853D01*
X64596784Y-44558456D01*
X64432812Y-44626376D01*
X64283512Y-44656073D01*
X64258742Y-44661000D01*
X64081258Y-44661000D01*
X64056488Y-44656073D01*
X63907188Y-44626376D01*
X63743216Y-44558456D01*
X63595646Y-44459853D01*
X63470147Y-44334354D01*
X63371544Y-44186784D01*
X63303624Y-44022812D01*
X63269000Y-43848741D01*
X63269000Y-43671259D01*
X63303624Y-43497188D01*
X63371544Y-43333216D01*
X63470147Y-43185646D01*
X63595646Y-43060147D01*
X63743216Y-42961544D01*
X63907188Y-42893624D01*
X64056488Y-42863927D01*
X64081258Y-42859000D01*
X64258742Y-42859000D01*
X64283512Y-42863927D01*
X64283512Y-42863927D01*
G37*
G36*
X101113512Y-42863927D02*
G01*
X101262812Y-42893624D01*
X101426784Y-42961544D01*
X101574354Y-43060147D01*
X101699853Y-43185646D01*
X101798456Y-43333216D01*
X101866376Y-43497188D01*
X101901000Y-43671259D01*
X101901000Y-43848741D01*
X101866376Y-44022812D01*
X101798456Y-44186784D01*
X101699853Y-44334354D01*
X101574354Y-44459853D01*
X101426784Y-44558456D01*
X101262812Y-44626376D01*
X101113512Y-44656073D01*
X101088742Y-44661000D01*
X100911258Y-44661000D01*
X100886488Y-44656073D01*
X100737188Y-44626376D01*
X100573216Y-44558456D01*
X100425646Y-44459853D01*
X100300147Y-44334354D01*
X100201544Y-44186784D01*
X100133624Y-44022812D01*
X100099000Y-43848741D01*
X100099000Y-43671259D01*
X100133624Y-43497188D01*
X100201544Y-43333216D01*
X100300147Y-43185646D01*
X100425646Y-43060147D01*
X100573216Y-42961544D01*
X100737188Y-42893624D01*
X100886488Y-42863927D01*
X100911258Y-42859000D01*
X101088742Y-42859000D01*
X101113512Y-42863927D01*
X101113512Y-42863927D01*
G37*
G36*
X56379487Y-41748996D02*
G01*
X56540688Y-41815768D01*
X56616255Y-41847069D01*
X56725184Y-41919853D01*
X56829339Y-41989447D01*
X57010553Y-42170661D01*
X57152932Y-42383747D01*
X57251004Y-42620513D01*
X57301000Y-42871861D01*
X57301000Y-43128139D01*
X57251004Y-43379487D01*
X57202250Y-43497188D01*
X57152931Y-43616255D01*
X57010553Y-43829339D01*
X56829339Y-44010553D01*
X56616255Y-44152931D01*
X56616254Y-44152932D01*
X56616253Y-44152932D01*
X56379487Y-44251004D01*
X56128139Y-44301000D01*
X55871861Y-44301000D01*
X55620513Y-44251004D01*
X55383747Y-44152932D01*
X55383746Y-44152932D01*
X55383745Y-44152931D01*
X55170661Y-44010553D01*
X54989447Y-43829339D01*
X54847069Y-43616255D01*
X54797750Y-43497188D01*
X54748996Y-43379487D01*
X54699000Y-43128139D01*
X54699000Y-42871861D01*
X54748996Y-42620513D01*
X54847068Y-42383747D01*
X54989447Y-42170661D01*
X55170661Y-41989447D01*
X55274816Y-41919853D01*
X55383745Y-41847069D01*
X55459312Y-41815768D01*
X55620513Y-41748996D01*
X55871861Y-41699000D01*
X56128139Y-41699000D01*
X56379487Y-41748996D01*
X56379487Y-41748996D01*
G37*
G36*
X123932707Y-40185276D02*
G01*
X124169473Y-40283348D01*
X124169475Y-40283349D01*
X124376299Y-40421544D01*
X124382559Y-40425727D01*
X124563773Y-40606941D01*
X124706152Y-40820027D01*
X124804224Y-41056793D01*
X124854220Y-41308141D01*
X124854220Y-41564419D01*
X124804224Y-41815767D01*
X124791258Y-41847069D01*
X124706151Y-42052535D01*
X124563773Y-42265619D01*
X124382559Y-42446833D01*
X124169475Y-42589211D01*
X124169474Y-42589212D01*
X124169473Y-42589212D01*
X123932707Y-42687284D01*
X123681359Y-42737280D01*
X123425081Y-42737280D01*
X123173733Y-42687284D01*
X122936967Y-42589212D01*
X122936966Y-42589212D01*
X122936965Y-42589211D01*
X122723881Y-42446833D01*
X122542667Y-42265619D01*
X122400289Y-42052535D01*
X122315182Y-41847069D01*
X122302216Y-41815767D01*
X122252220Y-41564419D01*
X122252220Y-41308141D01*
X122302216Y-41056793D01*
X122400288Y-40820027D01*
X122542667Y-40606941D01*
X122723881Y-40425727D01*
X122730141Y-40421544D01*
X122936965Y-40283349D01*
X122936967Y-40283348D01*
X123173733Y-40185276D01*
X123425081Y-40135280D01*
X123681359Y-40135280D01*
X123932707Y-40185276D01*
X123932707Y-40185276D01*
G37*
G36*
X101113512Y-40323927D02*
G01*
X101262812Y-40353624D01*
X101426784Y-40421544D01*
X101574354Y-40520147D01*
X101699853Y-40645646D01*
X101798456Y-40793216D01*
X101866376Y-40957188D01*
X101901000Y-41131259D01*
X101901000Y-41308741D01*
X101866376Y-41482812D01*
X101798456Y-41646784D01*
X101699853Y-41794354D01*
X101574354Y-41919853D01*
X101426784Y-42018456D01*
X101262812Y-42086376D01*
X101113512Y-42116073D01*
X101088742Y-42121000D01*
X100911258Y-42121000D01*
X100886488Y-42116073D01*
X100737188Y-42086376D01*
X100573216Y-42018456D01*
X100425646Y-41919853D01*
X100300147Y-41794354D01*
X100201544Y-41646784D01*
X100133624Y-41482812D01*
X100099000Y-41308741D01*
X100099000Y-41131259D01*
X100133624Y-40957188D01*
X100201544Y-40793216D01*
X100300147Y-40645646D01*
X100425646Y-40520147D01*
X100573216Y-40421544D01*
X100737188Y-40353624D01*
X100886488Y-40323927D01*
X100911258Y-40319000D01*
X101088742Y-40319000D01*
X101113512Y-40323927D01*
X101113512Y-40323927D01*
G37*
G36*
X64283512Y-40323927D02*
G01*
X64432812Y-40353624D01*
X64596784Y-40421544D01*
X64744354Y-40520147D01*
X64869853Y-40645646D01*
X64968456Y-40793216D01*
X65036376Y-40957188D01*
X65071000Y-41131259D01*
X65071000Y-41308741D01*
X65036376Y-41482812D01*
X64968456Y-41646784D01*
X64869853Y-41794354D01*
X64744354Y-41919853D01*
X64596784Y-42018456D01*
X64432812Y-42086376D01*
X64283512Y-42116073D01*
X64258742Y-42121000D01*
X64081258Y-42121000D01*
X64056488Y-42116073D01*
X63907188Y-42086376D01*
X63743216Y-42018456D01*
X63595646Y-41919853D01*
X63470147Y-41794354D01*
X63371544Y-41646784D01*
X63303624Y-41482812D01*
X63269000Y-41308741D01*
X63269000Y-41131259D01*
X63303624Y-40957188D01*
X63371544Y-40793216D01*
X63470147Y-40645646D01*
X63595646Y-40520147D01*
X63743216Y-40421544D01*
X63907188Y-40353624D01*
X64056488Y-40323927D01*
X64081258Y-40319000D01*
X64258742Y-40319000D01*
X64283512Y-40323927D01*
X64283512Y-40323927D01*
G37*
G36*
X126375256Y-32391298D02*
G01*
X126481579Y-32412447D01*
X126782042Y-32536903D01*
X127052451Y-32717585D01*
X127282415Y-32947549D01*
X127463097Y-33217958D01*
X127581162Y-33502991D01*
X127587553Y-33518422D01*
X127650812Y-33836443D01*
X127651000Y-33837391D01*
X127651000Y-34162609D01*
X127587553Y-34481579D01*
X127463097Y-34782042D01*
X127282415Y-35052451D01*
X127052451Y-35282415D01*
X126782042Y-35463097D01*
X126481579Y-35587553D01*
X126375256Y-35608702D01*
X126162611Y-35651000D01*
X125837389Y-35651000D01*
X125624744Y-35608702D01*
X125518421Y-35587553D01*
X125217958Y-35463097D01*
X124947549Y-35282415D01*
X124717585Y-35052451D01*
X124536903Y-34782042D01*
X124412447Y-34481579D01*
X124349000Y-34162609D01*
X124349000Y-33837391D01*
X124349189Y-33836443D01*
X124412447Y-33518422D01*
X124418839Y-33502991D01*
X124536903Y-33217958D01*
X124717585Y-32947549D01*
X124947549Y-32717585D01*
X125217958Y-32536903D01*
X125518421Y-32412447D01*
X125624744Y-32391298D01*
X125837389Y-32349000D01*
X126162611Y-32349000D01*
X126375256Y-32391298D01*
X126375256Y-32391298D01*
G37*
G36*
X54375256Y-32391298D02*
G01*
X54481579Y-32412447D01*
X54782042Y-32536903D01*
X55052451Y-32717585D01*
X55282415Y-32947549D01*
X55463097Y-33217958D01*
X55581162Y-33502991D01*
X55587553Y-33518422D01*
X55650812Y-33836443D01*
X55651000Y-33837391D01*
X55651000Y-34162609D01*
X55587553Y-34481579D01*
X55463097Y-34782042D01*
X55282415Y-35052451D01*
X55052451Y-35282415D01*
X54782042Y-35463097D01*
X54481579Y-35587553D01*
X54375256Y-35608702D01*
X54162611Y-35651000D01*
X53837389Y-35651000D01*
X53624744Y-35608702D01*
X53518421Y-35587553D01*
X53217958Y-35463097D01*
X52947549Y-35282415D01*
X52717585Y-35052451D01*
X52536903Y-34782042D01*
X52412447Y-34481579D01*
X52349000Y-34162609D01*
X52349000Y-33837391D01*
X52349189Y-33836443D01*
X52412447Y-33518422D01*
X52418839Y-33502991D01*
X52536903Y-33217958D01*
X52717585Y-32947549D01*
X52947549Y-32717585D01*
X53217958Y-32536903D01*
X53518421Y-32412447D01*
X53624744Y-32391298D01*
X53837389Y-32349000D01*
X54162611Y-32349000D01*
X54375256Y-32391298D01*
X54375256Y-32391298D01*
G37*
G36*
X69579443Y-32105519D02*
G01*
X69645627Y-32112037D01*
X69815466Y-32163557D01*
X69971991Y-32247222D01*
X70007729Y-32276552D01*
X70109186Y-32359814D01*
X70192448Y-32461271D01*
X70221778Y-32497009D01*
X70305443Y-32653534D01*
X70356963Y-32823373D01*
X70374359Y-33000000D01*
X70356963Y-33176627D01*
X70305443Y-33346466D01*
X70221778Y-33502991D01*
X70209114Y-33518422D01*
X70109186Y-33640186D01*
X70007729Y-33723448D01*
X69971991Y-33752778D01*
X69815466Y-33836443D01*
X69645627Y-33887963D01*
X69579442Y-33894482D01*
X69513260Y-33901000D01*
X69424740Y-33901000D01*
X69358558Y-33894482D01*
X69292373Y-33887963D01*
X69122534Y-33836443D01*
X68966009Y-33752778D01*
X68930271Y-33723448D01*
X68828814Y-33640186D01*
X68728886Y-33518422D01*
X68716222Y-33502991D01*
X68632557Y-33346466D01*
X68581037Y-33176627D01*
X68563641Y-33000000D01*
X68581037Y-32823373D01*
X68632557Y-32653534D01*
X68716222Y-32497009D01*
X68745552Y-32461271D01*
X68828814Y-32359814D01*
X68930271Y-32276552D01*
X68966009Y-32247222D01*
X69122534Y-32163557D01*
X69292373Y-32112037D01*
X69358557Y-32105519D01*
X69424740Y-32099000D01*
X69513260Y-32099000D01*
X69579443Y-32105519D01*
X69579443Y-32105519D01*
G37*
G36*
X62750000Y-33901000D02*
G01*
X60948000Y-33901000D01*
X60948000Y-32099000D01*
X62750000Y-32099000D01*
X62750000Y-33901000D01*
X62750000Y-33901000D01*
G37*
G36*
X78038760Y-33901000D02*
G01*
X76236760Y-33901000D01*
X76236760Y-32099000D01*
X78038760Y-32099000D01*
X78038760Y-33901000D01*
X78038760Y-33901000D01*
G37*
G36*
X79788203Y-32105519D02*
G01*
X79854387Y-32112037D01*
X80024226Y-32163557D01*
X80180751Y-32247222D01*
X80216489Y-32276552D01*
X80317946Y-32359814D01*
X80401208Y-32461271D01*
X80430538Y-32497009D01*
X80514203Y-32653534D01*
X80565723Y-32823373D01*
X80583119Y-33000000D01*
X80565723Y-33176627D01*
X80514203Y-33346466D01*
X80430538Y-33502991D01*
X80417874Y-33518422D01*
X80317946Y-33640186D01*
X80216489Y-33723448D01*
X80180751Y-33752778D01*
X80024226Y-33836443D01*
X79854387Y-33887963D01*
X79788202Y-33894482D01*
X79722020Y-33901000D01*
X79633500Y-33901000D01*
X79567318Y-33894482D01*
X79501133Y-33887963D01*
X79331294Y-33836443D01*
X79174769Y-33752778D01*
X79139031Y-33723448D01*
X79037574Y-33640186D01*
X78937646Y-33518422D01*
X78924982Y-33502991D01*
X78841317Y-33346466D01*
X78789797Y-33176627D01*
X78772401Y-33000000D01*
X78789797Y-32823373D01*
X78841317Y-32653534D01*
X78924982Y-32497009D01*
X78954312Y-32461271D01*
X79037574Y-32359814D01*
X79139031Y-32276552D01*
X79174769Y-32247222D01*
X79331294Y-32163557D01*
X79501133Y-32112037D01*
X79567317Y-32105519D01*
X79633500Y-32099000D01*
X79722020Y-32099000D01*
X79788203Y-32105519D01*
X79788203Y-32105519D01*
G37*
G36*
X82328203Y-32105519D02*
G01*
X82394387Y-32112037D01*
X82564226Y-32163557D01*
X82720751Y-32247222D01*
X82756489Y-32276552D01*
X82857946Y-32359814D01*
X82941208Y-32461271D01*
X82970538Y-32497009D01*
X83054203Y-32653534D01*
X83105723Y-32823373D01*
X83123119Y-33000000D01*
X83105723Y-33176627D01*
X83054203Y-33346466D01*
X82970538Y-33502991D01*
X82957874Y-33518422D01*
X82857946Y-33640186D01*
X82756489Y-33723448D01*
X82720751Y-33752778D01*
X82564226Y-33836443D01*
X82394387Y-33887963D01*
X82328202Y-33894482D01*
X82262020Y-33901000D01*
X82173500Y-33901000D01*
X82107318Y-33894482D01*
X82041133Y-33887963D01*
X81871294Y-33836443D01*
X81714769Y-33752778D01*
X81679031Y-33723448D01*
X81577574Y-33640186D01*
X81477646Y-33518422D01*
X81464982Y-33502991D01*
X81381317Y-33346466D01*
X81329797Y-33176627D01*
X81312401Y-33000000D01*
X81329797Y-32823373D01*
X81381317Y-32653534D01*
X81464982Y-32497009D01*
X81494312Y-32461271D01*
X81577574Y-32359814D01*
X81679031Y-32276552D01*
X81714769Y-32247222D01*
X81871294Y-32163557D01*
X82041133Y-32112037D01*
X82107317Y-32105519D01*
X82173500Y-32099000D01*
X82262020Y-32099000D01*
X82328203Y-32105519D01*
X82328203Y-32105519D01*
G37*
G36*
X84868203Y-32105519D02*
G01*
X84934387Y-32112037D01*
X85104226Y-32163557D01*
X85260751Y-32247222D01*
X85296489Y-32276552D01*
X85397946Y-32359814D01*
X85481208Y-32461271D01*
X85510538Y-32497009D01*
X85594203Y-32653534D01*
X85645723Y-32823373D01*
X85663119Y-33000000D01*
X85645723Y-33176627D01*
X85594203Y-33346466D01*
X85510538Y-33502991D01*
X85497874Y-33518422D01*
X85397946Y-33640186D01*
X85296489Y-33723448D01*
X85260751Y-33752778D01*
X85104226Y-33836443D01*
X84934387Y-33887963D01*
X84868202Y-33894482D01*
X84802020Y-33901000D01*
X84713500Y-33901000D01*
X84647318Y-33894482D01*
X84581133Y-33887963D01*
X84411294Y-33836443D01*
X84254769Y-33752778D01*
X84219031Y-33723448D01*
X84117574Y-33640186D01*
X84017646Y-33518422D01*
X84004982Y-33502991D01*
X83921317Y-33346466D01*
X83869797Y-33176627D01*
X83852401Y-33000000D01*
X83869797Y-32823373D01*
X83921317Y-32653534D01*
X84004982Y-32497009D01*
X84034312Y-32461271D01*
X84117574Y-32359814D01*
X84219031Y-32276552D01*
X84254769Y-32247222D01*
X84411294Y-32163557D01*
X84581133Y-32112037D01*
X84647317Y-32105519D01*
X84713500Y-32099000D01*
X84802020Y-32099000D01*
X84868203Y-32105519D01*
X84868203Y-32105519D01*
G37*
G36*
X87408203Y-32105519D02*
G01*
X87474387Y-32112037D01*
X87644226Y-32163557D01*
X87800751Y-32247222D01*
X87836489Y-32276552D01*
X87937946Y-32359814D01*
X88021208Y-32461271D01*
X88050538Y-32497009D01*
X88134203Y-32653534D01*
X88185723Y-32823373D01*
X88203119Y-33000000D01*
X88185723Y-33176627D01*
X88134203Y-33346466D01*
X88050538Y-33502991D01*
X88037874Y-33518422D01*
X87937946Y-33640186D01*
X87836489Y-33723448D01*
X87800751Y-33752778D01*
X87644226Y-33836443D01*
X87474387Y-33887963D01*
X87408202Y-33894482D01*
X87342020Y-33901000D01*
X87253500Y-33901000D01*
X87187318Y-33894482D01*
X87121133Y-33887963D01*
X86951294Y-33836443D01*
X86794769Y-33752778D01*
X86759031Y-33723448D01*
X86657574Y-33640186D01*
X86557646Y-33518422D01*
X86544982Y-33502991D01*
X86461317Y-33346466D01*
X86409797Y-33176627D01*
X86392401Y-33000000D01*
X86409797Y-32823373D01*
X86461317Y-32653534D01*
X86544982Y-32497009D01*
X86574312Y-32461271D01*
X86657574Y-32359814D01*
X86759031Y-32276552D01*
X86794769Y-32247222D01*
X86951294Y-32163557D01*
X87121133Y-32112037D01*
X87187317Y-32105519D01*
X87253500Y-32099000D01*
X87342020Y-32099000D01*
X87408203Y-32105519D01*
X87408203Y-32105519D01*
G37*
G36*
X89948203Y-32105519D02*
G01*
X90014387Y-32112037D01*
X90184226Y-32163557D01*
X90340751Y-32247222D01*
X90376489Y-32276552D01*
X90477946Y-32359814D01*
X90561208Y-32461271D01*
X90590538Y-32497009D01*
X90674203Y-32653534D01*
X90725723Y-32823373D01*
X90743119Y-33000000D01*
X90725723Y-33176627D01*
X90674203Y-33346466D01*
X90590538Y-33502991D01*
X90577874Y-33518422D01*
X90477946Y-33640186D01*
X90376489Y-33723448D01*
X90340751Y-33752778D01*
X90184226Y-33836443D01*
X90014387Y-33887963D01*
X89948202Y-33894482D01*
X89882020Y-33901000D01*
X89793500Y-33901000D01*
X89727318Y-33894482D01*
X89661133Y-33887963D01*
X89491294Y-33836443D01*
X89334769Y-33752778D01*
X89299031Y-33723448D01*
X89197574Y-33640186D01*
X89097646Y-33518422D01*
X89084982Y-33502991D01*
X89001317Y-33346466D01*
X88949797Y-33176627D01*
X88932401Y-33000000D01*
X88949797Y-32823373D01*
X89001317Y-32653534D01*
X89084982Y-32497009D01*
X89114312Y-32461271D01*
X89197574Y-32359814D01*
X89299031Y-32276552D01*
X89334769Y-32247222D01*
X89491294Y-32163557D01*
X89661133Y-32112037D01*
X89727317Y-32105519D01*
X89793500Y-32099000D01*
X89882020Y-32099000D01*
X89948203Y-32105519D01*
X89948203Y-32105519D01*
G37*
G36*
X92488203Y-32105519D02*
G01*
X92554387Y-32112037D01*
X92724226Y-32163557D01*
X92880751Y-32247222D01*
X92916489Y-32276552D01*
X93017946Y-32359814D01*
X93101208Y-32461271D01*
X93130538Y-32497009D01*
X93214203Y-32653534D01*
X93265723Y-32823373D01*
X93283119Y-33000000D01*
X93265723Y-33176627D01*
X93214203Y-33346466D01*
X93130538Y-33502991D01*
X93117874Y-33518422D01*
X93017946Y-33640186D01*
X92916489Y-33723448D01*
X92880751Y-33752778D01*
X92724226Y-33836443D01*
X92554387Y-33887963D01*
X92488202Y-33894482D01*
X92422020Y-33901000D01*
X92333500Y-33901000D01*
X92267318Y-33894482D01*
X92201133Y-33887963D01*
X92031294Y-33836443D01*
X91874769Y-33752778D01*
X91839031Y-33723448D01*
X91737574Y-33640186D01*
X91637646Y-33518422D01*
X91624982Y-33502991D01*
X91541317Y-33346466D01*
X91489797Y-33176627D01*
X91472401Y-33000000D01*
X91489797Y-32823373D01*
X91541317Y-32653534D01*
X91624982Y-32497009D01*
X91654312Y-32461271D01*
X91737574Y-32359814D01*
X91839031Y-32276552D01*
X91874769Y-32247222D01*
X92031294Y-32163557D01*
X92201133Y-32112037D01*
X92267317Y-32105519D01*
X92333500Y-32099000D01*
X92422020Y-32099000D01*
X92488203Y-32105519D01*
X92488203Y-32105519D01*
G37*
G36*
X95028203Y-32105519D02*
G01*
X95094387Y-32112037D01*
X95264226Y-32163557D01*
X95420751Y-32247222D01*
X95456489Y-32276552D01*
X95557946Y-32359814D01*
X95641208Y-32461271D01*
X95670538Y-32497009D01*
X95754203Y-32653534D01*
X95805723Y-32823373D01*
X95823119Y-33000000D01*
X95805723Y-33176627D01*
X95754203Y-33346466D01*
X95670538Y-33502991D01*
X95657874Y-33518422D01*
X95557946Y-33640186D01*
X95456489Y-33723448D01*
X95420751Y-33752778D01*
X95264226Y-33836443D01*
X95094387Y-33887963D01*
X95028202Y-33894482D01*
X94962020Y-33901000D01*
X94873500Y-33901000D01*
X94807318Y-33894482D01*
X94741133Y-33887963D01*
X94571294Y-33836443D01*
X94414769Y-33752778D01*
X94379031Y-33723448D01*
X94277574Y-33640186D01*
X94177646Y-33518422D01*
X94164982Y-33502991D01*
X94081317Y-33346466D01*
X94029797Y-33176627D01*
X94012401Y-33000000D01*
X94029797Y-32823373D01*
X94081317Y-32653534D01*
X94164982Y-32497009D01*
X94194312Y-32461271D01*
X94277574Y-32359814D01*
X94379031Y-32276552D01*
X94414769Y-32247222D01*
X94571294Y-32163557D01*
X94741133Y-32112037D01*
X94807317Y-32105519D01*
X94873500Y-32099000D01*
X94962020Y-32099000D01*
X95028203Y-32105519D01*
X95028203Y-32105519D01*
G37*
G36*
X67039443Y-32105519D02*
G01*
X67105627Y-32112037D01*
X67275466Y-32163557D01*
X67431991Y-32247222D01*
X67467729Y-32276552D01*
X67569186Y-32359814D01*
X67652448Y-32461271D01*
X67681778Y-32497009D01*
X67765443Y-32653534D01*
X67816963Y-32823373D01*
X67834359Y-33000000D01*
X67816963Y-33176627D01*
X67765443Y-33346466D01*
X67681778Y-33502991D01*
X67669114Y-33518422D01*
X67569186Y-33640186D01*
X67467729Y-33723448D01*
X67431991Y-33752778D01*
X67275466Y-33836443D01*
X67105627Y-33887963D01*
X67039442Y-33894482D01*
X66973260Y-33901000D01*
X66884740Y-33901000D01*
X66818558Y-33894482D01*
X66752373Y-33887963D01*
X66582534Y-33836443D01*
X66426009Y-33752778D01*
X66390271Y-33723448D01*
X66288814Y-33640186D01*
X66188886Y-33518422D01*
X66176222Y-33502991D01*
X66092557Y-33346466D01*
X66041037Y-33176627D01*
X66023641Y-33000000D01*
X66041037Y-32823373D01*
X66092557Y-32653534D01*
X66176222Y-32497009D01*
X66205552Y-32461271D01*
X66288814Y-32359814D01*
X66390271Y-32276552D01*
X66426009Y-32247222D01*
X66582534Y-32163557D01*
X66752373Y-32112037D01*
X66818557Y-32105519D01*
X66884740Y-32099000D01*
X66973260Y-32099000D01*
X67039443Y-32105519D01*
X67039443Y-32105519D01*
G37*
G36*
X64499443Y-32105519D02*
G01*
X64565627Y-32112037D01*
X64735466Y-32163557D01*
X64891991Y-32247222D01*
X64927729Y-32276552D01*
X65029186Y-32359814D01*
X65112448Y-32461271D01*
X65141778Y-32497009D01*
X65225443Y-32653534D01*
X65276963Y-32823373D01*
X65294359Y-33000000D01*
X65276963Y-33176627D01*
X65225443Y-33346466D01*
X65141778Y-33502991D01*
X65129114Y-33518422D01*
X65029186Y-33640186D01*
X64927729Y-33723448D01*
X64891991Y-33752778D01*
X64735466Y-33836443D01*
X64565627Y-33887963D01*
X64499442Y-33894482D01*
X64433260Y-33901000D01*
X64344740Y-33901000D01*
X64278558Y-33894482D01*
X64212373Y-33887963D01*
X64042534Y-33836443D01*
X63886009Y-33752778D01*
X63850271Y-33723448D01*
X63748814Y-33640186D01*
X63648886Y-33518422D01*
X63636222Y-33502991D01*
X63552557Y-33346466D01*
X63501037Y-33176627D01*
X63483641Y-33000000D01*
X63501037Y-32823373D01*
X63552557Y-32653534D01*
X63636222Y-32497009D01*
X63665552Y-32461271D01*
X63748814Y-32359814D01*
X63850271Y-32276552D01*
X63886009Y-32247222D01*
X64042534Y-32163557D01*
X64212373Y-32112037D01*
X64278557Y-32105519D01*
X64344740Y-32099000D01*
X64433260Y-32099000D01*
X64499443Y-32105519D01*
X64499443Y-32105519D01*
G37*
M02*
