G04 #@! TF.GenerationSoftware,KiCad,Pcbnew,5.1.2*
G04 #@! TF.CreationDate,2019-07-01T14:10:27+02:00*
G04 #@! TF.ProjectId,pcb,7063622e-6b69-4636-9164-5f7063625858,rev?*
G04 #@! TF.SameCoordinates,Original*
G04 #@! TF.FileFunction,Paste,Top*
G04 #@! TF.FilePolarity,Positive*
%FSLAX46Y46*%
G04 Gerber Fmt 4.6, Leading zero omitted, Abs format (unit mm)*
G04 Created by KiCad (PCBNEW 5.1.2) date 2019-07-01 14:10:27*
%MOMM*%
%LPD*%
G04 APERTURE LIST*
%ADD10C,0.100000*%
%ADD11C,1.150000*%
%ADD12C,0.300000*%
%ADD13R,0.450000X1.750000*%
%ADD14C,0.600000*%
%ADD15R,1.430000X2.850000*%
G04 APERTURE END LIST*
D10*
G36*
X74466705Y-45148204D02*
G01*
X74490973Y-45151804D01*
X74514772Y-45157765D01*
X74537871Y-45166030D01*
X74560050Y-45176520D01*
X74581093Y-45189132D01*
X74600799Y-45203747D01*
X74618977Y-45220223D01*
X74635453Y-45238401D01*
X74650068Y-45258107D01*
X74662680Y-45279150D01*
X74673170Y-45301329D01*
X74681435Y-45324428D01*
X74687396Y-45348227D01*
X74690996Y-45372495D01*
X74692200Y-45396999D01*
X74692200Y-46297001D01*
X74690996Y-46321505D01*
X74687396Y-46345773D01*
X74681435Y-46369572D01*
X74673170Y-46392671D01*
X74662680Y-46414850D01*
X74650068Y-46435893D01*
X74635453Y-46455599D01*
X74618977Y-46473777D01*
X74600799Y-46490253D01*
X74581093Y-46504868D01*
X74560050Y-46517480D01*
X74537871Y-46527970D01*
X74514772Y-46536235D01*
X74490973Y-46542196D01*
X74466705Y-46545796D01*
X74442201Y-46547000D01*
X73792199Y-46547000D01*
X73767695Y-46545796D01*
X73743427Y-46542196D01*
X73719628Y-46536235D01*
X73696529Y-46527970D01*
X73674350Y-46517480D01*
X73653307Y-46504868D01*
X73633601Y-46490253D01*
X73615423Y-46473777D01*
X73598947Y-46455599D01*
X73584332Y-46435893D01*
X73571720Y-46414850D01*
X73561230Y-46392671D01*
X73552965Y-46369572D01*
X73547004Y-46345773D01*
X73543404Y-46321505D01*
X73542200Y-46297001D01*
X73542200Y-45396999D01*
X73543404Y-45372495D01*
X73547004Y-45348227D01*
X73552965Y-45324428D01*
X73561230Y-45301329D01*
X73571720Y-45279150D01*
X73584332Y-45258107D01*
X73598947Y-45238401D01*
X73615423Y-45220223D01*
X73633601Y-45203747D01*
X73653307Y-45189132D01*
X73674350Y-45176520D01*
X73696529Y-45166030D01*
X73719628Y-45157765D01*
X73743427Y-45151804D01*
X73767695Y-45148204D01*
X73792199Y-45147000D01*
X74442201Y-45147000D01*
X74466705Y-45148204D01*
X74466705Y-45148204D01*
G37*
D11*
X74117200Y-45847000D03*
D10*
G36*
X72416705Y-45148204D02*
G01*
X72440973Y-45151804D01*
X72464772Y-45157765D01*
X72487871Y-45166030D01*
X72510050Y-45176520D01*
X72531093Y-45189132D01*
X72550799Y-45203747D01*
X72568977Y-45220223D01*
X72585453Y-45238401D01*
X72600068Y-45258107D01*
X72612680Y-45279150D01*
X72623170Y-45301329D01*
X72631435Y-45324428D01*
X72637396Y-45348227D01*
X72640996Y-45372495D01*
X72642200Y-45396999D01*
X72642200Y-46297001D01*
X72640996Y-46321505D01*
X72637396Y-46345773D01*
X72631435Y-46369572D01*
X72623170Y-46392671D01*
X72612680Y-46414850D01*
X72600068Y-46435893D01*
X72585453Y-46455599D01*
X72568977Y-46473777D01*
X72550799Y-46490253D01*
X72531093Y-46504868D01*
X72510050Y-46517480D01*
X72487871Y-46527970D01*
X72464772Y-46536235D01*
X72440973Y-46542196D01*
X72416705Y-46545796D01*
X72392201Y-46547000D01*
X71742199Y-46547000D01*
X71717695Y-46545796D01*
X71693427Y-46542196D01*
X71669628Y-46536235D01*
X71646529Y-46527970D01*
X71624350Y-46517480D01*
X71603307Y-46504868D01*
X71583601Y-46490253D01*
X71565423Y-46473777D01*
X71548947Y-46455599D01*
X71534332Y-46435893D01*
X71521720Y-46414850D01*
X71511230Y-46392671D01*
X71502965Y-46369572D01*
X71497004Y-46345773D01*
X71493404Y-46321505D01*
X71492200Y-46297001D01*
X71492200Y-45396999D01*
X71493404Y-45372495D01*
X71497004Y-45348227D01*
X71502965Y-45324428D01*
X71511230Y-45301329D01*
X71521720Y-45279150D01*
X71534332Y-45258107D01*
X71548947Y-45238401D01*
X71565423Y-45220223D01*
X71583601Y-45203747D01*
X71603307Y-45189132D01*
X71624350Y-45176520D01*
X71646529Y-45166030D01*
X71669628Y-45157765D01*
X71693427Y-45151804D01*
X71717695Y-45148204D01*
X71742199Y-45147000D01*
X72392201Y-45147000D01*
X72416705Y-45148204D01*
X72416705Y-45148204D01*
G37*
D11*
X72067200Y-45847000D03*
D10*
G36*
X71807105Y-50558404D02*
G01*
X71831373Y-50562004D01*
X71855172Y-50567965D01*
X71878271Y-50576230D01*
X71900450Y-50586720D01*
X71921493Y-50599332D01*
X71941199Y-50613947D01*
X71959377Y-50630423D01*
X71975853Y-50648601D01*
X71990468Y-50668307D01*
X72003080Y-50689350D01*
X72013570Y-50711529D01*
X72021835Y-50734628D01*
X72027796Y-50758427D01*
X72031396Y-50782695D01*
X72032600Y-50807199D01*
X72032600Y-51707201D01*
X72031396Y-51731705D01*
X72027796Y-51755973D01*
X72021835Y-51779772D01*
X72013570Y-51802871D01*
X72003080Y-51825050D01*
X71990468Y-51846093D01*
X71975853Y-51865799D01*
X71959377Y-51883977D01*
X71941199Y-51900453D01*
X71921493Y-51915068D01*
X71900450Y-51927680D01*
X71878271Y-51938170D01*
X71855172Y-51946435D01*
X71831373Y-51952396D01*
X71807105Y-51955996D01*
X71782601Y-51957200D01*
X71132599Y-51957200D01*
X71108095Y-51955996D01*
X71083827Y-51952396D01*
X71060028Y-51946435D01*
X71036929Y-51938170D01*
X71014750Y-51927680D01*
X70993707Y-51915068D01*
X70974001Y-51900453D01*
X70955823Y-51883977D01*
X70939347Y-51865799D01*
X70924732Y-51846093D01*
X70912120Y-51825050D01*
X70901630Y-51802871D01*
X70893365Y-51779772D01*
X70887404Y-51755973D01*
X70883804Y-51731705D01*
X70882600Y-51707201D01*
X70882600Y-50807199D01*
X70883804Y-50782695D01*
X70887404Y-50758427D01*
X70893365Y-50734628D01*
X70901630Y-50711529D01*
X70912120Y-50689350D01*
X70924732Y-50668307D01*
X70939347Y-50648601D01*
X70955823Y-50630423D01*
X70974001Y-50613947D01*
X70993707Y-50599332D01*
X71014750Y-50586720D01*
X71036929Y-50576230D01*
X71060028Y-50567965D01*
X71083827Y-50562004D01*
X71108095Y-50558404D01*
X71132599Y-50557200D01*
X71782601Y-50557200D01*
X71807105Y-50558404D01*
X71807105Y-50558404D01*
G37*
D11*
X71457600Y-51257200D03*
D10*
G36*
X73857105Y-50558404D02*
G01*
X73881373Y-50562004D01*
X73905172Y-50567965D01*
X73928271Y-50576230D01*
X73950450Y-50586720D01*
X73971493Y-50599332D01*
X73991199Y-50613947D01*
X74009377Y-50630423D01*
X74025853Y-50648601D01*
X74040468Y-50668307D01*
X74053080Y-50689350D01*
X74063570Y-50711529D01*
X74071835Y-50734628D01*
X74077796Y-50758427D01*
X74081396Y-50782695D01*
X74082600Y-50807199D01*
X74082600Y-51707201D01*
X74081396Y-51731705D01*
X74077796Y-51755973D01*
X74071835Y-51779772D01*
X74063570Y-51802871D01*
X74053080Y-51825050D01*
X74040468Y-51846093D01*
X74025853Y-51865799D01*
X74009377Y-51883977D01*
X73991199Y-51900453D01*
X73971493Y-51915068D01*
X73950450Y-51927680D01*
X73928271Y-51938170D01*
X73905172Y-51946435D01*
X73881373Y-51952396D01*
X73857105Y-51955996D01*
X73832601Y-51957200D01*
X73182599Y-51957200D01*
X73158095Y-51955996D01*
X73133827Y-51952396D01*
X73110028Y-51946435D01*
X73086929Y-51938170D01*
X73064750Y-51927680D01*
X73043707Y-51915068D01*
X73024001Y-51900453D01*
X73005823Y-51883977D01*
X72989347Y-51865799D01*
X72974732Y-51846093D01*
X72962120Y-51825050D01*
X72951630Y-51802871D01*
X72943365Y-51779772D01*
X72937404Y-51755973D01*
X72933804Y-51731705D01*
X72932600Y-51707201D01*
X72932600Y-50807199D01*
X72933804Y-50782695D01*
X72937404Y-50758427D01*
X72943365Y-50734628D01*
X72951630Y-50711529D01*
X72962120Y-50689350D01*
X72974732Y-50668307D01*
X72989347Y-50648601D01*
X73005823Y-50630423D01*
X73024001Y-50613947D01*
X73043707Y-50599332D01*
X73064750Y-50586720D01*
X73086929Y-50576230D01*
X73110028Y-50567965D01*
X73133827Y-50562004D01*
X73158095Y-50558404D01*
X73182599Y-50557200D01*
X73832601Y-50557200D01*
X73857105Y-50558404D01*
X73857105Y-50558404D01*
G37*
D11*
X73507600Y-51257200D03*
D10*
G36*
X84904105Y-56093604D02*
G01*
X84928373Y-56097204D01*
X84952172Y-56103165D01*
X84975271Y-56111430D01*
X84997450Y-56121920D01*
X85018493Y-56134532D01*
X85038199Y-56149147D01*
X85056377Y-56165623D01*
X85072853Y-56183801D01*
X85087468Y-56203507D01*
X85100080Y-56224550D01*
X85110570Y-56246729D01*
X85118835Y-56269828D01*
X85124796Y-56293627D01*
X85128396Y-56317895D01*
X85129600Y-56342399D01*
X85129600Y-56992401D01*
X85128396Y-57016905D01*
X85124796Y-57041173D01*
X85118835Y-57064972D01*
X85110570Y-57088071D01*
X85100080Y-57110250D01*
X85087468Y-57131293D01*
X85072853Y-57150999D01*
X85056377Y-57169177D01*
X85038199Y-57185653D01*
X85018493Y-57200268D01*
X84997450Y-57212880D01*
X84975271Y-57223370D01*
X84952172Y-57231635D01*
X84928373Y-57237596D01*
X84904105Y-57241196D01*
X84879601Y-57242400D01*
X83979599Y-57242400D01*
X83955095Y-57241196D01*
X83930827Y-57237596D01*
X83907028Y-57231635D01*
X83883929Y-57223370D01*
X83861750Y-57212880D01*
X83840707Y-57200268D01*
X83821001Y-57185653D01*
X83802823Y-57169177D01*
X83786347Y-57150999D01*
X83771732Y-57131293D01*
X83759120Y-57110250D01*
X83748630Y-57088071D01*
X83740365Y-57064972D01*
X83734404Y-57041173D01*
X83730804Y-57016905D01*
X83729600Y-56992401D01*
X83729600Y-56342399D01*
X83730804Y-56317895D01*
X83734404Y-56293627D01*
X83740365Y-56269828D01*
X83748630Y-56246729D01*
X83759120Y-56224550D01*
X83771732Y-56203507D01*
X83786347Y-56183801D01*
X83802823Y-56165623D01*
X83821001Y-56149147D01*
X83840707Y-56134532D01*
X83861750Y-56121920D01*
X83883929Y-56111430D01*
X83907028Y-56103165D01*
X83930827Y-56097204D01*
X83955095Y-56093604D01*
X83979599Y-56092400D01*
X84879601Y-56092400D01*
X84904105Y-56093604D01*
X84904105Y-56093604D01*
G37*
D11*
X84429600Y-56667400D03*
D10*
G36*
X84904105Y-58143604D02*
G01*
X84928373Y-58147204D01*
X84952172Y-58153165D01*
X84975271Y-58161430D01*
X84997450Y-58171920D01*
X85018493Y-58184532D01*
X85038199Y-58199147D01*
X85056377Y-58215623D01*
X85072853Y-58233801D01*
X85087468Y-58253507D01*
X85100080Y-58274550D01*
X85110570Y-58296729D01*
X85118835Y-58319828D01*
X85124796Y-58343627D01*
X85128396Y-58367895D01*
X85129600Y-58392399D01*
X85129600Y-59042401D01*
X85128396Y-59066905D01*
X85124796Y-59091173D01*
X85118835Y-59114972D01*
X85110570Y-59138071D01*
X85100080Y-59160250D01*
X85087468Y-59181293D01*
X85072853Y-59200999D01*
X85056377Y-59219177D01*
X85038199Y-59235653D01*
X85018493Y-59250268D01*
X84997450Y-59262880D01*
X84975271Y-59273370D01*
X84952172Y-59281635D01*
X84928373Y-59287596D01*
X84904105Y-59291196D01*
X84879601Y-59292400D01*
X83979599Y-59292400D01*
X83955095Y-59291196D01*
X83930827Y-59287596D01*
X83907028Y-59281635D01*
X83883929Y-59273370D01*
X83861750Y-59262880D01*
X83840707Y-59250268D01*
X83821001Y-59235653D01*
X83802823Y-59219177D01*
X83786347Y-59200999D01*
X83771732Y-59181293D01*
X83759120Y-59160250D01*
X83748630Y-59138071D01*
X83740365Y-59114972D01*
X83734404Y-59091173D01*
X83730804Y-59066905D01*
X83729600Y-59042401D01*
X83729600Y-58392399D01*
X83730804Y-58367895D01*
X83734404Y-58343627D01*
X83740365Y-58319828D01*
X83748630Y-58296729D01*
X83759120Y-58274550D01*
X83771732Y-58253507D01*
X83786347Y-58233801D01*
X83802823Y-58215623D01*
X83821001Y-58199147D01*
X83840707Y-58184532D01*
X83861750Y-58171920D01*
X83883929Y-58161430D01*
X83907028Y-58153165D01*
X83930827Y-58147204D01*
X83955095Y-58143604D01*
X83979599Y-58142400D01*
X84879601Y-58142400D01*
X84904105Y-58143604D01*
X84904105Y-58143604D01*
G37*
D11*
X84429600Y-58717400D03*
D10*
G36*
X90149505Y-45801204D02*
G01*
X90173773Y-45804804D01*
X90197572Y-45810765D01*
X90220671Y-45819030D01*
X90242850Y-45829520D01*
X90263893Y-45842132D01*
X90283599Y-45856747D01*
X90301777Y-45873223D01*
X90318253Y-45891401D01*
X90332868Y-45911107D01*
X90345480Y-45932150D01*
X90355970Y-45954329D01*
X90364235Y-45977428D01*
X90370196Y-46001227D01*
X90373796Y-46025495D01*
X90375000Y-46049999D01*
X90375000Y-46950001D01*
X90373796Y-46974505D01*
X90370196Y-46998773D01*
X90364235Y-47022572D01*
X90355970Y-47045671D01*
X90345480Y-47067850D01*
X90332868Y-47088893D01*
X90318253Y-47108599D01*
X90301777Y-47126777D01*
X90283599Y-47143253D01*
X90263893Y-47157868D01*
X90242850Y-47170480D01*
X90220671Y-47180970D01*
X90197572Y-47189235D01*
X90173773Y-47195196D01*
X90149505Y-47198796D01*
X90125001Y-47200000D01*
X89474999Y-47200000D01*
X89450495Y-47198796D01*
X89426227Y-47195196D01*
X89402428Y-47189235D01*
X89379329Y-47180970D01*
X89357150Y-47170480D01*
X89336107Y-47157868D01*
X89316401Y-47143253D01*
X89298223Y-47126777D01*
X89281747Y-47108599D01*
X89267132Y-47088893D01*
X89254520Y-47067850D01*
X89244030Y-47045671D01*
X89235765Y-47022572D01*
X89229804Y-46998773D01*
X89226204Y-46974505D01*
X89225000Y-46950001D01*
X89225000Y-46049999D01*
X89226204Y-46025495D01*
X89229804Y-46001227D01*
X89235765Y-45977428D01*
X89244030Y-45954329D01*
X89254520Y-45932150D01*
X89267132Y-45911107D01*
X89281747Y-45891401D01*
X89298223Y-45873223D01*
X89316401Y-45856747D01*
X89336107Y-45842132D01*
X89357150Y-45829520D01*
X89379329Y-45819030D01*
X89402428Y-45810765D01*
X89426227Y-45804804D01*
X89450495Y-45801204D01*
X89474999Y-45800000D01*
X90125001Y-45800000D01*
X90149505Y-45801204D01*
X90149505Y-45801204D01*
G37*
D11*
X89800000Y-46500000D03*
D10*
G36*
X88099505Y-45801204D02*
G01*
X88123773Y-45804804D01*
X88147572Y-45810765D01*
X88170671Y-45819030D01*
X88192850Y-45829520D01*
X88213893Y-45842132D01*
X88233599Y-45856747D01*
X88251777Y-45873223D01*
X88268253Y-45891401D01*
X88282868Y-45911107D01*
X88295480Y-45932150D01*
X88305970Y-45954329D01*
X88314235Y-45977428D01*
X88320196Y-46001227D01*
X88323796Y-46025495D01*
X88325000Y-46049999D01*
X88325000Y-46950001D01*
X88323796Y-46974505D01*
X88320196Y-46998773D01*
X88314235Y-47022572D01*
X88305970Y-47045671D01*
X88295480Y-47067850D01*
X88282868Y-47088893D01*
X88268253Y-47108599D01*
X88251777Y-47126777D01*
X88233599Y-47143253D01*
X88213893Y-47157868D01*
X88192850Y-47170480D01*
X88170671Y-47180970D01*
X88147572Y-47189235D01*
X88123773Y-47195196D01*
X88099505Y-47198796D01*
X88075001Y-47200000D01*
X87424999Y-47200000D01*
X87400495Y-47198796D01*
X87376227Y-47195196D01*
X87352428Y-47189235D01*
X87329329Y-47180970D01*
X87307150Y-47170480D01*
X87286107Y-47157868D01*
X87266401Y-47143253D01*
X87248223Y-47126777D01*
X87231747Y-47108599D01*
X87217132Y-47088893D01*
X87204520Y-47067850D01*
X87194030Y-47045671D01*
X87185765Y-47022572D01*
X87179804Y-46998773D01*
X87176204Y-46974505D01*
X87175000Y-46950001D01*
X87175000Y-46049999D01*
X87176204Y-46025495D01*
X87179804Y-46001227D01*
X87185765Y-45977428D01*
X87194030Y-45954329D01*
X87204520Y-45932150D01*
X87217132Y-45911107D01*
X87231747Y-45891401D01*
X87248223Y-45873223D01*
X87266401Y-45856747D01*
X87286107Y-45842132D01*
X87307150Y-45829520D01*
X87329329Y-45819030D01*
X87352428Y-45810765D01*
X87376227Y-45804804D01*
X87400495Y-45801204D01*
X87424999Y-45800000D01*
X88075001Y-45800000D01*
X88099505Y-45801204D01*
X88099505Y-45801204D01*
G37*
D11*
X87750000Y-46500000D03*
D10*
G36*
X76974505Y-44201204D02*
G01*
X76998773Y-44204804D01*
X77022572Y-44210765D01*
X77045671Y-44219030D01*
X77067850Y-44229520D01*
X77088893Y-44242132D01*
X77108599Y-44256747D01*
X77126777Y-44273223D01*
X77143253Y-44291401D01*
X77157868Y-44311107D01*
X77170480Y-44332150D01*
X77180970Y-44354329D01*
X77189235Y-44377428D01*
X77195196Y-44401227D01*
X77198796Y-44425495D01*
X77200000Y-44449999D01*
X77200000Y-45100001D01*
X77198796Y-45124505D01*
X77195196Y-45148773D01*
X77189235Y-45172572D01*
X77180970Y-45195671D01*
X77170480Y-45217850D01*
X77157868Y-45238893D01*
X77143253Y-45258599D01*
X77126777Y-45276777D01*
X77108599Y-45293253D01*
X77088893Y-45307868D01*
X77067850Y-45320480D01*
X77045671Y-45330970D01*
X77022572Y-45339235D01*
X76998773Y-45345196D01*
X76974505Y-45348796D01*
X76950001Y-45350000D01*
X76049999Y-45350000D01*
X76025495Y-45348796D01*
X76001227Y-45345196D01*
X75977428Y-45339235D01*
X75954329Y-45330970D01*
X75932150Y-45320480D01*
X75911107Y-45307868D01*
X75891401Y-45293253D01*
X75873223Y-45276777D01*
X75856747Y-45258599D01*
X75842132Y-45238893D01*
X75829520Y-45217850D01*
X75819030Y-45195671D01*
X75810765Y-45172572D01*
X75804804Y-45148773D01*
X75801204Y-45124505D01*
X75800000Y-45100001D01*
X75800000Y-44449999D01*
X75801204Y-44425495D01*
X75804804Y-44401227D01*
X75810765Y-44377428D01*
X75819030Y-44354329D01*
X75829520Y-44332150D01*
X75842132Y-44311107D01*
X75856747Y-44291401D01*
X75873223Y-44273223D01*
X75891401Y-44256747D01*
X75911107Y-44242132D01*
X75932150Y-44229520D01*
X75954329Y-44219030D01*
X75977428Y-44210765D01*
X76001227Y-44204804D01*
X76025495Y-44201204D01*
X76049999Y-44200000D01*
X76950001Y-44200000D01*
X76974505Y-44201204D01*
X76974505Y-44201204D01*
G37*
D11*
X76500000Y-44775000D03*
D10*
G36*
X76974505Y-42151204D02*
G01*
X76998773Y-42154804D01*
X77022572Y-42160765D01*
X77045671Y-42169030D01*
X77067850Y-42179520D01*
X77088893Y-42192132D01*
X77108599Y-42206747D01*
X77126777Y-42223223D01*
X77143253Y-42241401D01*
X77157868Y-42261107D01*
X77170480Y-42282150D01*
X77180970Y-42304329D01*
X77189235Y-42327428D01*
X77195196Y-42351227D01*
X77198796Y-42375495D01*
X77200000Y-42399999D01*
X77200000Y-43050001D01*
X77198796Y-43074505D01*
X77195196Y-43098773D01*
X77189235Y-43122572D01*
X77180970Y-43145671D01*
X77170480Y-43167850D01*
X77157868Y-43188893D01*
X77143253Y-43208599D01*
X77126777Y-43226777D01*
X77108599Y-43243253D01*
X77088893Y-43257868D01*
X77067850Y-43270480D01*
X77045671Y-43280970D01*
X77022572Y-43289235D01*
X76998773Y-43295196D01*
X76974505Y-43298796D01*
X76950001Y-43300000D01*
X76049999Y-43300000D01*
X76025495Y-43298796D01*
X76001227Y-43295196D01*
X75977428Y-43289235D01*
X75954329Y-43280970D01*
X75932150Y-43270480D01*
X75911107Y-43257868D01*
X75891401Y-43243253D01*
X75873223Y-43226777D01*
X75856747Y-43208599D01*
X75842132Y-43188893D01*
X75829520Y-43167850D01*
X75819030Y-43145671D01*
X75810765Y-43122572D01*
X75804804Y-43098773D01*
X75801204Y-43074505D01*
X75800000Y-43050001D01*
X75800000Y-42399999D01*
X75801204Y-42375495D01*
X75804804Y-42351227D01*
X75810765Y-42327428D01*
X75819030Y-42304329D01*
X75829520Y-42282150D01*
X75842132Y-42261107D01*
X75856747Y-42241401D01*
X75873223Y-42223223D01*
X75891401Y-42206747D01*
X75911107Y-42192132D01*
X75932150Y-42179520D01*
X75954329Y-42169030D01*
X75977428Y-42160765D01*
X76001227Y-42154804D01*
X76025495Y-42151204D01*
X76049999Y-42150000D01*
X76950001Y-42150000D01*
X76974505Y-42151204D01*
X76974505Y-42151204D01*
G37*
D11*
X76500000Y-42725000D03*
D10*
G36*
X69786505Y-73021404D02*
G01*
X69810773Y-73025004D01*
X69834572Y-73030965D01*
X69857671Y-73039230D01*
X69879850Y-73049720D01*
X69900893Y-73062332D01*
X69920599Y-73076947D01*
X69938777Y-73093423D01*
X69955253Y-73111601D01*
X69969868Y-73131307D01*
X69982480Y-73152350D01*
X69992970Y-73174529D01*
X70001235Y-73197628D01*
X70007196Y-73221427D01*
X70010796Y-73245695D01*
X70012000Y-73270199D01*
X70012000Y-73920201D01*
X70010796Y-73944705D01*
X70007196Y-73968973D01*
X70001235Y-73992772D01*
X69992970Y-74015871D01*
X69982480Y-74038050D01*
X69969868Y-74059093D01*
X69955253Y-74078799D01*
X69938777Y-74096977D01*
X69920599Y-74113453D01*
X69900893Y-74128068D01*
X69879850Y-74140680D01*
X69857671Y-74151170D01*
X69834572Y-74159435D01*
X69810773Y-74165396D01*
X69786505Y-74168996D01*
X69762001Y-74170200D01*
X68861999Y-74170200D01*
X68837495Y-74168996D01*
X68813227Y-74165396D01*
X68789428Y-74159435D01*
X68766329Y-74151170D01*
X68744150Y-74140680D01*
X68723107Y-74128068D01*
X68703401Y-74113453D01*
X68685223Y-74096977D01*
X68668747Y-74078799D01*
X68654132Y-74059093D01*
X68641520Y-74038050D01*
X68631030Y-74015871D01*
X68622765Y-73992772D01*
X68616804Y-73968973D01*
X68613204Y-73944705D01*
X68612000Y-73920201D01*
X68612000Y-73270199D01*
X68613204Y-73245695D01*
X68616804Y-73221427D01*
X68622765Y-73197628D01*
X68631030Y-73174529D01*
X68641520Y-73152350D01*
X68654132Y-73131307D01*
X68668747Y-73111601D01*
X68685223Y-73093423D01*
X68703401Y-73076947D01*
X68723107Y-73062332D01*
X68744150Y-73049720D01*
X68766329Y-73039230D01*
X68789428Y-73030965D01*
X68813227Y-73025004D01*
X68837495Y-73021404D01*
X68861999Y-73020200D01*
X69762001Y-73020200D01*
X69786505Y-73021404D01*
X69786505Y-73021404D01*
G37*
D11*
X69312000Y-73595200D03*
D10*
G36*
X69786505Y-70971404D02*
G01*
X69810773Y-70975004D01*
X69834572Y-70980965D01*
X69857671Y-70989230D01*
X69879850Y-70999720D01*
X69900893Y-71012332D01*
X69920599Y-71026947D01*
X69938777Y-71043423D01*
X69955253Y-71061601D01*
X69969868Y-71081307D01*
X69982480Y-71102350D01*
X69992970Y-71124529D01*
X70001235Y-71147628D01*
X70007196Y-71171427D01*
X70010796Y-71195695D01*
X70012000Y-71220199D01*
X70012000Y-71870201D01*
X70010796Y-71894705D01*
X70007196Y-71918973D01*
X70001235Y-71942772D01*
X69992970Y-71965871D01*
X69982480Y-71988050D01*
X69969868Y-72009093D01*
X69955253Y-72028799D01*
X69938777Y-72046977D01*
X69920599Y-72063453D01*
X69900893Y-72078068D01*
X69879850Y-72090680D01*
X69857671Y-72101170D01*
X69834572Y-72109435D01*
X69810773Y-72115396D01*
X69786505Y-72118996D01*
X69762001Y-72120200D01*
X68861999Y-72120200D01*
X68837495Y-72118996D01*
X68813227Y-72115396D01*
X68789428Y-72109435D01*
X68766329Y-72101170D01*
X68744150Y-72090680D01*
X68723107Y-72078068D01*
X68703401Y-72063453D01*
X68685223Y-72046977D01*
X68668747Y-72028799D01*
X68654132Y-72009093D01*
X68641520Y-71988050D01*
X68631030Y-71965871D01*
X68622765Y-71942772D01*
X68616804Y-71918973D01*
X68613204Y-71894705D01*
X68612000Y-71870201D01*
X68612000Y-71220199D01*
X68613204Y-71195695D01*
X68616804Y-71171427D01*
X68622765Y-71147628D01*
X68631030Y-71124529D01*
X68641520Y-71102350D01*
X68654132Y-71081307D01*
X68668747Y-71061601D01*
X68685223Y-71043423D01*
X68703401Y-71026947D01*
X68723107Y-71012332D01*
X68744150Y-70999720D01*
X68766329Y-70989230D01*
X68789428Y-70980965D01*
X68813227Y-70975004D01*
X68837495Y-70971404D01*
X68861999Y-70970200D01*
X69762001Y-70970200D01*
X69786505Y-70971404D01*
X69786505Y-70971404D01*
G37*
D11*
X69312000Y-71545200D03*
D10*
G36*
X69786505Y-66907404D02*
G01*
X69810773Y-66911004D01*
X69834572Y-66916965D01*
X69857671Y-66925230D01*
X69879850Y-66935720D01*
X69900893Y-66948332D01*
X69920599Y-66962947D01*
X69938777Y-66979423D01*
X69955253Y-66997601D01*
X69969868Y-67017307D01*
X69982480Y-67038350D01*
X69992970Y-67060529D01*
X70001235Y-67083628D01*
X70007196Y-67107427D01*
X70010796Y-67131695D01*
X70012000Y-67156199D01*
X70012000Y-67806201D01*
X70010796Y-67830705D01*
X70007196Y-67854973D01*
X70001235Y-67878772D01*
X69992970Y-67901871D01*
X69982480Y-67924050D01*
X69969868Y-67945093D01*
X69955253Y-67964799D01*
X69938777Y-67982977D01*
X69920599Y-67999453D01*
X69900893Y-68014068D01*
X69879850Y-68026680D01*
X69857671Y-68037170D01*
X69834572Y-68045435D01*
X69810773Y-68051396D01*
X69786505Y-68054996D01*
X69762001Y-68056200D01*
X68861999Y-68056200D01*
X68837495Y-68054996D01*
X68813227Y-68051396D01*
X68789428Y-68045435D01*
X68766329Y-68037170D01*
X68744150Y-68026680D01*
X68723107Y-68014068D01*
X68703401Y-67999453D01*
X68685223Y-67982977D01*
X68668747Y-67964799D01*
X68654132Y-67945093D01*
X68641520Y-67924050D01*
X68631030Y-67901871D01*
X68622765Y-67878772D01*
X68616804Y-67854973D01*
X68613204Y-67830705D01*
X68612000Y-67806201D01*
X68612000Y-67156199D01*
X68613204Y-67131695D01*
X68616804Y-67107427D01*
X68622765Y-67083628D01*
X68631030Y-67060529D01*
X68641520Y-67038350D01*
X68654132Y-67017307D01*
X68668747Y-66997601D01*
X68685223Y-66979423D01*
X68703401Y-66962947D01*
X68723107Y-66948332D01*
X68744150Y-66935720D01*
X68766329Y-66925230D01*
X68789428Y-66916965D01*
X68813227Y-66911004D01*
X68837495Y-66907404D01*
X68861999Y-66906200D01*
X69762001Y-66906200D01*
X69786505Y-66907404D01*
X69786505Y-66907404D01*
G37*
D11*
X69312000Y-67481200D03*
D10*
G36*
X69786505Y-68957404D02*
G01*
X69810773Y-68961004D01*
X69834572Y-68966965D01*
X69857671Y-68975230D01*
X69879850Y-68985720D01*
X69900893Y-68998332D01*
X69920599Y-69012947D01*
X69938777Y-69029423D01*
X69955253Y-69047601D01*
X69969868Y-69067307D01*
X69982480Y-69088350D01*
X69992970Y-69110529D01*
X70001235Y-69133628D01*
X70007196Y-69157427D01*
X70010796Y-69181695D01*
X70012000Y-69206199D01*
X70012000Y-69856201D01*
X70010796Y-69880705D01*
X70007196Y-69904973D01*
X70001235Y-69928772D01*
X69992970Y-69951871D01*
X69982480Y-69974050D01*
X69969868Y-69995093D01*
X69955253Y-70014799D01*
X69938777Y-70032977D01*
X69920599Y-70049453D01*
X69900893Y-70064068D01*
X69879850Y-70076680D01*
X69857671Y-70087170D01*
X69834572Y-70095435D01*
X69810773Y-70101396D01*
X69786505Y-70104996D01*
X69762001Y-70106200D01*
X68861999Y-70106200D01*
X68837495Y-70104996D01*
X68813227Y-70101396D01*
X68789428Y-70095435D01*
X68766329Y-70087170D01*
X68744150Y-70076680D01*
X68723107Y-70064068D01*
X68703401Y-70049453D01*
X68685223Y-70032977D01*
X68668747Y-70014799D01*
X68654132Y-69995093D01*
X68641520Y-69974050D01*
X68631030Y-69951871D01*
X68622765Y-69928772D01*
X68616804Y-69904973D01*
X68613204Y-69880705D01*
X68612000Y-69856201D01*
X68612000Y-69206199D01*
X68613204Y-69181695D01*
X68616804Y-69157427D01*
X68622765Y-69133628D01*
X68631030Y-69110529D01*
X68641520Y-69088350D01*
X68654132Y-69067307D01*
X68668747Y-69047601D01*
X68685223Y-69029423D01*
X68703401Y-69012947D01*
X68723107Y-68998332D01*
X68744150Y-68985720D01*
X68766329Y-68975230D01*
X68789428Y-68966965D01*
X68813227Y-68961004D01*
X68837495Y-68957404D01*
X68861999Y-68956200D01*
X69762001Y-68956200D01*
X69786505Y-68957404D01*
X69786505Y-68957404D01*
G37*
D11*
X69312000Y-69531200D03*
D10*
G36*
X106829385Y-53341404D02*
G01*
X106853653Y-53345004D01*
X106877452Y-53350965D01*
X106900551Y-53359230D01*
X106922730Y-53369720D01*
X106943773Y-53382332D01*
X106963479Y-53396947D01*
X106981657Y-53413423D01*
X106998133Y-53431601D01*
X107012748Y-53451307D01*
X107025360Y-53472350D01*
X107035850Y-53494529D01*
X107044115Y-53517628D01*
X107050076Y-53541427D01*
X107053676Y-53565695D01*
X107054880Y-53590199D01*
X107054880Y-54240201D01*
X107053676Y-54264705D01*
X107050076Y-54288973D01*
X107044115Y-54312772D01*
X107035850Y-54335871D01*
X107025360Y-54358050D01*
X107012748Y-54379093D01*
X106998133Y-54398799D01*
X106981657Y-54416977D01*
X106963479Y-54433453D01*
X106943773Y-54448068D01*
X106922730Y-54460680D01*
X106900551Y-54471170D01*
X106877452Y-54479435D01*
X106853653Y-54485396D01*
X106829385Y-54488996D01*
X106804881Y-54490200D01*
X105904879Y-54490200D01*
X105880375Y-54488996D01*
X105856107Y-54485396D01*
X105832308Y-54479435D01*
X105809209Y-54471170D01*
X105787030Y-54460680D01*
X105765987Y-54448068D01*
X105746281Y-54433453D01*
X105728103Y-54416977D01*
X105711627Y-54398799D01*
X105697012Y-54379093D01*
X105684400Y-54358050D01*
X105673910Y-54335871D01*
X105665645Y-54312772D01*
X105659684Y-54288973D01*
X105656084Y-54264705D01*
X105654880Y-54240201D01*
X105654880Y-53590199D01*
X105656084Y-53565695D01*
X105659684Y-53541427D01*
X105665645Y-53517628D01*
X105673910Y-53494529D01*
X105684400Y-53472350D01*
X105697012Y-53451307D01*
X105711627Y-53431601D01*
X105728103Y-53413423D01*
X105746281Y-53396947D01*
X105765987Y-53382332D01*
X105787030Y-53369720D01*
X105809209Y-53359230D01*
X105832308Y-53350965D01*
X105856107Y-53345004D01*
X105880375Y-53341404D01*
X105904879Y-53340200D01*
X106804881Y-53340200D01*
X106829385Y-53341404D01*
X106829385Y-53341404D01*
G37*
D11*
X106354880Y-53915200D03*
D10*
G36*
X106829385Y-55391404D02*
G01*
X106853653Y-55395004D01*
X106877452Y-55400965D01*
X106900551Y-55409230D01*
X106922730Y-55419720D01*
X106943773Y-55432332D01*
X106963479Y-55446947D01*
X106981657Y-55463423D01*
X106998133Y-55481601D01*
X107012748Y-55501307D01*
X107025360Y-55522350D01*
X107035850Y-55544529D01*
X107044115Y-55567628D01*
X107050076Y-55591427D01*
X107053676Y-55615695D01*
X107054880Y-55640199D01*
X107054880Y-56290201D01*
X107053676Y-56314705D01*
X107050076Y-56338973D01*
X107044115Y-56362772D01*
X107035850Y-56385871D01*
X107025360Y-56408050D01*
X107012748Y-56429093D01*
X106998133Y-56448799D01*
X106981657Y-56466977D01*
X106963479Y-56483453D01*
X106943773Y-56498068D01*
X106922730Y-56510680D01*
X106900551Y-56521170D01*
X106877452Y-56529435D01*
X106853653Y-56535396D01*
X106829385Y-56538996D01*
X106804881Y-56540200D01*
X105904879Y-56540200D01*
X105880375Y-56538996D01*
X105856107Y-56535396D01*
X105832308Y-56529435D01*
X105809209Y-56521170D01*
X105787030Y-56510680D01*
X105765987Y-56498068D01*
X105746281Y-56483453D01*
X105728103Y-56466977D01*
X105711627Y-56448799D01*
X105697012Y-56429093D01*
X105684400Y-56408050D01*
X105673910Y-56385871D01*
X105665645Y-56362772D01*
X105659684Y-56338973D01*
X105656084Y-56314705D01*
X105654880Y-56290201D01*
X105654880Y-55640199D01*
X105656084Y-55615695D01*
X105659684Y-55591427D01*
X105665645Y-55567628D01*
X105673910Y-55544529D01*
X105684400Y-55522350D01*
X105697012Y-55501307D01*
X105711627Y-55481601D01*
X105728103Y-55463423D01*
X105746281Y-55446947D01*
X105765987Y-55432332D01*
X105787030Y-55419720D01*
X105809209Y-55409230D01*
X105832308Y-55400965D01*
X105856107Y-55395004D01*
X105880375Y-55391404D01*
X105904879Y-55390200D01*
X106804881Y-55390200D01*
X106829385Y-55391404D01*
X106829385Y-55391404D01*
G37*
D11*
X106354880Y-55965200D03*
D10*
G36*
X109003625Y-55411724D02*
G01*
X109027893Y-55415324D01*
X109051692Y-55421285D01*
X109074791Y-55429550D01*
X109096970Y-55440040D01*
X109118013Y-55452652D01*
X109137719Y-55467267D01*
X109155897Y-55483743D01*
X109172373Y-55501921D01*
X109186988Y-55521627D01*
X109199600Y-55542670D01*
X109210090Y-55564849D01*
X109218355Y-55587948D01*
X109224316Y-55611747D01*
X109227916Y-55636015D01*
X109229120Y-55660519D01*
X109229120Y-56310521D01*
X109227916Y-56335025D01*
X109224316Y-56359293D01*
X109218355Y-56383092D01*
X109210090Y-56406191D01*
X109199600Y-56428370D01*
X109186988Y-56449413D01*
X109172373Y-56469119D01*
X109155897Y-56487297D01*
X109137719Y-56503773D01*
X109118013Y-56518388D01*
X109096970Y-56531000D01*
X109074791Y-56541490D01*
X109051692Y-56549755D01*
X109027893Y-56555716D01*
X109003625Y-56559316D01*
X108979121Y-56560520D01*
X108079119Y-56560520D01*
X108054615Y-56559316D01*
X108030347Y-56555716D01*
X108006548Y-56549755D01*
X107983449Y-56541490D01*
X107961270Y-56531000D01*
X107940227Y-56518388D01*
X107920521Y-56503773D01*
X107902343Y-56487297D01*
X107885867Y-56469119D01*
X107871252Y-56449413D01*
X107858640Y-56428370D01*
X107848150Y-56406191D01*
X107839885Y-56383092D01*
X107833924Y-56359293D01*
X107830324Y-56335025D01*
X107829120Y-56310521D01*
X107829120Y-55660519D01*
X107830324Y-55636015D01*
X107833924Y-55611747D01*
X107839885Y-55587948D01*
X107848150Y-55564849D01*
X107858640Y-55542670D01*
X107871252Y-55521627D01*
X107885867Y-55501921D01*
X107902343Y-55483743D01*
X107920521Y-55467267D01*
X107940227Y-55452652D01*
X107961270Y-55440040D01*
X107983449Y-55429550D01*
X108006548Y-55421285D01*
X108030347Y-55415324D01*
X108054615Y-55411724D01*
X108079119Y-55410520D01*
X108979121Y-55410520D01*
X109003625Y-55411724D01*
X109003625Y-55411724D01*
G37*
D11*
X108529120Y-55985520D03*
D10*
G36*
X109003625Y-53361724D02*
G01*
X109027893Y-53365324D01*
X109051692Y-53371285D01*
X109074791Y-53379550D01*
X109096970Y-53390040D01*
X109118013Y-53402652D01*
X109137719Y-53417267D01*
X109155897Y-53433743D01*
X109172373Y-53451921D01*
X109186988Y-53471627D01*
X109199600Y-53492670D01*
X109210090Y-53514849D01*
X109218355Y-53537948D01*
X109224316Y-53561747D01*
X109227916Y-53586015D01*
X109229120Y-53610519D01*
X109229120Y-54260521D01*
X109227916Y-54285025D01*
X109224316Y-54309293D01*
X109218355Y-54333092D01*
X109210090Y-54356191D01*
X109199600Y-54378370D01*
X109186988Y-54399413D01*
X109172373Y-54419119D01*
X109155897Y-54437297D01*
X109137719Y-54453773D01*
X109118013Y-54468388D01*
X109096970Y-54481000D01*
X109074791Y-54491490D01*
X109051692Y-54499755D01*
X109027893Y-54505716D01*
X109003625Y-54509316D01*
X108979121Y-54510520D01*
X108079119Y-54510520D01*
X108054615Y-54509316D01*
X108030347Y-54505716D01*
X108006548Y-54499755D01*
X107983449Y-54491490D01*
X107961270Y-54481000D01*
X107940227Y-54468388D01*
X107920521Y-54453773D01*
X107902343Y-54437297D01*
X107885867Y-54419119D01*
X107871252Y-54399413D01*
X107858640Y-54378370D01*
X107848150Y-54356191D01*
X107839885Y-54333092D01*
X107833924Y-54309293D01*
X107830324Y-54285025D01*
X107829120Y-54260521D01*
X107829120Y-53610519D01*
X107830324Y-53586015D01*
X107833924Y-53561747D01*
X107839885Y-53537948D01*
X107848150Y-53514849D01*
X107858640Y-53492670D01*
X107871252Y-53471627D01*
X107885867Y-53451921D01*
X107902343Y-53433743D01*
X107920521Y-53417267D01*
X107940227Y-53402652D01*
X107961270Y-53390040D01*
X107983449Y-53379550D01*
X108006548Y-53371285D01*
X108030347Y-53365324D01*
X108054615Y-53361724D01*
X108079119Y-53360520D01*
X108979121Y-53360520D01*
X109003625Y-53361724D01*
X109003625Y-53361724D01*
G37*
D11*
X108529120Y-53935520D03*
D10*
G36*
X116293425Y-47912484D02*
G01*
X116317693Y-47916084D01*
X116341492Y-47922045D01*
X116364591Y-47930310D01*
X116386770Y-47940800D01*
X116407813Y-47953412D01*
X116427519Y-47968027D01*
X116445697Y-47984503D01*
X116462173Y-48002681D01*
X116476788Y-48022387D01*
X116489400Y-48043430D01*
X116499890Y-48065609D01*
X116508155Y-48088708D01*
X116514116Y-48112507D01*
X116517716Y-48136775D01*
X116518920Y-48161279D01*
X116518920Y-48811281D01*
X116517716Y-48835785D01*
X116514116Y-48860053D01*
X116508155Y-48883852D01*
X116499890Y-48906951D01*
X116489400Y-48929130D01*
X116476788Y-48950173D01*
X116462173Y-48969879D01*
X116445697Y-48988057D01*
X116427519Y-49004533D01*
X116407813Y-49019148D01*
X116386770Y-49031760D01*
X116364591Y-49042250D01*
X116341492Y-49050515D01*
X116317693Y-49056476D01*
X116293425Y-49060076D01*
X116268921Y-49061280D01*
X115368919Y-49061280D01*
X115344415Y-49060076D01*
X115320147Y-49056476D01*
X115296348Y-49050515D01*
X115273249Y-49042250D01*
X115251070Y-49031760D01*
X115230027Y-49019148D01*
X115210321Y-49004533D01*
X115192143Y-48988057D01*
X115175667Y-48969879D01*
X115161052Y-48950173D01*
X115148440Y-48929130D01*
X115137950Y-48906951D01*
X115129685Y-48883852D01*
X115123724Y-48860053D01*
X115120124Y-48835785D01*
X115118920Y-48811281D01*
X115118920Y-48161279D01*
X115120124Y-48136775D01*
X115123724Y-48112507D01*
X115129685Y-48088708D01*
X115137950Y-48065609D01*
X115148440Y-48043430D01*
X115161052Y-48022387D01*
X115175667Y-48002681D01*
X115192143Y-47984503D01*
X115210321Y-47968027D01*
X115230027Y-47953412D01*
X115251070Y-47940800D01*
X115273249Y-47930310D01*
X115296348Y-47922045D01*
X115320147Y-47916084D01*
X115344415Y-47912484D01*
X115368919Y-47911280D01*
X116268921Y-47911280D01*
X116293425Y-47912484D01*
X116293425Y-47912484D01*
G37*
D11*
X115818920Y-48486280D03*
D10*
G36*
X116293425Y-45862484D02*
G01*
X116317693Y-45866084D01*
X116341492Y-45872045D01*
X116364591Y-45880310D01*
X116386770Y-45890800D01*
X116407813Y-45903412D01*
X116427519Y-45918027D01*
X116445697Y-45934503D01*
X116462173Y-45952681D01*
X116476788Y-45972387D01*
X116489400Y-45993430D01*
X116499890Y-46015609D01*
X116508155Y-46038708D01*
X116514116Y-46062507D01*
X116517716Y-46086775D01*
X116518920Y-46111279D01*
X116518920Y-46761281D01*
X116517716Y-46785785D01*
X116514116Y-46810053D01*
X116508155Y-46833852D01*
X116499890Y-46856951D01*
X116489400Y-46879130D01*
X116476788Y-46900173D01*
X116462173Y-46919879D01*
X116445697Y-46938057D01*
X116427519Y-46954533D01*
X116407813Y-46969148D01*
X116386770Y-46981760D01*
X116364591Y-46992250D01*
X116341492Y-47000515D01*
X116317693Y-47006476D01*
X116293425Y-47010076D01*
X116268921Y-47011280D01*
X115368919Y-47011280D01*
X115344415Y-47010076D01*
X115320147Y-47006476D01*
X115296348Y-47000515D01*
X115273249Y-46992250D01*
X115251070Y-46981760D01*
X115230027Y-46969148D01*
X115210321Y-46954533D01*
X115192143Y-46938057D01*
X115175667Y-46919879D01*
X115161052Y-46900173D01*
X115148440Y-46879130D01*
X115137950Y-46856951D01*
X115129685Y-46833852D01*
X115123724Y-46810053D01*
X115120124Y-46785785D01*
X115118920Y-46761281D01*
X115118920Y-46111279D01*
X115120124Y-46086775D01*
X115123724Y-46062507D01*
X115129685Y-46038708D01*
X115137950Y-46015609D01*
X115148440Y-45993430D01*
X115161052Y-45972387D01*
X115175667Y-45952681D01*
X115192143Y-45934503D01*
X115210321Y-45918027D01*
X115230027Y-45903412D01*
X115251070Y-45890800D01*
X115273249Y-45880310D01*
X115296348Y-45872045D01*
X115320147Y-45866084D01*
X115344415Y-45862484D01*
X115368919Y-45861280D01*
X116268921Y-45861280D01*
X116293425Y-45862484D01*
X116293425Y-45862484D01*
G37*
D11*
X115818920Y-46436280D03*
D10*
G36*
X106650505Y-78666104D02*
G01*
X106674773Y-78669704D01*
X106698572Y-78675665D01*
X106721671Y-78683930D01*
X106743850Y-78694420D01*
X106764893Y-78707032D01*
X106784599Y-78721647D01*
X106802777Y-78738123D01*
X106819253Y-78756301D01*
X106833868Y-78776007D01*
X106846480Y-78797050D01*
X106856970Y-78819229D01*
X106865235Y-78842328D01*
X106871196Y-78866127D01*
X106874796Y-78890395D01*
X106876000Y-78914899D01*
X106876000Y-79564901D01*
X106874796Y-79589405D01*
X106871196Y-79613673D01*
X106865235Y-79637472D01*
X106856970Y-79660571D01*
X106846480Y-79682750D01*
X106833868Y-79703793D01*
X106819253Y-79723499D01*
X106802777Y-79741677D01*
X106784599Y-79758153D01*
X106764893Y-79772768D01*
X106743850Y-79785380D01*
X106721671Y-79795870D01*
X106698572Y-79804135D01*
X106674773Y-79810096D01*
X106650505Y-79813696D01*
X106626001Y-79814900D01*
X105725999Y-79814900D01*
X105701495Y-79813696D01*
X105677227Y-79810096D01*
X105653428Y-79804135D01*
X105630329Y-79795870D01*
X105608150Y-79785380D01*
X105587107Y-79772768D01*
X105567401Y-79758153D01*
X105549223Y-79741677D01*
X105532747Y-79723499D01*
X105518132Y-79703793D01*
X105505520Y-79682750D01*
X105495030Y-79660571D01*
X105486765Y-79637472D01*
X105480804Y-79613673D01*
X105477204Y-79589405D01*
X105476000Y-79564901D01*
X105476000Y-78914899D01*
X105477204Y-78890395D01*
X105480804Y-78866127D01*
X105486765Y-78842328D01*
X105495030Y-78819229D01*
X105505520Y-78797050D01*
X105518132Y-78776007D01*
X105532747Y-78756301D01*
X105549223Y-78738123D01*
X105567401Y-78721647D01*
X105587107Y-78707032D01*
X105608150Y-78694420D01*
X105630329Y-78683930D01*
X105653428Y-78675665D01*
X105677227Y-78669704D01*
X105701495Y-78666104D01*
X105725999Y-78664900D01*
X106626001Y-78664900D01*
X106650505Y-78666104D01*
X106650505Y-78666104D01*
G37*
D11*
X106176000Y-79239900D03*
D10*
G36*
X106650505Y-76616104D02*
G01*
X106674773Y-76619704D01*
X106698572Y-76625665D01*
X106721671Y-76633930D01*
X106743850Y-76644420D01*
X106764893Y-76657032D01*
X106784599Y-76671647D01*
X106802777Y-76688123D01*
X106819253Y-76706301D01*
X106833868Y-76726007D01*
X106846480Y-76747050D01*
X106856970Y-76769229D01*
X106865235Y-76792328D01*
X106871196Y-76816127D01*
X106874796Y-76840395D01*
X106876000Y-76864899D01*
X106876000Y-77514901D01*
X106874796Y-77539405D01*
X106871196Y-77563673D01*
X106865235Y-77587472D01*
X106856970Y-77610571D01*
X106846480Y-77632750D01*
X106833868Y-77653793D01*
X106819253Y-77673499D01*
X106802777Y-77691677D01*
X106784599Y-77708153D01*
X106764893Y-77722768D01*
X106743850Y-77735380D01*
X106721671Y-77745870D01*
X106698572Y-77754135D01*
X106674773Y-77760096D01*
X106650505Y-77763696D01*
X106626001Y-77764900D01*
X105725999Y-77764900D01*
X105701495Y-77763696D01*
X105677227Y-77760096D01*
X105653428Y-77754135D01*
X105630329Y-77745870D01*
X105608150Y-77735380D01*
X105587107Y-77722768D01*
X105567401Y-77708153D01*
X105549223Y-77691677D01*
X105532747Y-77673499D01*
X105518132Y-77653793D01*
X105505520Y-77632750D01*
X105495030Y-77610571D01*
X105486765Y-77587472D01*
X105480804Y-77563673D01*
X105477204Y-77539405D01*
X105476000Y-77514901D01*
X105476000Y-76864899D01*
X105477204Y-76840395D01*
X105480804Y-76816127D01*
X105486765Y-76792328D01*
X105495030Y-76769229D01*
X105505520Y-76747050D01*
X105518132Y-76726007D01*
X105532747Y-76706301D01*
X105549223Y-76688123D01*
X105567401Y-76671647D01*
X105587107Y-76657032D01*
X105608150Y-76644420D01*
X105630329Y-76633930D01*
X105653428Y-76625665D01*
X105677227Y-76619704D01*
X105701495Y-76616104D01*
X105725999Y-76614900D01*
X106626001Y-76614900D01*
X106650505Y-76616104D01*
X106650505Y-76616104D01*
G37*
D11*
X106176000Y-77189900D03*
D10*
G36*
X108834905Y-78682504D02*
G01*
X108859173Y-78686104D01*
X108882972Y-78692065D01*
X108906071Y-78700330D01*
X108928250Y-78710820D01*
X108949293Y-78723432D01*
X108968999Y-78738047D01*
X108987177Y-78754523D01*
X109003653Y-78772701D01*
X109018268Y-78792407D01*
X109030880Y-78813450D01*
X109041370Y-78835629D01*
X109049635Y-78858728D01*
X109055596Y-78882527D01*
X109059196Y-78906795D01*
X109060400Y-78931299D01*
X109060400Y-79581301D01*
X109059196Y-79605805D01*
X109055596Y-79630073D01*
X109049635Y-79653872D01*
X109041370Y-79676971D01*
X109030880Y-79699150D01*
X109018268Y-79720193D01*
X109003653Y-79739899D01*
X108987177Y-79758077D01*
X108968999Y-79774553D01*
X108949293Y-79789168D01*
X108928250Y-79801780D01*
X108906071Y-79812270D01*
X108882972Y-79820535D01*
X108859173Y-79826496D01*
X108834905Y-79830096D01*
X108810401Y-79831300D01*
X107910399Y-79831300D01*
X107885895Y-79830096D01*
X107861627Y-79826496D01*
X107837828Y-79820535D01*
X107814729Y-79812270D01*
X107792550Y-79801780D01*
X107771507Y-79789168D01*
X107751801Y-79774553D01*
X107733623Y-79758077D01*
X107717147Y-79739899D01*
X107702532Y-79720193D01*
X107689920Y-79699150D01*
X107679430Y-79676971D01*
X107671165Y-79653872D01*
X107665204Y-79630073D01*
X107661604Y-79605805D01*
X107660400Y-79581301D01*
X107660400Y-78931299D01*
X107661604Y-78906795D01*
X107665204Y-78882527D01*
X107671165Y-78858728D01*
X107679430Y-78835629D01*
X107689920Y-78813450D01*
X107702532Y-78792407D01*
X107717147Y-78772701D01*
X107733623Y-78754523D01*
X107751801Y-78738047D01*
X107771507Y-78723432D01*
X107792550Y-78710820D01*
X107814729Y-78700330D01*
X107837828Y-78692065D01*
X107861627Y-78686104D01*
X107885895Y-78682504D01*
X107910399Y-78681300D01*
X108810401Y-78681300D01*
X108834905Y-78682504D01*
X108834905Y-78682504D01*
G37*
D11*
X108360400Y-79256300D03*
D10*
G36*
X108834905Y-76632504D02*
G01*
X108859173Y-76636104D01*
X108882972Y-76642065D01*
X108906071Y-76650330D01*
X108928250Y-76660820D01*
X108949293Y-76673432D01*
X108968999Y-76688047D01*
X108987177Y-76704523D01*
X109003653Y-76722701D01*
X109018268Y-76742407D01*
X109030880Y-76763450D01*
X109041370Y-76785629D01*
X109049635Y-76808728D01*
X109055596Y-76832527D01*
X109059196Y-76856795D01*
X109060400Y-76881299D01*
X109060400Y-77531301D01*
X109059196Y-77555805D01*
X109055596Y-77580073D01*
X109049635Y-77603872D01*
X109041370Y-77626971D01*
X109030880Y-77649150D01*
X109018268Y-77670193D01*
X109003653Y-77689899D01*
X108987177Y-77708077D01*
X108968999Y-77724553D01*
X108949293Y-77739168D01*
X108928250Y-77751780D01*
X108906071Y-77762270D01*
X108882972Y-77770535D01*
X108859173Y-77776496D01*
X108834905Y-77780096D01*
X108810401Y-77781300D01*
X107910399Y-77781300D01*
X107885895Y-77780096D01*
X107861627Y-77776496D01*
X107837828Y-77770535D01*
X107814729Y-77762270D01*
X107792550Y-77751780D01*
X107771507Y-77739168D01*
X107751801Y-77724553D01*
X107733623Y-77708077D01*
X107717147Y-77689899D01*
X107702532Y-77670193D01*
X107689920Y-77649150D01*
X107679430Y-77626971D01*
X107671165Y-77603872D01*
X107665204Y-77580073D01*
X107661604Y-77555805D01*
X107660400Y-77531301D01*
X107660400Y-76881299D01*
X107661604Y-76856795D01*
X107665204Y-76832527D01*
X107671165Y-76808728D01*
X107679430Y-76785629D01*
X107689920Y-76763450D01*
X107702532Y-76742407D01*
X107717147Y-76722701D01*
X107733623Y-76704523D01*
X107751801Y-76688047D01*
X107771507Y-76673432D01*
X107792550Y-76660820D01*
X107814729Y-76650330D01*
X107837828Y-76642065D01*
X107861627Y-76636104D01*
X107885895Y-76632504D01*
X107910399Y-76631300D01*
X108810401Y-76631300D01*
X108834905Y-76632504D01*
X108834905Y-76632504D01*
G37*
D11*
X108360400Y-77206300D03*
D10*
G36*
X116073905Y-69377104D02*
G01*
X116098173Y-69380704D01*
X116121972Y-69386665D01*
X116145071Y-69394930D01*
X116167250Y-69405420D01*
X116188293Y-69418032D01*
X116207999Y-69432647D01*
X116226177Y-69449123D01*
X116242653Y-69467301D01*
X116257268Y-69487007D01*
X116269880Y-69508050D01*
X116280370Y-69530229D01*
X116288635Y-69553328D01*
X116294596Y-69577127D01*
X116298196Y-69601395D01*
X116299400Y-69625899D01*
X116299400Y-70275901D01*
X116298196Y-70300405D01*
X116294596Y-70324673D01*
X116288635Y-70348472D01*
X116280370Y-70371571D01*
X116269880Y-70393750D01*
X116257268Y-70414793D01*
X116242653Y-70434499D01*
X116226177Y-70452677D01*
X116207999Y-70469153D01*
X116188293Y-70483768D01*
X116167250Y-70496380D01*
X116145071Y-70506870D01*
X116121972Y-70515135D01*
X116098173Y-70521096D01*
X116073905Y-70524696D01*
X116049401Y-70525900D01*
X115149399Y-70525900D01*
X115124895Y-70524696D01*
X115100627Y-70521096D01*
X115076828Y-70515135D01*
X115053729Y-70506870D01*
X115031550Y-70496380D01*
X115010507Y-70483768D01*
X114990801Y-70469153D01*
X114972623Y-70452677D01*
X114956147Y-70434499D01*
X114941532Y-70414793D01*
X114928920Y-70393750D01*
X114918430Y-70371571D01*
X114910165Y-70348472D01*
X114904204Y-70324673D01*
X114900604Y-70300405D01*
X114899400Y-70275901D01*
X114899400Y-69625899D01*
X114900604Y-69601395D01*
X114904204Y-69577127D01*
X114910165Y-69553328D01*
X114918430Y-69530229D01*
X114928920Y-69508050D01*
X114941532Y-69487007D01*
X114956147Y-69467301D01*
X114972623Y-69449123D01*
X114990801Y-69432647D01*
X115010507Y-69418032D01*
X115031550Y-69405420D01*
X115053729Y-69394930D01*
X115076828Y-69386665D01*
X115100627Y-69380704D01*
X115124895Y-69377104D01*
X115149399Y-69375900D01*
X116049401Y-69375900D01*
X116073905Y-69377104D01*
X116073905Y-69377104D01*
G37*
D11*
X115599400Y-69950900D03*
D10*
G36*
X116073905Y-71427104D02*
G01*
X116098173Y-71430704D01*
X116121972Y-71436665D01*
X116145071Y-71444930D01*
X116167250Y-71455420D01*
X116188293Y-71468032D01*
X116207999Y-71482647D01*
X116226177Y-71499123D01*
X116242653Y-71517301D01*
X116257268Y-71537007D01*
X116269880Y-71558050D01*
X116280370Y-71580229D01*
X116288635Y-71603328D01*
X116294596Y-71627127D01*
X116298196Y-71651395D01*
X116299400Y-71675899D01*
X116299400Y-72325901D01*
X116298196Y-72350405D01*
X116294596Y-72374673D01*
X116288635Y-72398472D01*
X116280370Y-72421571D01*
X116269880Y-72443750D01*
X116257268Y-72464793D01*
X116242653Y-72484499D01*
X116226177Y-72502677D01*
X116207999Y-72519153D01*
X116188293Y-72533768D01*
X116167250Y-72546380D01*
X116145071Y-72556870D01*
X116121972Y-72565135D01*
X116098173Y-72571096D01*
X116073905Y-72574696D01*
X116049401Y-72575900D01*
X115149399Y-72575900D01*
X115124895Y-72574696D01*
X115100627Y-72571096D01*
X115076828Y-72565135D01*
X115053729Y-72556870D01*
X115031550Y-72546380D01*
X115010507Y-72533768D01*
X114990801Y-72519153D01*
X114972623Y-72502677D01*
X114956147Y-72484499D01*
X114941532Y-72464793D01*
X114928920Y-72443750D01*
X114918430Y-72421571D01*
X114910165Y-72398472D01*
X114904204Y-72374673D01*
X114900604Y-72350405D01*
X114899400Y-72325901D01*
X114899400Y-71675899D01*
X114900604Y-71651395D01*
X114904204Y-71627127D01*
X114910165Y-71603328D01*
X114918430Y-71580229D01*
X114928920Y-71558050D01*
X114941532Y-71537007D01*
X114956147Y-71517301D01*
X114972623Y-71499123D01*
X114990801Y-71482647D01*
X115010507Y-71468032D01*
X115031550Y-71455420D01*
X115053729Y-71444930D01*
X115076828Y-71436665D01*
X115100627Y-71430704D01*
X115124895Y-71427104D01*
X115149399Y-71425900D01*
X116049401Y-71425900D01*
X116073905Y-71427104D01*
X116073905Y-71427104D01*
G37*
D11*
X115599400Y-72000900D03*
D10*
G36*
X61053505Y-57470504D02*
G01*
X61077773Y-57474104D01*
X61101572Y-57480065D01*
X61124671Y-57488330D01*
X61146850Y-57498820D01*
X61167893Y-57511432D01*
X61187599Y-57526047D01*
X61205777Y-57542523D01*
X61222253Y-57560701D01*
X61236868Y-57580407D01*
X61249480Y-57601450D01*
X61259970Y-57623629D01*
X61268235Y-57646728D01*
X61274196Y-57670527D01*
X61277796Y-57694795D01*
X61279000Y-57719299D01*
X61279000Y-58369301D01*
X61277796Y-58393805D01*
X61274196Y-58418073D01*
X61268235Y-58441872D01*
X61259970Y-58464971D01*
X61249480Y-58487150D01*
X61236868Y-58508193D01*
X61222253Y-58527899D01*
X61205777Y-58546077D01*
X61187599Y-58562553D01*
X61167893Y-58577168D01*
X61146850Y-58589780D01*
X61124671Y-58600270D01*
X61101572Y-58608535D01*
X61077773Y-58614496D01*
X61053505Y-58618096D01*
X61029001Y-58619300D01*
X60128999Y-58619300D01*
X60104495Y-58618096D01*
X60080227Y-58614496D01*
X60056428Y-58608535D01*
X60033329Y-58600270D01*
X60011150Y-58589780D01*
X59990107Y-58577168D01*
X59970401Y-58562553D01*
X59952223Y-58546077D01*
X59935747Y-58527899D01*
X59921132Y-58508193D01*
X59908520Y-58487150D01*
X59898030Y-58464971D01*
X59889765Y-58441872D01*
X59883804Y-58418073D01*
X59880204Y-58393805D01*
X59879000Y-58369301D01*
X59879000Y-57719299D01*
X59880204Y-57694795D01*
X59883804Y-57670527D01*
X59889765Y-57646728D01*
X59898030Y-57623629D01*
X59908520Y-57601450D01*
X59921132Y-57580407D01*
X59935747Y-57560701D01*
X59952223Y-57542523D01*
X59970401Y-57526047D01*
X59990107Y-57511432D01*
X60011150Y-57498820D01*
X60033329Y-57488330D01*
X60056428Y-57480065D01*
X60080227Y-57474104D01*
X60104495Y-57470504D01*
X60128999Y-57469300D01*
X61029001Y-57469300D01*
X61053505Y-57470504D01*
X61053505Y-57470504D01*
G37*
D11*
X60579000Y-58044300D03*
D10*
G36*
X61053505Y-55420504D02*
G01*
X61077773Y-55424104D01*
X61101572Y-55430065D01*
X61124671Y-55438330D01*
X61146850Y-55448820D01*
X61167893Y-55461432D01*
X61187599Y-55476047D01*
X61205777Y-55492523D01*
X61222253Y-55510701D01*
X61236868Y-55530407D01*
X61249480Y-55551450D01*
X61259970Y-55573629D01*
X61268235Y-55596728D01*
X61274196Y-55620527D01*
X61277796Y-55644795D01*
X61279000Y-55669299D01*
X61279000Y-56319301D01*
X61277796Y-56343805D01*
X61274196Y-56368073D01*
X61268235Y-56391872D01*
X61259970Y-56414971D01*
X61249480Y-56437150D01*
X61236868Y-56458193D01*
X61222253Y-56477899D01*
X61205777Y-56496077D01*
X61187599Y-56512553D01*
X61167893Y-56527168D01*
X61146850Y-56539780D01*
X61124671Y-56550270D01*
X61101572Y-56558535D01*
X61077773Y-56564496D01*
X61053505Y-56568096D01*
X61029001Y-56569300D01*
X60128999Y-56569300D01*
X60104495Y-56568096D01*
X60080227Y-56564496D01*
X60056428Y-56558535D01*
X60033329Y-56550270D01*
X60011150Y-56539780D01*
X59990107Y-56527168D01*
X59970401Y-56512553D01*
X59952223Y-56496077D01*
X59935747Y-56477899D01*
X59921132Y-56458193D01*
X59908520Y-56437150D01*
X59898030Y-56414971D01*
X59889765Y-56391872D01*
X59883804Y-56368073D01*
X59880204Y-56343805D01*
X59879000Y-56319301D01*
X59879000Y-55669299D01*
X59880204Y-55644795D01*
X59883804Y-55620527D01*
X59889765Y-55596728D01*
X59898030Y-55573629D01*
X59908520Y-55551450D01*
X59921132Y-55530407D01*
X59935747Y-55510701D01*
X59952223Y-55492523D01*
X59970401Y-55476047D01*
X59990107Y-55461432D01*
X60011150Y-55448820D01*
X60033329Y-55438330D01*
X60056428Y-55430065D01*
X60080227Y-55424104D01*
X60104495Y-55420504D01*
X60128999Y-55419300D01*
X61029001Y-55419300D01*
X61053505Y-55420504D01*
X61053505Y-55420504D01*
G37*
D11*
X60579000Y-55994300D03*
D10*
G36*
X81322705Y-41201804D02*
G01*
X81346973Y-41205404D01*
X81370772Y-41211365D01*
X81393871Y-41219630D01*
X81416050Y-41230120D01*
X81437093Y-41242732D01*
X81456799Y-41257347D01*
X81474977Y-41273823D01*
X81491453Y-41292001D01*
X81506068Y-41311707D01*
X81518680Y-41332750D01*
X81529170Y-41354929D01*
X81537435Y-41378028D01*
X81543396Y-41401827D01*
X81546996Y-41426095D01*
X81548200Y-41450599D01*
X81548200Y-42100601D01*
X81546996Y-42125105D01*
X81543396Y-42149373D01*
X81537435Y-42173172D01*
X81529170Y-42196271D01*
X81518680Y-42218450D01*
X81506068Y-42239493D01*
X81491453Y-42259199D01*
X81474977Y-42277377D01*
X81456799Y-42293853D01*
X81437093Y-42308468D01*
X81416050Y-42321080D01*
X81393871Y-42331570D01*
X81370772Y-42339835D01*
X81346973Y-42345796D01*
X81322705Y-42349396D01*
X81298201Y-42350600D01*
X80398199Y-42350600D01*
X80373695Y-42349396D01*
X80349427Y-42345796D01*
X80325628Y-42339835D01*
X80302529Y-42331570D01*
X80280350Y-42321080D01*
X80259307Y-42308468D01*
X80239601Y-42293853D01*
X80221423Y-42277377D01*
X80204947Y-42259199D01*
X80190332Y-42239493D01*
X80177720Y-42218450D01*
X80167230Y-42196271D01*
X80158965Y-42173172D01*
X80153004Y-42149373D01*
X80149404Y-42125105D01*
X80148200Y-42100601D01*
X80148200Y-41450599D01*
X80149404Y-41426095D01*
X80153004Y-41401827D01*
X80158965Y-41378028D01*
X80167230Y-41354929D01*
X80177720Y-41332750D01*
X80190332Y-41311707D01*
X80204947Y-41292001D01*
X80221423Y-41273823D01*
X80239601Y-41257347D01*
X80259307Y-41242732D01*
X80280350Y-41230120D01*
X80302529Y-41219630D01*
X80325628Y-41211365D01*
X80349427Y-41205404D01*
X80373695Y-41201804D01*
X80398199Y-41200600D01*
X81298201Y-41200600D01*
X81322705Y-41201804D01*
X81322705Y-41201804D01*
G37*
D11*
X80848200Y-41775600D03*
D10*
G36*
X81322705Y-39151804D02*
G01*
X81346973Y-39155404D01*
X81370772Y-39161365D01*
X81393871Y-39169630D01*
X81416050Y-39180120D01*
X81437093Y-39192732D01*
X81456799Y-39207347D01*
X81474977Y-39223823D01*
X81491453Y-39242001D01*
X81506068Y-39261707D01*
X81518680Y-39282750D01*
X81529170Y-39304929D01*
X81537435Y-39328028D01*
X81543396Y-39351827D01*
X81546996Y-39376095D01*
X81548200Y-39400599D01*
X81548200Y-40050601D01*
X81546996Y-40075105D01*
X81543396Y-40099373D01*
X81537435Y-40123172D01*
X81529170Y-40146271D01*
X81518680Y-40168450D01*
X81506068Y-40189493D01*
X81491453Y-40209199D01*
X81474977Y-40227377D01*
X81456799Y-40243853D01*
X81437093Y-40258468D01*
X81416050Y-40271080D01*
X81393871Y-40281570D01*
X81370772Y-40289835D01*
X81346973Y-40295796D01*
X81322705Y-40299396D01*
X81298201Y-40300600D01*
X80398199Y-40300600D01*
X80373695Y-40299396D01*
X80349427Y-40295796D01*
X80325628Y-40289835D01*
X80302529Y-40281570D01*
X80280350Y-40271080D01*
X80259307Y-40258468D01*
X80239601Y-40243853D01*
X80221423Y-40227377D01*
X80204947Y-40209199D01*
X80190332Y-40189493D01*
X80177720Y-40168450D01*
X80167230Y-40146271D01*
X80158965Y-40123172D01*
X80153004Y-40099373D01*
X80149404Y-40075105D01*
X80148200Y-40050601D01*
X80148200Y-39400599D01*
X80149404Y-39376095D01*
X80153004Y-39351827D01*
X80158965Y-39328028D01*
X80167230Y-39304929D01*
X80177720Y-39282750D01*
X80190332Y-39261707D01*
X80204947Y-39242001D01*
X80221423Y-39223823D01*
X80239601Y-39207347D01*
X80259307Y-39192732D01*
X80280350Y-39180120D01*
X80302529Y-39169630D01*
X80325628Y-39161365D01*
X80349427Y-39155404D01*
X80373695Y-39151804D01*
X80398199Y-39150600D01*
X81298201Y-39150600D01*
X81322705Y-39151804D01*
X81322705Y-39151804D01*
G37*
D11*
X80848200Y-39725600D03*
D10*
G36*
X98088705Y-53225404D02*
G01*
X98112973Y-53229004D01*
X98136772Y-53234965D01*
X98159871Y-53243230D01*
X98182050Y-53253720D01*
X98203093Y-53266332D01*
X98222799Y-53280947D01*
X98240977Y-53297423D01*
X98257453Y-53315601D01*
X98272068Y-53335307D01*
X98284680Y-53356350D01*
X98295170Y-53378529D01*
X98303435Y-53401628D01*
X98309396Y-53425427D01*
X98312996Y-53449695D01*
X98314200Y-53474199D01*
X98314200Y-54374201D01*
X98312996Y-54398705D01*
X98309396Y-54422973D01*
X98303435Y-54446772D01*
X98295170Y-54469871D01*
X98284680Y-54492050D01*
X98272068Y-54513093D01*
X98257453Y-54532799D01*
X98240977Y-54550977D01*
X98222799Y-54567453D01*
X98203093Y-54582068D01*
X98182050Y-54594680D01*
X98159871Y-54605170D01*
X98136772Y-54613435D01*
X98112973Y-54619396D01*
X98088705Y-54622996D01*
X98064201Y-54624200D01*
X97414199Y-54624200D01*
X97389695Y-54622996D01*
X97365427Y-54619396D01*
X97341628Y-54613435D01*
X97318529Y-54605170D01*
X97296350Y-54594680D01*
X97275307Y-54582068D01*
X97255601Y-54567453D01*
X97237423Y-54550977D01*
X97220947Y-54532799D01*
X97206332Y-54513093D01*
X97193720Y-54492050D01*
X97183230Y-54469871D01*
X97174965Y-54446772D01*
X97169004Y-54422973D01*
X97165404Y-54398705D01*
X97164200Y-54374201D01*
X97164200Y-53474199D01*
X97165404Y-53449695D01*
X97169004Y-53425427D01*
X97174965Y-53401628D01*
X97183230Y-53378529D01*
X97193720Y-53356350D01*
X97206332Y-53335307D01*
X97220947Y-53315601D01*
X97237423Y-53297423D01*
X97255601Y-53280947D01*
X97275307Y-53266332D01*
X97296350Y-53253720D01*
X97318529Y-53243230D01*
X97341628Y-53234965D01*
X97365427Y-53229004D01*
X97389695Y-53225404D01*
X97414199Y-53224200D01*
X98064201Y-53224200D01*
X98088705Y-53225404D01*
X98088705Y-53225404D01*
G37*
D11*
X97739200Y-53924200D03*
D10*
G36*
X96038705Y-53225404D02*
G01*
X96062973Y-53229004D01*
X96086772Y-53234965D01*
X96109871Y-53243230D01*
X96132050Y-53253720D01*
X96153093Y-53266332D01*
X96172799Y-53280947D01*
X96190977Y-53297423D01*
X96207453Y-53315601D01*
X96222068Y-53335307D01*
X96234680Y-53356350D01*
X96245170Y-53378529D01*
X96253435Y-53401628D01*
X96259396Y-53425427D01*
X96262996Y-53449695D01*
X96264200Y-53474199D01*
X96264200Y-54374201D01*
X96262996Y-54398705D01*
X96259396Y-54422973D01*
X96253435Y-54446772D01*
X96245170Y-54469871D01*
X96234680Y-54492050D01*
X96222068Y-54513093D01*
X96207453Y-54532799D01*
X96190977Y-54550977D01*
X96172799Y-54567453D01*
X96153093Y-54582068D01*
X96132050Y-54594680D01*
X96109871Y-54605170D01*
X96086772Y-54613435D01*
X96062973Y-54619396D01*
X96038705Y-54622996D01*
X96014201Y-54624200D01*
X95364199Y-54624200D01*
X95339695Y-54622996D01*
X95315427Y-54619396D01*
X95291628Y-54613435D01*
X95268529Y-54605170D01*
X95246350Y-54594680D01*
X95225307Y-54582068D01*
X95205601Y-54567453D01*
X95187423Y-54550977D01*
X95170947Y-54532799D01*
X95156332Y-54513093D01*
X95143720Y-54492050D01*
X95133230Y-54469871D01*
X95124965Y-54446772D01*
X95119004Y-54422973D01*
X95115404Y-54398705D01*
X95114200Y-54374201D01*
X95114200Y-53474199D01*
X95115404Y-53449695D01*
X95119004Y-53425427D01*
X95124965Y-53401628D01*
X95133230Y-53378529D01*
X95143720Y-53356350D01*
X95156332Y-53335307D01*
X95170947Y-53315601D01*
X95187423Y-53297423D01*
X95205601Y-53280947D01*
X95225307Y-53266332D01*
X95246350Y-53253720D01*
X95268529Y-53243230D01*
X95291628Y-53234965D01*
X95315427Y-53229004D01*
X95339695Y-53225404D01*
X95364199Y-53224200D01*
X96014201Y-53224200D01*
X96038705Y-53225404D01*
X96038705Y-53225404D01*
G37*
D11*
X95689200Y-53924200D03*
D10*
G36*
X96038705Y-55765404D02*
G01*
X96062973Y-55769004D01*
X96086772Y-55774965D01*
X96109871Y-55783230D01*
X96132050Y-55793720D01*
X96153093Y-55806332D01*
X96172799Y-55820947D01*
X96190977Y-55837423D01*
X96207453Y-55855601D01*
X96222068Y-55875307D01*
X96234680Y-55896350D01*
X96245170Y-55918529D01*
X96253435Y-55941628D01*
X96259396Y-55965427D01*
X96262996Y-55989695D01*
X96264200Y-56014199D01*
X96264200Y-56914201D01*
X96262996Y-56938705D01*
X96259396Y-56962973D01*
X96253435Y-56986772D01*
X96245170Y-57009871D01*
X96234680Y-57032050D01*
X96222068Y-57053093D01*
X96207453Y-57072799D01*
X96190977Y-57090977D01*
X96172799Y-57107453D01*
X96153093Y-57122068D01*
X96132050Y-57134680D01*
X96109871Y-57145170D01*
X96086772Y-57153435D01*
X96062973Y-57159396D01*
X96038705Y-57162996D01*
X96014201Y-57164200D01*
X95364199Y-57164200D01*
X95339695Y-57162996D01*
X95315427Y-57159396D01*
X95291628Y-57153435D01*
X95268529Y-57145170D01*
X95246350Y-57134680D01*
X95225307Y-57122068D01*
X95205601Y-57107453D01*
X95187423Y-57090977D01*
X95170947Y-57072799D01*
X95156332Y-57053093D01*
X95143720Y-57032050D01*
X95133230Y-57009871D01*
X95124965Y-56986772D01*
X95119004Y-56962973D01*
X95115404Y-56938705D01*
X95114200Y-56914201D01*
X95114200Y-56014199D01*
X95115404Y-55989695D01*
X95119004Y-55965427D01*
X95124965Y-55941628D01*
X95133230Y-55918529D01*
X95143720Y-55896350D01*
X95156332Y-55875307D01*
X95170947Y-55855601D01*
X95187423Y-55837423D01*
X95205601Y-55820947D01*
X95225307Y-55806332D01*
X95246350Y-55793720D01*
X95268529Y-55783230D01*
X95291628Y-55774965D01*
X95315427Y-55769004D01*
X95339695Y-55765404D01*
X95364199Y-55764200D01*
X96014201Y-55764200D01*
X96038705Y-55765404D01*
X96038705Y-55765404D01*
G37*
D11*
X95689200Y-56464200D03*
D10*
G36*
X98088705Y-55765404D02*
G01*
X98112973Y-55769004D01*
X98136772Y-55774965D01*
X98159871Y-55783230D01*
X98182050Y-55793720D01*
X98203093Y-55806332D01*
X98222799Y-55820947D01*
X98240977Y-55837423D01*
X98257453Y-55855601D01*
X98272068Y-55875307D01*
X98284680Y-55896350D01*
X98295170Y-55918529D01*
X98303435Y-55941628D01*
X98309396Y-55965427D01*
X98312996Y-55989695D01*
X98314200Y-56014199D01*
X98314200Y-56914201D01*
X98312996Y-56938705D01*
X98309396Y-56962973D01*
X98303435Y-56986772D01*
X98295170Y-57009871D01*
X98284680Y-57032050D01*
X98272068Y-57053093D01*
X98257453Y-57072799D01*
X98240977Y-57090977D01*
X98222799Y-57107453D01*
X98203093Y-57122068D01*
X98182050Y-57134680D01*
X98159871Y-57145170D01*
X98136772Y-57153435D01*
X98112973Y-57159396D01*
X98088705Y-57162996D01*
X98064201Y-57164200D01*
X97414199Y-57164200D01*
X97389695Y-57162996D01*
X97365427Y-57159396D01*
X97341628Y-57153435D01*
X97318529Y-57145170D01*
X97296350Y-57134680D01*
X97275307Y-57122068D01*
X97255601Y-57107453D01*
X97237423Y-57090977D01*
X97220947Y-57072799D01*
X97206332Y-57053093D01*
X97193720Y-57032050D01*
X97183230Y-57009871D01*
X97174965Y-56986772D01*
X97169004Y-56962973D01*
X97165404Y-56938705D01*
X97164200Y-56914201D01*
X97164200Y-56014199D01*
X97165404Y-55989695D01*
X97169004Y-55965427D01*
X97174965Y-55941628D01*
X97183230Y-55918529D01*
X97193720Y-55896350D01*
X97206332Y-55875307D01*
X97220947Y-55855601D01*
X97237423Y-55837423D01*
X97255601Y-55820947D01*
X97275307Y-55806332D01*
X97296350Y-55793720D01*
X97318529Y-55783230D01*
X97341628Y-55774965D01*
X97365427Y-55769004D01*
X97389695Y-55765404D01*
X97414199Y-55764200D01*
X98064201Y-55764200D01*
X98088705Y-55765404D01*
X98088705Y-55765404D01*
G37*
D11*
X97739200Y-56464200D03*
D10*
G36*
X111492825Y-53345324D02*
G01*
X111517093Y-53348924D01*
X111540892Y-53354885D01*
X111563991Y-53363150D01*
X111586170Y-53373640D01*
X111607213Y-53386252D01*
X111626919Y-53400867D01*
X111645097Y-53417343D01*
X111661573Y-53435521D01*
X111676188Y-53455227D01*
X111688800Y-53476270D01*
X111699290Y-53498449D01*
X111707555Y-53521548D01*
X111713516Y-53545347D01*
X111717116Y-53569615D01*
X111718320Y-53594119D01*
X111718320Y-54244121D01*
X111717116Y-54268625D01*
X111713516Y-54292893D01*
X111707555Y-54316692D01*
X111699290Y-54339791D01*
X111688800Y-54361970D01*
X111676188Y-54383013D01*
X111661573Y-54402719D01*
X111645097Y-54420897D01*
X111626919Y-54437373D01*
X111607213Y-54451988D01*
X111586170Y-54464600D01*
X111563991Y-54475090D01*
X111540892Y-54483355D01*
X111517093Y-54489316D01*
X111492825Y-54492916D01*
X111468321Y-54494120D01*
X110568319Y-54494120D01*
X110543815Y-54492916D01*
X110519547Y-54489316D01*
X110495748Y-54483355D01*
X110472649Y-54475090D01*
X110450470Y-54464600D01*
X110429427Y-54451988D01*
X110409721Y-54437373D01*
X110391543Y-54420897D01*
X110375067Y-54402719D01*
X110360452Y-54383013D01*
X110347840Y-54361970D01*
X110337350Y-54339791D01*
X110329085Y-54316692D01*
X110323124Y-54292893D01*
X110319524Y-54268625D01*
X110318320Y-54244121D01*
X110318320Y-53594119D01*
X110319524Y-53569615D01*
X110323124Y-53545347D01*
X110329085Y-53521548D01*
X110337350Y-53498449D01*
X110347840Y-53476270D01*
X110360452Y-53455227D01*
X110375067Y-53435521D01*
X110391543Y-53417343D01*
X110409721Y-53400867D01*
X110429427Y-53386252D01*
X110450470Y-53373640D01*
X110472649Y-53363150D01*
X110495748Y-53354885D01*
X110519547Y-53348924D01*
X110543815Y-53345324D01*
X110568319Y-53344120D01*
X111468321Y-53344120D01*
X111492825Y-53345324D01*
X111492825Y-53345324D01*
G37*
D11*
X111018320Y-53919120D03*
D10*
G36*
X111492825Y-55395324D02*
G01*
X111517093Y-55398924D01*
X111540892Y-55404885D01*
X111563991Y-55413150D01*
X111586170Y-55423640D01*
X111607213Y-55436252D01*
X111626919Y-55450867D01*
X111645097Y-55467343D01*
X111661573Y-55485521D01*
X111676188Y-55505227D01*
X111688800Y-55526270D01*
X111699290Y-55548449D01*
X111707555Y-55571548D01*
X111713516Y-55595347D01*
X111717116Y-55619615D01*
X111718320Y-55644119D01*
X111718320Y-56294121D01*
X111717116Y-56318625D01*
X111713516Y-56342893D01*
X111707555Y-56366692D01*
X111699290Y-56389791D01*
X111688800Y-56411970D01*
X111676188Y-56433013D01*
X111661573Y-56452719D01*
X111645097Y-56470897D01*
X111626919Y-56487373D01*
X111607213Y-56501988D01*
X111586170Y-56514600D01*
X111563991Y-56525090D01*
X111540892Y-56533355D01*
X111517093Y-56539316D01*
X111492825Y-56542916D01*
X111468321Y-56544120D01*
X110568319Y-56544120D01*
X110543815Y-56542916D01*
X110519547Y-56539316D01*
X110495748Y-56533355D01*
X110472649Y-56525090D01*
X110450470Y-56514600D01*
X110429427Y-56501988D01*
X110409721Y-56487373D01*
X110391543Y-56470897D01*
X110375067Y-56452719D01*
X110360452Y-56433013D01*
X110347840Y-56411970D01*
X110337350Y-56389791D01*
X110329085Y-56366692D01*
X110323124Y-56342893D01*
X110319524Y-56318625D01*
X110318320Y-56294121D01*
X110318320Y-55644119D01*
X110319524Y-55619615D01*
X110323124Y-55595347D01*
X110329085Y-55571548D01*
X110337350Y-55548449D01*
X110347840Y-55526270D01*
X110360452Y-55505227D01*
X110375067Y-55485521D01*
X110391543Y-55467343D01*
X110409721Y-55450867D01*
X110429427Y-55436252D01*
X110450470Y-55423640D01*
X110472649Y-55413150D01*
X110495748Y-55404885D01*
X110519547Y-55398924D01*
X110543815Y-55395324D01*
X110568319Y-55394120D01*
X111468321Y-55394120D01*
X111492825Y-55395324D01*
X111492825Y-55395324D01*
G37*
D11*
X111018320Y-55969120D03*
D10*
G36*
X67066705Y-78568504D02*
G01*
X67090973Y-78572104D01*
X67114772Y-78578065D01*
X67137871Y-78586330D01*
X67160050Y-78596820D01*
X67181093Y-78609432D01*
X67200799Y-78624047D01*
X67218977Y-78640523D01*
X67235453Y-78658701D01*
X67250068Y-78678407D01*
X67262680Y-78699450D01*
X67273170Y-78721629D01*
X67281435Y-78744728D01*
X67287396Y-78768527D01*
X67290996Y-78792795D01*
X67292200Y-78817299D01*
X67292200Y-79717301D01*
X67290996Y-79741805D01*
X67287396Y-79766073D01*
X67281435Y-79789872D01*
X67273170Y-79812971D01*
X67262680Y-79835150D01*
X67250068Y-79856193D01*
X67235453Y-79875899D01*
X67218977Y-79894077D01*
X67200799Y-79910553D01*
X67181093Y-79925168D01*
X67160050Y-79937780D01*
X67137871Y-79948270D01*
X67114772Y-79956535D01*
X67090973Y-79962496D01*
X67066705Y-79966096D01*
X67042201Y-79967300D01*
X66392199Y-79967300D01*
X66367695Y-79966096D01*
X66343427Y-79962496D01*
X66319628Y-79956535D01*
X66296529Y-79948270D01*
X66274350Y-79937780D01*
X66253307Y-79925168D01*
X66233601Y-79910553D01*
X66215423Y-79894077D01*
X66198947Y-79875899D01*
X66184332Y-79856193D01*
X66171720Y-79835150D01*
X66161230Y-79812971D01*
X66152965Y-79789872D01*
X66147004Y-79766073D01*
X66143404Y-79741805D01*
X66142200Y-79717301D01*
X66142200Y-78817299D01*
X66143404Y-78792795D01*
X66147004Y-78768527D01*
X66152965Y-78744728D01*
X66161230Y-78721629D01*
X66171720Y-78699450D01*
X66184332Y-78678407D01*
X66198947Y-78658701D01*
X66215423Y-78640523D01*
X66233601Y-78624047D01*
X66253307Y-78609432D01*
X66274350Y-78596820D01*
X66296529Y-78586330D01*
X66319628Y-78578065D01*
X66343427Y-78572104D01*
X66367695Y-78568504D01*
X66392199Y-78567300D01*
X67042201Y-78567300D01*
X67066705Y-78568504D01*
X67066705Y-78568504D01*
G37*
D11*
X66717200Y-79267300D03*
D10*
G36*
X69116705Y-78568504D02*
G01*
X69140973Y-78572104D01*
X69164772Y-78578065D01*
X69187871Y-78586330D01*
X69210050Y-78596820D01*
X69231093Y-78609432D01*
X69250799Y-78624047D01*
X69268977Y-78640523D01*
X69285453Y-78658701D01*
X69300068Y-78678407D01*
X69312680Y-78699450D01*
X69323170Y-78721629D01*
X69331435Y-78744728D01*
X69337396Y-78768527D01*
X69340996Y-78792795D01*
X69342200Y-78817299D01*
X69342200Y-79717301D01*
X69340996Y-79741805D01*
X69337396Y-79766073D01*
X69331435Y-79789872D01*
X69323170Y-79812971D01*
X69312680Y-79835150D01*
X69300068Y-79856193D01*
X69285453Y-79875899D01*
X69268977Y-79894077D01*
X69250799Y-79910553D01*
X69231093Y-79925168D01*
X69210050Y-79937780D01*
X69187871Y-79948270D01*
X69164772Y-79956535D01*
X69140973Y-79962496D01*
X69116705Y-79966096D01*
X69092201Y-79967300D01*
X68442199Y-79967300D01*
X68417695Y-79966096D01*
X68393427Y-79962496D01*
X68369628Y-79956535D01*
X68346529Y-79948270D01*
X68324350Y-79937780D01*
X68303307Y-79925168D01*
X68283601Y-79910553D01*
X68265423Y-79894077D01*
X68248947Y-79875899D01*
X68234332Y-79856193D01*
X68221720Y-79835150D01*
X68211230Y-79812971D01*
X68202965Y-79789872D01*
X68197004Y-79766073D01*
X68193404Y-79741805D01*
X68192200Y-79717301D01*
X68192200Y-78817299D01*
X68193404Y-78792795D01*
X68197004Y-78768527D01*
X68202965Y-78744728D01*
X68211230Y-78721629D01*
X68221720Y-78699450D01*
X68234332Y-78678407D01*
X68248947Y-78658701D01*
X68265423Y-78640523D01*
X68283601Y-78624047D01*
X68303307Y-78609432D01*
X68324350Y-78596820D01*
X68346529Y-78586330D01*
X68369628Y-78578065D01*
X68393427Y-78572104D01*
X68417695Y-78568504D01*
X68442199Y-78567300D01*
X69092201Y-78567300D01*
X69116705Y-78568504D01*
X69116705Y-78568504D01*
G37*
D11*
X68767200Y-79267300D03*
D10*
G36*
X63040805Y-78581204D02*
G01*
X63065073Y-78584804D01*
X63088872Y-78590765D01*
X63111971Y-78599030D01*
X63134150Y-78609520D01*
X63155193Y-78622132D01*
X63174899Y-78636747D01*
X63193077Y-78653223D01*
X63209553Y-78671401D01*
X63224168Y-78691107D01*
X63236780Y-78712150D01*
X63247270Y-78734329D01*
X63255535Y-78757428D01*
X63261496Y-78781227D01*
X63265096Y-78805495D01*
X63266300Y-78829999D01*
X63266300Y-79730001D01*
X63265096Y-79754505D01*
X63261496Y-79778773D01*
X63255535Y-79802572D01*
X63247270Y-79825671D01*
X63236780Y-79847850D01*
X63224168Y-79868893D01*
X63209553Y-79888599D01*
X63193077Y-79906777D01*
X63174899Y-79923253D01*
X63155193Y-79937868D01*
X63134150Y-79950480D01*
X63111971Y-79960970D01*
X63088872Y-79969235D01*
X63065073Y-79975196D01*
X63040805Y-79978796D01*
X63016301Y-79980000D01*
X62366299Y-79980000D01*
X62341795Y-79978796D01*
X62317527Y-79975196D01*
X62293728Y-79969235D01*
X62270629Y-79960970D01*
X62248450Y-79950480D01*
X62227407Y-79937868D01*
X62207701Y-79923253D01*
X62189523Y-79906777D01*
X62173047Y-79888599D01*
X62158432Y-79868893D01*
X62145820Y-79847850D01*
X62135330Y-79825671D01*
X62127065Y-79802572D01*
X62121104Y-79778773D01*
X62117504Y-79754505D01*
X62116300Y-79730001D01*
X62116300Y-78829999D01*
X62117504Y-78805495D01*
X62121104Y-78781227D01*
X62127065Y-78757428D01*
X62135330Y-78734329D01*
X62145820Y-78712150D01*
X62158432Y-78691107D01*
X62173047Y-78671401D01*
X62189523Y-78653223D01*
X62207701Y-78636747D01*
X62227407Y-78622132D01*
X62248450Y-78609520D01*
X62270629Y-78599030D01*
X62293728Y-78590765D01*
X62317527Y-78584804D01*
X62341795Y-78581204D01*
X62366299Y-78580000D01*
X63016301Y-78580000D01*
X63040805Y-78581204D01*
X63040805Y-78581204D01*
G37*
D11*
X62691300Y-79280000D03*
D10*
G36*
X65090805Y-78581204D02*
G01*
X65115073Y-78584804D01*
X65138872Y-78590765D01*
X65161971Y-78599030D01*
X65184150Y-78609520D01*
X65205193Y-78622132D01*
X65224899Y-78636747D01*
X65243077Y-78653223D01*
X65259553Y-78671401D01*
X65274168Y-78691107D01*
X65286780Y-78712150D01*
X65297270Y-78734329D01*
X65305535Y-78757428D01*
X65311496Y-78781227D01*
X65315096Y-78805495D01*
X65316300Y-78829999D01*
X65316300Y-79730001D01*
X65315096Y-79754505D01*
X65311496Y-79778773D01*
X65305535Y-79802572D01*
X65297270Y-79825671D01*
X65286780Y-79847850D01*
X65274168Y-79868893D01*
X65259553Y-79888599D01*
X65243077Y-79906777D01*
X65224899Y-79923253D01*
X65205193Y-79937868D01*
X65184150Y-79950480D01*
X65161971Y-79960970D01*
X65138872Y-79969235D01*
X65115073Y-79975196D01*
X65090805Y-79978796D01*
X65066301Y-79980000D01*
X64416299Y-79980000D01*
X64391795Y-79978796D01*
X64367527Y-79975196D01*
X64343728Y-79969235D01*
X64320629Y-79960970D01*
X64298450Y-79950480D01*
X64277407Y-79937868D01*
X64257701Y-79923253D01*
X64239523Y-79906777D01*
X64223047Y-79888599D01*
X64208432Y-79868893D01*
X64195820Y-79847850D01*
X64185330Y-79825671D01*
X64177065Y-79802572D01*
X64171104Y-79778773D01*
X64167504Y-79754505D01*
X64166300Y-79730001D01*
X64166300Y-78829999D01*
X64167504Y-78805495D01*
X64171104Y-78781227D01*
X64177065Y-78757428D01*
X64185330Y-78734329D01*
X64195820Y-78712150D01*
X64208432Y-78691107D01*
X64223047Y-78671401D01*
X64239523Y-78653223D01*
X64257701Y-78636747D01*
X64277407Y-78622132D01*
X64298450Y-78609520D01*
X64320629Y-78599030D01*
X64343728Y-78590765D01*
X64367527Y-78584804D01*
X64391795Y-78581204D01*
X64416299Y-78580000D01*
X65066301Y-78580000D01*
X65090805Y-78581204D01*
X65090805Y-78581204D01*
G37*
D11*
X64741300Y-79280000D03*
D10*
G36*
X77028805Y-78555804D02*
G01*
X77053073Y-78559404D01*
X77076872Y-78565365D01*
X77099971Y-78573630D01*
X77122150Y-78584120D01*
X77143193Y-78596732D01*
X77162899Y-78611347D01*
X77181077Y-78627823D01*
X77197553Y-78646001D01*
X77212168Y-78665707D01*
X77224780Y-78686750D01*
X77235270Y-78708929D01*
X77243535Y-78732028D01*
X77249496Y-78755827D01*
X77253096Y-78780095D01*
X77254300Y-78804599D01*
X77254300Y-79704601D01*
X77253096Y-79729105D01*
X77249496Y-79753373D01*
X77243535Y-79777172D01*
X77235270Y-79800271D01*
X77224780Y-79822450D01*
X77212168Y-79843493D01*
X77197553Y-79863199D01*
X77181077Y-79881377D01*
X77162899Y-79897853D01*
X77143193Y-79912468D01*
X77122150Y-79925080D01*
X77099971Y-79935570D01*
X77076872Y-79943835D01*
X77053073Y-79949796D01*
X77028805Y-79953396D01*
X77004301Y-79954600D01*
X76354299Y-79954600D01*
X76329795Y-79953396D01*
X76305527Y-79949796D01*
X76281728Y-79943835D01*
X76258629Y-79935570D01*
X76236450Y-79925080D01*
X76215407Y-79912468D01*
X76195701Y-79897853D01*
X76177523Y-79881377D01*
X76161047Y-79863199D01*
X76146432Y-79843493D01*
X76133820Y-79822450D01*
X76123330Y-79800271D01*
X76115065Y-79777172D01*
X76109104Y-79753373D01*
X76105504Y-79729105D01*
X76104300Y-79704601D01*
X76104300Y-78804599D01*
X76105504Y-78780095D01*
X76109104Y-78755827D01*
X76115065Y-78732028D01*
X76123330Y-78708929D01*
X76133820Y-78686750D01*
X76146432Y-78665707D01*
X76161047Y-78646001D01*
X76177523Y-78627823D01*
X76195701Y-78611347D01*
X76215407Y-78596732D01*
X76236450Y-78584120D01*
X76258629Y-78573630D01*
X76281728Y-78565365D01*
X76305527Y-78559404D01*
X76329795Y-78555804D01*
X76354299Y-78554600D01*
X77004301Y-78554600D01*
X77028805Y-78555804D01*
X77028805Y-78555804D01*
G37*
D11*
X76679300Y-79254600D03*
D10*
G36*
X79078805Y-78555804D02*
G01*
X79103073Y-78559404D01*
X79126872Y-78565365D01*
X79149971Y-78573630D01*
X79172150Y-78584120D01*
X79193193Y-78596732D01*
X79212899Y-78611347D01*
X79231077Y-78627823D01*
X79247553Y-78646001D01*
X79262168Y-78665707D01*
X79274780Y-78686750D01*
X79285270Y-78708929D01*
X79293535Y-78732028D01*
X79299496Y-78755827D01*
X79303096Y-78780095D01*
X79304300Y-78804599D01*
X79304300Y-79704601D01*
X79303096Y-79729105D01*
X79299496Y-79753373D01*
X79293535Y-79777172D01*
X79285270Y-79800271D01*
X79274780Y-79822450D01*
X79262168Y-79843493D01*
X79247553Y-79863199D01*
X79231077Y-79881377D01*
X79212899Y-79897853D01*
X79193193Y-79912468D01*
X79172150Y-79925080D01*
X79149971Y-79935570D01*
X79126872Y-79943835D01*
X79103073Y-79949796D01*
X79078805Y-79953396D01*
X79054301Y-79954600D01*
X78404299Y-79954600D01*
X78379795Y-79953396D01*
X78355527Y-79949796D01*
X78331728Y-79943835D01*
X78308629Y-79935570D01*
X78286450Y-79925080D01*
X78265407Y-79912468D01*
X78245701Y-79897853D01*
X78227523Y-79881377D01*
X78211047Y-79863199D01*
X78196432Y-79843493D01*
X78183820Y-79822450D01*
X78173330Y-79800271D01*
X78165065Y-79777172D01*
X78159104Y-79753373D01*
X78155504Y-79729105D01*
X78154300Y-79704601D01*
X78154300Y-78804599D01*
X78155504Y-78780095D01*
X78159104Y-78755827D01*
X78165065Y-78732028D01*
X78173330Y-78708929D01*
X78183820Y-78686750D01*
X78196432Y-78665707D01*
X78211047Y-78646001D01*
X78227523Y-78627823D01*
X78245701Y-78611347D01*
X78265407Y-78596732D01*
X78286450Y-78584120D01*
X78308629Y-78573630D01*
X78331728Y-78565365D01*
X78355527Y-78559404D01*
X78379795Y-78555804D01*
X78404299Y-78554600D01*
X79054301Y-78554600D01*
X79078805Y-78555804D01*
X79078805Y-78555804D01*
G37*
D11*
X78729300Y-79254600D03*
D10*
G36*
X74565005Y-78555804D02*
G01*
X74589273Y-78559404D01*
X74613072Y-78565365D01*
X74636171Y-78573630D01*
X74658350Y-78584120D01*
X74679393Y-78596732D01*
X74699099Y-78611347D01*
X74717277Y-78627823D01*
X74733753Y-78646001D01*
X74748368Y-78665707D01*
X74760980Y-78686750D01*
X74771470Y-78708929D01*
X74779735Y-78732028D01*
X74785696Y-78755827D01*
X74789296Y-78780095D01*
X74790500Y-78804599D01*
X74790500Y-79704601D01*
X74789296Y-79729105D01*
X74785696Y-79753373D01*
X74779735Y-79777172D01*
X74771470Y-79800271D01*
X74760980Y-79822450D01*
X74748368Y-79843493D01*
X74733753Y-79863199D01*
X74717277Y-79881377D01*
X74699099Y-79897853D01*
X74679393Y-79912468D01*
X74658350Y-79925080D01*
X74636171Y-79935570D01*
X74613072Y-79943835D01*
X74589273Y-79949796D01*
X74565005Y-79953396D01*
X74540501Y-79954600D01*
X73890499Y-79954600D01*
X73865995Y-79953396D01*
X73841727Y-79949796D01*
X73817928Y-79943835D01*
X73794829Y-79935570D01*
X73772650Y-79925080D01*
X73751607Y-79912468D01*
X73731901Y-79897853D01*
X73713723Y-79881377D01*
X73697247Y-79863199D01*
X73682632Y-79843493D01*
X73670020Y-79822450D01*
X73659530Y-79800271D01*
X73651265Y-79777172D01*
X73645304Y-79753373D01*
X73641704Y-79729105D01*
X73640500Y-79704601D01*
X73640500Y-78804599D01*
X73641704Y-78780095D01*
X73645304Y-78755827D01*
X73651265Y-78732028D01*
X73659530Y-78708929D01*
X73670020Y-78686750D01*
X73682632Y-78665707D01*
X73697247Y-78646001D01*
X73713723Y-78627823D01*
X73731901Y-78611347D01*
X73751607Y-78596732D01*
X73772650Y-78584120D01*
X73794829Y-78573630D01*
X73817928Y-78565365D01*
X73841727Y-78559404D01*
X73865995Y-78555804D01*
X73890499Y-78554600D01*
X74540501Y-78554600D01*
X74565005Y-78555804D01*
X74565005Y-78555804D01*
G37*
D11*
X74215500Y-79254600D03*
D10*
G36*
X72515005Y-78555804D02*
G01*
X72539273Y-78559404D01*
X72563072Y-78565365D01*
X72586171Y-78573630D01*
X72608350Y-78584120D01*
X72629393Y-78596732D01*
X72649099Y-78611347D01*
X72667277Y-78627823D01*
X72683753Y-78646001D01*
X72698368Y-78665707D01*
X72710980Y-78686750D01*
X72721470Y-78708929D01*
X72729735Y-78732028D01*
X72735696Y-78755827D01*
X72739296Y-78780095D01*
X72740500Y-78804599D01*
X72740500Y-79704601D01*
X72739296Y-79729105D01*
X72735696Y-79753373D01*
X72729735Y-79777172D01*
X72721470Y-79800271D01*
X72710980Y-79822450D01*
X72698368Y-79843493D01*
X72683753Y-79863199D01*
X72667277Y-79881377D01*
X72649099Y-79897853D01*
X72629393Y-79912468D01*
X72608350Y-79925080D01*
X72586171Y-79935570D01*
X72563072Y-79943835D01*
X72539273Y-79949796D01*
X72515005Y-79953396D01*
X72490501Y-79954600D01*
X71840499Y-79954600D01*
X71815995Y-79953396D01*
X71791727Y-79949796D01*
X71767928Y-79943835D01*
X71744829Y-79935570D01*
X71722650Y-79925080D01*
X71701607Y-79912468D01*
X71681901Y-79897853D01*
X71663723Y-79881377D01*
X71647247Y-79863199D01*
X71632632Y-79843493D01*
X71620020Y-79822450D01*
X71609530Y-79800271D01*
X71601265Y-79777172D01*
X71595304Y-79753373D01*
X71591704Y-79729105D01*
X71590500Y-79704601D01*
X71590500Y-78804599D01*
X71591704Y-78780095D01*
X71595304Y-78755827D01*
X71601265Y-78732028D01*
X71609530Y-78708929D01*
X71620020Y-78686750D01*
X71632632Y-78665707D01*
X71647247Y-78646001D01*
X71663723Y-78627823D01*
X71681901Y-78611347D01*
X71701607Y-78596732D01*
X71722650Y-78584120D01*
X71744829Y-78573630D01*
X71767928Y-78565365D01*
X71791727Y-78559404D01*
X71815995Y-78555804D01*
X71840499Y-78554600D01*
X72490501Y-78554600D01*
X72515005Y-78555804D01*
X72515005Y-78555804D01*
G37*
D11*
X72165500Y-79254600D03*
D10*
G36*
X111171705Y-78678804D02*
G01*
X111195973Y-78682404D01*
X111219772Y-78688365D01*
X111242871Y-78696630D01*
X111265050Y-78707120D01*
X111286093Y-78719732D01*
X111305799Y-78734347D01*
X111323977Y-78750823D01*
X111340453Y-78769001D01*
X111355068Y-78788707D01*
X111367680Y-78809750D01*
X111378170Y-78831929D01*
X111386435Y-78855028D01*
X111392396Y-78878827D01*
X111395996Y-78903095D01*
X111397200Y-78927599D01*
X111397200Y-79577601D01*
X111395996Y-79602105D01*
X111392396Y-79626373D01*
X111386435Y-79650172D01*
X111378170Y-79673271D01*
X111367680Y-79695450D01*
X111355068Y-79716493D01*
X111340453Y-79736199D01*
X111323977Y-79754377D01*
X111305799Y-79770853D01*
X111286093Y-79785468D01*
X111265050Y-79798080D01*
X111242871Y-79808570D01*
X111219772Y-79816835D01*
X111195973Y-79822796D01*
X111171705Y-79826396D01*
X111147201Y-79827600D01*
X110247199Y-79827600D01*
X110222695Y-79826396D01*
X110198427Y-79822796D01*
X110174628Y-79816835D01*
X110151529Y-79808570D01*
X110129350Y-79798080D01*
X110108307Y-79785468D01*
X110088601Y-79770853D01*
X110070423Y-79754377D01*
X110053947Y-79736199D01*
X110039332Y-79716493D01*
X110026720Y-79695450D01*
X110016230Y-79673271D01*
X110007965Y-79650172D01*
X110002004Y-79626373D01*
X109998404Y-79602105D01*
X109997200Y-79577601D01*
X109997200Y-78927599D01*
X109998404Y-78903095D01*
X110002004Y-78878827D01*
X110007965Y-78855028D01*
X110016230Y-78831929D01*
X110026720Y-78809750D01*
X110039332Y-78788707D01*
X110053947Y-78769001D01*
X110070423Y-78750823D01*
X110088601Y-78734347D01*
X110108307Y-78719732D01*
X110129350Y-78707120D01*
X110151529Y-78696630D01*
X110174628Y-78688365D01*
X110198427Y-78682404D01*
X110222695Y-78678804D01*
X110247199Y-78677600D01*
X111147201Y-78677600D01*
X111171705Y-78678804D01*
X111171705Y-78678804D01*
G37*
D11*
X110697200Y-79252600D03*
D10*
G36*
X111171705Y-76628804D02*
G01*
X111195973Y-76632404D01*
X111219772Y-76638365D01*
X111242871Y-76646630D01*
X111265050Y-76657120D01*
X111286093Y-76669732D01*
X111305799Y-76684347D01*
X111323977Y-76700823D01*
X111340453Y-76719001D01*
X111355068Y-76738707D01*
X111367680Y-76759750D01*
X111378170Y-76781929D01*
X111386435Y-76805028D01*
X111392396Y-76828827D01*
X111395996Y-76853095D01*
X111397200Y-76877599D01*
X111397200Y-77527601D01*
X111395996Y-77552105D01*
X111392396Y-77576373D01*
X111386435Y-77600172D01*
X111378170Y-77623271D01*
X111367680Y-77645450D01*
X111355068Y-77666493D01*
X111340453Y-77686199D01*
X111323977Y-77704377D01*
X111305799Y-77720853D01*
X111286093Y-77735468D01*
X111265050Y-77748080D01*
X111242871Y-77758570D01*
X111219772Y-77766835D01*
X111195973Y-77772796D01*
X111171705Y-77776396D01*
X111147201Y-77777600D01*
X110247199Y-77777600D01*
X110222695Y-77776396D01*
X110198427Y-77772796D01*
X110174628Y-77766835D01*
X110151529Y-77758570D01*
X110129350Y-77748080D01*
X110108307Y-77735468D01*
X110088601Y-77720853D01*
X110070423Y-77704377D01*
X110053947Y-77686199D01*
X110039332Y-77666493D01*
X110026720Y-77645450D01*
X110016230Y-77623271D01*
X110007965Y-77600172D01*
X110002004Y-77576373D01*
X109998404Y-77552105D01*
X109997200Y-77527601D01*
X109997200Y-76877599D01*
X109998404Y-76853095D01*
X110002004Y-76828827D01*
X110007965Y-76805028D01*
X110016230Y-76781929D01*
X110026720Y-76759750D01*
X110039332Y-76738707D01*
X110053947Y-76719001D01*
X110070423Y-76700823D01*
X110088601Y-76684347D01*
X110108307Y-76669732D01*
X110129350Y-76657120D01*
X110151529Y-76646630D01*
X110174628Y-76638365D01*
X110198427Y-76632404D01*
X110222695Y-76628804D01*
X110247199Y-76627600D01*
X111147201Y-76627600D01*
X111171705Y-76628804D01*
X111171705Y-76628804D01*
G37*
D11*
X110697200Y-77202600D03*
D10*
G36*
X77507351Y-47100361D02*
G01*
X77514632Y-47101441D01*
X77521771Y-47103229D01*
X77528701Y-47105709D01*
X77535355Y-47108856D01*
X77541668Y-47112640D01*
X77547579Y-47117024D01*
X77553033Y-47121967D01*
X77557976Y-47127421D01*
X77562360Y-47133332D01*
X77566144Y-47139645D01*
X77569291Y-47146299D01*
X77571771Y-47153229D01*
X77573559Y-47160368D01*
X77574639Y-47167649D01*
X77575000Y-47175000D01*
X77575000Y-47325000D01*
X77574639Y-47332351D01*
X77573559Y-47339632D01*
X77571771Y-47346771D01*
X77569291Y-47353701D01*
X77566144Y-47360355D01*
X77562360Y-47366668D01*
X77557976Y-47372579D01*
X77553033Y-47378033D01*
X77547579Y-47382976D01*
X77541668Y-47387360D01*
X77535355Y-47391144D01*
X77528701Y-47394291D01*
X77521771Y-47396771D01*
X77514632Y-47398559D01*
X77507351Y-47399639D01*
X77500000Y-47400000D01*
X76175000Y-47400000D01*
X76167649Y-47399639D01*
X76160368Y-47398559D01*
X76153229Y-47396771D01*
X76146299Y-47394291D01*
X76139645Y-47391144D01*
X76133332Y-47387360D01*
X76127421Y-47382976D01*
X76121967Y-47378033D01*
X76117024Y-47372579D01*
X76112640Y-47366668D01*
X76108856Y-47360355D01*
X76105709Y-47353701D01*
X76103229Y-47346771D01*
X76101441Y-47339632D01*
X76100361Y-47332351D01*
X76100000Y-47325000D01*
X76100000Y-47175000D01*
X76100361Y-47167649D01*
X76101441Y-47160368D01*
X76103229Y-47153229D01*
X76105709Y-47146299D01*
X76108856Y-47139645D01*
X76112640Y-47133332D01*
X76117024Y-47127421D01*
X76121967Y-47121967D01*
X76127421Y-47117024D01*
X76133332Y-47112640D01*
X76139645Y-47108856D01*
X76146299Y-47105709D01*
X76153229Y-47103229D01*
X76160368Y-47101441D01*
X76167649Y-47100361D01*
X76175000Y-47100000D01*
X77500000Y-47100000D01*
X77507351Y-47100361D01*
X77507351Y-47100361D01*
G37*
D12*
X76837500Y-47250000D03*
D10*
G36*
X77507351Y-47600361D02*
G01*
X77514632Y-47601441D01*
X77521771Y-47603229D01*
X77528701Y-47605709D01*
X77535355Y-47608856D01*
X77541668Y-47612640D01*
X77547579Y-47617024D01*
X77553033Y-47621967D01*
X77557976Y-47627421D01*
X77562360Y-47633332D01*
X77566144Y-47639645D01*
X77569291Y-47646299D01*
X77571771Y-47653229D01*
X77573559Y-47660368D01*
X77574639Y-47667649D01*
X77575000Y-47675000D01*
X77575000Y-47825000D01*
X77574639Y-47832351D01*
X77573559Y-47839632D01*
X77571771Y-47846771D01*
X77569291Y-47853701D01*
X77566144Y-47860355D01*
X77562360Y-47866668D01*
X77557976Y-47872579D01*
X77553033Y-47878033D01*
X77547579Y-47882976D01*
X77541668Y-47887360D01*
X77535355Y-47891144D01*
X77528701Y-47894291D01*
X77521771Y-47896771D01*
X77514632Y-47898559D01*
X77507351Y-47899639D01*
X77500000Y-47900000D01*
X76175000Y-47900000D01*
X76167649Y-47899639D01*
X76160368Y-47898559D01*
X76153229Y-47896771D01*
X76146299Y-47894291D01*
X76139645Y-47891144D01*
X76133332Y-47887360D01*
X76127421Y-47882976D01*
X76121967Y-47878033D01*
X76117024Y-47872579D01*
X76112640Y-47866668D01*
X76108856Y-47860355D01*
X76105709Y-47853701D01*
X76103229Y-47846771D01*
X76101441Y-47839632D01*
X76100361Y-47832351D01*
X76100000Y-47825000D01*
X76100000Y-47675000D01*
X76100361Y-47667649D01*
X76101441Y-47660368D01*
X76103229Y-47653229D01*
X76105709Y-47646299D01*
X76108856Y-47639645D01*
X76112640Y-47633332D01*
X76117024Y-47627421D01*
X76121967Y-47621967D01*
X76127421Y-47617024D01*
X76133332Y-47612640D01*
X76139645Y-47608856D01*
X76146299Y-47605709D01*
X76153229Y-47603229D01*
X76160368Y-47601441D01*
X76167649Y-47600361D01*
X76175000Y-47600000D01*
X77500000Y-47600000D01*
X77507351Y-47600361D01*
X77507351Y-47600361D01*
G37*
D12*
X76837500Y-47750000D03*
D10*
G36*
X77507351Y-48100361D02*
G01*
X77514632Y-48101441D01*
X77521771Y-48103229D01*
X77528701Y-48105709D01*
X77535355Y-48108856D01*
X77541668Y-48112640D01*
X77547579Y-48117024D01*
X77553033Y-48121967D01*
X77557976Y-48127421D01*
X77562360Y-48133332D01*
X77566144Y-48139645D01*
X77569291Y-48146299D01*
X77571771Y-48153229D01*
X77573559Y-48160368D01*
X77574639Y-48167649D01*
X77575000Y-48175000D01*
X77575000Y-48325000D01*
X77574639Y-48332351D01*
X77573559Y-48339632D01*
X77571771Y-48346771D01*
X77569291Y-48353701D01*
X77566144Y-48360355D01*
X77562360Y-48366668D01*
X77557976Y-48372579D01*
X77553033Y-48378033D01*
X77547579Y-48382976D01*
X77541668Y-48387360D01*
X77535355Y-48391144D01*
X77528701Y-48394291D01*
X77521771Y-48396771D01*
X77514632Y-48398559D01*
X77507351Y-48399639D01*
X77500000Y-48400000D01*
X76175000Y-48400000D01*
X76167649Y-48399639D01*
X76160368Y-48398559D01*
X76153229Y-48396771D01*
X76146299Y-48394291D01*
X76139645Y-48391144D01*
X76133332Y-48387360D01*
X76127421Y-48382976D01*
X76121967Y-48378033D01*
X76117024Y-48372579D01*
X76112640Y-48366668D01*
X76108856Y-48360355D01*
X76105709Y-48353701D01*
X76103229Y-48346771D01*
X76101441Y-48339632D01*
X76100361Y-48332351D01*
X76100000Y-48325000D01*
X76100000Y-48175000D01*
X76100361Y-48167649D01*
X76101441Y-48160368D01*
X76103229Y-48153229D01*
X76105709Y-48146299D01*
X76108856Y-48139645D01*
X76112640Y-48133332D01*
X76117024Y-48127421D01*
X76121967Y-48121967D01*
X76127421Y-48117024D01*
X76133332Y-48112640D01*
X76139645Y-48108856D01*
X76146299Y-48105709D01*
X76153229Y-48103229D01*
X76160368Y-48101441D01*
X76167649Y-48100361D01*
X76175000Y-48100000D01*
X77500000Y-48100000D01*
X77507351Y-48100361D01*
X77507351Y-48100361D01*
G37*
D12*
X76837500Y-48250000D03*
D10*
G36*
X77507351Y-48600361D02*
G01*
X77514632Y-48601441D01*
X77521771Y-48603229D01*
X77528701Y-48605709D01*
X77535355Y-48608856D01*
X77541668Y-48612640D01*
X77547579Y-48617024D01*
X77553033Y-48621967D01*
X77557976Y-48627421D01*
X77562360Y-48633332D01*
X77566144Y-48639645D01*
X77569291Y-48646299D01*
X77571771Y-48653229D01*
X77573559Y-48660368D01*
X77574639Y-48667649D01*
X77575000Y-48675000D01*
X77575000Y-48825000D01*
X77574639Y-48832351D01*
X77573559Y-48839632D01*
X77571771Y-48846771D01*
X77569291Y-48853701D01*
X77566144Y-48860355D01*
X77562360Y-48866668D01*
X77557976Y-48872579D01*
X77553033Y-48878033D01*
X77547579Y-48882976D01*
X77541668Y-48887360D01*
X77535355Y-48891144D01*
X77528701Y-48894291D01*
X77521771Y-48896771D01*
X77514632Y-48898559D01*
X77507351Y-48899639D01*
X77500000Y-48900000D01*
X76175000Y-48900000D01*
X76167649Y-48899639D01*
X76160368Y-48898559D01*
X76153229Y-48896771D01*
X76146299Y-48894291D01*
X76139645Y-48891144D01*
X76133332Y-48887360D01*
X76127421Y-48882976D01*
X76121967Y-48878033D01*
X76117024Y-48872579D01*
X76112640Y-48866668D01*
X76108856Y-48860355D01*
X76105709Y-48853701D01*
X76103229Y-48846771D01*
X76101441Y-48839632D01*
X76100361Y-48832351D01*
X76100000Y-48825000D01*
X76100000Y-48675000D01*
X76100361Y-48667649D01*
X76101441Y-48660368D01*
X76103229Y-48653229D01*
X76105709Y-48646299D01*
X76108856Y-48639645D01*
X76112640Y-48633332D01*
X76117024Y-48627421D01*
X76121967Y-48621967D01*
X76127421Y-48617024D01*
X76133332Y-48612640D01*
X76139645Y-48608856D01*
X76146299Y-48605709D01*
X76153229Y-48603229D01*
X76160368Y-48601441D01*
X76167649Y-48600361D01*
X76175000Y-48600000D01*
X77500000Y-48600000D01*
X77507351Y-48600361D01*
X77507351Y-48600361D01*
G37*
D12*
X76837500Y-48750000D03*
D10*
G36*
X77507351Y-49100361D02*
G01*
X77514632Y-49101441D01*
X77521771Y-49103229D01*
X77528701Y-49105709D01*
X77535355Y-49108856D01*
X77541668Y-49112640D01*
X77547579Y-49117024D01*
X77553033Y-49121967D01*
X77557976Y-49127421D01*
X77562360Y-49133332D01*
X77566144Y-49139645D01*
X77569291Y-49146299D01*
X77571771Y-49153229D01*
X77573559Y-49160368D01*
X77574639Y-49167649D01*
X77575000Y-49175000D01*
X77575000Y-49325000D01*
X77574639Y-49332351D01*
X77573559Y-49339632D01*
X77571771Y-49346771D01*
X77569291Y-49353701D01*
X77566144Y-49360355D01*
X77562360Y-49366668D01*
X77557976Y-49372579D01*
X77553033Y-49378033D01*
X77547579Y-49382976D01*
X77541668Y-49387360D01*
X77535355Y-49391144D01*
X77528701Y-49394291D01*
X77521771Y-49396771D01*
X77514632Y-49398559D01*
X77507351Y-49399639D01*
X77500000Y-49400000D01*
X76175000Y-49400000D01*
X76167649Y-49399639D01*
X76160368Y-49398559D01*
X76153229Y-49396771D01*
X76146299Y-49394291D01*
X76139645Y-49391144D01*
X76133332Y-49387360D01*
X76127421Y-49382976D01*
X76121967Y-49378033D01*
X76117024Y-49372579D01*
X76112640Y-49366668D01*
X76108856Y-49360355D01*
X76105709Y-49353701D01*
X76103229Y-49346771D01*
X76101441Y-49339632D01*
X76100361Y-49332351D01*
X76100000Y-49325000D01*
X76100000Y-49175000D01*
X76100361Y-49167649D01*
X76101441Y-49160368D01*
X76103229Y-49153229D01*
X76105709Y-49146299D01*
X76108856Y-49139645D01*
X76112640Y-49133332D01*
X76117024Y-49127421D01*
X76121967Y-49121967D01*
X76127421Y-49117024D01*
X76133332Y-49112640D01*
X76139645Y-49108856D01*
X76146299Y-49105709D01*
X76153229Y-49103229D01*
X76160368Y-49101441D01*
X76167649Y-49100361D01*
X76175000Y-49100000D01*
X77500000Y-49100000D01*
X77507351Y-49100361D01*
X77507351Y-49100361D01*
G37*
D12*
X76837500Y-49250000D03*
D10*
G36*
X77507351Y-49600361D02*
G01*
X77514632Y-49601441D01*
X77521771Y-49603229D01*
X77528701Y-49605709D01*
X77535355Y-49608856D01*
X77541668Y-49612640D01*
X77547579Y-49617024D01*
X77553033Y-49621967D01*
X77557976Y-49627421D01*
X77562360Y-49633332D01*
X77566144Y-49639645D01*
X77569291Y-49646299D01*
X77571771Y-49653229D01*
X77573559Y-49660368D01*
X77574639Y-49667649D01*
X77575000Y-49675000D01*
X77575000Y-49825000D01*
X77574639Y-49832351D01*
X77573559Y-49839632D01*
X77571771Y-49846771D01*
X77569291Y-49853701D01*
X77566144Y-49860355D01*
X77562360Y-49866668D01*
X77557976Y-49872579D01*
X77553033Y-49878033D01*
X77547579Y-49882976D01*
X77541668Y-49887360D01*
X77535355Y-49891144D01*
X77528701Y-49894291D01*
X77521771Y-49896771D01*
X77514632Y-49898559D01*
X77507351Y-49899639D01*
X77500000Y-49900000D01*
X76175000Y-49900000D01*
X76167649Y-49899639D01*
X76160368Y-49898559D01*
X76153229Y-49896771D01*
X76146299Y-49894291D01*
X76139645Y-49891144D01*
X76133332Y-49887360D01*
X76127421Y-49882976D01*
X76121967Y-49878033D01*
X76117024Y-49872579D01*
X76112640Y-49866668D01*
X76108856Y-49860355D01*
X76105709Y-49853701D01*
X76103229Y-49846771D01*
X76101441Y-49839632D01*
X76100361Y-49832351D01*
X76100000Y-49825000D01*
X76100000Y-49675000D01*
X76100361Y-49667649D01*
X76101441Y-49660368D01*
X76103229Y-49653229D01*
X76105709Y-49646299D01*
X76108856Y-49639645D01*
X76112640Y-49633332D01*
X76117024Y-49627421D01*
X76121967Y-49621967D01*
X76127421Y-49617024D01*
X76133332Y-49612640D01*
X76139645Y-49608856D01*
X76146299Y-49605709D01*
X76153229Y-49603229D01*
X76160368Y-49601441D01*
X76167649Y-49600361D01*
X76175000Y-49600000D01*
X77500000Y-49600000D01*
X77507351Y-49600361D01*
X77507351Y-49600361D01*
G37*
D12*
X76837500Y-49750000D03*
D10*
G36*
X77507351Y-50100361D02*
G01*
X77514632Y-50101441D01*
X77521771Y-50103229D01*
X77528701Y-50105709D01*
X77535355Y-50108856D01*
X77541668Y-50112640D01*
X77547579Y-50117024D01*
X77553033Y-50121967D01*
X77557976Y-50127421D01*
X77562360Y-50133332D01*
X77566144Y-50139645D01*
X77569291Y-50146299D01*
X77571771Y-50153229D01*
X77573559Y-50160368D01*
X77574639Y-50167649D01*
X77575000Y-50175000D01*
X77575000Y-50325000D01*
X77574639Y-50332351D01*
X77573559Y-50339632D01*
X77571771Y-50346771D01*
X77569291Y-50353701D01*
X77566144Y-50360355D01*
X77562360Y-50366668D01*
X77557976Y-50372579D01*
X77553033Y-50378033D01*
X77547579Y-50382976D01*
X77541668Y-50387360D01*
X77535355Y-50391144D01*
X77528701Y-50394291D01*
X77521771Y-50396771D01*
X77514632Y-50398559D01*
X77507351Y-50399639D01*
X77500000Y-50400000D01*
X76175000Y-50400000D01*
X76167649Y-50399639D01*
X76160368Y-50398559D01*
X76153229Y-50396771D01*
X76146299Y-50394291D01*
X76139645Y-50391144D01*
X76133332Y-50387360D01*
X76127421Y-50382976D01*
X76121967Y-50378033D01*
X76117024Y-50372579D01*
X76112640Y-50366668D01*
X76108856Y-50360355D01*
X76105709Y-50353701D01*
X76103229Y-50346771D01*
X76101441Y-50339632D01*
X76100361Y-50332351D01*
X76100000Y-50325000D01*
X76100000Y-50175000D01*
X76100361Y-50167649D01*
X76101441Y-50160368D01*
X76103229Y-50153229D01*
X76105709Y-50146299D01*
X76108856Y-50139645D01*
X76112640Y-50133332D01*
X76117024Y-50127421D01*
X76121967Y-50121967D01*
X76127421Y-50117024D01*
X76133332Y-50112640D01*
X76139645Y-50108856D01*
X76146299Y-50105709D01*
X76153229Y-50103229D01*
X76160368Y-50101441D01*
X76167649Y-50100361D01*
X76175000Y-50100000D01*
X77500000Y-50100000D01*
X77507351Y-50100361D01*
X77507351Y-50100361D01*
G37*
D12*
X76837500Y-50250000D03*
D10*
G36*
X77507351Y-50600361D02*
G01*
X77514632Y-50601441D01*
X77521771Y-50603229D01*
X77528701Y-50605709D01*
X77535355Y-50608856D01*
X77541668Y-50612640D01*
X77547579Y-50617024D01*
X77553033Y-50621967D01*
X77557976Y-50627421D01*
X77562360Y-50633332D01*
X77566144Y-50639645D01*
X77569291Y-50646299D01*
X77571771Y-50653229D01*
X77573559Y-50660368D01*
X77574639Y-50667649D01*
X77575000Y-50675000D01*
X77575000Y-50825000D01*
X77574639Y-50832351D01*
X77573559Y-50839632D01*
X77571771Y-50846771D01*
X77569291Y-50853701D01*
X77566144Y-50860355D01*
X77562360Y-50866668D01*
X77557976Y-50872579D01*
X77553033Y-50878033D01*
X77547579Y-50882976D01*
X77541668Y-50887360D01*
X77535355Y-50891144D01*
X77528701Y-50894291D01*
X77521771Y-50896771D01*
X77514632Y-50898559D01*
X77507351Y-50899639D01*
X77500000Y-50900000D01*
X76175000Y-50900000D01*
X76167649Y-50899639D01*
X76160368Y-50898559D01*
X76153229Y-50896771D01*
X76146299Y-50894291D01*
X76139645Y-50891144D01*
X76133332Y-50887360D01*
X76127421Y-50882976D01*
X76121967Y-50878033D01*
X76117024Y-50872579D01*
X76112640Y-50866668D01*
X76108856Y-50860355D01*
X76105709Y-50853701D01*
X76103229Y-50846771D01*
X76101441Y-50839632D01*
X76100361Y-50832351D01*
X76100000Y-50825000D01*
X76100000Y-50675000D01*
X76100361Y-50667649D01*
X76101441Y-50660368D01*
X76103229Y-50653229D01*
X76105709Y-50646299D01*
X76108856Y-50639645D01*
X76112640Y-50633332D01*
X76117024Y-50627421D01*
X76121967Y-50621967D01*
X76127421Y-50617024D01*
X76133332Y-50612640D01*
X76139645Y-50608856D01*
X76146299Y-50605709D01*
X76153229Y-50603229D01*
X76160368Y-50601441D01*
X76167649Y-50600361D01*
X76175000Y-50600000D01*
X77500000Y-50600000D01*
X77507351Y-50600361D01*
X77507351Y-50600361D01*
G37*
D12*
X76837500Y-50750000D03*
D10*
G36*
X77507351Y-51100361D02*
G01*
X77514632Y-51101441D01*
X77521771Y-51103229D01*
X77528701Y-51105709D01*
X77535355Y-51108856D01*
X77541668Y-51112640D01*
X77547579Y-51117024D01*
X77553033Y-51121967D01*
X77557976Y-51127421D01*
X77562360Y-51133332D01*
X77566144Y-51139645D01*
X77569291Y-51146299D01*
X77571771Y-51153229D01*
X77573559Y-51160368D01*
X77574639Y-51167649D01*
X77575000Y-51175000D01*
X77575000Y-51325000D01*
X77574639Y-51332351D01*
X77573559Y-51339632D01*
X77571771Y-51346771D01*
X77569291Y-51353701D01*
X77566144Y-51360355D01*
X77562360Y-51366668D01*
X77557976Y-51372579D01*
X77553033Y-51378033D01*
X77547579Y-51382976D01*
X77541668Y-51387360D01*
X77535355Y-51391144D01*
X77528701Y-51394291D01*
X77521771Y-51396771D01*
X77514632Y-51398559D01*
X77507351Y-51399639D01*
X77500000Y-51400000D01*
X76175000Y-51400000D01*
X76167649Y-51399639D01*
X76160368Y-51398559D01*
X76153229Y-51396771D01*
X76146299Y-51394291D01*
X76139645Y-51391144D01*
X76133332Y-51387360D01*
X76127421Y-51382976D01*
X76121967Y-51378033D01*
X76117024Y-51372579D01*
X76112640Y-51366668D01*
X76108856Y-51360355D01*
X76105709Y-51353701D01*
X76103229Y-51346771D01*
X76101441Y-51339632D01*
X76100361Y-51332351D01*
X76100000Y-51325000D01*
X76100000Y-51175000D01*
X76100361Y-51167649D01*
X76101441Y-51160368D01*
X76103229Y-51153229D01*
X76105709Y-51146299D01*
X76108856Y-51139645D01*
X76112640Y-51133332D01*
X76117024Y-51127421D01*
X76121967Y-51121967D01*
X76127421Y-51117024D01*
X76133332Y-51112640D01*
X76139645Y-51108856D01*
X76146299Y-51105709D01*
X76153229Y-51103229D01*
X76160368Y-51101441D01*
X76167649Y-51100361D01*
X76175000Y-51100000D01*
X77500000Y-51100000D01*
X77507351Y-51100361D01*
X77507351Y-51100361D01*
G37*
D12*
X76837500Y-51250000D03*
D10*
G36*
X77507351Y-51600361D02*
G01*
X77514632Y-51601441D01*
X77521771Y-51603229D01*
X77528701Y-51605709D01*
X77535355Y-51608856D01*
X77541668Y-51612640D01*
X77547579Y-51617024D01*
X77553033Y-51621967D01*
X77557976Y-51627421D01*
X77562360Y-51633332D01*
X77566144Y-51639645D01*
X77569291Y-51646299D01*
X77571771Y-51653229D01*
X77573559Y-51660368D01*
X77574639Y-51667649D01*
X77575000Y-51675000D01*
X77575000Y-51825000D01*
X77574639Y-51832351D01*
X77573559Y-51839632D01*
X77571771Y-51846771D01*
X77569291Y-51853701D01*
X77566144Y-51860355D01*
X77562360Y-51866668D01*
X77557976Y-51872579D01*
X77553033Y-51878033D01*
X77547579Y-51882976D01*
X77541668Y-51887360D01*
X77535355Y-51891144D01*
X77528701Y-51894291D01*
X77521771Y-51896771D01*
X77514632Y-51898559D01*
X77507351Y-51899639D01*
X77500000Y-51900000D01*
X76175000Y-51900000D01*
X76167649Y-51899639D01*
X76160368Y-51898559D01*
X76153229Y-51896771D01*
X76146299Y-51894291D01*
X76139645Y-51891144D01*
X76133332Y-51887360D01*
X76127421Y-51882976D01*
X76121967Y-51878033D01*
X76117024Y-51872579D01*
X76112640Y-51866668D01*
X76108856Y-51860355D01*
X76105709Y-51853701D01*
X76103229Y-51846771D01*
X76101441Y-51839632D01*
X76100361Y-51832351D01*
X76100000Y-51825000D01*
X76100000Y-51675000D01*
X76100361Y-51667649D01*
X76101441Y-51660368D01*
X76103229Y-51653229D01*
X76105709Y-51646299D01*
X76108856Y-51639645D01*
X76112640Y-51633332D01*
X76117024Y-51627421D01*
X76121967Y-51621967D01*
X76127421Y-51617024D01*
X76133332Y-51612640D01*
X76139645Y-51608856D01*
X76146299Y-51605709D01*
X76153229Y-51603229D01*
X76160368Y-51601441D01*
X76167649Y-51600361D01*
X76175000Y-51600000D01*
X77500000Y-51600000D01*
X77507351Y-51600361D01*
X77507351Y-51600361D01*
G37*
D12*
X76837500Y-51750000D03*
D10*
G36*
X77507351Y-52100361D02*
G01*
X77514632Y-52101441D01*
X77521771Y-52103229D01*
X77528701Y-52105709D01*
X77535355Y-52108856D01*
X77541668Y-52112640D01*
X77547579Y-52117024D01*
X77553033Y-52121967D01*
X77557976Y-52127421D01*
X77562360Y-52133332D01*
X77566144Y-52139645D01*
X77569291Y-52146299D01*
X77571771Y-52153229D01*
X77573559Y-52160368D01*
X77574639Y-52167649D01*
X77575000Y-52175000D01*
X77575000Y-52325000D01*
X77574639Y-52332351D01*
X77573559Y-52339632D01*
X77571771Y-52346771D01*
X77569291Y-52353701D01*
X77566144Y-52360355D01*
X77562360Y-52366668D01*
X77557976Y-52372579D01*
X77553033Y-52378033D01*
X77547579Y-52382976D01*
X77541668Y-52387360D01*
X77535355Y-52391144D01*
X77528701Y-52394291D01*
X77521771Y-52396771D01*
X77514632Y-52398559D01*
X77507351Y-52399639D01*
X77500000Y-52400000D01*
X76175000Y-52400000D01*
X76167649Y-52399639D01*
X76160368Y-52398559D01*
X76153229Y-52396771D01*
X76146299Y-52394291D01*
X76139645Y-52391144D01*
X76133332Y-52387360D01*
X76127421Y-52382976D01*
X76121967Y-52378033D01*
X76117024Y-52372579D01*
X76112640Y-52366668D01*
X76108856Y-52360355D01*
X76105709Y-52353701D01*
X76103229Y-52346771D01*
X76101441Y-52339632D01*
X76100361Y-52332351D01*
X76100000Y-52325000D01*
X76100000Y-52175000D01*
X76100361Y-52167649D01*
X76101441Y-52160368D01*
X76103229Y-52153229D01*
X76105709Y-52146299D01*
X76108856Y-52139645D01*
X76112640Y-52133332D01*
X76117024Y-52127421D01*
X76121967Y-52121967D01*
X76127421Y-52117024D01*
X76133332Y-52112640D01*
X76139645Y-52108856D01*
X76146299Y-52105709D01*
X76153229Y-52103229D01*
X76160368Y-52101441D01*
X76167649Y-52100361D01*
X76175000Y-52100000D01*
X77500000Y-52100000D01*
X77507351Y-52100361D01*
X77507351Y-52100361D01*
G37*
D12*
X76837500Y-52250000D03*
D10*
G36*
X77507351Y-52600361D02*
G01*
X77514632Y-52601441D01*
X77521771Y-52603229D01*
X77528701Y-52605709D01*
X77535355Y-52608856D01*
X77541668Y-52612640D01*
X77547579Y-52617024D01*
X77553033Y-52621967D01*
X77557976Y-52627421D01*
X77562360Y-52633332D01*
X77566144Y-52639645D01*
X77569291Y-52646299D01*
X77571771Y-52653229D01*
X77573559Y-52660368D01*
X77574639Y-52667649D01*
X77575000Y-52675000D01*
X77575000Y-52825000D01*
X77574639Y-52832351D01*
X77573559Y-52839632D01*
X77571771Y-52846771D01*
X77569291Y-52853701D01*
X77566144Y-52860355D01*
X77562360Y-52866668D01*
X77557976Y-52872579D01*
X77553033Y-52878033D01*
X77547579Y-52882976D01*
X77541668Y-52887360D01*
X77535355Y-52891144D01*
X77528701Y-52894291D01*
X77521771Y-52896771D01*
X77514632Y-52898559D01*
X77507351Y-52899639D01*
X77500000Y-52900000D01*
X76175000Y-52900000D01*
X76167649Y-52899639D01*
X76160368Y-52898559D01*
X76153229Y-52896771D01*
X76146299Y-52894291D01*
X76139645Y-52891144D01*
X76133332Y-52887360D01*
X76127421Y-52882976D01*
X76121967Y-52878033D01*
X76117024Y-52872579D01*
X76112640Y-52866668D01*
X76108856Y-52860355D01*
X76105709Y-52853701D01*
X76103229Y-52846771D01*
X76101441Y-52839632D01*
X76100361Y-52832351D01*
X76100000Y-52825000D01*
X76100000Y-52675000D01*
X76100361Y-52667649D01*
X76101441Y-52660368D01*
X76103229Y-52653229D01*
X76105709Y-52646299D01*
X76108856Y-52639645D01*
X76112640Y-52633332D01*
X76117024Y-52627421D01*
X76121967Y-52621967D01*
X76127421Y-52617024D01*
X76133332Y-52612640D01*
X76139645Y-52608856D01*
X76146299Y-52605709D01*
X76153229Y-52603229D01*
X76160368Y-52601441D01*
X76167649Y-52600361D01*
X76175000Y-52600000D01*
X77500000Y-52600000D01*
X77507351Y-52600361D01*
X77507351Y-52600361D01*
G37*
D12*
X76837500Y-52750000D03*
D10*
G36*
X78332351Y-53425361D02*
G01*
X78339632Y-53426441D01*
X78346771Y-53428229D01*
X78353701Y-53430709D01*
X78360355Y-53433856D01*
X78366668Y-53437640D01*
X78372579Y-53442024D01*
X78378033Y-53446967D01*
X78382976Y-53452421D01*
X78387360Y-53458332D01*
X78391144Y-53464645D01*
X78394291Y-53471299D01*
X78396771Y-53478229D01*
X78398559Y-53485368D01*
X78399639Y-53492649D01*
X78400000Y-53500000D01*
X78400000Y-54825000D01*
X78399639Y-54832351D01*
X78398559Y-54839632D01*
X78396771Y-54846771D01*
X78394291Y-54853701D01*
X78391144Y-54860355D01*
X78387360Y-54866668D01*
X78382976Y-54872579D01*
X78378033Y-54878033D01*
X78372579Y-54882976D01*
X78366668Y-54887360D01*
X78360355Y-54891144D01*
X78353701Y-54894291D01*
X78346771Y-54896771D01*
X78339632Y-54898559D01*
X78332351Y-54899639D01*
X78325000Y-54900000D01*
X78175000Y-54900000D01*
X78167649Y-54899639D01*
X78160368Y-54898559D01*
X78153229Y-54896771D01*
X78146299Y-54894291D01*
X78139645Y-54891144D01*
X78133332Y-54887360D01*
X78127421Y-54882976D01*
X78121967Y-54878033D01*
X78117024Y-54872579D01*
X78112640Y-54866668D01*
X78108856Y-54860355D01*
X78105709Y-54853701D01*
X78103229Y-54846771D01*
X78101441Y-54839632D01*
X78100361Y-54832351D01*
X78100000Y-54825000D01*
X78100000Y-53500000D01*
X78100361Y-53492649D01*
X78101441Y-53485368D01*
X78103229Y-53478229D01*
X78105709Y-53471299D01*
X78108856Y-53464645D01*
X78112640Y-53458332D01*
X78117024Y-53452421D01*
X78121967Y-53446967D01*
X78127421Y-53442024D01*
X78133332Y-53437640D01*
X78139645Y-53433856D01*
X78146299Y-53430709D01*
X78153229Y-53428229D01*
X78160368Y-53426441D01*
X78167649Y-53425361D01*
X78175000Y-53425000D01*
X78325000Y-53425000D01*
X78332351Y-53425361D01*
X78332351Y-53425361D01*
G37*
D12*
X78250000Y-54162500D03*
D10*
G36*
X78832351Y-53425361D02*
G01*
X78839632Y-53426441D01*
X78846771Y-53428229D01*
X78853701Y-53430709D01*
X78860355Y-53433856D01*
X78866668Y-53437640D01*
X78872579Y-53442024D01*
X78878033Y-53446967D01*
X78882976Y-53452421D01*
X78887360Y-53458332D01*
X78891144Y-53464645D01*
X78894291Y-53471299D01*
X78896771Y-53478229D01*
X78898559Y-53485368D01*
X78899639Y-53492649D01*
X78900000Y-53500000D01*
X78900000Y-54825000D01*
X78899639Y-54832351D01*
X78898559Y-54839632D01*
X78896771Y-54846771D01*
X78894291Y-54853701D01*
X78891144Y-54860355D01*
X78887360Y-54866668D01*
X78882976Y-54872579D01*
X78878033Y-54878033D01*
X78872579Y-54882976D01*
X78866668Y-54887360D01*
X78860355Y-54891144D01*
X78853701Y-54894291D01*
X78846771Y-54896771D01*
X78839632Y-54898559D01*
X78832351Y-54899639D01*
X78825000Y-54900000D01*
X78675000Y-54900000D01*
X78667649Y-54899639D01*
X78660368Y-54898559D01*
X78653229Y-54896771D01*
X78646299Y-54894291D01*
X78639645Y-54891144D01*
X78633332Y-54887360D01*
X78627421Y-54882976D01*
X78621967Y-54878033D01*
X78617024Y-54872579D01*
X78612640Y-54866668D01*
X78608856Y-54860355D01*
X78605709Y-54853701D01*
X78603229Y-54846771D01*
X78601441Y-54839632D01*
X78600361Y-54832351D01*
X78600000Y-54825000D01*
X78600000Y-53500000D01*
X78600361Y-53492649D01*
X78601441Y-53485368D01*
X78603229Y-53478229D01*
X78605709Y-53471299D01*
X78608856Y-53464645D01*
X78612640Y-53458332D01*
X78617024Y-53452421D01*
X78621967Y-53446967D01*
X78627421Y-53442024D01*
X78633332Y-53437640D01*
X78639645Y-53433856D01*
X78646299Y-53430709D01*
X78653229Y-53428229D01*
X78660368Y-53426441D01*
X78667649Y-53425361D01*
X78675000Y-53425000D01*
X78825000Y-53425000D01*
X78832351Y-53425361D01*
X78832351Y-53425361D01*
G37*
D12*
X78750000Y-54162500D03*
D10*
G36*
X79332351Y-53425361D02*
G01*
X79339632Y-53426441D01*
X79346771Y-53428229D01*
X79353701Y-53430709D01*
X79360355Y-53433856D01*
X79366668Y-53437640D01*
X79372579Y-53442024D01*
X79378033Y-53446967D01*
X79382976Y-53452421D01*
X79387360Y-53458332D01*
X79391144Y-53464645D01*
X79394291Y-53471299D01*
X79396771Y-53478229D01*
X79398559Y-53485368D01*
X79399639Y-53492649D01*
X79400000Y-53500000D01*
X79400000Y-54825000D01*
X79399639Y-54832351D01*
X79398559Y-54839632D01*
X79396771Y-54846771D01*
X79394291Y-54853701D01*
X79391144Y-54860355D01*
X79387360Y-54866668D01*
X79382976Y-54872579D01*
X79378033Y-54878033D01*
X79372579Y-54882976D01*
X79366668Y-54887360D01*
X79360355Y-54891144D01*
X79353701Y-54894291D01*
X79346771Y-54896771D01*
X79339632Y-54898559D01*
X79332351Y-54899639D01*
X79325000Y-54900000D01*
X79175000Y-54900000D01*
X79167649Y-54899639D01*
X79160368Y-54898559D01*
X79153229Y-54896771D01*
X79146299Y-54894291D01*
X79139645Y-54891144D01*
X79133332Y-54887360D01*
X79127421Y-54882976D01*
X79121967Y-54878033D01*
X79117024Y-54872579D01*
X79112640Y-54866668D01*
X79108856Y-54860355D01*
X79105709Y-54853701D01*
X79103229Y-54846771D01*
X79101441Y-54839632D01*
X79100361Y-54832351D01*
X79100000Y-54825000D01*
X79100000Y-53500000D01*
X79100361Y-53492649D01*
X79101441Y-53485368D01*
X79103229Y-53478229D01*
X79105709Y-53471299D01*
X79108856Y-53464645D01*
X79112640Y-53458332D01*
X79117024Y-53452421D01*
X79121967Y-53446967D01*
X79127421Y-53442024D01*
X79133332Y-53437640D01*
X79139645Y-53433856D01*
X79146299Y-53430709D01*
X79153229Y-53428229D01*
X79160368Y-53426441D01*
X79167649Y-53425361D01*
X79175000Y-53425000D01*
X79325000Y-53425000D01*
X79332351Y-53425361D01*
X79332351Y-53425361D01*
G37*
D12*
X79250000Y-54162500D03*
D10*
G36*
X79832351Y-53425361D02*
G01*
X79839632Y-53426441D01*
X79846771Y-53428229D01*
X79853701Y-53430709D01*
X79860355Y-53433856D01*
X79866668Y-53437640D01*
X79872579Y-53442024D01*
X79878033Y-53446967D01*
X79882976Y-53452421D01*
X79887360Y-53458332D01*
X79891144Y-53464645D01*
X79894291Y-53471299D01*
X79896771Y-53478229D01*
X79898559Y-53485368D01*
X79899639Y-53492649D01*
X79900000Y-53500000D01*
X79900000Y-54825000D01*
X79899639Y-54832351D01*
X79898559Y-54839632D01*
X79896771Y-54846771D01*
X79894291Y-54853701D01*
X79891144Y-54860355D01*
X79887360Y-54866668D01*
X79882976Y-54872579D01*
X79878033Y-54878033D01*
X79872579Y-54882976D01*
X79866668Y-54887360D01*
X79860355Y-54891144D01*
X79853701Y-54894291D01*
X79846771Y-54896771D01*
X79839632Y-54898559D01*
X79832351Y-54899639D01*
X79825000Y-54900000D01*
X79675000Y-54900000D01*
X79667649Y-54899639D01*
X79660368Y-54898559D01*
X79653229Y-54896771D01*
X79646299Y-54894291D01*
X79639645Y-54891144D01*
X79633332Y-54887360D01*
X79627421Y-54882976D01*
X79621967Y-54878033D01*
X79617024Y-54872579D01*
X79612640Y-54866668D01*
X79608856Y-54860355D01*
X79605709Y-54853701D01*
X79603229Y-54846771D01*
X79601441Y-54839632D01*
X79600361Y-54832351D01*
X79600000Y-54825000D01*
X79600000Y-53500000D01*
X79600361Y-53492649D01*
X79601441Y-53485368D01*
X79603229Y-53478229D01*
X79605709Y-53471299D01*
X79608856Y-53464645D01*
X79612640Y-53458332D01*
X79617024Y-53452421D01*
X79621967Y-53446967D01*
X79627421Y-53442024D01*
X79633332Y-53437640D01*
X79639645Y-53433856D01*
X79646299Y-53430709D01*
X79653229Y-53428229D01*
X79660368Y-53426441D01*
X79667649Y-53425361D01*
X79675000Y-53425000D01*
X79825000Y-53425000D01*
X79832351Y-53425361D01*
X79832351Y-53425361D01*
G37*
D12*
X79750000Y-54162500D03*
D10*
G36*
X80332351Y-53425361D02*
G01*
X80339632Y-53426441D01*
X80346771Y-53428229D01*
X80353701Y-53430709D01*
X80360355Y-53433856D01*
X80366668Y-53437640D01*
X80372579Y-53442024D01*
X80378033Y-53446967D01*
X80382976Y-53452421D01*
X80387360Y-53458332D01*
X80391144Y-53464645D01*
X80394291Y-53471299D01*
X80396771Y-53478229D01*
X80398559Y-53485368D01*
X80399639Y-53492649D01*
X80400000Y-53500000D01*
X80400000Y-54825000D01*
X80399639Y-54832351D01*
X80398559Y-54839632D01*
X80396771Y-54846771D01*
X80394291Y-54853701D01*
X80391144Y-54860355D01*
X80387360Y-54866668D01*
X80382976Y-54872579D01*
X80378033Y-54878033D01*
X80372579Y-54882976D01*
X80366668Y-54887360D01*
X80360355Y-54891144D01*
X80353701Y-54894291D01*
X80346771Y-54896771D01*
X80339632Y-54898559D01*
X80332351Y-54899639D01*
X80325000Y-54900000D01*
X80175000Y-54900000D01*
X80167649Y-54899639D01*
X80160368Y-54898559D01*
X80153229Y-54896771D01*
X80146299Y-54894291D01*
X80139645Y-54891144D01*
X80133332Y-54887360D01*
X80127421Y-54882976D01*
X80121967Y-54878033D01*
X80117024Y-54872579D01*
X80112640Y-54866668D01*
X80108856Y-54860355D01*
X80105709Y-54853701D01*
X80103229Y-54846771D01*
X80101441Y-54839632D01*
X80100361Y-54832351D01*
X80100000Y-54825000D01*
X80100000Y-53500000D01*
X80100361Y-53492649D01*
X80101441Y-53485368D01*
X80103229Y-53478229D01*
X80105709Y-53471299D01*
X80108856Y-53464645D01*
X80112640Y-53458332D01*
X80117024Y-53452421D01*
X80121967Y-53446967D01*
X80127421Y-53442024D01*
X80133332Y-53437640D01*
X80139645Y-53433856D01*
X80146299Y-53430709D01*
X80153229Y-53428229D01*
X80160368Y-53426441D01*
X80167649Y-53425361D01*
X80175000Y-53425000D01*
X80325000Y-53425000D01*
X80332351Y-53425361D01*
X80332351Y-53425361D01*
G37*
D12*
X80250000Y-54162500D03*
D10*
G36*
X80832351Y-53425361D02*
G01*
X80839632Y-53426441D01*
X80846771Y-53428229D01*
X80853701Y-53430709D01*
X80860355Y-53433856D01*
X80866668Y-53437640D01*
X80872579Y-53442024D01*
X80878033Y-53446967D01*
X80882976Y-53452421D01*
X80887360Y-53458332D01*
X80891144Y-53464645D01*
X80894291Y-53471299D01*
X80896771Y-53478229D01*
X80898559Y-53485368D01*
X80899639Y-53492649D01*
X80900000Y-53500000D01*
X80900000Y-54825000D01*
X80899639Y-54832351D01*
X80898559Y-54839632D01*
X80896771Y-54846771D01*
X80894291Y-54853701D01*
X80891144Y-54860355D01*
X80887360Y-54866668D01*
X80882976Y-54872579D01*
X80878033Y-54878033D01*
X80872579Y-54882976D01*
X80866668Y-54887360D01*
X80860355Y-54891144D01*
X80853701Y-54894291D01*
X80846771Y-54896771D01*
X80839632Y-54898559D01*
X80832351Y-54899639D01*
X80825000Y-54900000D01*
X80675000Y-54900000D01*
X80667649Y-54899639D01*
X80660368Y-54898559D01*
X80653229Y-54896771D01*
X80646299Y-54894291D01*
X80639645Y-54891144D01*
X80633332Y-54887360D01*
X80627421Y-54882976D01*
X80621967Y-54878033D01*
X80617024Y-54872579D01*
X80612640Y-54866668D01*
X80608856Y-54860355D01*
X80605709Y-54853701D01*
X80603229Y-54846771D01*
X80601441Y-54839632D01*
X80600361Y-54832351D01*
X80600000Y-54825000D01*
X80600000Y-53500000D01*
X80600361Y-53492649D01*
X80601441Y-53485368D01*
X80603229Y-53478229D01*
X80605709Y-53471299D01*
X80608856Y-53464645D01*
X80612640Y-53458332D01*
X80617024Y-53452421D01*
X80621967Y-53446967D01*
X80627421Y-53442024D01*
X80633332Y-53437640D01*
X80639645Y-53433856D01*
X80646299Y-53430709D01*
X80653229Y-53428229D01*
X80660368Y-53426441D01*
X80667649Y-53425361D01*
X80675000Y-53425000D01*
X80825000Y-53425000D01*
X80832351Y-53425361D01*
X80832351Y-53425361D01*
G37*
D12*
X80750000Y-54162500D03*
D10*
G36*
X81332351Y-53425361D02*
G01*
X81339632Y-53426441D01*
X81346771Y-53428229D01*
X81353701Y-53430709D01*
X81360355Y-53433856D01*
X81366668Y-53437640D01*
X81372579Y-53442024D01*
X81378033Y-53446967D01*
X81382976Y-53452421D01*
X81387360Y-53458332D01*
X81391144Y-53464645D01*
X81394291Y-53471299D01*
X81396771Y-53478229D01*
X81398559Y-53485368D01*
X81399639Y-53492649D01*
X81400000Y-53500000D01*
X81400000Y-54825000D01*
X81399639Y-54832351D01*
X81398559Y-54839632D01*
X81396771Y-54846771D01*
X81394291Y-54853701D01*
X81391144Y-54860355D01*
X81387360Y-54866668D01*
X81382976Y-54872579D01*
X81378033Y-54878033D01*
X81372579Y-54882976D01*
X81366668Y-54887360D01*
X81360355Y-54891144D01*
X81353701Y-54894291D01*
X81346771Y-54896771D01*
X81339632Y-54898559D01*
X81332351Y-54899639D01*
X81325000Y-54900000D01*
X81175000Y-54900000D01*
X81167649Y-54899639D01*
X81160368Y-54898559D01*
X81153229Y-54896771D01*
X81146299Y-54894291D01*
X81139645Y-54891144D01*
X81133332Y-54887360D01*
X81127421Y-54882976D01*
X81121967Y-54878033D01*
X81117024Y-54872579D01*
X81112640Y-54866668D01*
X81108856Y-54860355D01*
X81105709Y-54853701D01*
X81103229Y-54846771D01*
X81101441Y-54839632D01*
X81100361Y-54832351D01*
X81100000Y-54825000D01*
X81100000Y-53500000D01*
X81100361Y-53492649D01*
X81101441Y-53485368D01*
X81103229Y-53478229D01*
X81105709Y-53471299D01*
X81108856Y-53464645D01*
X81112640Y-53458332D01*
X81117024Y-53452421D01*
X81121967Y-53446967D01*
X81127421Y-53442024D01*
X81133332Y-53437640D01*
X81139645Y-53433856D01*
X81146299Y-53430709D01*
X81153229Y-53428229D01*
X81160368Y-53426441D01*
X81167649Y-53425361D01*
X81175000Y-53425000D01*
X81325000Y-53425000D01*
X81332351Y-53425361D01*
X81332351Y-53425361D01*
G37*
D12*
X81250000Y-54162500D03*
D10*
G36*
X81832351Y-53425361D02*
G01*
X81839632Y-53426441D01*
X81846771Y-53428229D01*
X81853701Y-53430709D01*
X81860355Y-53433856D01*
X81866668Y-53437640D01*
X81872579Y-53442024D01*
X81878033Y-53446967D01*
X81882976Y-53452421D01*
X81887360Y-53458332D01*
X81891144Y-53464645D01*
X81894291Y-53471299D01*
X81896771Y-53478229D01*
X81898559Y-53485368D01*
X81899639Y-53492649D01*
X81900000Y-53500000D01*
X81900000Y-54825000D01*
X81899639Y-54832351D01*
X81898559Y-54839632D01*
X81896771Y-54846771D01*
X81894291Y-54853701D01*
X81891144Y-54860355D01*
X81887360Y-54866668D01*
X81882976Y-54872579D01*
X81878033Y-54878033D01*
X81872579Y-54882976D01*
X81866668Y-54887360D01*
X81860355Y-54891144D01*
X81853701Y-54894291D01*
X81846771Y-54896771D01*
X81839632Y-54898559D01*
X81832351Y-54899639D01*
X81825000Y-54900000D01*
X81675000Y-54900000D01*
X81667649Y-54899639D01*
X81660368Y-54898559D01*
X81653229Y-54896771D01*
X81646299Y-54894291D01*
X81639645Y-54891144D01*
X81633332Y-54887360D01*
X81627421Y-54882976D01*
X81621967Y-54878033D01*
X81617024Y-54872579D01*
X81612640Y-54866668D01*
X81608856Y-54860355D01*
X81605709Y-54853701D01*
X81603229Y-54846771D01*
X81601441Y-54839632D01*
X81600361Y-54832351D01*
X81600000Y-54825000D01*
X81600000Y-53500000D01*
X81600361Y-53492649D01*
X81601441Y-53485368D01*
X81603229Y-53478229D01*
X81605709Y-53471299D01*
X81608856Y-53464645D01*
X81612640Y-53458332D01*
X81617024Y-53452421D01*
X81621967Y-53446967D01*
X81627421Y-53442024D01*
X81633332Y-53437640D01*
X81639645Y-53433856D01*
X81646299Y-53430709D01*
X81653229Y-53428229D01*
X81660368Y-53426441D01*
X81667649Y-53425361D01*
X81675000Y-53425000D01*
X81825000Y-53425000D01*
X81832351Y-53425361D01*
X81832351Y-53425361D01*
G37*
D12*
X81750000Y-54162500D03*
D10*
G36*
X82332351Y-53425361D02*
G01*
X82339632Y-53426441D01*
X82346771Y-53428229D01*
X82353701Y-53430709D01*
X82360355Y-53433856D01*
X82366668Y-53437640D01*
X82372579Y-53442024D01*
X82378033Y-53446967D01*
X82382976Y-53452421D01*
X82387360Y-53458332D01*
X82391144Y-53464645D01*
X82394291Y-53471299D01*
X82396771Y-53478229D01*
X82398559Y-53485368D01*
X82399639Y-53492649D01*
X82400000Y-53500000D01*
X82400000Y-54825000D01*
X82399639Y-54832351D01*
X82398559Y-54839632D01*
X82396771Y-54846771D01*
X82394291Y-54853701D01*
X82391144Y-54860355D01*
X82387360Y-54866668D01*
X82382976Y-54872579D01*
X82378033Y-54878033D01*
X82372579Y-54882976D01*
X82366668Y-54887360D01*
X82360355Y-54891144D01*
X82353701Y-54894291D01*
X82346771Y-54896771D01*
X82339632Y-54898559D01*
X82332351Y-54899639D01*
X82325000Y-54900000D01*
X82175000Y-54900000D01*
X82167649Y-54899639D01*
X82160368Y-54898559D01*
X82153229Y-54896771D01*
X82146299Y-54894291D01*
X82139645Y-54891144D01*
X82133332Y-54887360D01*
X82127421Y-54882976D01*
X82121967Y-54878033D01*
X82117024Y-54872579D01*
X82112640Y-54866668D01*
X82108856Y-54860355D01*
X82105709Y-54853701D01*
X82103229Y-54846771D01*
X82101441Y-54839632D01*
X82100361Y-54832351D01*
X82100000Y-54825000D01*
X82100000Y-53500000D01*
X82100361Y-53492649D01*
X82101441Y-53485368D01*
X82103229Y-53478229D01*
X82105709Y-53471299D01*
X82108856Y-53464645D01*
X82112640Y-53458332D01*
X82117024Y-53452421D01*
X82121967Y-53446967D01*
X82127421Y-53442024D01*
X82133332Y-53437640D01*
X82139645Y-53433856D01*
X82146299Y-53430709D01*
X82153229Y-53428229D01*
X82160368Y-53426441D01*
X82167649Y-53425361D01*
X82175000Y-53425000D01*
X82325000Y-53425000D01*
X82332351Y-53425361D01*
X82332351Y-53425361D01*
G37*
D12*
X82250000Y-54162500D03*
D10*
G36*
X82832351Y-53425361D02*
G01*
X82839632Y-53426441D01*
X82846771Y-53428229D01*
X82853701Y-53430709D01*
X82860355Y-53433856D01*
X82866668Y-53437640D01*
X82872579Y-53442024D01*
X82878033Y-53446967D01*
X82882976Y-53452421D01*
X82887360Y-53458332D01*
X82891144Y-53464645D01*
X82894291Y-53471299D01*
X82896771Y-53478229D01*
X82898559Y-53485368D01*
X82899639Y-53492649D01*
X82900000Y-53500000D01*
X82900000Y-54825000D01*
X82899639Y-54832351D01*
X82898559Y-54839632D01*
X82896771Y-54846771D01*
X82894291Y-54853701D01*
X82891144Y-54860355D01*
X82887360Y-54866668D01*
X82882976Y-54872579D01*
X82878033Y-54878033D01*
X82872579Y-54882976D01*
X82866668Y-54887360D01*
X82860355Y-54891144D01*
X82853701Y-54894291D01*
X82846771Y-54896771D01*
X82839632Y-54898559D01*
X82832351Y-54899639D01*
X82825000Y-54900000D01*
X82675000Y-54900000D01*
X82667649Y-54899639D01*
X82660368Y-54898559D01*
X82653229Y-54896771D01*
X82646299Y-54894291D01*
X82639645Y-54891144D01*
X82633332Y-54887360D01*
X82627421Y-54882976D01*
X82621967Y-54878033D01*
X82617024Y-54872579D01*
X82612640Y-54866668D01*
X82608856Y-54860355D01*
X82605709Y-54853701D01*
X82603229Y-54846771D01*
X82601441Y-54839632D01*
X82600361Y-54832351D01*
X82600000Y-54825000D01*
X82600000Y-53500000D01*
X82600361Y-53492649D01*
X82601441Y-53485368D01*
X82603229Y-53478229D01*
X82605709Y-53471299D01*
X82608856Y-53464645D01*
X82612640Y-53458332D01*
X82617024Y-53452421D01*
X82621967Y-53446967D01*
X82627421Y-53442024D01*
X82633332Y-53437640D01*
X82639645Y-53433856D01*
X82646299Y-53430709D01*
X82653229Y-53428229D01*
X82660368Y-53426441D01*
X82667649Y-53425361D01*
X82675000Y-53425000D01*
X82825000Y-53425000D01*
X82832351Y-53425361D01*
X82832351Y-53425361D01*
G37*
D12*
X82750000Y-54162500D03*
D10*
G36*
X83332351Y-53425361D02*
G01*
X83339632Y-53426441D01*
X83346771Y-53428229D01*
X83353701Y-53430709D01*
X83360355Y-53433856D01*
X83366668Y-53437640D01*
X83372579Y-53442024D01*
X83378033Y-53446967D01*
X83382976Y-53452421D01*
X83387360Y-53458332D01*
X83391144Y-53464645D01*
X83394291Y-53471299D01*
X83396771Y-53478229D01*
X83398559Y-53485368D01*
X83399639Y-53492649D01*
X83400000Y-53500000D01*
X83400000Y-54825000D01*
X83399639Y-54832351D01*
X83398559Y-54839632D01*
X83396771Y-54846771D01*
X83394291Y-54853701D01*
X83391144Y-54860355D01*
X83387360Y-54866668D01*
X83382976Y-54872579D01*
X83378033Y-54878033D01*
X83372579Y-54882976D01*
X83366668Y-54887360D01*
X83360355Y-54891144D01*
X83353701Y-54894291D01*
X83346771Y-54896771D01*
X83339632Y-54898559D01*
X83332351Y-54899639D01*
X83325000Y-54900000D01*
X83175000Y-54900000D01*
X83167649Y-54899639D01*
X83160368Y-54898559D01*
X83153229Y-54896771D01*
X83146299Y-54894291D01*
X83139645Y-54891144D01*
X83133332Y-54887360D01*
X83127421Y-54882976D01*
X83121967Y-54878033D01*
X83117024Y-54872579D01*
X83112640Y-54866668D01*
X83108856Y-54860355D01*
X83105709Y-54853701D01*
X83103229Y-54846771D01*
X83101441Y-54839632D01*
X83100361Y-54832351D01*
X83100000Y-54825000D01*
X83100000Y-53500000D01*
X83100361Y-53492649D01*
X83101441Y-53485368D01*
X83103229Y-53478229D01*
X83105709Y-53471299D01*
X83108856Y-53464645D01*
X83112640Y-53458332D01*
X83117024Y-53452421D01*
X83121967Y-53446967D01*
X83127421Y-53442024D01*
X83133332Y-53437640D01*
X83139645Y-53433856D01*
X83146299Y-53430709D01*
X83153229Y-53428229D01*
X83160368Y-53426441D01*
X83167649Y-53425361D01*
X83175000Y-53425000D01*
X83325000Y-53425000D01*
X83332351Y-53425361D01*
X83332351Y-53425361D01*
G37*
D12*
X83250000Y-54162500D03*
D10*
G36*
X83832351Y-53425361D02*
G01*
X83839632Y-53426441D01*
X83846771Y-53428229D01*
X83853701Y-53430709D01*
X83860355Y-53433856D01*
X83866668Y-53437640D01*
X83872579Y-53442024D01*
X83878033Y-53446967D01*
X83882976Y-53452421D01*
X83887360Y-53458332D01*
X83891144Y-53464645D01*
X83894291Y-53471299D01*
X83896771Y-53478229D01*
X83898559Y-53485368D01*
X83899639Y-53492649D01*
X83900000Y-53500000D01*
X83900000Y-54825000D01*
X83899639Y-54832351D01*
X83898559Y-54839632D01*
X83896771Y-54846771D01*
X83894291Y-54853701D01*
X83891144Y-54860355D01*
X83887360Y-54866668D01*
X83882976Y-54872579D01*
X83878033Y-54878033D01*
X83872579Y-54882976D01*
X83866668Y-54887360D01*
X83860355Y-54891144D01*
X83853701Y-54894291D01*
X83846771Y-54896771D01*
X83839632Y-54898559D01*
X83832351Y-54899639D01*
X83825000Y-54900000D01*
X83675000Y-54900000D01*
X83667649Y-54899639D01*
X83660368Y-54898559D01*
X83653229Y-54896771D01*
X83646299Y-54894291D01*
X83639645Y-54891144D01*
X83633332Y-54887360D01*
X83627421Y-54882976D01*
X83621967Y-54878033D01*
X83617024Y-54872579D01*
X83612640Y-54866668D01*
X83608856Y-54860355D01*
X83605709Y-54853701D01*
X83603229Y-54846771D01*
X83601441Y-54839632D01*
X83600361Y-54832351D01*
X83600000Y-54825000D01*
X83600000Y-53500000D01*
X83600361Y-53492649D01*
X83601441Y-53485368D01*
X83603229Y-53478229D01*
X83605709Y-53471299D01*
X83608856Y-53464645D01*
X83612640Y-53458332D01*
X83617024Y-53452421D01*
X83621967Y-53446967D01*
X83627421Y-53442024D01*
X83633332Y-53437640D01*
X83639645Y-53433856D01*
X83646299Y-53430709D01*
X83653229Y-53428229D01*
X83660368Y-53426441D01*
X83667649Y-53425361D01*
X83675000Y-53425000D01*
X83825000Y-53425000D01*
X83832351Y-53425361D01*
X83832351Y-53425361D01*
G37*
D12*
X83750000Y-54162500D03*
D10*
G36*
X85832351Y-52600361D02*
G01*
X85839632Y-52601441D01*
X85846771Y-52603229D01*
X85853701Y-52605709D01*
X85860355Y-52608856D01*
X85866668Y-52612640D01*
X85872579Y-52617024D01*
X85878033Y-52621967D01*
X85882976Y-52627421D01*
X85887360Y-52633332D01*
X85891144Y-52639645D01*
X85894291Y-52646299D01*
X85896771Y-52653229D01*
X85898559Y-52660368D01*
X85899639Y-52667649D01*
X85900000Y-52675000D01*
X85900000Y-52825000D01*
X85899639Y-52832351D01*
X85898559Y-52839632D01*
X85896771Y-52846771D01*
X85894291Y-52853701D01*
X85891144Y-52860355D01*
X85887360Y-52866668D01*
X85882976Y-52872579D01*
X85878033Y-52878033D01*
X85872579Y-52882976D01*
X85866668Y-52887360D01*
X85860355Y-52891144D01*
X85853701Y-52894291D01*
X85846771Y-52896771D01*
X85839632Y-52898559D01*
X85832351Y-52899639D01*
X85825000Y-52900000D01*
X84500000Y-52900000D01*
X84492649Y-52899639D01*
X84485368Y-52898559D01*
X84478229Y-52896771D01*
X84471299Y-52894291D01*
X84464645Y-52891144D01*
X84458332Y-52887360D01*
X84452421Y-52882976D01*
X84446967Y-52878033D01*
X84442024Y-52872579D01*
X84437640Y-52866668D01*
X84433856Y-52860355D01*
X84430709Y-52853701D01*
X84428229Y-52846771D01*
X84426441Y-52839632D01*
X84425361Y-52832351D01*
X84425000Y-52825000D01*
X84425000Y-52675000D01*
X84425361Y-52667649D01*
X84426441Y-52660368D01*
X84428229Y-52653229D01*
X84430709Y-52646299D01*
X84433856Y-52639645D01*
X84437640Y-52633332D01*
X84442024Y-52627421D01*
X84446967Y-52621967D01*
X84452421Y-52617024D01*
X84458332Y-52612640D01*
X84464645Y-52608856D01*
X84471299Y-52605709D01*
X84478229Y-52603229D01*
X84485368Y-52601441D01*
X84492649Y-52600361D01*
X84500000Y-52600000D01*
X85825000Y-52600000D01*
X85832351Y-52600361D01*
X85832351Y-52600361D01*
G37*
D12*
X85162500Y-52750000D03*
D10*
G36*
X85832351Y-52100361D02*
G01*
X85839632Y-52101441D01*
X85846771Y-52103229D01*
X85853701Y-52105709D01*
X85860355Y-52108856D01*
X85866668Y-52112640D01*
X85872579Y-52117024D01*
X85878033Y-52121967D01*
X85882976Y-52127421D01*
X85887360Y-52133332D01*
X85891144Y-52139645D01*
X85894291Y-52146299D01*
X85896771Y-52153229D01*
X85898559Y-52160368D01*
X85899639Y-52167649D01*
X85900000Y-52175000D01*
X85900000Y-52325000D01*
X85899639Y-52332351D01*
X85898559Y-52339632D01*
X85896771Y-52346771D01*
X85894291Y-52353701D01*
X85891144Y-52360355D01*
X85887360Y-52366668D01*
X85882976Y-52372579D01*
X85878033Y-52378033D01*
X85872579Y-52382976D01*
X85866668Y-52387360D01*
X85860355Y-52391144D01*
X85853701Y-52394291D01*
X85846771Y-52396771D01*
X85839632Y-52398559D01*
X85832351Y-52399639D01*
X85825000Y-52400000D01*
X84500000Y-52400000D01*
X84492649Y-52399639D01*
X84485368Y-52398559D01*
X84478229Y-52396771D01*
X84471299Y-52394291D01*
X84464645Y-52391144D01*
X84458332Y-52387360D01*
X84452421Y-52382976D01*
X84446967Y-52378033D01*
X84442024Y-52372579D01*
X84437640Y-52366668D01*
X84433856Y-52360355D01*
X84430709Y-52353701D01*
X84428229Y-52346771D01*
X84426441Y-52339632D01*
X84425361Y-52332351D01*
X84425000Y-52325000D01*
X84425000Y-52175000D01*
X84425361Y-52167649D01*
X84426441Y-52160368D01*
X84428229Y-52153229D01*
X84430709Y-52146299D01*
X84433856Y-52139645D01*
X84437640Y-52133332D01*
X84442024Y-52127421D01*
X84446967Y-52121967D01*
X84452421Y-52117024D01*
X84458332Y-52112640D01*
X84464645Y-52108856D01*
X84471299Y-52105709D01*
X84478229Y-52103229D01*
X84485368Y-52101441D01*
X84492649Y-52100361D01*
X84500000Y-52100000D01*
X85825000Y-52100000D01*
X85832351Y-52100361D01*
X85832351Y-52100361D01*
G37*
D12*
X85162500Y-52250000D03*
D10*
G36*
X85832351Y-51600361D02*
G01*
X85839632Y-51601441D01*
X85846771Y-51603229D01*
X85853701Y-51605709D01*
X85860355Y-51608856D01*
X85866668Y-51612640D01*
X85872579Y-51617024D01*
X85878033Y-51621967D01*
X85882976Y-51627421D01*
X85887360Y-51633332D01*
X85891144Y-51639645D01*
X85894291Y-51646299D01*
X85896771Y-51653229D01*
X85898559Y-51660368D01*
X85899639Y-51667649D01*
X85900000Y-51675000D01*
X85900000Y-51825000D01*
X85899639Y-51832351D01*
X85898559Y-51839632D01*
X85896771Y-51846771D01*
X85894291Y-51853701D01*
X85891144Y-51860355D01*
X85887360Y-51866668D01*
X85882976Y-51872579D01*
X85878033Y-51878033D01*
X85872579Y-51882976D01*
X85866668Y-51887360D01*
X85860355Y-51891144D01*
X85853701Y-51894291D01*
X85846771Y-51896771D01*
X85839632Y-51898559D01*
X85832351Y-51899639D01*
X85825000Y-51900000D01*
X84500000Y-51900000D01*
X84492649Y-51899639D01*
X84485368Y-51898559D01*
X84478229Y-51896771D01*
X84471299Y-51894291D01*
X84464645Y-51891144D01*
X84458332Y-51887360D01*
X84452421Y-51882976D01*
X84446967Y-51878033D01*
X84442024Y-51872579D01*
X84437640Y-51866668D01*
X84433856Y-51860355D01*
X84430709Y-51853701D01*
X84428229Y-51846771D01*
X84426441Y-51839632D01*
X84425361Y-51832351D01*
X84425000Y-51825000D01*
X84425000Y-51675000D01*
X84425361Y-51667649D01*
X84426441Y-51660368D01*
X84428229Y-51653229D01*
X84430709Y-51646299D01*
X84433856Y-51639645D01*
X84437640Y-51633332D01*
X84442024Y-51627421D01*
X84446967Y-51621967D01*
X84452421Y-51617024D01*
X84458332Y-51612640D01*
X84464645Y-51608856D01*
X84471299Y-51605709D01*
X84478229Y-51603229D01*
X84485368Y-51601441D01*
X84492649Y-51600361D01*
X84500000Y-51600000D01*
X85825000Y-51600000D01*
X85832351Y-51600361D01*
X85832351Y-51600361D01*
G37*
D12*
X85162500Y-51750000D03*
D10*
G36*
X85832351Y-51100361D02*
G01*
X85839632Y-51101441D01*
X85846771Y-51103229D01*
X85853701Y-51105709D01*
X85860355Y-51108856D01*
X85866668Y-51112640D01*
X85872579Y-51117024D01*
X85878033Y-51121967D01*
X85882976Y-51127421D01*
X85887360Y-51133332D01*
X85891144Y-51139645D01*
X85894291Y-51146299D01*
X85896771Y-51153229D01*
X85898559Y-51160368D01*
X85899639Y-51167649D01*
X85900000Y-51175000D01*
X85900000Y-51325000D01*
X85899639Y-51332351D01*
X85898559Y-51339632D01*
X85896771Y-51346771D01*
X85894291Y-51353701D01*
X85891144Y-51360355D01*
X85887360Y-51366668D01*
X85882976Y-51372579D01*
X85878033Y-51378033D01*
X85872579Y-51382976D01*
X85866668Y-51387360D01*
X85860355Y-51391144D01*
X85853701Y-51394291D01*
X85846771Y-51396771D01*
X85839632Y-51398559D01*
X85832351Y-51399639D01*
X85825000Y-51400000D01*
X84500000Y-51400000D01*
X84492649Y-51399639D01*
X84485368Y-51398559D01*
X84478229Y-51396771D01*
X84471299Y-51394291D01*
X84464645Y-51391144D01*
X84458332Y-51387360D01*
X84452421Y-51382976D01*
X84446967Y-51378033D01*
X84442024Y-51372579D01*
X84437640Y-51366668D01*
X84433856Y-51360355D01*
X84430709Y-51353701D01*
X84428229Y-51346771D01*
X84426441Y-51339632D01*
X84425361Y-51332351D01*
X84425000Y-51325000D01*
X84425000Y-51175000D01*
X84425361Y-51167649D01*
X84426441Y-51160368D01*
X84428229Y-51153229D01*
X84430709Y-51146299D01*
X84433856Y-51139645D01*
X84437640Y-51133332D01*
X84442024Y-51127421D01*
X84446967Y-51121967D01*
X84452421Y-51117024D01*
X84458332Y-51112640D01*
X84464645Y-51108856D01*
X84471299Y-51105709D01*
X84478229Y-51103229D01*
X84485368Y-51101441D01*
X84492649Y-51100361D01*
X84500000Y-51100000D01*
X85825000Y-51100000D01*
X85832351Y-51100361D01*
X85832351Y-51100361D01*
G37*
D12*
X85162500Y-51250000D03*
D10*
G36*
X85832351Y-50600361D02*
G01*
X85839632Y-50601441D01*
X85846771Y-50603229D01*
X85853701Y-50605709D01*
X85860355Y-50608856D01*
X85866668Y-50612640D01*
X85872579Y-50617024D01*
X85878033Y-50621967D01*
X85882976Y-50627421D01*
X85887360Y-50633332D01*
X85891144Y-50639645D01*
X85894291Y-50646299D01*
X85896771Y-50653229D01*
X85898559Y-50660368D01*
X85899639Y-50667649D01*
X85900000Y-50675000D01*
X85900000Y-50825000D01*
X85899639Y-50832351D01*
X85898559Y-50839632D01*
X85896771Y-50846771D01*
X85894291Y-50853701D01*
X85891144Y-50860355D01*
X85887360Y-50866668D01*
X85882976Y-50872579D01*
X85878033Y-50878033D01*
X85872579Y-50882976D01*
X85866668Y-50887360D01*
X85860355Y-50891144D01*
X85853701Y-50894291D01*
X85846771Y-50896771D01*
X85839632Y-50898559D01*
X85832351Y-50899639D01*
X85825000Y-50900000D01*
X84500000Y-50900000D01*
X84492649Y-50899639D01*
X84485368Y-50898559D01*
X84478229Y-50896771D01*
X84471299Y-50894291D01*
X84464645Y-50891144D01*
X84458332Y-50887360D01*
X84452421Y-50882976D01*
X84446967Y-50878033D01*
X84442024Y-50872579D01*
X84437640Y-50866668D01*
X84433856Y-50860355D01*
X84430709Y-50853701D01*
X84428229Y-50846771D01*
X84426441Y-50839632D01*
X84425361Y-50832351D01*
X84425000Y-50825000D01*
X84425000Y-50675000D01*
X84425361Y-50667649D01*
X84426441Y-50660368D01*
X84428229Y-50653229D01*
X84430709Y-50646299D01*
X84433856Y-50639645D01*
X84437640Y-50633332D01*
X84442024Y-50627421D01*
X84446967Y-50621967D01*
X84452421Y-50617024D01*
X84458332Y-50612640D01*
X84464645Y-50608856D01*
X84471299Y-50605709D01*
X84478229Y-50603229D01*
X84485368Y-50601441D01*
X84492649Y-50600361D01*
X84500000Y-50600000D01*
X85825000Y-50600000D01*
X85832351Y-50600361D01*
X85832351Y-50600361D01*
G37*
D12*
X85162500Y-50750000D03*
D10*
G36*
X85832351Y-50100361D02*
G01*
X85839632Y-50101441D01*
X85846771Y-50103229D01*
X85853701Y-50105709D01*
X85860355Y-50108856D01*
X85866668Y-50112640D01*
X85872579Y-50117024D01*
X85878033Y-50121967D01*
X85882976Y-50127421D01*
X85887360Y-50133332D01*
X85891144Y-50139645D01*
X85894291Y-50146299D01*
X85896771Y-50153229D01*
X85898559Y-50160368D01*
X85899639Y-50167649D01*
X85900000Y-50175000D01*
X85900000Y-50325000D01*
X85899639Y-50332351D01*
X85898559Y-50339632D01*
X85896771Y-50346771D01*
X85894291Y-50353701D01*
X85891144Y-50360355D01*
X85887360Y-50366668D01*
X85882976Y-50372579D01*
X85878033Y-50378033D01*
X85872579Y-50382976D01*
X85866668Y-50387360D01*
X85860355Y-50391144D01*
X85853701Y-50394291D01*
X85846771Y-50396771D01*
X85839632Y-50398559D01*
X85832351Y-50399639D01*
X85825000Y-50400000D01*
X84500000Y-50400000D01*
X84492649Y-50399639D01*
X84485368Y-50398559D01*
X84478229Y-50396771D01*
X84471299Y-50394291D01*
X84464645Y-50391144D01*
X84458332Y-50387360D01*
X84452421Y-50382976D01*
X84446967Y-50378033D01*
X84442024Y-50372579D01*
X84437640Y-50366668D01*
X84433856Y-50360355D01*
X84430709Y-50353701D01*
X84428229Y-50346771D01*
X84426441Y-50339632D01*
X84425361Y-50332351D01*
X84425000Y-50325000D01*
X84425000Y-50175000D01*
X84425361Y-50167649D01*
X84426441Y-50160368D01*
X84428229Y-50153229D01*
X84430709Y-50146299D01*
X84433856Y-50139645D01*
X84437640Y-50133332D01*
X84442024Y-50127421D01*
X84446967Y-50121967D01*
X84452421Y-50117024D01*
X84458332Y-50112640D01*
X84464645Y-50108856D01*
X84471299Y-50105709D01*
X84478229Y-50103229D01*
X84485368Y-50101441D01*
X84492649Y-50100361D01*
X84500000Y-50100000D01*
X85825000Y-50100000D01*
X85832351Y-50100361D01*
X85832351Y-50100361D01*
G37*
D12*
X85162500Y-50250000D03*
D10*
G36*
X85832351Y-49600361D02*
G01*
X85839632Y-49601441D01*
X85846771Y-49603229D01*
X85853701Y-49605709D01*
X85860355Y-49608856D01*
X85866668Y-49612640D01*
X85872579Y-49617024D01*
X85878033Y-49621967D01*
X85882976Y-49627421D01*
X85887360Y-49633332D01*
X85891144Y-49639645D01*
X85894291Y-49646299D01*
X85896771Y-49653229D01*
X85898559Y-49660368D01*
X85899639Y-49667649D01*
X85900000Y-49675000D01*
X85900000Y-49825000D01*
X85899639Y-49832351D01*
X85898559Y-49839632D01*
X85896771Y-49846771D01*
X85894291Y-49853701D01*
X85891144Y-49860355D01*
X85887360Y-49866668D01*
X85882976Y-49872579D01*
X85878033Y-49878033D01*
X85872579Y-49882976D01*
X85866668Y-49887360D01*
X85860355Y-49891144D01*
X85853701Y-49894291D01*
X85846771Y-49896771D01*
X85839632Y-49898559D01*
X85832351Y-49899639D01*
X85825000Y-49900000D01*
X84500000Y-49900000D01*
X84492649Y-49899639D01*
X84485368Y-49898559D01*
X84478229Y-49896771D01*
X84471299Y-49894291D01*
X84464645Y-49891144D01*
X84458332Y-49887360D01*
X84452421Y-49882976D01*
X84446967Y-49878033D01*
X84442024Y-49872579D01*
X84437640Y-49866668D01*
X84433856Y-49860355D01*
X84430709Y-49853701D01*
X84428229Y-49846771D01*
X84426441Y-49839632D01*
X84425361Y-49832351D01*
X84425000Y-49825000D01*
X84425000Y-49675000D01*
X84425361Y-49667649D01*
X84426441Y-49660368D01*
X84428229Y-49653229D01*
X84430709Y-49646299D01*
X84433856Y-49639645D01*
X84437640Y-49633332D01*
X84442024Y-49627421D01*
X84446967Y-49621967D01*
X84452421Y-49617024D01*
X84458332Y-49612640D01*
X84464645Y-49608856D01*
X84471299Y-49605709D01*
X84478229Y-49603229D01*
X84485368Y-49601441D01*
X84492649Y-49600361D01*
X84500000Y-49600000D01*
X85825000Y-49600000D01*
X85832351Y-49600361D01*
X85832351Y-49600361D01*
G37*
D12*
X85162500Y-49750000D03*
D10*
G36*
X85832351Y-49100361D02*
G01*
X85839632Y-49101441D01*
X85846771Y-49103229D01*
X85853701Y-49105709D01*
X85860355Y-49108856D01*
X85866668Y-49112640D01*
X85872579Y-49117024D01*
X85878033Y-49121967D01*
X85882976Y-49127421D01*
X85887360Y-49133332D01*
X85891144Y-49139645D01*
X85894291Y-49146299D01*
X85896771Y-49153229D01*
X85898559Y-49160368D01*
X85899639Y-49167649D01*
X85900000Y-49175000D01*
X85900000Y-49325000D01*
X85899639Y-49332351D01*
X85898559Y-49339632D01*
X85896771Y-49346771D01*
X85894291Y-49353701D01*
X85891144Y-49360355D01*
X85887360Y-49366668D01*
X85882976Y-49372579D01*
X85878033Y-49378033D01*
X85872579Y-49382976D01*
X85866668Y-49387360D01*
X85860355Y-49391144D01*
X85853701Y-49394291D01*
X85846771Y-49396771D01*
X85839632Y-49398559D01*
X85832351Y-49399639D01*
X85825000Y-49400000D01*
X84500000Y-49400000D01*
X84492649Y-49399639D01*
X84485368Y-49398559D01*
X84478229Y-49396771D01*
X84471299Y-49394291D01*
X84464645Y-49391144D01*
X84458332Y-49387360D01*
X84452421Y-49382976D01*
X84446967Y-49378033D01*
X84442024Y-49372579D01*
X84437640Y-49366668D01*
X84433856Y-49360355D01*
X84430709Y-49353701D01*
X84428229Y-49346771D01*
X84426441Y-49339632D01*
X84425361Y-49332351D01*
X84425000Y-49325000D01*
X84425000Y-49175000D01*
X84425361Y-49167649D01*
X84426441Y-49160368D01*
X84428229Y-49153229D01*
X84430709Y-49146299D01*
X84433856Y-49139645D01*
X84437640Y-49133332D01*
X84442024Y-49127421D01*
X84446967Y-49121967D01*
X84452421Y-49117024D01*
X84458332Y-49112640D01*
X84464645Y-49108856D01*
X84471299Y-49105709D01*
X84478229Y-49103229D01*
X84485368Y-49101441D01*
X84492649Y-49100361D01*
X84500000Y-49100000D01*
X85825000Y-49100000D01*
X85832351Y-49100361D01*
X85832351Y-49100361D01*
G37*
D12*
X85162500Y-49250000D03*
D10*
G36*
X85832351Y-48600361D02*
G01*
X85839632Y-48601441D01*
X85846771Y-48603229D01*
X85853701Y-48605709D01*
X85860355Y-48608856D01*
X85866668Y-48612640D01*
X85872579Y-48617024D01*
X85878033Y-48621967D01*
X85882976Y-48627421D01*
X85887360Y-48633332D01*
X85891144Y-48639645D01*
X85894291Y-48646299D01*
X85896771Y-48653229D01*
X85898559Y-48660368D01*
X85899639Y-48667649D01*
X85900000Y-48675000D01*
X85900000Y-48825000D01*
X85899639Y-48832351D01*
X85898559Y-48839632D01*
X85896771Y-48846771D01*
X85894291Y-48853701D01*
X85891144Y-48860355D01*
X85887360Y-48866668D01*
X85882976Y-48872579D01*
X85878033Y-48878033D01*
X85872579Y-48882976D01*
X85866668Y-48887360D01*
X85860355Y-48891144D01*
X85853701Y-48894291D01*
X85846771Y-48896771D01*
X85839632Y-48898559D01*
X85832351Y-48899639D01*
X85825000Y-48900000D01*
X84500000Y-48900000D01*
X84492649Y-48899639D01*
X84485368Y-48898559D01*
X84478229Y-48896771D01*
X84471299Y-48894291D01*
X84464645Y-48891144D01*
X84458332Y-48887360D01*
X84452421Y-48882976D01*
X84446967Y-48878033D01*
X84442024Y-48872579D01*
X84437640Y-48866668D01*
X84433856Y-48860355D01*
X84430709Y-48853701D01*
X84428229Y-48846771D01*
X84426441Y-48839632D01*
X84425361Y-48832351D01*
X84425000Y-48825000D01*
X84425000Y-48675000D01*
X84425361Y-48667649D01*
X84426441Y-48660368D01*
X84428229Y-48653229D01*
X84430709Y-48646299D01*
X84433856Y-48639645D01*
X84437640Y-48633332D01*
X84442024Y-48627421D01*
X84446967Y-48621967D01*
X84452421Y-48617024D01*
X84458332Y-48612640D01*
X84464645Y-48608856D01*
X84471299Y-48605709D01*
X84478229Y-48603229D01*
X84485368Y-48601441D01*
X84492649Y-48600361D01*
X84500000Y-48600000D01*
X85825000Y-48600000D01*
X85832351Y-48600361D01*
X85832351Y-48600361D01*
G37*
D12*
X85162500Y-48750000D03*
D10*
G36*
X85832351Y-48100361D02*
G01*
X85839632Y-48101441D01*
X85846771Y-48103229D01*
X85853701Y-48105709D01*
X85860355Y-48108856D01*
X85866668Y-48112640D01*
X85872579Y-48117024D01*
X85878033Y-48121967D01*
X85882976Y-48127421D01*
X85887360Y-48133332D01*
X85891144Y-48139645D01*
X85894291Y-48146299D01*
X85896771Y-48153229D01*
X85898559Y-48160368D01*
X85899639Y-48167649D01*
X85900000Y-48175000D01*
X85900000Y-48325000D01*
X85899639Y-48332351D01*
X85898559Y-48339632D01*
X85896771Y-48346771D01*
X85894291Y-48353701D01*
X85891144Y-48360355D01*
X85887360Y-48366668D01*
X85882976Y-48372579D01*
X85878033Y-48378033D01*
X85872579Y-48382976D01*
X85866668Y-48387360D01*
X85860355Y-48391144D01*
X85853701Y-48394291D01*
X85846771Y-48396771D01*
X85839632Y-48398559D01*
X85832351Y-48399639D01*
X85825000Y-48400000D01*
X84500000Y-48400000D01*
X84492649Y-48399639D01*
X84485368Y-48398559D01*
X84478229Y-48396771D01*
X84471299Y-48394291D01*
X84464645Y-48391144D01*
X84458332Y-48387360D01*
X84452421Y-48382976D01*
X84446967Y-48378033D01*
X84442024Y-48372579D01*
X84437640Y-48366668D01*
X84433856Y-48360355D01*
X84430709Y-48353701D01*
X84428229Y-48346771D01*
X84426441Y-48339632D01*
X84425361Y-48332351D01*
X84425000Y-48325000D01*
X84425000Y-48175000D01*
X84425361Y-48167649D01*
X84426441Y-48160368D01*
X84428229Y-48153229D01*
X84430709Y-48146299D01*
X84433856Y-48139645D01*
X84437640Y-48133332D01*
X84442024Y-48127421D01*
X84446967Y-48121967D01*
X84452421Y-48117024D01*
X84458332Y-48112640D01*
X84464645Y-48108856D01*
X84471299Y-48105709D01*
X84478229Y-48103229D01*
X84485368Y-48101441D01*
X84492649Y-48100361D01*
X84500000Y-48100000D01*
X85825000Y-48100000D01*
X85832351Y-48100361D01*
X85832351Y-48100361D01*
G37*
D12*
X85162500Y-48250000D03*
D10*
G36*
X85832351Y-47600361D02*
G01*
X85839632Y-47601441D01*
X85846771Y-47603229D01*
X85853701Y-47605709D01*
X85860355Y-47608856D01*
X85866668Y-47612640D01*
X85872579Y-47617024D01*
X85878033Y-47621967D01*
X85882976Y-47627421D01*
X85887360Y-47633332D01*
X85891144Y-47639645D01*
X85894291Y-47646299D01*
X85896771Y-47653229D01*
X85898559Y-47660368D01*
X85899639Y-47667649D01*
X85900000Y-47675000D01*
X85900000Y-47825000D01*
X85899639Y-47832351D01*
X85898559Y-47839632D01*
X85896771Y-47846771D01*
X85894291Y-47853701D01*
X85891144Y-47860355D01*
X85887360Y-47866668D01*
X85882976Y-47872579D01*
X85878033Y-47878033D01*
X85872579Y-47882976D01*
X85866668Y-47887360D01*
X85860355Y-47891144D01*
X85853701Y-47894291D01*
X85846771Y-47896771D01*
X85839632Y-47898559D01*
X85832351Y-47899639D01*
X85825000Y-47900000D01*
X84500000Y-47900000D01*
X84492649Y-47899639D01*
X84485368Y-47898559D01*
X84478229Y-47896771D01*
X84471299Y-47894291D01*
X84464645Y-47891144D01*
X84458332Y-47887360D01*
X84452421Y-47882976D01*
X84446967Y-47878033D01*
X84442024Y-47872579D01*
X84437640Y-47866668D01*
X84433856Y-47860355D01*
X84430709Y-47853701D01*
X84428229Y-47846771D01*
X84426441Y-47839632D01*
X84425361Y-47832351D01*
X84425000Y-47825000D01*
X84425000Y-47675000D01*
X84425361Y-47667649D01*
X84426441Y-47660368D01*
X84428229Y-47653229D01*
X84430709Y-47646299D01*
X84433856Y-47639645D01*
X84437640Y-47633332D01*
X84442024Y-47627421D01*
X84446967Y-47621967D01*
X84452421Y-47617024D01*
X84458332Y-47612640D01*
X84464645Y-47608856D01*
X84471299Y-47605709D01*
X84478229Y-47603229D01*
X84485368Y-47601441D01*
X84492649Y-47600361D01*
X84500000Y-47600000D01*
X85825000Y-47600000D01*
X85832351Y-47600361D01*
X85832351Y-47600361D01*
G37*
D12*
X85162500Y-47750000D03*
D10*
G36*
X85832351Y-47100361D02*
G01*
X85839632Y-47101441D01*
X85846771Y-47103229D01*
X85853701Y-47105709D01*
X85860355Y-47108856D01*
X85866668Y-47112640D01*
X85872579Y-47117024D01*
X85878033Y-47121967D01*
X85882976Y-47127421D01*
X85887360Y-47133332D01*
X85891144Y-47139645D01*
X85894291Y-47146299D01*
X85896771Y-47153229D01*
X85898559Y-47160368D01*
X85899639Y-47167649D01*
X85900000Y-47175000D01*
X85900000Y-47325000D01*
X85899639Y-47332351D01*
X85898559Y-47339632D01*
X85896771Y-47346771D01*
X85894291Y-47353701D01*
X85891144Y-47360355D01*
X85887360Y-47366668D01*
X85882976Y-47372579D01*
X85878033Y-47378033D01*
X85872579Y-47382976D01*
X85866668Y-47387360D01*
X85860355Y-47391144D01*
X85853701Y-47394291D01*
X85846771Y-47396771D01*
X85839632Y-47398559D01*
X85832351Y-47399639D01*
X85825000Y-47400000D01*
X84500000Y-47400000D01*
X84492649Y-47399639D01*
X84485368Y-47398559D01*
X84478229Y-47396771D01*
X84471299Y-47394291D01*
X84464645Y-47391144D01*
X84458332Y-47387360D01*
X84452421Y-47382976D01*
X84446967Y-47378033D01*
X84442024Y-47372579D01*
X84437640Y-47366668D01*
X84433856Y-47360355D01*
X84430709Y-47353701D01*
X84428229Y-47346771D01*
X84426441Y-47339632D01*
X84425361Y-47332351D01*
X84425000Y-47325000D01*
X84425000Y-47175000D01*
X84425361Y-47167649D01*
X84426441Y-47160368D01*
X84428229Y-47153229D01*
X84430709Y-47146299D01*
X84433856Y-47139645D01*
X84437640Y-47133332D01*
X84442024Y-47127421D01*
X84446967Y-47121967D01*
X84452421Y-47117024D01*
X84458332Y-47112640D01*
X84464645Y-47108856D01*
X84471299Y-47105709D01*
X84478229Y-47103229D01*
X84485368Y-47101441D01*
X84492649Y-47100361D01*
X84500000Y-47100000D01*
X85825000Y-47100000D01*
X85832351Y-47100361D01*
X85832351Y-47100361D01*
G37*
D12*
X85162500Y-47250000D03*
D10*
G36*
X83832351Y-45100361D02*
G01*
X83839632Y-45101441D01*
X83846771Y-45103229D01*
X83853701Y-45105709D01*
X83860355Y-45108856D01*
X83866668Y-45112640D01*
X83872579Y-45117024D01*
X83878033Y-45121967D01*
X83882976Y-45127421D01*
X83887360Y-45133332D01*
X83891144Y-45139645D01*
X83894291Y-45146299D01*
X83896771Y-45153229D01*
X83898559Y-45160368D01*
X83899639Y-45167649D01*
X83900000Y-45175000D01*
X83900000Y-46500000D01*
X83899639Y-46507351D01*
X83898559Y-46514632D01*
X83896771Y-46521771D01*
X83894291Y-46528701D01*
X83891144Y-46535355D01*
X83887360Y-46541668D01*
X83882976Y-46547579D01*
X83878033Y-46553033D01*
X83872579Y-46557976D01*
X83866668Y-46562360D01*
X83860355Y-46566144D01*
X83853701Y-46569291D01*
X83846771Y-46571771D01*
X83839632Y-46573559D01*
X83832351Y-46574639D01*
X83825000Y-46575000D01*
X83675000Y-46575000D01*
X83667649Y-46574639D01*
X83660368Y-46573559D01*
X83653229Y-46571771D01*
X83646299Y-46569291D01*
X83639645Y-46566144D01*
X83633332Y-46562360D01*
X83627421Y-46557976D01*
X83621967Y-46553033D01*
X83617024Y-46547579D01*
X83612640Y-46541668D01*
X83608856Y-46535355D01*
X83605709Y-46528701D01*
X83603229Y-46521771D01*
X83601441Y-46514632D01*
X83600361Y-46507351D01*
X83600000Y-46500000D01*
X83600000Y-45175000D01*
X83600361Y-45167649D01*
X83601441Y-45160368D01*
X83603229Y-45153229D01*
X83605709Y-45146299D01*
X83608856Y-45139645D01*
X83612640Y-45133332D01*
X83617024Y-45127421D01*
X83621967Y-45121967D01*
X83627421Y-45117024D01*
X83633332Y-45112640D01*
X83639645Y-45108856D01*
X83646299Y-45105709D01*
X83653229Y-45103229D01*
X83660368Y-45101441D01*
X83667649Y-45100361D01*
X83675000Y-45100000D01*
X83825000Y-45100000D01*
X83832351Y-45100361D01*
X83832351Y-45100361D01*
G37*
D12*
X83750000Y-45837500D03*
D10*
G36*
X83332351Y-45100361D02*
G01*
X83339632Y-45101441D01*
X83346771Y-45103229D01*
X83353701Y-45105709D01*
X83360355Y-45108856D01*
X83366668Y-45112640D01*
X83372579Y-45117024D01*
X83378033Y-45121967D01*
X83382976Y-45127421D01*
X83387360Y-45133332D01*
X83391144Y-45139645D01*
X83394291Y-45146299D01*
X83396771Y-45153229D01*
X83398559Y-45160368D01*
X83399639Y-45167649D01*
X83400000Y-45175000D01*
X83400000Y-46500000D01*
X83399639Y-46507351D01*
X83398559Y-46514632D01*
X83396771Y-46521771D01*
X83394291Y-46528701D01*
X83391144Y-46535355D01*
X83387360Y-46541668D01*
X83382976Y-46547579D01*
X83378033Y-46553033D01*
X83372579Y-46557976D01*
X83366668Y-46562360D01*
X83360355Y-46566144D01*
X83353701Y-46569291D01*
X83346771Y-46571771D01*
X83339632Y-46573559D01*
X83332351Y-46574639D01*
X83325000Y-46575000D01*
X83175000Y-46575000D01*
X83167649Y-46574639D01*
X83160368Y-46573559D01*
X83153229Y-46571771D01*
X83146299Y-46569291D01*
X83139645Y-46566144D01*
X83133332Y-46562360D01*
X83127421Y-46557976D01*
X83121967Y-46553033D01*
X83117024Y-46547579D01*
X83112640Y-46541668D01*
X83108856Y-46535355D01*
X83105709Y-46528701D01*
X83103229Y-46521771D01*
X83101441Y-46514632D01*
X83100361Y-46507351D01*
X83100000Y-46500000D01*
X83100000Y-45175000D01*
X83100361Y-45167649D01*
X83101441Y-45160368D01*
X83103229Y-45153229D01*
X83105709Y-45146299D01*
X83108856Y-45139645D01*
X83112640Y-45133332D01*
X83117024Y-45127421D01*
X83121967Y-45121967D01*
X83127421Y-45117024D01*
X83133332Y-45112640D01*
X83139645Y-45108856D01*
X83146299Y-45105709D01*
X83153229Y-45103229D01*
X83160368Y-45101441D01*
X83167649Y-45100361D01*
X83175000Y-45100000D01*
X83325000Y-45100000D01*
X83332351Y-45100361D01*
X83332351Y-45100361D01*
G37*
D12*
X83250000Y-45837500D03*
D10*
G36*
X82832351Y-45100361D02*
G01*
X82839632Y-45101441D01*
X82846771Y-45103229D01*
X82853701Y-45105709D01*
X82860355Y-45108856D01*
X82866668Y-45112640D01*
X82872579Y-45117024D01*
X82878033Y-45121967D01*
X82882976Y-45127421D01*
X82887360Y-45133332D01*
X82891144Y-45139645D01*
X82894291Y-45146299D01*
X82896771Y-45153229D01*
X82898559Y-45160368D01*
X82899639Y-45167649D01*
X82900000Y-45175000D01*
X82900000Y-46500000D01*
X82899639Y-46507351D01*
X82898559Y-46514632D01*
X82896771Y-46521771D01*
X82894291Y-46528701D01*
X82891144Y-46535355D01*
X82887360Y-46541668D01*
X82882976Y-46547579D01*
X82878033Y-46553033D01*
X82872579Y-46557976D01*
X82866668Y-46562360D01*
X82860355Y-46566144D01*
X82853701Y-46569291D01*
X82846771Y-46571771D01*
X82839632Y-46573559D01*
X82832351Y-46574639D01*
X82825000Y-46575000D01*
X82675000Y-46575000D01*
X82667649Y-46574639D01*
X82660368Y-46573559D01*
X82653229Y-46571771D01*
X82646299Y-46569291D01*
X82639645Y-46566144D01*
X82633332Y-46562360D01*
X82627421Y-46557976D01*
X82621967Y-46553033D01*
X82617024Y-46547579D01*
X82612640Y-46541668D01*
X82608856Y-46535355D01*
X82605709Y-46528701D01*
X82603229Y-46521771D01*
X82601441Y-46514632D01*
X82600361Y-46507351D01*
X82600000Y-46500000D01*
X82600000Y-45175000D01*
X82600361Y-45167649D01*
X82601441Y-45160368D01*
X82603229Y-45153229D01*
X82605709Y-45146299D01*
X82608856Y-45139645D01*
X82612640Y-45133332D01*
X82617024Y-45127421D01*
X82621967Y-45121967D01*
X82627421Y-45117024D01*
X82633332Y-45112640D01*
X82639645Y-45108856D01*
X82646299Y-45105709D01*
X82653229Y-45103229D01*
X82660368Y-45101441D01*
X82667649Y-45100361D01*
X82675000Y-45100000D01*
X82825000Y-45100000D01*
X82832351Y-45100361D01*
X82832351Y-45100361D01*
G37*
D12*
X82750000Y-45837500D03*
D10*
G36*
X82332351Y-45100361D02*
G01*
X82339632Y-45101441D01*
X82346771Y-45103229D01*
X82353701Y-45105709D01*
X82360355Y-45108856D01*
X82366668Y-45112640D01*
X82372579Y-45117024D01*
X82378033Y-45121967D01*
X82382976Y-45127421D01*
X82387360Y-45133332D01*
X82391144Y-45139645D01*
X82394291Y-45146299D01*
X82396771Y-45153229D01*
X82398559Y-45160368D01*
X82399639Y-45167649D01*
X82400000Y-45175000D01*
X82400000Y-46500000D01*
X82399639Y-46507351D01*
X82398559Y-46514632D01*
X82396771Y-46521771D01*
X82394291Y-46528701D01*
X82391144Y-46535355D01*
X82387360Y-46541668D01*
X82382976Y-46547579D01*
X82378033Y-46553033D01*
X82372579Y-46557976D01*
X82366668Y-46562360D01*
X82360355Y-46566144D01*
X82353701Y-46569291D01*
X82346771Y-46571771D01*
X82339632Y-46573559D01*
X82332351Y-46574639D01*
X82325000Y-46575000D01*
X82175000Y-46575000D01*
X82167649Y-46574639D01*
X82160368Y-46573559D01*
X82153229Y-46571771D01*
X82146299Y-46569291D01*
X82139645Y-46566144D01*
X82133332Y-46562360D01*
X82127421Y-46557976D01*
X82121967Y-46553033D01*
X82117024Y-46547579D01*
X82112640Y-46541668D01*
X82108856Y-46535355D01*
X82105709Y-46528701D01*
X82103229Y-46521771D01*
X82101441Y-46514632D01*
X82100361Y-46507351D01*
X82100000Y-46500000D01*
X82100000Y-45175000D01*
X82100361Y-45167649D01*
X82101441Y-45160368D01*
X82103229Y-45153229D01*
X82105709Y-45146299D01*
X82108856Y-45139645D01*
X82112640Y-45133332D01*
X82117024Y-45127421D01*
X82121967Y-45121967D01*
X82127421Y-45117024D01*
X82133332Y-45112640D01*
X82139645Y-45108856D01*
X82146299Y-45105709D01*
X82153229Y-45103229D01*
X82160368Y-45101441D01*
X82167649Y-45100361D01*
X82175000Y-45100000D01*
X82325000Y-45100000D01*
X82332351Y-45100361D01*
X82332351Y-45100361D01*
G37*
D12*
X82250000Y-45837500D03*
D10*
G36*
X81832351Y-45100361D02*
G01*
X81839632Y-45101441D01*
X81846771Y-45103229D01*
X81853701Y-45105709D01*
X81860355Y-45108856D01*
X81866668Y-45112640D01*
X81872579Y-45117024D01*
X81878033Y-45121967D01*
X81882976Y-45127421D01*
X81887360Y-45133332D01*
X81891144Y-45139645D01*
X81894291Y-45146299D01*
X81896771Y-45153229D01*
X81898559Y-45160368D01*
X81899639Y-45167649D01*
X81900000Y-45175000D01*
X81900000Y-46500000D01*
X81899639Y-46507351D01*
X81898559Y-46514632D01*
X81896771Y-46521771D01*
X81894291Y-46528701D01*
X81891144Y-46535355D01*
X81887360Y-46541668D01*
X81882976Y-46547579D01*
X81878033Y-46553033D01*
X81872579Y-46557976D01*
X81866668Y-46562360D01*
X81860355Y-46566144D01*
X81853701Y-46569291D01*
X81846771Y-46571771D01*
X81839632Y-46573559D01*
X81832351Y-46574639D01*
X81825000Y-46575000D01*
X81675000Y-46575000D01*
X81667649Y-46574639D01*
X81660368Y-46573559D01*
X81653229Y-46571771D01*
X81646299Y-46569291D01*
X81639645Y-46566144D01*
X81633332Y-46562360D01*
X81627421Y-46557976D01*
X81621967Y-46553033D01*
X81617024Y-46547579D01*
X81612640Y-46541668D01*
X81608856Y-46535355D01*
X81605709Y-46528701D01*
X81603229Y-46521771D01*
X81601441Y-46514632D01*
X81600361Y-46507351D01*
X81600000Y-46500000D01*
X81600000Y-45175000D01*
X81600361Y-45167649D01*
X81601441Y-45160368D01*
X81603229Y-45153229D01*
X81605709Y-45146299D01*
X81608856Y-45139645D01*
X81612640Y-45133332D01*
X81617024Y-45127421D01*
X81621967Y-45121967D01*
X81627421Y-45117024D01*
X81633332Y-45112640D01*
X81639645Y-45108856D01*
X81646299Y-45105709D01*
X81653229Y-45103229D01*
X81660368Y-45101441D01*
X81667649Y-45100361D01*
X81675000Y-45100000D01*
X81825000Y-45100000D01*
X81832351Y-45100361D01*
X81832351Y-45100361D01*
G37*
D12*
X81750000Y-45837500D03*
D10*
G36*
X81332351Y-45100361D02*
G01*
X81339632Y-45101441D01*
X81346771Y-45103229D01*
X81353701Y-45105709D01*
X81360355Y-45108856D01*
X81366668Y-45112640D01*
X81372579Y-45117024D01*
X81378033Y-45121967D01*
X81382976Y-45127421D01*
X81387360Y-45133332D01*
X81391144Y-45139645D01*
X81394291Y-45146299D01*
X81396771Y-45153229D01*
X81398559Y-45160368D01*
X81399639Y-45167649D01*
X81400000Y-45175000D01*
X81400000Y-46500000D01*
X81399639Y-46507351D01*
X81398559Y-46514632D01*
X81396771Y-46521771D01*
X81394291Y-46528701D01*
X81391144Y-46535355D01*
X81387360Y-46541668D01*
X81382976Y-46547579D01*
X81378033Y-46553033D01*
X81372579Y-46557976D01*
X81366668Y-46562360D01*
X81360355Y-46566144D01*
X81353701Y-46569291D01*
X81346771Y-46571771D01*
X81339632Y-46573559D01*
X81332351Y-46574639D01*
X81325000Y-46575000D01*
X81175000Y-46575000D01*
X81167649Y-46574639D01*
X81160368Y-46573559D01*
X81153229Y-46571771D01*
X81146299Y-46569291D01*
X81139645Y-46566144D01*
X81133332Y-46562360D01*
X81127421Y-46557976D01*
X81121967Y-46553033D01*
X81117024Y-46547579D01*
X81112640Y-46541668D01*
X81108856Y-46535355D01*
X81105709Y-46528701D01*
X81103229Y-46521771D01*
X81101441Y-46514632D01*
X81100361Y-46507351D01*
X81100000Y-46500000D01*
X81100000Y-45175000D01*
X81100361Y-45167649D01*
X81101441Y-45160368D01*
X81103229Y-45153229D01*
X81105709Y-45146299D01*
X81108856Y-45139645D01*
X81112640Y-45133332D01*
X81117024Y-45127421D01*
X81121967Y-45121967D01*
X81127421Y-45117024D01*
X81133332Y-45112640D01*
X81139645Y-45108856D01*
X81146299Y-45105709D01*
X81153229Y-45103229D01*
X81160368Y-45101441D01*
X81167649Y-45100361D01*
X81175000Y-45100000D01*
X81325000Y-45100000D01*
X81332351Y-45100361D01*
X81332351Y-45100361D01*
G37*
D12*
X81250000Y-45837500D03*
D10*
G36*
X80832351Y-45100361D02*
G01*
X80839632Y-45101441D01*
X80846771Y-45103229D01*
X80853701Y-45105709D01*
X80860355Y-45108856D01*
X80866668Y-45112640D01*
X80872579Y-45117024D01*
X80878033Y-45121967D01*
X80882976Y-45127421D01*
X80887360Y-45133332D01*
X80891144Y-45139645D01*
X80894291Y-45146299D01*
X80896771Y-45153229D01*
X80898559Y-45160368D01*
X80899639Y-45167649D01*
X80900000Y-45175000D01*
X80900000Y-46500000D01*
X80899639Y-46507351D01*
X80898559Y-46514632D01*
X80896771Y-46521771D01*
X80894291Y-46528701D01*
X80891144Y-46535355D01*
X80887360Y-46541668D01*
X80882976Y-46547579D01*
X80878033Y-46553033D01*
X80872579Y-46557976D01*
X80866668Y-46562360D01*
X80860355Y-46566144D01*
X80853701Y-46569291D01*
X80846771Y-46571771D01*
X80839632Y-46573559D01*
X80832351Y-46574639D01*
X80825000Y-46575000D01*
X80675000Y-46575000D01*
X80667649Y-46574639D01*
X80660368Y-46573559D01*
X80653229Y-46571771D01*
X80646299Y-46569291D01*
X80639645Y-46566144D01*
X80633332Y-46562360D01*
X80627421Y-46557976D01*
X80621967Y-46553033D01*
X80617024Y-46547579D01*
X80612640Y-46541668D01*
X80608856Y-46535355D01*
X80605709Y-46528701D01*
X80603229Y-46521771D01*
X80601441Y-46514632D01*
X80600361Y-46507351D01*
X80600000Y-46500000D01*
X80600000Y-45175000D01*
X80600361Y-45167649D01*
X80601441Y-45160368D01*
X80603229Y-45153229D01*
X80605709Y-45146299D01*
X80608856Y-45139645D01*
X80612640Y-45133332D01*
X80617024Y-45127421D01*
X80621967Y-45121967D01*
X80627421Y-45117024D01*
X80633332Y-45112640D01*
X80639645Y-45108856D01*
X80646299Y-45105709D01*
X80653229Y-45103229D01*
X80660368Y-45101441D01*
X80667649Y-45100361D01*
X80675000Y-45100000D01*
X80825000Y-45100000D01*
X80832351Y-45100361D01*
X80832351Y-45100361D01*
G37*
D12*
X80750000Y-45837500D03*
D10*
G36*
X80332351Y-45100361D02*
G01*
X80339632Y-45101441D01*
X80346771Y-45103229D01*
X80353701Y-45105709D01*
X80360355Y-45108856D01*
X80366668Y-45112640D01*
X80372579Y-45117024D01*
X80378033Y-45121967D01*
X80382976Y-45127421D01*
X80387360Y-45133332D01*
X80391144Y-45139645D01*
X80394291Y-45146299D01*
X80396771Y-45153229D01*
X80398559Y-45160368D01*
X80399639Y-45167649D01*
X80400000Y-45175000D01*
X80400000Y-46500000D01*
X80399639Y-46507351D01*
X80398559Y-46514632D01*
X80396771Y-46521771D01*
X80394291Y-46528701D01*
X80391144Y-46535355D01*
X80387360Y-46541668D01*
X80382976Y-46547579D01*
X80378033Y-46553033D01*
X80372579Y-46557976D01*
X80366668Y-46562360D01*
X80360355Y-46566144D01*
X80353701Y-46569291D01*
X80346771Y-46571771D01*
X80339632Y-46573559D01*
X80332351Y-46574639D01*
X80325000Y-46575000D01*
X80175000Y-46575000D01*
X80167649Y-46574639D01*
X80160368Y-46573559D01*
X80153229Y-46571771D01*
X80146299Y-46569291D01*
X80139645Y-46566144D01*
X80133332Y-46562360D01*
X80127421Y-46557976D01*
X80121967Y-46553033D01*
X80117024Y-46547579D01*
X80112640Y-46541668D01*
X80108856Y-46535355D01*
X80105709Y-46528701D01*
X80103229Y-46521771D01*
X80101441Y-46514632D01*
X80100361Y-46507351D01*
X80100000Y-46500000D01*
X80100000Y-45175000D01*
X80100361Y-45167649D01*
X80101441Y-45160368D01*
X80103229Y-45153229D01*
X80105709Y-45146299D01*
X80108856Y-45139645D01*
X80112640Y-45133332D01*
X80117024Y-45127421D01*
X80121967Y-45121967D01*
X80127421Y-45117024D01*
X80133332Y-45112640D01*
X80139645Y-45108856D01*
X80146299Y-45105709D01*
X80153229Y-45103229D01*
X80160368Y-45101441D01*
X80167649Y-45100361D01*
X80175000Y-45100000D01*
X80325000Y-45100000D01*
X80332351Y-45100361D01*
X80332351Y-45100361D01*
G37*
D12*
X80250000Y-45837500D03*
D10*
G36*
X79832351Y-45100361D02*
G01*
X79839632Y-45101441D01*
X79846771Y-45103229D01*
X79853701Y-45105709D01*
X79860355Y-45108856D01*
X79866668Y-45112640D01*
X79872579Y-45117024D01*
X79878033Y-45121967D01*
X79882976Y-45127421D01*
X79887360Y-45133332D01*
X79891144Y-45139645D01*
X79894291Y-45146299D01*
X79896771Y-45153229D01*
X79898559Y-45160368D01*
X79899639Y-45167649D01*
X79900000Y-45175000D01*
X79900000Y-46500000D01*
X79899639Y-46507351D01*
X79898559Y-46514632D01*
X79896771Y-46521771D01*
X79894291Y-46528701D01*
X79891144Y-46535355D01*
X79887360Y-46541668D01*
X79882976Y-46547579D01*
X79878033Y-46553033D01*
X79872579Y-46557976D01*
X79866668Y-46562360D01*
X79860355Y-46566144D01*
X79853701Y-46569291D01*
X79846771Y-46571771D01*
X79839632Y-46573559D01*
X79832351Y-46574639D01*
X79825000Y-46575000D01*
X79675000Y-46575000D01*
X79667649Y-46574639D01*
X79660368Y-46573559D01*
X79653229Y-46571771D01*
X79646299Y-46569291D01*
X79639645Y-46566144D01*
X79633332Y-46562360D01*
X79627421Y-46557976D01*
X79621967Y-46553033D01*
X79617024Y-46547579D01*
X79612640Y-46541668D01*
X79608856Y-46535355D01*
X79605709Y-46528701D01*
X79603229Y-46521771D01*
X79601441Y-46514632D01*
X79600361Y-46507351D01*
X79600000Y-46500000D01*
X79600000Y-45175000D01*
X79600361Y-45167649D01*
X79601441Y-45160368D01*
X79603229Y-45153229D01*
X79605709Y-45146299D01*
X79608856Y-45139645D01*
X79612640Y-45133332D01*
X79617024Y-45127421D01*
X79621967Y-45121967D01*
X79627421Y-45117024D01*
X79633332Y-45112640D01*
X79639645Y-45108856D01*
X79646299Y-45105709D01*
X79653229Y-45103229D01*
X79660368Y-45101441D01*
X79667649Y-45100361D01*
X79675000Y-45100000D01*
X79825000Y-45100000D01*
X79832351Y-45100361D01*
X79832351Y-45100361D01*
G37*
D12*
X79750000Y-45837500D03*
D10*
G36*
X79332351Y-45100361D02*
G01*
X79339632Y-45101441D01*
X79346771Y-45103229D01*
X79353701Y-45105709D01*
X79360355Y-45108856D01*
X79366668Y-45112640D01*
X79372579Y-45117024D01*
X79378033Y-45121967D01*
X79382976Y-45127421D01*
X79387360Y-45133332D01*
X79391144Y-45139645D01*
X79394291Y-45146299D01*
X79396771Y-45153229D01*
X79398559Y-45160368D01*
X79399639Y-45167649D01*
X79400000Y-45175000D01*
X79400000Y-46500000D01*
X79399639Y-46507351D01*
X79398559Y-46514632D01*
X79396771Y-46521771D01*
X79394291Y-46528701D01*
X79391144Y-46535355D01*
X79387360Y-46541668D01*
X79382976Y-46547579D01*
X79378033Y-46553033D01*
X79372579Y-46557976D01*
X79366668Y-46562360D01*
X79360355Y-46566144D01*
X79353701Y-46569291D01*
X79346771Y-46571771D01*
X79339632Y-46573559D01*
X79332351Y-46574639D01*
X79325000Y-46575000D01*
X79175000Y-46575000D01*
X79167649Y-46574639D01*
X79160368Y-46573559D01*
X79153229Y-46571771D01*
X79146299Y-46569291D01*
X79139645Y-46566144D01*
X79133332Y-46562360D01*
X79127421Y-46557976D01*
X79121967Y-46553033D01*
X79117024Y-46547579D01*
X79112640Y-46541668D01*
X79108856Y-46535355D01*
X79105709Y-46528701D01*
X79103229Y-46521771D01*
X79101441Y-46514632D01*
X79100361Y-46507351D01*
X79100000Y-46500000D01*
X79100000Y-45175000D01*
X79100361Y-45167649D01*
X79101441Y-45160368D01*
X79103229Y-45153229D01*
X79105709Y-45146299D01*
X79108856Y-45139645D01*
X79112640Y-45133332D01*
X79117024Y-45127421D01*
X79121967Y-45121967D01*
X79127421Y-45117024D01*
X79133332Y-45112640D01*
X79139645Y-45108856D01*
X79146299Y-45105709D01*
X79153229Y-45103229D01*
X79160368Y-45101441D01*
X79167649Y-45100361D01*
X79175000Y-45100000D01*
X79325000Y-45100000D01*
X79332351Y-45100361D01*
X79332351Y-45100361D01*
G37*
D12*
X79250000Y-45837500D03*
D10*
G36*
X78832351Y-45100361D02*
G01*
X78839632Y-45101441D01*
X78846771Y-45103229D01*
X78853701Y-45105709D01*
X78860355Y-45108856D01*
X78866668Y-45112640D01*
X78872579Y-45117024D01*
X78878033Y-45121967D01*
X78882976Y-45127421D01*
X78887360Y-45133332D01*
X78891144Y-45139645D01*
X78894291Y-45146299D01*
X78896771Y-45153229D01*
X78898559Y-45160368D01*
X78899639Y-45167649D01*
X78900000Y-45175000D01*
X78900000Y-46500000D01*
X78899639Y-46507351D01*
X78898559Y-46514632D01*
X78896771Y-46521771D01*
X78894291Y-46528701D01*
X78891144Y-46535355D01*
X78887360Y-46541668D01*
X78882976Y-46547579D01*
X78878033Y-46553033D01*
X78872579Y-46557976D01*
X78866668Y-46562360D01*
X78860355Y-46566144D01*
X78853701Y-46569291D01*
X78846771Y-46571771D01*
X78839632Y-46573559D01*
X78832351Y-46574639D01*
X78825000Y-46575000D01*
X78675000Y-46575000D01*
X78667649Y-46574639D01*
X78660368Y-46573559D01*
X78653229Y-46571771D01*
X78646299Y-46569291D01*
X78639645Y-46566144D01*
X78633332Y-46562360D01*
X78627421Y-46557976D01*
X78621967Y-46553033D01*
X78617024Y-46547579D01*
X78612640Y-46541668D01*
X78608856Y-46535355D01*
X78605709Y-46528701D01*
X78603229Y-46521771D01*
X78601441Y-46514632D01*
X78600361Y-46507351D01*
X78600000Y-46500000D01*
X78600000Y-45175000D01*
X78600361Y-45167649D01*
X78601441Y-45160368D01*
X78603229Y-45153229D01*
X78605709Y-45146299D01*
X78608856Y-45139645D01*
X78612640Y-45133332D01*
X78617024Y-45127421D01*
X78621967Y-45121967D01*
X78627421Y-45117024D01*
X78633332Y-45112640D01*
X78639645Y-45108856D01*
X78646299Y-45105709D01*
X78653229Y-45103229D01*
X78660368Y-45101441D01*
X78667649Y-45100361D01*
X78675000Y-45100000D01*
X78825000Y-45100000D01*
X78832351Y-45100361D01*
X78832351Y-45100361D01*
G37*
D12*
X78750000Y-45837500D03*
D10*
G36*
X78332351Y-45100361D02*
G01*
X78339632Y-45101441D01*
X78346771Y-45103229D01*
X78353701Y-45105709D01*
X78360355Y-45108856D01*
X78366668Y-45112640D01*
X78372579Y-45117024D01*
X78378033Y-45121967D01*
X78382976Y-45127421D01*
X78387360Y-45133332D01*
X78391144Y-45139645D01*
X78394291Y-45146299D01*
X78396771Y-45153229D01*
X78398559Y-45160368D01*
X78399639Y-45167649D01*
X78400000Y-45175000D01*
X78400000Y-46500000D01*
X78399639Y-46507351D01*
X78398559Y-46514632D01*
X78396771Y-46521771D01*
X78394291Y-46528701D01*
X78391144Y-46535355D01*
X78387360Y-46541668D01*
X78382976Y-46547579D01*
X78378033Y-46553033D01*
X78372579Y-46557976D01*
X78366668Y-46562360D01*
X78360355Y-46566144D01*
X78353701Y-46569291D01*
X78346771Y-46571771D01*
X78339632Y-46573559D01*
X78332351Y-46574639D01*
X78325000Y-46575000D01*
X78175000Y-46575000D01*
X78167649Y-46574639D01*
X78160368Y-46573559D01*
X78153229Y-46571771D01*
X78146299Y-46569291D01*
X78139645Y-46566144D01*
X78133332Y-46562360D01*
X78127421Y-46557976D01*
X78121967Y-46553033D01*
X78117024Y-46547579D01*
X78112640Y-46541668D01*
X78108856Y-46535355D01*
X78105709Y-46528701D01*
X78103229Y-46521771D01*
X78101441Y-46514632D01*
X78100361Y-46507351D01*
X78100000Y-46500000D01*
X78100000Y-45175000D01*
X78100361Y-45167649D01*
X78101441Y-45160368D01*
X78103229Y-45153229D01*
X78105709Y-45146299D01*
X78108856Y-45139645D01*
X78112640Y-45133332D01*
X78117024Y-45127421D01*
X78121967Y-45121967D01*
X78127421Y-45117024D01*
X78133332Y-45112640D01*
X78139645Y-45108856D01*
X78146299Y-45105709D01*
X78153229Y-45103229D01*
X78160368Y-45101441D01*
X78167649Y-45100361D01*
X78175000Y-45100000D01*
X78325000Y-45100000D01*
X78332351Y-45100361D01*
X78332351Y-45100361D01*
G37*
D12*
X78250000Y-45837500D03*
D13*
X107242420Y-51479000D03*
X107892420Y-51479000D03*
X108542420Y-51479000D03*
X109192420Y-51479000D03*
X109842420Y-51479000D03*
X110492420Y-51479000D03*
X111142420Y-51479000D03*
X111792420Y-51479000D03*
X112442420Y-51479000D03*
X113092420Y-51479000D03*
X113092420Y-44279000D03*
X112442420Y-44279000D03*
X111792420Y-44279000D03*
X111142420Y-44279000D03*
X110492420Y-44279000D03*
X109842420Y-44279000D03*
X109192420Y-44279000D03*
X108542420Y-44279000D03*
X107892420Y-44279000D03*
X107242420Y-44279000D03*
D10*
G36*
X97776903Y-68123922D02*
G01*
X97791464Y-68126082D01*
X97805743Y-68129659D01*
X97819603Y-68134618D01*
X97832910Y-68140912D01*
X97845536Y-68148480D01*
X97857359Y-68157248D01*
X97868266Y-68167134D01*
X97878152Y-68178041D01*
X97886920Y-68189864D01*
X97894488Y-68202490D01*
X97900782Y-68215797D01*
X97905741Y-68229657D01*
X97909318Y-68243936D01*
X97911478Y-68258497D01*
X97912200Y-68273200D01*
X97912200Y-69923200D01*
X97911478Y-69937903D01*
X97909318Y-69952464D01*
X97905741Y-69966743D01*
X97900782Y-69980603D01*
X97894488Y-69993910D01*
X97886920Y-70006536D01*
X97878152Y-70018359D01*
X97868266Y-70029266D01*
X97857359Y-70039152D01*
X97845536Y-70047920D01*
X97832910Y-70055488D01*
X97819603Y-70061782D01*
X97805743Y-70066741D01*
X97791464Y-70070318D01*
X97776903Y-70072478D01*
X97762200Y-70073200D01*
X97462200Y-70073200D01*
X97447497Y-70072478D01*
X97432936Y-70070318D01*
X97418657Y-70066741D01*
X97404797Y-70061782D01*
X97391490Y-70055488D01*
X97378864Y-70047920D01*
X97367041Y-70039152D01*
X97356134Y-70029266D01*
X97346248Y-70018359D01*
X97337480Y-70006536D01*
X97329912Y-69993910D01*
X97323618Y-69980603D01*
X97318659Y-69966743D01*
X97315082Y-69952464D01*
X97312922Y-69937903D01*
X97312200Y-69923200D01*
X97312200Y-68273200D01*
X97312922Y-68258497D01*
X97315082Y-68243936D01*
X97318659Y-68229657D01*
X97323618Y-68215797D01*
X97329912Y-68202490D01*
X97337480Y-68189864D01*
X97346248Y-68178041D01*
X97356134Y-68167134D01*
X97367041Y-68157248D01*
X97378864Y-68148480D01*
X97391490Y-68140912D01*
X97404797Y-68134618D01*
X97418657Y-68129659D01*
X97432936Y-68126082D01*
X97447497Y-68123922D01*
X97462200Y-68123200D01*
X97762200Y-68123200D01*
X97776903Y-68123922D01*
X97776903Y-68123922D01*
G37*
D14*
X97612200Y-69098200D03*
D10*
G36*
X99046903Y-68123922D02*
G01*
X99061464Y-68126082D01*
X99075743Y-68129659D01*
X99089603Y-68134618D01*
X99102910Y-68140912D01*
X99115536Y-68148480D01*
X99127359Y-68157248D01*
X99138266Y-68167134D01*
X99148152Y-68178041D01*
X99156920Y-68189864D01*
X99164488Y-68202490D01*
X99170782Y-68215797D01*
X99175741Y-68229657D01*
X99179318Y-68243936D01*
X99181478Y-68258497D01*
X99182200Y-68273200D01*
X99182200Y-69923200D01*
X99181478Y-69937903D01*
X99179318Y-69952464D01*
X99175741Y-69966743D01*
X99170782Y-69980603D01*
X99164488Y-69993910D01*
X99156920Y-70006536D01*
X99148152Y-70018359D01*
X99138266Y-70029266D01*
X99127359Y-70039152D01*
X99115536Y-70047920D01*
X99102910Y-70055488D01*
X99089603Y-70061782D01*
X99075743Y-70066741D01*
X99061464Y-70070318D01*
X99046903Y-70072478D01*
X99032200Y-70073200D01*
X98732200Y-70073200D01*
X98717497Y-70072478D01*
X98702936Y-70070318D01*
X98688657Y-70066741D01*
X98674797Y-70061782D01*
X98661490Y-70055488D01*
X98648864Y-70047920D01*
X98637041Y-70039152D01*
X98626134Y-70029266D01*
X98616248Y-70018359D01*
X98607480Y-70006536D01*
X98599912Y-69993910D01*
X98593618Y-69980603D01*
X98588659Y-69966743D01*
X98585082Y-69952464D01*
X98582922Y-69937903D01*
X98582200Y-69923200D01*
X98582200Y-68273200D01*
X98582922Y-68258497D01*
X98585082Y-68243936D01*
X98588659Y-68229657D01*
X98593618Y-68215797D01*
X98599912Y-68202490D01*
X98607480Y-68189864D01*
X98616248Y-68178041D01*
X98626134Y-68167134D01*
X98637041Y-68157248D01*
X98648864Y-68148480D01*
X98661490Y-68140912D01*
X98674797Y-68134618D01*
X98688657Y-68129659D01*
X98702936Y-68126082D01*
X98717497Y-68123922D01*
X98732200Y-68123200D01*
X99032200Y-68123200D01*
X99046903Y-68123922D01*
X99046903Y-68123922D01*
G37*
D14*
X98882200Y-69098200D03*
D10*
G36*
X100316903Y-68123922D02*
G01*
X100331464Y-68126082D01*
X100345743Y-68129659D01*
X100359603Y-68134618D01*
X100372910Y-68140912D01*
X100385536Y-68148480D01*
X100397359Y-68157248D01*
X100408266Y-68167134D01*
X100418152Y-68178041D01*
X100426920Y-68189864D01*
X100434488Y-68202490D01*
X100440782Y-68215797D01*
X100445741Y-68229657D01*
X100449318Y-68243936D01*
X100451478Y-68258497D01*
X100452200Y-68273200D01*
X100452200Y-69923200D01*
X100451478Y-69937903D01*
X100449318Y-69952464D01*
X100445741Y-69966743D01*
X100440782Y-69980603D01*
X100434488Y-69993910D01*
X100426920Y-70006536D01*
X100418152Y-70018359D01*
X100408266Y-70029266D01*
X100397359Y-70039152D01*
X100385536Y-70047920D01*
X100372910Y-70055488D01*
X100359603Y-70061782D01*
X100345743Y-70066741D01*
X100331464Y-70070318D01*
X100316903Y-70072478D01*
X100302200Y-70073200D01*
X100002200Y-70073200D01*
X99987497Y-70072478D01*
X99972936Y-70070318D01*
X99958657Y-70066741D01*
X99944797Y-70061782D01*
X99931490Y-70055488D01*
X99918864Y-70047920D01*
X99907041Y-70039152D01*
X99896134Y-70029266D01*
X99886248Y-70018359D01*
X99877480Y-70006536D01*
X99869912Y-69993910D01*
X99863618Y-69980603D01*
X99858659Y-69966743D01*
X99855082Y-69952464D01*
X99852922Y-69937903D01*
X99852200Y-69923200D01*
X99852200Y-68273200D01*
X99852922Y-68258497D01*
X99855082Y-68243936D01*
X99858659Y-68229657D01*
X99863618Y-68215797D01*
X99869912Y-68202490D01*
X99877480Y-68189864D01*
X99886248Y-68178041D01*
X99896134Y-68167134D01*
X99907041Y-68157248D01*
X99918864Y-68148480D01*
X99931490Y-68140912D01*
X99944797Y-68134618D01*
X99958657Y-68129659D01*
X99972936Y-68126082D01*
X99987497Y-68123922D01*
X100002200Y-68123200D01*
X100302200Y-68123200D01*
X100316903Y-68123922D01*
X100316903Y-68123922D01*
G37*
D14*
X100152200Y-69098200D03*
D10*
G36*
X101586903Y-68123922D02*
G01*
X101601464Y-68126082D01*
X101615743Y-68129659D01*
X101629603Y-68134618D01*
X101642910Y-68140912D01*
X101655536Y-68148480D01*
X101667359Y-68157248D01*
X101678266Y-68167134D01*
X101688152Y-68178041D01*
X101696920Y-68189864D01*
X101704488Y-68202490D01*
X101710782Y-68215797D01*
X101715741Y-68229657D01*
X101719318Y-68243936D01*
X101721478Y-68258497D01*
X101722200Y-68273200D01*
X101722200Y-69923200D01*
X101721478Y-69937903D01*
X101719318Y-69952464D01*
X101715741Y-69966743D01*
X101710782Y-69980603D01*
X101704488Y-69993910D01*
X101696920Y-70006536D01*
X101688152Y-70018359D01*
X101678266Y-70029266D01*
X101667359Y-70039152D01*
X101655536Y-70047920D01*
X101642910Y-70055488D01*
X101629603Y-70061782D01*
X101615743Y-70066741D01*
X101601464Y-70070318D01*
X101586903Y-70072478D01*
X101572200Y-70073200D01*
X101272200Y-70073200D01*
X101257497Y-70072478D01*
X101242936Y-70070318D01*
X101228657Y-70066741D01*
X101214797Y-70061782D01*
X101201490Y-70055488D01*
X101188864Y-70047920D01*
X101177041Y-70039152D01*
X101166134Y-70029266D01*
X101156248Y-70018359D01*
X101147480Y-70006536D01*
X101139912Y-69993910D01*
X101133618Y-69980603D01*
X101128659Y-69966743D01*
X101125082Y-69952464D01*
X101122922Y-69937903D01*
X101122200Y-69923200D01*
X101122200Y-68273200D01*
X101122922Y-68258497D01*
X101125082Y-68243936D01*
X101128659Y-68229657D01*
X101133618Y-68215797D01*
X101139912Y-68202490D01*
X101147480Y-68189864D01*
X101156248Y-68178041D01*
X101166134Y-68167134D01*
X101177041Y-68157248D01*
X101188864Y-68148480D01*
X101201490Y-68140912D01*
X101214797Y-68134618D01*
X101228657Y-68129659D01*
X101242936Y-68126082D01*
X101257497Y-68123922D01*
X101272200Y-68123200D01*
X101572200Y-68123200D01*
X101586903Y-68123922D01*
X101586903Y-68123922D01*
G37*
D14*
X101422200Y-69098200D03*
D10*
G36*
X101586903Y-63173922D02*
G01*
X101601464Y-63176082D01*
X101615743Y-63179659D01*
X101629603Y-63184618D01*
X101642910Y-63190912D01*
X101655536Y-63198480D01*
X101667359Y-63207248D01*
X101678266Y-63217134D01*
X101688152Y-63228041D01*
X101696920Y-63239864D01*
X101704488Y-63252490D01*
X101710782Y-63265797D01*
X101715741Y-63279657D01*
X101719318Y-63293936D01*
X101721478Y-63308497D01*
X101722200Y-63323200D01*
X101722200Y-64973200D01*
X101721478Y-64987903D01*
X101719318Y-65002464D01*
X101715741Y-65016743D01*
X101710782Y-65030603D01*
X101704488Y-65043910D01*
X101696920Y-65056536D01*
X101688152Y-65068359D01*
X101678266Y-65079266D01*
X101667359Y-65089152D01*
X101655536Y-65097920D01*
X101642910Y-65105488D01*
X101629603Y-65111782D01*
X101615743Y-65116741D01*
X101601464Y-65120318D01*
X101586903Y-65122478D01*
X101572200Y-65123200D01*
X101272200Y-65123200D01*
X101257497Y-65122478D01*
X101242936Y-65120318D01*
X101228657Y-65116741D01*
X101214797Y-65111782D01*
X101201490Y-65105488D01*
X101188864Y-65097920D01*
X101177041Y-65089152D01*
X101166134Y-65079266D01*
X101156248Y-65068359D01*
X101147480Y-65056536D01*
X101139912Y-65043910D01*
X101133618Y-65030603D01*
X101128659Y-65016743D01*
X101125082Y-65002464D01*
X101122922Y-64987903D01*
X101122200Y-64973200D01*
X101122200Y-63323200D01*
X101122922Y-63308497D01*
X101125082Y-63293936D01*
X101128659Y-63279657D01*
X101133618Y-63265797D01*
X101139912Y-63252490D01*
X101147480Y-63239864D01*
X101156248Y-63228041D01*
X101166134Y-63217134D01*
X101177041Y-63207248D01*
X101188864Y-63198480D01*
X101201490Y-63190912D01*
X101214797Y-63184618D01*
X101228657Y-63179659D01*
X101242936Y-63176082D01*
X101257497Y-63173922D01*
X101272200Y-63173200D01*
X101572200Y-63173200D01*
X101586903Y-63173922D01*
X101586903Y-63173922D01*
G37*
D14*
X101422200Y-64148200D03*
D10*
G36*
X100316903Y-63173922D02*
G01*
X100331464Y-63176082D01*
X100345743Y-63179659D01*
X100359603Y-63184618D01*
X100372910Y-63190912D01*
X100385536Y-63198480D01*
X100397359Y-63207248D01*
X100408266Y-63217134D01*
X100418152Y-63228041D01*
X100426920Y-63239864D01*
X100434488Y-63252490D01*
X100440782Y-63265797D01*
X100445741Y-63279657D01*
X100449318Y-63293936D01*
X100451478Y-63308497D01*
X100452200Y-63323200D01*
X100452200Y-64973200D01*
X100451478Y-64987903D01*
X100449318Y-65002464D01*
X100445741Y-65016743D01*
X100440782Y-65030603D01*
X100434488Y-65043910D01*
X100426920Y-65056536D01*
X100418152Y-65068359D01*
X100408266Y-65079266D01*
X100397359Y-65089152D01*
X100385536Y-65097920D01*
X100372910Y-65105488D01*
X100359603Y-65111782D01*
X100345743Y-65116741D01*
X100331464Y-65120318D01*
X100316903Y-65122478D01*
X100302200Y-65123200D01*
X100002200Y-65123200D01*
X99987497Y-65122478D01*
X99972936Y-65120318D01*
X99958657Y-65116741D01*
X99944797Y-65111782D01*
X99931490Y-65105488D01*
X99918864Y-65097920D01*
X99907041Y-65089152D01*
X99896134Y-65079266D01*
X99886248Y-65068359D01*
X99877480Y-65056536D01*
X99869912Y-65043910D01*
X99863618Y-65030603D01*
X99858659Y-65016743D01*
X99855082Y-65002464D01*
X99852922Y-64987903D01*
X99852200Y-64973200D01*
X99852200Y-63323200D01*
X99852922Y-63308497D01*
X99855082Y-63293936D01*
X99858659Y-63279657D01*
X99863618Y-63265797D01*
X99869912Y-63252490D01*
X99877480Y-63239864D01*
X99886248Y-63228041D01*
X99896134Y-63217134D01*
X99907041Y-63207248D01*
X99918864Y-63198480D01*
X99931490Y-63190912D01*
X99944797Y-63184618D01*
X99958657Y-63179659D01*
X99972936Y-63176082D01*
X99987497Y-63173922D01*
X100002200Y-63173200D01*
X100302200Y-63173200D01*
X100316903Y-63173922D01*
X100316903Y-63173922D01*
G37*
D14*
X100152200Y-64148200D03*
D10*
G36*
X99046903Y-63173922D02*
G01*
X99061464Y-63176082D01*
X99075743Y-63179659D01*
X99089603Y-63184618D01*
X99102910Y-63190912D01*
X99115536Y-63198480D01*
X99127359Y-63207248D01*
X99138266Y-63217134D01*
X99148152Y-63228041D01*
X99156920Y-63239864D01*
X99164488Y-63252490D01*
X99170782Y-63265797D01*
X99175741Y-63279657D01*
X99179318Y-63293936D01*
X99181478Y-63308497D01*
X99182200Y-63323200D01*
X99182200Y-64973200D01*
X99181478Y-64987903D01*
X99179318Y-65002464D01*
X99175741Y-65016743D01*
X99170782Y-65030603D01*
X99164488Y-65043910D01*
X99156920Y-65056536D01*
X99148152Y-65068359D01*
X99138266Y-65079266D01*
X99127359Y-65089152D01*
X99115536Y-65097920D01*
X99102910Y-65105488D01*
X99089603Y-65111782D01*
X99075743Y-65116741D01*
X99061464Y-65120318D01*
X99046903Y-65122478D01*
X99032200Y-65123200D01*
X98732200Y-65123200D01*
X98717497Y-65122478D01*
X98702936Y-65120318D01*
X98688657Y-65116741D01*
X98674797Y-65111782D01*
X98661490Y-65105488D01*
X98648864Y-65097920D01*
X98637041Y-65089152D01*
X98626134Y-65079266D01*
X98616248Y-65068359D01*
X98607480Y-65056536D01*
X98599912Y-65043910D01*
X98593618Y-65030603D01*
X98588659Y-65016743D01*
X98585082Y-65002464D01*
X98582922Y-64987903D01*
X98582200Y-64973200D01*
X98582200Y-63323200D01*
X98582922Y-63308497D01*
X98585082Y-63293936D01*
X98588659Y-63279657D01*
X98593618Y-63265797D01*
X98599912Y-63252490D01*
X98607480Y-63239864D01*
X98616248Y-63228041D01*
X98626134Y-63217134D01*
X98637041Y-63207248D01*
X98648864Y-63198480D01*
X98661490Y-63190912D01*
X98674797Y-63184618D01*
X98688657Y-63179659D01*
X98702936Y-63176082D01*
X98717497Y-63173922D01*
X98732200Y-63173200D01*
X99032200Y-63173200D01*
X99046903Y-63173922D01*
X99046903Y-63173922D01*
G37*
D14*
X98882200Y-64148200D03*
D10*
G36*
X97776903Y-63173922D02*
G01*
X97791464Y-63176082D01*
X97805743Y-63179659D01*
X97819603Y-63184618D01*
X97832910Y-63190912D01*
X97845536Y-63198480D01*
X97857359Y-63207248D01*
X97868266Y-63217134D01*
X97878152Y-63228041D01*
X97886920Y-63239864D01*
X97894488Y-63252490D01*
X97900782Y-63265797D01*
X97905741Y-63279657D01*
X97909318Y-63293936D01*
X97911478Y-63308497D01*
X97912200Y-63323200D01*
X97912200Y-64973200D01*
X97911478Y-64987903D01*
X97909318Y-65002464D01*
X97905741Y-65016743D01*
X97900782Y-65030603D01*
X97894488Y-65043910D01*
X97886920Y-65056536D01*
X97878152Y-65068359D01*
X97868266Y-65079266D01*
X97857359Y-65089152D01*
X97845536Y-65097920D01*
X97832910Y-65105488D01*
X97819603Y-65111782D01*
X97805743Y-65116741D01*
X97791464Y-65120318D01*
X97776903Y-65122478D01*
X97762200Y-65123200D01*
X97462200Y-65123200D01*
X97447497Y-65122478D01*
X97432936Y-65120318D01*
X97418657Y-65116741D01*
X97404797Y-65111782D01*
X97391490Y-65105488D01*
X97378864Y-65097920D01*
X97367041Y-65089152D01*
X97356134Y-65079266D01*
X97346248Y-65068359D01*
X97337480Y-65056536D01*
X97329912Y-65043910D01*
X97323618Y-65030603D01*
X97318659Y-65016743D01*
X97315082Y-65002464D01*
X97312922Y-64987903D01*
X97312200Y-64973200D01*
X97312200Y-63323200D01*
X97312922Y-63308497D01*
X97315082Y-63293936D01*
X97318659Y-63279657D01*
X97323618Y-63265797D01*
X97329912Y-63252490D01*
X97337480Y-63239864D01*
X97346248Y-63228041D01*
X97356134Y-63217134D01*
X97367041Y-63207248D01*
X97378864Y-63198480D01*
X97391490Y-63190912D01*
X97404797Y-63184618D01*
X97418657Y-63179659D01*
X97432936Y-63176082D01*
X97447497Y-63173922D01*
X97462200Y-63173200D01*
X97762200Y-63173200D01*
X97776903Y-63173922D01*
X97776903Y-63173922D01*
G37*
D14*
X97612200Y-64148200D03*
D13*
X107035600Y-67163700D03*
X107685600Y-67163700D03*
X108335600Y-67163700D03*
X108985600Y-67163700D03*
X109635600Y-67163700D03*
X110285600Y-67163700D03*
X110935600Y-67163700D03*
X111585600Y-67163700D03*
X112235600Y-67163700D03*
X112885600Y-67163700D03*
X112885600Y-74363700D03*
X112235600Y-74363700D03*
X111585600Y-74363700D03*
X110935600Y-74363700D03*
X110285600Y-74363700D03*
X109635600Y-74363700D03*
X108985600Y-74363700D03*
X108335600Y-74363700D03*
X107685600Y-74363700D03*
X107035600Y-74363700D03*
D15*
X93980000Y-64630800D03*
X88350000Y-64630800D03*
X88350000Y-68780800D03*
X93980000Y-68780800D03*
M02*
