G04 #@! TF.GenerationSoftware,KiCad,Pcbnew,5.1.2*
G04 #@! TF.CreationDate,2019-07-01T14:10:27+02:00*
G04 #@! TF.ProjectId,pcb,7063622e-6b69-4636-9164-5f7063625858,rev?*
G04 #@! TF.SameCoordinates,Original*
G04 #@! TF.FileFunction,Copper,L2,Bot*
G04 #@! TF.FilePolarity,Positive*
%FSLAX46Y46*%
G04 Gerber Fmt 4.6, Leading zero omitted, Abs format (unit mm)*
G04 Created by KiCad (PCBNEW 5.1.2) date 2019-07-01 14:10:27*
%MOMM*%
%LPD*%
G04 APERTURE LIST*
%ADD10R,2.500000X2.500000*%
%ADD11C,2.500000*%
%ADD12R,1.700000X1.700000*%
%ADD13C,1.700000*%
%ADD14O,1.700000X1.700000*%
%ADD15C,2.000000*%
%ADD16R,2.000000X1.905000*%
%ADD17O,2.000000X1.905000*%
%ADD18C,0.800000*%
%ADD19C,0.500000*%
%ADD20C,0.600000*%
%ADD21C,0.250000*%
%ADD22C,0.254000*%
G04 APERTURE END LIST*
D10*
X56000000Y-48000000D03*
D11*
X56000000Y-43000000D03*
D12*
X101000000Y-59000000D03*
D13*
X101000000Y-56460000D03*
X101000000Y-53920000D03*
X101000000Y-51380000D03*
X101000000Y-48840000D03*
X101000000Y-46300000D03*
X101000000Y-43760000D03*
X101000000Y-41220000D03*
X64170000Y-41220000D03*
X64170000Y-43760000D03*
X64170000Y-46300000D03*
X64170000Y-48840000D03*
X64170000Y-51380000D03*
X64170000Y-53920000D03*
X64170000Y-56460000D03*
X64170000Y-59000000D03*
D12*
X61849000Y-33000000D03*
D14*
X64389000Y-33000000D03*
X66929000Y-33000000D03*
X69469000Y-33000000D03*
D12*
X77137760Y-33000000D03*
D14*
X79677760Y-33000000D03*
X82217760Y-33000000D03*
X84757760Y-33000000D03*
X87297760Y-33000000D03*
X89837760Y-33000000D03*
X92377760Y-33000000D03*
X94917760Y-33000000D03*
D12*
X96926400Y-87985600D03*
D14*
X99466400Y-87985600D03*
X96926400Y-85445600D03*
X99466400Y-85445600D03*
X96926400Y-82905600D03*
X99466400Y-82905600D03*
X96926400Y-80365600D03*
X99466400Y-80365600D03*
D11*
X123553220Y-51539560D03*
D10*
X123553220Y-56539560D03*
X123553220Y-46436280D03*
D11*
X123553220Y-41436280D03*
D10*
X63282200Y-85142000D03*
D11*
X68282200Y-85142000D03*
X78282200Y-85142000D03*
D10*
X73282200Y-85142000D03*
D11*
X88282200Y-85142000D03*
D10*
X83282200Y-85142000D03*
X123625800Y-80221400D03*
D11*
X123625800Y-75221400D03*
X123612400Y-64964200D03*
D10*
X123612400Y-69964200D03*
X56000000Y-68000000D03*
D11*
X56000000Y-73000000D03*
D15*
X52662700Y-53644800D03*
X57162700Y-53644800D03*
X52662700Y-60144800D03*
X57162700Y-60144800D03*
D16*
X66000000Y-73000000D03*
D17*
X66000000Y-70460000D03*
X66000000Y-67920000D03*
D18*
X113233200Y-54711600D03*
X99237800Y-61341000D03*
X80500000Y-52000000D03*
X83134200Y-57607200D03*
X85928200Y-42392600D03*
X89966800Y-42443400D03*
X108585000Y-58115200D03*
X113614200Y-81432400D03*
X113284000Y-77927200D03*
X66700400Y-82626200D03*
X76682600Y-82473800D03*
X88950800Y-48564800D03*
X94208600Y-53898800D03*
X88366600Y-55651400D03*
X85928200Y-56718200D03*
X108026200Y-72288400D03*
X109905800Y-49072800D03*
X97586800Y-66852800D03*
X75463400Y-50292000D03*
X83185000Y-48260000D03*
X83743800Y-43586400D03*
X104038400Y-50038000D03*
X108966000Y-63347600D03*
X102971600Y-45923200D03*
X108966112Y-65151000D03*
X105587800Y-50927000D03*
X110947200Y-63652400D03*
X83489800Y-51765200D03*
X108432600Y-69418200D03*
D19*
X101000000Y-53920000D02*
X99237800Y-55682200D01*
X99237800Y-55682200D02*
X99237800Y-61341000D01*
D20*
X71704200Y-77622400D02*
X66700400Y-82626200D01*
X64170000Y-56460000D02*
X71704200Y-63994200D01*
X71704200Y-63994200D02*
X71704200Y-77622400D01*
X71704200Y-77622400D02*
X71831200Y-77622400D01*
X71831200Y-77622400D02*
X76682600Y-82473800D01*
X88950800Y-48564800D02*
X94208600Y-53822600D01*
X94208600Y-53822600D02*
X94208600Y-53898800D01*
X87299800Y-56718200D02*
X88366600Y-55651400D01*
X85928200Y-56718200D02*
X87299800Y-56718200D01*
X80023800Y-63994200D02*
X87299800Y-56718200D01*
X71704200Y-63994200D02*
X80023800Y-63994200D01*
X107904304Y-72288400D02*
X108026200Y-72288400D01*
X80023800Y-63994200D02*
X99610104Y-63994200D01*
X99610104Y-63994200D02*
X107904304Y-72288400D01*
X111847201Y-51014201D02*
X109905800Y-49072800D01*
X108026200Y-72288400D02*
X111847201Y-68467399D01*
X111847201Y-68467399D02*
X111847201Y-51014201D01*
X58648600Y-75223900D02*
X58648600Y-84988400D01*
X58648600Y-84988400D02*
X61645800Y-87985600D01*
X66000000Y-67920000D02*
X65952500Y-67920000D01*
X61645800Y-87985600D02*
X96926400Y-87985600D01*
X65952500Y-67920000D02*
X58648600Y-75223900D01*
X96926400Y-87985600D02*
X99466400Y-87985600D01*
X95148400Y-69291200D02*
X97586800Y-66852800D01*
X96926400Y-87985600D02*
X95148400Y-86207600D01*
X95148400Y-86207600D02*
X95148400Y-69291200D01*
D21*
X61849000Y-36677600D02*
X61849000Y-33000000D01*
X75463400Y-50292000D02*
X61849000Y-36677600D01*
X64389000Y-33000000D02*
X79649000Y-48260000D01*
X79649000Y-48260000D02*
X83185000Y-48260000D01*
X68104001Y-34175001D02*
X74332401Y-34175001D01*
X66929000Y-33000000D02*
X68104001Y-34175001D01*
X74332401Y-34175001D02*
X83743800Y-43586400D01*
X104038400Y-50038000D02*
X104038400Y-58420000D01*
X104038400Y-58420000D02*
X108966000Y-63347600D01*
X102971600Y-59156488D02*
X108566113Y-64751001D01*
X108566113Y-64751001D02*
X108966112Y-65151000D01*
X102971600Y-45923200D02*
X102971600Y-59156488D01*
X105587800Y-50927000D02*
X105587800Y-58089800D01*
X105587800Y-58089800D02*
X105587800Y-58293000D01*
X105587800Y-58293000D02*
X110947200Y-63652400D01*
X105918000Y-69418200D02*
X108432600Y-69418200D01*
X83489800Y-51765200D02*
X88265000Y-51765200D01*
X88265000Y-51765200D02*
X105918000Y-69418200D01*
D22*
G36*
X129598001Y-91598000D02*
G01*
X50402000Y-91598000D01*
X50402000Y-87805282D01*
X52023000Y-87805282D01*
X52023000Y-88194718D01*
X52098975Y-88576670D01*
X52248005Y-88936461D01*
X52464364Y-89260264D01*
X52739736Y-89535636D01*
X53063539Y-89751995D01*
X53423330Y-89901025D01*
X53805282Y-89977000D01*
X54194718Y-89977000D01*
X54576670Y-89901025D01*
X54936461Y-89751995D01*
X55260264Y-89535636D01*
X55535636Y-89260264D01*
X55751995Y-88936461D01*
X55901025Y-88576670D01*
X55977000Y-88194718D01*
X55977000Y-87805282D01*
X55901025Y-87423330D01*
X55751995Y-87063539D01*
X55535636Y-86739736D01*
X55260264Y-86464364D01*
X54936461Y-86248005D01*
X54576670Y-86098975D01*
X54194718Y-86023000D01*
X53805282Y-86023000D01*
X53423330Y-86098975D01*
X53063539Y-86248005D01*
X52739736Y-86464364D01*
X52464364Y-86739736D01*
X52248005Y-87063539D01*
X52098975Y-87423330D01*
X52023000Y-87805282D01*
X50402000Y-87805282D01*
X50402000Y-75223900D01*
X57968326Y-75223900D01*
X57971600Y-75257145D01*
X57971601Y-84955145D01*
X57968326Y-84988400D01*
X57981396Y-85121114D01*
X58020108Y-85248729D01*
X58082972Y-85366340D01*
X58146376Y-85443598D01*
X58146379Y-85443601D01*
X58167574Y-85469427D01*
X58193400Y-85490622D01*
X61143578Y-88440801D01*
X61164773Y-88466627D01*
X61267859Y-88551228D01*
X61385470Y-88614092D01*
X61513085Y-88652804D01*
X61612548Y-88662600D01*
X61612555Y-88662600D01*
X61645800Y-88665874D01*
X61679045Y-88662600D01*
X95697576Y-88662600D01*
X95697576Y-88835600D01*
X95704855Y-88909505D01*
X95726412Y-88980570D01*
X95761419Y-89046063D01*
X95808531Y-89103469D01*
X95865937Y-89150581D01*
X95931430Y-89185588D01*
X96002495Y-89207145D01*
X96076400Y-89214424D01*
X97776400Y-89214424D01*
X97850305Y-89207145D01*
X97921370Y-89185588D01*
X97986863Y-89150581D01*
X98044269Y-89103469D01*
X98091381Y-89046063D01*
X98126388Y-88980570D01*
X98147945Y-88909505D01*
X98155224Y-88835600D01*
X98155224Y-88662600D01*
X98436984Y-88662600D01*
X98441251Y-88670583D01*
X98594583Y-88857417D01*
X98781417Y-89010749D01*
X98994576Y-89124684D01*
X99225866Y-89194845D01*
X99406132Y-89212600D01*
X99526668Y-89212600D01*
X99706934Y-89194845D01*
X99938224Y-89124684D01*
X100151383Y-89010749D01*
X100338217Y-88857417D01*
X100491549Y-88670583D01*
X100605484Y-88457424D01*
X100675645Y-88226134D01*
X100699336Y-87985600D01*
X100681576Y-87805282D01*
X124023000Y-87805282D01*
X124023000Y-88194718D01*
X124098975Y-88576670D01*
X124248005Y-88936461D01*
X124464364Y-89260264D01*
X124739736Y-89535636D01*
X125063539Y-89751995D01*
X125423330Y-89901025D01*
X125805282Y-89977000D01*
X126194718Y-89977000D01*
X126576670Y-89901025D01*
X126936461Y-89751995D01*
X127260264Y-89535636D01*
X127535636Y-89260264D01*
X127751995Y-88936461D01*
X127901025Y-88576670D01*
X127977000Y-88194718D01*
X127977000Y-87805282D01*
X127901025Y-87423330D01*
X127751995Y-87063539D01*
X127535636Y-86739736D01*
X127260264Y-86464364D01*
X126936461Y-86248005D01*
X126576670Y-86098975D01*
X126194718Y-86023000D01*
X125805282Y-86023000D01*
X125423330Y-86098975D01*
X125063539Y-86248005D01*
X124739736Y-86464364D01*
X124464364Y-86739736D01*
X124248005Y-87063539D01*
X124098975Y-87423330D01*
X124023000Y-87805282D01*
X100681576Y-87805282D01*
X100675645Y-87745066D01*
X100605484Y-87513776D01*
X100491549Y-87300617D01*
X100338217Y-87113783D01*
X100151383Y-86960451D01*
X99938224Y-86846516D01*
X99706934Y-86776355D01*
X99526668Y-86758600D01*
X99406132Y-86758600D01*
X99225866Y-86776355D01*
X98994576Y-86846516D01*
X98781417Y-86960451D01*
X98594583Y-87113783D01*
X98441251Y-87300617D01*
X98436984Y-87308600D01*
X98155224Y-87308600D01*
X98155224Y-87135600D01*
X98147945Y-87061695D01*
X98126388Y-86990630D01*
X98091381Y-86925137D01*
X98044269Y-86867731D01*
X97986863Y-86820619D01*
X97921370Y-86785612D01*
X97850305Y-86764055D01*
X97776400Y-86756776D01*
X96654999Y-86756776D01*
X96495243Y-86597020D01*
X96685866Y-86654845D01*
X96866132Y-86672600D01*
X96986668Y-86672600D01*
X97166934Y-86654845D01*
X97398224Y-86584684D01*
X97611383Y-86470749D01*
X97798217Y-86317417D01*
X97951549Y-86130583D01*
X98065484Y-85917424D01*
X98135645Y-85686134D01*
X98159336Y-85445600D01*
X98233464Y-85445600D01*
X98257155Y-85686134D01*
X98327316Y-85917424D01*
X98441251Y-86130583D01*
X98594583Y-86317417D01*
X98781417Y-86470749D01*
X98994576Y-86584684D01*
X99225866Y-86654845D01*
X99406132Y-86672600D01*
X99526668Y-86672600D01*
X99706934Y-86654845D01*
X99938224Y-86584684D01*
X100151383Y-86470749D01*
X100338217Y-86317417D01*
X100491549Y-86130583D01*
X100605484Y-85917424D01*
X100675645Y-85686134D01*
X100699336Y-85445600D01*
X100675645Y-85205066D01*
X100605484Y-84973776D01*
X100491549Y-84760617D01*
X100338217Y-84573783D01*
X100151383Y-84420451D01*
X99938224Y-84306516D01*
X99706934Y-84236355D01*
X99526668Y-84218600D01*
X99406132Y-84218600D01*
X99225866Y-84236355D01*
X98994576Y-84306516D01*
X98781417Y-84420451D01*
X98594583Y-84573783D01*
X98441251Y-84760617D01*
X98327316Y-84973776D01*
X98257155Y-85205066D01*
X98233464Y-85445600D01*
X98159336Y-85445600D01*
X98135645Y-85205066D01*
X98065484Y-84973776D01*
X97951549Y-84760617D01*
X97798217Y-84573783D01*
X97611383Y-84420451D01*
X97398224Y-84306516D01*
X97166934Y-84236355D01*
X96986668Y-84218600D01*
X96866132Y-84218600D01*
X96685866Y-84236355D01*
X96454576Y-84306516D01*
X96241417Y-84420451D01*
X96054583Y-84573783D01*
X95901251Y-84760617D01*
X95825400Y-84902525D01*
X95825400Y-83448675D01*
X95901251Y-83590583D01*
X96054583Y-83777417D01*
X96241417Y-83930749D01*
X96454576Y-84044684D01*
X96685866Y-84114845D01*
X96866132Y-84132600D01*
X96986668Y-84132600D01*
X97166934Y-84114845D01*
X97398224Y-84044684D01*
X97611383Y-83930749D01*
X97798217Y-83777417D01*
X97951549Y-83590583D01*
X98065484Y-83377424D01*
X98135645Y-83146134D01*
X98159336Y-82905600D01*
X98135645Y-82665066D01*
X98065484Y-82433776D01*
X97951549Y-82220617D01*
X97798217Y-82033783D01*
X97611383Y-81880451D01*
X97398224Y-81766516D01*
X97384954Y-81762491D01*
X97551238Y-81703927D01*
X97800327Y-81556312D01*
X98015831Y-81362938D01*
X98189469Y-81131237D01*
X98196400Y-81116770D01*
X98203331Y-81131237D01*
X98376969Y-81362938D01*
X98592473Y-81556312D01*
X98841562Y-81703927D01*
X99007846Y-81762491D01*
X98994576Y-81766516D01*
X98781417Y-81880451D01*
X98594583Y-82033783D01*
X98441251Y-82220617D01*
X98327316Y-82433776D01*
X98257155Y-82665066D01*
X98233464Y-82905600D01*
X98257155Y-83146134D01*
X98327316Y-83377424D01*
X98441251Y-83590583D01*
X98594583Y-83777417D01*
X98781417Y-83930749D01*
X98994576Y-84044684D01*
X99225866Y-84114845D01*
X99406132Y-84132600D01*
X99526668Y-84132600D01*
X99706934Y-84114845D01*
X99938224Y-84044684D01*
X100151383Y-83930749D01*
X100338217Y-83777417D01*
X100491549Y-83590583D01*
X100605484Y-83377424D01*
X100675645Y-83146134D01*
X100699336Y-82905600D01*
X100675645Y-82665066D01*
X100605484Y-82433776D01*
X100491549Y-82220617D01*
X100338217Y-82033783D01*
X100151383Y-81880451D01*
X99938224Y-81766516D01*
X99924954Y-81762491D01*
X100091238Y-81703927D01*
X100340327Y-81556312D01*
X100555831Y-81362938D01*
X100729469Y-81131237D01*
X100854568Y-80870113D01*
X100900907Y-80717337D01*
X100780908Y-80488600D01*
X99589400Y-80488600D01*
X99589400Y-80508600D01*
X99343400Y-80508600D01*
X99343400Y-80488600D01*
X97049400Y-80488600D01*
X97049400Y-80508600D01*
X96803400Y-80508600D01*
X96803400Y-80488600D01*
X96783400Y-80488600D01*
X96783400Y-80242600D01*
X96803400Y-80242600D01*
X96803400Y-79050476D01*
X97049400Y-79050476D01*
X97049400Y-80242600D01*
X99343400Y-80242600D01*
X99343400Y-79050476D01*
X99589400Y-79050476D01*
X99589400Y-80242600D01*
X100780908Y-80242600D01*
X100900907Y-80013863D01*
X100854568Y-79861087D01*
X100729469Y-79599963D01*
X100555831Y-79368262D01*
X100340327Y-79174888D01*
X100091238Y-79027273D01*
X99932595Y-78971400D01*
X121996976Y-78971400D01*
X121996976Y-81471400D01*
X122004255Y-81545305D01*
X122025812Y-81616370D01*
X122060819Y-81681863D01*
X122107931Y-81739269D01*
X122165337Y-81786381D01*
X122230830Y-81821388D01*
X122301895Y-81842945D01*
X122375800Y-81850224D01*
X124875800Y-81850224D01*
X124949705Y-81842945D01*
X125020770Y-81821388D01*
X125086263Y-81786381D01*
X125143669Y-81739269D01*
X125190781Y-81681863D01*
X125225788Y-81616370D01*
X125247345Y-81545305D01*
X125254624Y-81471400D01*
X125254624Y-78971400D01*
X125247345Y-78897495D01*
X125225788Y-78826430D01*
X125190781Y-78760937D01*
X125143669Y-78703531D01*
X125086263Y-78656419D01*
X125020770Y-78621412D01*
X124949705Y-78599855D01*
X124875800Y-78592576D01*
X122375800Y-78592576D01*
X122301895Y-78599855D01*
X122230830Y-78621412D01*
X122165337Y-78656419D01*
X122107931Y-78703531D01*
X122060819Y-78760937D01*
X122025812Y-78826430D01*
X122004255Y-78897495D01*
X121996976Y-78971400D01*
X99932595Y-78971400D01*
X99818137Y-78931089D01*
X99589400Y-79050476D01*
X99343400Y-79050476D01*
X99114663Y-78931089D01*
X98841562Y-79027273D01*
X98592473Y-79174888D01*
X98376969Y-79368262D01*
X98203331Y-79599963D01*
X98196400Y-79614430D01*
X98189469Y-79599963D01*
X98015831Y-79368262D01*
X97800327Y-79174888D01*
X97551238Y-79027273D01*
X97278137Y-78931089D01*
X97049400Y-79050476D01*
X96803400Y-79050476D01*
X96574663Y-78931089D01*
X96301562Y-79027273D01*
X96052473Y-79174888D01*
X95836969Y-79368262D01*
X95825400Y-79383700D01*
X95825400Y-75061155D01*
X121998800Y-75061155D01*
X121998800Y-75381645D01*
X122061325Y-75695978D01*
X122183972Y-75992073D01*
X122362027Y-76258552D01*
X122588648Y-76485173D01*
X122855127Y-76663228D01*
X123151222Y-76785875D01*
X123465555Y-76848400D01*
X123786045Y-76848400D01*
X124100378Y-76785875D01*
X124396473Y-76663228D01*
X124662952Y-76485173D01*
X124889573Y-76258552D01*
X125067628Y-75992073D01*
X125190275Y-75695978D01*
X125252800Y-75381645D01*
X125252800Y-75061155D01*
X125190275Y-74746822D01*
X125067628Y-74450727D01*
X124889573Y-74184248D01*
X124662952Y-73957627D01*
X124396473Y-73779572D01*
X124100378Y-73656925D01*
X123786045Y-73594400D01*
X123465555Y-73594400D01*
X123151222Y-73656925D01*
X122855127Y-73779572D01*
X122588648Y-73957627D01*
X122362027Y-74184248D01*
X122183972Y-74450727D01*
X122061325Y-74746822D01*
X121998800Y-75061155D01*
X95825400Y-75061155D01*
X95825400Y-69571622D01*
X97793018Y-67604004D01*
X97813443Y-67599941D01*
X97954848Y-67541369D01*
X98082109Y-67456336D01*
X98190336Y-67348109D01*
X98275369Y-67220848D01*
X98333941Y-67079443D01*
X98363800Y-66929328D01*
X98363800Y-66776272D01*
X98333941Y-66626157D01*
X98275369Y-66484752D01*
X98190336Y-66357491D01*
X98082109Y-66249264D01*
X97954848Y-66164231D01*
X97813443Y-66105659D01*
X97663328Y-66075800D01*
X97510272Y-66075800D01*
X97360157Y-66105659D01*
X97218752Y-66164231D01*
X97091491Y-66249264D01*
X96983264Y-66357491D01*
X96898231Y-66484752D01*
X96839659Y-66626157D01*
X96835596Y-66646582D01*
X94693200Y-68788978D01*
X94667374Y-68810173D01*
X94646179Y-68835999D01*
X94646176Y-68836002D01*
X94582772Y-68913260D01*
X94519908Y-69030871D01*
X94481196Y-69158486D01*
X94468126Y-69291200D01*
X94471401Y-69324455D01*
X94471400Y-86174355D01*
X94468126Y-86207600D01*
X94471400Y-86240845D01*
X94471400Y-86240851D01*
X94472105Y-86248005D01*
X94481196Y-86340314D01*
X94519908Y-86467929D01*
X94582772Y-86585540D01*
X94643773Y-86659869D01*
X94667373Y-86688626D01*
X94693200Y-86709822D01*
X95291978Y-87308600D01*
X61926223Y-87308600D01*
X59325600Y-84707978D01*
X59325600Y-83892000D01*
X61653376Y-83892000D01*
X61653376Y-86392000D01*
X61660655Y-86465905D01*
X61682212Y-86536970D01*
X61717219Y-86602463D01*
X61764331Y-86659869D01*
X61821737Y-86706981D01*
X61887230Y-86741988D01*
X61958295Y-86763545D01*
X62032200Y-86770824D01*
X64532200Y-86770824D01*
X64606105Y-86763545D01*
X64677170Y-86741988D01*
X64742663Y-86706981D01*
X64800069Y-86659869D01*
X64847181Y-86602463D01*
X64882188Y-86536970D01*
X64903745Y-86465905D01*
X64911024Y-86392000D01*
X64911024Y-84981755D01*
X66655200Y-84981755D01*
X66655200Y-85302245D01*
X66717725Y-85616578D01*
X66840372Y-85912673D01*
X67018427Y-86179152D01*
X67245048Y-86405773D01*
X67511527Y-86583828D01*
X67807622Y-86706475D01*
X68121955Y-86769000D01*
X68442445Y-86769000D01*
X68756778Y-86706475D01*
X69052873Y-86583828D01*
X69319352Y-86405773D01*
X69545973Y-86179152D01*
X69724028Y-85912673D01*
X69846675Y-85616578D01*
X69909200Y-85302245D01*
X69909200Y-84981755D01*
X69846675Y-84667422D01*
X69724028Y-84371327D01*
X69545973Y-84104848D01*
X69333125Y-83892000D01*
X71653376Y-83892000D01*
X71653376Y-86392000D01*
X71660655Y-86465905D01*
X71682212Y-86536970D01*
X71717219Y-86602463D01*
X71764331Y-86659869D01*
X71821737Y-86706981D01*
X71887230Y-86741988D01*
X71958295Y-86763545D01*
X72032200Y-86770824D01*
X74532200Y-86770824D01*
X74606105Y-86763545D01*
X74677170Y-86741988D01*
X74742663Y-86706981D01*
X74800069Y-86659869D01*
X74847181Y-86602463D01*
X74882188Y-86536970D01*
X74903745Y-86465905D01*
X74911024Y-86392000D01*
X74911024Y-84981755D01*
X76655200Y-84981755D01*
X76655200Y-85302245D01*
X76717725Y-85616578D01*
X76840372Y-85912673D01*
X77018427Y-86179152D01*
X77245048Y-86405773D01*
X77511527Y-86583828D01*
X77807622Y-86706475D01*
X78121955Y-86769000D01*
X78442445Y-86769000D01*
X78756778Y-86706475D01*
X79052873Y-86583828D01*
X79319352Y-86405773D01*
X79333125Y-86392000D01*
X81402166Y-86392000D01*
X81414272Y-86514914D01*
X81450124Y-86633104D01*
X81508346Y-86742028D01*
X81586699Y-86837501D01*
X81682172Y-86915854D01*
X81791096Y-86974076D01*
X81909286Y-87009928D01*
X82032200Y-87022034D01*
X83002450Y-87019000D01*
X83159200Y-86862250D01*
X83159200Y-85265000D01*
X83405200Y-85265000D01*
X83405200Y-86862250D01*
X83561950Y-87019000D01*
X84532200Y-87022034D01*
X84655114Y-87009928D01*
X84773304Y-86974076D01*
X84882228Y-86915854D01*
X84977701Y-86837501D01*
X85056054Y-86742028D01*
X85114276Y-86633104D01*
X85150128Y-86514914D01*
X85156649Y-86448699D01*
X87149449Y-86448699D01*
X87275458Y-86736922D01*
X87605956Y-86902681D01*
X87962442Y-87000779D01*
X88331216Y-87027444D01*
X88698105Y-86981654D01*
X89049013Y-86865166D01*
X89288942Y-86736922D01*
X89414951Y-86448699D01*
X88282200Y-85315948D01*
X87149449Y-86448699D01*
X85156649Y-86448699D01*
X85162234Y-86392000D01*
X85159200Y-85421750D01*
X85002450Y-85265000D01*
X83405200Y-85265000D01*
X83159200Y-85265000D01*
X81561950Y-85265000D01*
X81405200Y-85421750D01*
X81402166Y-86392000D01*
X79333125Y-86392000D01*
X79545973Y-86179152D01*
X79724028Y-85912673D01*
X79846675Y-85616578D01*
X79909200Y-85302245D01*
X79909200Y-85191016D01*
X86396756Y-85191016D01*
X86442546Y-85557905D01*
X86559034Y-85908813D01*
X86687278Y-86148742D01*
X86975501Y-86274751D01*
X88108252Y-85142000D01*
X88456148Y-85142000D01*
X89588899Y-86274751D01*
X89877122Y-86148742D01*
X90042881Y-85818244D01*
X90140979Y-85461758D01*
X90167644Y-85092984D01*
X90121854Y-84726095D01*
X90005366Y-84375187D01*
X89877122Y-84135258D01*
X89588899Y-84009249D01*
X88456148Y-85142000D01*
X88108252Y-85142000D01*
X86975501Y-84009249D01*
X86687278Y-84135258D01*
X86521519Y-84465756D01*
X86423421Y-84822242D01*
X86396756Y-85191016D01*
X79909200Y-85191016D01*
X79909200Y-84981755D01*
X79846675Y-84667422D01*
X79724028Y-84371327D01*
X79545973Y-84104848D01*
X79333125Y-83892000D01*
X81402166Y-83892000D01*
X81405200Y-84862250D01*
X81561950Y-85019000D01*
X83159200Y-85019000D01*
X83159200Y-83421750D01*
X83405200Y-83421750D01*
X83405200Y-85019000D01*
X85002450Y-85019000D01*
X85159200Y-84862250D01*
X85162234Y-83892000D01*
X85156650Y-83835301D01*
X87149449Y-83835301D01*
X88282200Y-84968052D01*
X89414951Y-83835301D01*
X89288942Y-83547078D01*
X88958444Y-83381319D01*
X88601958Y-83283221D01*
X88233184Y-83256556D01*
X87866295Y-83302346D01*
X87515387Y-83418834D01*
X87275458Y-83547078D01*
X87149449Y-83835301D01*
X85156650Y-83835301D01*
X85150128Y-83769086D01*
X85114276Y-83650896D01*
X85056054Y-83541972D01*
X84977701Y-83446499D01*
X84882228Y-83368146D01*
X84773304Y-83309924D01*
X84655114Y-83274072D01*
X84532200Y-83261966D01*
X83561950Y-83265000D01*
X83405200Y-83421750D01*
X83159200Y-83421750D01*
X83002450Y-83265000D01*
X82032200Y-83261966D01*
X81909286Y-83274072D01*
X81791096Y-83309924D01*
X81682172Y-83368146D01*
X81586699Y-83446499D01*
X81508346Y-83541972D01*
X81450124Y-83650896D01*
X81414272Y-83769086D01*
X81402166Y-83892000D01*
X79333125Y-83892000D01*
X79319352Y-83878227D01*
X79052873Y-83700172D01*
X78756778Y-83577525D01*
X78442445Y-83515000D01*
X78121955Y-83515000D01*
X77807622Y-83577525D01*
X77511527Y-83700172D01*
X77245048Y-83878227D01*
X77018427Y-84104848D01*
X76840372Y-84371327D01*
X76717725Y-84667422D01*
X76655200Y-84981755D01*
X74911024Y-84981755D01*
X74911024Y-83892000D01*
X74903745Y-83818095D01*
X74882188Y-83747030D01*
X74847181Y-83681537D01*
X74800069Y-83624131D01*
X74742663Y-83577019D01*
X74677170Y-83542012D01*
X74606105Y-83520455D01*
X74532200Y-83513176D01*
X72032200Y-83513176D01*
X71958295Y-83520455D01*
X71887230Y-83542012D01*
X71821737Y-83577019D01*
X71764331Y-83624131D01*
X71717219Y-83681537D01*
X71682212Y-83747030D01*
X71660655Y-83818095D01*
X71653376Y-83892000D01*
X69333125Y-83892000D01*
X69319352Y-83878227D01*
X69052873Y-83700172D01*
X68756778Y-83577525D01*
X68442445Y-83515000D01*
X68121955Y-83515000D01*
X67807622Y-83577525D01*
X67511527Y-83700172D01*
X67245048Y-83878227D01*
X67018427Y-84104848D01*
X66840372Y-84371327D01*
X66717725Y-84667422D01*
X66655200Y-84981755D01*
X64911024Y-84981755D01*
X64911024Y-83892000D01*
X64903745Y-83818095D01*
X64882188Y-83747030D01*
X64847181Y-83681537D01*
X64800069Y-83624131D01*
X64742663Y-83577019D01*
X64677170Y-83542012D01*
X64606105Y-83520455D01*
X64532200Y-83513176D01*
X62032200Y-83513176D01*
X61958295Y-83520455D01*
X61887230Y-83542012D01*
X61821737Y-83577019D01*
X61764331Y-83624131D01*
X61717219Y-83681537D01*
X61682212Y-83747030D01*
X61660655Y-83818095D01*
X61653376Y-83892000D01*
X59325600Y-83892000D01*
X59325600Y-75504322D01*
X64002098Y-70827824D01*
X64416425Y-70827824D01*
X64489149Y-71051477D01*
X64632658Y-71325598D01*
X64826888Y-71566454D01*
X64954638Y-71673144D01*
X64926095Y-71675955D01*
X64855030Y-71697512D01*
X64789537Y-71732519D01*
X64732131Y-71779631D01*
X64685019Y-71837037D01*
X64650012Y-71902530D01*
X64628455Y-71973595D01*
X64621176Y-72047500D01*
X64621176Y-73952500D01*
X64628455Y-74026405D01*
X64650012Y-74097470D01*
X64685019Y-74162963D01*
X64732131Y-74220369D01*
X64789537Y-74267481D01*
X64855030Y-74302488D01*
X64926095Y-74324045D01*
X65000000Y-74331324D01*
X67000000Y-74331324D01*
X67073905Y-74324045D01*
X67144970Y-74302488D01*
X67210463Y-74267481D01*
X67267869Y-74220369D01*
X67314981Y-74162963D01*
X67349988Y-74097470D01*
X67371545Y-74026405D01*
X67378824Y-73952500D01*
X67378824Y-72047500D01*
X67371545Y-71973595D01*
X67349988Y-71902530D01*
X67314981Y-71837037D01*
X67267869Y-71779631D01*
X67210463Y-71732519D01*
X67144970Y-71697512D01*
X67073905Y-71675955D01*
X67045362Y-71673144D01*
X67173112Y-71566454D01*
X67367342Y-71325598D01*
X67510851Y-71051477D01*
X67583575Y-70827824D01*
X67464923Y-70583000D01*
X66123000Y-70583000D01*
X66123000Y-70603000D01*
X65877000Y-70603000D01*
X65877000Y-70583000D01*
X64535077Y-70583000D01*
X64416425Y-70827824D01*
X64002098Y-70827824D01*
X64521316Y-70308606D01*
X64535077Y-70337000D01*
X65877000Y-70337000D01*
X65877000Y-70317000D01*
X66123000Y-70317000D01*
X66123000Y-70337000D01*
X67464923Y-70337000D01*
X67583575Y-70092176D01*
X67510851Y-69868523D01*
X67367342Y-69594402D01*
X67173112Y-69353546D01*
X66935625Y-69155210D01*
X66748218Y-69052962D01*
X66789704Y-69030787D01*
X66992147Y-68864647D01*
X67158287Y-68662204D01*
X67281740Y-68431239D01*
X67357762Y-68180627D01*
X67383432Y-67920000D01*
X67357762Y-67659373D01*
X67281740Y-67408761D01*
X67158287Y-67177796D01*
X66992147Y-66975353D01*
X66789704Y-66809213D01*
X66558739Y-66685760D01*
X66308127Y-66609738D01*
X66112804Y-66590500D01*
X65887196Y-66590500D01*
X65691873Y-66609738D01*
X65441261Y-66685760D01*
X65210296Y-66809213D01*
X65007853Y-66975353D01*
X64841713Y-67177796D01*
X64718260Y-67408761D01*
X64642238Y-67659373D01*
X64616568Y-67920000D01*
X64642238Y-68180627D01*
X64663700Y-68251378D01*
X58193400Y-74721678D01*
X58167573Y-74742874D01*
X58082972Y-74845960D01*
X58020108Y-74963571D01*
X57981396Y-75091186D01*
X57971600Y-75190649D01*
X57971600Y-75190655D01*
X57968326Y-75223900D01*
X50402000Y-75223900D01*
X50402000Y-72839755D01*
X54373000Y-72839755D01*
X54373000Y-73160245D01*
X54435525Y-73474578D01*
X54558172Y-73770673D01*
X54736227Y-74037152D01*
X54962848Y-74263773D01*
X55229327Y-74441828D01*
X55525422Y-74564475D01*
X55839755Y-74627000D01*
X56160245Y-74627000D01*
X56474578Y-74564475D01*
X56770673Y-74441828D01*
X57037152Y-74263773D01*
X57263773Y-74037152D01*
X57441828Y-73770673D01*
X57564475Y-73474578D01*
X57627000Y-73160245D01*
X57627000Y-72839755D01*
X57564475Y-72525422D01*
X57441828Y-72229327D01*
X57263773Y-71962848D01*
X57037152Y-71736227D01*
X56770673Y-71558172D01*
X56474578Y-71435525D01*
X56160245Y-71373000D01*
X55839755Y-71373000D01*
X55525422Y-71435525D01*
X55229327Y-71558172D01*
X54962848Y-71736227D01*
X54736227Y-71962848D01*
X54558172Y-72229327D01*
X54435525Y-72525422D01*
X54373000Y-72839755D01*
X50402000Y-72839755D01*
X50402000Y-69250000D01*
X54119966Y-69250000D01*
X54132072Y-69372914D01*
X54167924Y-69491104D01*
X54226146Y-69600028D01*
X54304499Y-69695501D01*
X54399972Y-69773854D01*
X54508896Y-69832076D01*
X54627086Y-69867928D01*
X54750000Y-69880034D01*
X55720250Y-69877000D01*
X55877000Y-69720250D01*
X55877000Y-68123000D01*
X56123000Y-68123000D01*
X56123000Y-69720250D01*
X56279750Y-69877000D01*
X57250000Y-69880034D01*
X57372914Y-69867928D01*
X57491104Y-69832076D01*
X57600028Y-69773854D01*
X57695501Y-69695501D01*
X57773854Y-69600028D01*
X57832076Y-69491104D01*
X57867928Y-69372914D01*
X57880034Y-69250000D01*
X57877000Y-68279750D01*
X57720250Y-68123000D01*
X56123000Y-68123000D01*
X55877000Y-68123000D01*
X54279750Y-68123000D01*
X54123000Y-68279750D01*
X54119966Y-69250000D01*
X50402000Y-69250000D01*
X50402000Y-66750000D01*
X54119966Y-66750000D01*
X54123000Y-67720250D01*
X54279750Y-67877000D01*
X55877000Y-67877000D01*
X55877000Y-66279750D01*
X56123000Y-66279750D01*
X56123000Y-67877000D01*
X57720250Y-67877000D01*
X57877000Y-67720250D01*
X57880034Y-66750000D01*
X57867928Y-66627086D01*
X57832076Y-66508896D01*
X57773854Y-66399972D01*
X57695501Y-66304499D01*
X57600028Y-66226146D01*
X57491104Y-66167924D01*
X57372914Y-66132072D01*
X57250000Y-66119966D01*
X56279750Y-66123000D01*
X56123000Y-66279750D01*
X55877000Y-66279750D01*
X55720250Y-66123000D01*
X54750000Y-66119966D01*
X54627086Y-66132072D01*
X54508896Y-66167924D01*
X54399972Y-66226146D01*
X54304499Y-66304499D01*
X54226146Y-66399972D01*
X54167924Y-66508896D01*
X54132072Y-66627086D01*
X54119966Y-66750000D01*
X50402000Y-66750000D01*
X50402000Y-61273339D01*
X51708109Y-61273339D01*
X51803979Y-61535988D01*
X52091887Y-61676785D01*
X52401730Y-61758708D01*
X52721603Y-61778611D01*
X53039211Y-61735726D01*
X53342351Y-61631703D01*
X53521421Y-61535988D01*
X53617291Y-61273339D01*
X52662700Y-60318748D01*
X51708109Y-61273339D01*
X50402000Y-61273339D01*
X50402000Y-60203703D01*
X51028889Y-60203703D01*
X51071774Y-60521311D01*
X51175797Y-60824451D01*
X51271512Y-61003521D01*
X51534161Y-61099391D01*
X52488752Y-60144800D01*
X52836648Y-60144800D01*
X53791239Y-61099391D01*
X54053888Y-61003521D01*
X54194685Y-60715613D01*
X54276608Y-60405770D01*
X54296511Y-60085897D01*
X54286152Y-60009177D01*
X55785700Y-60009177D01*
X55785700Y-60280423D01*
X55838617Y-60546456D01*
X55942418Y-60797054D01*
X56093114Y-61022587D01*
X56284913Y-61214386D01*
X56510446Y-61365082D01*
X56761044Y-61468883D01*
X57027077Y-61521800D01*
X57298323Y-61521800D01*
X57564356Y-61468883D01*
X57814954Y-61365082D01*
X58040487Y-61214386D01*
X58232286Y-61022587D01*
X58382982Y-60797054D01*
X58486783Y-60546456D01*
X58539700Y-60280423D01*
X58539700Y-60009177D01*
X58486783Y-59743144D01*
X58382982Y-59492546D01*
X58232286Y-59267013D01*
X58040487Y-59075214D01*
X57814954Y-58924518D01*
X57564356Y-58820717D01*
X57298323Y-58767800D01*
X57027077Y-58767800D01*
X56761044Y-58820717D01*
X56510446Y-58924518D01*
X56284913Y-59075214D01*
X56093114Y-59267013D01*
X55942418Y-59492546D01*
X55838617Y-59743144D01*
X55785700Y-60009177D01*
X54286152Y-60009177D01*
X54253626Y-59768289D01*
X54149603Y-59465149D01*
X54053888Y-59286079D01*
X53791239Y-59190209D01*
X52836648Y-60144800D01*
X52488752Y-60144800D01*
X51534161Y-59190209D01*
X51271512Y-59286079D01*
X51130715Y-59573987D01*
X51048792Y-59883830D01*
X51028889Y-60203703D01*
X50402000Y-60203703D01*
X50402000Y-59016261D01*
X51708109Y-59016261D01*
X52662700Y-59970852D01*
X53617291Y-59016261D01*
X53521421Y-58753612D01*
X53233513Y-58612815D01*
X52923670Y-58530892D01*
X52603797Y-58510989D01*
X52286189Y-58553874D01*
X51983049Y-58657897D01*
X51803979Y-58753612D01*
X51708109Y-59016261D01*
X50402000Y-59016261D01*
X50402000Y-56339151D01*
X62943000Y-56339151D01*
X62943000Y-56580849D01*
X62990153Y-56817903D01*
X63082647Y-57041202D01*
X63216927Y-57242167D01*
X63387833Y-57413073D01*
X63588798Y-57547353D01*
X63812097Y-57639847D01*
X64049151Y-57687000D01*
X64290849Y-57687000D01*
X64414902Y-57662324D01*
X64604429Y-57851851D01*
X64527903Y-57820153D01*
X64290849Y-57773000D01*
X64049151Y-57773000D01*
X63812097Y-57820153D01*
X63588798Y-57912647D01*
X63387833Y-58046927D01*
X63216927Y-58217833D01*
X63082647Y-58418798D01*
X62990153Y-58642097D01*
X62943000Y-58879151D01*
X62943000Y-59120849D01*
X62990153Y-59357903D01*
X63082647Y-59581202D01*
X63216927Y-59782167D01*
X63387833Y-59953073D01*
X63588798Y-60087353D01*
X63812097Y-60179847D01*
X64049151Y-60227000D01*
X64290849Y-60227000D01*
X64527903Y-60179847D01*
X64751202Y-60087353D01*
X64952167Y-59953073D01*
X65123073Y-59782167D01*
X65257353Y-59581202D01*
X65349847Y-59357903D01*
X65397000Y-59120849D01*
X65397000Y-58879151D01*
X65349847Y-58642097D01*
X65318149Y-58565571D01*
X71027200Y-64274623D01*
X71027201Y-77341976D01*
X66494182Y-81874996D01*
X66473757Y-81879059D01*
X66332352Y-81937631D01*
X66205091Y-82022664D01*
X66096864Y-82130891D01*
X66011831Y-82258152D01*
X65953259Y-82399557D01*
X65923400Y-82549672D01*
X65923400Y-82702728D01*
X65953259Y-82852843D01*
X66011831Y-82994248D01*
X66096864Y-83121509D01*
X66205091Y-83229736D01*
X66332352Y-83314769D01*
X66473757Y-83373341D01*
X66623872Y-83403200D01*
X66776928Y-83403200D01*
X66927043Y-83373341D01*
X67068448Y-83314769D01*
X67195709Y-83229736D01*
X67303936Y-83121509D01*
X67388969Y-82994248D01*
X67447541Y-82852843D01*
X67451604Y-82832418D01*
X71767700Y-78516323D01*
X75931397Y-82680020D01*
X75935459Y-82700443D01*
X75994031Y-82841848D01*
X76079064Y-82969109D01*
X76187291Y-83077336D01*
X76314552Y-83162369D01*
X76455957Y-83220941D01*
X76606072Y-83250800D01*
X76759128Y-83250800D01*
X76909243Y-83220941D01*
X77050648Y-83162369D01*
X77177909Y-83077336D01*
X77286136Y-82969109D01*
X77371169Y-82841848D01*
X77429741Y-82700443D01*
X77459600Y-82550328D01*
X77459600Y-82397272D01*
X77429741Y-82247157D01*
X77371169Y-82105752D01*
X77286136Y-81978491D01*
X77177909Y-81870264D01*
X77050648Y-81785231D01*
X76909243Y-81726659D01*
X76888820Y-81722597D01*
X72381200Y-77214978D01*
X72381200Y-64671200D01*
X79990555Y-64671200D01*
X80023800Y-64674474D01*
X80057045Y-64671200D01*
X99329682Y-64671200D01*
X107383343Y-72724861D01*
X107422664Y-72783709D01*
X107530891Y-72891936D01*
X107658152Y-72976969D01*
X107799557Y-73035541D01*
X107949672Y-73065400D01*
X108102728Y-73065400D01*
X108252843Y-73035541D01*
X108394248Y-72976969D01*
X108521509Y-72891936D01*
X108629736Y-72783709D01*
X108714769Y-72656448D01*
X108773341Y-72515043D01*
X108777404Y-72494618D01*
X112302401Y-68969621D01*
X112328227Y-68948426D01*
X112412829Y-68845340D01*
X112475693Y-68727729D01*
X112479797Y-68714200D01*
X121983576Y-68714200D01*
X121983576Y-71214200D01*
X121990855Y-71288105D01*
X122012412Y-71359170D01*
X122047419Y-71424663D01*
X122094531Y-71482069D01*
X122151937Y-71529181D01*
X122217430Y-71564188D01*
X122288495Y-71585745D01*
X122362400Y-71593024D01*
X124862400Y-71593024D01*
X124936305Y-71585745D01*
X125007370Y-71564188D01*
X125072863Y-71529181D01*
X125130269Y-71482069D01*
X125177381Y-71424663D01*
X125212388Y-71359170D01*
X125233945Y-71288105D01*
X125241224Y-71214200D01*
X125241224Y-68714200D01*
X125233945Y-68640295D01*
X125212388Y-68569230D01*
X125177381Y-68503737D01*
X125130269Y-68446331D01*
X125072863Y-68399219D01*
X125007370Y-68364212D01*
X124936305Y-68342655D01*
X124862400Y-68335376D01*
X122362400Y-68335376D01*
X122288495Y-68342655D01*
X122217430Y-68364212D01*
X122151937Y-68399219D01*
X122094531Y-68446331D01*
X122047419Y-68503737D01*
X122012412Y-68569230D01*
X121990855Y-68640295D01*
X121983576Y-68714200D01*
X112479797Y-68714200D01*
X112514405Y-68600114D01*
X112524201Y-68500651D01*
X112524201Y-68500642D01*
X112527475Y-68467400D01*
X112524201Y-68434158D01*
X112524201Y-64803955D01*
X121985400Y-64803955D01*
X121985400Y-65124445D01*
X122047925Y-65438778D01*
X122170572Y-65734873D01*
X122348627Y-66001352D01*
X122575248Y-66227973D01*
X122841727Y-66406028D01*
X123137822Y-66528675D01*
X123452155Y-66591200D01*
X123772645Y-66591200D01*
X124086978Y-66528675D01*
X124383073Y-66406028D01*
X124649552Y-66227973D01*
X124876173Y-66001352D01*
X125054228Y-65734873D01*
X125176875Y-65438778D01*
X125239400Y-65124445D01*
X125239400Y-64803955D01*
X125176875Y-64489622D01*
X125054228Y-64193527D01*
X124876173Y-63927048D01*
X124649552Y-63700427D01*
X124383073Y-63522372D01*
X124086978Y-63399725D01*
X123772645Y-63337200D01*
X123452155Y-63337200D01*
X123137822Y-63399725D01*
X122841727Y-63522372D01*
X122575248Y-63700427D01*
X122348627Y-63927048D01*
X122170572Y-64193527D01*
X122047925Y-64489622D01*
X121985400Y-64803955D01*
X112524201Y-64803955D01*
X112524201Y-55289560D01*
X121924396Y-55289560D01*
X121924396Y-57789560D01*
X121931675Y-57863465D01*
X121953232Y-57934530D01*
X121988239Y-58000023D01*
X122035351Y-58057429D01*
X122092757Y-58104541D01*
X122158250Y-58139548D01*
X122229315Y-58161105D01*
X122303220Y-58168384D01*
X124803220Y-58168384D01*
X124877125Y-58161105D01*
X124948190Y-58139548D01*
X125013683Y-58104541D01*
X125071089Y-58057429D01*
X125118201Y-58000023D01*
X125153208Y-57934530D01*
X125174765Y-57863465D01*
X125182044Y-57789560D01*
X125182044Y-55289560D01*
X125174765Y-55215655D01*
X125153208Y-55144590D01*
X125118201Y-55079097D01*
X125071089Y-55021691D01*
X125013683Y-54974579D01*
X124948190Y-54939572D01*
X124877125Y-54918015D01*
X124803220Y-54910736D01*
X122303220Y-54910736D01*
X122229315Y-54918015D01*
X122158250Y-54939572D01*
X122092757Y-54974579D01*
X122035351Y-55021691D01*
X121988239Y-55079097D01*
X121953232Y-55144590D01*
X121931675Y-55215655D01*
X121924396Y-55289560D01*
X112524201Y-55289560D01*
X112524201Y-51379315D01*
X121926220Y-51379315D01*
X121926220Y-51699805D01*
X121988745Y-52014138D01*
X122111392Y-52310233D01*
X122289447Y-52576712D01*
X122516068Y-52803333D01*
X122782547Y-52981388D01*
X123078642Y-53104035D01*
X123392975Y-53166560D01*
X123713465Y-53166560D01*
X124027798Y-53104035D01*
X124323893Y-52981388D01*
X124590372Y-52803333D01*
X124816993Y-52576712D01*
X124995048Y-52310233D01*
X125117695Y-52014138D01*
X125180220Y-51699805D01*
X125180220Y-51379315D01*
X125117695Y-51064982D01*
X124995048Y-50768887D01*
X124816993Y-50502408D01*
X124590372Y-50275787D01*
X124323893Y-50097732D01*
X124027798Y-49975085D01*
X123713465Y-49912560D01*
X123392975Y-49912560D01*
X123078642Y-49975085D01*
X122782547Y-50097732D01*
X122516068Y-50275787D01*
X122289447Y-50502408D01*
X122111392Y-50768887D01*
X121988745Y-51064982D01*
X121926220Y-51379315D01*
X112524201Y-51379315D01*
X112524201Y-51047453D01*
X112527476Y-51014201D01*
X112514405Y-50881486D01*
X112475693Y-50753871D01*
X112412829Y-50636260D01*
X112349425Y-50559002D01*
X112349423Y-50559000D01*
X112328228Y-50533174D01*
X112302402Y-50511979D01*
X110657004Y-48866581D01*
X110652941Y-48846157D01*
X110594369Y-48704752D01*
X110509336Y-48577491D01*
X110401109Y-48469264D01*
X110273848Y-48384231D01*
X110132443Y-48325659D01*
X109982328Y-48295800D01*
X109829272Y-48295800D01*
X109679157Y-48325659D01*
X109537752Y-48384231D01*
X109410491Y-48469264D01*
X109302264Y-48577491D01*
X109217231Y-48704752D01*
X109158659Y-48846157D01*
X109128800Y-48996272D01*
X109128800Y-49149328D01*
X109158659Y-49299443D01*
X109217231Y-49440848D01*
X109302264Y-49568109D01*
X109410491Y-49676336D01*
X109537752Y-49761369D01*
X109679157Y-49819941D01*
X109699581Y-49824004D01*
X111170202Y-51294625D01*
X111170201Y-62904535D01*
X111023728Y-62875400D01*
X110880135Y-62875400D01*
X106089800Y-58085066D01*
X106089800Y-51523845D01*
X106191336Y-51422309D01*
X106276369Y-51295048D01*
X106334941Y-51153643D01*
X106364800Y-51003528D01*
X106364800Y-50850472D01*
X106334941Y-50700357D01*
X106276369Y-50558952D01*
X106191336Y-50431691D01*
X106083109Y-50323464D01*
X105955848Y-50238431D01*
X105814443Y-50179859D01*
X105664328Y-50150000D01*
X105511272Y-50150000D01*
X105361157Y-50179859D01*
X105219752Y-50238431D01*
X105092491Y-50323464D01*
X104984264Y-50431691D01*
X104899231Y-50558952D01*
X104840659Y-50700357D01*
X104810800Y-50850472D01*
X104810800Y-51003528D01*
X104840659Y-51153643D01*
X104899231Y-51295048D01*
X104984264Y-51422309D01*
X105085800Y-51523845D01*
X105085801Y-58065138D01*
X105085800Y-58065148D01*
X105085800Y-58268357D01*
X105083373Y-58293000D01*
X105085800Y-58317643D01*
X105085800Y-58317653D01*
X105093064Y-58391409D01*
X105121769Y-58486036D01*
X105158030Y-58553874D01*
X105168384Y-58573245D01*
X105215401Y-58630535D01*
X105215404Y-58630538D01*
X105231117Y-58649684D01*
X105250263Y-58665397D01*
X109183507Y-62598642D01*
X109042528Y-62570600D01*
X108898936Y-62570600D01*
X104540400Y-58212066D01*
X104540400Y-50634845D01*
X104641936Y-50533309D01*
X104726969Y-50406048D01*
X104785541Y-50264643D01*
X104815400Y-50114528D01*
X104815400Y-49961472D01*
X104785541Y-49811357D01*
X104726969Y-49669952D01*
X104641936Y-49542691D01*
X104533709Y-49434464D01*
X104406448Y-49349431D01*
X104265043Y-49290859D01*
X104114928Y-49261000D01*
X103961872Y-49261000D01*
X103811757Y-49290859D01*
X103670352Y-49349431D01*
X103543091Y-49434464D01*
X103473600Y-49503955D01*
X103473600Y-46520045D01*
X103575136Y-46418509D01*
X103660169Y-46291248D01*
X103718741Y-46149843D01*
X103748600Y-45999728D01*
X103748600Y-45846672D01*
X103718741Y-45696557D01*
X103660169Y-45555152D01*
X103575136Y-45427891D01*
X103466909Y-45319664D01*
X103339648Y-45234631D01*
X103222919Y-45186280D01*
X121924396Y-45186280D01*
X121924396Y-47686280D01*
X121931675Y-47760185D01*
X121953232Y-47831250D01*
X121988239Y-47896743D01*
X122035351Y-47954149D01*
X122092757Y-48001261D01*
X122158250Y-48036268D01*
X122229315Y-48057825D01*
X122303220Y-48065104D01*
X124803220Y-48065104D01*
X124877125Y-48057825D01*
X124948190Y-48036268D01*
X125013683Y-48001261D01*
X125071089Y-47954149D01*
X125118201Y-47896743D01*
X125153208Y-47831250D01*
X125174765Y-47760185D01*
X125182044Y-47686280D01*
X125182044Y-45186280D01*
X125174765Y-45112375D01*
X125153208Y-45041310D01*
X125118201Y-44975817D01*
X125071089Y-44918411D01*
X125013683Y-44871299D01*
X124948190Y-44836292D01*
X124877125Y-44814735D01*
X124803220Y-44807456D01*
X122303220Y-44807456D01*
X122229315Y-44814735D01*
X122158250Y-44836292D01*
X122092757Y-44871299D01*
X122035351Y-44918411D01*
X121988239Y-44975817D01*
X121953232Y-45041310D01*
X121931675Y-45112375D01*
X121924396Y-45186280D01*
X103222919Y-45186280D01*
X103198243Y-45176059D01*
X103048128Y-45146200D01*
X102895072Y-45146200D01*
X102744957Y-45176059D01*
X102603552Y-45234631D01*
X102476291Y-45319664D01*
X102368064Y-45427891D01*
X102283031Y-45555152D01*
X102224459Y-45696557D01*
X102194600Y-45846672D01*
X102194600Y-45999728D01*
X102224459Y-46149843D01*
X102283031Y-46291248D01*
X102368064Y-46418509D01*
X102469600Y-46520045D01*
X102469601Y-59131835D01*
X102467173Y-59156488D01*
X102476865Y-59254897D01*
X102505570Y-59349524D01*
X102552184Y-59436733D01*
X102599201Y-59494023D01*
X102599204Y-59494026D01*
X102614917Y-59513172D01*
X102634063Y-59528885D01*
X108189112Y-65083935D01*
X108189112Y-65227528D01*
X108218971Y-65377643D01*
X108277543Y-65519048D01*
X108362576Y-65646309D01*
X108470803Y-65754536D01*
X108598064Y-65839569D01*
X108739469Y-65898141D01*
X108889584Y-65928000D01*
X109042640Y-65928000D01*
X109192755Y-65898141D01*
X109334160Y-65839569D01*
X109461421Y-65754536D01*
X109569648Y-65646309D01*
X109654681Y-65519048D01*
X109713253Y-65377643D01*
X109743112Y-65227528D01*
X109743112Y-65074472D01*
X109713253Y-64924357D01*
X109654681Y-64782952D01*
X109569648Y-64655691D01*
X109461421Y-64547464D01*
X109334160Y-64462431D01*
X109192755Y-64403859D01*
X109042640Y-64374000D01*
X108899047Y-64374000D01*
X108487242Y-63962195D01*
X108597952Y-64036169D01*
X108739357Y-64094741D01*
X108889472Y-64124600D01*
X109042528Y-64124600D01*
X109192643Y-64094741D01*
X109334048Y-64036169D01*
X109461309Y-63951136D01*
X109569536Y-63842909D01*
X109654569Y-63715648D01*
X109713141Y-63574243D01*
X109743000Y-63424128D01*
X109743000Y-63271072D01*
X109714958Y-63130093D01*
X110170200Y-63585335D01*
X110170200Y-63728928D01*
X110200059Y-63879043D01*
X110258631Y-64020448D01*
X110343664Y-64147709D01*
X110451891Y-64255936D01*
X110579152Y-64340969D01*
X110720557Y-64399541D01*
X110870672Y-64429400D01*
X111023728Y-64429400D01*
X111170201Y-64400265D01*
X111170201Y-68186977D01*
X107965252Y-71391926D01*
X106493526Y-69920200D01*
X107835755Y-69920200D01*
X107937291Y-70021736D01*
X108064552Y-70106769D01*
X108205957Y-70165341D01*
X108356072Y-70195200D01*
X108509128Y-70195200D01*
X108659243Y-70165341D01*
X108800648Y-70106769D01*
X108927909Y-70021736D01*
X109036136Y-69913509D01*
X109121169Y-69786248D01*
X109179741Y-69644843D01*
X109209600Y-69494728D01*
X109209600Y-69341672D01*
X109179741Y-69191557D01*
X109121169Y-69050152D01*
X109036136Y-68922891D01*
X108927909Y-68814664D01*
X108800648Y-68729631D01*
X108659243Y-68671059D01*
X108509128Y-68641200D01*
X108356072Y-68641200D01*
X108205957Y-68671059D01*
X108064552Y-68729631D01*
X107937291Y-68814664D01*
X107835755Y-68916200D01*
X106125935Y-68916200D01*
X99325510Y-62115776D01*
X99464443Y-62088141D01*
X99605848Y-62029569D01*
X99733109Y-61944536D01*
X99841336Y-61836309D01*
X99926369Y-61709048D01*
X99984941Y-61567643D01*
X100014800Y-61417528D01*
X100014800Y-61264472D01*
X99984941Y-61114357D01*
X99926369Y-60972952D01*
X99864800Y-60880807D01*
X99864800Y-60096751D01*
X99882131Y-60117869D01*
X99939537Y-60164981D01*
X100005030Y-60199988D01*
X100076095Y-60221545D01*
X100150000Y-60228824D01*
X101850000Y-60228824D01*
X101923905Y-60221545D01*
X101994970Y-60199988D01*
X102060463Y-60164981D01*
X102117869Y-60117869D01*
X102164981Y-60060463D01*
X102199988Y-59994970D01*
X102221545Y-59923905D01*
X102228824Y-59850000D01*
X102228824Y-58150000D01*
X102221545Y-58076095D01*
X102199988Y-58005030D01*
X102164981Y-57939537D01*
X102117869Y-57882131D01*
X102060463Y-57835019D01*
X101994970Y-57800012D01*
X101923905Y-57778455D01*
X101850000Y-57771176D01*
X100150000Y-57771176D01*
X100076095Y-57778455D01*
X100005030Y-57800012D01*
X99939537Y-57835019D01*
X99882131Y-57882131D01*
X99864800Y-57903249D01*
X99864800Y-56925690D01*
X99912647Y-57041202D01*
X100046927Y-57242167D01*
X100217833Y-57413073D01*
X100418798Y-57547353D01*
X100642097Y-57639847D01*
X100879151Y-57687000D01*
X101120849Y-57687000D01*
X101357903Y-57639847D01*
X101581202Y-57547353D01*
X101782167Y-57413073D01*
X101953073Y-57242167D01*
X102087353Y-57041202D01*
X102179847Y-56817903D01*
X102227000Y-56580849D01*
X102227000Y-56339151D01*
X102179847Y-56102097D01*
X102087353Y-55878798D01*
X101953073Y-55677833D01*
X101782167Y-55506927D01*
X101581202Y-55372647D01*
X101357903Y-55280153D01*
X101120849Y-55233000D01*
X100879151Y-55233000D01*
X100642097Y-55280153D01*
X100444860Y-55361852D01*
X100696119Y-55110593D01*
X100879151Y-55147000D01*
X101120849Y-55147000D01*
X101357903Y-55099847D01*
X101581202Y-55007353D01*
X101782167Y-54873073D01*
X101953073Y-54702167D01*
X102087353Y-54501202D01*
X102179847Y-54277903D01*
X102227000Y-54040849D01*
X102227000Y-53799151D01*
X102179847Y-53562097D01*
X102087353Y-53338798D01*
X101953073Y-53137833D01*
X101782167Y-52966927D01*
X101581202Y-52832647D01*
X101357903Y-52740153D01*
X101120849Y-52693000D01*
X100879151Y-52693000D01*
X100642097Y-52740153D01*
X100418798Y-52832647D01*
X100217833Y-52966927D01*
X100046927Y-53137833D01*
X99912647Y-53338798D01*
X99820153Y-53562097D01*
X99773000Y-53799151D01*
X99773000Y-54040849D01*
X99809407Y-54223881D01*
X98816227Y-55217062D01*
X98792299Y-55236699D01*
X98713947Y-55332173D01*
X98655725Y-55441098D01*
X98619873Y-55559287D01*
X98619873Y-55559288D01*
X98607767Y-55682200D01*
X98610800Y-55712994D01*
X98610801Y-60880806D01*
X98549231Y-60972952D01*
X98490659Y-61114357D01*
X98463024Y-61253290D01*
X88637402Y-51427668D01*
X88621684Y-51408516D01*
X88545245Y-51345783D01*
X88458036Y-51299169D01*
X88363409Y-51270464D01*
X88289653Y-51263200D01*
X88289643Y-51263200D01*
X88265000Y-51260773D01*
X88240357Y-51263200D01*
X84086645Y-51263200D01*
X83985109Y-51161664D01*
X83857848Y-51076631D01*
X83716443Y-51018059D01*
X83566328Y-50988200D01*
X83413272Y-50988200D01*
X83263157Y-51018059D01*
X83121752Y-51076631D01*
X82994491Y-51161664D01*
X82886264Y-51269891D01*
X82801231Y-51397152D01*
X82742659Y-51538557D01*
X82712800Y-51688672D01*
X82712800Y-51841728D01*
X82742659Y-51991843D01*
X82801231Y-52133248D01*
X82886264Y-52260509D01*
X82994491Y-52368736D01*
X83121752Y-52453769D01*
X83263157Y-52512341D01*
X83413272Y-52542200D01*
X83566328Y-52542200D01*
X83716443Y-52512341D01*
X83857848Y-52453769D01*
X83985109Y-52368736D01*
X84086645Y-52267200D01*
X88057066Y-52267200D01*
X99107065Y-63317200D01*
X81658222Y-63317200D01*
X87755001Y-57220422D01*
X87780827Y-57199227D01*
X87802026Y-57173396D01*
X88572818Y-56402604D01*
X88593243Y-56398541D01*
X88734648Y-56339969D01*
X88861909Y-56254936D01*
X88970136Y-56146709D01*
X89055169Y-56019448D01*
X89113741Y-55878043D01*
X89143600Y-55727928D01*
X89143600Y-55574872D01*
X89113741Y-55424757D01*
X89055169Y-55283352D01*
X88970136Y-55156091D01*
X88861909Y-55047864D01*
X88734648Y-54962831D01*
X88593243Y-54904259D01*
X88443128Y-54874400D01*
X88290072Y-54874400D01*
X88139957Y-54904259D01*
X87998552Y-54962831D01*
X87871291Y-55047864D01*
X87763064Y-55156091D01*
X87678031Y-55283352D01*
X87619459Y-55424757D01*
X87615396Y-55445182D01*
X87019378Y-56041200D01*
X86313562Y-56041200D01*
X86296248Y-56029631D01*
X86154843Y-55971059D01*
X86004728Y-55941200D01*
X85851672Y-55941200D01*
X85701557Y-55971059D01*
X85560152Y-56029631D01*
X85432891Y-56114664D01*
X85324664Y-56222891D01*
X85239631Y-56350152D01*
X85181059Y-56491557D01*
X85151200Y-56641672D01*
X85151200Y-56794728D01*
X85181059Y-56944843D01*
X85239631Y-57086248D01*
X85324664Y-57213509D01*
X85432891Y-57321736D01*
X85560152Y-57406769D01*
X85626377Y-57434200D01*
X79743378Y-63317200D01*
X71984623Y-63317200D01*
X65372324Y-56704902D01*
X65397000Y-56580849D01*
X65397000Y-56339151D01*
X65349847Y-56102097D01*
X65257353Y-55878798D01*
X65123073Y-55677833D01*
X64952167Y-55506927D01*
X64751202Y-55372647D01*
X64527903Y-55280153D01*
X64290849Y-55233000D01*
X64049151Y-55233000D01*
X63812097Y-55280153D01*
X63588798Y-55372647D01*
X63387833Y-55506927D01*
X63216927Y-55677833D01*
X63082647Y-55878798D01*
X62990153Y-56102097D01*
X62943000Y-56339151D01*
X50402000Y-56339151D01*
X50402000Y-54773339D01*
X51708109Y-54773339D01*
X51803979Y-55035988D01*
X52091887Y-55176785D01*
X52401730Y-55258708D01*
X52721603Y-55278611D01*
X53039211Y-55235726D01*
X53342351Y-55131703D01*
X53521421Y-55035988D01*
X53617291Y-54773339D01*
X52662700Y-53818748D01*
X51708109Y-54773339D01*
X50402000Y-54773339D01*
X50402000Y-53703703D01*
X51028889Y-53703703D01*
X51071774Y-54021311D01*
X51175797Y-54324451D01*
X51271512Y-54503521D01*
X51534161Y-54599391D01*
X52488752Y-53644800D01*
X52836648Y-53644800D01*
X53791239Y-54599391D01*
X54053888Y-54503521D01*
X54194685Y-54215613D01*
X54276608Y-53905770D01*
X54296511Y-53585897D01*
X54286152Y-53509177D01*
X55785700Y-53509177D01*
X55785700Y-53780423D01*
X55838617Y-54046456D01*
X55942418Y-54297054D01*
X56093114Y-54522587D01*
X56284913Y-54714386D01*
X56510446Y-54865082D01*
X56761044Y-54968883D01*
X57027077Y-55021800D01*
X57298323Y-55021800D01*
X57564356Y-54968883D01*
X57814954Y-54865082D01*
X58040487Y-54714386D01*
X58232286Y-54522587D01*
X58382982Y-54297054D01*
X58486783Y-54046456D01*
X58535974Y-53799151D01*
X62943000Y-53799151D01*
X62943000Y-54040849D01*
X62990153Y-54277903D01*
X63082647Y-54501202D01*
X63216927Y-54702167D01*
X63387833Y-54873073D01*
X63588798Y-55007353D01*
X63812097Y-55099847D01*
X64049151Y-55147000D01*
X64290849Y-55147000D01*
X64527903Y-55099847D01*
X64751202Y-55007353D01*
X64952167Y-54873073D01*
X65123073Y-54702167D01*
X65257353Y-54501202D01*
X65349847Y-54277903D01*
X65397000Y-54040849D01*
X65397000Y-53799151D01*
X65349847Y-53562097D01*
X65257353Y-53338798D01*
X65123073Y-53137833D01*
X64952167Y-52966927D01*
X64751202Y-52832647D01*
X64527903Y-52740153D01*
X64290849Y-52693000D01*
X64049151Y-52693000D01*
X63812097Y-52740153D01*
X63588798Y-52832647D01*
X63387833Y-52966927D01*
X63216927Y-53137833D01*
X63082647Y-53338798D01*
X62990153Y-53562097D01*
X62943000Y-53799151D01*
X58535974Y-53799151D01*
X58539700Y-53780423D01*
X58539700Y-53509177D01*
X58486783Y-53243144D01*
X58382982Y-52992546D01*
X58232286Y-52767013D01*
X58040487Y-52575214D01*
X57814954Y-52424518D01*
X57564356Y-52320717D01*
X57298323Y-52267800D01*
X57027077Y-52267800D01*
X56761044Y-52320717D01*
X56510446Y-52424518D01*
X56284913Y-52575214D01*
X56093114Y-52767013D01*
X55942418Y-52992546D01*
X55838617Y-53243144D01*
X55785700Y-53509177D01*
X54286152Y-53509177D01*
X54253626Y-53268289D01*
X54149603Y-52965149D01*
X54053888Y-52786079D01*
X53791239Y-52690209D01*
X52836648Y-53644800D01*
X52488752Y-53644800D01*
X51534161Y-52690209D01*
X51271512Y-52786079D01*
X51130715Y-53073987D01*
X51048792Y-53383830D01*
X51028889Y-53703703D01*
X50402000Y-53703703D01*
X50402000Y-52516261D01*
X51708109Y-52516261D01*
X52662700Y-53470852D01*
X53617291Y-52516261D01*
X53521421Y-52253612D01*
X53233513Y-52112815D01*
X52923670Y-52030892D01*
X52603797Y-52010989D01*
X52286189Y-52053874D01*
X51983049Y-52157897D01*
X51803979Y-52253612D01*
X51708109Y-52516261D01*
X50402000Y-52516261D01*
X50402000Y-51259151D01*
X62943000Y-51259151D01*
X62943000Y-51500849D01*
X62990153Y-51737903D01*
X63082647Y-51961202D01*
X63216927Y-52162167D01*
X63387833Y-52333073D01*
X63588798Y-52467353D01*
X63812097Y-52559847D01*
X64049151Y-52607000D01*
X64290849Y-52607000D01*
X64527903Y-52559847D01*
X64751202Y-52467353D01*
X64952167Y-52333073D01*
X65123073Y-52162167D01*
X65257353Y-51961202D01*
X65349847Y-51737903D01*
X65397000Y-51500849D01*
X65397000Y-51259151D01*
X65349847Y-51022097D01*
X65257353Y-50798798D01*
X65123073Y-50597833D01*
X64952167Y-50426927D01*
X64751202Y-50292647D01*
X64527903Y-50200153D01*
X64290849Y-50153000D01*
X64049151Y-50153000D01*
X63812097Y-50200153D01*
X63588798Y-50292647D01*
X63387833Y-50426927D01*
X63216927Y-50597833D01*
X63082647Y-50798798D01*
X62990153Y-51022097D01*
X62943000Y-51259151D01*
X50402000Y-51259151D01*
X50402000Y-46750000D01*
X54371176Y-46750000D01*
X54371176Y-49250000D01*
X54378455Y-49323905D01*
X54400012Y-49394970D01*
X54435019Y-49460463D01*
X54482131Y-49517869D01*
X54539537Y-49564981D01*
X54605030Y-49599988D01*
X54676095Y-49621545D01*
X54750000Y-49628824D01*
X57250000Y-49628824D01*
X57323905Y-49621545D01*
X57394970Y-49599988D01*
X57460463Y-49564981D01*
X57517869Y-49517869D01*
X57564981Y-49460463D01*
X57599988Y-49394970D01*
X57621545Y-49323905D01*
X57628824Y-49250000D01*
X57628824Y-48719151D01*
X62943000Y-48719151D01*
X62943000Y-48960849D01*
X62990153Y-49197903D01*
X63082647Y-49421202D01*
X63216927Y-49622167D01*
X63387833Y-49793073D01*
X63588798Y-49927353D01*
X63812097Y-50019847D01*
X64049151Y-50067000D01*
X64290849Y-50067000D01*
X64527903Y-50019847D01*
X64751202Y-49927353D01*
X64952167Y-49793073D01*
X65123073Y-49622167D01*
X65257353Y-49421202D01*
X65349847Y-49197903D01*
X65397000Y-48960849D01*
X65397000Y-48719151D01*
X65349847Y-48482097D01*
X65257353Y-48258798D01*
X65123073Y-48057833D01*
X64952167Y-47886927D01*
X64751202Y-47752647D01*
X64527903Y-47660153D01*
X64290849Y-47613000D01*
X64049151Y-47613000D01*
X63812097Y-47660153D01*
X63588798Y-47752647D01*
X63387833Y-47886927D01*
X63216927Y-48057833D01*
X63082647Y-48258798D01*
X62990153Y-48482097D01*
X62943000Y-48719151D01*
X57628824Y-48719151D01*
X57628824Y-46750000D01*
X57621545Y-46676095D01*
X57599988Y-46605030D01*
X57564981Y-46539537D01*
X57517869Y-46482131D01*
X57460463Y-46435019D01*
X57394970Y-46400012D01*
X57323905Y-46378455D01*
X57250000Y-46371176D01*
X54750000Y-46371176D01*
X54676095Y-46378455D01*
X54605030Y-46400012D01*
X54539537Y-46435019D01*
X54482131Y-46482131D01*
X54435019Y-46539537D01*
X54400012Y-46605030D01*
X54378455Y-46676095D01*
X54371176Y-46750000D01*
X50402000Y-46750000D01*
X50402000Y-46179151D01*
X62943000Y-46179151D01*
X62943000Y-46420849D01*
X62990153Y-46657903D01*
X63082647Y-46881202D01*
X63216927Y-47082167D01*
X63387833Y-47253073D01*
X63588798Y-47387353D01*
X63812097Y-47479847D01*
X64049151Y-47527000D01*
X64290849Y-47527000D01*
X64527903Y-47479847D01*
X64751202Y-47387353D01*
X64952167Y-47253073D01*
X65123073Y-47082167D01*
X65257353Y-46881202D01*
X65349847Y-46657903D01*
X65397000Y-46420849D01*
X65397000Y-46179151D01*
X65349847Y-45942097D01*
X65257353Y-45718798D01*
X65123073Y-45517833D01*
X64952167Y-45346927D01*
X64751202Y-45212647D01*
X64527903Y-45120153D01*
X64290849Y-45073000D01*
X64049151Y-45073000D01*
X63812097Y-45120153D01*
X63588798Y-45212647D01*
X63387833Y-45346927D01*
X63216927Y-45517833D01*
X63082647Y-45718798D01*
X62990153Y-45942097D01*
X62943000Y-46179151D01*
X50402000Y-46179151D01*
X50402000Y-44306699D01*
X54867249Y-44306699D01*
X54993258Y-44594922D01*
X55323756Y-44760681D01*
X55680242Y-44858779D01*
X56049016Y-44885444D01*
X56415905Y-44839654D01*
X56766813Y-44723166D01*
X57006742Y-44594922D01*
X57132751Y-44306699D01*
X56000000Y-43173948D01*
X54867249Y-44306699D01*
X50402000Y-44306699D01*
X50402000Y-43049016D01*
X54114556Y-43049016D01*
X54160346Y-43415905D01*
X54276834Y-43766813D01*
X54405078Y-44006742D01*
X54693301Y-44132751D01*
X55826052Y-43000000D01*
X56173948Y-43000000D01*
X57306699Y-44132751D01*
X57594922Y-44006742D01*
X57760681Y-43676244D01*
X57770888Y-43639151D01*
X62943000Y-43639151D01*
X62943000Y-43880849D01*
X62990153Y-44117903D01*
X63082647Y-44341202D01*
X63216927Y-44542167D01*
X63387833Y-44713073D01*
X63588798Y-44847353D01*
X63812097Y-44939847D01*
X64049151Y-44987000D01*
X64290849Y-44987000D01*
X64527903Y-44939847D01*
X64751202Y-44847353D01*
X64952167Y-44713073D01*
X65123073Y-44542167D01*
X65257353Y-44341202D01*
X65349847Y-44117903D01*
X65397000Y-43880849D01*
X65397000Y-43639151D01*
X65349847Y-43402097D01*
X65257353Y-43178798D01*
X65123073Y-42977833D01*
X64952167Y-42806927D01*
X64751202Y-42672647D01*
X64631907Y-42623233D01*
X64797319Y-42565051D01*
X64939849Y-42488867D01*
X65017599Y-42241547D01*
X64170000Y-41393948D01*
X63322401Y-42241547D01*
X63400151Y-42488867D01*
X63662487Y-42614676D01*
X63703427Y-42625166D01*
X63588798Y-42672647D01*
X63387833Y-42806927D01*
X63216927Y-42977833D01*
X63082647Y-43178798D01*
X62990153Y-43402097D01*
X62943000Y-43639151D01*
X57770888Y-43639151D01*
X57858779Y-43319758D01*
X57885444Y-42950984D01*
X57839654Y-42584095D01*
X57723166Y-42233187D01*
X57594922Y-41993258D01*
X57306699Y-41867249D01*
X56173948Y-43000000D01*
X55826052Y-43000000D01*
X54693301Y-41867249D01*
X54405078Y-41993258D01*
X54239319Y-42323756D01*
X54141221Y-42680242D01*
X54114556Y-43049016D01*
X50402000Y-43049016D01*
X50402000Y-41693301D01*
X54867249Y-41693301D01*
X56000000Y-42826052D01*
X57132751Y-41693301D01*
X57006742Y-41405078D01*
X56767004Y-41284839D01*
X62687271Y-41284839D01*
X62728410Y-41572859D01*
X62824949Y-41847319D01*
X62901133Y-41989849D01*
X63148453Y-42067599D01*
X63996052Y-41220000D01*
X63148453Y-40372401D01*
X62901133Y-40450151D01*
X62775324Y-40712487D01*
X62703111Y-40994327D01*
X62687271Y-41284839D01*
X56767004Y-41284839D01*
X56676244Y-41239319D01*
X56319758Y-41141221D01*
X55950984Y-41114556D01*
X55584095Y-41160346D01*
X55233187Y-41276834D01*
X54993258Y-41405078D01*
X54867249Y-41693301D01*
X50402000Y-41693301D01*
X50402000Y-33805282D01*
X52023000Y-33805282D01*
X52023000Y-34194718D01*
X52098975Y-34576670D01*
X52248005Y-34936461D01*
X52464364Y-35260264D01*
X52739736Y-35535636D01*
X53063539Y-35751995D01*
X53423330Y-35901025D01*
X53805282Y-35977000D01*
X54194718Y-35977000D01*
X54576670Y-35901025D01*
X54936461Y-35751995D01*
X55260264Y-35535636D01*
X55535636Y-35260264D01*
X55751995Y-34936461D01*
X55901025Y-34576670D01*
X55977000Y-34194718D01*
X55977000Y-33805282D01*
X55901025Y-33423330D01*
X55751995Y-33063539D01*
X55535636Y-32739736D01*
X55260264Y-32464364D01*
X54936461Y-32248005D01*
X54699856Y-32150000D01*
X60620176Y-32150000D01*
X60620176Y-33850000D01*
X60627455Y-33923905D01*
X60649012Y-33994970D01*
X60684019Y-34060463D01*
X60731131Y-34117869D01*
X60788537Y-34164981D01*
X60854030Y-34199988D01*
X60925095Y-34221545D01*
X60999000Y-34228824D01*
X61347001Y-34228824D01*
X61347000Y-36652957D01*
X61344573Y-36677600D01*
X61347000Y-36702243D01*
X61347000Y-36702252D01*
X61354264Y-36776008D01*
X61382969Y-36870635D01*
X61429583Y-36957845D01*
X61492316Y-37034284D01*
X61511468Y-37050002D01*
X64204133Y-39742667D01*
X64105161Y-39737271D01*
X63817141Y-39778410D01*
X63542681Y-39874949D01*
X63400151Y-39951133D01*
X63322401Y-40198453D01*
X64170000Y-41046052D01*
X64184143Y-41031910D01*
X64358091Y-41205858D01*
X64343948Y-41220000D01*
X65191547Y-42067599D01*
X65438867Y-41989849D01*
X65564676Y-41727513D01*
X65636889Y-41445673D01*
X65650862Y-41189397D01*
X74686400Y-50224935D01*
X74686400Y-50368528D01*
X74716259Y-50518643D01*
X74774831Y-50660048D01*
X74859864Y-50787309D01*
X74968091Y-50895536D01*
X75095352Y-50980569D01*
X75236757Y-51039141D01*
X75386872Y-51069000D01*
X75539928Y-51069000D01*
X75690043Y-51039141D01*
X75831448Y-50980569D01*
X75958709Y-50895536D01*
X76066936Y-50787309D01*
X76151969Y-50660048D01*
X76210541Y-50518643D01*
X76240400Y-50368528D01*
X76240400Y-50215472D01*
X76210541Y-50065357D01*
X76151969Y-49923952D01*
X76066936Y-49796691D01*
X75958709Y-49688464D01*
X75831448Y-49603431D01*
X75690043Y-49544859D01*
X75539928Y-49515000D01*
X75396335Y-49515000D01*
X62351000Y-36469666D01*
X62351000Y-34228824D01*
X62699000Y-34228824D01*
X62772905Y-34221545D01*
X62843970Y-34199988D01*
X62909463Y-34164981D01*
X62966869Y-34117869D01*
X63013981Y-34060463D01*
X63048988Y-33994970D01*
X63070545Y-33923905D01*
X63077824Y-33850000D01*
X63077824Y-33000000D01*
X63156064Y-33000000D01*
X63179755Y-33240534D01*
X63249916Y-33471824D01*
X63363851Y-33684983D01*
X63517183Y-33871817D01*
X63704017Y-34025149D01*
X63917176Y-34139084D01*
X64148466Y-34209245D01*
X64328732Y-34227000D01*
X64449268Y-34227000D01*
X64629534Y-34209245D01*
X64828082Y-34149016D01*
X79276603Y-48597538D01*
X79292316Y-48616684D01*
X79368755Y-48679417D01*
X79455964Y-48726031D01*
X79550591Y-48754736D01*
X79624347Y-48762000D01*
X79624357Y-48762000D01*
X79649000Y-48764427D01*
X79673643Y-48762000D01*
X82588155Y-48762000D01*
X82689691Y-48863536D01*
X82816952Y-48948569D01*
X82958357Y-49007141D01*
X83108472Y-49037000D01*
X83261528Y-49037000D01*
X83411643Y-49007141D01*
X83553048Y-48948569D01*
X83680309Y-48863536D01*
X83788536Y-48755309D01*
X83873569Y-48628048D01*
X83931466Y-48488272D01*
X88173800Y-48488272D01*
X88173800Y-48641328D01*
X88203659Y-48791443D01*
X88262231Y-48932848D01*
X88347264Y-49060109D01*
X88455491Y-49168336D01*
X88582752Y-49253369D01*
X88724157Y-49311941D01*
X88744582Y-49316004D01*
X93438476Y-54009898D01*
X93461459Y-54125443D01*
X93520031Y-54266848D01*
X93605064Y-54394109D01*
X93713291Y-54502336D01*
X93840552Y-54587369D01*
X93981957Y-54645941D01*
X94132072Y-54675800D01*
X94285128Y-54675800D01*
X94435243Y-54645941D01*
X94576648Y-54587369D01*
X94703909Y-54502336D01*
X94812136Y-54394109D01*
X94897169Y-54266848D01*
X94955741Y-54125443D01*
X94985600Y-53975328D01*
X94985600Y-53822272D01*
X94955741Y-53672157D01*
X94897169Y-53530752D01*
X94812136Y-53403491D01*
X94703909Y-53295264D01*
X94576648Y-53210231D01*
X94537393Y-53193971D01*
X92602573Y-51259151D01*
X99773000Y-51259151D01*
X99773000Y-51500849D01*
X99820153Y-51737903D01*
X99912647Y-51961202D01*
X100046927Y-52162167D01*
X100217833Y-52333073D01*
X100418798Y-52467353D01*
X100642097Y-52559847D01*
X100879151Y-52607000D01*
X101120849Y-52607000D01*
X101357903Y-52559847D01*
X101581202Y-52467353D01*
X101782167Y-52333073D01*
X101953073Y-52162167D01*
X102087353Y-51961202D01*
X102179847Y-51737903D01*
X102227000Y-51500849D01*
X102227000Y-51259151D01*
X102179847Y-51022097D01*
X102087353Y-50798798D01*
X101953073Y-50597833D01*
X101782167Y-50426927D01*
X101581202Y-50292647D01*
X101357903Y-50200153D01*
X101120849Y-50153000D01*
X100879151Y-50153000D01*
X100642097Y-50200153D01*
X100418798Y-50292647D01*
X100217833Y-50426927D01*
X100046927Y-50597833D01*
X99912647Y-50798798D01*
X99820153Y-51022097D01*
X99773000Y-51259151D01*
X92602573Y-51259151D01*
X90062573Y-48719151D01*
X99773000Y-48719151D01*
X99773000Y-48960849D01*
X99820153Y-49197903D01*
X99912647Y-49421202D01*
X100046927Y-49622167D01*
X100217833Y-49793073D01*
X100418798Y-49927353D01*
X100642097Y-50019847D01*
X100879151Y-50067000D01*
X101120849Y-50067000D01*
X101357903Y-50019847D01*
X101581202Y-49927353D01*
X101782167Y-49793073D01*
X101953073Y-49622167D01*
X102087353Y-49421202D01*
X102179847Y-49197903D01*
X102227000Y-48960849D01*
X102227000Y-48719151D01*
X102179847Y-48482097D01*
X102087353Y-48258798D01*
X101953073Y-48057833D01*
X101782167Y-47886927D01*
X101581202Y-47752647D01*
X101357903Y-47660153D01*
X101120849Y-47613000D01*
X100879151Y-47613000D01*
X100642097Y-47660153D01*
X100418798Y-47752647D01*
X100217833Y-47886927D01*
X100046927Y-48057833D01*
X99912647Y-48258798D01*
X99820153Y-48482097D01*
X99773000Y-48719151D01*
X90062573Y-48719151D01*
X89702004Y-48358582D01*
X89697941Y-48338157D01*
X89639369Y-48196752D01*
X89554336Y-48069491D01*
X89446109Y-47961264D01*
X89318848Y-47876231D01*
X89177443Y-47817659D01*
X89027328Y-47787800D01*
X88874272Y-47787800D01*
X88724157Y-47817659D01*
X88582752Y-47876231D01*
X88455491Y-47961264D01*
X88347264Y-48069491D01*
X88262231Y-48196752D01*
X88203659Y-48338157D01*
X88173800Y-48488272D01*
X83931466Y-48488272D01*
X83932141Y-48486643D01*
X83962000Y-48336528D01*
X83962000Y-48183472D01*
X83932141Y-48033357D01*
X83873569Y-47891952D01*
X83788536Y-47764691D01*
X83680309Y-47656464D01*
X83553048Y-47571431D01*
X83411643Y-47512859D01*
X83261528Y-47483000D01*
X83108472Y-47483000D01*
X82958357Y-47512859D01*
X82816952Y-47571431D01*
X82689691Y-47656464D01*
X82588155Y-47758000D01*
X79856935Y-47758000D01*
X78278086Y-46179151D01*
X99773000Y-46179151D01*
X99773000Y-46420849D01*
X99820153Y-46657903D01*
X99912647Y-46881202D01*
X100046927Y-47082167D01*
X100217833Y-47253073D01*
X100418798Y-47387353D01*
X100642097Y-47479847D01*
X100879151Y-47527000D01*
X101120849Y-47527000D01*
X101357903Y-47479847D01*
X101581202Y-47387353D01*
X101782167Y-47253073D01*
X101953073Y-47082167D01*
X102087353Y-46881202D01*
X102179847Y-46657903D01*
X102227000Y-46420849D01*
X102227000Y-46179151D01*
X102179847Y-45942097D01*
X102087353Y-45718798D01*
X101953073Y-45517833D01*
X101782167Y-45346927D01*
X101581202Y-45212647D01*
X101357903Y-45120153D01*
X101120849Y-45073000D01*
X100879151Y-45073000D01*
X100642097Y-45120153D01*
X100418798Y-45212647D01*
X100217833Y-45346927D01*
X100046927Y-45517833D01*
X99912647Y-45718798D01*
X99820153Y-45942097D01*
X99773000Y-46179151D01*
X78278086Y-46179151D01*
X65538016Y-33439082D01*
X65598245Y-33240534D01*
X65621936Y-33000000D01*
X65696064Y-33000000D01*
X65719755Y-33240534D01*
X65789916Y-33471824D01*
X65903851Y-33684983D01*
X66057183Y-33871817D01*
X66244017Y-34025149D01*
X66457176Y-34139084D01*
X66688466Y-34209245D01*
X66868732Y-34227000D01*
X66989268Y-34227000D01*
X67169534Y-34209245D01*
X67368082Y-34149016D01*
X67731604Y-34512539D01*
X67747317Y-34531685D01*
X67823756Y-34594418D01*
X67910965Y-34641032D01*
X68005592Y-34669737D01*
X68079348Y-34677001D01*
X68079357Y-34677001D01*
X68104000Y-34679428D01*
X68128643Y-34677001D01*
X74124467Y-34677001D01*
X82966800Y-43519335D01*
X82966800Y-43662928D01*
X82996659Y-43813043D01*
X83055231Y-43954448D01*
X83140264Y-44081709D01*
X83248491Y-44189936D01*
X83375752Y-44274969D01*
X83517157Y-44333541D01*
X83667272Y-44363400D01*
X83820328Y-44363400D01*
X83970443Y-44333541D01*
X84111848Y-44274969D01*
X84239109Y-44189936D01*
X84347336Y-44081709D01*
X84432369Y-43954448D01*
X84490941Y-43813043D01*
X84520800Y-43662928D01*
X84520800Y-43639151D01*
X99773000Y-43639151D01*
X99773000Y-43880849D01*
X99820153Y-44117903D01*
X99912647Y-44341202D01*
X100046927Y-44542167D01*
X100217833Y-44713073D01*
X100418798Y-44847353D01*
X100642097Y-44939847D01*
X100879151Y-44987000D01*
X101120849Y-44987000D01*
X101357903Y-44939847D01*
X101581202Y-44847353D01*
X101782167Y-44713073D01*
X101953073Y-44542167D01*
X102087353Y-44341202D01*
X102179847Y-44117903D01*
X102227000Y-43880849D01*
X102227000Y-43639151D01*
X102179847Y-43402097D01*
X102087353Y-43178798D01*
X101953073Y-42977833D01*
X101782167Y-42806927D01*
X101581202Y-42672647D01*
X101357903Y-42580153D01*
X101120849Y-42533000D01*
X100879151Y-42533000D01*
X100642097Y-42580153D01*
X100418798Y-42672647D01*
X100217833Y-42806927D01*
X100046927Y-42977833D01*
X99912647Y-43178798D01*
X99820153Y-43402097D01*
X99773000Y-43639151D01*
X84520800Y-43639151D01*
X84520800Y-43509872D01*
X84490941Y-43359757D01*
X84432369Y-43218352D01*
X84347336Y-43091091D01*
X84239109Y-42982864D01*
X84111848Y-42897831D01*
X83970443Y-42839259D01*
X83820328Y-42809400D01*
X83676735Y-42809400D01*
X81966486Y-41099151D01*
X99773000Y-41099151D01*
X99773000Y-41340849D01*
X99820153Y-41577903D01*
X99912647Y-41801202D01*
X100046927Y-42002167D01*
X100217833Y-42173073D01*
X100418798Y-42307353D01*
X100642097Y-42399847D01*
X100879151Y-42447000D01*
X101120849Y-42447000D01*
X101357903Y-42399847D01*
X101581202Y-42307353D01*
X101782167Y-42173073D01*
X101953073Y-42002167D01*
X102087353Y-41801202D01*
X102179847Y-41577903D01*
X102227000Y-41340849D01*
X102227000Y-41276035D01*
X121926220Y-41276035D01*
X121926220Y-41596525D01*
X121988745Y-41910858D01*
X122111392Y-42206953D01*
X122289447Y-42473432D01*
X122516068Y-42700053D01*
X122782547Y-42878108D01*
X123078642Y-43000755D01*
X123392975Y-43063280D01*
X123713465Y-43063280D01*
X124027798Y-43000755D01*
X124323893Y-42878108D01*
X124590372Y-42700053D01*
X124816993Y-42473432D01*
X124995048Y-42206953D01*
X125117695Y-41910858D01*
X125180220Y-41596525D01*
X125180220Y-41276035D01*
X125117695Y-40961702D01*
X124995048Y-40665607D01*
X124816993Y-40399128D01*
X124590372Y-40172507D01*
X124323893Y-39994452D01*
X124027798Y-39871805D01*
X123713465Y-39809280D01*
X123392975Y-39809280D01*
X123078642Y-39871805D01*
X122782547Y-39994452D01*
X122516068Y-40172507D01*
X122289447Y-40399128D01*
X122111392Y-40665607D01*
X121988745Y-40961702D01*
X121926220Y-41276035D01*
X102227000Y-41276035D01*
X102227000Y-41099151D01*
X102179847Y-40862097D01*
X102087353Y-40638798D01*
X101953073Y-40437833D01*
X101782167Y-40266927D01*
X101581202Y-40132647D01*
X101357903Y-40040153D01*
X101120849Y-39993000D01*
X100879151Y-39993000D01*
X100642097Y-40040153D01*
X100418798Y-40132647D01*
X100217833Y-40266927D01*
X100046927Y-40437833D01*
X99912647Y-40638798D01*
X99820153Y-40862097D01*
X99773000Y-41099151D01*
X81966486Y-41099151D01*
X74704803Y-33837469D01*
X74689085Y-33818317D01*
X74612646Y-33755584D01*
X74525437Y-33708970D01*
X74430810Y-33680265D01*
X74357054Y-33673001D01*
X74357044Y-33673001D01*
X74332401Y-33670574D01*
X74307758Y-33673001D01*
X70778785Y-33673001D01*
X70807327Y-33624838D01*
X70903511Y-33351737D01*
X70784124Y-33123000D01*
X69592000Y-33123000D01*
X69592000Y-33143000D01*
X69346000Y-33143000D01*
X69346000Y-33123000D01*
X69326000Y-33123000D01*
X69326000Y-32877000D01*
X69346000Y-32877000D01*
X69346000Y-31685492D01*
X69592000Y-31685492D01*
X69592000Y-32877000D01*
X70784124Y-32877000D01*
X70903511Y-32648263D01*
X70807327Y-32375162D01*
X70673892Y-32150000D01*
X75908936Y-32150000D01*
X75908936Y-33850000D01*
X75916215Y-33923905D01*
X75937772Y-33994970D01*
X75972779Y-34060463D01*
X76019891Y-34117869D01*
X76077297Y-34164981D01*
X76142790Y-34199988D01*
X76213855Y-34221545D01*
X76287760Y-34228824D01*
X77987760Y-34228824D01*
X78061665Y-34221545D01*
X78132730Y-34199988D01*
X78198223Y-34164981D01*
X78255629Y-34117869D01*
X78302741Y-34060463D01*
X78337748Y-33994970D01*
X78359305Y-33923905D01*
X78366584Y-33850000D01*
X78366584Y-33000000D01*
X78444824Y-33000000D01*
X78468515Y-33240534D01*
X78538676Y-33471824D01*
X78652611Y-33684983D01*
X78805943Y-33871817D01*
X78992777Y-34025149D01*
X79205936Y-34139084D01*
X79437226Y-34209245D01*
X79617492Y-34227000D01*
X79738028Y-34227000D01*
X79918294Y-34209245D01*
X80149584Y-34139084D01*
X80362743Y-34025149D01*
X80549577Y-33871817D01*
X80702909Y-33684983D01*
X80816844Y-33471824D01*
X80887005Y-33240534D01*
X80910696Y-33000000D01*
X80984824Y-33000000D01*
X81008515Y-33240534D01*
X81078676Y-33471824D01*
X81192611Y-33684983D01*
X81345943Y-33871817D01*
X81532777Y-34025149D01*
X81745936Y-34139084D01*
X81977226Y-34209245D01*
X82157492Y-34227000D01*
X82278028Y-34227000D01*
X82458294Y-34209245D01*
X82689584Y-34139084D01*
X82902743Y-34025149D01*
X83089577Y-33871817D01*
X83242909Y-33684983D01*
X83356844Y-33471824D01*
X83427005Y-33240534D01*
X83450696Y-33000000D01*
X83524824Y-33000000D01*
X83548515Y-33240534D01*
X83618676Y-33471824D01*
X83732611Y-33684983D01*
X83885943Y-33871817D01*
X84072777Y-34025149D01*
X84285936Y-34139084D01*
X84517226Y-34209245D01*
X84697492Y-34227000D01*
X84818028Y-34227000D01*
X84998294Y-34209245D01*
X85229584Y-34139084D01*
X85442743Y-34025149D01*
X85629577Y-33871817D01*
X85782909Y-33684983D01*
X85896844Y-33471824D01*
X85967005Y-33240534D01*
X85990696Y-33000000D01*
X86064824Y-33000000D01*
X86088515Y-33240534D01*
X86158676Y-33471824D01*
X86272611Y-33684983D01*
X86425943Y-33871817D01*
X86612777Y-34025149D01*
X86825936Y-34139084D01*
X87057226Y-34209245D01*
X87237492Y-34227000D01*
X87358028Y-34227000D01*
X87538294Y-34209245D01*
X87769584Y-34139084D01*
X87982743Y-34025149D01*
X88169577Y-33871817D01*
X88322909Y-33684983D01*
X88436844Y-33471824D01*
X88507005Y-33240534D01*
X88530696Y-33000000D01*
X88604824Y-33000000D01*
X88628515Y-33240534D01*
X88698676Y-33471824D01*
X88812611Y-33684983D01*
X88965943Y-33871817D01*
X89152777Y-34025149D01*
X89365936Y-34139084D01*
X89597226Y-34209245D01*
X89777492Y-34227000D01*
X89898028Y-34227000D01*
X90078294Y-34209245D01*
X90309584Y-34139084D01*
X90522743Y-34025149D01*
X90709577Y-33871817D01*
X90862909Y-33684983D01*
X90976844Y-33471824D01*
X91047005Y-33240534D01*
X91070696Y-33000000D01*
X91144824Y-33000000D01*
X91168515Y-33240534D01*
X91238676Y-33471824D01*
X91352611Y-33684983D01*
X91505943Y-33871817D01*
X91692777Y-34025149D01*
X91905936Y-34139084D01*
X92137226Y-34209245D01*
X92317492Y-34227000D01*
X92438028Y-34227000D01*
X92618294Y-34209245D01*
X92849584Y-34139084D01*
X93062743Y-34025149D01*
X93249577Y-33871817D01*
X93402909Y-33684983D01*
X93516844Y-33471824D01*
X93520869Y-33458554D01*
X93579433Y-33624838D01*
X93727048Y-33873927D01*
X93920422Y-34089431D01*
X94152123Y-34263069D01*
X94413247Y-34388168D01*
X94566023Y-34434507D01*
X94794760Y-34314508D01*
X94794760Y-33123000D01*
X95040760Y-33123000D01*
X95040760Y-34314508D01*
X95269497Y-34434507D01*
X95422273Y-34388168D01*
X95683397Y-34263069D01*
X95915098Y-34089431D01*
X96108472Y-33873927D01*
X96149152Y-33805282D01*
X124023000Y-33805282D01*
X124023000Y-34194718D01*
X124098975Y-34576670D01*
X124248005Y-34936461D01*
X124464364Y-35260264D01*
X124739736Y-35535636D01*
X125063539Y-35751995D01*
X125423330Y-35901025D01*
X125805282Y-35977000D01*
X126194718Y-35977000D01*
X126576670Y-35901025D01*
X126936461Y-35751995D01*
X127260264Y-35535636D01*
X127535636Y-35260264D01*
X127751995Y-34936461D01*
X127901025Y-34576670D01*
X127977000Y-34194718D01*
X127977000Y-33805282D01*
X127901025Y-33423330D01*
X127751995Y-33063539D01*
X127535636Y-32739736D01*
X127260264Y-32464364D01*
X126936461Y-32248005D01*
X126576670Y-32098975D01*
X126194718Y-32023000D01*
X125805282Y-32023000D01*
X125423330Y-32098975D01*
X125063539Y-32248005D01*
X124739736Y-32464364D01*
X124464364Y-32739736D01*
X124248005Y-33063539D01*
X124098975Y-33423330D01*
X124023000Y-33805282D01*
X96149152Y-33805282D01*
X96256087Y-33624838D01*
X96352271Y-33351737D01*
X96232884Y-33123000D01*
X95040760Y-33123000D01*
X94794760Y-33123000D01*
X94774760Y-33123000D01*
X94774760Y-32877000D01*
X94794760Y-32877000D01*
X94794760Y-31685492D01*
X95040760Y-31685492D01*
X95040760Y-32877000D01*
X96232884Y-32877000D01*
X96352271Y-32648263D01*
X96256087Y-32375162D01*
X96108472Y-32126073D01*
X95915098Y-31910569D01*
X95683397Y-31736931D01*
X95422273Y-31611832D01*
X95269497Y-31565493D01*
X95040760Y-31685492D01*
X94794760Y-31685492D01*
X94566023Y-31565493D01*
X94413247Y-31611832D01*
X94152123Y-31736931D01*
X93920422Y-31910569D01*
X93727048Y-32126073D01*
X93579433Y-32375162D01*
X93520869Y-32541446D01*
X93516844Y-32528176D01*
X93402909Y-32315017D01*
X93249577Y-32128183D01*
X93062743Y-31974851D01*
X92849584Y-31860916D01*
X92618294Y-31790755D01*
X92438028Y-31773000D01*
X92317492Y-31773000D01*
X92137226Y-31790755D01*
X91905936Y-31860916D01*
X91692777Y-31974851D01*
X91505943Y-32128183D01*
X91352611Y-32315017D01*
X91238676Y-32528176D01*
X91168515Y-32759466D01*
X91144824Y-33000000D01*
X91070696Y-33000000D01*
X91047005Y-32759466D01*
X90976844Y-32528176D01*
X90862909Y-32315017D01*
X90709577Y-32128183D01*
X90522743Y-31974851D01*
X90309584Y-31860916D01*
X90078294Y-31790755D01*
X89898028Y-31773000D01*
X89777492Y-31773000D01*
X89597226Y-31790755D01*
X89365936Y-31860916D01*
X89152777Y-31974851D01*
X88965943Y-32128183D01*
X88812611Y-32315017D01*
X88698676Y-32528176D01*
X88628515Y-32759466D01*
X88604824Y-33000000D01*
X88530696Y-33000000D01*
X88507005Y-32759466D01*
X88436844Y-32528176D01*
X88322909Y-32315017D01*
X88169577Y-32128183D01*
X87982743Y-31974851D01*
X87769584Y-31860916D01*
X87538294Y-31790755D01*
X87358028Y-31773000D01*
X87237492Y-31773000D01*
X87057226Y-31790755D01*
X86825936Y-31860916D01*
X86612777Y-31974851D01*
X86425943Y-32128183D01*
X86272611Y-32315017D01*
X86158676Y-32528176D01*
X86088515Y-32759466D01*
X86064824Y-33000000D01*
X85990696Y-33000000D01*
X85967005Y-32759466D01*
X85896844Y-32528176D01*
X85782909Y-32315017D01*
X85629577Y-32128183D01*
X85442743Y-31974851D01*
X85229584Y-31860916D01*
X84998294Y-31790755D01*
X84818028Y-31773000D01*
X84697492Y-31773000D01*
X84517226Y-31790755D01*
X84285936Y-31860916D01*
X84072777Y-31974851D01*
X83885943Y-32128183D01*
X83732611Y-32315017D01*
X83618676Y-32528176D01*
X83548515Y-32759466D01*
X83524824Y-33000000D01*
X83450696Y-33000000D01*
X83427005Y-32759466D01*
X83356844Y-32528176D01*
X83242909Y-32315017D01*
X83089577Y-32128183D01*
X82902743Y-31974851D01*
X82689584Y-31860916D01*
X82458294Y-31790755D01*
X82278028Y-31773000D01*
X82157492Y-31773000D01*
X81977226Y-31790755D01*
X81745936Y-31860916D01*
X81532777Y-31974851D01*
X81345943Y-32128183D01*
X81192611Y-32315017D01*
X81078676Y-32528176D01*
X81008515Y-32759466D01*
X80984824Y-33000000D01*
X80910696Y-33000000D01*
X80887005Y-32759466D01*
X80816844Y-32528176D01*
X80702909Y-32315017D01*
X80549577Y-32128183D01*
X80362743Y-31974851D01*
X80149584Y-31860916D01*
X79918294Y-31790755D01*
X79738028Y-31773000D01*
X79617492Y-31773000D01*
X79437226Y-31790755D01*
X79205936Y-31860916D01*
X78992777Y-31974851D01*
X78805943Y-32128183D01*
X78652611Y-32315017D01*
X78538676Y-32528176D01*
X78468515Y-32759466D01*
X78444824Y-33000000D01*
X78366584Y-33000000D01*
X78366584Y-32150000D01*
X78359305Y-32076095D01*
X78337748Y-32005030D01*
X78302741Y-31939537D01*
X78255629Y-31882131D01*
X78198223Y-31835019D01*
X78132730Y-31800012D01*
X78061665Y-31778455D01*
X77987760Y-31771176D01*
X76287760Y-31771176D01*
X76213855Y-31778455D01*
X76142790Y-31800012D01*
X76077297Y-31835019D01*
X76019891Y-31882131D01*
X75972779Y-31939537D01*
X75937772Y-32005030D01*
X75916215Y-32076095D01*
X75908936Y-32150000D01*
X70673892Y-32150000D01*
X70659712Y-32126073D01*
X70466338Y-31910569D01*
X70234637Y-31736931D01*
X69973513Y-31611832D01*
X69820737Y-31565493D01*
X69592000Y-31685492D01*
X69346000Y-31685492D01*
X69117263Y-31565493D01*
X68964487Y-31611832D01*
X68703363Y-31736931D01*
X68471662Y-31910569D01*
X68278288Y-32126073D01*
X68130673Y-32375162D01*
X68072109Y-32541446D01*
X68068084Y-32528176D01*
X67954149Y-32315017D01*
X67800817Y-32128183D01*
X67613983Y-31974851D01*
X67400824Y-31860916D01*
X67169534Y-31790755D01*
X66989268Y-31773000D01*
X66868732Y-31773000D01*
X66688466Y-31790755D01*
X66457176Y-31860916D01*
X66244017Y-31974851D01*
X66057183Y-32128183D01*
X65903851Y-32315017D01*
X65789916Y-32528176D01*
X65719755Y-32759466D01*
X65696064Y-33000000D01*
X65621936Y-33000000D01*
X65598245Y-32759466D01*
X65528084Y-32528176D01*
X65414149Y-32315017D01*
X65260817Y-32128183D01*
X65073983Y-31974851D01*
X64860824Y-31860916D01*
X64629534Y-31790755D01*
X64449268Y-31773000D01*
X64328732Y-31773000D01*
X64148466Y-31790755D01*
X63917176Y-31860916D01*
X63704017Y-31974851D01*
X63517183Y-32128183D01*
X63363851Y-32315017D01*
X63249916Y-32528176D01*
X63179755Y-32759466D01*
X63156064Y-33000000D01*
X63077824Y-33000000D01*
X63077824Y-32150000D01*
X63070545Y-32076095D01*
X63048988Y-32005030D01*
X63013981Y-31939537D01*
X62966869Y-31882131D01*
X62909463Y-31835019D01*
X62843970Y-31800012D01*
X62772905Y-31778455D01*
X62699000Y-31771176D01*
X60999000Y-31771176D01*
X60925095Y-31778455D01*
X60854030Y-31800012D01*
X60788537Y-31835019D01*
X60731131Y-31882131D01*
X60684019Y-31939537D01*
X60649012Y-32005030D01*
X60627455Y-32076095D01*
X60620176Y-32150000D01*
X54699856Y-32150000D01*
X54576670Y-32098975D01*
X54194718Y-32023000D01*
X53805282Y-32023000D01*
X53423330Y-32098975D01*
X53063539Y-32248005D01*
X52739736Y-32464364D01*
X52464364Y-32739736D01*
X52248005Y-33063539D01*
X52098975Y-33423330D01*
X52023000Y-33805282D01*
X50402000Y-33805282D01*
X50402000Y-30402000D01*
X129598000Y-30402000D01*
X129598001Y-91598000D01*
X129598001Y-91598000D01*
G37*
X129598001Y-91598000D02*
X50402000Y-91598000D01*
X50402000Y-87805282D01*
X52023000Y-87805282D01*
X52023000Y-88194718D01*
X52098975Y-88576670D01*
X52248005Y-88936461D01*
X52464364Y-89260264D01*
X52739736Y-89535636D01*
X53063539Y-89751995D01*
X53423330Y-89901025D01*
X53805282Y-89977000D01*
X54194718Y-89977000D01*
X54576670Y-89901025D01*
X54936461Y-89751995D01*
X55260264Y-89535636D01*
X55535636Y-89260264D01*
X55751995Y-88936461D01*
X55901025Y-88576670D01*
X55977000Y-88194718D01*
X55977000Y-87805282D01*
X55901025Y-87423330D01*
X55751995Y-87063539D01*
X55535636Y-86739736D01*
X55260264Y-86464364D01*
X54936461Y-86248005D01*
X54576670Y-86098975D01*
X54194718Y-86023000D01*
X53805282Y-86023000D01*
X53423330Y-86098975D01*
X53063539Y-86248005D01*
X52739736Y-86464364D01*
X52464364Y-86739736D01*
X52248005Y-87063539D01*
X52098975Y-87423330D01*
X52023000Y-87805282D01*
X50402000Y-87805282D01*
X50402000Y-75223900D01*
X57968326Y-75223900D01*
X57971600Y-75257145D01*
X57971601Y-84955145D01*
X57968326Y-84988400D01*
X57981396Y-85121114D01*
X58020108Y-85248729D01*
X58082972Y-85366340D01*
X58146376Y-85443598D01*
X58146379Y-85443601D01*
X58167574Y-85469427D01*
X58193400Y-85490622D01*
X61143578Y-88440801D01*
X61164773Y-88466627D01*
X61267859Y-88551228D01*
X61385470Y-88614092D01*
X61513085Y-88652804D01*
X61612548Y-88662600D01*
X61612555Y-88662600D01*
X61645800Y-88665874D01*
X61679045Y-88662600D01*
X95697576Y-88662600D01*
X95697576Y-88835600D01*
X95704855Y-88909505D01*
X95726412Y-88980570D01*
X95761419Y-89046063D01*
X95808531Y-89103469D01*
X95865937Y-89150581D01*
X95931430Y-89185588D01*
X96002495Y-89207145D01*
X96076400Y-89214424D01*
X97776400Y-89214424D01*
X97850305Y-89207145D01*
X97921370Y-89185588D01*
X97986863Y-89150581D01*
X98044269Y-89103469D01*
X98091381Y-89046063D01*
X98126388Y-88980570D01*
X98147945Y-88909505D01*
X98155224Y-88835600D01*
X98155224Y-88662600D01*
X98436984Y-88662600D01*
X98441251Y-88670583D01*
X98594583Y-88857417D01*
X98781417Y-89010749D01*
X98994576Y-89124684D01*
X99225866Y-89194845D01*
X99406132Y-89212600D01*
X99526668Y-89212600D01*
X99706934Y-89194845D01*
X99938224Y-89124684D01*
X100151383Y-89010749D01*
X100338217Y-88857417D01*
X100491549Y-88670583D01*
X100605484Y-88457424D01*
X100675645Y-88226134D01*
X100699336Y-87985600D01*
X100681576Y-87805282D01*
X124023000Y-87805282D01*
X124023000Y-88194718D01*
X124098975Y-88576670D01*
X124248005Y-88936461D01*
X124464364Y-89260264D01*
X124739736Y-89535636D01*
X125063539Y-89751995D01*
X125423330Y-89901025D01*
X125805282Y-89977000D01*
X126194718Y-89977000D01*
X126576670Y-89901025D01*
X126936461Y-89751995D01*
X127260264Y-89535636D01*
X127535636Y-89260264D01*
X127751995Y-88936461D01*
X127901025Y-88576670D01*
X127977000Y-88194718D01*
X127977000Y-87805282D01*
X127901025Y-87423330D01*
X127751995Y-87063539D01*
X127535636Y-86739736D01*
X127260264Y-86464364D01*
X126936461Y-86248005D01*
X126576670Y-86098975D01*
X126194718Y-86023000D01*
X125805282Y-86023000D01*
X125423330Y-86098975D01*
X125063539Y-86248005D01*
X124739736Y-86464364D01*
X124464364Y-86739736D01*
X124248005Y-87063539D01*
X124098975Y-87423330D01*
X124023000Y-87805282D01*
X100681576Y-87805282D01*
X100675645Y-87745066D01*
X100605484Y-87513776D01*
X100491549Y-87300617D01*
X100338217Y-87113783D01*
X100151383Y-86960451D01*
X99938224Y-86846516D01*
X99706934Y-86776355D01*
X99526668Y-86758600D01*
X99406132Y-86758600D01*
X99225866Y-86776355D01*
X98994576Y-86846516D01*
X98781417Y-86960451D01*
X98594583Y-87113783D01*
X98441251Y-87300617D01*
X98436984Y-87308600D01*
X98155224Y-87308600D01*
X98155224Y-87135600D01*
X98147945Y-87061695D01*
X98126388Y-86990630D01*
X98091381Y-86925137D01*
X98044269Y-86867731D01*
X97986863Y-86820619D01*
X97921370Y-86785612D01*
X97850305Y-86764055D01*
X97776400Y-86756776D01*
X96654999Y-86756776D01*
X96495243Y-86597020D01*
X96685866Y-86654845D01*
X96866132Y-86672600D01*
X96986668Y-86672600D01*
X97166934Y-86654845D01*
X97398224Y-86584684D01*
X97611383Y-86470749D01*
X97798217Y-86317417D01*
X97951549Y-86130583D01*
X98065484Y-85917424D01*
X98135645Y-85686134D01*
X98159336Y-85445600D01*
X98233464Y-85445600D01*
X98257155Y-85686134D01*
X98327316Y-85917424D01*
X98441251Y-86130583D01*
X98594583Y-86317417D01*
X98781417Y-86470749D01*
X98994576Y-86584684D01*
X99225866Y-86654845D01*
X99406132Y-86672600D01*
X99526668Y-86672600D01*
X99706934Y-86654845D01*
X99938224Y-86584684D01*
X100151383Y-86470749D01*
X100338217Y-86317417D01*
X100491549Y-86130583D01*
X100605484Y-85917424D01*
X100675645Y-85686134D01*
X100699336Y-85445600D01*
X100675645Y-85205066D01*
X100605484Y-84973776D01*
X100491549Y-84760617D01*
X100338217Y-84573783D01*
X100151383Y-84420451D01*
X99938224Y-84306516D01*
X99706934Y-84236355D01*
X99526668Y-84218600D01*
X99406132Y-84218600D01*
X99225866Y-84236355D01*
X98994576Y-84306516D01*
X98781417Y-84420451D01*
X98594583Y-84573783D01*
X98441251Y-84760617D01*
X98327316Y-84973776D01*
X98257155Y-85205066D01*
X98233464Y-85445600D01*
X98159336Y-85445600D01*
X98135645Y-85205066D01*
X98065484Y-84973776D01*
X97951549Y-84760617D01*
X97798217Y-84573783D01*
X97611383Y-84420451D01*
X97398224Y-84306516D01*
X97166934Y-84236355D01*
X96986668Y-84218600D01*
X96866132Y-84218600D01*
X96685866Y-84236355D01*
X96454576Y-84306516D01*
X96241417Y-84420451D01*
X96054583Y-84573783D01*
X95901251Y-84760617D01*
X95825400Y-84902525D01*
X95825400Y-83448675D01*
X95901251Y-83590583D01*
X96054583Y-83777417D01*
X96241417Y-83930749D01*
X96454576Y-84044684D01*
X96685866Y-84114845D01*
X96866132Y-84132600D01*
X96986668Y-84132600D01*
X97166934Y-84114845D01*
X97398224Y-84044684D01*
X97611383Y-83930749D01*
X97798217Y-83777417D01*
X97951549Y-83590583D01*
X98065484Y-83377424D01*
X98135645Y-83146134D01*
X98159336Y-82905600D01*
X98135645Y-82665066D01*
X98065484Y-82433776D01*
X97951549Y-82220617D01*
X97798217Y-82033783D01*
X97611383Y-81880451D01*
X97398224Y-81766516D01*
X97384954Y-81762491D01*
X97551238Y-81703927D01*
X97800327Y-81556312D01*
X98015831Y-81362938D01*
X98189469Y-81131237D01*
X98196400Y-81116770D01*
X98203331Y-81131237D01*
X98376969Y-81362938D01*
X98592473Y-81556312D01*
X98841562Y-81703927D01*
X99007846Y-81762491D01*
X98994576Y-81766516D01*
X98781417Y-81880451D01*
X98594583Y-82033783D01*
X98441251Y-82220617D01*
X98327316Y-82433776D01*
X98257155Y-82665066D01*
X98233464Y-82905600D01*
X98257155Y-83146134D01*
X98327316Y-83377424D01*
X98441251Y-83590583D01*
X98594583Y-83777417D01*
X98781417Y-83930749D01*
X98994576Y-84044684D01*
X99225866Y-84114845D01*
X99406132Y-84132600D01*
X99526668Y-84132600D01*
X99706934Y-84114845D01*
X99938224Y-84044684D01*
X100151383Y-83930749D01*
X100338217Y-83777417D01*
X100491549Y-83590583D01*
X100605484Y-83377424D01*
X100675645Y-83146134D01*
X100699336Y-82905600D01*
X100675645Y-82665066D01*
X100605484Y-82433776D01*
X100491549Y-82220617D01*
X100338217Y-82033783D01*
X100151383Y-81880451D01*
X99938224Y-81766516D01*
X99924954Y-81762491D01*
X100091238Y-81703927D01*
X100340327Y-81556312D01*
X100555831Y-81362938D01*
X100729469Y-81131237D01*
X100854568Y-80870113D01*
X100900907Y-80717337D01*
X100780908Y-80488600D01*
X99589400Y-80488600D01*
X99589400Y-80508600D01*
X99343400Y-80508600D01*
X99343400Y-80488600D01*
X97049400Y-80488600D01*
X97049400Y-80508600D01*
X96803400Y-80508600D01*
X96803400Y-80488600D01*
X96783400Y-80488600D01*
X96783400Y-80242600D01*
X96803400Y-80242600D01*
X96803400Y-79050476D01*
X97049400Y-79050476D01*
X97049400Y-80242600D01*
X99343400Y-80242600D01*
X99343400Y-79050476D01*
X99589400Y-79050476D01*
X99589400Y-80242600D01*
X100780908Y-80242600D01*
X100900907Y-80013863D01*
X100854568Y-79861087D01*
X100729469Y-79599963D01*
X100555831Y-79368262D01*
X100340327Y-79174888D01*
X100091238Y-79027273D01*
X99932595Y-78971400D01*
X121996976Y-78971400D01*
X121996976Y-81471400D01*
X122004255Y-81545305D01*
X122025812Y-81616370D01*
X122060819Y-81681863D01*
X122107931Y-81739269D01*
X122165337Y-81786381D01*
X122230830Y-81821388D01*
X122301895Y-81842945D01*
X122375800Y-81850224D01*
X124875800Y-81850224D01*
X124949705Y-81842945D01*
X125020770Y-81821388D01*
X125086263Y-81786381D01*
X125143669Y-81739269D01*
X125190781Y-81681863D01*
X125225788Y-81616370D01*
X125247345Y-81545305D01*
X125254624Y-81471400D01*
X125254624Y-78971400D01*
X125247345Y-78897495D01*
X125225788Y-78826430D01*
X125190781Y-78760937D01*
X125143669Y-78703531D01*
X125086263Y-78656419D01*
X125020770Y-78621412D01*
X124949705Y-78599855D01*
X124875800Y-78592576D01*
X122375800Y-78592576D01*
X122301895Y-78599855D01*
X122230830Y-78621412D01*
X122165337Y-78656419D01*
X122107931Y-78703531D01*
X122060819Y-78760937D01*
X122025812Y-78826430D01*
X122004255Y-78897495D01*
X121996976Y-78971400D01*
X99932595Y-78971400D01*
X99818137Y-78931089D01*
X99589400Y-79050476D01*
X99343400Y-79050476D01*
X99114663Y-78931089D01*
X98841562Y-79027273D01*
X98592473Y-79174888D01*
X98376969Y-79368262D01*
X98203331Y-79599963D01*
X98196400Y-79614430D01*
X98189469Y-79599963D01*
X98015831Y-79368262D01*
X97800327Y-79174888D01*
X97551238Y-79027273D01*
X97278137Y-78931089D01*
X97049400Y-79050476D01*
X96803400Y-79050476D01*
X96574663Y-78931089D01*
X96301562Y-79027273D01*
X96052473Y-79174888D01*
X95836969Y-79368262D01*
X95825400Y-79383700D01*
X95825400Y-75061155D01*
X121998800Y-75061155D01*
X121998800Y-75381645D01*
X122061325Y-75695978D01*
X122183972Y-75992073D01*
X122362027Y-76258552D01*
X122588648Y-76485173D01*
X122855127Y-76663228D01*
X123151222Y-76785875D01*
X123465555Y-76848400D01*
X123786045Y-76848400D01*
X124100378Y-76785875D01*
X124396473Y-76663228D01*
X124662952Y-76485173D01*
X124889573Y-76258552D01*
X125067628Y-75992073D01*
X125190275Y-75695978D01*
X125252800Y-75381645D01*
X125252800Y-75061155D01*
X125190275Y-74746822D01*
X125067628Y-74450727D01*
X124889573Y-74184248D01*
X124662952Y-73957627D01*
X124396473Y-73779572D01*
X124100378Y-73656925D01*
X123786045Y-73594400D01*
X123465555Y-73594400D01*
X123151222Y-73656925D01*
X122855127Y-73779572D01*
X122588648Y-73957627D01*
X122362027Y-74184248D01*
X122183972Y-74450727D01*
X122061325Y-74746822D01*
X121998800Y-75061155D01*
X95825400Y-75061155D01*
X95825400Y-69571622D01*
X97793018Y-67604004D01*
X97813443Y-67599941D01*
X97954848Y-67541369D01*
X98082109Y-67456336D01*
X98190336Y-67348109D01*
X98275369Y-67220848D01*
X98333941Y-67079443D01*
X98363800Y-66929328D01*
X98363800Y-66776272D01*
X98333941Y-66626157D01*
X98275369Y-66484752D01*
X98190336Y-66357491D01*
X98082109Y-66249264D01*
X97954848Y-66164231D01*
X97813443Y-66105659D01*
X97663328Y-66075800D01*
X97510272Y-66075800D01*
X97360157Y-66105659D01*
X97218752Y-66164231D01*
X97091491Y-66249264D01*
X96983264Y-66357491D01*
X96898231Y-66484752D01*
X96839659Y-66626157D01*
X96835596Y-66646582D01*
X94693200Y-68788978D01*
X94667374Y-68810173D01*
X94646179Y-68835999D01*
X94646176Y-68836002D01*
X94582772Y-68913260D01*
X94519908Y-69030871D01*
X94481196Y-69158486D01*
X94468126Y-69291200D01*
X94471401Y-69324455D01*
X94471400Y-86174355D01*
X94468126Y-86207600D01*
X94471400Y-86240845D01*
X94471400Y-86240851D01*
X94472105Y-86248005D01*
X94481196Y-86340314D01*
X94519908Y-86467929D01*
X94582772Y-86585540D01*
X94643773Y-86659869D01*
X94667373Y-86688626D01*
X94693200Y-86709822D01*
X95291978Y-87308600D01*
X61926223Y-87308600D01*
X59325600Y-84707978D01*
X59325600Y-83892000D01*
X61653376Y-83892000D01*
X61653376Y-86392000D01*
X61660655Y-86465905D01*
X61682212Y-86536970D01*
X61717219Y-86602463D01*
X61764331Y-86659869D01*
X61821737Y-86706981D01*
X61887230Y-86741988D01*
X61958295Y-86763545D01*
X62032200Y-86770824D01*
X64532200Y-86770824D01*
X64606105Y-86763545D01*
X64677170Y-86741988D01*
X64742663Y-86706981D01*
X64800069Y-86659869D01*
X64847181Y-86602463D01*
X64882188Y-86536970D01*
X64903745Y-86465905D01*
X64911024Y-86392000D01*
X64911024Y-84981755D01*
X66655200Y-84981755D01*
X66655200Y-85302245D01*
X66717725Y-85616578D01*
X66840372Y-85912673D01*
X67018427Y-86179152D01*
X67245048Y-86405773D01*
X67511527Y-86583828D01*
X67807622Y-86706475D01*
X68121955Y-86769000D01*
X68442445Y-86769000D01*
X68756778Y-86706475D01*
X69052873Y-86583828D01*
X69319352Y-86405773D01*
X69545973Y-86179152D01*
X69724028Y-85912673D01*
X69846675Y-85616578D01*
X69909200Y-85302245D01*
X69909200Y-84981755D01*
X69846675Y-84667422D01*
X69724028Y-84371327D01*
X69545973Y-84104848D01*
X69333125Y-83892000D01*
X71653376Y-83892000D01*
X71653376Y-86392000D01*
X71660655Y-86465905D01*
X71682212Y-86536970D01*
X71717219Y-86602463D01*
X71764331Y-86659869D01*
X71821737Y-86706981D01*
X71887230Y-86741988D01*
X71958295Y-86763545D01*
X72032200Y-86770824D01*
X74532200Y-86770824D01*
X74606105Y-86763545D01*
X74677170Y-86741988D01*
X74742663Y-86706981D01*
X74800069Y-86659869D01*
X74847181Y-86602463D01*
X74882188Y-86536970D01*
X74903745Y-86465905D01*
X74911024Y-86392000D01*
X74911024Y-84981755D01*
X76655200Y-84981755D01*
X76655200Y-85302245D01*
X76717725Y-85616578D01*
X76840372Y-85912673D01*
X77018427Y-86179152D01*
X77245048Y-86405773D01*
X77511527Y-86583828D01*
X77807622Y-86706475D01*
X78121955Y-86769000D01*
X78442445Y-86769000D01*
X78756778Y-86706475D01*
X79052873Y-86583828D01*
X79319352Y-86405773D01*
X79333125Y-86392000D01*
X81402166Y-86392000D01*
X81414272Y-86514914D01*
X81450124Y-86633104D01*
X81508346Y-86742028D01*
X81586699Y-86837501D01*
X81682172Y-86915854D01*
X81791096Y-86974076D01*
X81909286Y-87009928D01*
X82032200Y-87022034D01*
X83002450Y-87019000D01*
X83159200Y-86862250D01*
X83159200Y-85265000D01*
X83405200Y-85265000D01*
X83405200Y-86862250D01*
X83561950Y-87019000D01*
X84532200Y-87022034D01*
X84655114Y-87009928D01*
X84773304Y-86974076D01*
X84882228Y-86915854D01*
X84977701Y-86837501D01*
X85056054Y-86742028D01*
X85114276Y-86633104D01*
X85150128Y-86514914D01*
X85156649Y-86448699D01*
X87149449Y-86448699D01*
X87275458Y-86736922D01*
X87605956Y-86902681D01*
X87962442Y-87000779D01*
X88331216Y-87027444D01*
X88698105Y-86981654D01*
X89049013Y-86865166D01*
X89288942Y-86736922D01*
X89414951Y-86448699D01*
X88282200Y-85315948D01*
X87149449Y-86448699D01*
X85156649Y-86448699D01*
X85162234Y-86392000D01*
X85159200Y-85421750D01*
X85002450Y-85265000D01*
X83405200Y-85265000D01*
X83159200Y-85265000D01*
X81561950Y-85265000D01*
X81405200Y-85421750D01*
X81402166Y-86392000D01*
X79333125Y-86392000D01*
X79545973Y-86179152D01*
X79724028Y-85912673D01*
X79846675Y-85616578D01*
X79909200Y-85302245D01*
X79909200Y-85191016D01*
X86396756Y-85191016D01*
X86442546Y-85557905D01*
X86559034Y-85908813D01*
X86687278Y-86148742D01*
X86975501Y-86274751D01*
X88108252Y-85142000D01*
X88456148Y-85142000D01*
X89588899Y-86274751D01*
X89877122Y-86148742D01*
X90042881Y-85818244D01*
X90140979Y-85461758D01*
X90167644Y-85092984D01*
X90121854Y-84726095D01*
X90005366Y-84375187D01*
X89877122Y-84135258D01*
X89588899Y-84009249D01*
X88456148Y-85142000D01*
X88108252Y-85142000D01*
X86975501Y-84009249D01*
X86687278Y-84135258D01*
X86521519Y-84465756D01*
X86423421Y-84822242D01*
X86396756Y-85191016D01*
X79909200Y-85191016D01*
X79909200Y-84981755D01*
X79846675Y-84667422D01*
X79724028Y-84371327D01*
X79545973Y-84104848D01*
X79333125Y-83892000D01*
X81402166Y-83892000D01*
X81405200Y-84862250D01*
X81561950Y-85019000D01*
X83159200Y-85019000D01*
X83159200Y-83421750D01*
X83405200Y-83421750D01*
X83405200Y-85019000D01*
X85002450Y-85019000D01*
X85159200Y-84862250D01*
X85162234Y-83892000D01*
X85156650Y-83835301D01*
X87149449Y-83835301D01*
X88282200Y-84968052D01*
X89414951Y-83835301D01*
X89288942Y-83547078D01*
X88958444Y-83381319D01*
X88601958Y-83283221D01*
X88233184Y-83256556D01*
X87866295Y-83302346D01*
X87515387Y-83418834D01*
X87275458Y-83547078D01*
X87149449Y-83835301D01*
X85156650Y-83835301D01*
X85150128Y-83769086D01*
X85114276Y-83650896D01*
X85056054Y-83541972D01*
X84977701Y-83446499D01*
X84882228Y-83368146D01*
X84773304Y-83309924D01*
X84655114Y-83274072D01*
X84532200Y-83261966D01*
X83561950Y-83265000D01*
X83405200Y-83421750D01*
X83159200Y-83421750D01*
X83002450Y-83265000D01*
X82032200Y-83261966D01*
X81909286Y-83274072D01*
X81791096Y-83309924D01*
X81682172Y-83368146D01*
X81586699Y-83446499D01*
X81508346Y-83541972D01*
X81450124Y-83650896D01*
X81414272Y-83769086D01*
X81402166Y-83892000D01*
X79333125Y-83892000D01*
X79319352Y-83878227D01*
X79052873Y-83700172D01*
X78756778Y-83577525D01*
X78442445Y-83515000D01*
X78121955Y-83515000D01*
X77807622Y-83577525D01*
X77511527Y-83700172D01*
X77245048Y-83878227D01*
X77018427Y-84104848D01*
X76840372Y-84371327D01*
X76717725Y-84667422D01*
X76655200Y-84981755D01*
X74911024Y-84981755D01*
X74911024Y-83892000D01*
X74903745Y-83818095D01*
X74882188Y-83747030D01*
X74847181Y-83681537D01*
X74800069Y-83624131D01*
X74742663Y-83577019D01*
X74677170Y-83542012D01*
X74606105Y-83520455D01*
X74532200Y-83513176D01*
X72032200Y-83513176D01*
X71958295Y-83520455D01*
X71887230Y-83542012D01*
X71821737Y-83577019D01*
X71764331Y-83624131D01*
X71717219Y-83681537D01*
X71682212Y-83747030D01*
X71660655Y-83818095D01*
X71653376Y-83892000D01*
X69333125Y-83892000D01*
X69319352Y-83878227D01*
X69052873Y-83700172D01*
X68756778Y-83577525D01*
X68442445Y-83515000D01*
X68121955Y-83515000D01*
X67807622Y-83577525D01*
X67511527Y-83700172D01*
X67245048Y-83878227D01*
X67018427Y-84104848D01*
X66840372Y-84371327D01*
X66717725Y-84667422D01*
X66655200Y-84981755D01*
X64911024Y-84981755D01*
X64911024Y-83892000D01*
X64903745Y-83818095D01*
X64882188Y-83747030D01*
X64847181Y-83681537D01*
X64800069Y-83624131D01*
X64742663Y-83577019D01*
X64677170Y-83542012D01*
X64606105Y-83520455D01*
X64532200Y-83513176D01*
X62032200Y-83513176D01*
X61958295Y-83520455D01*
X61887230Y-83542012D01*
X61821737Y-83577019D01*
X61764331Y-83624131D01*
X61717219Y-83681537D01*
X61682212Y-83747030D01*
X61660655Y-83818095D01*
X61653376Y-83892000D01*
X59325600Y-83892000D01*
X59325600Y-75504322D01*
X64002098Y-70827824D01*
X64416425Y-70827824D01*
X64489149Y-71051477D01*
X64632658Y-71325598D01*
X64826888Y-71566454D01*
X64954638Y-71673144D01*
X64926095Y-71675955D01*
X64855030Y-71697512D01*
X64789537Y-71732519D01*
X64732131Y-71779631D01*
X64685019Y-71837037D01*
X64650012Y-71902530D01*
X64628455Y-71973595D01*
X64621176Y-72047500D01*
X64621176Y-73952500D01*
X64628455Y-74026405D01*
X64650012Y-74097470D01*
X64685019Y-74162963D01*
X64732131Y-74220369D01*
X64789537Y-74267481D01*
X64855030Y-74302488D01*
X64926095Y-74324045D01*
X65000000Y-74331324D01*
X67000000Y-74331324D01*
X67073905Y-74324045D01*
X67144970Y-74302488D01*
X67210463Y-74267481D01*
X67267869Y-74220369D01*
X67314981Y-74162963D01*
X67349988Y-74097470D01*
X67371545Y-74026405D01*
X67378824Y-73952500D01*
X67378824Y-72047500D01*
X67371545Y-71973595D01*
X67349988Y-71902530D01*
X67314981Y-71837037D01*
X67267869Y-71779631D01*
X67210463Y-71732519D01*
X67144970Y-71697512D01*
X67073905Y-71675955D01*
X67045362Y-71673144D01*
X67173112Y-71566454D01*
X67367342Y-71325598D01*
X67510851Y-71051477D01*
X67583575Y-70827824D01*
X67464923Y-70583000D01*
X66123000Y-70583000D01*
X66123000Y-70603000D01*
X65877000Y-70603000D01*
X65877000Y-70583000D01*
X64535077Y-70583000D01*
X64416425Y-70827824D01*
X64002098Y-70827824D01*
X64521316Y-70308606D01*
X64535077Y-70337000D01*
X65877000Y-70337000D01*
X65877000Y-70317000D01*
X66123000Y-70317000D01*
X66123000Y-70337000D01*
X67464923Y-70337000D01*
X67583575Y-70092176D01*
X67510851Y-69868523D01*
X67367342Y-69594402D01*
X67173112Y-69353546D01*
X66935625Y-69155210D01*
X66748218Y-69052962D01*
X66789704Y-69030787D01*
X66992147Y-68864647D01*
X67158287Y-68662204D01*
X67281740Y-68431239D01*
X67357762Y-68180627D01*
X67383432Y-67920000D01*
X67357762Y-67659373D01*
X67281740Y-67408761D01*
X67158287Y-67177796D01*
X66992147Y-66975353D01*
X66789704Y-66809213D01*
X66558739Y-66685760D01*
X66308127Y-66609738D01*
X66112804Y-66590500D01*
X65887196Y-66590500D01*
X65691873Y-66609738D01*
X65441261Y-66685760D01*
X65210296Y-66809213D01*
X65007853Y-66975353D01*
X64841713Y-67177796D01*
X64718260Y-67408761D01*
X64642238Y-67659373D01*
X64616568Y-67920000D01*
X64642238Y-68180627D01*
X64663700Y-68251378D01*
X58193400Y-74721678D01*
X58167573Y-74742874D01*
X58082972Y-74845960D01*
X58020108Y-74963571D01*
X57981396Y-75091186D01*
X57971600Y-75190649D01*
X57971600Y-75190655D01*
X57968326Y-75223900D01*
X50402000Y-75223900D01*
X50402000Y-72839755D01*
X54373000Y-72839755D01*
X54373000Y-73160245D01*
X54435525Y-73474578D01*
X54558172Y-73770673D01*
X54736227Y-74037152D01*
X54962848Y-74263773D01*
X55229327Y-74441828D01*
X55525422Y-74564475D01*
X55839755Y-74627000D01*
X56160245Y-74627000D01*
X56474578Y-74564475D01*
X56770673Y-74441828D01*
X57037152Y-74263773D01*
X57263773Y-74037152D01*
X57441828Y-73770673D01*
X57564475Y-73474578D01*
X57627000Y-73160245D01*
X57627000Y-72839755D01*
X57564475Y-72525422D01*
X57441828Y-72229327D01*
X57263773Y-71962848D01*
X57037152Y-71736227D01*
X56770673Y-71558172D01*
X56474578Y-71435525D01*
X56160245Y-71373000D01*
X55839755Y-71373000D01*
X55525422Y-71435525D01*
X55229327Y-71558172D01*
X54962848Y-71736227D01*
X54736227Y-71962848D01*
X54558172Y-72229327D01*
X54435525Y-72525422D01*
X54373000Y-72839755D01*
X50402000Y-72839755D01*
X50402000Y-69250000D01*
X54119966Y-69250000D01*
X54132072Y-69372914D01*
X54167924Y-69491104D01*
X54226146Y-69600028D01*
X54304499Y-69695501D01*
X54399972Y-69773854D01*
X54508896Y-69832076D01*
X54627086Y-69867928D01*
X54750000Y-69880034D01*
X55720250Y-69877000D01*
X55877000Y-69720250D01*
X55877000Y-68123000D01*
X56123000Y-68123000D01*
X56123000Y-69720250D01*
X56279750Y-69877000D01*
X57250000Y-69880034D01*
X57372914Y-69867928D01*
X57491104Y-69832076D01*
X57600028Y-69773854D01*
X57695501Y-69695501D01*
X57773854Y-69600028D01*
X57832076Y-69491104D01*
X57867928Y-69372914D01*
X57880034Y-69250000D01*
X57877000Y-68279750D01*
X57720250Y-68123000D01*
X56123000Y-68123000D01*
X55877000Y-68123000D01*
X54279750Y-68123000D01*
X54123000Y-68279750D01*
X54119966Y-69250000D01*
X50402000Y-69250000D01*
X50402000Y-66750000D01*
X54119966Y-66750000D01*
X54123000Y-67720250D01*
X54279750Y-67877000D01*
X55877000Y-67877000D01*
X55877000Y-66279750D01*
X56123000Y-66279750D01*
X56123000Y-67877000D01*
X57720250Y-67877000D01*
X57877000Y-67720250D01*
X57880034Y-66750000D01*
X57867928Y-66627086D01*
X57832076Y-66508896D01*
X57773854Y-66399972D01*
X57695501Y-66304499D01*
X57600028Y-66226146D01*
X57491104Y-66167924D01*
X57372914Y-66132072D01*
X57250000Y-66119966D01*
X56279750Y-66123000D01*
X56123000Y-66279750D01*
X55877000Y-66279750D01*
X55720250Y-66123000D01*
X54750000Y-66119966D01*
X54627086Y-66132072D01*
X54508896Y-66167924D01*
X54399972Y-66226146D01*
X54304499Y-66304499D01*
X54226146Y-66399972D01*
X54167924Y-66508896D01*
X54132072Y-66627086D01*
X54119966Y-66750000D01*
X50402000Y-66750000D01*
X50402000Y-61273339D01*
X51708109Y-61273339D01*
X51803979Y-61535988D01*
X52091887Y-61676785D01*
X52401730Y-61758708D01*
X52721603Y-61778611D01*
X53039211Y-61735726D01*
X53342351Y-61631703D01*
X53521421Y-61535988D01*
X53617291Y-61273339D01*
X52662700Y-60318748D01*
X51708109Y-61273339D01*
X50402000Y-61273339D01*
X50402000Y-60203703D01*
X51028889Y-60203703D01*
X51071774Y-60521311D01*
X51175797Y-60824451D01*
X51271512Y-61003521D01*
X51534161Y-61099391D01*
X52488752Y-60144800D01*
X52836648Y-60144800D01*
X53791239Y-61099391D01*
X54053888Y-61003521D01*
X54194685Y-60715613D01*
X54276608Y-60405770D01*
X54296511Y-60085897D01*
X54286152Y-60009177D01*
X55785700Y-60009177D01*
X55785700Y-60280423D01*
X55838617Y-60546456D01*
X55942418Y-60797054D01*
X56093114Y-61022587D01*
X56284913Y-61214386D01*
X56510446Y-61365082D01*
X56761044Y-61468883D01*
X57027077Y-61521800D01*
X57298323Y-61521800D01*
X57564356Y-61468883D01*
X57814954Y-61365082D01*
X58040487Y-61214386D01*
X58232286Y-61022587D01*
X58382982Y-60797054D01*
X58486783Y-60546456D01*
X58539700Y-60280423D01*
X58539700Y-60009177D01*
X58486783Y-59743144D01*
X58382982Y-59492546D01*
X58232286Y-59267013D01*
X58040487Y-59075214D01*
X57814954Y-58924518D01*
X57564356Y-58820717D01*
X57298323Y-58767800D01*
X57027077Y-58767800D01*
X56761044Y-58820717D01*
X56510446Y-58924518D01*
X56284913Y-59075214D01*
X56093114Y-59267013D01*
X55942418Y-59492546D01*
X55838617Y-59743144D01*
X55785700Y-60009177D01*
X54286152Y-60009177D01*
X54253626Y-59768289D01*
X54149603Y-59465149D01*
X54053888Y-59286079D01*
X53791239Y-59190209D01*
X52836648Y-60144800D01*
X52488752Y-60144800D01*
X51534161Y-59190209D01*
X51271512Y-59286079D01*
X51130715Y-59573987D01*
X51048792Y-59883830D01*
X51028889Y-60203703D01*
X50402000Y-60203703D01*
X50402000Y-59016261D01*
X51708109Y-59016261D01*
X52662700Y-59970852D01*
X53617291Y-59016261D01*
X53521421Y-58753612D01*
X53233513Y-58612815D01*
X52923670Y-58530892D01*
X52603797Y-58510989D01*
X52286189Y-58553874D01*
X51983049Y-58657897D01*
X51803979Y-58753612D01*
X51708109Y-59016261D01*
X50402000Y-59016261D01*
X50402000Y-56339151D01*
X62943000Y-56339151D01*
X62943000Y-56580849D01*
X62990153Y-56817903D01*
X63082647Y-57041202D01*
X63216927Y-57242167D01*
X63387833Y-57413073D01*
X63588798Y-57547353D01*
X63812097Y-57639847D01*
X64049151Y-57687000D01*
X64290849Y-57687000D01*
X64414902Y-57662324D01*
X64604429Y-57851851D01*
X64527903Y-57820153D01*
X64290849Y-57773000D01*
X64049151Y-57773000D01*
X63812097Y-57820153D01*
X63588798Y-57912647D01*
X63387833Y-58046927D01*
X63216927Y-58217833D01*
X63082647Y-58418798D01*
X62990153Y-58642097D01*
X62943000Y-58879151D01*
X62943000Y-59120849D01*
X62990153Y-59357903D01*
X63082647Y-59581202D01*
X63216927Y-59782167D01*
X63387833Y-59953073D01*
X63588798Y-60087353D01*
X63812097Y-60179847D01*
X64049151Y-60227000D01*
X64290849Y-60227000D01*
X64527903Y-60179847D01*
X64751202Y-60087353D01*
X64952167Y-59953073D01*
X65123073Y-59782167D01*
X65257353Y-59581202D01*
X65349847Y-59357903D01*
X65397000Y-59120849D01*
X65397000Y-58879151D01*
X65349847Y-58642097D01*
X65318149Y-58565571D01*
X71027200Y-64274623D01*
X71027201Y-77341976D01*
X66494182Y-81874996D01*
X66473757Y-81879059D01*
X66332352Y-81937631D01*
X66205091Y-82022664D01*
X66096864Y-82130891D01*
X66011831Y-82258152D01*
X65953259Y-82399557D01*
X65923400Y-82549672D01*
X65923400Y-82702728D01*
X65953259Y-82852843D01*
X66011831Y-82994248D01*
X66096864Y-83121509D01*
X66205091Y-83229736D01*
X66332352Y-83314769D01*
X66473757Y-83373341D01*
X66623872Y-83403200D01*
X66776928Y-83403200D01*
X66927043Y-83373341D01*
X67068448Y-83314769D01*
X67195709Y-83229736D01*
X67303936Y-83121509D01*
X67388969Y-82994248D01*
X67447541Y-82852843D01*
X67451604Y-82832418D01*
X71767700Y-78516323D01*
X75931397Y-82680020D01*
X75935459Y-82700443D01*
X75994031Y-82841848D01*
X76079064Y-82969109D01*
X76187291Y-83077336D01*
X76314552Y-83162369D01*
X76455957Y-83220941D01*
X76606072Y-83250800D01*
X76759128Y-83250800D01*
X76909243Y-83220941D01*
X77050648Y-83162369D01*
X77177909Y-83077336D01*
X77286136Y-82969109D01*
X77371169Y-82841848D01*
X77429741Y-82700443D01*
X77459600Y-82550328D01*
X77459600Y-82397272D01*
X77429741Y-82247157D01*
X77371169Y-82105752D01*
X77286136Y-81978491D01*
X77177909Y-81870264D01*
X77050648Y-81785231D01*
X76909243Y-81726659D01*
X76888820Y-81722597D01*
X72381200Y-77214978D01*
X72381200Y-64671200D01*
X79990555Y-64671200D01*
X80023800Y-64674474D01*
X80057045Y-64671200D01*
X99329682Y-64671200D01*
X107383343Y-72724861D01*
X107422664Y-72783709D01*
X107530891Y-72891936D01*
X107658152Y-72976969D01*
X107799557Y-73035541D01*
X107949672Y-73065400D01*
X108102728Y-73065400D01*
X108252843Y-73035541D01*
X108394248Y-72976969D01*
X108521509Y-72891936D01*
X108629736Y-72783709D01*
X108714769Y-72656448D01*
X108773341Y-72515043D01*
X108777404Y-72494618D01*
X112302401Y-68969621D01*
X112328227Y-68948426D01*
X112412829Y-68845340D01*
X112475693Y-68727729D01*
X112479797Y-68714200D01*
X121983576Y-68714200D01*
X121983576Y-71214200D01*
X121990855Y-71288105D01*
X122012412Y-71359170D01*
X122047419Y-71424663D01*
X122094531Y-71482069D01*
X122151937Y-71529181D01*
X122217430Y-71564188D01*
X122288495Y-71585745D01*
X122362400Y-71593024D01*
X124862400Y-71593024D01*
X124936305Y-71585745D01*
X125007370Y-71564188D01*
X125072863Y-71529181D01*
X125130269Y-71482069D01*
X125177381Y-71424663D01*
X125212388Y-71359170D01*
X125233945Y-71288105D01*
X125241224Y-71214200D01*
X125241224Y-68714200D01*
X125233945Y-68640295D01*
X125212388Y-68569230D01*
X125177381Y-68503737D01*
X125130269Y-68446331D01*
X125072863Y-68399219D01*
X125007370Y-68364212D01*
X124936305Y-68342655D01*
X124862400Y-68335376D01*
X122362400Y-68335376D01*
X122288495Y-68342655D01*
X122217430Y-68364212D01*
X122151937Y-68399219D01*
X122094531Y-68446331D01*
X122047419Y-68503737D01*
X122012412Y-68569230D01*
X121990855Y-68640295D01*
X121983576Y-68714200D01*
X112479797Y-68714200D01*
X112514405Y-68600114D01*
X112524201Y-68500651D01*
X112524201Y-68500642D01*
X112527475Y-68467400D01*
X112524201Y-68434158D01*
X112524201Y-64803955D01*
X121985400Y-64803955D01*
X121985400Y-65124445D01*
X122047925Y-65438778D01*
X122170572Y-65734873D01*
X122348627Y-66001352D01*
X122575248Y-66227973D01*
X122841727Y-66406028D01*
X123137822Y-66528675D01*
X123452155Y-66591200D01*
X123772645Y-66591200D01*
X124086978Y-66528675D01*
X124383073Y-66406028D01*
X124649552Y-66227973D01*
X124876173Y-66001352D01*
X125054228Y-65734873D01*
X125176875Y-65438778D01*
X125239400Y-65124445D01*
X125239400Y-64803955D01*
X125176875Y-64489622D01*
X125054228Y-64193527D01*
X124876173Y-63927048D01*
X124649552Y-63700427D01*
X124383073Y-63522372D01*
X124086978Y-63399725D01*
X123772645Y-63337200D01*
X123452155Y-63337200D01*
X123137822Y-63399725D01*
X122841727Y-63522372D01*
X122575248Y-63700427D01*
X122348627Y-63927048D01*
X122170572Y-64193527D01*
X122047925Y-64489622D01*
X121985400Y-64803955D01*
X112524201Y-64803955D01*
X112524201Y-55289560D01*
X121924396Y-55289560D01*
X121924396Y-57789560D01*
X121931675Y-57863465D01*
X121953232Y-57934530D01*
X121988239Y-58000023D01*
X122035351Y-58057429D01*
X122092757Y-58104541D01*
X122158250Y-58139548D01*
X122229315Y-58161105D01*
X122303220Y-58168384D01*
X124803220Y-58168384D01*
X124877125Y-58161105D01*
X124948190Y-58139548D01*
X125013683Y-58104541D01*
X125071089Y-58057429D01*
X125118201Y-58000023D01*
X125153208Y-57934530D01*
X125174765Y-57863465D01*
X125182044Y-57789560D01*
X125182044Y-55289560D01*
X125174765Y-55215655D01*
X125153208Y-55144590D01*
X125118201Y-55079097D01*
X125071089Y-55021691D01*
X125013683Y-54974579D01*
X124948190Y-54939572D01*
X124877125Y-54918015D01*
X124803220Y-54910736D01*
X122303220Y-54910736D01*
X122229315Y-54918015D01*
X122158250Y-54939572D01*
X122092757Y-54974579D01*
X122035351Y-55021691D01*
X121988239Y-55079097D01*
X121953232Y-55144590D01*
X121931675Y-55215655D01*
X121924396Y-55289560D01*
X112524201Y-55289560D01*
X112524201Y-51379315D01*
X121926220Y-51379315D01*
X121926220Y-51699805D01*
X121988745Y-52014138D01*
X122111392Y-52310233D01*
X122289447Y-52576712D01*
X122516068Y-52803333D01*
X122782547Y-52981388D01*
X123078642Y-53104035D01*
X123392975Y-53166560D01*
X123713465Y-53166560D01*
X124027798Y-53104035D01*
X124323893Y-52981388D01*
X124590372Y-52803333D01*
X124816993Y-52576712D01*
X124995048Y-52310233D01*
X125117695Y-52014138D01*
X125180220Y-51699805D01*
X125180220Y-51379315D01*
X125117695Y-51064982D01*
X124995048Y-50768887D01*
X124816993Y-50502408D01*
X124590372Y-50275787D01*
X124323893Y-50097732D01*
X124027798Y-49975085D01*
X123713465Y-49912560D01*
X123392975Y-49912560D01*
X123078642Y-49975085D01*
X122782547Y-50097732D01*
X122516068Y-50275787D01*
X122289447Y-50502408D01*
X122111392Y-50768887D01*
X121988745Y-51064982D01*
X121926220Y-51379315D01*
X112524201Y-51379315D01*
X112524201Y-51047453D01*
X112527476Y-51014201D01*
X112514405Y-50881486D01*
X112475693Y-50753871D01*
X112412829Y-50636260D01*
X112349425Y-50559002D01*
X112349423Y-50559000D01*
X112328228Y-50533174D01*
X112302402Y-50511979D01*
X110657004Y-48866581D01*
X110652941Y-48846157D01*
X110594369Y-48704752D01*
X110509336Y-48577491D01*
X110401109Y-48469264D01*
X110273848Y-48384231D01*
X110132443Y-48325659D01*
X109982328Y-48295800D01*
X109829272Y-48295800D01*
X109679157Y-48325659D01*
X109537752Y-48384231D01*
X109410491Y-48469264D01*
X109302264Y-48577491D01*
X109217231Y-48704752D01*
X109158659Y-48846157D01*
X109128800Y-48996272D01*
X109128800Y-49149328D01*
X109158659Y-49299443D01*
X109217231Y-49440848D01*
X109302264Y-49568109D01*
X109410491Y-49676336D01*
X109537752Y-49761369D01*
X109679157Y-49819941D01*
X109699581Y-49824004D01*
X111170202Y-51294625D01*
X111170201Y-62904535D01*
X111023728Y-62875400D01*
X110880135Y-62875400D01*
X106089800Y-58085066D01*
X106089800Y-51523845D01*
X106191336Y-51422309D01*
X106276369Y-51295048D01*
X106334941Y-51153643D01*
X106364800Y-51003528D01*
X106364800Y-50850472D01*
X106334941Y-50700357D01*
X106276369Y-50558952D01*
X106191336Y-50431691D01*
X106083109Y-50323464D01*
X105955848Y-50238431D01*
X105814443Y-50179859D01*
X105664328Y-50150000D01*
X105511272Y-50150000D01*
X105361157Y-50179859D01*
X105219752Y-50238431D01*
X105092491Y-50323464D01*
X104984264Y-50431691D01*
X104899231Y-50558952D01*
X104840659Y-50700357D01*
X104810800Y-50850472D01*
X104810800Y-51003528D01*
X104840659Y-51153643D01*
X104899231Y-51295048D01*
X104984264Y-51422309D01*
X105085800Y-51523845D01*
X105085801Y-58065138D01*
X105085800Y-58065148D01*
X105085800Y-58268357D01*
X105083373Y-58293000D01*
X105085800Y-58317643D01*
X105085800Y-58317653D01*
X105093064Y-58391409D01*
X105121769Y-58486036D01*
X105158030Y-58553874D01*
X105168384Y-58573245D01*
X105215401Y-58630535D01*
X105215404Y-58630538D01*
X105231117Y-58649684D01*
X105250263Y-58665397D01*
X109183507Y-62598642D01*
X109042528Y-62570600D01*
X108898936Y-62570600D01*
X104540400Y-58212066D01*
X104540400Y-50634845D01*
X104641936Y-50533309D01*
X104726969Y-50406048D01*
X104785541Y-50264643D01*
X104815400Y-50114528D01*
X104815400Y-49961472D01*
X104785541Y-49811357D01*
X104726969Y-49669952D01*
X104641936Y-49542691D01*
X104533709Y-49434464D01*
X104406448Y-49349431D01*
X104265043Y-49290859D01*
X104114928Y-49261000D01*
X103961872Y-49261000D01*
X103811757Y-49290859D01*
X103670352Y-49349431D01*
X103543091Y-49434464D01*
X103473600Y-49503955D01*
X103473600Y-46520045D01*
X103575136Y-46418509D01*
X103660169Y-46291248D01*
X103718741Y-46149843D01*
X103748600Y-45999728D01*
X103748600Y-45846672D01*
X103718741Y-45696557D01*
X103660169Y-45555152D01*
X103575136Y-45427891D01*
X103466909Y-45319664D01*
X103339648Y-45234631D01*
X103222919Y-45186280D01*
X121924396Y-45186280D01*
X121924396Y-47686280D01*
X121931675Y-47760185D01*
X121953232Y-47831250D01*
X121988239Y-47896743D01*
X122035351Y-47954149D01*
X122092757Y-48001261D01*
X122158250Y-48036268D01*
X122229315Y-48057825D01*
X122303220Y-48065104D01*
X124803220Y-48065104D01*
X124877125Y-48057825D01*
X124948190Y-48036268D01*
X125013683Y-48001261D01*
X125071089Y-47954149D01*
X125118201Y-47896743D01*
X125153208Y-47831250D01*
X125174765Y-47760185D01*
X125182044Y-47686280D01*
X125182044Y-45186280D01*
X125174765Y-45112375D01*
X125153208Y-45041310D01*
X125118201Y-44975817D01*
X125071089Y-44918411D01*
X125013683Y-44871299D01*
X124948190Y-44836292D01*
X124877125Y-44814735D01*
X124803220Y-44807456D01*
X122303220Y-44807456D01*
X122229315Y-44814735D01*
X122158250Y-44836292D01*
X122092757Y-44871299D01*
X122035351Y-44918411D01*
X121988239Y-44975817D01*
X121953232Y-45041310D01*
X121931675Y-45112375D01*
X121924396Y-45186280D01*
X103222919Y-45186280D01*
X103198243Y-45176059D01*
X103048128Y-45146200D01*
X102895072Y-45146200D01*
X102744957Y-45176059D01*
X102603552Y-45234631D01*
X102476291Y-45319664D01*
X102368064Y-45427891D01*
X102283031Y-45555152D01*
X102224459Y-45696557D01*
X102194600Y-45846672D01*
X102194600Y-45999728D01*
X102224459Y-46149843D01*
X102283031Y-46291248D01*
X102368064Y-46418509D01*
X102469600Y-46520045D01*
X102469601Y-59131835D01*
X102467173Y-59156488D01*
X102476865Y-59254897D01*
X102505570Y-59349524D01*
X102552184Y-59436733D01*
X102599201Y-59494023D01*
X102599204Y-59494026D01*
X102614917Y-59513172D01*
X102634063Y-59528885D01*
X108189112Y-65083935D01*
X108189112Y-65227528D01*
X108218971Y-65377643D01*
X108277543Y-65519048D01*
X108362576Y-65646309D01*
X108470803Y-65754536D01*
X108598064Y-65839569D01*
X108739469Y-65898141D01*
X108889584Y-65928000D01*
X109042640Y-65928000D01*
X109192755Y-65898141D01*
X109334160Y-65839569D01*
X109461421Y-65754536D01*
X109569648Y-65646309D01*
X109654681Y-65519048D01*
X109713253Y-65377643D01*
X109743112Y-65227528D01*
X109743112Y-65074472D01*
X109713253Y-64924357D01*
X109654681Y-64782952D01*
X109569648Y-64655691D01*
X109461421Y-64547464D01*
X109334160Y-64462431D01*
X109192755Y-64403859D01*
X109042640Y-64374000D01*
X108899047Y-64374000D01*
X108487242Y-63962195D01*
X108597952Y-64036169D01*
X108739357Y-64094741D01*
X108889472Y-64124600D01*
X109042528Y-64124600D01*
X109192643Y-64094741D01*
X109334048Y-64036169D01*
X109461309Y-63951136D01*
X109569536Y-63842909D01*
X109654569Y-63715648D01*
X109713141Y-63574243D01*
X109743000Y-63424128D01*
X109743000Y-63271072D01*
X109714958Y-63130093D01*
X110170200Y-63585335D01*
X110170200Y-63728928D01*
X110200059Y-63879043D01*
X110258631Y-64020448D01*
X110343664Y-64147709D01*
X110451891Y-64255936D01*
X110579152Y-64340969D01*
X110720557Y-64399541D01*
X110870672Y-64429400D01*
X111023728Y-64429400D01*
X111170201Y-64400265D01*
X111170201Y-68186977D01*
X107965252Y-71391926D01*
X106493526Y-69920200D01*
X107835755Y-69920200D01*
X107937291Y-70021736D01*
X108064552Y-70106769D01*
X108205957Y-70165341D01*
X108356072Y-70195200D01*
X108509128Y-70195200D01*
X108659243Y-70165341D01*
X108800648Y-70106769D01*
X108927909Y-70021736D01*
X109036136Y-69913509D01*
X109121169Y-69786248D01*
X109179741Y-69644843D01*
X109209600Y-69494728D01*
X109209600Y-69341672D01*
X109179741Y-69191557D01*
X109121169Y-69050152D01*
X109036136Y-68922891D01*
X108927909Y-68814664D01*
X108800648Y-68729631D01*
X108659243Y-68671059D01*
X108509128Y-68641200D01*
X108356072Y-68641200D01*
X108205957Y-68671059D01*
X108064552Y-68729631D01*
X107937291Y-68814664D01*
X107835755Y-68916200D01*
X106125935Y-68916200D01*
X99325510Y-62115776D01*
X99464443Y-62088141D01*
X99605848Y-62029569D01*
X99733109Y-61944536D01*
X99841336Y-61836309D01*
X99926369Y-61709048D01*
X99984941Y-61567643D01*
X100014800Y-61417528D01*
X100014800Y-61264472D01*
X99984941Y-61114357D01*
X99926369Y-60972952D01*
X99864800Y-60880807D01*
X99864800Y-60096751D01*
X99882131Y-60117869D01*
X99939537Y-60164981D01*
X100005030Y-60199988D01*
X100076095Y-60221545D01*
X100150000Y-60228824D01*
X101850000Y-60228824D01*
X101923905Y-60221545D01*
X101994970Y-60199988D01*
X102060463Y-60164981D01*
X102117869Y-60117869D01*
X102164981Y-60060463D01*
X102199988Y-59994970D01*
X102221545Y-59923905D01*
X102228824Y-59850000D01*
X102228824Y-58150000D01*
X102221545Y-58076095D01*
X102199988Y-58005030D01*
X102164981Y-57939537D01*
X102117869Y-57882131D01*
X102060463Y-57835019D01*
X101994970Y-57800012D01*
X101923905Y-57778455D01*
X101850000Y-57771176D01*
X100150000Y-57771176D01*
X100076095Y-57778455D01*
X100005030Y-57800012D01*
X99939537Y-57835019D01*
X99882131Y-57882131D01*
X99864800Y-57903249D01*
X99864800Y-56925690D01*
X99912647Y-57041202D01*
X100046927Y-57242167D01*
X100217833Y-57413073D01*
X100418798Y-57547353D01*
X100642097Y-57639847D01*
X100879151Y-57687000D01*
X101120849Y-57687000D01*
X101357903Y-57639847D01*
X101581202Y-57547353D01*
X101782167Y-57413073D01*
X101953073Y-57242167D01*
X102087353Y-57041202D01*
X102179847Y-56817903D01*
X102227000Y-56580849D01*
X102227000Y-56339151D01*
X102179847Y-56102097D01*
X102087353Y-55878798D01*
X101953073Y-55677833D01*
X101782167Y-55506927D01*
X101581202Y-55372647D01*
X101357903Y-55280153D01*
X101120849Y-55233000D01*
X100879151Y-55233000D01*
X100642097Y-55280153D01*
X100444860Y-55361852D01*
X100696119Y-55110593D01*
X100879151Y-55147000D01*
X101120849Y-55147000D01*
X101357903Y-55099847D01*
X101581202Y-55007353D01*
X101782167Y-54873073D01*
X101953073Y-54702167D01*
X102087353Y-54501202D01*
X102179847Y-54277903D01*
X102227000Y-54040849D01*
X102227000Y-53799151D01*
X102179847Y-53562097D01*
X102087353Y-53338798D01*
X101953073Y-53137833D01*
X101782167Y-52966927D01*
X101581202Y-52832647D01*
X101357903Y-52740153D01*
X101120849Y-52693000D01*
X100879151Y-52693000D01*
X100642097Y-52740153D01*
X100418798Y-52832647D01*
X100217833Y-52966927D01*
X100046927Y-53137833D01*
X99912647Y-53338798D01*
X99820153Y-53562097D01*
X99773000Y-53799151D01*
X99773000Y-54040849D01*
X99809407Y-54223881D01*
X98816227Y-55217062D01*
X98792299Y-55236699D01*
X98713947Y-55332173D01*
X98655725Y-55441098D01*
X98619873Y-55559287D01*
X98619873Y-55559288D01*
X98607767Y-55682200D01*
X98610800Y-55712994D01*
X98610801Y-60880806D01*
X98549231Y-60972952D01*
X98490659Y-61114357D01*
X98463024Y-61253290D01*
X88637402Y-51427668D01*
X88621684Y-51408516D01*
X88545245Y-51345783D01*
X88458036Y-51299169D01*
X88363409Y-51270464D01*
X88289653Y-51263200D01*
X88289643Y-51263200D01*
X88265000Y-51260773D01*
X88240357Y-51263200D01*
X84086645Y-51263200D01*
X83985109Y-51161664D01*
X83857848Y-51076631D01*
X83716443Y-51018059D01*
X83566328Y-50988200D01*
X83413272Y-50988200D01*
X83263157Y-51018059D01*
X83121752Y-51076631D01*
X82994491Y-51161664D01*
X82886264Y-51269891D01*
X82801231Y-51397152D01*
X82742659Y-51538557D01*
X82712800Y-51688672D01*
X82712800Y-51841728D01*
X82742659Y-51991843D01*
X82801231Y-52133248D01*
X82886264Y-52260509D01*
X82994491Y-52368736D01*
X83121752Y-52453769D01*
X83263157Y-52512341D01*
X83413272Y-52542200D01*
X83566328Y-52542200D01*
X83716443Y-52512341D01*
X83857848Y-52453769D01*
X83985109Y-52368736D01*
X84086645Y-52267200D01*
X88057066Y-52267200D01*
X99107065Y-63317200D01*
X81658222Y-63317200D01*
X87755001Y-57220422D01*
X87780827Y-57199227D01*
X87802026Y-57173396D01*
X88572818Y-56402604D01*
X88593243Y-56398541D01*
X88734648Y-56339969D01*
X88861909Y-56254936D01*
X88970136Y-56146709D01*
X89055169Y-56019448D01*
X89113741Y-55878043D01*
X89143600Y-55727928D01*
X89143600Y-55574872D01*
X89113741Y-55424757D01*
X89055169Y-55283352D01*
X88970136Y-55156091D01*
X88861909Y-55047864D01*
X88734648Y-54962831D01*
X88593243Y-54904259D01*
X88443128Y-54874400D01*
X88290072Y-54874400D01*
X88139957Y-54904259D01*
X87998552Y-54962831D01*
X87871291Y-55047864D01*
X87763064Y-55156091D01*
X87678031Y-55283352D01*
X87619459Y-55424757D01*
X87615396Y-55445182D01*
X87019378Y-56041200D01*
X86313562Y-56041200D01*
X86296248Y-56029631D01*
X86154843Y-55971059D01*
X86004728Y-55941200D01*
X85851672Y-55941200D01*
X85701557Y-55971059D01*
X85560152Y-56029631D01*
X85432891Y-56114664D01*
X85324664Y-56222891D01*
X85239631Y-56350152D01*
X85181059Y-56491557D01*
X85151200Y-56641672D01*
X85151200Y-56794728D01*
X85181059Y-56944843D01*
X85239631Y-57086248D01*
X85324664Y-57213509D01*
X85432891Y-57321736D01*
X85560152Y-57406769D01*
X85626377Y-57434200D01*
X79743378Y-63317200D01*
X71984623Y-63317200D01*
X65372324Y-56704902D01*
X65397000Y-56580849D01*
X65397000Y-56339151D01*
X65349847Y-56102097D01*
X65257353Y-55878798D01*
X65123073Y-55677833D01*
X64952167Y-55506927D01*
X64751202Y-55372647D01*
X64527903Y-55280153D01*
X64290849Y-55233000D01*
X64049151Y-55233000D01*
X63812097Y-55280153D01*
X63588798Y-55372647D01*
X63387833Y-55506927D01*
X63216927Y-55677833D01*
X63082647Y-55878798D01*
X62990153Y-56102097D01*
X62943000Y-56339151D01*
X50402000Y-56339151D01*
X50402000Y-54773339D01*
X51708109Y-54773339D01*
X51803979Y-55035988D01*
X52091887Y-55176785D01*
X52401730Y-55258708D01*
X52721603Y-55278611D01*
X53039211Y-55235726D01*
X53342351Y-55131703D01*
X53521421Y-55035988D01*
X53617291Y-54773339D01*
X52662700Y-53818748D01*
X51708109Y-54773339D01*
X50402000Y-54773339D01*
X50402000Y-53703703D01*
X51028889Y-53703703D01*
X51071774Y-54021311D01*
X51175797Y-54324451D01*
X51271512Y-54503521D01*
X51534161Y-54599391D01*
X52488752Y-53644800D01*
X52836648Y-53644800D01*
X53791239Y-54599391D01*
X54053888Y-54503521D01*
X54194685Y-54215613D01*
X54276608Y-53905770D01*
X54296511Y-53585897D01*
X54286152Y-53509177D01*
X55785700Y-53509177D01*
X55785700Y-53780423D01*
X55838617Y-54046456D01*
X55942418Y-54297054D01*
X56093114Y-54522587D01*
X56284913Y-54714386D01*
X56510446Y-54865082D01*
X56761044Y-54968883D01*
X57027077Y-55021800D01*
X57298323Y-55021800D01*
X57564356Y-54968883D01*
X57814954Y-54865082D01*
X58040487Y-54714386D01*
X58232286Y-54522587D01*
X58382982Y-54297054D01*
X58486783Y-54046456D01*
X58535974Y-53799151D01*
X62943000Y-53799151D01*
X62943000Y-54040849D01*
X62990153Y-54277903D01*
X63082647Y-54501202D01*
X63216927Y-54702167D01*
X63387833Y-54873073D01*
X63588798Y-55007353D01*
X63812097Y-55099847D01*
X64049151Y-55147000D01*
X64290849Y-55147000D01*
X64527903Y-55099847D01*
X64751202Y-55007353D01*
X64952167Y-54873073D01*
X65123073Y-54702167D01*
X65257353Y-54501202D01*
X65349847Y-54277903D01*
X65397000Y-54040849D01*
X65397000Y-53799151D01*
X65349847Y-53562097D01*
X65257353Y-53338798D01*
X65123073Y-53137833D01*
X64952167Y-52966927D01*
X64751202Y-52832647D01*
X64527903Y-52740153D01*
X64290849Y-52693000D01*
X64049151Y-52693000D01*
X63812097Y-52740153D01*
X63588798Y-52832647D01*
X63387833Y-52966927D01*
X63216927Y-53137833D01*
X63082647Y-53338798D01*
X62990153Y-53562097D01*
X62943000Y-53799151D01*
X58535974Y-53799151D01*
X58539700Y-53780423D01*
X58539700Y-53509177D01*
X58486783Y-53243144D01*
X58382982Y-52992546D01*
X58232286Y-52767013D01*
X58040487Y-52575214D01*
X57814954Y-52424518D01*
X57564356Y-52320717D01*
X57298323Y-52267800D01*
X57027077Y-52267800D01*
X56761044Y-52320717D01*
X56510446Y-52424518D01*
X56284913Y-52575214D01*
X56093114Y-52767013D01*
X55942418Y-52992546D01*
X55838617Y-53243144D01*
X55785700Y-53509177D01*
X54286152Y-53509177D01*
X54253626Y-53268289D01*
X54149603Y-52965149D01*
X54053888Y-52786079D01*
X53791239Y-52690209D01*
X52836648Y-53644800D01*
X52488752Y-53644800D01*
X51534161Y-52690209D01*
X51271512Y-52786079D01*
X51130715Y-53073987D01*
X51048792Y-53383830D01*
X51028889Y-53703703D01*
X50402000Y-53703703D01*
X50402000Y-52516261D01*
X51708109Y-52516261D01*
X52662700Y-53470852D01*
X53617291Y-52516261D01*
X53521421Y-52253612D01*
X53233513Y-52112815D01*
X52923670Y-52030892D01*
X52603797Y-52010989D01*
X52286189Y-52053874D01*
X51983049Y-52157897D01*
X51803979Y-52253612D01*
X51708109Y-52516261D01*
X50402000Y-52516261D01*
X50402000Y-51259151D01*
X62943000Y-51259151D01*
X62943000Y-51500849D01*
X62990153Y-51737903D01*
X63082647Y-51961202D01*
X63216927Y-52162167D01*
X63387833Y-52333073D01*
X63588798Y-52467353D01*
X63812097Y-52559847D01*
X64049151Y-52607000D01*
X64290849Y-52607000D01*
X64527903Y-52559847D01*
X64751202Y-52467353D01*
X64952167Y-52333073D01*
X65123073Y-52162167D01*
X65257353Y-51961202D01*
X65349847Y-51737903D01*
X65397000Y-51500849D01*
X65397000Y-51259151D01*
X65349847Y-51022097D01*
X65257353Y-50798798D01*
X65123073Y-50597833D01*
X64952167Y-50426927D01*
X64751202Y-50292647D01*
X64527903Y-50200153D01*
X64290849Y-50153000D01*
X64049151Y-50153000D01*
X63812097Y-50200153D01*
X63588798Y-50292647D01*
X63387833Y-50426927D01*
X63216927Y-50597833D01*
X63082647Y-50798798D01*
X62990153Y-51022097D01*
X62943000Y-51259151D01*
X50402000Y-51259151D01*
X50402000Y-46750000D01*
X54371176Y-46750000D01*
X54371176Y-49250000D01*
X54378455Y-49323905D01*
X54400012Y-49394970D01*
X54435019Y-49460463D01*
X54482131Y-49517869D01*
X54539537Y-49564981D01*
X54605030Y-49599988D01*
X54676095Y-49621545D01*
X54750000Y-49628824D01*
X57250000Y-49628824D01*
X57323905Y-49621545D01*
X57394970Y-49599988D01*
X57460463Y-49564981D01*
X57517869Y-49517869D01*
X57564981Y-49460463D01*
X57599988Y-49394970D01*
X57621545Y-49323905D01*
X57628824Y-49250000D01*
X57628824Y-48719151D01*
X62943000Y-48719151D01*
X62943000Y-48960849D01*
X62990153Y-49197903D01*
X63082647Y-49421202D01*
X63216927Y-49622167D01*
X63387833Y-49793073D01*
X63588798Y-49927353D01*
X63812097Y-50019847D01*
X64049151Y-50067000D01*
X64290849Y-50067000D01*
X64527903Y-50019847D01*
X64751202Y-49927353D01*
X64952167Y-49793073D01*
X65123073Y-49622167D01*
X65257353Y-49421202D01*
X65349847Y-49197903D01*
X65397000Y-48960849D01*
X65397000Y-48719151D01*
X65349847Y-48482097D01*
X65257353Y-48258798D01*
X65123073Y-48057833D01*
X64952167Y-47886927D01*
X64751202Y-47752647D01*
X64527903Y-47660153D01*
X64290849Y-47613000D01*
X64049151Y-47613000D01*
X63812097Y-47660153D01*
X63588798Y-47752647D01*
X63387833Y-47886927D01*
X63216927Y-48057833D01*
X63082647Y-48258798D01*
X62990153Y-48482097D01*
X62943000Y-48719151D01*
X57628824Y-48719151D01*
X57628824Y-46750000D01*
X57621545Y-46676095D01*
X57599988Y-46605030D01*
X57564981Y-46539537D01*
X57517869Y-46482131D01*
X57460463Y-46435019D01*
X57394970Y-46400012D01*
X57323905Y-46378455D01*
X57250000Y-46371176D01*
X54750000Y-46371176D01*
X54676095Y-46378455D01*
X54605030Y-46400012D01*
X54539537Y-46435019D01*
X54482131Y-46482131D01*
X54435019Y-46539537D01*
X54400012Y-46605030D01*
X54378455Y-46676095D01*
X54371176Y-46750000D01*
X50402000Y-46750000D01*
X50402000Y-46179151D01*
X62943000Y-46179151D01*
X62943000Y-46420849D01*
X62990153Y-46657903D01*
X63082647Y-46881202D01*
X63216927Y-47082167D01*
X63387833Y-47253073D01*
X63588798Y-47387353D01*
X63812097Y-47479847D01*
X64049151Y-47527000D01*
X64290849Y-47527000D01*
X64527903Y-47479847D01*
X64751202Y-47387353D01*
X64952167Y-47253073D01*
X65123073Y-47082167D01*
X65257353Y-46881202D01*
X65349847Y-46657903D01*
X65397000Y-46420849D01*
X65397000Y-46179151D01*
X65349847Y-45942097D01*
X65257353Y-45718798D01*
X65123073Y-45517833D01*
X64952167Y-45346927D01*
X64751202Y-45212647D01*
X64527903Y-45120153D01*
X64290849Y-45073000D01*
X64049151Y-45073000D01*
X63812097Y-45120153D01*
X63588798Y-45212647D01*
X63387833Y-45346927D01*
X63216927Y-45517833D01*
X63082647Y-45718798D01*
X62990153Y-45942097D01*
X62943000Y-46179151D01*
X50402000Y-46179151D01*
X50402000Y-44306699D01*
X54867249Y-44306699D01*
X54993258Y-44594922D01*
X55323756Y-44760681D01*
X55680242Y-44858779D01*
X56049016Y-44885444D01*
X56415905Y-44839654D01*
X56766813Y-44723166D01*
X57006742Y-44594922D01*
X57132751Y-44306699D01*
X56000000Y-43173948D01*
X54867249Y-44306699D01*
X50402000Y-44306699D01*
X50402000Y-43049016D01*
X54114556Y-43049016D01*
X54160346Y-43415905D01*
X54276834Y-43766813D01*
X54405078Y-44006742D01*
X54693301Y-44132751D01*
X55826052Y-43000000D01*
X56173948Y-43000000D01*
X57306699Y-44132751D01*
X57594922Y-44006742D01*
X57760681Y-43676244D01*
X57770888Y-43639151D01*
X62943000Y-43639151D01*
X62943000Y-43880849D01*
X62990153Y-44117903D01*
X63082647Y-44341202D01*
X63216927Y-44542167D01*
X63387833Y-44713073D01*
X63588798Y-44847353D01*
X63812097Y-44939847D01*
X64049151Y-44987000D01*
X64290849Y-44987000D01*
X64527903Y-44939847D01*
X64751202Y-44847353D01*
X64952167Y-44713073D01*
X65123073Y-44542167D01*
X65257353Y-44341202D01*
X65349847Y-44117903D01*
X65397000Y-43880849D01*
X65397000Y-43639151D01*
X65349847Y-43402097D01*
X65257353Y-43178798D01*
X65123073Y-42977833D01*
X64952167Y-42806927D01*
X64751202Y-42672647D01*
X64631907Y-42623233D01*
X64797319Y-42565051D01*
X64939849Y-42488867D01*
X65017599Y-42241547D01*
X64170000Y-41393948D01*
X63322401Y-42241547D01*
X63400151Y-42488867D01*
X63662487Y-42614676D01*
X63703427Y-42625166D01*
X63588798Y-42672647D01*
X63387833Y-42806927D01*
X63216927Y-42977833D01*
X63082647Y-43178798D01*
X62990153Y-43402097D01*
X62943000Y-43639151D01*
X57770888Y-43639151D01*
X57858779Y-43319758D01*
X57885444Y-42950984D01*
X57839654Y-42584095D01*
X57723166Y-42233187D01*
X57594922Y-41993258D01*
X57306699Y-41867249D01*
X56173948Y-43000000D01*
X55826052Y-43000000D01*
X54693301Y-41867249D01*
X54405078Y-41993258D01*
X54239319Y-42323756D01*
X54141221Y-42680242D01*
X54114556Y-43049016D01*
X50402000Y-43049016D01*
X50402000Y-41693301D01*
X54867249Y-41693301D01*
X56000000Y-42826052D01*
X57132751Y-41693301D01*
X57006742Y-41405078D01*
X56767004Y-41284839D01*
X62687271Y-41284839D01*
X62728410Y-41572859D01*
X62824949Y-41847319D01*
X62901133Y-41989849D01*
X63148453Y-42067599D01*
X63996052Y-41220000D01*
X63148453Y-40372401D01*
X62901133Y-40450151D01*
X62775324Y-40712487D01*
X62703111Y-40994327D01*
X62687271Y-41284839D01*
X56767004Y-41284839D01*
X56676244Y-41239319D01*
X56319758Y-41141221D01*
X55950984Y-41114556D01*
X55584095Y-41160346D01*
X55233187Y-41276834D01*
X54993258Y-41405078D01*
X54867249Y-41693301D01*
X50402000Y-41693301D01*
X50402000Y-33805282D01*
X52023000Y-33805282D01*
X52023000Y-34194718D01*
X52098975Y-34576670D01*
X52248005Y-34936461D01*
X52464364Y-35260264D01*
X52739736Y-35535636D01*
X53063539Y-35751995D01*
X53423330Y-35901025D01*
X53805282Y-35977000D01*
X54194718Y-35977000D01*
X54576670Y-35901025D01*
X54936461Y-35751995D01*
X55260264Y-35535636D01*
X55535636Y-35260264D01*
X55751995Y-34936461D01*
X55901025Y-34576670D01*
X55977000Y-34194718D01*
X55977000Y-33805282D01*
X55901025Y-33423330D01*
X55751995Y-33063539D01*
X55535636Y-32739736D01*
X55260264Y-32464364D01*
X54936461Y-32248005D01*
X54699856Y-32150000D01*
X60620176Y-32150000D01*
X60620176Y-33850000D01*
X60627455Y-33923905D01*
X60649012Y-33994970D01*
X60684019Y-34060463D01*
X60731131Y-34117869D01*
X60788537Y-34164981D01*
X60854030Y-34199988D01*
X60925095Y-34221545D01*
X60999000Y-34228824D01*
X61347001Y-34228824D01*
X61347000Y-36652957D01*
X61344573Y-36677600D01*
X61347000Y-36702243D01*
X61347000Y-36702252D01*
X61354264Y-36776008D01*
X61382969Y-36870635D01*
X61429583Y-36957845D01*
X61492316Y-37034284D01*
X61511468Y-37050002D01*
X64204133Y-39742667D01*
X64105161Y-39737271D01*
X63817141Y-39778410D01*
X63542681Y-39874949D01*
X63400151Y-39951133D01*
X63322401Y-40198453D01*
X64170000Y-41046052D01*
X64184143Y-41031910D01*
X64358091Y-41205858D01*
X64343948Y-41220000D01*
X65191547Y-42067599D01*
X65438867Y-41989849D01*
X65564676Y-41727513D01*
X65636889Y-41445673D01*
X65650862Y-41189397D01*
X74686400Y-50224935D01*
X74686400Y-50368528D01*
X74716259Y-50518643D01*
X74774831Y-50660048D01*
X74859864Y-50787309D01*
X74968091Y-50895536D01*
X75095352Y-50980569D01*
X75236757Y-51039141D01*
X75386872Y-51069000D01*
X75539928Y-51069000D01*
X75690043Y-51039141D01*
X75831448Y-50980569D01*
X75958709Y-50895536D01*
X76066936Y-50787309D01*
X76151969Y-50660048D01*
X76210541Y-50518643D01*
X76240400Y-50368528D01*
X76240400Y-50215472D01*
X76210541Y-50065357D01*
X76151969Y-49923952D01*
X76066936Y-49796691D01*
X75958709Y-49688464D01*
X75831448Y-49603431D01*
X75690043Y-49544859D01*
X75539928Y-49515000D01*
X75396335Y-49515000D01*
X62351000Y-36469666D01*
X62351000Y-34228824D01*
X62699000Y-34228824D01*
X62772905Y-34221545D01*
X62843970Y-34199988D01*
X62909463Y-34164981D01*
X62966869Y-34117869D01*
X63013981Y-34060463D01*
X63048988Y-33994970D01*
X63070545Y-33923905D01*
X63077824Y-33850000D01*
X63077824Y-33000000D01*
X63156064Y-33000000D01*
X63179755Y-33240534D01*
X63249916Y-33471824D01*
X63363851Y-33684983D01*
X63517183Y-33871817D01*
X63704017Y-34025149D01*
X63917176Y-34139084D01*
X64148466Y-34209245D01*
X64328732Y-34227000D01*
X64449268Y-34227000D01*
X64629534Y-34209245D01*
X64828082Y-34149016D01*
X79276603Y-48597538D01*
X79292316Y-48616684D01*
X79368755Y-48679417D01*
X79455964Y-48726031D01*
X79550591Y-48754736D01*
X79624347Y-48762000D01*
X79624357Y-48762000D01*
X79649000Y-48764427D01*
X79673643Y-48762000D01*
X82588155Y-48762000D01*
X82689691Y-48863536D01*
X82816952Y-48948569D01*
X82958357Y-49007141D01*
X83108472Y-49037000D01*
X83261528Y-49037000D01*
X83411643Y-49007141D01*
X83553048Y-48948569D01*
X83680309Y-48863536D01*
X83788536Y-48755309D01*
X83873569Y-48628048D01*
X83931466Y-48488272D01*
X88173800Y-48488272D01*
X88173800Y-48641328D01*
X88203659Y-48791443D01*
X88262231Y-48932848D01*
X88347264Y-49060109D01*
X88455491Y-49168336D01*
X88582752Y-49253369D01*
X88724157Y-49311941D01*
X88744582Y-49316004D01*
X93438476Y-54009898D01*
X93461459Y-54125443D01*
X93520031Y-54266848D01*
X93605064Y-54394109D01*
X93713291Y-54502336D01*
X93840552Y-54587369D01*
X93981957Y-54645941D01*
X94132072Y-54675800D01*
X94285128Y-54675800D01*
X94435243Y-54645941D01*
X94576648Y-54587369D01*
X94703909Y-54502336D01*
X94812136Y-54394109D01*
X94897169Y-54266848D01*
X94955741Y-54125443D01*
X94985600Y-53975328D01*
X94985600Y-53822272D01*
X94955741Y-53672157D01*
X94897169Y-53530752D01*
X94812136Y-53403491D01*
X94703909Y-53295264D01*
X94576648Y-53210231D01*
X94537393Y-53193971D01*
X92602573Y-51259151D01*
X99773000Y-51259151D01*
X99773000Y-51500849D01*
X99820153Y-51737903D01*
X99912647Y-51961202D01*
X100046927Y-52162167D01*
X100217833Y-52333073D01*
X100418798Y-52467353D01*
X100642097Y-52559847D01*
X100879151Y-52607000D01*
X101120849Y-52607000D01*
X101357903Y-52559847D01*
X101581202Y-52467353D01*
X101782167Y-52333073D01*
X101953073Y-52162167D01*
X102087353Y-51961202D01*
X102179847Y-51737903D01*
X102227000Y-51500849D01*
X102227000Y-51259151D01*
X102179847Y-51022097D01*
X102087353Y-50798798D01*
X101953073Y-50597833D01*
X101782167Y-50426927D01*
X101581202Y-50292647D01*
X101357903Y-50200153D01*
X101120849Y-50153000D01*
X100879151Y-50153000D01*
X100642097Y-50200153D01*
X100418798Y-50292647D01*
X100217833Y-50426927D01*
X100046927Y-50597833D01*
X99912647Y-50798798D01*
X99820153Y-51022097D01*
X99773000Y-51259151D01*
X92602573Y-51259151D01*
X90062573Y-48719151D01*
X99773000Y-48719151D01*
X99773000Y-48960849D01*
X99820153Y-49197903D01*
X99912647Y-49421202D01*
X100046927Y-49622167D01*
X100217833Y-49793073D01*
X100418798Y-49927353D01*
X100642097Y-50019847D01*
X100879151Y-50067000D01*
X101120849Y-50067000D01*
X101357903Y-50019847D01*
X101581202Y-49927353D01*
X101782167Y-49793073D01*
X101953073Y-49622167D01*
X102087353Y-49421202D01*
X102179847Y-49197903D01*
X102227000Y-48960849D01*
X102227000Y-48719151D01*
X102179847Y-48482097D01*
X102087353Y-48258798D01*
X101953073Y-48057833D01*
X101782167Y-47886927D01*
X101581202Y-47752647D01*
X101357903Y-47660153D01*
X101120849Y-47613000D01*
X100879151Y-47613000D01*
X100642097Y-47660153D01*
X100418798Y-47752647D01*
X100217833Y-47886927D01*
X100046927Y-48057833D01*
X99912647Y-48258798D01*
X99820153Y-48482097D01*
X99773000Y-48719151D01*
X90062573Y-48719151D01*
X89702004Y-48358582D01*
X89697941Y-48338157D01*
X89639369Y-48196752D01*
X89554336Y-48069491D01*
X89446109Y-47961264D01*
X89318848Y-47876231D01*
X89177443Y-47817659D01*
X89027328Y-47787800D01*
X88874272Y-47787800D01*
X88724157Y-47817659D01*
X88582752Y-47876231D01*
X88455491Y-47961264D01*
X88347264Y-48069491D01*
X88262231Y-48196752D01*
X88203659Y-48338157D01*
X88173800Y-48488272D01*
X83931466Y-48488272D01*
X83932141Y-48486643D01*
X83962000Y-48336528D01*
X83962000Y-48183472D01*
X83932141Y-48033357D01*
X83873569Y-47891952D01*
X83788536Y-47764691D01*
X83680309Y-47656464D01*
X83553048Y-47571431D01*
X83411643Y-47512859D01*
X83261528Y-47483000D01*
X83108472Y-47483000D01*
X82958357Y-47512859D01*
X82816952Y-47571431D01*
X82689691Y-47656464D01*
X82588155Y-47758000D01*
X79856935Y-47758000D01*
X78278086Y-46179151D01*
X99773000Y-46179151D01*
X99773000Y-46420849D01*
X99820153Y-46657903D01*
X99912647Y-46881202D01*
X100046927Y-47082167D01*
X100217833Y-47253073D01*
X100418798Y-47387353D01*
X100642097Y-47479847D01*
X100879151Y-47527000D01*
X101120849Y-47527000D01*
X101357903Y-47479847D01*
X101581202Y-47387353D01*
X101782167Y-47253073D01*
X101953073Y-47082167D01*
X102087353Y-46881202D01*
X102179847Y-46657903D01*
X102227000Y-46420849D01*
X102227000Y-46179151D01*
X102179847Y-45942097D01*
X102087353Y-45718798D01*
X101953073Y-45517833D01*
X101782167Y-45346927D01*
X101581202Y-45212647D01*
X101357903Y-45120153D01*
X101120849Y-45073000D01*
X100879151Y-45073000D01*
X100642097Y-45120153D01*
X100418798Y-45212647D01*
X100217833Y-45346927D01*
X100046927Y-45517833D01*
X99912647Y-45718798D01*
X99820153Y-45942097D01*
X99773000Y-46179151D01*
X78278086Y-46179151D01*
X65538016Y-33439082D01*
X65598245Y-33240534D01*
X65621936Y-33000000D01*
X65696064Y-33000000D01*
X65719755Y-33240534D01*
X65789916Y-33471824D01*
X65903851Y-33684983D01*
X66057183Y-33871817D01*
X66244017Y-34025149D01*
X66457176Y-34139084D01*
X66688466Y-34209245D01*
X66868732Y-34227000D01*
X66989268Y-34227000D01*
X67169534Y-34209245D01*
X67368082Y-34149016D01*
X67731604Y-34512539D01*
X67747317Y-34531685D01*
X67823756Y-34594418D01*
X67910965Y-34641032D01*
X68005592Y-34669737D01*
X68079348Y-34677001D01*
X68079357Y-34677001D01*
X68104000Y-34679428D01*
X68128643Y-34677001D01*
X74124467Y-34677001D01*
X82966800Y-43519335D01*
X82966800Y-43662928D01*
X82996659Y-43813043D01*
X83055231Y-43954448D01*
X83140264Y-44081709D01*
X83248491Y-44189936D01*
X83375752Y-44274969D01*
X83517157Y-44333541D01*
X83667272Y-44363400D01*
X83820328Y-44363400D01*
X83970443Y-44333541D01*
X84111848Y-44274969D01*
X84239109Y-44189936D01*
X84347336Y-44081709D01*
X84432369Y-43954448D01*
X84490941Y-43813043D01*
X84520800Y-43662928D01*
X84520800Y-43639151D01*
X99773000Y-43639151D01*
X99773000Y-43880849D01*
X99820153Y-44117903D01*
X99912647Y-44341202D01*
X100046927Y-44542167D01*
X100217833Y-44713073D01*
X100418798Y-44847353D01*
X100642097Y-44939847D01*
X100879151Y-44987000D01*
X101120849Y-44987000D01*
X101357903Y-44939847D01*
X101581202Y-44847353D01*
X101782167Y-44713073D01*
X101953073Y-44542167D01*
X102087353Y-44341202D01*
X102179847Y-44117903D01*
X102227000Y-43880849D01*
X102227000Y-43639151D01*
X102179847Y-43402097D01*
X102087353Y-43178798D01*
X101953073Y-42977833D01*
X101782167Y-42806927D01*
X101581202Y-42672647D01*
X101357903Y-42580153D01*
X101120849Y-42533000D01*
X100879151Y-42533000D01*
X100642097Y-42580153D01*
X100418798Y-42672647D01*
X100217833Y-42806927D01*
X100046927Y-42977833D01*
X99912647Y-43178798D01*
X99820153Y-43402097D01*
X99773000Y-43639151D01*
X84520800Y-43639151D01*
X84520800Y-43509872D01*
X84490941Y-43359757D01*
X84432369Y-43218352D01*
X84347336Y-43091091D01*
X84239109Y-42982864D01*
X84111848Y-42897831D01*
X83970443Y-42839259D01*
X83820328Y-42809400D01*
X83676735Y-42809400D01*
X81966486Y-41099151D01*
X99773000Y-41099151D01*
X99773000Y-41340849D01*
X99820153Y-41577903D01*
X99912647Y-41801202D01*
X100046927Y-42002167D01*
X100217833Y-42173073D01*
X100418798Y-42307353D01*
X100642097Y-42399847D01*
X100879151Y-42447000D01*
X101120849Y-42447000D01*
X101357903Y-42399847D01*
X101581202Y-42307353D01*
X101782167Y-42173073D01*
X101953073Y-42002167D01*
X102087353Y-41801202D01*
X102179847Y-41577903D01*
X102227000Y-41340849D01*
X102227000Y-41276035D01*
X121926220Y-41276035D01*
X121926220Y-41596525D01*
X121988745Y-41910858D01*
X122111392Y-42206953D01*
X122289447Y-42473432D01*
X122516068Y-42700053D01*
X122782547Y-42878108D01*
X123078642Y-43000755D01*
X123392975Y-43063280D01*
X123713465Y-43063280D01*
X124027798Y-43000755D01*
X124323893Y-42878108D01*
X124590372Y-42700053D01*
X124816993Y-42473432D01*
X124995048Y-42206953D01*
X125117695Y-41910858D01*
X125180220Y-41596525D01*
X125180220Y-41276035D01*
X125117695Y-40961702D01*
X124995048Y-40665607D01*
X124816993Y-40399128D01*
X124590372Y-40172507D01*
X124323893Y-39994452D01*
X124027798Y-39871805D01*
X123713465Y-39809280D01*
X123392975Y-39809280D01*
X123078642Y-39871805D01*
X122782547Y-39994452D01*
X122516068Y-40172507D01*
X122289447Y-40399128D01*
X122111392Y-40665607D01*
X121988745Y-40961702D01*
X121926220Y-41276035D01*
X102227000Y-41276035D01*
X102227000Y-41099151D01*
X102179847Y-40862097D01*
X102087353Y-40638798D01*
X101953073Y-40437833D01*
X101782167Y-40266927D01*
X101581202Y-40132647D01*
X101357903Y-40040153D01*
X101120849Y-39993000D01*
X100879151Y-39993000D01*
X100642097Y-40040153D01*
X100418798Y-40132647D01*
X100217833Y-40266927D01*
X100046927Y-40437833D01*
X99912647Y-40638798D01*
X99820153Y-40862097D01*
X99773000Y-41099151D01*
X81966486Y-41099151D01*
X74704803Y-33837469D01*
X74689085Y-33818317D01*
X74612646Y-33755584D01*
X74525437Y-33708970D01*
X74430810Y-33680265D01*
X74357054Y-33673001D01*
X74357044Y-33673001D01*
X74332401Y-33670574D01*
X74307758Y-33673001D01*
X70778785Y-33673001D01*
X70807327Y-33624838D01*
X70903511Y-33351737D01*
X70784124Y-33123000D01*
X69592000Y-33123000D01*
X69592000Y-33143000D01*
X69346000Y-33143000D01*
X69346000Y-33123000D01*
X69326000Y-33123000D01*
X69326000Y-32877000D01*
X69346000Y-32877000D01*
X69346000Y-31685492D01*
X69592000Y-31685492D01*
X69592000Y-32877000D01*
X70784124Y-32877000D01*
X70903511Y-32648263D01*
X70807327Y-32375162D01*
X70673892Y-32150000D01*
X75908936Y-32150000D01*
X75908936Y-33850000D01*
X75916215Y-33923905D01*
X75937772Y-33994970D01*
X75972779Y-34060463D01*
X76019891Y-34117869D01*
X76077297Y-34164981D01*
X76142790Y-34199988D01*
X76213855Y-34221545D01*
X76287760Y-34228824D01*
X77987760Y-34228824D01*
X78061665Y-34221545D01*
X78132730Y-34199988D01*
X78198223Y-34164981D01*
X78255629Y-34117869D01*
X78302741Y-34060463D01*
X78337748Y-33994970D01*
X78359305Y-33923905D01*
X78366584Y-33850000D01*
X78366584Y-33000000D01*
X78444824Y-33000000D01*
X78468515Y-33240534D01*
X78538676Y-33471824D01*
X78652611Y-33684983D01*
X78805943Y-33871817D01*
X78992777Y-34025149D01*
X79205936Y-34139084D01*
X79437226Y-34209245D01*
X79617492Y-34227000D01*
X79738028Y-34227000D01*
X79918294Y-34209245D01*
X80149584Y-34139084D01*
X80362743Y-34025149D01*
X80549577Y-33871817D01*
X80702909Y-33684983D01*
X80816844Y-33471824D01*
X80887005Y-33240534D01*
X80910696Y-33000000D01*
X80984824Y-33000000D01*
X81008515Y-33240534D01*
X81078676Y-33471824D01*
X81192611Y-33684983D01*
X81345943Y-33871817D01*
X81532777Y-34025149D01*
X81745936Y-34139084D01*
X81977226Y-34209245D01*
X82157492Y-34227000D01*
X82278028Y-34227000D01*
X82458294Y-34209245D01*
X82689584Y-34139084D01*
X82902743Y-34025149D01*
X83089577Y-33871817D01*
X83242909Y-33684983D01*
X83356844Y-33471824D01*
X83427005Y-33240534D01*
X83450696Y-33000000D01*
X83524824Y-33000000D01*
X83548515Y-33240534D01*
X83618676Y-33471824D01*
X83732611Y-33684983D01*
X83885943Y-33871817D01*
X84072777Y-34025149D01*
X84285936Y-34139084D01*
X84517226Y-34209245D01*
X84697492Y-34227000D01*
X84818028Y-34227000D01*
X84998294Y-34209245D01*
X85229584Y-34139084D01*
X85442743Y-34025149D01*
X85629577Y-33871817D01*
X85782909Y-33684983D01*
X85896844Y-33471824D01*
X85967005Y-33240534D01*
X85990696Y-33000000D01*
X86064824Y-33000000D01*
X86088515Y-33240534D01*
X86158676Y-33471824D01*
X86272611Y-33684983D01*
X86425943Y-33871817D01*
X86612777Y-34025149D01*
X86825936Y-34139084D01*
X87057226Y-34209245D01*
X87237492Y-34227000D01*
X87358028Y-34227000D01*
X87538294Y-34209245D01*
X87769584Y-34139084D01*
X87982743Y-34025149D01*
X88169577Y-33871817D01*
X88322909Y-33684983D01*
X88436844Y-33471824D01*
X88507005Y-33240534D01*
X88530696Y-33000000D01*
X88604824Y-33000000D01*
X88628515Y-33240534D01*
X88698676Y-33471824D01*
X88812611Y-33684983D01*
X88965943Y-33871817D01*
X89152777Y-34025149D01*
X89365936Y-34139084D01*
X89597226Y-34209245D01*
X89777492Y-34227000D01*
X89898028Y-34227000D01*
X90078294Y-34209245D01*
X90309584Y-34139084D01*
X90522743Y-34025149D01*
X90709577Y-33871817D01*
X90862909Y-33684983D01*
X90976844Y-33471824D01*
X91047005Y-33240534D01*
X91070696Y-33000000D01*
X91144824Y-33000000D01*
X91168515Y-33240534D01*
X91238676Y-33471824D01*
X91352611Y-33684983D01*
X91505943Y-33871817D01*
X91692777Y-34025149D01*
X91905936Y-34139084D01*
X92137226Y-34209245D01*
X92317492Y-34227000D01*
X92438028Y-34227000D01*
X92618294Y-34209245D01*
X92849584Y-34139084D01*
X93062743Y-34025149D01*
X93249577Y-33871817D01*
X93402909Y-33684983D01*
X93516844Y-33471824D01*
X93520869Y-33458554D01*
X93579433Y-33624838D01*
X93727048Y-33873927D01*
X93920422Y-34089431D01*
X94152123Y-34263069D01*
X94413247Y-34388168D01*
X94566023Y-34434507D01*
X94794760Y-34314508D01*
X94794760Y-33123000D01*
X95040760Y-33123000D01*
X95040760Y-34314508D01*
X95269497Y-34434507D01*
X95422273Y-34388168D01*
X95683397Y-34263069D01*
X95915098Y-34089431D01*
X96108472Y-33873927D01*
X96149152Y-33805282D01*
X124023000Y-33805282D01*
X124023000Y-34194718D01*
X124098975Y-34576670D01*
X124248005Y-34936461D01*
X124464364Y-35260264D01*
X124739736Y-35535636D01*
X125063539Y-35751995D01*
X125423330Y-35901025D01*
X125805282Y-35977000D01*
X126194718Y-35977000D01*
X126576670Y-35901025D01*
X126936461Y-35751995D01*
X127260264Y-35535636D01*
X127535636Y-35260264D01*
X127751995Y-34936461D01*
X127901025Y-34576670D01*
X127977000Y-34194718D01*
X127977000Y-33805282D01*
X127901025Y-33423330D01*
X127751995Y-33063539D01*
X127535636Y-32739736D01*
X127260264Y-32464364D01*
X126936461Y-32248005D01*
X126576670Y-32098975D01*
X126194718Y-32023000D01*
X125805282Y-32023000D01*
X125423330Y-32098975D01*
X125063539Y-32248005D01*
X124739736Y-32464364D01*
X124464364Y-32739736D01*
X124248005Y-33063539D01*
X124098975Y-33423330D01*
X124023000Y-33805282D01*
X96149152Y-33805282D01*
X96256087Y-33624838D01*
X96352271Y-33351737D01*
X96232884Y-33123000D01*
X95040760Y-33123000D01*
X94794760Y-33123000D01*
X94774760Y-33123000D01*
X94774760Y-32877000D01*
X94794760Y-32877000D01*
X94794760Y-31685492D01*
X95040760Y-31685492D01*
X95040760Y-32877000D01*
X96232884Y-32877000D01*
X96352271Y-32648263D01*
X96256087Y-32375162D01*
X96108472Y-32126073D01*
X95915098Y-31910569D01*
X95683397Y-31736931D01*
X95422273Y-31611832D01*
X95269497Y-31565493D01*
X95040760Y-31685492D01*
X94794760Y-31685492D01*
X94566023Y-31565493D01*
X94413247Y-31611832D01*
X94152123Y-31736931D01*
X93920422Y-31910569D01*
X93727048Y-32126073D01*
X93579433Y-32375162D01*
X93520869Y-32541446D01*
X93516844Y-32528176D01*
X93402909Y-32315017D01*
X93249577Y-32128183D01*
X93062743Y-31974851D01*
X92849584Y-31860916D01*
X92618294Y-31790755D01*
X92438028Y-31773000D01*
X92317492Y-31773000D01*
X92137226Y-31790755D01*
X91905936Y-31860916D01*
X91692777Y-31974851D01*
X91505943Y-32128183D01*
X91352611Y-32315017D01*
X91238676Y-32528176D01*
X91168515Y-32759466D01*
X91144824Y-33000000D01*
X91070696Y-33000000D01*
X91047005Y-32759466D01*
X90976844Y-32528176D01*
X90862909Y-32315017D01*
X90709577Y-32128183D01*
X90522743Y-31974851D01*
X90309584Y-31860916D01*
X90078294Y-31790755D01*
X89898028Y-31773000D01*
X89777492Y-31773000D01*
X89597226Y-31790755D01*
X89365936Y-31860916D01*
X89152777Y-31974851D01*
X88965943Y-32128183D01*
X88812611Y-32315017D01*
X88698676Y-32528176D01*
X88628515Y-32759466D01*
X88604824Y-33000000D01*
X88530696Y-33000000D01*
X88507005Y-32759466D01*
X88436844Y-32528176D01*
X88322909Y-32315017D01*
X88169577Y-32128183D01*
X87982743Y-31974851D01*
X87769584Y-31860916D01*
X87538294Y-31790755D01*
X87358028Y-31773000D01*
X87237492Y-31773000D01*
X87057226Y-31790755D01*
X86825936Y-31860916D01*
X86612777Y-31974851D01*
X86425943Y-32128183D01*
X86272611Y-32315017D01*
X86158676Y-32528176D01*
X86088515Y-32759466D01*
X86064824Y-33000000D01*
X85990696Y-33000000D01*
X85967005Y-32759466D01*
X85896844Y-32528176D01*
X85782909Y-32315017D01*
X85629577Y-32128183D01*
X85442743Y-31974851D01*
X85229584Y-31860916D01*
X84998294Y-31790755D01*
X84818028Y-31773000D01*
X84697492Y-31773000D01*
X84517226Y-31790755D01*
X84285936Y-31860916D01*
X84072777Y-31974851D01*
X83885943Y-32128183D01*
X83732611Y-32315017D01*
X83618676Y-32528176D01*
X83548515Y-32759466D01*
X83524824Y-33000000D01*
X83450696Y-33000000D01*
X83427005Y-32759466D01*
X83356844Y-32528176D01*
X83242909Y-32315017D01*
X83089577Y-32128183D01*
X82902743Y-31974851D01*
X82689584Y-31860916D01*
X82458294Y-31790755D01*
X82278028Y-31773000D01*
X82157492Y-31773000D01*
X81977226Y-31790755D01*
X81745936Y-31860916D01*
X81532777Y-31974851D01*
X81345943Y-32128183D01*
X81192611Y-32315017D01*
X81078676Y-32528176D01*
X81008515Y-32759466D01*
X80984824Y-33000000D01*
X80910696Y-33000000D01*
X80887005Y-32759466D01*
X80816844Y-32528176D01*
X80702909Y-32315017D01*
X80549577Y-32128183D01*
X80362743Y-31974851D01*
X80149584Y-31860916D01*
X79918294Y-31790755D01*
X79738028Y-31773000D01*
X79617492Y-31773000D01*
X79437226Y-31790755D01*
X79205936Y-31860916D01*
X78992777Y-31974851D01*
X78805943Y-32128183D01*
X78652611Y-32315017D01*
X78538676Y-32528176D01*
X78468515Y-32759466D01*
X78444824Y-33000000D01*
X78366584Y-33000000D01*
X78366584Y-32150000D01*
X78359305Y-32076095D01*
X78337748Y-32005030D01*
X78302741Y-31939537D01*
X78255629Y-31882131D01*
X78198223Y-31835019D01*
X78132730Y-31800012D01*
X78061665Y-31778455D01*
X77987760Y-31771176D01*
X76287760Y-31771176D01*
X76213855Y-31778455D01*
X76142790Y-31800012D01*
X76077297Y-31835019D01*
X76019891Y-31882131D01*
X75972779Y-31939537D01*
X75937772Y-32005030D01*
X75916215Y-32076095D01*
X75908936Y-32150000D01*
X70673892Y-32150000D01*
X70659712Y-32126073D01*
X70466338Y-31910569D01*
X70234637Y-31736931D01*
X69973513Y-31611832D01*
X69820737Y-31565493D01*
X69592000Y-31685492D01*
X69346000Y-31685492D01*
X69117263Y-31565493D01*
X68964487Y-31611832D01*
X68703363Y-31736931D01*
X68471662Y-31910569D01*
X68278288Y-32126073D01*
X68130673Y-32375162D01*
X68072109Y-32541446D01*
X68068084Y-32528176D01*
X67954149Y-32315017D01*
X67800817Y-32128183D01*
X67613983Y-31974851D01*
X67400824Y-31860916D01*
X67169534Y-31790755D01*
X66989268Y-31773000D01*
X66868732Y-31773000D01*
X66688466Y-31790755D01*
X66457176Y-31860916D01*
X66244017Y-31974851D01*
X66057183Y-32128183D01*
X65903851Y-32315017D01*
X65789916Y-32528176D01*
X65719755Y-32759466D01*
X65696064Y-33000000D01*
X65621936Y-33000000D01*
X65598245Y-32759466D01*
X65528084Y-32528176D01*
X65414149Y-32315017D01*
X65260817Y-32128183D01*
X65073983Y-31974851D01*
X64860824Y-31860916D01*
X64629534Y-31790755D01*
X64449268Y-31773000D01*
X64328732Y-31773000D01*
X64148466Y-31790755D01*
X63917176Y-31860916D01*
X63704017Y-31974851D01*
X63517183Y-32128183D01*
X63363851Y-32315017D01*
X63249916Y-32528176D01*
X63179755Y-32759466D01*
X63156064Y-33000000D01*
X63077824Y-33000000D01*
X63077824Y-32150000D01*
X63070545Y-32076095D01*
X63048988Y-32005030D01*
X63013981Y-31939537D01*
X62966869Y-31882131D01*
X62909463Y-31835019D01*
X62843970Y-31800012D01*
X62772905Y-31778455D01*
X62699000Y-31771176D01*
X60999000Y-31771176D01*
X60925095Y-31778455D01*
X60854030Y-31800012D01*
X60788537Y-31835019D01*
X60731131Y-31882131D01*
X60684019Y-31939537D01*
X60649012Y-32005030D01*
X60627455Y-32076095D01*
X60620176Y-32150000D01*
X54699856Y-32150000D01*
X54576670Y-32098975D01*
X54194718Y-32023000D01*
X53805282Y-32023000D01*
X53423330Y-32098975D01*
X53063539Y-32248005D01*
X52739736Y-32464364D01*
X52464364Y-32739736D01*
X52248005Y-33063539D01*
X52098975Y-33423330D01*
X52023000Y-33805282D01*
X50402000Y-33805282D01*
X50402000Y-30402000D01*
X129598000Y-30402000D01*
X129598001Y-91598000D01*
M02*
