G04 #@! TF.GenerationSoftware,KiCad,Pcbnew,5.1.2*
G04 #@! TF.CreationDate,2019-05-23T10:46:26+02:00*
G04 #@! TF.ProjectId,pcb,7063622e-6b69-4636-9164-5f7063625858,rev?*
G04 #@! TF.SameCoordinates,Original*
G04 #@! TF.FileFunction,Soldermask,Top*
G04 #@! TF.FilePolarity,Negative*
%FSLAX46Y46*%
G04 Gerber Fmt 4.6, Leading zero omitted, Abs format (unit mm)*
G04 Created by KiCad (PCBNEW 5.1.2) date 2019-05-23 10:46:26*
%MOMM*%
%LPD*%
G04 APERTURE LIST*
%ADD10C,0.100000*%
G04 APERTURE END LIST*
D10*
G36*
X147162999Y-82257737D02*
G01*
X147172608Y-82260652D01*
X147181472Y-82265390D01*
X147189237Y-82271763D01*
X147195610Y-82279528D01*
X147200348Y-82288392D01*
X147203263Y-82298001D01*
X147204852Y-82314140D01*
X147204852Y-83801860D01*
X147203263Y-83817999D01*
X147200348Y-83827608D01*
X147195610Y-83836472D01*
X147189237Y-83844237D01*
X147181472Y-83850610D01*
X147172608Y-83855348D01*
X147162999Y-83858263D01*
X147146860Y-83859852D01*
X146159140Y-83859852D01*
X146143001Y-83858263D01*
X146133392Y-83855348D01*
X146124528Y-83850610D01*
X146107630Y-83836742D01*
X146107541Y-83836653D01*
X146107429Y-83836577D01*
X146107243Y-83836425D01*
X146107229Y-83836443D01*
X146087214Y-83822967D01*
X146064608Y-83813511D01*
X146040592Y-83808646D01*
X146027903Y-83808000D01*
X145103000Y-83808000D01*
X145103000Y-82308000D01*
X146027911Y-82308000D01*
X146052297Y-82305598D01*
X146075746Y-82298485D01*
X146097357Y-82286934D01*
X146107310Y-82279544D01*
X146117165Y-82271439D01*
X146124484Y-82265419D01*
X146133339Y-82260674D01*
X146136377Y-82259749D01*
X146142915Y-82257758D01*
X146142918Y-82257758D01*
X146142950Y-82257748D01*
X146153000Y-82256753D01*
X146153065Y-82256753D01*
X146159175Y-82256148D01*
X147146860Y-82256148D01*
X147162999Y-82257737D01*
X147162999Y-82257737D01*
G37*
G36*
X143162999Y-82257737D02*
G01*
X143172608Y-82260652D01*
X143181472Y-82265390D01*
X143198370Y-82279258D01*
X143198459Y-82279347D01*
X143198571Y-82279423D01*
X143198757Y-82279575D01*
X143198771Y-82279557D01*
X143218786Y-82293033D01*
X143241392Y-82302489D01*
X143265408Y-82307354D01*
X143278097Y-82308000D01*
X144203000Y-82308000D01*
X144203000Y-83808000D01*
X143278089Y-83808000D01*
X143253703Y-83810402D01*
X143230254Y-83817515D01*
X143208643Y-83829066D01*
X143198690Y-83836456D01*
X143189275Y-83844199D01*
X143181516Y-83850581D01*
X143172661Y-83855326D01*
X143169623Y-83856251D01*
X143163085Y-83858242D01*
X143163082Y-83858242D01*
X143163050Y-83858252D01*
X143153000Y-83859247D01*
X143152935Y-83859247D01*
X143146825Y-83859852D01*
X142159140Y-83859852D01*
X142143001Y-83858263D01*
X142133392Y-83855348D01*
X142124528Y-83850610D01*
X142116763Y-83844237D01*
X142110390Y-83836472D01*
X142105652Y-83827608D01*
X142102737Y-83817999D01*
X142101148Y-83801860D01*
X142101148Y-82314140D01*
X142102737Y-82298001D01*
X142105652Y-82288392D01*
X142110390Y-82279528D01*
X142116763Y-82271763D01*
X142124528Y-82265390D01*
X142133392Y-82260652D01*
X142143001Y-82257737D01*
X142159140Y-82256148D01*
X143146860Y-82256148D01*
X143162999Y-82257737D01*
X143162999Y-82257737D01*
G37*
G36*
X152497549Y-81230616D02*
G01*
X152608734Y-81252732D01*
X152818203Y-81339497D01*
X153006720Y-81465460D01*
X153167040Y-81625780D01*
X153213648Y-81695534D01*
X153293004Y-81814299D01*
X153379768Y-82023767D01*
X153424000Y-82246135D01*
X153424000Y-82472865D01*
X153409653Y-82544991D01*
X153379768Y-82695234D01*
X153293003Y-82904703D01*
X153167040Y-83093220D01*
X153006720Y-83253540D01*
X152818203Y-83379503D01*
X152608734Y-83466268D01*
X152497549Y-83488384D01*
X152386365Y-83510500D01*
X152159635Y-83510500D01*
X152048451Y-83488384D01*
X151937266Y-83466268D01*
X151727797Y-83379503D01*
X151539280Y-83253540D01*
X151378960Y-83093220D01*
X151252997Y-82904703D01*
X151166232Y-82695234D01*
X151136347Y-82544991D01*
X151122000Y-82472865D01*
X151122000Y-82246135D01*
X151166232Y-82023767D01*
X151252996Y-81814299D01*
X151332352Y-81695534D01*
X151378960Y-81625780D01*
X151539280Y-81465460D01*
X151727797Y-81339497D01*
X151937266Y-81252732D01*
X152048451Y-81230616D01*
X152159635Y-81208500D01*
X152386365Y-81208500D01*
X152497549Y-81230616D01*
X152497549Y-81230616D01*
G37*
G36*
X138032443Y-81147519D02*
G01*
X138098627Y-81154037D01*
X138268466Y-81205557D01*
X138424991Y-81289222D01*
X138460729Y-81318552D01*
X138562186Y-81401814D01*
X138645448Y-81503271D01*
X138674778Y-81539009D01*
X138758443Y-81695534D01*
X138809963Y-81865373D01*
X138827359Y-82042000D01*
X138809963Y-82218627D01*
X138758443Y-82388466D01*
X138674778Y-82544991D01*
X138645448Y-82580729D01*
X138562186Y-82682186D01*
X138460729Y-82765448D01*
X138424991Y-82794778D01*
X138268466Y-82878443D01*
X138098627Y-82929963D01*
X138032443Y-82936481D01*
X137966260Y-82943000D01*
X137877740Y-82943000D01*
X137811557Y-82936481D01*
X137745373Y-82929963D01*
X137575534Y-82878443D01*
X137419009Y-82794778D01*
X137383271Y-82765448D01*
X137281814Y-82682186D01*
X137198552Y-82580729D01*
X137169222Y-82544991D01*
X137085557Y-82388466D01*
X137034037Y-82218627D01*
X137016641Y-82042000D01*
X137034037Y-81865373D01*
X137085557Y-81695534D01*
X137169222Y-81539009D01*
X137198552Y-81503271D01*
X137281814Y-81401814D01*
X137383271Y-81318552D01*
X137419009Y-81289222D01*
X137575534Y-81205557D01*
X137745373Y-81154037D01*
X137811557Y-81147519D01*
X137877740Y-81141000D01*
X137966260Y-81141000D01*
X138032443Y-81147519D01*
X138032443Y-81147519D01*
G37*
G36*
X136283000Y-82943000D02*
G01*
X134481000Y-82943000D01*
X134481000Y-81141000D01*
X136283000Y-81141000D01*
X136283000Y-82943000D01*
X136283000Y-82943000D01*
G37*
G36*
X95389000Y-82816000D02*
G01*
X93587000Y-82816000D01*
X93587000Y-81014000D01*
X95389000Y-81014000D01*
X95389000Y-82816000D01*
X95389000Y-82816000D01*
G37*
G36*
X102647000Y-80803000D02*
G01*
X100045000Y-80803000D01*
X100045000Y-78201000D01*
X102647000Y-78201000D01*
X102647000Y-80803000D01*
X102647000Y-80803000D01*
G37*
G36*
X106725487Y-78250996D02*
G01*
X106962253Y-78349068D01*
X106962255Y-78349069D01*
X107175339Y-78491447D01*
X107356553Y-78672661D01*
X107482942Y-78861815D01*
X107498932Y-78885747D01*
X107597004Y-79122513D01*
X107647000Y-79373861D01*
X107647000Y-79630139D01*
X107597004Y-79881487D01*
X107541624Y-80015185D01*
X107498931Y-80118255D01*
X107356553Y-80331339D01*
X107175339Y-80512553D01*
X106962255Y-80654931D01*
X106962254Y-80654932D01*
X106962253Y-80654932D01*
X106725487Y-80753004D01*
X106474139Y-80803000D01*
X106217861Y-80803000D01*
X105966513Y-80753004D01*
X105729747Y-80654932D01*
X105729746Y-80654932D01*
X105729745Y-80654931D01*
X105516661Y-80512553D01*
X105335447Y-80331339D01*
X105193069Y-80118255D01*
X105150376Y-80015185D01*
X105094996Y-79881487D01*
X105045000Y-79630139D01*
X105045000Y-79373861D01*
X105094996Y-79122513D01*
X105193068Y-78885747D01*
X105209059Y-78861815D01*
X105335447Y-78672661D01*
X105516661Y-78491447D01*
X105729745Y-78349069D01*
X105729747Y-78349068D01*
X105966513Y-78250996D01*
X106217861Y-78201000D01*
X106474139Y-78201000D01*
X106725487Y-78250996D01*
X106725487Y-78250996D01*
G37*
G36*
X113645200Y-80803000D02*
G01*
X111043200Y-80803000D01*
X111043200Y-78201000D01*
X113645200Y-78201000D01*
X113645200Y-80803000D01*
X113645200Y-80803000D01*
G37*
G36*
X128772687Y-78250996D02*
G01*
X129009453Y-78349068D01*
X129009455Y-78349069D01*
X129222539Y-78491447D01*
X129403753Y-78672661D01*
X129530142Y-78861815D01*
X129546132Y-78885747D01*
X129644204Y-79122513D01*
X129694200Y-79373861D01*
X129694200Y-79630139D01*
X129644204Y-79881487D01*
X129588824Y-80015185D01*
X129546131Y-80118255D01*
X129403753Y-80331339D01*
X129222539Y-80512553D01*
X129009455Y-80654931D01*
X129009454Y-80654932D01*
X129009453Y-80654932D01*
X128772687Y-80753004D01*
X128521339Y-80803000D01*
X128265061Y-80803000D01*
X128013713Y-80753004D01*
X127776947Y-80654932D01*
X127776946Y-80654932D01*
X127776945Y-80654931D01*
X127563861Y-80512553D01*
X127382647Y-80331339D01*
X127240269Y-80118255D01*
X127197576Y-80015185D01*
X127142196Y-79881487D01*
X127092200Y-79630139D01*
X127092200Y-79373861D01*
X127142196Y-79122513D01*
X127240268Y-78885747D01*
X127256259Y-78861815D01*
X127382647Y-78672661D01*
X127563861Y-78491447D01*
X127776945Y-78349069D01*
X127776947Y-78349068D01*
X128013713Y-78250996D01*
X128265061Y-78201000D01*
X128521339Y-78201000D01*
X128772687Y-78250996D01*
X128772687Y-78250996D01*
G37*
G36*
X117723687Y-78250996D02*
G01*
X117960453Y-78349068D01*
X117960455Y-78349069D01*
X118173539Y-78491447D01*
X118354753Y-78672661D01*
X118481142Y-78861815D01*
X118497132Y-78885747D01*
X118595204Y-79122513D01*
X118645200Y-79373861D01*
X118645200Y-79630139D01*
X118595204Y-79881487D01*
X118539824Y-80015185D01*
X118497131Y-80118255D01*
X118354753Y-80331339D01*
X118173539Y-80512553D01*
X117960455Y-80654931D01*
X117960454Y-80654932D01*
X117960453Y-80654932D01*
X117723687Y-80753004D01*
X117472339Y-80803000D01*
X117216061Y-80803000D01*
X116964713Y-80753004D01*
X116727947Y-80654932D01*
X116727946Y-80654932D01*
X116727945Y-80654931D01*
X116514861Y-80512553D01*
X116333647Y-80331339D01*
X116191269Y-80118255D01*
X116148576Y-80015185D01*
X116093196Y-79881487D01*
X116043200Y-79630139D01*
X116043200Y-79373861D01*
X116093196Y-79122513D01*
X116191268Y-78885747D01*
X116207259Y-78861815D01*
X116333647Y-78672661D01*
X116514861Y-78491447D01*
X116727945Y-78349069D01*
X116727947Y-78349068D01*
X116964713Y-78250996D01*
X117216061Y-78201000D01*
X117472339Y-78201000D01*
X117723687Y-78250996D01*
X117723687Y-78250996D01*
G37*
G36*
X124694200Y-80803000D02*
G01*
X122092200Y-80803000D01*
X122092200Y-78201000D01*
X124694200Y-78201000D01*
X124694200Y-80803000D01*
X124694200Y-80803000D01*
G37*
G36*
X138032442Y-78607518D02*
G01*
X138098627Y-78614037D01*
X138268466Y-78665557D01*
X138424991Y-78749222D01*
X138460729Y-78778552D01*
X138562186Y-78861814D01*
X138645448Y-78963271D01*
X138674778Y-78999009D01*
X138758443Y-79155534D01*
X138809963Y-79325373D01*
X138827359Y-79502000D01*
X138809963Y-79678627D01*
X138758443Y-79848466D01*
X138674778Y-80004991D01*
X138666411Y-80015186D01*
X138562186Y-80142186D01*
X138460729Y-80225448D01*
X138424991Y-80254778D01*
X138268466Y-80338443D01*
X138098627Y-80389963D01*
X138032442Y-80396482D01*
X137966260Y-80403000D01*
X137877740Y-80403000D01*
X137811558Y-80396482D01*
X137745373Y-80389963D01*
X137575534Y-80338443D01*
X137419009Y-80254778D01*
X137383271Y-80225448D01*
X137281814Y-80142186D01*
X137177589Y-80015186D01*
X137169222Y-80004991D01*
X137085557Y-79848466D01*
X137034037Y-79678627D01*
X137016641Y-79502000D01*
X137034037Y-79325373D01*
X137085557Y-79155534D01*
X137169222Y-78999009D01*
X137198552Y-78963271D01*
X137281814Y-78861814D01*
X137383271Y-78778552D01*
X137419009Y-78749222D01*
X137575534Y-78665557D01*
X137745373Y-78614037D01*
X137811558Y-78607518D01*
X137877740Y-78601000D01*
X137966260Y-78601000D01*
X138032442Y-78607518D01*
X138032442Y-78607518D01*
G37*
G36*
X135492442Y-78607518D02*
G01*
X135558627Y-78614037D01*
X135728466Y-78665557D01*
X135884991Y-78749222D01*
X135920729Y-78778552D01*
X136022186Y-78861814D01*
X136105448Y-78963271D01*
X136134778Y-78999009D01*
X136218443Y-79155534D01*
X136269963Y-79325373D01*
X136287359Y-79502000D01*
X136269963Y-79678627D01*
X136218443Y-79848466D01*
X136134778Y-80004991D01*
X136126411Y-80015186D01*
X136022186Y-80142186D01*
X135920729Y-80225448D01*
X135884991Y-80254778D01*
X135728466Y-80338443D01*
X135558627Y-80389963D01*
X135492442Y-80396482D01*
X135426260Y-80403000D01*
X135337740Y-80403000D01*
X135271558Y-80396482D01*
X135205373Y-80389963D01*
X135035534Y-80338443D01*
X134879009Y-80254778D01*
X134843271Y-80225448D01*
X134741814Y-80142186D01*
X134637589Y-80015186D01*
X134629222Y-80004991D01*
X134545557Y-79848466D01*
X134494037Y-79678627D01*
X134476641Y-79502000D01*
X134494037Y-79325373D01*
X134545557Y-79155534D01*
X134629222Y-78999009D01*
X134658552Y-78963271D01*
X134741814Y-78861814D01*
X134843271Y-78778552D01*
X134879009Y-78749222D01*
X135035534Y-78665557D01*
X135205373Y-78614037D01*
X135271558Y-78607518D01*
X135337740Y-78601000D01*
X135426260Y-78601000D01*
X135492442Y-78607518D01*
X135492442Y-78607518D01*
G37*
G36*
X94598442Y-78480518D02*
G01*
X94664627Y-78487037D01*
X94834466Y-78538557D01*
X94990991Y-78622222D01*
X95026729Y-78651552D01*
X95128186Y-78734814D01*
X95211448Y-78836271D01*
X95240778Y-78872009D01*
X95324443Y-79028534D01*
X95375963Y-79198373D01*
X95393359Y-79375000D01*
X95375963Y-79551627D01*
X95324443Y-79721466D01*
X95240778Y-79877991D01*
X95211448Y-79913729D01*
X95128186Y-80015186D01*
X95026729Y-80098448D01*
X94990991Y-80127778D01*
X94834466Y-80211443D01*
X94664627Y-80262963D01*
X94598442Y-80269482D01*
X94532260Y-80276000D01*
X94443740Y-80276000D01*
X94377558Y-80269482D01*
X94311373Y-80262963D01*
X94141534Y-80211443D01*
X93985009Y-80127778D01*
X93949271Y-80098448D01*
X93847814Y-80015186D01*
X93764552Y-79913729D01*
X93735222Y-79877991D01*
X93651557Y-79721466D01*
X93600037Y-79551627D01*
X93582641Y-79375000D01*
X93600037Y-79198373D01*
X93651557Y-79028534D01*
X93735222Y-78872009D01*
X93764552Y-78836271D01*
X93847814Y-78734814D01*
X93949271Y-78651552D01*
X93985009Y-78622222D01*
X94141534Y-78538557D01*
X94311373Y-78487037D01*
X94377558Y-78480518D01*
X94443740Y-78474000D01*
X94532260Y-78474000D01*
X94598442Y-78480518D01*
X94598442Y-78480518D01*
G37*
G36*
X135492443Y-76067519D02*
G01*
X135558627Y-76074037D01*
X135728466Y-76125557D01*
X135884991Y-76209222D01*
X135920729Y-76238552D01*
X136022186Y-76321814D01*
X136105448Y-76423271D01*
X136134778Y-76459009D01*
X136218443Y-76615534D01*
X136269963Y-76785373D01*
X136287359Y-76962000D01*
X136269963Y-77138627D01*
X136218443Y-77308466D01*
X136134778Y-77464991D01*
X136126411Y-77475186D01*
X136022186Y-77602186D01*
X135920729Y-77685448D01*
X135884991Y-77714778D01*
X135728466Y-77798443D01*
X135558627Y-77849963D01*
X135492443Y-77856481D01*
X135426260Y-77863000D01*
X135337740Y-77863000D01*
X135271557Y-77856481D01*
X135205373Y-77849963D01*
X135035534Y-77798443D01*
X134879009Y-77714778D01*
X134843271Y-77685448D01*
X134741814Y-77602186D01*
X134637589Y-77475186D01*
X134629222Y-77464991D01*
X134545557Y-77308466D01*
X134494037Y-77138627D01*
X134476641Y-76962000D01*
X134494037Y-76785373D01*
X134545557Y-76615534D01*
X134629222Y-76459009D01*
X134658552Y-76423271D01*
X134741814Y-76321814D01*
X134843271Y-76238552D01*
X134879009Y-76209222D01*
X135035534Y-76125557D01*
X135205373Y-76074037D01*
X135271557Y-76067519D01*
X135337740Y-76061000D01*
X135426260Y-76061000D01*
X135492443Y-76067519D01*
X135492443Y-76067519D01*
G37*
G36*
X138032443Y-76067519D02*
G01*
X138098627Y-76074037D01*
X138268466Y-76125557D01*
X138424991Y-76209222D01*
X138460729Y-76238552D01*
X138562186Y-76321814D01*
X138645448Y-76423271D01*
X138674778Y-76459009D01*
X138758443Y-76615534D01*
X138809963Y-76785373D01*
X138827359Y-76962000D01*
X138809963Y-77138627D01*
X138758443Y-77308466D01*
X138674778Y-77464991D01*
X138666411Y-77475186D01*
X138562186Y-77602186D01*
X138460729Y-77685448D01*
X138424991Y-77714778D01*
X138268466Y-77798443D01*
X138098627Y-77849963D01*
X138032443Y-77856481D01*
X137966260Y-77863000D01*
X137877740Y-77863000D01*
X137811557Y-77856481D01*
X137745373Y-77849963D01*
X137575534Y-77798443D01*
X137419009Y-77714778D01*
X137383271Y-77685448D01*
X137281814Y-77602186D01*
X137177589Y-77475186D01*
X137169222Y-77464991D01*
X137085557Y-77308466D01*
X137034037Y-77138627D01*
X137016641Y-76962000D01*
X137034037Y-76785373D01*
X137085557Y-76615534D01*
X137169222Y-76459009D01*
X137198552Y-76423271D01*
X137281814Y-76321814D01*
X137383271Y-76238552D01*
X137419009Y-76209222D01*
X137575534Y-76125557D01*
X137745373Y-76074037D01*
X137811557Y-76067519D01*
X137877740Y-76061000D01*
X137966260Y-76061000D01*
X138032443Y-76067519D01*
X138032443Y-76067519D01*
G37*
G36*
X94598442Y-75940518D02*
G01*
X94664627Y-75947037D01*
X94834466Y-75998557D01*
X94990991Y-76082222D01*
X95026729Y-76111552D01*
X95128186Y-76194814D01*
X95211448Y-76296271D01*
X95240778Y-76332009D01*
X95324443Y-76488534D01*
X95375963Y-76658373D01*
X95393359Y-76835000D01*
X95375963Y-77011627D01*
X95324443Y-77181466D01*
X95240778Y-77337991D01*
X95211448Y-77373729D01*
X95128186Y-77475186D01*
X95026729Y-77558448D01*
X94990991Y-77587778D01*
X94834466Y-77671443D01*
X94664627Y-77722963D01*
X94598443Y-77729481D01*
X94532260Y-77736000D01*
X94443740Y-77736000D01*
X94377557Y-77729481D01*
X94311373Y-77722963D01*
X94141534Y-77671443D01*
X93985009Y-77587778D01*
X93949271Y-77558448D01*
X93847814Y-77475186D01*
X93764552Y-77373729D01*
X93735222Y-77337991D01*
X93651557Y-77181466D01*
X93600037Y-77011627D01*
X93582641Y-76835000D01*
X93600037Y-76658373D01*
X93651557Y-76488534D01*
X93735222Y-76332009D01*
X93764552Y-76296271D01*
X93847814Y-76194814D01*
X93949271Y-76111552D01*
X93985009Y-76082222D01*
X94141534Y-75998557D01*
X94311373Y-75947037D01*
X94377558Y-75940518D01*
X94443740Y-75934000D01*
X94532260Y-75934000D01*
X94598442Y-75940518D01*
X94598442Y-75940518D01*
G37*
G36*
X151669000Y-76913000D02*
G01*
X149067000Y-76913000D01*
X149067000Y-74311000D01*
X151669000Y-74311000D01*
X151669000Y-76913000D01*
X151669000Y-76913000D01*
G37*
G36*
X138032442Y-73527518D02*
G01*
X138098627Y-73534037D01*
X138268466Y-73585557D01*
X138424991Y-73669222D01*
X138460729Y-73698552D01*
X138562186Y-73781814D01*
X138645448Y-73883271D01*
X138674778Y-73919009D01*
X138758443Y-74075534D01*
X138809963Y-74245373D01*
X138827359Y-74422000D01*
X138809963Y-74598627D01*
X138758443Y-74768466D01*
X138674778Y-74924991D01*
X138666411Y-74935186D01*
X138562186Y-75062186D01*
X138460729Y-75145448D01*
X138424991Y-75174778D01*
X138268466Y-75258443D01*
X138098627Y-75309963D01*
X138032443Y-75316481D01*
X137966260Y-75323000D01*
X137877740Y-75323000D01*
X137811557Y-75316481D01*
X137745373Y-75309963D01*
X137575534Y-75258443D01*
X137419009Y-75174778D01*
X137383271Y-75145448D01*
X137281814Y-75062186D01*
X137177589Y-74935186D01*
X137169222Y-74924991D01*
X137085557Y-74768466D01*
X137034037Y-74598627D01*
X137016641Y-74422000D01*
X137034037Y-74245373D01*
X137085557Y-74075534D01*
X137169222Y-73919009D01*
X137198552Y-73883271D01*
X137281814Y-73781814D01*
X137383271Y-73698552D01*
X137419009Y-73669222D01*
X137575534Y-73585557D01*
X137745373Y-73534037D01*
X137811558Y-73527518D01*
X137877740Y-73521000D01*
X137966260Y-73521000D01*
X138032442Y-73527518D01*
X138032442Y-73527518D01*
G37*
G36*
X135492442Y-73527518D02*
G01*
X135558627Y-73534037D01*
X135728466Y-73585557D01*
X135884991Y-73669222D01*
X135920729Y-73698552D01*
X136022186Y-73781814D01*
X136105448Y-73883271D01*
X136134778Y-73919009D01*
X136218443Y-74075534D01*
X136269963Y-74245373D01*
X136287359Y-74422000D01*
X136269963Y-74598627D01*
X136218443Y-74768466D01*
X136134778Y-74924991D01*
X136126411Y-74935186D01*
X136022186Y-75062186D01*
X135920729Y-75145448D01*
X135884991Y-75174778D01*
X135728466Y-75258443D01*
X135558627Y-75309963D01*
X135492443Y-75316481D01*
X135426260Y-75323000D01*
X135337740Y-75323000D01*
X135271557Y-75316481D01*
X135205373Y-75309963D01*
X135035534Y-75258443D01*
X134879009Y-75174778D01*
X134843271Y-75145448D01*
X134741814Y-75062186D01*
X134637589Y-74935186D01*
X134629222Y-74924991D01*
X134545557Y-74768466D01*
X134494037Y-74598627D01*
X134476641Y-74422000D01*
X134494037Y-74245373D01*
X134545557Y-74075534D01*
X134629222Y-73919009D01*
X134658552Y-73883271D01*
X134741814Y-73781814D01*
X134843271Y-73698552D01*
X134879009Y-73669222D01*
X135035534Y-73585557D01*
X135205373Y-73534037D01*
X135271558Y-73527518D01*
X135337740Y-73521000D01*
X135426260Y-73521000D01*
X135492442Y-73527518D01*
X135492442Y-73527518D01*
G37*
G36*
X94598443Y-73400519D02*
G01*
X94664627Y-73407037D01*
X94834466Y-73458557D01*
X94990991Y-73542222D01*
X95026729Y-73571552D01*
X95128186Y-73654814D01*
X95211448Y-73756271D01*
X95240778Y-73792009D01*
X95324443Y-73948534D01*
X95375963Y-74118373D01*
X95393359Y-74295000D01*
X95375963Y-74471627D01*
X95324443Y-74641466D01*
X95240778Y-74797991D01*
X95211448Y-74833729D01*
X95128186Y-74935186D01*
X95026729Y-75018448D01*
X94990991Y-75047778D01*
X94834466Y-75131443D01*
X94664627Y-75182963D01*
X94598442Y-75189482D01*
X94532260Y-75196000D01*
X94443740Y-75196000D01*
X94377558Y-75189482D01*
X94311373Y-75182963D01*
X94141534Y-75131443D01*
X93985009Y-75047778D01*
X93949271Y-75018448D01*
X93847814Y-74935186D01*
X93764552Y-74833729D01*
X93735222Y-74797991D01*
X93651557Y-74641466D01*
X93600037Y-74471627D01*
X93582641Y-74295000D01*
X93600037Y-74118373D01*
X93651557Y-73948534D01*
X93735222Y-73792009D01*
X93764552Y-73756271D01*
X93847814Y-73654814D01*
X93949271Y-73571552D01*
X93985009Y-73542222D01*
X94141534Y-73458557D01*
X94311373Y-73407037D01*
X94377557Y-73400519D01*
X94443740Y-73394000D01*
X94532260Y-73394000D01*
X94598443Y-73400519D01*
X94598443Y-73400519D01*
G37*
G36*
X117049674Y-73142065D02*
G01*
X117087367Y-73153499D01*
X117122103Y-73172066D01*
X117152548Y-73197052D01*
X117177534Y-73227497D01*
X117196101Y-73262233D01*
X117207535Y-73299926D01*
X117212000Y-73345261D01*
X117212000Y-74431939D01*
X117207535Y-74477274D01*
X117196101Y-74514967D01*
X117177534Y-74549703D01*
X117152548Y-74580148D01*
X117122103Y-74605134D01*
X117087367Y-74623701D01*
X117049674Y-74635135D01*
X117004339Y-74639600D01*
X116167661Y-74639600D01*
X116122326Y-74635135D01*
X116084633Y-74623701D01*
X116049897Y-74605134D01*
X116019452Y-74580148D01*
X115994466Y-74549703D01*
X115975899Y-74514967D01*
X115964465Y-74477274D01*
X115960000Y-74431939D01*
X115960000Y-73345261D01*
X115964465Y-73299926D01*
X115975899Y-73262233D01*
X115994466Y-73227497D01*
X116019452Y-73197052D01*
X116049897Y-73172066D01*
X116084633Y-73153499D01*
X116122326Y-73142065D01*
X116167661Y-73137600D01*
X117004339Y-73137600D01*
X117049674Y-73142065D01*
X117049674Y-73142065D01*
G37*
G36*
X107854874Y-73142065D02*
G01*
X107892567Y-73153499D01*
X107927303Y-73172066D01*
X107957748Y-73197052D01*
X107982734Y-73227497D01*
X108001301Y-73262233D01*
X108012735Y-73299926D01*
X108017200Y-73345261D01*
X108017200Y-74431939D01*
X108012735Y-74477274D01*
X108001301Y-74514967D01*
X107982734Y-74549703D01*
X107957748Y-74580148D01*
X107927303Y-74605134D01*
X107892567Y-74623701D01*
X107854874Y-74635135D01*
X107809539Y-74639600D01*
X106972861Y-74639600D01*
X106927526Y-74635135D01*
X106889833Y-74623701D01*
X106855097Y-74605134D01*
X106824652Y-74580148D01*
X106799666Y-74549703D01*
X106781099Y-74514967D01*
X106769665Y-74477274D01*
X106765200Y-74431939D01*
X106765200Y-73345261D01*
X106769665Y-73299926D01*
X106781099Y-73262233D01*
X106799666Y-73227497D01*
X106824652Y-73197052D01*
X106855097Y-73172066D01*
X106889833Y-73153499D01*
X106927526Y-73142065D01*
X106972861Y-73137600D01*
X107809539Y-73137600D01*
X107854874Y-73142065D01*
X107854874Y-73142065D01*
G37*
G36*
X105804874Y-73142065D02*
G01*
X105842567Y-73153499D01*
X105877303Y-73172066D01*
X105907748Y-73197052D01*
X105932734Y-73227497D01*
X105951301Y-73262233D01*
X105962735Y-73299926D01*
X105967200Y-73345261D01*
X105967200Y-74431939D01*
X105962735Y-74477274D01*
X105951301Y-74514967D01*
X105932734Y-74549703D01*
X105907748Y-74580148D01*
X105877303Y-74605134D01*
X105842567Y-74623701D01*
X105804874Y-74635135D01*
X105759539Y-74639600D01*
X104922861Y-74639600D01*
X104877526Y-74635135D01*
X104839833Y-74623701D01*
X104805097Y-74605134D01*
X104774652Y-74580148D01*
X104749666Y-74549703D01*
X104731099Y-74514967D01*
X104719665Y-74477274D01*
X104715200Y-74431939D01*
X104715200Y-73345261D01*
X104719665Y-73299926D01*
X104731099Y-73262233D01*
X104749666Y-73227497D01*
X104774652Y-73197052D01*
X104805097Y-73172066D01*
X104839833Y-73153499D01*
X104877526Y-73142065D01*
X104922861Y-73137600D01*
X105759539Y-73137600D01*
X105804874Y-73142065D01*
X105804874Y-73142065D01*
G37*
G36*
X112180274Y-73142065D02*
G01*
X112217967Y-73153499D01*
X112252703Y-73172066D01*
X112283148Y-73197052D01*
X112308134Y-73227497D01*
X112326701Y-73262233D01*
X112338135Y-73299926D01*
X112342600Y-73345261D01*
X112342600Y-74431939D01*
X112338135Y-74477274D01*
X112326701Y-74514967D01*
X112308134Y-74549703D01*
X112283148Y-74580148D01*
X112252703Y-74605134D01*
X112217967Y-74623701D01*
X112180274Y-74635135D01*
X112134939Y-74639600D01*
X111298261Y-74639600D01*
X111252926Y-74635135D01*
X111215233Y-74623701D01*
X111180497Y-74605134D01*
X111150052Y-74580148D01*
X111125066Y-74549703D01*
X111106499Y-74514967D01*
X111095065Y-74477274D01*
X111090600Y-74431939D01*
X111090600Y-73345261D01*
X111095065Y-73299926D01*
X111106499Y-73262233D01*
X111125066Y-73227497D01*
X111150052Y-73197052D01*
X111180497Y-73172066D01*
X111215233Y-73153499D01*
X111252926Y-73142065D01*
X111298261Y-73137600D01*
X112134939Y-73137600D01*
X112180274Y-73142065D01*
X112180274Y-73142065D01*
G37*
G36*
X101301674Y-73142065D02*
G01*
X101339367Y-73153499D01*
X101374103Y-73172066D01*
X101404548Y-73197052D01*
X101429534Y-73227497D01*
X101448101Y-73262233D01*
X101459535Y-73299926D01*
X101464000Y-73345261D01*
X101464000Y-74431939D01*
X101459535Y-74477274D01*
X101448101Y-74514967D01*
X101429534Y-74549703D01*
X101404548Y-74580148D01*
X101374103Y-74605134D01*
X101339367Y-74623701D01*
X101301674Y-74635135D01*
X101256339Y-74639600D01*
X100419661Y-74639600D01*
X100374326Y-74635135D01*
X100336633Y-74623701D01*
X100301897Y-74605134D01*
X100271452Y-74580148D01*
X100246466Y-74549703D01*
X100227899Y-74514967D01*
X100216465Y-74477274D01*
X100212000Y-74431939D01*
X100212000Y-73345261D01*
X100216465Y-73299926D01*
X100227899Y-73262233D01*
X100246466Y-73227497D01*
X100271452Y-73197052D01*
X100301897Y-73172066D01*
X100336633Y-73153499D01*
X100374326Y-73142065D01*
X100419661Y-73137600D01*
X101256339Y-73137600D01*
X101301674Y-73142065D01*
X101301674Y-73142065D01*
G37*
G36*
X114230274Y-73142065D02*
G01*
X114267967Y-73153499D01*
X114302703Y-73172066D01*
X114333148Y-73197052D01*
X114358134Y-73227497D01*
X114376701Y-73262233D01*
X114388135Y-73299926D01*
X114392600Y-73345261D01*
X114392600Y-74431939D01*
X114388135Y-74477274D01*
X114376701Y-74514967D01*
X114358134Y-74549703D01*
X114333148Y-74580148D01*
X114302703Y-74605134D01*
X114267967Y-74623701D01*
X114230274Y-74635135D01*
X114184939Y-74639600D01*
X113348261Y-74639600D01*
X113302926Y-74635135D01*
X113265233Y-74623701D01*
X113230497Y-74605134D01*
X113200052Y-74580148D01*
X113175066Y-74549703D01*
X113156499Y-74514967D01*
X113145065Y-74477274D01*
X113140600Y-74431939D01*
X113140600Y-73345261D01*
X113145065Y-73299926D01*
X113156499Y-73262233D01*
X113175066Y-73227497D01*
X113200052Y-73197052D01*
X113230497Y-73172066D01*
X113265233Y-73153499D01*
X113302926Y-73142065D01*
X113348261Y-73137600D01*
X114184939Y-73137600D01*
X114230274Y-73142065D01*
X114230274Y-73142065D01*
G37*
G36*
X119099674Y-73142065D02*
G01*
X119137367Y-73153499D01*
X119172103Y-73172066D01*
X119202548Y-73197052D01*
X119227534Y-73227497D01*
X119246101Y-73262233D01*
X119257535Y-73299926D01*
X119262000Y-73345261D01*
X119262000Y-74431939D01*
X119257535Y-74477274D01*
X119246101Y-74514967D01*
X119227534Y-74549703D01*
X119202548Y-74580148D01*
X119172103Y-74605134D01*
X119137367Y-74623701D01*
X119099674Y-74635135D01*
X119054339Y-74639600D01*
X118217661Y-74639600D01*
X118172326Y-74635135D01*
X118134633Y-74623701D01*
X118099897Y-74605134D01*
X118069452Y-74580148D01*
X118044466Y-74549703D01*
X118025899Y-74514967D01*
X118014465Y-74477274D01*
X118010000Y-74431939D01*
X118010000Y-73345261D01*
X118014465Y-73299926D01*
X118025899Y-73262233D01*
X118044466Y-73227497D01*
X118069452Y-73197052D01*
X118099897Y-73172066D01*
X118134633Y-73153499D01*
X118172326Y-73142065D01*
X118217661Y-73137600D01*
X119054339Y-73137600D01*
X119099674Y-73142065D01*
X119099674Y-73142065D01*
G37*
G36*
X103351674Y-73142065D02*
G01*
X103389367Y-73153499D01*
X103424103Y-73172066D01*
X103454548Y-73197052D01*
X103479534Y-73227497D01*
X103498101Y-73262233D01*
X103509535Y-73299926D01*
X103514000Y-73345261D01*
X103514000Y-74431939D01*
X103509535Y-74477274D01*
X103498101Y-74514967D01*
X103479534Y-74549703D01*
X103454548Y-74580148D01*
X103424103Y-74605134D01*
X103389367Y-74623701D01*
X103351674Y-74635135D01*
X103306339Y-74639600D01*
X102469661Y-74639600D01*
X102424326Y-74635135D01*
X102386633Y-74623701D01*
X102351897Y-74605134D01*
X102321452Y-74580148D01*
X102296466Y-74549703D01*
X102277899Y-74514967D01*
X102266465Y-74477274D01*
X102262000Y-74431939D01*
X102262000Y-73345261D01*
X102266465Y-73299926D01*
X102277899Y-73262233D01*
X102296466Y-73227497D01*
X102321452Y-73197052D01*
X102351897Y-73172066D01*
X102386633Y-73153499D01*
X102424326Y-73142065D01*
X102469661Y-73137600D01*
X103306339Y-73137600D01*
X103351674Y-73142065D01*
X103351674Y-73142065D01*
G37*
G36*
X144777999Y-71585737D02*
G01*
X144787608Y-71588652D01*
X144796472Y-71593390D01*
X144804237Y-71599763D01*
X144810610Y-71607528D01*
X144815348Y-71616392D01*
X144818263Y-71626001D01*
X144819852Y-71642140D01*
X144819852Y-72629860D01*
X144818263Y-72645999D01*
X144815348Y-72655608D01*
X144810610Y-72664472D01*
X144804258Y-72672212D01*
X144804237Y-72672237D01*
X144796427Y-72678640D01*
X144796372Y-72678677D01*
X144786853Y-72686480D01*
X144786878Y-72686511D01*
X144773028Y-72697853D01*
X144757463Y-72716779D01*
X144745889Y-72738377D01*
X144738751Y-72761819D01*
X144736324Y-72786202D01*
X144738700Y-72810591D01*
X144745789Y-72834047D01*
X144757318Y-72855670D01*
X144772843Y-72874628D01*
X144791769Y-72890193D01*
X144794825Y-72892029D01*
X144796514Y-72893418D01*
X144796516Y-72893419D01*
X144802712Y-72898515D01*
X144804274Y-72899800D01*
X144810642Y-72907575D01*
X144813791Y-72913483D01*
X144815367Y-72916438D01*
X144818257Y-72926001D01*
X144818282Y-72926085D01*
X144819852Y-72942113D01*
X144819852Y-74079860D01*
X144818263Y-74095999D01*
X144815348Y-74105608D01*
X144810610Y-74114472D01*
X144804237Y-74122237D01*
X144796472Y-74128610D01*
X144787608Y-74133348D01*
X144777999Y-74136263D01*
X144761860Y-74137852D01*
X143274140Y-74137852D01*
X143258001Y-74136263D01*
X143248392Y-74133348D01*
X143239528Y-74128610D01*
X143231763Y-74122237D01*
X143225390Y-74114472D01*
X143220652Y-74105608D01*
X143217737Y-74095999D01*
X143216148Y-74079860D01*
X143216148Y-72942140D01*
X143217737Y-72926001D01*
X143220652Y-72916392D01*
X143225390Y-72907528D01*
X143231763Y-72899763D01*
X143244737Y-72889116D01*
X143253968Y-72882947D01*
X143271294Y-72865619D01*
X143284907Y-72845244D01*
X143294283Y-72822605D01*
X143299063Y-72798572D01*
X143299062Y-72774068D01*
X143294280Y-72750035D01*
X143284902Y-72727396D01*
X143271287Y-72707022D01*
X143253959Y-72689696D01*
X143244683Y-72682825D01*
X143231800Y-72672274D01*
X143230668Y-72670897D01*
X143225419Y-72664516D01*
X143220674Y-72655661D01*
X143219749Y-72652623D01*
X143217758Y-72646085D01*
X143217758Y-72646082D01*
X143217748Y-72646050D01*
X143216753Y-72636000D01*
X143216753Y-72635935D01*
X143216148Y-72629825D01*
X143216148Y-71642140D01*
X143217737Y-71626001D01*
X143220652Y-71616392D01*
X143225390Y-71607528D01*
X143231763Y-71599763D01*
X143239528Y-71593390D01*
X143248392Y-71588652D01*
X143258001Y-71585737D01*
X143274140Y-71584148D01*
X144761860Y-71584148D01*
X144777999Y-71585737D01*
X144777999Y-71585737D01*
G37*
G36*
X150747487Y-69360996D02*
G01*
X150984253Y-69459068D01*
X150984255Y-69459069D01*
X151197339Y-69601447D01*
X151378553Y-69782661D01*
X151418725Y-69842782D01*
X151520932Y-69995747D01*
X151619004Y-70232513D01*
X151669000Y-70483861D01*
X151669000Y-70740139D01*
X151619004Y-70991487D01*
X151520932Y-71228253D01*
X151520931Y-71228255D01*
X151378553Y-71441339D01*
X151197339Y-71622553D01*
X150984255Y-71764931D01*
X150984254Y-71764932D01*
X150984253Y-71764932D01*
X150747487Y-71863004D01*
X150496139Y-71913000D01*
X150239861Y-71913000D01*
X149988513Y-71863004D01*
X149751747Y-71764932D01*
X149751746Y-71764932D01*
X149751745Y-71764931D01*
X149538661Y-71622553D01*
X149357447Y-71441339D01*
X149215069Y-71228255D01*
X149215068Y-71228253D01*
X149116996Y-70991487D01*
X149067000Y-70740139D01*
X149067000Y-70483861D01*
X149116996Y-70232513D01*
X149215068Y-69995747D01*
X149317276Y-69842782D01*
X149357447Y-69782661D01*
X149538661Y-69601447D01*
X149751745Y-69459069D01*
X149751747Y-69459068D01*
X149988513Y-69360996D01*
X150239861Y-69311000D01*
X150496139Y-69311000D01*
X150747487Y-69360996D01*
X150747487Y-69360996D01*
G37*
G36*
X140818954Y-68697827D02*
G01*
X140978812Y-68729624D01*
X141142784Y-68797544D01*
X141290354Y-68896147D01*
X141415853Y-69021646D01*
X141514456Y-69169216D01*
X141582376Y-69333188D01*
X141617000Y-69507259D01*
X141617000Y-69684741D01*
X141582376Y-69858812D01*
X141514456Y-70022784D01*
X141415853Y-70170354D01*
X141290354Y-70295853D01*
X141142784Y-70394456D01*
X140978812Y-70462376D01*
X140829512Y-70492073D01*
X140804742Y-70497000D01*
X140627258Y-70497000D01*
X140602488Y-70492073D01*
X140453188Y-70462376D01*
X140289216Y-70394456D01*
X140141646Y-70295853D01*
X140016147Y-70170354D01*
X139917544Y-70022784D01*
X139849624Y-69858812D01*
X139815000Y-69684741D01*
X139815000Y-69507259D01*
X139849624Y-69333188D01*
X139917544Y-69169216D01*
X140016147Y-69021646D01*
X140141646Y-68896147D01*
X140289216Y-68797544D01*
X140453188Y-68729624D01*
X140613046Y-68697827D01*
X140627258Y-68695000D01*
X140804742Y-68695000D01*
X140818954Y-68697827D01*
X140818954Y-68697827D01*
G37*
G36*
X103988954Y-68697827D02*
G01*
X104148812Y-68729624D01*
X104312784Y-68797544D01*
X104460354Y-68896147D01*
X104585853Y-69021646D01*
X104684456Y-69169216D01*
X104752376Y-69333188D01*
X104787000Y-69507259D01*
X104787000Y-69684741D01*
X104752376Y-69858812D01*
X104684456Y-70022784D01*
X104585853Y-70170354D01*
X104460354Y-70295853D01*
X104312784Y-70394456D01*
X104148812Y-70462376D01*
X103999512Y-70492073D01*
X103974742Y-70497000D01*
X103797258Y-70497000D01*
X103772488Y-70492073D01*
X103623188Y-70462376D01*
X103459216Y-70394456D01*
X103311646Y-70295853D01*
X103186147Y-70170354D01*
X103087544Y-70022784D01*
X103019624Y-69858812D01*
X102985000Y-69684741D01*
X102985000Y-69507259D01*
X103019624Y-69333188D01*
X103087544Y-69169216D01*
X103186147Y-69021646D01*
X103311646Y-68896147D01*
X103459216Y-68797544D01*
X103623188Y-68729624D01*
X103783046Y-68697827D01*
X103797258Y-68695000D01*
X103974742Y-68695000D01*
X103988954Y-68697827D01*
X103988954Y-68697827D01*
G37*
G36*
X114571174Y-68674965D02*
G01*
X114608867Y-68686399D01*
X114643603Y-68704966D01*
X114674048Y-68729952D01*
X114699034Y-68760397D01*
X114717601Y-68795133D01*
X114729035Y-68832826D01*
X114733500Y-68878161D01*
X114733500Y-69714839D01*
X114729035Y-69760174D01*
X114717601Y-69797867D01*
X114699034Y-69832603D01*
X114674048Y-69863048D01*
X114643603Y-69888034D01*
X114608867Y-69906601D01*
X114571174Y-69918035D01*
X114525839Y-69922500D01*
X113439161Y-69922500D01*
X113393826Y-69918035D01*
X113356133Y-69906601D01*
X113321397Y-69888034D01*
X113290952Y-69863048D01*
X113265966Y-69832603D01*
X113247399Y-69797867D01*
X113235965Y-69760174D01*
X113231500Y-69714839D01*
X113231500Y-68878161D01*
X113235965Y-68832826D01*
X113247399Y-68795133D01*
X113265966Y-68760397D01*
X113290952Y-68729952D01*
X113321397Y-68704966D01*
X113356133Y-68686399D01*
X113393826Y-68674965D01*
X113439161Y-68670500D01*
X114525839Y-68670500D01*
X114571174Y-68674965D01*
X114571174Y-68674965D01*
G37*
G36*
X96391487Y-67074996D02*
G01*
X96628253Y-67173068D01*
X96628255Y-67173069D01*
X96841339Y-67315447D01*
X97022553Y-67496661D01*
X97111884Y-67630354D01*
X97164932Y-67709747D01*
X97263004Y-67946513D01*
X97313000Y-68197861D01*
X97313000Y-68454139D01*
X97263004Y-68705487D01*
X97176166Y-68915131D01*
X97164931Y-68942255D01*
X97022553Y-69155339D01*
X96841339Y-69336553D01*
X96628255Y-69478931D01*
X96628254Y-69478932D01*
X96628253Y-69478932D01*
X96391487Y-69577004D01*
X96140139Y-69627000D01*
X95883861Y-69627000D01*
X95632513Y-69577004D01*
X95395747Y-69478932D01*
X95395746Y-69478932D01*
X95395745Y-69478931D01*
X95182661Y-69336553D01*
X95001447Y-69155339D01*
X94859069Y-68942255D01*
X94847834Y-68915131D01*
X94760996Y-68705487D01*
X94711000Y-68454139D01*
X94711000Y-68197861D01*
X94760996Y-67946513D01*
X94859068Y-67709747D01*
X94912117Y-67630354D01*
X95001447Y-67496661D01*
X95182661Y-67315447D01*
X95395745Y-67173069D01*
X95395747Y-67173068D01*
X95632513Y-67074996D01*
X95883861Y-67025000D01*
X96140139Y-67025000D01*
X96391487Y-67074996D01*
X96391487Y-67074996D01*
G37*
G36*
X144606674Y-67976465D02*
G01*
X144644367Y-67987899D01*
X144679103Y-68006466D01*
X144709548Y-68031452D01*
X144734534Y-68061897D01*
X144753101Y-68096633D01*
X144764535Y-68134326D01*
X144769000Y-68179661D01*
X144769000Y-69016339D01*
X144764535Y-69061674D01*
X144753101Y-69099367D01*
X144734534Y-69134103D01*
X144709548Y-69164548D01*
X144679103Y-69189534D01*
X144644367Y-69208101D01*
X144606674Y-69219535D01*
X144561339Y-69224000D01*
X143474661Y-69224000D01*
X143429326Y-69219535D01*
X143391633Y-69208101D01*
X143356897Y-69189534D01*
X143326452Y-69164548D01*
X143301466Y-69134103D01*
X143282899Y-69099367D01*
X143271465Y-69061674D01*
X143267000Y-69016339D01*
X143267000Y-68179661D01*
X143271465Y-68134326D01*
X143282899Y-68096633D01*
X143301466Y-68061897D01*
X143326452Y-68031452D01*
X143356897Y-68006466D01*
X143391633Y-67987899D01*
X143429326Y-67976465D01*
X143474661Y-67972000D01*
X144561339Y-67972000D01*
X144606674Y-67976465D01*
X144606674Y-67976465D01*
G37*
G36*
X132287674Y-67722465D02*
G01*
X132325367Y-67733899D01*
X132360103Y-67752466D01*
X132390548Y-67777452D01*
X132415534Y-67807897D01*
X132434101Y-67842633D01*
X132445535Y-67880326D01*
X132450000Y-67925661D01*
X132450000Y-68762339D01*
X132445535Y-68807674D01*
X132434101Y-68845367D01*
X132415534Y-68880103D01*
X132390548Y-68910548D01*
X132360103Y-68935534D01*
X132325367Y-68954101D01*
X132287674Y-68965535D01*
X132242339Y-68970000D01*
X131155661Y-68970000D01*
X131110326Y-68965535D01*
X131072633Y-68954101D01*
X131037897Y-68935534D01*
X131007452Y-68910548D01*
X130982466Y-68880103D01*
X130963899Y-68845367D01*
X130952465Y-68807674D01*
X130948000Y-68762339D01*
X130948000Y-67925661D01*
X130952465Y-67880326D01*
X130963899Y-67842633D01*
X130982466Y-67807897D01*
X131007452Y-67777452D01*
X131037897Y-67752466D01*
X131072633Y-67733899D01*
X131110326Y-67722465D01*
X131155661Y-67718000D01*
X132242339Y-67718000D01*
X132287674Y-67722465D01*
X132287674Y-67722465D01*
G37*
G36*
X128096674Y-67722465D02*
G01*
X128134367Y-67733899D01*
X128169103Y-67752466D01*
X128199548Y-67777452D01*
X128224534Y-67807897D01*
X128243101Y-67842633D01*
X128254535Y-67880326D01*
X128259000Y-67925661D01*
X128259000Y-68762339D01*
X128254535Y-68807674D01*
X128243101Y-68845367D01*
X128224534Y-68880103D01*
X128199548Y-68910548D01*
X128169103Y-68935534D01*
X128134367Y-68954101D01*
X128096674Y-68965535D01*
X128051339Y-68970000D01*
X126964661Y-68970000D01*
X126919326Y-68965535D01*
X126881633Y-68954101D01*
X126846897Y-68935534D01*
X126816452Y-68910548D01*
X126791466Y-68880103D01*
X126772899Y-68845367D01*
X126761465Y-68807674D01*
X126757000Y-68762339D01*
X126757000Y-67925661D01*
X126761465Y-67880326D01*
X126772899Y-67842633D01*
X126791466Y-67807897D01*
X126816452Y-67777452D01*
X126846897Y-67752466D01*
X126881633Y-67733899D01*
X126919326Y-67722465D01*
X126964661Y-67718000D01*
X128051339Y-67718000D01*
X128096674Y-67722465D01*
X128096674Y-67722465D01*
G37*
G36*
X130192174Y-67713465D02*
G01*
X130229867Y-67724899D01*
X130264603Y-67743466D01*
X130295048Y-67768452D01*
X130320034Y-67798897D01*
X130338601Y-67833633D01*
X130350035Y-67871326D01*
X130354500Y-67916661D01*
X130354500Y-68753339D01*
X130350035Y-68798674D01*
X130338601Y-68836367D01*
X130320034Y-68871103D01*
X130295048Y-68901548D01*
X130264603Y-68926534D01*
X130229867Y-68945101D01*
X130192174Y-68956535D01*
X130146839Y-68961000D01*
X129060161Y-68961000D01*
X129014826Y-68956535D01*
X128977133Y-68945101D01*
X128942397Y-68926534D01*
X128911952Y-68901548D01*
X128886966Y-68871103D01*
X128868399Y-68836367D01*
X128856965Y-68798674D01*
X128852500Y-68753339D01*
X128852500Y-67916661D01*
X128856965Y-67871326D01*
X128868399Y-67833633D01*
X128886966Y-67798897D01*
X128911952Y-67768452D01*
X128942397Y-67743466D01*
X128977133Y-67724899D01*
X129014826Y-67713465D01*
X129060161Y-67709000D01*
X130146839Y-67709000D01*
X130192174Y-67713465D01*
X130192174Y-67713465D01*
G37*
G36*
X140829512Y-66159927D02*
G01*
X140978812Y-66189624D01*
X141142784Y-66257544D01*
X141290354Y-66356147D01*
X141415853Y-66481646D01*
X141514456Y-66629216D01*
X141582376Y-66793188D01*
X141617000Y-66967259D01*
X141617000Y-67144741D01*
X141582376Y-67318812D01*
X141514456Y-67482784D01*
X141415853Y-67630354D01*
X141290354Y-67755853D01*
X141142784Y-67854456D01*
X140978812Y-67922376D01*
X140829512Y-67952073D01*
X140804742Y-67957000D01*
X140627258Y-67957000D01*
X140602488Y-67952073D01*
X140453188Y-67922376D01*
X140289216Y-67854456D01*
X140141646Y-67755853D01*
X140016147Y-67630354D01*
X139917544Y-67482784D01*
X139849624Y-67318812D01*
X139815000Y-67144741D01*
X139815000Y-66967259D01*
X139849624Y-66793188D01*
X139917544Y-66629216D01*
X140016147Y-66481646D01*
X140141646Y-66356147D01*
X140289216Y-66257544D01*
X140453188Y-66189624D01*
X140602488Y-66159927D01*
X140627258Y-66155000D01*
X140804742Y-66155000D01*
X140829512Y-66159927D01*
X140829512Y-66159927D01*
G37*
G36*
X103999512Y-66159927D02*
G01*
X104148812Y-66189624D01*
X104312784Y-66257544D01*
X104460354Y-66356147D01*
X104585853Y-66481646D01*
X104684456Y-66629216D01*
X104752376Y-66793188D01*
X104787000Y-66967259D01*
X104787000Y-67144741D01*
X104752376Y-67318812D01*
X104684456Y-67482784D01*
X104585853Y-67630354D01*
X104460354Y-67755853D01*
X104312784Y-67854456D01*
X104148812Y-67922376D01*
X103999512Y-67952073D01*
X103974742Y-67957000D01*
X103797258Y-67957000D01*
X103772488Y-67952073D01*
X103623188Y-67922376D01*
X103459216Y-67854456D01*
X103311646Y-67755853D01*
X103186147Y-67630354D01*
X103087544Y-67482784D01*
X103019624Y-67318812D01*
X102985000Y-67144741D01*
X102985000Y-66967259D01*
X103019624Y-66793188D01*
X103087544Y-66629216D01*
X103186147Y-66481646D01*
X103311646Y-66356147D01*
X103459216Y-66257544D01*
X103623188Y-66189624D01*
X103772488Y-66159927D01*
X103797258Y-66155000D01*
X103974742Y-66155000D01*
X103999512Y-66159927D01*
X103999512Y-66159927D01*
G37*
G36*
X114571174Y-66624965D02*
G01*
X114608867Y-66636399D01*
X114643603Y-66654966D01*
X114674048Y-66679952D01*
X114699034Y-66710397D01*
X114717601Y-66745133D01*
X114729035Y-66782826D01*
X114733500Y-66828161D01*
X114733500Y-67664839D01*
X114729035Y-67710174D01*
X114717601Y-67747867D01*
X114699034Y-67782603D01*
X114674048Y-67813048D01*
X114643603Y-67838034D01*
X114608867Y-67856601D01*
X114571174Y-67868035D01*
X114525839Y-67872500D01*
X113439161Y-67872500D01*
X113393826Y-67868035D01*
X113356133Y-67856601D01*
X113321397Y-67838034D01*
X113290952Y-67813048D01*
X113265966Y-67782603D01*
X113247399Y-67747867D01*
X113235965Y-67710174D01*
X113231500Y-67664839D01*
X113231500Y-66828161D01*
X113235965Y-66782826D01*
X113247399Y-66745133D01*
X113265966Y-66710397D01*
X113290952Y-66679952D01*
X113321397Y-66654966D01*
X113356133Y-66636399D01*
X113393826Y-66624965D01*
X113439161Y-66620500D01*
X114525839Y-66620500D01*
X114571174Y-66624965D01*
X114571174Y-66624965D01*
G37*
G36*
X144606674Y-65926465D02*
G01*
X144644367Y-65937899D01*
X144679103Y-65956466D01*
X144709548Y-65981452D01*
X144734534Y-66011897D01*
X144753101Y-66046633D01*
X144764535Y-66084326D01*
X144769000Y-66129661D01*
X144769000Y-66966339D01*
X144764535Y-67011674D01*
X144753101Y-67049367D01*
X144734534Y-67084103D01*
X144709548Y-67114548D01*
X144679103Y-67139534D01*
X144644367Y-67158101D01*
X144606674Y-67169535D01*
X144561339Y-67174000D01*
X143474661Y-67174000D01*
X143429326Y-67169535D01*
X143391633Y-67158101D01*
X143356897Y-67139534D01*
X143326452Y-67114548D01*
X143301466Y-67084103D01*
X143282899Y-67049367D01*
X143271465Y-67011674D01*
X143267000Y-66966339D01*
X143267000Y-66129661D01*
X143271465Y-66084326D01*
X143282899Y-66046633D01*
X143301466Y-66011897D01*
X143326452Y-65981452D01*
X143356897Y-65956466D01*
X143391633Y-65937899D01*
X143429326Y-65926465D01*
X143474661Y-65922000D01*
X144561339Y-65922000D01*
X144606674Y-65926465D01*
X144606674Y-65926465D01*
G37*
G36*
X132287674Y-65672465D02*
G01*
X132325367Y-65683899D01*
X132360103Y-65702466D01*
X132390548Y-65727452D01*
X132415534Y-65757897D01*
X132434101Y-65792633D01*
X132445535Y-65830326D01*
X132450000Y-65875661D01*
X132450000Y-66712339D01*
X132445535Y-66757674D01*
X132434101Y-66795367D01*
X132415534Y-66830103D01*
X132390548Y-66860548D01*
X132360103Y-66885534D01*
X132325367Y-66904101D01*
X132287674Y-66915535D01*
X132242339Y-66920000D01*
X131155661Y-66920000D01*
X131110326Y-66915535D01*
X131072633Y-66904101D01*
X131037897Y-66885534D01*
X131007452Y-66860548D01*
X130982466Y-66830103D01*
X130963899Y-66795367D01*
X130952465Y-66757674D01*
X130948000Y-66712339D01*
X130948000Y-65875661D01*
X130952465Y-65830326D01*
X130963899Y-65792633D01*
X130982466Y-65757897D01*
X131007452Y-65727452D01*
X131037897Y-65702466D01*
X131072633Y-65683899D01*
X131110326Y-65672465D01*
X131155661Y-65668000D01*
X132242339Y-65668000D01*
X132287674Y-65672465D01*
X132287674Y-65672465D01*
G37*
G36*
X128096674Y-65672465D02*
G01*
X128134367Y-65683899D01*
X128169103Y-65702466D01*
X128199548Y-65727452D01*
X128224534Y-65757897D01*
X128243101Y-65792633D01*
X128254535Y-65830326D01*
X128259000Y-65875661D01*
X128259000Y-66712339D01*
X128254535Y-66757674D01*
X128243101Y-66795367D01*
X128224534Y-66830103D01*
X128199548Y-66860548D01*
X128169103Y-66885534D01*
X128134367Y-66904101D01*
X128096674Y-66915535D01*
X128051339Y-66920000D01*
X126964661Y-66920000D01*
X126919326Y-66915535D01*
X126881633Y-66904101D01*
X126846897Y-66885534D01*
X126816452Y-66860548D01*
X126791466Y-66830103D01*
X126772899Y-66795367D01*
X126761465Y-66757674D01*
X126757000Y-66712339D01*
X126757000Y-65875661D01*
X126761465Y-65830326D01*
X126772899Y-65792633D01*
X126791466Y-65757897D01*
X126816452Y-65727452D01*
X126846897Y-65702466D01*
X126881633Y-65683899D01*
X126919326Y-65672465D01*
X126964661Y-65668000D01*
X128051339Y-65668000D01*
X128096674Y-65672465D01*
X128096674Y-65672465D01*
G37*
G36*
X130192174Y-65663465D02*
G01*
X130229867Y-65674899D01*
X130264603Y-65693466D01*
X130295048Y-65718452D01*
X130320034Y-65748897D01*
X130338601Y-65783633D01*
X130350035Y-65821326D01*
X130354500Y-65866661D01*
X130354500Y-66703339D01*
X130350035Y-66748674D01*
X130338601Y-66786367D01*
X130320034Y-66821103D01*
X130295048Y-66851548D01*
X130264603Y-66876534D01*
X130229867Y-66895101D01*
X130192174Y-66906535D01*
X130146839Y-66911000D01*
X129060161Y-66911000D01*
X129014826Y-66906535D01*
X128977133Y-66895101D01*
X128942397Y-66876534D01*
X128911952Y-66851548D01*
X128886966Y-66821103D01*
X128868399Y-66786367D01*
X128856965Y-66748674D01*
X128852500Y-66703339D01*
X128852500Y-65866661D01*
X128856965Y-65821326D01*
X128868399Y-65783633D01*
X128886966Y-65748897D01*
X128911952Y-65718452D01*
X128942397Y-65693466D01*
X128977133Y-65674899D01*
X129014826Y-65663465D01*
X129060161Y-65659000D01*
X130146839Y-65659000D01*
X130192174Y-65663465D01*
X130192174Y-65663465D01*
G37*
G36*
X108014674Y-64658465D02*
G01*
X108052367Y-64669899D01*
X108087103Y-64688466D01*
X108117548Y-64713452D01*
X108142534Y-64743897D01*
X108161101Y-64778633D01*
X108172535Y-64816326D01*
X108177000Y-64861661D01*
X108177000Y-65948339D01*
X108172535Y-65993674D01*
X108161101Y-66031367D01*
X108142534Y-66066103D01*
X108117548Y-66096548D01*
X108087103Y-66121534D01*
X108052367Y-66140101D01*
X108014674Y-66151535D01*
X107969339Y-66156000D01*
X107132661Y-66156000D01*
X107087326Y-66151535D01*
X107049633Y-66140101D01*
X107014897Y-66121534D01*
X106984452Y-66096548D01*
X106959466Y-66066103D01*
X106940899Y-66031367D01*
X106929465Y-65993674D01*
X106925000Y-65948339D01*
X106925000Y-64861661D01*
X106929465Y-64816326D01*
X106940899Y-64778633D01*
X106959466Y-64743897D01*
X106984452Y-64713452D01*
X107014897Y-64688466D01*
X107049633Y-64669899D01*
X107087326Y-64658465D01*
X107132661Y-64654000D01*
X107969339Y-64654000D01*
X108014674Y-64658465D01*
X108014674Y-64658465D01*
G37*
G36*
X110064674Y-64658465D02*
G01*
X110102367Y-64669899D01*
X110137103Y-64688466D01*
X110167548Y-64713452D01*
X110192534Y-64743897D01*
X110211101Y-64778633D01*
X110222535Y-64816326D01*
X110227000Y-64861661D01*
X110227000Y-65948339D01*
X110222535Y-65993674D01*
X110211101Y-66031367D01*
X110192534Y-66066103D01*
X110167548Y-66096548D01*
X110137103Y-66121534D01*
X110102367Y-66140101D01*
X110064674Y-66151535D01*
X110019339Y-66156000D01*
X109182661Y-66156000D01*
X109137326Y-66151535D01*
X109099633Y-66140101D01*
X109064897Y-66121534D01*
X109034452Y-66096548D01*
X109009466Y-66066103D01*
X108990899Y-66031367D01*
X108979465Y-65993674D01*
X108975000Y-65948339D01*
X108975000Y-64861661D01*
X108979465Y-64816326D01*
X108990899Y-64778633D01*
X109009466Y-64743897D01*
X109034452Y-64713452D01*
X109064897Y-64688466D01*
X109099633Y-64669899D01*
X109137326Y-64658465D01*
X109182661Y-64654000D01*
X110019339Y-64654000D01*
X110064674Y-64658465D01*
X110064674Y-64658465D01*
G37*
G36*
X151669000Y-65991000D02*
G01*
X149067000Y-65991000D01*
X149067000Y-63389000D01*
X151669000Y-63389000D01*
X151669000Y-65991000D01*
X151669000Y-65991000D01*
G37*
G36*
X103999512Y-63619927D02*
G01*
X104148812Y-63649624D01*
X104312784Y-63717544D01*
X104460354Y-63816147D01*
X104585853Y-63941646D01*
X104684456Y-64089216D01*
X104752376Y-64253188D01*
X104787000Y-64427259D01*
X104787000Y-64604741D01*
X104752376Y-64778812D01*
X104684456Y-64942784D01*
X104585853Y-65090354D01*
X104460354Y-65215853D01*
X104312784Y-65314456D01*
X104148812Y-65382376D01*
X103999512Y-65412073D01*
X103974742Y-65417000D01*
X103797258Y-65417000D01*
X103772488Y-65412073D01*
X103623188Y-65382376D01*
X103459216Y-65314456D01*
X103311646Y-65215853D01*
X103186147Y-65090354D01*
X103087544Y-64942784D01*
X103019624Y-64778812D01*
X102985000Y-64604741D01*
X102985000Y-64427259D01*
X103019624Y-64253188D01*
X103087544Y-64089216D01*
X103186147Y-63941646D01*
X103311646Y-63816147D01*
X103459216Y-63717544D01*
X103623188Y-63649624D01*
X103772488Y-63619927D01*
X103797258Y-63615000D01*
X103974742Y-63615000D01*
X103999512Y-63619927D01*
X103999512Y-63619927D01*
G37*
G36*
X140829512Y-63619927D02*
G01*
X140978812Y-63649624D01*
X141142784Y-63717544D01*
X141290354Y-63816147D01*
X141415853Y-63941646D01*
X141514456Y-64089216D01*
X141582376Y-64253188D01*
X141617000Y-64427259D01*
X141617000Y-64604741D01*
X141582376Y-64778812D01*
X141514456Y-64942784D01*
X141415853Y-65090354D01*
X141290354Y-65215853D01*
X141142784Y-65314456D01*
X140978812Y-65382376D01*
X140829512Y-65412073D01*
X140804742Y-65417000D01*
X140627258Y-65417000D01*
X140602488Y-65412073D01*
X140453188Y-65382376D01*
X140289216Y-65314456D01*
X140141646Y-65215853D01*
X140016147Y-65090354D01*
X139917544Y-64942784D01*
X139849624Y-64778812D01*
X139815000Y-64604741D01*
X139815000Y-64427259D01*
X139849624Y-64253188D01*
X139917544Y-64089216D01*
X140016147Y-63941646D01*
X140141646Y-63816147D01*
X140289216Y-63717544D01*
X140453188Y-63649624D01*
X140602488Y-63619927D01*
X140627258Y-63615000D01*
X140804742Y-63615000D01*
X140829512Y-63619927D01*
X140829512Y-63619927D01*
G37*
G36*
X111720295Y-63827323D02*
G01*
X111727309Y-63829451D01*
X111741077Y-63836810D01*
X111763716Y-63846187D01*
X111787749Y-63850967D01*
X111812253Y-63850967D01*
X111836286Y-63846186D01*
X111858923Y-63836810D01*
X111872691Y-63829451D01*
X111879705Y-63827323D01*
X111893140Y-63826000D01*
X112206860Y-63826000D01*
X112220295Y-63827323D01*
X112227309Y-63829451D01*
X112241077Y-63836810D01*
X112263716Y-63846187D01*
X112287749Y-63850967D01*
X112312253Y-63850967D01*
X112336286Y-63846186D01*
X112358923Y-63836810D01*
X112372691Y-63829451D01*
X112379705Y-63827323D01*
X112393140Y-63826000D01*
X112706860Y-63826000D01*
X112720295Y-63827323D01*
X112727309Y-63829451D01*
X112741077Y-63836810D01*
X112763716Y-63846187D01*
X112787749Y-63850967D01*
X112812253Y-63850967D01*
X112836286Y-63846186D01*
X112858923Y-63836810D01*
X112872691Y-63829451D01*
X112879705Y-63827323D01*
X112893140Y-63826000D01*
X113206860Y-63826000D01*
X113220295Y-63827323D01*
X113227309Y-63829451D01*
X113241077Y-63836810D01*
X113263716Y-63846187D01*
X113287749Y-63850967D01*
X113312253Y-63850967D01*
X113336286Y-63846186D01*
X113358923Y-63836810D01*
X113372691Y-63829451D01*
X113379705Y-63827323D01*
X113393140Y-63826000D01*
X113706860Y-63826000D01*
X113720295Y-63827323D01*
X113727309Y-63829451D01*
X113741077Y-63836810D01*
X113763716Y-63846187D01*
X113787749Y-63850967D01*
X113812253Y-63850967D01*
X113836286Y-63846186D01*
X113858923Y-63836810D01*
X113872691Y-63829451D01*
X113879705Y-63827323D01*
X113893140Y-63826000D01*
X114206860Y-63826000D01*
X114220295Y-63827323D01*
X114227309Y-63829451D01*
X114241077Y-63836810D01*
X114263716Y-63846187D01*
X114287749Y-63850967D01*
X114312253Y-63850967D01*
X114336286Y-63846186D01*
X114358923Y-63836810D01*
X114372691Y-63829451D01*
X114379705Y-63827323D01*
X114393140Y-63826000D01*
X114706860Y-63826000D01*
X114720295Y-63827323D01*
X114727309Y-63829451D01*
X114741077Y-63836810D01*
X114763716Y-63846187D01*
X114787749Y-63850967D01*
X114812253Y-63850967D01*
X114836286Y-63846186D01*
X114858923Y-63836810D01*
X114872691Y-63829451D01*
X114879705Y-63827323D01*
X114893140Y-63826000D01*
X115206860Y-63826000D01*
X115220295Y-63827323D01*
X115227309Y-63829451D01*
X115241077Y-63836810D01*
X115263716Y-63846187D01*
X115287749Y-63850967D01*
X115312253Y-63850967D01*
X115336286Y-63846186D01*
X115358923Y-63836810D01*
X115372691Y-63829451D01*
X115379705Y-63827323D01*
X115393140Y-63826000D01*
X115706860Y-63826000D01*
X115720295Y-63827323D01*
X115727309Y-63829451D01*
X115741077Y-63836810D01*
X115763716Y-63846187D01*
X115787749Y-63850967D01*
X115812253Y-63850967D01*
X115836286Y-63846186D01*
X115858923Y-63836810D01*
X115872691Y-63829451D01*
X115879705Y-63827323D01*
X115893140Y-63826000D01*
X116206860Y-63826000D01*
X116220295Y-63827323D01*
X116227309Y-63829451D01*
X116241077Y-63836810D01*
X116263716Y-63846187D01*
X116287749Y-63850967D01*
X116312253Y-63850967D01*
X116336286Y-63846186D01*
X116358923Y-63836810D01*
X116372691Y-63829451D01*
X116379705Y-63827323D01*
X116393140Y-63826000D01*
X116706860Y-63826000D01*
X116720295Y-63827323D01*
X116727309Y-63829451D01*
X116741077Y-63836810D01*
X116763716Y-63846187D01*
X116787749Y-63850967D01*
X116812253Y-63850967D01*
X116836286Y-63846186D01*
X116858923Y-63836810D01*
X116872691Y-63829451D01*
X116879705Y-63827323D01*
X116893140Y-63826000D01*
X117206860Y-63826000D01*
X117220295Y-63827323D01*
X117227310Y-63829451D01*
X117233776Y-63832908D01*
X117239442Y-63837558D01*
X117244092Y-63843224D01*
X117247549Y-63849690D01*
X117249677Y-63856705D01*
X117251000Y-63870140D01*
X117251000Y-65358860D01*
X117249677Y-65372295D01*
X117247549Y-65379310D01*
X117244092Y-65385776D01*
X117239442Y-65391442D01*
X117233776Y-65396092D01*
X117227310Y-65399549D01*
X117220295Y-65401677D01*
X117206860Y-65403000D01*
X116893140Y-65403000D01*
X116879705Y-65401677D01*
X116872691Y-65399549D01*
X116858923Y-65392190D01*
X116836284Y-65382813D01*
X116812251Y-65378033D01*
X116787747Y-65378033D01*
X116763714Y-65382814D01*
X116741077Y-65392190D01*
X116727309Y-65399549D01*
X116720295Y-65401677D01*
X116706860Y-65403000D01*
X116393140Y-65403000D01*
X116379705Y-65401677D01*
X116372691Y-65399549D01*
X116358923Y-65392190D01*
X116336284Y-65382813D01*
X116312251Y-65378033D01*
X116287747Y-65378033D01*
X116263714Y-65382814D01*
X116241077Y-65392190D01*
X116227309Y-65399549D01*
X116220295Y-65401677D01*
X116206860Y-65403000D01*
X115893140Y-65403000D01*
X115879705Y-65401677D01*
X115872691Y-65399549D01*
X115858923Y-65392190D01*
X115836284Y-65382813D01*
X115812251Y-65378033D01*
X115787747Y-65378033D01*
X115763714Y-65382814D01*
X115741077Y-65392190D01*
X115727309Y-65399549D01*
X115720295Y-65401677D01*
X115706860Y-65403000D01*
X115393140Y-65403000D01*
X115379705Y-65401677D01*
X115372691Y-65399549D01*
X115358923Y-65392190D01*
X115336284Y-65382813D01*
X115312251Y-65378033D01*
X115287747Y-65378033D01*
X115263714Y-65382814D01*
X115241077Y-65392190D01*
X115227309Y-65399549D01*
X115220295Y-65401677D01*
X115206860Y-65403000D01*
X114893140Y-65403000D01*
X114879705Y-65401677D01*
X114872691Y-65399549D01*
X114858923Y-65392190D01*
X114836284Y-65382813D01*
X114812251Y-65378033D01*
X114787747Y-65378033D01*
X114763714Y-65382814D01*
X114741077Y-65392190D01*
X114727309Y-65399549D01*
X114720295Y-65401677D01*
X114706860Y-65403000D01*
X114393140Y-65403000D01*
X114379705Y-65401677D01*
X114372691Y-65399549D01*
X114358923Y-65392190D01*
X114336284Y-65382813D01*
X114312251Y-65378033D01*
X114287747Y-65378033D01*
X114263714Y-65382814D01*
X114241077Y-65392190D01*
X114227309Y-65399549D01*
X114220295Y-65401677D01*
X114206860Y-65403000D01*
X113893140Y-65403000D01*
X113879705Y-65401677D01*
X113872691Y-65399549D01*
X113858923Y-65392190D01*
X113836284Y-65382813D01*
X113812251Y-65378033D01*
X113787747Y-65378033D01*
X113763714Y-65382814D01*
X113741077Y-65392190D01*
X113727309Y-65399549D01*
X113720295Y-65401677D01*
X113706860Y-65403000D01*
X113393140Y-65403000D01*
X113379705Y-65401677D01*
X113372691Y-65399549D01*
X113358923Y-65392190D01*
X113336284Y-65382813D01*
X113312251Y-65378033D01*
X113287747Y-65378033D01*
X113263714Y-65382814D01*
X113241077Y-65392190D01*
X113227309Y-65399549D01*
X113220295Y-65401677D01*
X113206860Y-65403000D01*
X112893140Y-65403000D01*
X112879705Y-65401677D01*
X112872691Y-65399549D01*
X112858923Y-65392190D01*
X112836284Y-65382813D01*
X112812251Y-65378033D01*
X112787747Y-65378033D01*
X112763714Y-65382814D01*
X112741077Y-65392190D01*
X112727309Y-65399549D01*
X112720295Y-65401677D01*
X112706860Y-65403000D01*
X112393140Y-65403000D01*
X112379705Y-65401677D01*
X112372691Y-65399549D01*
X112358923Y-65392190D01*
X112336284Y-65382813D01*
X112312251Y-65378033D01*
X112287747Y-65378033D01*
X112263714Y-65382814D01*
X112241077Y-65392190D01*
X112227309Y-65399549D01*
X112220295Y-65401677D01*
X112206860Y-65403000D01*
X111893140Y-65403000D01*
X111879705Y-65401677D01*
X111872691Y-65399549D01*
X111858923Y-65392190D01*
X111836284Y-65382813D01*
X111812251Y-65378033D01*
X111787747Y-65378033D01*
X111763714Y-65382814D01*
X111741077Y-65392190D01*
X111727309Y-65399549D01*
X111720295Y-65401677D01*
X111706860Y-65403000D01*
X111393140Y-65403000D01*
X111379705Y-65401677D01*
X111372690Y-65399549D01*
X111366224Y-65396092D01*
X111360558Y-65391442D01*
X111355908Y-65385776D01*
X111352451Y-65379310D01*
X111350323Y-65372295D01*
X111349000Y-65358860D01*
X111349000Y-63870140D01*
X111350323Y-63856705D01*
X111352451Y-63849690D01*
X111355908Y-63843224D01*
X111360558Y-63837558D01*
X111366224Y-63832908D01*
X111372690Y-63829451D01*
X111379705Y-63827323D01*
X111393140Y-63826000D01*
X111706860Y-63826000D01*
X111720295Y-63827323D01*
X111720295Y-63827323D01*
G37*
G36*
X97313000Y-64627000D02*
G01*
X94711000Y-64627000D01*
X94711000Y-62025000D01*
X97313000Y-62025000D01*
X97313000Y-64627000D01*
X97313000Y-64627000D01*
G37*
G36*
X135281000Y-64470000D02*
G01*
X128879000Y-64470000D01*
X128879000Y-62618000D01*
X135281000Y-62618000D01*
X135281000Y-64470000D01*
X135281000Y-64470000D01*
G37*
G36*
X106372674Y-62118465D02*
G01*
X106410367Y-62129899D01*
X106445103Y-62148466D01*
X106475548Y-62173452D01*
X106500534Y-62203897D01*
X106519101Y-62238633D01*
X106530535Y-62276326D01*
X106535000Y-62321661D01*
X106535000Y-63408339D01*
X106530535Y-63453674D01*
X106519101Y-63491367D01*
X106500534Y-63526103D01*
X106475548Y-63556548D01*
X106445103Y-63581534D01*
X106410367Y-63600101D01*
X106372674Y-63611535D01*
X106327339Y-63616000D01*
X105490661Y-63616000D01*
X105445326Y-63611535D01*
X105407633Y-63600101D01*
X105372897Y-63581534D01*
X105342452Y-63556548D01*
X105317466Y-63526103D01*
X105298899Y-63491367D01*
X105287465Y-63453674D01*
X105283000Y-63408339D01*
X105283000Y-62321661D01*
X105287465Y-62276326D01*
X105298899Y-62238633D01*
X105317466Y-62203897D01*
X105342452Y-62173452D01*
X105372897Y-62148466D01*
X105407633Y-62129899D01*
X105445326Y-62118465D01*
X105490661Y-62114000D01*
X106327339Y-62114000D01*
X106372674Y-62118465D01*
X106372674Y-62118465D01*
G37*
G36*
X108422674Y-62118465D02*
G01*
X108460367Y-62129899D01*
X108495103Y-62148466D01*
X108525548Y-62173452D01*
X108550534Y-62203897D01*
X108569101Y-62238633D01*
X108580535Y-62276326D01*
X108585000Y-62321661D01*
X108585000Y-63408339D01*
X108580535Y-63453674D01*
X108569101Y-63491367D01*
X108550534Y-63526103D01*
X108525548Y-63556548D01*
X108495103Y-63581534D01*
X108460367Y-63600101D01*
X108422674Y-63611535D01*
X108377339Y-63616000D01*
X107540661Y-63616000D01*
X107495326Y-63611535D01*
X107457633Y-63600101D01*
X107422897Y-63581534D01*
X107392452Y-63556548D01*
X107367466Y-63526103D01*
X107348899Y-63491367D01*
X107337465Y-63453674D01*
X107333000Y-63408339D01*
X107333000Y-62321661D01*
X107337465Y-62276326D01*
X107348899Y-62238633D01*
X107367466Y-62203897D01*
X107392452Y-62173452D01*
X107422897Y-62148466D01*
X107457633Y-62129899D01*
X107495326Y-62118465D01*
X107540661Y-62114000D01*
X108377339Y-62114000D01*
X108422674Y-62118465D01*
X108422674Y-62118465D01*
G37*
G36*
X110895295Y-57502323D02*
G01*
X110902310Y-57504451D01*
X110908776Y-57507908D01*
X110914442Y-57512558D01*
X110919092Y-57518224D01*
X110922549Y-57524690D01*
X110924677Y-57531705D01*
X110926000Y-57545140D01*
X110926000Y-57858860D01*
X110924677Y-57872295D01*
X110922549Y-57879309D01*
X110915190Y-57893077D01*
X110905813Y-57915716D01*
X110901033Y-57939749D01*
X110901033Y-57964253D01*
X110905814Y-57988286D01*
X110915190Y-58010923D01*
X110922549Y-58024691D01*
X110924677Y-58031705D01*
X110926000Y-58045140D01*
X110926000Y-58358860D01*
X110924677Y-58372295D01*
X110922549Y-58379309D01*
X110915190Y-58393077D01*
X110905813Y-58415716D01*
X110901033Y-58439749D01*
X110901033Y-58464253D01*
X110905814Y-58488286D01*
X110915190Y-58510923D01*
X110922549Y-58524691D01*
X110924677Y-58531705D01*
X110926000Y-58545140D01*
X110926000Y-58858860D01*
X110924677Y-58872295D01*
X110922549Y-58879309D01*
X110915190Y-58893077D01*
X110905813Y-58915716D01*
X110901033Y-58939749D01*
X110901033Y-58964253D01*
X110905814Y-58988286D01*
X110915190Y-59010923D01*
X110922549Y-59024691D01*
X110924677Y-59031705D01*
X110926000Y-59045140D01*
X110926000Y-59358860D01*
X110924677Y-59372295D01*
X110922549Y-59379309D01*
X110915190Y-59393077D01*
X110905813Y-59415716D01*
X110901033Y-59439749D01*
X110901033Y-59464253D01*
X110905814Y-59488286D01*
X110915190Y-59510923D01*
X110922549Y-59524691D01*
X110924677Y-59531705D01*
X110926000Y-59545140D01*
X110926000Y-59858860D01*
X110924677Y-59872295D01*
X110922549Y-59879309D01*
X110915190Y-59893077D01*
X110905813Y-59915716D01*
X110901033Y-59939749D01*
X110901033Y-59964253D01*
X110905814Y-59988286D01*
X110915190Y-60010923D01*
X110922549Y-60024691D01*
X110924677Y-60031705D01*
X110926000Y-60045140D01*
X110926000Y-60358860D01*
X110924677Y-60372295D01*
X110922549Y-60379309D01*
X110915190Y-60393077D01*
X110905813Y-60415716D01*
X110901033Y-60439749D01*
X110901033Y-60464253D01*
X110905814Y-60488286D01*
X110915190Y-60510923D01*
X110922549Y-60524691D01*
X110924677Y-60531705D01*
X110926000Y-60545140D01*
X110926000Y-60858860D01*
X110924677Y-60872295D01*
X110922549Y-60879309D01*
X110915190Y-60893077D01*
X110905813Y-60915716D01*
X110901033Y-60939749D01*
X110901033Y-60964253D01*
X110905814Y-60988286D01*
X110915190Y-61010923D01*
X110922549Y-61024691D01*
X110924677Y-61031705D01*
X110926000Y-61045140D01*
X110926000Y-61358860D01*
X110924677Y-61372295D01*
X110922549Y-61379309D01*
X110915190Y-61393077D01*
X110905813Y-61415716D01*
X110901033Y-61439749D01*
X110901033Y-61464253D01*
X110905814Y-61488286D01*
X110915190Y-61510923D01*
X110922549Y-61524691D01*
X110924677Y-61531705D01*
X110926000Y-61545140D01*
X110926000Y-61858860D01*
X110924677Y-61872295D01*
X110922549Y-61879309D01*
X110915190Y-61893077D01*
X110905813Y-61915716D01*
X110901033Y-61939749D01*
X110901033Y-61964253D01*
X110905814Y-61988286D01*
X110915190Y-62010923D01*
X110922549Y-62024691D01*
X110924677Y-62031705D01*
X110926000Y-62045140D01*
X110926000Y-62358860D01*
X110924677Y-62372295D01*
X110922549Y-62379309D01*
X110915190Y-62393077D01*
X110905813Y-62415716D01*
X110901033Y-62439749D01*
X110901033Y-62464253D01*
X110905814Y-62488286D01*
X110915190Y-62510923D01*
X110922549Y-62524691D01*
X110924677Y-62531705D01*
X110926000Y-62545140D01*
X110926000Y-62858860D01*
X110924677Y-62872295D01*
X110922549Y-62879309D01*
X110915190Y-62893077D01*
X110905813Y-62915716D01*
X110901033Y-62939749D01*
X110901033Y-62964253D01*
X110905814Y-62988286D01*
X110915190Y-63010923D01*
X110922549Y-63024691D01*
X110924677Y-63031705D01*
X110926000Y-63045140D01*
X110926000Y-63358860D01*
X110924677Y-63372295D01*
X110922549Y-63379310D01*
X110919092Y-63385776D01*
X110914442Y-63391442D01*
X110908776Y-63396092D01*
X110902310Y-63399549D01*
X110895295Y-63401677D01*
X110881860Y-63403000D01*
X109393140Y-63403000D01*
X109379705Y-63401677D01*
X109372690Y-63399549D01*
X109366224Y-63396092D01*
X109360558Y-63391442D01*
X109355908Y-63385776D01*
X109352451Y-63379310D01*
X109350323Y-63372295D01*
X109349000Y-63358860D01*
X109349000Y-63045140D01*
X109350323Y-63031705D01*
X109352451Y-63024691D01*
X109359810Y-63010923D01*
X109369187Y-62988284D01*
X109373967Y-62964251D01*
X109373967Y-62939747D01*
X109369186Y-62915714D01*
X109359810Y-62893077D01*
X109352451Y-62879309D01*
X109350323Y-62872295D01*
X109349000Y-62858860D01*
X109349000Y-62545140D01*
X109350323Y-62531705D01*
X109352451Y-62524691D01*
X109359810Y-62510923D01*
X109369187Y-62488284D01*
X109373967Y-62464251D01*
X109373967Y-62439747D01*
X109369186Y-62415714D01*
X109359810Y-62393077D01*
X109352451Y-62379309D01*
X109350323Y-62372295D01*
X109349000Y-62358860D01*
X109349000Y-62045140D01*
X109350323Y-62031705D01*
X109352451Y-62024691D01*
X109359810Y-62010923D01*
X109369187Y-61988284D01*
X109373967Y-61964251D01*
X109373967Y-61939747D01*
X109369186Y-61915714D01*
X109359810Y-61893077D01*
X109352451Y-61879309D01*
X109350323Y-61872295D01*
X109349000Y-61858860D01*
X109349000Y-61545140D01*
X109350323Y-61531705D01*
X109352451Y-61524691D01*
X109359810Y-61510923D01*
X109369187Y-61488284D01*
X109373967Y-61464251D01*
X109373967Y-61439747D01*
X109369186Y-61415714D01*
X109359810Y-61393077D01*
X109352451Y-61379309D01*
X109350323Y-61372295D01*
X109349000Y-61358860D01*
X109349000Y-61045140D01*
X109350323Y-61031705D01*
X109352451Y-61024691D01*
X109359810Y-61010923D01*
X109369187Y-60988284D01*
X109373967Y-60964251D01*
X109373967Y-60939747D01*
X109369186Y-60915714D01*
X109359810Y-60893077D01*
X109352451Y-60879309D01*
X109350323Y-60872295D01*
X109349000Y-60858860D01*
X109349000Y-60545140D01*
X109350323Y-60531705D01*
X109352451Y-60524691D01*
X109359810Y-60510923D01*
X109369187Y-60488284D01*
X109373967Y-60464251D01*
X109373967Y-60439747D01*
X109369186Y-60415714D01*
X109359810Y-60393077D01*
X109352451Y-60379309D01*
X109350323Y-60372295D01*
X109349000Y-60358860D01*
X109349000Y-60045140D01*
X109350323Y-60031705D01*
X109352451Y-60024691D01*
X109359810Y-60010923D01*
X109369187Y-59988284D01*
X109373967Y-59964251D01*
X109373967Y-59939747D01*
X109369186Y-59915714D01*
X109359810Y-59893077D01*
X109352451Y-59879309D01*
X109350323Y-59872295D01*
X109349000Y-59858860D01*
X109349000Y-59545140D01*
X109350323Y-59531705D01*
X109352451Y-59524691D01*
X109359810Y-59510923D01*
X109369187Y-59488284D01*
X109373967Y-59464251D01*
X109373967Y-59439747D01*
X109369186Y-59415714D01*
X109359810Y-59393077D01*
X109352451Y-59379309D01*
X109350323Y-59372295D01*
X109349000Y-59358860D01*
X109349000Y-59045140D01*
X109350323Y-59031705D01*
X109352451Y-59024691D01*
X109359810Y-59010923D01*
X109369187Y-58988284D01*
X109373967Y-58964251D01*
X109373967Y-58939747D01*
X109369186Y-58915714D01*
X109359810Y-58893077D01*
X109352451Y-58879309D01*
X109350323Y-58872295D01*
X109349000Y-58858860D01*
X109349000Y-58545140D01*
X109350323Y-58531705D01*
X109352451Y-58524691D01*
X109359810Y-58510923D01*
X109369187Y-58488284D01*
X109373967Y-58464251D01*
X109373967Y-58439747D01*
X109369186Y-58415714D01*
X109359810Y-58393077D01*
X109352451Y-58379309D01*
X109350323Y-58372295D01*
X109349000Y-58358860D01*
X109349000Y-58045140D01*
X109350323Y-58031705D01*
X109352451Y-58024691D01*
X109359810Y-58010923D01*
X109369187Y-57988284D01*
X109373967Y-57964251D01*
X109373967Y-57939747D01*
X109369186Y-57915714D01*
X109359810Y-57893077D01*
X109352451Y-57879309D01*
X109350323Y-57872295D01*
X109349000Y-57858860D01*
X109349000Y-57545140D01*
X109350323Y-57531705D01*
X109352451Y-57524690D01*
X109355908Y-57518224D01*
X109360558Y-57512558D01*
X109366224Y-57507908D01*
X109372690Y-57504451D01*
X109379705Y-57502323D01*
X109393140Y-57501000D01*
X110881860Y-57501000D01*
X110895295Y-57502323D01*
X110895295Y-57502323D01*
G37*
G36*
X119220295Y-57502323D02*
G01*
X119227310Y-57504451D01*
X119233776Y-57507908D01*
X119239442Y-57512558D01*
X119244092Y-57518224D01*
X119247549Y-57524690D01*
X119249677Y-57531705D01*
X119251000Y-57545140D01*
X119251000Y-57858860D01*
X119249677Y-57872295D01*
X119247549Y-57879309D01*
X119240190Y-57893077D01*
X119230813Y-57915716D01*
X119226033Y-57939749D01*
X119226033Y-57964253D01*
X119230814Y-57988286D01*
X119240190Y-58010923D01*
X119247549Y-58024691D01*
X119249677Y-58031705D01*
X119251000Y-58045140D01*
X119251000Y-58358860D01*
X119249677Y-58372295D01*
X119247549Y-58379309D01*
X119240190Y-58393077D01*
X119230813Y-58415716D01*
X119226033Y-58439749D01*
X119226033Y-58464253D01*
X119230814Y-58488286D01*
X119240190Y-58510923D01*
X119247549Y-58524691D01*
X119249677Y-58531705D01*
X119251000Y-58545140D01*
X119251000Y-58858860D01*
X119249677Y-58872295D01*
X119247549Y-58879309D01*
X119240190Y-58893077D01*
X119230813Y-58915716D01*
X119226033Y-58939749D01*
X119226033Y-58964253D01*
X119230814Y-58988286D01*
X119240190Y-59010923D01*
X119247549Y-59024691D01*
X119249677Y-59031705D01*
X119251000Y-59045140D01*
X119251000Y-59358860D01*
X119249677Y-59372295D01*
X119247549Y-59379309D01*
X119240190Y-59393077D01*
X119230813Y-59415716D01*
X119226033Y-59439749D01*
X119226033Y-59464253D01*
X119230814Y-59488286D01*
X119240190Y-59510923D01*
X119247549Y-59524691D01*
X119249677Y-59531705D01*
X119251000Y-59545140D01*
X119251000Y-59858860D01*
X119249677Y-59872295D01*
X119247549Y-59879309D01*
X119240190Y-59893077D01*
X119230813Y-59915716D01*
X119226033Y-59939749D01*
X119226033Y-59964253D01*
X119230814Y-59988286D01*
X119240190Y-60010923D01*
X119247549Y-60024691D01*
X119249677Y-60031705D01*
X119251000Y-60045140D01*
X119251000Y-60358860D01*
X119249677Y-60372295D01*
X119247549Y-60379309D01*
X119240190Y-60393077D01*
X119230813Y-60415716D01*
X119226033Y-60439749D01*
X119226033Y-60464253D01*
X119230814Y-60488286D01*
X119240190Y-60510923D01*
X119247549Y-60524691D01*
X119249677Y-60531705D01*
X119251000Y-60545140D01*
X119251000Y-60858860D01*
X119249677Y-60872295D01*
X119247549Y-60879309D01*
X119240190Y-60893077D01*
X119230813Y-60915716D01*
X119226033Y-60939749D01*
X119226033Y-60964253D01*
X119230814Y-60988286D01*
X119240190Y-61010923D01*
X119247549Y-61024691D01*
X119249677Y-61031705D01*
X119251000Y-61045140D01*
X119251000Y-61358860D01*
X119249677Y-61372295D01*
X119247549Y-61379309D01*
X119240190Y-61393077D01*
X119230813Y-61415716D01*
X119226033Y-61439749D01*
X119226033Y-61464253D01*
X119230814Y-61488286D01*
X119240190Y-61510923D01*
X119247549Y-61524691D01*
X119249677Y-61531705D01*
X119251000Y-61545140D01*
X119251000Y-61858860D01*
X119249677Y-61872295D01*
X119247549Y-61879309D01*
X119240190Y-61893077D01*
X119230813Y-61915716D01*
X119226033Y-61939749D01*
X119226033Y-61964253D01*
X119230814Y-61988286D01*
X119240190Y-62010923D01*
X119247549Y-62024691D01*
X119249677Y-62031705D01*
X119251000Y-62045140D01*
X119251000Y-62358860D01*
X119249677Y-62372295D01*
X119247549Y-62379309D01*
X119240190Y-62393077D01*
X119230813Y-62415716D01*
X119226033Y-62439749D01*
X119226033Y-62464253D01*
X119230814Y-62488286D01*
X119240190Y-62510923D01*
X119247549Y-62524691D01*
X119249677Y-62531705D01*
X119251000Y-62545140D01*
X119251000Y-62858860D01*
X119249677Y-62872295D01*
X119247549Y-62879309D01*
X119240190Y-62893077D01*
X119230813Y-62915716D01*
X119226033Y-62939749D01*
X119226033Y-62964253D01*
X119230814Y-62988286D01*
X119240190Y-63010923D01*
X119247549Y-63024691D01*
X119249677Y-63031705D01*
X119251000Y-63045140D01*
X119251000Y-63358860D01*
X119249677Y-63372295D01*
X119247549Y-63379310D01*
X119244092Y-63385776D01*
X119239442Y-63391442D01*
X119233776Y-63396092D01*
X119227310Y-63399549D01*
X119220295Y-63401677D01*
X119206860Y-63403000D01*
X117718140Y-63403000D01*
X117704705Y-63401677D01*
X117697690Y-63399549D01*
X117691224Y-63396092D01*
X117685558Y-63391442D01*
X117680908Y-63385776D01*
X117677451Y-63379310D01*
X117675323Y-63372295D01*
X117674000Y-63358860D01*
X117674000Y-63045140D01*
X117675323Y-63031705D01*
X117677451Y-63024691D01*
X117684810Y-63010923D01*
X117694187Y-62988284D01*
X117698967Y-62964251D01*
X117698967Y-62939747D01*
X117694186Y-62915714D01*
X117684810Y-62893077D01*
X117677451Y-62879309D01*
X117675323Y-62872295D01*
X117674000Y-62858860D01*
X117674000Y-62545140D01*
X117675323Y-62531705D01*
X117677451Y-62524691D01*
X117684810Y-62510923D01*
X117694187Y-62488284D01*
X117698967Y-62464251D01*
X117698967Y-62439747D01*
X117694186Y-62415714D01*
X117684810Y-62393077D01*
X117677451Y-62379309D01*
X117675323Y-62372295D01*
X117674000Y-62358860D01*
X117674000Y-62045140D01*
X117675323Y-62031705D01*
X117677451Y-62024691D01*
X117684810Y-62010923D01*
X117694187Y-61988284D01*
X117698967Y-61964251D01*
X117698967Y-61939747D01*
X117694186Y-61915714D01*
X117684810Y-61893077D01*
X117677451Y-61879309D01*
X117675323Y-61872295D01*
X117674000Y-61858860D01*
X117674000Y-61545140D01*
X117675323Y-61531705D01*
X117677451Y-61524691D01*
X117684810Y-61510923D01*
X117694187Y-61488284D01*
X117698967Y-61464251D01*
X117698967Y-61439747D01*
X117694186Y-61415714D01*
X117684810Y-61393077D01*
X117677451Y-61379309D01*
X117675323Y-61372295D01*
X117674000Y-61358860D01*
X117674000Y-61045140D01*
X117675323Y-61031705D01*
X117677451Y-61024691D01*
X117684810Y-61010923D01*
X117694187Y-60988284D01*
X117698967Y-60964251D01*
X117698967Y-60939747D01*
X117694186Y-60915714D01*
X117684810Y-60893077D01*
X117677451Y-60879309D01*
X117675323Y-60872295D01*
X117674000Y-60858860D01*
X117674000Y-60545140D01*
X117675323Y-60531705D01*
X117677451Y-60524691D01*
X117684810Y-60510923D01*
X117694187Y-60488284D01*
X117698967Y-60464251D01*
X117698967Y-60439747D01*
X117694186Y-60415714D01*
X117684810Y-60393077D01*
X117677451Y-60379309D01*
X117675323Y-60372295D01*
X117674000Y-60358860D01*
X117674000Y-60045140D01*
X117675323Y-60031705D01*
X117677451Y-60024691D01*
X117684810Y-60010923D01*
X117694187Y-59988284D01*
X117698967Y-59964251D01*
X117698967Y-59939747D01*
X117694186Y-59915714D01*
X117684810Y-59893077D01*
X117677451Y-59879309D01*
X117675323Y-59872295D01*
X117674000Y-59858860D01*
X117674000Y-59545140D01*
X117675323Y-59531705D01*
X117677451Y-59524691D01*
X117684810Y-59510923D01*
X117694187Y-59488284D01*
X117698967Y-59464251D01*
X117698967Y-59439747D01*
X117694186Y-59415714D01*
X117684810Y-59393077D01*
X117677451Y-59379309D01*
X117675323Y-59372295D01*
X117674000Y-59358860D01*
X117674000Y-59045140D01*
X117675323Y-59031705D01*
X117677451Y-59024691D01*
X117684810Y-59010923D01*
X117694187Y-58988284D01*
X117698967Y-58964251D01*
X117698967Y-58939747D01*
X117694186Y-58915714D01*
X117684810Y-58893077D01*
X117677451Y-58879309D01*
X117675323Y-58872295D01*
X117674000Y-58858860D01*
X117674000Y-58545140D01*
X117675323Y-58531705D01*
X117677451Y-58524691D01*
X117684810Y-58510923D01*
X117694187Y-58488284D01*
X117698967Y-58464251D01*
X117698967Y-58439747D01*
X117694186Y-58415714D01*
X117684810Y-58393077D01*
X117677451Y-58379309D01*
X117675323Y-58372295D01*
X117674000Y-58358860D01*
X117674000Y-58045140D01*
X117675323Y-58031705D01*
X117677451Y-58024691D01*
X117684810Y-58010923D01*
X117694187Y-57988284D01*
X117698967Y-57964251D01*
X117698967Y-57939747D01*
X117694186Y-57915714D01*
X117684810Y-57893077D01*
X117677451Y-57879309D01*
X117675323Y-57872295D01*
X117674000Y-57858860D01*
X117674000Y-57545140D01*
X117675323Y-57531705D01*
X117677451Y-57524690D01*
X117680908Y-57518224D01*
X117685558Y-57512558D01*
X117691224Y-57507908D01*
X117697690Y-57504451D01*
X117704705Y-57502323D01*
X117718140Y-57501000D01*
X119206860Y-57501000D01*
X119220295Y-57502323D01*
X119220295Y-57502323D01*
G37*
G36*
X103999512Y-61079927D02*
G01*
X104148812Y-61109624D01*
X104312784Y-61177544D01*
X104460354Y-61276147D01*
X104585853Y-61401646D01*
X104684456Y-61549216D01*
X104752376Y-61713188D01*
X104787000Y-61887259D01*
X104787000Y-62064741D01*
X104752376Y-62238812D01*
X104684456Y-62402784D01*
X104585853Y-62550354D01*
X104460354Y-62675853D01*
X104312784Y-62774456D01*
X104148812Y-62842376D01*
X103999512Y-62872073D01*
X103974742Y-62877000D01*
X103797258Y-62877000D01*
X103772488Y-62872073D01*
X103623188Y-62842376D01*
X103459216Y-62774456D01*
X103311646Y-62675853D01*
X103186147Y-62550354D01*
X103087544Y-62402784D01*
X103019624Y-62238812D01*
X102985000Y-62064741D01*
X102985000Y-61887259D01*
X103019624Y-61713188D01*
X103087544Y-61549216D01*
X103186147Y-61401646D01*
X103311646Y-61276147D01*
X103459216Y-61177544D01*
X103623188Y-61109624D01*
X103772488Y-61079927D01*
X103797258Y-61075000D01*
X103974742Y-61075000D01*
X103999512Y-61079927D01*
X103999512Y-61079927D01*
G37*
G36*
X140829512Y-61079927D02*
G01*
X140978812Y-61109624D01*
X141142784Y-61177544D01*
X141290354Y-61276147D01*
X141415853Y-61401646D01*
X141514456Y-61549216D01*
X141582376Y-61713188D01*
X141617000Y-61887259D01*
X141617000Y-62064741D01*
X141582376Y-62238812D01*
X141514456Y-62402784D01*
X141415853Y-62550354D01*
X141290354Y-62675853D01*
X141142784Y-62774456D01*
X140978812Y-62842376D01*
X140829512Y-62872073D01*
X140804742Y-62877000D01*
X140627258Y-62877000D01*
X140602488Y-62872073D01*
X140453188Y-62842376D01*
X140289216Y-62774456D01*
X140141646Y-62675853D01*
X140016147Y-62550354D01*
X139917544Y-62402784D01*
X139849624Y-62238812D01*
X139815000Y-62064741D01*
X139815000Y-61887259D01*
X139849624Y-61713188D01*
X139917544Y-61549216D01*
X140016147Y-61401646D01*
X140141646Y-61276147D01*
X140289216Y-61177544D01*
X140453188Y-61109624D01*
X140602488Y-61079927D01*
X140627258Y-61075000D01*
X140804742Y-61075000D01*
X140829512Y-61079927D01*
X140829512Y-61079927D01*
G37*
G36*
X144777999Y-59139737D02*
G01*
X144787608Y-59142652D01*
X144796472Y-59147390D01*
X144804237Y-59153763D01*
X144810610Y-59161528D01*
X144815348Y-59170392D01*
X144818263Y-59180001D01*
X144819852Y-59196140D01*
X144819852Y-60183860D01*
X144818263Y-60199999D01*
X144815348Y-60209608D01*
X144810610Y-60218472D01*
X144804258Y-60226212D01*
X144804237Y-60226237D01*
X144796427Y-60232640D01*
X144796372Y-60232677D01*
X144786853Y-60240480D01*
X144786878Y-60240511D01*
X144773028Y-60251853D01*
X144757463Y-60270779D01*
X144745889Y-60292377D01*
X144738751Y-60315819D01*
X144736324Y-60340202D01*
X144738700Y-60364591D01*
X144745789Y-60388047D01*
X144757318Y-60409670D01*
X144772843Y-60428628D01*
X144791769Y-60444193D01*
X144794825Y-60446029D01*
X144796514Y-60447418D01*
X144796516Y-60447419D01*
X144802712Y-60452515D01*
X144804274Y-60453800D01*
X144810642Y-60461575D01*
X144813791Y-60467483D01*
X144815367Y-60470438D01*
X144818257Y-60480001D01*
X144818282Y-60480085D01*
X144819852Y-60496113D01*
X144819852Y-61633860D01*
X144818263Y-61649999D01*
X144815348Y-61659608D01*
X144810610Y-61668472D01*
X144804237Y-61676237D01*
X144796472Y-61682610D01*
X144787608Y-61687348D01*
X144777999Y-61690263D01*
X144761860Y-61691852D01*
X143274140Y-61691852D01*
X143258001Y-61690263D01*
X143248392Y-61687348D01*
X143239528Y-61682610D01*
X143231763Y-61676237D01*
X143225390Y-61668472D01*
X143220652Y-61659608D01*
X143217737Y-61649999D01*
X143216148Y-61633860D01*
X143216148Y-60496140D01*
X143217737Y-60480001D01*
X143220652Y-60470392D01*
X143225390Y-60461528D01*
X143231763Y-60453763D01*
X143244737Y-60443116D01*
X143253968Y-60436947D01*
X143271294Y-60419619D01*
X143284907Y-60399244D01*
X143294283Y-60376605D01*
X143299063Y-60352572D01*
X143299062Y-60328068D01*
X143294280Y-60304035D01*
X143284902Y-60281396D01*
X143271287Y-60261022D01*
X143253959Y-60243696D01*
X143244683Y-60236825D01*
X143231800Y-60226274D01*
X143230668Y-60224897D01*
X143225419Y-60218516D01*
X143220674Y-60209661D01*
X143219749Y-60206623D01*
X143217758Y-60200085D01*
X143217758Y-60200082D01*
X143217748Y-60200050D01*
X143216753Y-60190000D01*
X143216753Y-60189935D01*
X143216148Y-60183825D01*
X143216148Y-59196140D01*
X143217737Y-59180001D01*
X143220652Y-59170392D01*
X143225390Y-59161528D01*
X143231763Y-59153763D01*
X143239528Y-59147390D01*
X143248392Y-59142652D01*
X143258001Y-59139737D01*
X143274140Y-59138148D01*
X144761860Y-59138148D01*
X144777999Y-59139737D01*
X144777999Y-59139737D01*
G37*
G36*
X106760674Y-59848465D02*
G01*
X106798367Y-59859899D01*
X106833103Y-59878466D01*
X106863548Y-59903452D01*
X106888534Y-59933897D01*
X106907101Y-59968633D01*
X106918535Y-60006326D01*
X106923000Y-60051661D01*
X106923000Y-60888339D01*
X106918535Y-60933674D01*
X106907101Y-60971367D01*
X106888534Y-61006103D01*
X106863548Y-61036548D01*
X106833103Y-61061534D01*
X106798367Y-61080101D01*
X106760674Y-61091535D01*
X106715339Y-61096000D01*
X105628661Y-61096000D01*
X105583326Y-61091535D01*
X105545633Y-61080101D01*
X105510897Y-61061534D01*
X105480452Y-61036548D01*
X105455466Y-61006103D01*
X105436899Y-60971367D01*
X105425465Y-60933674D01*
X105421000Y-60888339D01*
X105421000Y-60051661D01*
X105425465Y-60006326D01*
X105436899Y-59968633D01*
X105455466Y-59933897D01*
X105480452Y-59903452D01*
X105510897Y-59878466D01*
X105545633Y-59859899D01*
X105583326Y-59848465D01*
X105628661Y-59844000D01*
X106715339Y-59844000D01*
X106760674Y-59848465D01*
X106760674Y-59848465D01*
G37*
G36*
X150747487Y-58438996D02*
G01*
X150979260Y-58535000D01*
X150984255Y-58537069D01*
X151197339Y-58679447D01*
X151378553Y-58860661D01*
X151502169Y-59045665D01*
X151520932Y-59073747D01*
X151619004Y-59310513D01*
X151669000Y-59561861D01*
X151669000Y-59818139D01*
X151619004Y-60069487D01*
X151521851Y-60304035D01*
X151520931Y-60306255D01*
X151378553Y-60519339D01*
X151197339Y-60700553D01*
X150984255Y-60842931D01*
X150984254Y-60842932D01*
X150984253Y-60842932D01*
X150747487Y-60941004D01*
X150496139Y-60991000D01*
X150239861Y-60991000D01*
X149988513Y-60941004D01*
X149751747Y-60842932D01*
X149751746Y-60842932D01*
X149751745Y-60842931D01*
X149538661Y-60700553D01*
X149357447Y-60519339D01*
X149215069Y-60306255D01*
X149214149Y-60304035D01*
X149116996Y-60069487D01*
X149067000Y-59818139D01*
X149067000Y-59561861D01*
X149116996Y-59310513D01*
X149215068Y-59073747D01*
X149233832Y-59045665D01*
X149357447Y-58860661D01*
X149538661Y-58679447D01*
X149751745Y-58537069D01*
X149756740Y-58535000D01*
X149988513Y-58438996D01*
X150239861Y-58389000D01*
X150496139Y-58389000D01*
X150747487Y-58438996D01*
X150747487Y-58438996D01*
G37*
G36*
X103985138Y-58537068D02*
G01*
X104148812Y-58569624D01*
X104312784Y-58637544D01*
X104460354Y-58736147D01*
X104585853Y-58861646D01*
X104684456Y-59009216D01*
X104752376Y-59173188D01*
X104778097Y-59302500D01*
X104787000Y-59347258D01*
X104787000Y-59524742D01*
X104782838Y-59545665D01*
X104752376Y-59698812D01*
X104684456Y-59862784D01*
X104585853Y-60010354D01*
X104460354Y-60135853D01*
X104312784Y-60234456D01*
X104148812Y-60302376D01*
X104019646Y-60328068D01*
X103974742Y-60337000D01*
X103797258Y-60337000D01*
X103752354Y-60328068D01*
X103623188Y-60302376D01*
X103459216Y-60234456D01*
X103311646Y-60135853D01*
X103186147Y-60010354D01*
X103087544Y-59862784D01*
X103019624Y-59698812D01*
X102989162Y-59545665D01*
X102985000Y-59524742D01*
X102985000Y-59347258D01*
X102993903Y-59302500D01*
X103019624Y-59173188D01*
X103087544Y-59009216D01*
X103186147Y-58861646D01*
X103311646Y-58736147D01*
X103459216Y-58637544D01*
X103623188Y-58569624D01*
X103786862Y-58537068D01*
X103797258Y-58535000D01*
X103974742Y-58535000D01*
X103985138Y-58537068D01*
X103985138Y-58537068D01*
G37*
G36*
X140815138Y-58537068D02*
G01*
X140978812Y-58569624D01*
X141142784Y-58637544D01*
X141290354Y-58736147D01*
X141415853Y-58861646D01*
X141514456Y-59009216D01*
X141582376Y-59173188D01*
X141608097Y-59302500D01*
X141617000Y-59347258D01*
X141617000Y-59524742D01*
X141612838Y-59545665D01*
X141582376Y-59698812D01*
X141514456Y-59862784D01*
X141415853Y-60010354D01*
X141290354Y-60135853D01*
X141142784Y-60234456D01*
X140978812Y-60302376D01*
X140849646Y-60328068D01*
X140804742Y-60337000D01*
X140627258Y-60337000D01*
X140582354Y-60328068D01*
X140453188Y-60302376D01*
X140289216Y-60234456D01*
X140141646Y-60135853D01*
X140016147Y-60010354D01*
X139917544Y-59862784D01*
X139849624Y-59698812D01*
X139819162Y-59545665D01*
X139815000Y-59524742D01*
X139815000Y-59347258D01*
X139823903Y-59302500D01*
X139849624Y-59173188D01*
X139917544Y-59009216D01*
X140016147Y-58861646D01*
X140141646Y-58736147D01*
X140289216Y-58637544D01*
X140453188Y-58569624D01*
X140616862Y-58537068D01*
X140627258Y-58535000D01*
X140804742Y-58535000D01*
X140815138Y-58537068D01*
X140815138Y-58537068D01*
G37*
G36*
X106760674Y-57798465D02*
G01*
X106798367Y-57809899D01*
X106833103Y-57828466D01*
X106863548Y-57853452D01*
X106888534Y-57883897D01*
X106907101Y-57918633D01*
X106918535Y-57956326D01*
X106923000Y-58001661D01*
X106923000Y-58838339D01*
X106918535Y-58883674D01*
X106907101Y-58921367D01*
X106888534Y-58956103D01*
X106863548Y-58986548D01*
X106833103Y-59011534D01*
X106798367Y-59030101D01*
X106760674Y-59041535D01*
X106715339Y-59046000D01*
X105628661Y-59046000D01*
X105583326Y-59041535D01*
X105545633Y-59030101D01*
X105510897Y-59011534D01*
X105480452Y-58986548D01*
X105455466Y-58956103D01*
X105436899Y-58921367D01*
X105425465Y-58883674D01*
X105421000Y-58838339D01*
X105421000Y-58001661D01*
X105425465Y-57956326D01*
X105436899Y-57918633D01*
X105455466Y-57883897D01*
X105480452Y-57853452D01*
X105510897Y-57828466D01*
X105545633Y-57809899D01*
X105583326Y-57798465D01*
X105628661Y-57794000D01*
X106715339Y-57794000D01*
X106760674Y-57798465D01*
X106760674Y-57798465D01*
G37*
G36*
X103999512Y-55999927D02*
G01*
X104148812Y-56029624D01*
X104312784Y-56097544D01*
X104460354Y-56196147D01*
X104585853Y-56321646D01*
X104684456Y-56469216D01*
X104752376Y-56633188D01*
X104787000Y-56807259D01*
X104787000Y-56984741D01*
X104752376Y-57158812D01*
X104684456Y-57322784D01*
X104585853Y-57470354D01*
X104460354Y-57595853D01*
X104312784Y-57694456D01*
X104148812Y-57762376D01*
X103999512Y-57792073D01*
X103974742Y-57797000D01*
X103797258Y-57797000D01*
X103772488Y-57792073D01*
X103623188Y-57762376D01*
X103459216Y-57694456D01*
X103311646Y-57595853D01*
X103186147Y-57470354D01*
X103087544Y-57322784D01*
X103019624Y-57158812D01*
X102985000Y-56984741D01*
X102985000Y-56807259D01*
X103019624Y-56633188D01*
X103087544Y-56469216D01*
X103186147Y-56321646D01*
X103311646Y-56196147D01*
X103459216Y-56097544D01*
X103623188Y-56029624D01*
X103772488Y-55999927D01*
X103797258Y-55995000D01*
X103974742Y-55995000D01*
X103999512Y-55999927D01*
X103999512Y-55999927D01*
G37*
G36*
X140829512Y-55999927D02*
G01*
X140978812Y-56029624D01*
X141142784Y-56097544D01*
X141290354Y-56196147D01*
X141415853Y-56321646D01*
X141514456Y-56469216D01*
X141582376Y-56633188D01*
X141617000Y-56807259D01*
X141617000Y-56984741D01*
X141582376Y-57158812D01*
X141514456Y-57322784D01*
X141415853Y-57470354D01*
X141290354Y-57595853D01*
X141142784Y-57694456D01*
X140978812Y-57762376D01*
X140829512Y-57792073D01*
X140804742Y-57797000D01*
X140627258Y-57797000D01*
X140602488Y-57792073D01*
X140453188Y-57762376D01*
X140289216Y-57694456D01*
X140141646Y-57595853D01*
X140016147Y-57470354D01*
X139917544Y-57322784D01*
X139849624Y-57158812D01*
X139815000Y-56984741D01*
X139815000Y-56807259D01*
X139849624Y-56633188D01*
X139917544Y-56469216D01*
X140016147Y-56321646D01*
X140141646Y-56196147D01*
X140289216Y-56097544D01*
X140453188Y-56029624D01*
X140602488Y-55999927D01*
X140627258Y-55995000D01*
X140804742Y-55995000D01*
X140829512Y-55999927D01*
X140829512Y-55999927D01*
G37*
G36*
X135281000Y-57270000D02*
G01*
X128879000Y-57270000D01*
X128879000Y-55418000D01*
X135281000Y-55418000D01*
X135281000Y-57270000D01*
X135281000Y-57270000D01*
G37*
G36*
X99002719Y-55097520D02*
G01*
X99190413Y-55154456D01*
X99191883Y-55154902D01*
X99229238Y-55174869D01*
X99366212Y-55248083D01*
X99519015Y-55373485D01*
X99644417Y-55526288D01*
X99737599Y-55700619D01*
X99794980Y-55889780D01*
X99809500Y-56037206D01*
X99809500Y-56230793D01*
X99794980Y-56378219D01*
X99767376Y-56469218D01*
X99737598Y-56567383D01*
X99728111Y-56585131D01*
X99644417Y-56741712D01*
X99519015Y-56894515D01*
X99366212Y-57019917D01*
X99191881Y-57113099D01*
X99002720Y-57170480D01*
X98806000Y-57189855D01*
X98609281Y-57170480D01*
X98420120Y-57113099D01*
X98245788Y-57019917D01*
X98092985Y-56894515D01*
X97967583Y-56741712D01*
X97874401Y-56567381D01*
X97817020Y-56378220D01*
X97802500Y-56230794D01*
X97802500Y-56037207D01*
X97817020Y-55889781D01*
X97874401Y-55700620D01*
X97874402Y-55700617D01*
X97957226Y-55545665D01*
X97967583Y-55526288D01*
X98092985Y-55373485D01*
X98245788Y-55248083D01*
X98420119Y-55154901D01*
X98609280Y-55097520D01*
X98806000Y-55078145D01*
X99002719Y-55097520D01*
X99002719Y-55097520D01*
G37*
G36*
X96462719Y-55097520D02*
G01*
X96650413Y-55154456D01*
X96651883Y-55154902D01*
X96689238Y-55174869D01*
X96826212Y-55248083D01*
X96979015Y-55373485D01*
X97104417Y-55526288D01*
X97197599Y-55700619D01*
X97254980Y-55889780D01*
X97269500Y-56037206D01*
X97269500Y-56230793D01*
X97254980Y-56378219D01*
X97227376Y-56469218D01*
X97197598Y-56567383D01*
X97188111Y-56585131D01*
X97104417Y-56741712D01*
X96979015Y-56894515D01*
X96826212Y-57019917D01*
X96651881Y-57113099D01*
X96462720Y-57170480D01*
X96266000Y-57189855D01*
X96069281Y-57170480D01*
X95880120Y-57113099D01*
X95705788Y-57019917D01*
X95552985Y-56894515D01*
X95427583Y-56741712D01*
X95334401Y-56567381D01*
X95277020Y-56378220D01*
X95262500Y-56230794D01*
X95262500Y-56037207D01*
X95277020Y-55889781D01*
X95334401Y-55700620D01*
X95334402Y-55700617D01*
X95417226Y-55545665D01*
X95427583Y-55526288D01*
X95552985Y-55373485D01*
X95705788Y-55248083D01*
X95880119Y-55154901D01*
X96069280Y-55097520D01*
X96266000Y-55078145D01*
X96462719Y-55097520D01*
X96462719Y-55097520D01*
G37*
G36*
X94729500Y-57185000D02*
G01*
X92722500Y-57185000D01*
X92722500Y-55083000D01*
X94729500Y-55083000D01*
X94729500Y-57185000D01*
X94729500Y-57185000D01*
G37*
G36*
X111720295Y-55502323D02*
G01*
X111727309Y-55504451D01*
X111741077Y-55511810D01*
X111763716Y-55521187D01*
X111787749Y-55525967D01*
X111812253Y-55525967D01*
X111836286Y-55521186D01*
X111858923Y-55511810D01*
X111872691Y-55504451D01*
X111879705Y-55502323D01*
X111893140Y-55501000D01*
X112206860Y-55501000D01*
X112220295Y-55502323D01*
X112227309Y-55504451D01*
X112241077Y-55511810D01*
X112263716Y-55521187D01*
X112287749Y-55525967D01*
X112312253Y-55525967D01*
X112336286Y-55521186D01*
X112358923Y-55511810D01*
X112372691Y-55504451D01*
X112379705Y-55502323D01*
X112393140Y-55501000D01*
X112706860Y-55501000D01*
X112720295Y-55502323D01*
X112727309Y-55504451D01*
X112741077Y-55511810D01*
X112763716Y-55521187D01*
X112787749Y-55525967D01*
X112812253Y-55525967D01*
X112836286Y-55521186D01*
X112858923Y-55511810D01*
X112872691Y-55504451D01*
X112879705Y-55502323D01*
X112893140Y-55501000D01*
X113206860Y-55501000D01*
X113220295Y-55502323D01*
X113227309Y-55504451D01*
X113241077Y-55511810D01*
X113263716Y-55521187D01*
X113287749Y-55525967D01*
X113312253Y-55525967D01*
X113336286Y-55521186D01*
X113358923Y-55511810D01*
X113372691Y-55504451D01*
X113379705Y-55502323D01*
X113393140Y-55501000D01*
X113706860Y-55501000D01*
X113720295Y-55502323D01*
X113727309Y-55504451D01*
X113741077Y-55511810D01*
X113763716Y-55521187D01*
X113787749Y-55525967D01*
X113812253Y-55525967D01*
X113836286Y-55521186D01*
X113858923Y-55511810D01*
X113872691Y-55504451D01*
X113879705Y-55502323D01*
X113893140Y-55501000D01*
X114206860Y-55501000D01*
X114220295Y-55502323D01*
X114227309Y-55504451D01*
X114241077Y-55511810D01*
X114263716Y-55521187D01*
X114287749Y-55525967D01*
X114312253Y-55525967D01*
X114336286Y-55521186D01*
X114358923Y-55511810D01*
X114372691Y-55504451D01*
X114379705Y-55502323D01*
X114393140Y-55501000D01*
X114706860Y-55501000D01*
X114720295Y-55502323D01*
X114727309Y-55504451D01*
X114741077Y-55511810D01*
X114763716Y-55521187D01*
X114787749Y-55525967D01*
X114812253Y-55525967D01*
X114836286Y-55521186D01*
X114858923Y-55511810D01*
X114872691Y-55504451D01*
X114879705Y-55502323D01*
X114893140Y-55501000D01*
X115206860Y-55501000D01*
X115220295Y-55502323D01*
X115227309Y-55504451D01*
X115241077Y-55511810D01*
X115263716Y-55521187D01*
X115287749Y-55525967D01*
X115312253Y-55525967D01*
X115336286Y-55521186D01*
X115358923Y-55511810D01*
X115372691Y-55504451D01*
X115379705Y-55502323D01*
X115393140Y-55501000D01*
X115706860Y-55501000D01*
X115720295Y-55502323D01*
X115727309Y-55504451D01*
X115741077Y-55511810D01*
X115763716Y-55521187D01*
X115787749Y-55525967D01*
X115812253Y-55525967D01*
X115836286Y-55521186D01*
X115858923Y-55511810D01*
X115872691Y-55504451D01*
X115879705Y-55502323D01*
X115893140Y-55501000D01*
X116206860Y-55501000D01*
X116220295Y-55502323D01*
X116227309Y-55504451D01*
X116241077Y-55511810D01*
X116263716Y-55521187D01*
X116287749Y-55525967D01*
X116312253Y-55525967D01*
X116336286Y-55521186D01*
X116358923Y-55511810D01*
X116372691Y-55504451D01*
X116379705Y-55502323D01*
X116393140Y-55501000D01*
X116706860Y-55501000D01*
X116720295Y-55502323D01*
X116727309Y-55504451D01*
X116741077Y-55511810D01*
X116763716Y-55521187D01*
X116787749Y-55525967D01*
X116812253Y-55525967D01*
X116836286Y-55521186D01*
X116858923Y-55511810D01*
X116872691Y-55504451D01*
X116879705Y-55502323D01*
X116893140Y-55501000D01*
X117206860Y-55501000D01*
X117220295Y-55502323D01*
X117227310Y-55504451D01*
X117233776Y-55507908D01*
X117239442Y-55512558D01*
X117244092Y-55518224D01*
X117247549Y-55524690D01*
X117249677Y-55531705D01*
X117251000Y-55545140D01*
X117251000Y-57033860D01*
X117249677Y-57047295D01*
X117247549Y-57054310D01*
X117244092Y-57060776D01*
X117239442Y-57066442D01*
X117233776Y-57071092D01*
X117227310Y-57074549D01*
X117220295Y-57076677D01*
X117206860Y-57078000D01*
X116893140Y-57078000D01*
X116879705Y-57076677D01*
X116872691Y-57074549D01*
X116858923Y-57067190D01*
X116836284Y-57057813D01*
X116812251Y-57053033D01*
X116787747Y-57053033D01*
X116763714Y-57057814D01*
X116741077Y-57067190D01*
X116727309Y-57074549D01*
X116720295Y-57076677D01*
X116706860Y-57078000D01*
X116393140Y-57078000D01*
X116379705Y-57076677D01*
X116372691Y-57074549D01*
X116358923Y-57067190D01*
X116336284Y-57057813D01*
X116312251Y-57053033D01*
X116287747Y-57053033D01*
X116263714Y-57057814D01*
X116241077Y-57067190D01*
X116227309Y-57074549D01*
X116220295Y-57076677D01*
X116206860Y-57078000D01*
X115893140Y-57078000D01*
X115879705Y-57076677D01*
X115872691Y-57074549D01*
X115858923Y-57067190D01*
X115836284Y-57057813D01*
X115812251Y-57053033D01*
X115787747Y-57053033D01*
X115763714Y-57057814D01*
X115741077Y-57067190D01*
X115727309Y-57074549D01*
X115720295Y-57076677D01*
X115706860Y-57078000D01*
X115393140Y-57078000D01*
X115379705Y-57076677D01*
X115372691Y-57074549D01*
X115358923Y-57067190D01*
X115336284Y-57057813D01*
X115312251Y-57053033D01*
X115287747Y-57053033D01*
X115263714Y-57057814D01*
X115241077Y-57067190D01*
X115227309Y-57074549D01*
X115220295Y-57076677D01*
X115206860Y-57078000D01*
X114893140Y-57078000D01*
X114879705Y-57076677D01*
X114872691Y-57074549D01*
X114858923Y-57067190D01*
X114836284Y-57057813D01*
X114812251Y-57053033D01*
X114787747Y-57053033D01*
X114763714Y-57057814D01*
X114741077Y-57067190D01*
X114727309Y-57074549D01*
X114720295Y-57076677D01*
X114706860Y-57078000D01*
X114393140Y-57078000D01*
X114379705Y-57076677D01*
X114372691Y-57074549D01*
X114358923Y-57067190D01*
X114336284Y-57057813D01*
X114312251Y-57053033D01*
X114287747Y-57053033D01*
X114263714Y-57057814D01*
X114241077Y-57067190D01*
X114227309Y-57074549D01*
X114220295Y-57076677D01*
X114206860Y-57078000D01*
X113893140Y-57078000D01*
X113879705Y-57076677D01*
X113872691Y-57074549D01*
X113858923Y-57067190D01*
X113836284Y-57057813D01*
X113812251Y-57053033D01*
X113787747Y-57053033D01*
X113763714Y-57057814D01*
X113741077Y-57067190D01*
X113727309Y-57074549D01*
X113720295Y-57076677D01*
X113706860Y-57078000D01*
X113393140Y-57078000D01*
X113379705Y-57076677D01*
X113372691Y-57074549D01*
X113358923Y-57067190D01*
X113336284Y-57057813D01*
X113312251Y-57053033D01*
X113287747Y-57053033D01*
X113263714Y-57057814D01*
X113241077Y-57067190D01*
X113227309Y-57074549D01*
X113220295Y-57076677D01*
X113206860Y-57078000D01*
X112893140Y-57078000D01*
X112879705Y-57076677D01*
X112872691Y-57074549D01*
X112858923Y-57067190D01*
X112836284Y-57057813D01*
X112812251Y-57053033D01*
X112787747Y-57053033D01*
X112763714Y-57057814D01*
X112741077Y-57067190D01*
X112727309Y-57074549D01*
X112720295Y-57076677D01*
X112706860Y-57078000D01*
X112393140Y-57078000D01*
X112379705Y-57076677D01*
X112372691Y-57074549D01*
X112358923Y-57067190D01*
X112336284Y-57057813D01*
X112312251Y-57053033D01*
X112287747Y-57053033D01*
X112263714Y-57057814D01*
X112241077Y-57067190D01*
X112227309Y-57074549D01*
X112220295Y-57076677D01*
X112206860Y-57078000D01*
X111893140Y-57078000D01*
X111879705Y-57076677D01*
X111872691Y-57074549D01*
X111858923Y-57067190D01*
X111836284Y-57057813D01*
X111812251Y-57053033D01*
X111787747Y-57053033D01*
X111763714Y-57057814D01*
X111741077Y-57067190D01*
X111727309Y-57074549D01*
X111720295Y-57076677D01*
X111706860Y-57078000D01*
X111393140Y-57078000D01*
X111379705Y-57076677D01*
X111372690Y-57074549D01*
X111366224Y-57071092D01*
X111360558Y-57066442D01*
X111355908Y-57060776D01*
X111352451Y-57054310D01*
X111350323Y-57047295D01*
X111349000Y-57033860D01*
X111349000Y-55545140D01*
X111350323Y-55531705D01*
X111352451Y-55524690D01*
X111355908Y-55518224D01*
X111360558Y-55512558D01*
X111366224Y-55507908D01*
X111372690Y-55504451D01*
X111379705Y-55502323D01*
X111393140Y-55501000D01*
X111706860Y-55501000D01*
X111720295Y-55502323D01*
X111720295Y-55502323D01*
G37*
G36*
X119843674Y-55133465D02*
G01*
X119881367Y-55144899D01*
X119916103Y-55163466D01*
X119946548Y-55188452D01*
X119971534Y-55218897D01*
X119990101Y-55253633D01*
X120001535Y-55291326D01*
X120006000Y-55336661D01*
X120006000Y-56423339D01*
X120001535Y-56468674D01*
X119990101Y-56506367D01*
X119971534Y-56541103D01*
X119946548Y-56571548D01*
X119916103Y-56596534D01*
X119881367Y-56615101D01*
X119843674Y-56626535D01*
X119798339Y-56631000D01*
X118961661Y-56631000D01*
X118916326Y-56626535D01*
X118878633Y-56615101D01*
X118843897Y-56596534D01*
X118813452Y-56571548D01*
X118788466Y-56541103D01*
X118769899Y-56506367D01*
X118758465Y-56468674D01*
X118754000Y-56423339D01*
X118754000Y-55336661D01*
X118758465Y-55291326D01*
X118769899Y-55253633D01*
X118788466Y-55218897D01*
X118813452Y-55188452D01*
X118843897Y-55163466D01*
X118878633Y-55144899D01*
X118916326Y-55133465D01*
X118961661Y-55129000D01*
X119798339Y-55129000D01*
X119843674Y-55133465D01*
X119843674Y-55133465D01*
G37*
G36*
X121893674Y-55133465D02*
G01*
X121931367Y-55144899D01*
X121966103Y-55163466D01*
X121996548Y-55188452D01*
X122021534Y-55218897D01*
X122040101Y-55253633D01*
X122051535Y-55291326D01*
X122056000Y-55336661D01*
X122056000Y-56423339D01*
X122051535Y-56468674D01*
X122040101Y-56506367D01*
X122021534Y-56541103D01*
X121996548Y-56571548D01*
X121966103Y-56596534D01*
X121931367Y-56615101D01*
X121893674Y-56626535D01*
X121848339Y-56631000D01*
X121011661Y-56631000D01*
X120966326Y-56626535D01*
X120928633Y-56615101D01*
X120893897Y-56596534D01*
X120863452Y-56571548D01*
X120838466Y-56541103D01*
X120819899Y-56506367D01*
X120808465Y-56468674D01*
X120804000Y-56423339D01*
X120804000Y-55336661D01*
X120808465Y-55291326D01*
X120819899Y-55253633D01*
X120838466Y-55218897D01*
X120863452Y-55188452D01*
X120893897Y-55163466D01*
X120928633Y-55144899D01*
X120966326Y-55133465D01*
X121011661Y-55129000D01*
X121848339Y-55129000D01*
X121893674Y-55133465D01*
X121893674Y-55133465D01*
G37*
G36*
X103999512Y-53459927D02*
G01*
X104148812Y-53489624D01*
X104312784Y-53557544D01*
X104460354Y-53656147D01*
X104585853Y-53781646D01*
X104684456Y-53929216D01*
X104752376Y-54093188D01*
X104787000Y-54267259D01*
X104787000Y-54444741D01*
X104752376Y-54618812D01*
X104684456Y-54782784D01*
X104585853Y-54930354D01*
X104460354Y-55055853D01*
X104312784Y-55154456D01*
X104148812Y-55222376D01*
X104010124Y-55249962D01*
X103974742Y-55257000D01*
X103797258Y-55257000D01*
X103761876Y-55249962D01*
X103623188Y-55222376D01*
X103459216Y-55154456D01*
X103311646Y-55055853D01*
X103186147Y-54930354D01*
X103087544Y-54782784D01*
X103019624Y-54618812D01*
X102985000Y-54444741D01*
X102985000Y-54267259D01*
X103019624Y-54093188D01*
X103087544Y-53929216D01*
X103186147Y-53781646D01*
X103311646Y-53656147D01*
X103459216Y-53557544D01*
X103623188Y-53489624D01*
X103772488Y-53459927D01*
X103797258Y-53455000D01*
X103974742Y-53455000D01*
X103999512Y-53459927D01*
X103999512Y-53459927D01*
G37*
G36*
X140829512Y-53459927D02*
G01*
X140978812Y-53489624D01*
X141142784Y-53557544D01*
X141290354Y-53656147D01*
X141415853Y-53781646D01*
X141514456Y-53929216D01*
X141582376Y-54093188D01*
X141617000Y-54267259D01*
X141617000Y-54444741D01*
X141582376Y-54618812D01*
X141514456Y-54782784D01*
X141415853Y-54930354D01*
X141290354Y-55055853D01*
X141142784Y-55154456D01*
X140978812Y-55222376D01*
X140840124Y-55249962D01*
X140804742Y-55257000D01*
X140627258Y-55257000D01*
X140591876Y-55249962D01*
X140453188Y-55222376D01*
X140289216Y-55154456D01*
X140141646Y-55055853D01*
X140016147Y-54930354D01*
X139917544Y-54782784D01*
X139849624Y-54618812D01*
X139815000Y-54444741D01*
X139815000Y-54267259D01*
X139849624Y-54093188D01*
X139917544Y-53929216D01*
X140016147Y-53781646D01*
X140141646Y-53656147D01*
X140289216Y-53557544D01*
X140453188Y-53489624D01*
X140602488Y-53459927D01*
X140627258Y-53455000D01*
X140804742Y-53455000D01*
X140829512Y-53459927D01*
X140829512Y-53459927D01*
G37*
G36*
X111969674Y-53101465D02*
G01*
X112007367Y-53112899D01*
X112042103Y-53131466D01*
X112072548Y-53156452D01*
X112097534Y-53186897D01*
X112116101Y-53221633D01*
X112127535Y-53259326D01*
X112132000Y-53304661D01*
X112132000Y-54391339D01*
X112127535Y-54436674D01*
X112116101Y-54474367D01*
X112097534Y-54509103D01*
X112072548Y-54539548D01*
X112042103Y-54564534D01*
X112007367Y-54583101D01*
X111969674Y-54594535D01*
X111924339Y-54599000D01*
X111087661Y-54599000D01*
X111042326Y-54594535D01*
X111004633Y-54583101D01*
X110969897Y-54564534D01*
X110939452Y-54539548D01*
X110914466Y-54509103D01*
X110895899Y-54474367D01*
X110884465Y-54436674D01*
X110880000Y-54391339D01*
X110880000Y-53304661D01*
X110884465Y-53259326D01*
X110895899Y-53221633D01*
X110914466Y-53186897D01*
X110939452Y-53156452D01*
X110969897Y-53131466D01*
X111004633Y-53112899D01*
X111042326Y-53101465D01*
X111087661Y-53097000D01*
X111924339Y-53097000D01*
X111969674Y-53101465D01*
X111969674Y-53101465D01*
G37*
G36*
X109919674Y-53101465D02*
G01*
X109957367Y-53112899D01*
X109992103Y-53131466D01*
X110022548Y-53156452D01*
X110047534Y-53186897D01*
X110066101Y-53221633D01*
X110077535Y-53259326D01*
X110082000Y-53304661D01*
X110082000Y-54391339D01*
X110077535Y-54436674D01*
X110066101Y-54474367D01*
X110047534Y-54509103D01*
X110022548Y-54539548D01*
X109992103Y-54564534D01*
X109957367Y-54583101D01*
X109919674Y-54594535D01*
X109874339Y-54599000D01*
X109037661Y-54599000D01*
X108992326Y-54594535D01*
X108954633Y-54583101D01*
X108919897Y-54564534D01*
X108889452Y-54539548D01*
X108864466Y-54509103D01*
X108845899Y-54474367D01*
X108834465Y-54436674D01*
X108830000Y-54391339D01*
X108830000Y-53304661D01*
X108834465Y-53259326D01*
X108845899Y-53221633D01*
X108864466Y-53186897D01*
X108889452Y-53156452D01*
X108919897Y-53131466D01*
X108954633Y-53112899D01*
X108992326Y-53101465D01*
X109037661Y-53097000D01*
X109874339Y-53097000D01*
X109919674Y-53101465D01*
X109919674Y-53101465D01*
G37*
G36*
X149150564Y-52329389D02*
G01*
X149341833Y-52408615D01*
X149341835Y-52408616D01*
X149502325Y-52515852D01*
X149513973Y-52523635D01*
X149660365Y-52670027D01*
X149775385Y-52842167D01*
X149854611Y-53033436D01*
X149895000Y-53236484D01*
X149895000Y-53443516D01*
X149854611Y-53646564D01*
X149850641Y-53656148D01*
X149775384Y-53837835D01*
X149660365Y-54009973D01*
X149513973Y-54156365D01*
X149341835Y-54271384D01*
X149341834Y-54271385D01*
X149341833Y-54271385D01*
X149150564Y-54350611D01*
X148947516Y-54391000D01*
X148740484Y-54391000D01*
X148537436Y-54350611D01*
X148346167Y-54271385D01*
X148346166Y-54271385D01*
X148346165Y-54271384D01*
X148174027Y-54156365D01*
X148027635Y-54009973D01*
X147912616Y-53837835D01*
X147837359Y-53656148D01*
X147833389Y-53646564D01*
X147793000Y-53443516D01*
X147793000Y-53236484D01*
X147833389Y-53033436D01*
X147912615Y-52842167D01*
X148027635Y-52670027D01*
X148174027Y-52523635D01*
X148185675Y-52515852D01*
X148346165Y-52408616D01*
X148346167Y-52408615D01*
X148537436Y-52329389D01*
X148740484Y-52289000D01*
X148947516Y-52289000D01*
X149150564Y-52329389D01*
X149150564Y-52329389D01*
G37*
G36*
X153650564Y-52329389D02*
G01*
X153841833Y-52408615D01*
X153841835Y-52408616D01*
X154002325Y-52515852D01*
X154013973Y-52523635D01*
X154160365Y-52670027D01*
X154275385Y-52842167D01*
X154354611Y-53033436D01*
X154395000Y-53236484D01*
X154395000Y-53443516D01*
X154354611Y-53646564D01*
X154350641Y-53656148D01*
X154275384Y-53837835D01*
X154160365Y-54009973D01*
X154013973Y-54156365D01*
X153841835Y-54271384D01*
X153841834Y-54271385D01*
X153841833Y-54271385D01*
X153650564Y-54350611D01*
X153447516Y-54391000D01*
X153240484Y-54391000D01*
X153037436Y-54350611D01*
X152846167Y-54271385D01*
X152846166Y-54271385D01*
X152846165Y-54271384D01*
X152674027Y-54156365D01*
X152527635Y-54009973D01*
X152412616Y-53837835D01*
X152337359Y-53656148D01*
X152333389Y-53646564D01*
X152293000Y-53443516D01*
X152293000Y-53236484D01*
X152333389Y-53033436D01*
X152412615Y-52842167D01*
X152527635Y-52670027D01*
X152674027Y-52523635D01*
X152685675Y-52515852D01*
X152846165Y-52408616D01*
X152846167Y-52408615D01*
X153037436Y-52329389D01*
X153240484Y-52289000D01*
X153447516Y-52289000D01*
X153650564Y-52329389D01*
X153650564Y-52329389D01*
G37*
G36*
X140829512Y-50919927D02*
G01*
X140978812Y-50949624D01*
X141142784Y-51017544D01*
X141290354Y-51116147D01*
X141415853Y-51241646D01*
X141514456Y-51389216D01*
X141582376Y-51553188D01*
X141617000Y-51727259D01*
X141617000Y-51904741D01*
X141582376Y-52078812D01*
X141514456Y-52242784D01*
X141415853Y-52390354D01*
X141290354Y-52515853D01*
X141142784Y-52614456D01*
X140978812Y-52682376D01*
X140829512Y-52712073D01*
X140804742Y-52717000D01*
X140627258Y-52717000D01*
X140602488Y-52712073D01*
X140453188Y-52682376D01*
X140289216Y-52614456D01*
X140141646Y-52515853D01*
X140016147Y-52390354D01*
X139917544Y-52242784D01*
X139849624Y-52078812D01*
X139815000Y-51904741D01*
X139815000Y-51727259D01*
X139849624Y-51553188D01*
X139917544Y-51389216D01*
X140016147Y-51241646D01*
X140141646Y-51116147D01*
X140289216Y-51017544D01*
X140453188Y-50949624D01*
X140602488Y-50919927D01*
X140627258Y-50915000D01*
X140804742Y-50915000D01*
X140829512Y-50919927D01*
X140829512Y-50919927D01*
G37*
G36*
X104787000Y-52717000D02*
G01*
X102985000Y-52717000D01*
X102985000Y-50915000D01*
X104787000Y-50915000D01*
X104787000Y-52717000D01*
X104787000Y-52717000D01*
G37*
G36*
X99777674Y-50815465D02*
G01*
X99815367Y-50826899D01*
X99850103Y-50845466D01*
X99880548Y-50870452D01*
X99905534Y-50900897D01*
X99924101Y-50935633D01*
X99935535Y-50973326D01*
X99940000Y-51018661D01*
X99940000Y-52105339D01*
X99935535Y-52150674D01*
X99924101Y-52188367D01*
X99905534Y-52223103D01*
X99880548Y-52253548D01*
X99850103Y-52278534D01*
X99815367Y-52297101D01*
X99777674Y-52308535D01*
X99732339Y-52313000D01*
X98895661Y-52313000D01*
X98850326Y-52308535D01*
X98812633Y-52297101D01*
X98777897Y-52278534D01*
X98747452Y-52253548D01*
X98722466Y-52223103D01*
X98703899Y-52188367D01*
X98692465Y-52150674D01*
X98688000Y-52105339D01*
X98688000Y-51018661D01*
X98692465Y-50973326D01*
X98703899Y-50935633D01*
X98722466Y-50900897D01*
X98747452Y-50870452D01*
X98777897Y-50845466D01*
X98812633Y-50826899D01*
X98850326Y-50815465D01*
X98895661Y-50811000D01*
X99732339Y-50811000D01*
X99777674Y-50815465D01*
X99777674Y-50815465D01*
G37*
G36*
X97727674Y-50815465D02*
G01*
X97765367Y-50826899D01*
X97800103Y-50845466D01*
X97830548Y-50870452D01*
X97855534Y-50900897D01*
X97874101Y-50935633D01*
X97885535Y-50973326D01*
X97890000Y-51018661D01*
X97890000Y-52105339D01*
X97885535Y-52150674D01*
X97874101Y-52188367D01*
X97855534Y-52223103D01*
X97830548Y-52253548D01*
X97800103Y-52278534D01*
X97765367Y-52297101D01*
X97727674Y-52308535D01*
X97682339Y-52313000D01*
X96845661Y-52313000D01*
X96800326Y-52308535D01*
X96762633Y-52297101D01*
X96727897Y-52278534D01*
X96697452Y-52253548D01*
X96672466Y-52223103D01*
X96653899Y-52188367D01*
X96642465Y-52150674D01*
X96638000Y-52105339D01*
X96638000Y-51018661D01*
X96642465Y-50973326D01*
X96653899Y-50935633D01*
X96672466Y-50900897D01*
X96697452Y-50870452D01*
X96727897Y-50845466D01*
X96762633Y-50826899D01*
X96800326Y-50815465D01*
X96845661Y-50811000D01*
X97682339Y-50811000D01*
X97727674Y-50815465D01*
X97727674Y-50815465D01*
G37*
G36*
X95459674Y-50815465D02*
G01*
X95497367Y-50826899D01*
X95532103Y-50845466D01*
X95562548Y-50870452D01*
X95587534Y-50900897D01*
X95606101Y-50935633D01*
X95617535Y-50973326D01*
X95622000Y-51018661D01*
X95622000Y-52105339D01*
X95617535Y-52150674D01*
X95606101Y-52188367D01*
X95587534Y-52223103D01*
X95562548Y-52253548D01*
X95532103Y-52278534D01*
X95497367Y-52297101D01*
X95459674Y-52308535D01*
X95414339Y-52313000D01*
X94577661Y-52313000D01*
X94532326Y-52308535D01*
X94494633Y-52297101D01*
X94459897Y-52278534D01*
X94429452Y-52253548D01*
X94404466Y-52223103D01*
X94385899Y-52188367D01*
X94374465Y-52150674D01*
X94370000Y-52105339D01*
X94370000Y-51018661D01*
X94374465Y-50973326D01*
X94385899Y-50935633D01*
X94404466Y-50900897D01*
X94429452Y-50870452D01*
X94459897Y-50845466D01*
X94494633Y-50826899D01*
X94532326Y-50815465D01*
X94577661Y-50811000D01*
X95414339Y-50811000D01*
X95459674Y-50815465D01*
X95459674Y-50815465D01*
G37*
G36*
X93409674Y-50815465D02*
G01*
X93447367Y-50826899D01*
X93482103Y-50845466D01*
X93512548Y-50870452D01*
X93537534Y-50900897D01*
X93556101Y-50935633D01*
X93567535Y-50973326D01*
X93572000Y-51018661D01*
X93572000Y-52105339D01*
X93567535Y-52150674D01*
X93556101Y-52188367D01*
X93537534Y-52223103D01*
X93512548Y-52253548D01*
X93482103Y-52278534D01*
X93447367Y-52297101D01*
X93409674Y-52308535D01*
X93364339Y-52313000D01*
X92527661Y-52313000D01*
X92482326Y-52308535D01*
X92444633Y-52297101D01*
X92409897Y-52278534D01*
X92379452Y-52253548D01*
X92354466Y-52223103D01*
X92335899Y-52188367D01*
X92324465Y-52150674D01*
X92320000Y-52105339D01*
X92320000Y-51018661D01*
X92324465Y-50973326D01*
X92335899Y-50935633D01*
X92354466Y-50900897D01*
X92379452Y-50870452D01*
X92409897Y-50845466D01*
X92444633Y-50826899D01*
X92482326Y-50815465D01*
X92527661Y-50811000D01*
X93364339Y-50811000D01*
X93409674Y-50815465D01*
X93409674Y-50815465D01*
G37*
G36*
X107014674Y-49933465D02*
G01*
X107052367Y-49944899D01*
X107087103Y-49963466D01*
X107117548Y-49988452D01*
X107142534Y-50018897D01*
X107161101Y-50053633D01*
X107172535Y-50091326D01*
X107177000Y-50136661D01*
X107177000Y-50973339D01*
X107172535Y-51018674D01*
X107161101Y-51056367D01*
X107142534Y-51091103D01*
X107117548Y-51121548D01*
X107087103Y-51146534D01*
X107052367Y-51165101D01*
X107014674Y-51176535D01*
X106969339Y-51181000D01*
X105882661Y-51181000D01*
X105837326Y-51176535D01*
X105799633Y-51165101D01*
X105764897Y-51146534D01*
X105734452Y-51121548D01*
X105709466Y-51091103D01*
X105690899Y-51056367D01*
X105679465Y-51018674D01*
X105675000Y-50973339D01*
X105675000Y-50136661D01*
X105679465Y-50091326D01*
X105690899Y-50053633D01*
X105709466Y-50018897D01*
X105734452Y-49988452D01*
X105764897Y-49963466D01*
X105799633Y-49944899D01*
X105837326Y-49933465D01*
X105882661Y-49929000D01*
X106969339Y-49929000D01*
X107014674Y-49933465D01*
X107014674Y-49933465D01*
G37*
G36*
X109300674Y-49933465D02*
G01*
X109338367Y-49944899D01*
X109373103Y-49963466D01*
X109403548Y-49988452D01*
X109428534Y-50018897D01*
X109447101Y-50053633D01*
X109458535Y-50091326D01*
X109463000Y-50136661D01*
X109463000Y-50973339D01*
X109458535Y-51018674D01*
X109447101Y-51056367D01*
X109428534Y-51091103D01*
X109403548Y-51121548D01*
X109373103Y-51146534D01*
X109338367Y-51165101D01*
X109300674Y-51176535D01*
X109255339Y-51181000D01*
X108168661Y-51181000D01*
X108123326Y-51176535D01*
X108085633Y-51165101D01*
X108050897Y-51146534D01*
X108020452Y-51121548D01*
X107995466Y-51091103D01*
X107976899Y-51056367D01*
X107965465Y-51018674D01*
X107961000Y-50973339D01*
X107961000Y-50136661D01*
X107965465Y-50091326D01*
X107976899Y-50053633D01*
X107995466Y-50018897D01*
X108020452Y-49988452D01*
X108050897Y-49963466D01*
X108085633Y-49944899D01*
X108123326Y-49933465D01*
X108168661Y-49929000D01*
X109255339Y-49929000D01*
X109300674Y-49933465D01*
X109300674Y-49933465D01*
G37*
G36*
X139129674Y-48529465D02*
G01*
X139167367Y-48540899D01*
X139202103Y-48559466D01*
X139232548Y-48584452D01*
X139257534Y-48614897D01*
X139276101Y-48649633D01*
X139287535Y-48687326D01*
X139292000Y-48732661D01*
X139292000Y-49819339D01*
X139287535Y-49864674D01*
X139276101Y-49902367D01*
X139257534Y-49937103D01*
X139232548Y-49967548D01*
X139202103Y-49992534D01*
X139167367Y-50011101D01*
X139129674Y-50022535D01*
X139084339Y-50027000D01*
X138247661Y-50027000D01*
X138202326Y-50022535D01*
X138164633Y-50011101D01*
X138129897Y-49992534D01*
X138099452Y-49967548D01*
X138074466Y-49937103D01*
X138055899Y-49902367D01*
X138044465Y-49864674D01*
X138040000Y-49819339D01*
X138040000Y-48732661D01*
X138044465Y-48687326D01*
X138055899Y-48649633D01*
X138074466Y-48614897D01*
X138099452Y-48584452D01*
X138129897Y-48559466D01*
X138164633Y-48540899D01*
X138202326Y-48529465D01*
X138247661Y-48525000D01*
X139084339Y-48525000D01*
X139129674Y-48529465D01*
X139129674Y-48529465D01*
G37*
G36*
X141179674Y-48529465D02*
G01*
X141217367Y-48540899D01*
X141252103Y-48559466D01*
X141282548Y-48584452D01*
X141307534Y-48614897D01*
X141326101Y-48649633D01*
X141337535Y-48687326D01*
X141342000Y-48732661D01*
X141342000Y-49819339D01*
X141337535Y-49864674D01*
X141326101Y-49902367D01*
X141307534Y-49937103D01*
X141282548Y-49967548D01*
X141252103Y-49992534D01*
X141217367Y-50011101D01*
X141179674Y-50022535D01*
X141134339Y-50027000D01*
X140297661Y-50027000D01*
X140252326Y-50022535D01*
X140214633Y-50011101D01*
X140179897Y-49992534D01*
X140149452Y-49967548D01*
X140124466Y-49937103D01*
X140105899Y-49902367D01*
X140094465Y-49864674D01*
X140090000Y-49819339D01*
X140090000Y-48732661D01*
X140094465Y-48687326D01*
X140105899Y-48649633D01*
X140124466Y-48614897D01*
X140149452Y-48584452D01*
X140179897Y-48559466D01*
X140214633Y-48540899D01*
X140252326Y-48529465D01*
X140297661Y-48525000D01*
X141134339Y-48525000D01*
X141179674Y-48529465D01*
X141179674Y-48529465D01*
G37*
G36*
X109300674Y-47883465D02*
G01*
X109338367Y-47894899D01*
X109373103Y-47913466D01*
X109403548Y-47938452D01*
X109428534Y-47968897D01*
X109447101Y-48003633D01*
X109458535Y-48041326D01*
X109463000Y-48086661D01*
X109463000Y-48923339D01*
X109458535Y-48968674D01*
X109447101Y-49006367D01*
X109428534Y-49041103D01*
X109403548Y-49071548D01*
X109373103Y-49096534D01*
X109338367Y-49115101D01*
X109300674Y-49126535D01*
X109255339Y-49131000D01*
X108168661Y-49131000D01*
X108123326Y-49126535D01*
X108085633Y-49115101D01*
X108050897Y-49096534D01*
X108020452Y-49071548D01*
X107995466Y-49041103D01*
X107976899Y-49006367D01*
X107965465Y-48968674D01*
X107961000Y-48923339D01*
X107961000Y-48086661D01*
X107965465Y-48041326D01*
X107976899Y-48003633D01*
X107995466Y-47968897D01*
X108020452Y-47938452D01*
X108050897Y-47913466D01*
X108085633Y-47894899D01*
X108123326Y-47883465D01*
X108168661Y-47879000D01*
X109255339Y-47879000D01*
X109300674Y-47883465D01*
X109300674Y-47883465D01*
G37*
G36*
X107014674Y-47883465D02*
G01*
X107052367Y-47894899D01*
X107087103Y-47913466D01*
X107117548Y-47938452D01*
X107142534Y-47968897D01*
X107161101Y-48003633D01*
X107172535Y-48041326D01*
X107177000Y-48086661D01*
X107177000Y-48923339D01*
X107172535Y-48968674D01*
X107161101Y-49006367D01*
X107142534Y-49041103D01*
X107117548Y-49071548D01*
X107087103Y-49096534D01*
X107052367Y-49115101D01*
X107014674Y-49126535D01*
X106969339Y-49131000D01*
X105882661Y-49131000D01*
X105837326Y-49126535D01*
X105799633Y-49115101D01*
X105764897Y-49096534D01*
X105734452Y-49071548D01*
X105709466Y-49041103D01*
X105690899Y-49006367D01*
X105679465Y-48968674D01*
X105675000Y-48923339D01*
X105675000Y-48086661D01*
X105679465Y-48041326D01*
X105690899Y-48003633D01*
X105709466Y-47968897D01*
X105734452Y-47938452D01*
X105764897Y-47913466D01*
X105799633Y-47894899D01*
X105837326Y-47883465D01*
X105882661Y-47879000D01*
X106969339Y-47879000D01*
X107014674Y-47883465D01*
X107014674Y-47883465D01*
G37*
G36*
X94513000Y-49057000D02*
G01*
X92911000Y-49057000D01*
X92911000Y-46955000D01*
X94513000Y-46955000D01*
X94513000Y-49057000D01*
X94513000Y-49057000D01*
G37*
G36*
X96813000Y-49057000D02*
G01*
X95211000Y-49057000D01*
X95211000Y-46955000D01*
X96813000Y-46955000D01*
X96813000Y-49057000D01*
X96813000Y-49057000D01*
G37*
G36*
X99113000Y-49057000D02*
G01*
X97511000Y-49057000D01*
X97511000Y-46955000D01*
X99113000Y-46955000D01*
X99113000Y-49057000D01*
X99113000Y-49057000D01*
G37*
G36*
X127636999Y-47142237D02*
G01*
X127646608Y-47145152D01*
X127655472Y-47149890D01*
X127663212Y-47156242D01*
X127663213Y-47156243D01*
X127663237Y-47156263D01*
X127669640Y-47164073D01*
X127669677Y-47164128D01*
X127677480Y-47173647D01*
X127677511Y-47173622D01*
X127688853Y-47187472D01*
X127707779Y-47203037D01*
X127729377Y-47214611D01*
X127752819Y-47221749D01*
X127777202Y-47224176D01*
X127801591Y-47221800D01*
X127825047Y-47214711D01*
X127846670Y-47203182D01*
X127865628Y-47187657D01*
X127881193Y-47168731D01*
X127883029Y-47165675D01*
X127884418Y-47163986D01*
X127884419Y-47163984D01*
X127890801Y-47156225D01*
X127898573Y-47149860D01*
X127898575Y-47149858D01*
X127904483Y-47146709D01*
X127907438Y-47145133D01*
X127917055Y-47142227D01*
X127917085Y-47142218D01*
X127933113Y-47140648D01*
X129070860Y-47140648D01*
X129086999Y-47142237D01*
X129096608Y-47145152D01*
X129105472Y-47149890D01*
X129113237Y-47156263D01*
X129119610Y-47164028D01*
X129124348Y-47172892D01*
X129127263Y-47182501D01*
X129128852Y-47198640D01*
X129128852Y-48686360D01*
X129127263Y-48702499D01*
X129124348Y-48712108D01*
X129119610Y-48720972D01*
X129113237Y-48728737D01*
X129105472Y-48735110D01*
X129096608Y-48739848D01*
X129086999Y-48742763D01*
X129070860Y-48744352D01*
X127933140Y-48744352D01*
X127917001Y-48742763D01*
X127907392Y-48739848D01*
X127898528Y-48735110D01*
X127890763Y-48728737D01*
X127880116Y-48715763D01*
X127873947Y-48706532D01*
X127856619Y-48689206D01*
X127836244Y-48675593D01*
X127813605Y-48666217D01*
X127789572Y-48661437D01*
X127765068Y-48661438D01*
X127741035Y-48666220D01*
X127718396Y-48675598D01*
X127698022Y-48689213D01*
X127680696Y-48706541D01*
X127673825Y-48715817D01*
X127669640Y-48720927D01*
X127663275Y-48728699D01*
X127655516Y-48735081D01*
X127646661Y-48739826D01*
X127643623Y-48740751D01*
X127637085Y-48742742D01*
X127637082Y-48742742D01*
X127637050Y-48742752D01*
X127627000Y-48743747D01*
X127626935Y-48743747D01*
X127620825Y-48744352D01*
X126633140Y-48744352D01*
X126617001Y-48742763D01*
X126607392Y-48739848D01*
X126598528Y-48735110D01*
X126590763Y-48728737D01*
X126584390Y-48720972D01*
X126579652Y-48712108D01*
X126576737Y-48702499D01*
X126575148Y-48686360D01*
X126575148Y-47198640D01*
X126576737Y-47182501D01*
X126579652Y-47172892D01*
X126584390Y-47164028D01*
X126590763Y-47156263D01*
X126598528Y-47149890D01*
X126607392Y-47145152D01*
X126617001Y-47142237D01*
X126633140Y-47140648D01*
X127620860Y-47140648D01*
X127636999Y-47142237D01*
X127636999Y-47142237D01*
G37*
G36*
X101426674Y-47384465D02*
G01*
X101464367Y-47395899D01*
X101499103Y-47414466D01*
X101529548Y-47439452D01*
X101554534Y-47469897D01*
X101573101Y-47504633D01*
X101584535Y-47542326D01*
X101589000Y-47587661D01*
X101589000Y-48424339D01*
X101584535Y-48469674D01*
X101573101Y-48507367D01*
X101554534Y-48542103D01*
X101529548Y-48572548D01*
X101499103Y-48597534D01*
X101464367Y-48616101D01*
X101426674Y-48627535D01*
X101381339Y-48632000D01*
X100294661Y-48632000D01*
X100249326Y-48627535D01*
X100211633Y-48616101D01*
X100176897Y-48597534D01*
X100146452Y-48572548D01*
X100121466Y-48542103D01*
X100102899Y-48507367D01*
X100091465Y-48469674D01*
X100087000Y-48424339D01*
X100087000Y-47587661D01*
X100091465Y-47542326D01*
X100102899Y-47504633D01*
X100121466Y-47469897D01*
X100146452Y-47439452D01*
X100176897Y-47414466D01*
X100211633Y-47395899D01*
X100249326Y-47384465D01*
X100294661Y-47380000D01*
X101381339Y-47380000D01*
X101426674Y-47384465D01*
X101426674Y-47384465D01*
G37*
G36*
X153650564Y-45829389D02*
G01*
X153841833Y-45908615D01*
X153841835Y-45908616D01*
X154013973Y-46023635D01*
X154160365Y-46170027D01*
X154275385Y-46342167D01*
X154354611Y-46533436D01*
X154395000Y-46736484D01*
X154395000Y-46943516D01*
X154354611Y-47146564D01*
X154323468Y-47221749D01*
X154275384Y-47337835D01*
X154160365Y-47509973D01*
X154013973Y-47656365D01*
X153841835Y-47771384D01*
X153841834Y-47771385D01*
X153841833Y-47771385D01*
X153650564Y-47850611D01*
X153447516Y-47891000D01*
X153240484Y-47891000D01*
X153037436Y-47850611D01*
X152846167Y-47771385D01*
X152846166Y-47771385D01*
X152846165Y-47771384D01*
X152674027Y-47656365D01*
X152527635Y-47509973D01*
X152412616Y-47337835D01*
X152364532Y-47221749D01*
X152333389Y-47146564D01*
X152293000Y-46943516D01*
X152293000Y-46736484D01*
X152333389Y-46533436D01*
X152412615Y-46342167D01*
X152527635Y-46170027D01*
X152674027Y-46023635D01*
X152846165Y-45908616D01*
X152846167Y-45908615D01*
X153037436Y-45829389D01*
X153240484Y-45789000D01*
X153447516Y-45789000D01*
X153650564Y-45829389D01*
X153650564Y-45829389D01*
G37*
G36*
X149150564Y-45829389D02*
G01*
X149341833Y-45908615D01*
X149341835Y-45908616D01*
X149513973Y-46023635D01*
X149660365Y-46170027D01*
X149775385Y-46342167D01*
X149854611Y-46533436D01*
X149895000Y-46736484D01*
X149895000Y-46943516D01*
X149854611Y-47146564D01*
X149823468Y-47221749D01*
X149775384Y-47337835D01*
X149660365Y-47509973D01*
X149513973Y-47656365D01*
X149341835Y-47771384D01*
X149341834Y-47771385D01*
X149341833Y-47771385D01*
X149150564Y-47850611D01*
X148947516Y-47891000D01*
X148740484Y-47891000D01*
X148537436Y-47850611D01*
X148346167Y-47771385D01*
X148346166Y-47771385D01*
X148346165Y-47771384D01*
X148174027Y-47656365D01*
X148027635Y-47509973D01*
X147912616Y-47337835D01*
X147864532Y-47221749D01*
X147833389Y-47146564D01*
X147793000Y-46943516D01*
X147793000Y-46736484D01*
X147833389Y-46533436D01*
X147912615Y-46342167D01*
X148027635Y-46170027D01*
X148174027Y-46023635D01*
X148346165Y-45908616D01*
X148346167Y-45908615D01*
X148537436Y-45829389D01*
X148740484Y-45789000D01*
X148947516Y-45789000D01*
X149150564Y-45829389D01*
X149150564Y-45829389D01*
G37*
G36*
X101426674Y-45334465D02*
G01*
X101464367Y-45345899D01*
X101499103Y-45364466D01*
X101529548Y-45389452D01*
X101554534Y-45419897D01*
X101573101Y-45454633D01*
X101584535Y-45492326D01*
X101589000Y-45537661D01*
X101589000Y-46374339D01*
X101584535Y-46419674D01*
X101573101Y-46457367D01*
X101554534Y-46492103D01*
X101529548Y-46522548D01*
X101499103Y-46547534D01*
X101464367Y-46566101D01*
X101426674Y-46577535D01*
X101381339Y-46582000D01*
X100294661Y-46582000D01*
X100249326Y-46577535D01*
X100211633Y-46566101D01*
X100176897Y-46547534D01*
X100146452Y-46522548D01*
X100121466Y-46492103D01*
X100102899Y-46457367D01*
X100091465Y-46419674D01*
X100087000Y-46374339D01*
X100087000Y-45537661D01*
X100091465Y-45492326D01*
X100102899Y-45454633D01*
X100121466Y-45419897D01*
X100146452Y-45389452D01*
X100176897Y-45364466D01*
X100211633Y-45345899D01*
X100249326Y-45334465D01*
X100294661Y-45330000D01*
X101381339Y-45330000D01*
X101426674Y-45334465D01*
X101426674Y-45334465D01*
G37*
G36*
X122157442Y-43873018D02*
G01*
X122223627Y-43879537D01*
X122393466Y-43931057D01*
X122549991Y-44014722D01*
X122585729Y-44044052D01*
X122687186Y-44127314D01*
X122755895Y-44211038D01*
X122799778Y-44264509D01*
X122883443Y-44421034D01*
X122934963Y-44590873D01*
X122952359Y-44767500D01*
X122934963Y-44944127D01*
X122883443Y-45113966D01*
X122799778Y-45270491D01*
X122770448Y-45306229D01*
X122687186Y-45407686D01*
X122585729Y-45490948D01*
X122549991Y-45520278D01*
X122549989Y-45520279D01*
X122396778Y-45602173D01*
X122393466Y-45603943D01*
X122223627Y-45655463D01*
X122157442Y-45661982D01*
X122091260Y-45668500D01*
X122002740Y-45668500D01*
X121936557Y-45661981D01*
X121870373Y-45655463D01*
X121700534Y-45603943D01*
X121697223Y-45602173D01*
X121544011Y-45520279D01*
X121544009Y-45520278D01*
X121508271Y-45490948D01*
X121406814Y-45407686D01*
X121323552Y-45306229D01*
X121294222Y-45270491D01*
X121210557Y-45113966D01*
X121159037Y-44944127D01*
X121141641Y-44767500D01*
X121159037Y-44590873D01*
X121210557Y-44421034D01*
X121294222Y-44264509D01*
X121338105Y-44211038D01*
X121406814Y-44127314D01*
X121508271Y-44044052D01*
X121544009Y-44014722D01*
X121700534Y-43931057D01*
X121870373Y-43879537D01*
X121936558Y-43873018D01*
X122002740Y-43866500D01*
X122091260Y-43866500D01*
X122157442Y-43873018D01*
X122157442Y-43873018D01*
G37*
G36*
X112788000Y-45668500D02*
G01*
X110986000Y-45668500D01*
X110986000Y-43866500D01*
X112788000Y-43866500D01*
X112788000Y-45668500D01*
X112788000Y-45668500D01*
G37*
G36*
X114537442Y-43873018D02*
G01*
X114603627Y-43879537D01*
X114773466Y-43931057D01*
X114929991Y-44014722D01*
X114965729Y-44044052D01*
X115067186Y-44127314D01*
X115135895Y-44211038D01*
X115179778Y-44264509D01*
X115263443Y-44421034D01*
X115314963Y-44590873D01*
X115332359Y-44767500D01*
X115314963Y-44944127D01*
X115263443Y-45113966D01*
X115179778Y-45270491D01*
X115150448Y-45306229D01*
X115067186Y-45407686D01*
X114965729Y-45490948D01*
X114929991Y-45520278D01*
X114929989Y-45520279D01*
X114776778Y-45602173D01*
X114773466Y-45603943D01*
X114603627Y-45655463D01*
X114537442Y-45661982D01*
X114471260Y-45668500D01*
X114382740Y-45668500D01*
X114316557Y-45661981D01*
X114250373Y-45655463D01*
X114080534Y-45603943D01*
X114077223Y-45602173D01*
X113924011Y-45520279D01*
X113924009Y-45520278D01*
X113888271Y-45490948D01*
X113786814Y-45407686D01*
X113703552Y-45306229D01*
X113674222Y-45270491D01*
X113590557Y-45113966D01*
X113539037Y-44944127D01*
X113521641Y-44767500D01*
X113539037Y-44590873D01*
X113590557Y-44421034D01*
X113674222Y-44264509D01*
X113718105Y-44211038D01*
X113786814Y-44127314D01*
X113888271Y-44044052D01*
X113924009Y-44014722D01*
X114080534Y-43931057D01*
X114250373Y-43879537D01*
X114316558Y-43873018D01*
X114382740Y-43866500D01*
X114471260Y-43866500D01*
X114537442Y-43873018D01*
X114537442Y-43873018D01*
G37*
G36*
X117077442Y-43873018D02*
G01*
X117143627Y-43879537D01*
X117313466Y-43931057D01*
X117469991Y-44014722D01*
X117505729Y-44044052D01*
X117607186Y-44127314D01*
X117675895Y-44211038D01*
X117719778Y-44264509D01*
X117803443Y-44421034D01*
X117854963Y-44590873D01*
X117872359Y-44767500D01*
X117854963Y-44944127D01*
X117803443Y-45113966D01*
X117719778Y-45270491D01*
X117690448Y-45306229D01*
X117607186Y-45407686D01*
X117505729Y-45490948D01*
X117469991Y-45520278D01*
X117469989Y-45520279D01*
X117316778Y-45602173D01*
X117313466Y-45603943D01*
X117143627Y-45655463D01*
X117077442Y-45661982D01*
X117011260Y-45668500D01*
X116922740Y-45668500D01*
X116856557Y-45661981D01*
X116790373Y-45655463D01*
X116620534Y-45603943D01*
X116617223Y-45602173D01*
X116464011Y-45520279D01*
X116464009Y-45520278D01*
X116428271Y-45490948D01*
X116326814Y-45407686D01*
X116243552Y-45306229D01*
X116214222Y-45270491D01*
X116130557Y-45113966D01*
X116079037Y-44944127D01*
X116061641Y-44767500D01*
X116079037Y-44590873D01*
X116130557Y-44421034D01*
X116214222Y-44264509D01*
X116258105Y-44211038D01*
X116326814Y-44127314D01*
X116428271Y-44044052D01*
X116464009Y-44014722D01*
X116620534Y-43931057D01*
X116790373Y-43879537D01*
X116856558Y-43873018D01*
X116922740Y-43866500D01*
X117011260Y-43866500D01*
X117077442Y-43873018D01*
X117077442Y-43873018D01*
G37*
G36*
X124697442Y-43873018D02*
G01*
X124763627Y-43879537D01*
X124933466Y-43931057D01*
X125089991Y-44014722D01*
X125125729Y-44044052D01*
X125227186Y-44127314D01*
X125295895Y-44211038D01*
X125339778Y-44264509D01*
X125423443Y-44421034D01*
X125474963Y-44590873D01*
X125492359Y-44767500D01*
X125474963Y-44944127D01*
X125423443Y-45113966D01*
X125339778Y-45270491D01*
X125310448Y-45306229D01*
X125227186Y-45407686D01*
X125125729Y-45490948D01*
X125089991Y-45520278D01*
X125089989Y-45520279D01*
X124936778Y-45602173D01*
X124933466Y-45603943D01*
X124763627Y-45655463D01*
X124697442Y-45661982D01*
X124631260Y-45668500D01*
X124542740Y-45668500D01*
X124476557Y-45661981D01*
X124410373Y-45655463D01*
X124240534Y-45603943D01*
X124237223Y-45602173D01*
X124084011Y-45520279D01*
X124084009Y-45520278D01*
X124048271Y-45490948D01*
X123946814Y-45407686D01*
X123863552Y-45306229D01*
X123834222Y-45270491D01*
X123750557Y-45113966D01*
X123699037Y-44944127D01*
X123681641Y-44767500D01*
X123699037Y-44590873D01*
X123750557Y-44421034D01*
X123834222Y-44264509D01*
X123878105Y-44211038D01*
X123946814Y-44127314D01*
X124048271Y-44044052D01*
X124084009Y-44014722D01*
X124240534Y-43931057D01*
X124410373Y-43879537D01*
X124476558Y-43873018D01*
X124542740Y-43866500D01*
X124631260Y-43866500D01*
X124697442Y-43873018D01*
X124697442Y-43873018D01*
G37*
G36*
X127237442Y-43873018D02*
G01*
X127303627Y-43879537D01*
X127473466Y-43931057D01*
X127629991Y-44014722D01*
X127665729Y-44044052D01*
X127767186Y-44127314D01*
X127835895Y-44211038D01*
X127879778Y-44264509D01*
X127963443Y-44421034D01*
X128014963Y-44590873D01*
X128032359Y-44767500D01*
X128014963Y-44944127D01*
X127963443Y-45113966D01*
X127879778Y-45270491D01*
X127850448Y-45306229D01*
X127767186Y-45407686D01*
X127665729Y-45490948D01*
X127629991Y-45520278D01*
X127629989Y-45520279D01*
X127476778Y-45602173D01*
X127473466Y-45603943D01*
X127303627Y-45655463D01*
X127237442Y-45661982D01*
X127171260Y-45668500D01*
X127082740Y-45668500D01*
X127016557Y-45661981D01*
X126950373Y-45655463D01*
X126780534Y-45603943D01*
X126777223Y-45602173D01*
X126624011Y-45520279D01*
X126624009Y-45520278D01*
X126588271Y-45490948D01*
X126486814Y-45407686D01*
X126403552Y-45306229D01*
X126374222Y-45270491D01*
X126290557Y-45113966D01*
X126239037Y-44944127D01*
X126221641Y-44767500D01*
X126239037Y-44590873D01*
X126290557Y-44421034D01*
X126374222Y-44264509D01*
X126418105Y-44211038D01*
X126486814Y-44127314D01*
X126588271Y-44044052D01*
X126624009Y-44014722D01*
X126780534Y-43931057D01*
X126950373Y-43879537D01*
X127016558Y-43873018D01*
X127082740Y-43866500D01*
X127171260Y-43866500D01*
X127237442Y-43873018D01*
X127237442Y-43873018D01*
G37*
G36*
X129777442Y-43873018D02*
G01*
X129843627Y-43879537D01*
X130013466Y-43931057D01*
X130169991Y-44014722D01*
X130205729Y-44044052D01*
X130307186Y-44127314D01*
X130375895Y-44211038D01*
X130419778Y-44264509D01*
X130503443Y-44421034D01*
X130554963Y-44590873D01*
X130572359Y-44767500D01*
X130554963Y-44944127D01*
X130503443Y-45113966D01*
X130419778Y-45270491D01*
X130390448Y-45306229D01*
X130307186Y-45407686D01*
X130205729Y-45490948D01*
X130169991Y-45520278D01*
X130169989Y-45520279D01*
X130016778Y-45602173D01*
X130013466Y-45603943D01*
X129843627Y-45655463D01*
X129777442Y-45661982D01*
X129711260Y-45668500D01*
X129622740Y-45668500D01*
X129556557Y-45661981D01*
X129490373Y-45655463D01*
X129320534Y-45603943D01*
X129317223Y-45602173D01*
X129164011Y-45520279D01*
X129164009Y-45520278D01*
X129128271Y-45490948D01*
X129026814Y-45407686D01*
X128943552Y-45306229D01*
X128914222Y-45270491D01*
X128830557Y-45113966D01*
X128779037Y-44944127D01*
X128761641Y-44767500D01*
X128779037Y-44590873D01*
X128830557Y-44421034D01*
X128914222Y-44264509D01*
X128958105Y-44211038D01*
X129026814Y-44127314D01*
X129128271Y-44044052D01*
X129164009Y-44014722D01*
X129320534Y-43931057D01*
X129490373Y-43879537D01*
X129556558Y-43873018D01*
X129622740Y-43866500D01*
X129711260Y-43866500D01*
X129777442Y-43873018D01*
X129777442Y-43873018D01*
G37*
G36*
X119617442Y-43873018D02*
G01*
X119683627Y-43879537D01*
X119853466Y-43931057D01*
X120009991Y-44014722D01*
X120045729Y-44044052D01*
X120147186Y-44127314D01*
X120215895Y-44211038D01*
X120259778Y-44264509D01*
X120343443Y-44421034D01*
X120394963Y-44590873D01*
X120412359Y-44767500D01*
X120394963Y-44944127D01*
X120343443Y-45113966D01*
X120259778Y-45270491D01*
X120230448Y-45306229D01*
X120147186Y-45407686D01*
X120045729Y-45490948D01*
X120009991Y-45520278D01*
X120009989Y-45520279D01*
X119856778Y-45602173D01*
X119853466Y-45603943D01*
X119683627Y-45655463D01*
X119617442Y-45661982D01*
X119551260Y-45668500D01*
X119462740Y-45668500D01*
X119396557Y-45661981D01*
X119330373Y-45655463D01*
X119160534Y-45603943D01*
X119157223Y-45602173D01*
X119004011Y-45520279D01*
X119004009Y-45520278D01*
X118968271Y-45490948D01*
X118866814Y-45407686D01*
X118783552Y-45306229D01*
X118754222Y-45270491D01*
X118670557Y-45113966D01*
X118619037Y-44944127D01*
X118601641Y-44767500D01*
X118619037Y-44590873D01*
X118670557Y-44421034D01*
X118754222Y-44264509D01*
X118798105Y-44211038D01*
X118866814Y-44127314D01*
X118968271Y-44044052D01*
X119004009Y-44014722D01*
X119160534Y-43931057D01*
X119330373Y-43879537D01*
X119396558Y-43873018D01*
X119462740Y-43866500D01*
X119551260Y-43866500D01*
X119617442Y-43873018D01*
X119617442Y-43873018D01*
G37*
G36*
X148924674Y-43193465D02*
G01*
X148962367Y-43204899D01*
X148997103Y-43223466D01*
X149027548Y-43248452D01*
X149052534Y-43278897D01*
X149071101Y-43313633D01*
X149082535Y-43351326D01*
X149087000Y-43396661D01*
X149087000Y-44233339D01*
X149082535Y-44278674D01*
X149071101Y-44316367D01*
X149052534Y-44351103D01*
X149027548Y-44381548D01*
X148997103Y-44406534D01*
X148962367Y-44425101D01*
X148924674Y-44436535D01*
X148879339Y-44441000D01*
X147792661Y-44441000D01*
X147747326Y-44436535D01*
X147709633Y-44425101D01*
X147674897Y-44406534D01*
X147644452Y-44381548D01*
X147619466Y-44351103D01*
X147600899Y-44316367D01*
X147589465Y-44278674D01*
X147585000Y-44233339D01*
X147585000Y-43396661D01*
X147589465Y-43351326D01*
X147600899Y-43313633D01*
X147619466Y-43278897D01*
X147644452Y-43248452D01*
X147674897Y-43223466D01*
X147709633Y-43204899D01*
X147747326Y-43193465D01*
X147792661Y-43189000D01*
X148879339Y-43189000D01*
X148924674Y-43193465D01*
X148924674Y-43193465D01*
G37*
G36*
X101426674Y-43084465D02*
G01*
X101464367Y-43095899D01*
X101499103Y-43114466D01*
X101529548Y-43139452D01*
X101554534Y-43169897D01*
X101573101Y-43204633D01*
X101584535Y-43242326D01*
X101589000Y-43287661D01*
X101589000Y-44124339D01*
X101584535Y-44169674D01*
X101573101Y-44207367D01*
X101554534Y-44242103D01*
X101529548Y-44272548D01*
X101499103Y-44297534D01*
X101464367Y-44316101D01*
X101426674Y-44327535D01*
X101381339Y-44332000D01*
X100294661Y-44332000D01*
X100249326Y-44327535D01*
X100211633Y-44316101D01*
X100176897Y-44297534D01*
X100146452Y-44272548D01*
X100121466Y-44242103D01*
X100102899Y-44207367D01*
X100091465Y-44169674D01*
X100087000Y-44124339D01*
X100087000Y-43287661D01*
X100091465Y-43242326D01*
X100102899Y-43204633D01*
X100121466Y-43169897D01*
X100146452Y-43139452D01*
X100176897Y-43114466D01*
X100211633Y-43095899D01*
X100249326Y-43084465D01*
X100294661Y-43080000D01*
X101381339Y-43080000D01*
X101426674Y-43084465D01*
X101426674Y-43084465D01*
G37*
G36*
X152561049Y-41543116D02*
G01*
X152672234Y-41565232D01*
X152881703Y-41651997D01*
X153070220Y-41777960D01*
X153230540Y-41938280D01*
X153356503Y-42126797D01*
X153356504Y-42126799D01*
X153380036Y-42183610D01*
X153443268Y-42336266D01*
X153450034Y-42370282D01*
X153487500Y-42558635D01*
X153487500Y-42785365D01*
X153443268Y-43007733D01*
X153359604Y-43209718D01*
X153356503Y-43217203D01*
X153230540Y-43405720D01*
X153070220Y-43566040D01*
X152881703Y-43692003D01*
X152672234Y-43778768D01*
X152561049Y-43800884D01*
X152449865Y-43823000D01*
X152223135Y-43823000D01*
X152111951Y-43800884D01*
X152000766Y-43778768D01*
X151791297Y-43692003D01*
X151602780Y-43566040D01*
X151442460Y-43405720D01*
X151316497Y-43217203D01*
X151313397Y-43209718D01*
X151229732Y-43007733D01*
X151185500Y-42785365D01*
X151185500Y-42558635D01*
X151222966Y-42370282D01*
X151229732Y-42336266D01*
X151292964Y-42183610D01*
X151316496Y-42126799D01*
X151316497Y-42126797D01*
X151442460Y-41938280D01*
X151602780Y-41777960D01*
X151791297Y-41651997D01*
X152000766Y-41565232D01*
X152111951Y-41543116D01*
X152223135Y-41521000D01*
X152449865Y-41521000D01*
X152561049Y-41543116D01*
X152561049Y-41543116D01*
G37*
G36*
X106688199Y-41090954D02*
G01*
X106700450Y-41091556D01*
X106718869Y-41091556D01*
X106741149Y-41093750D01*
X106825233Y-41110476D01*
X106846660Y-41116976D01*
X106925858Y-41149780D01*
X106931303Y-41152691D01*
X106931309Y-41152693D01*
X106940169Y-41157429D01*
X106940173Y-41157432D01*
X106945614Y-41160340D01*
X107016899Y-41207971D01*
X107034204Y-41222172D01*
X107094828Y-41282796D01*
X107109029Y-41300101D01*
X107156660Y-41371386D01*
X107159568Y-41376827D01*
X107159571Y-41376831D01*
X107164307Y-41385691D01*
X107164309Y-41385697D01*
X107167220Y-41391142D01*
X107200024Y-41470340D01*
X107206524Y-41491767D01*
X107223250Y-41575851D01*
X107225444Y-41598131D01*
X107225444Y-41616550D01*
X107226046Y-41628801D01*
X107227852Y-41647139D01*
X107227852Y-42134860D01*
X107226263Y-42150999D01*
X107223348Y-42160608D01*
X107218610Y-42169472D01*
X107212237Y-42177237D01*
X107199794Y-42187448D01*
X107189425Y-42194378D01*
X107172098Y-42211705D01*
X107158485Y-42232080D01*
X107149109Y-42254720D01*
X107144329Y-42278753D01*
X107144330Y-42303257D01*
X107149112Y-42327290D01*
X107158490Y-42349929D01*
X107172105Y-42370302D01*
X107189432Y-42387629D01*
X107199802Y-42394558D01*
X107212237Y-42404763D01*
X107218610Y-42412528D01*
X107223348Y-42421392D01*
X107226263Y-42431001D01*
X107227852Y-42447140D01*
X107227852Y-42934862D01*
X107226046Y-42953199D01*
X107225444Y-42965450D01*
X107225444Y-42983869D01*
X107223250Y-43006149D01*
X107206524Y-43090233D01*
X107200024Y-43111660D01*
X107167220Y-43190858D01*
X107164309Y-43196303D01*
X107164307Y-43196309D01*
X107159571Y-43205169D01*
X107159568Y-43205173D01*
X107156660Y-43210614D01*
X107109029Y-43281899D01*
X107094828Y-43299204D01*
X107034204Y-43359828D01*
X107016899Y-43374029D01*
X106945614Y-43421660D01*
X106940173Y-43424568D01*
X106940169Y-43424571D01*
X106931309Y-43429307D01*
X106931303Y-43429309D01*
X106925858Y-43432220D01*
X106846660Y-43465024D01*
X106825233Y-43471524D01*
X106741149Y-43488250D01*
X106718869Y-43490444D01*
X106700450Y-43490444D01*
X106688199Y-43491046D01*
X106669862Y-43492852D01*
X106182138Y-43492852D01*
X106163801Y-43491046D01*
X106151550Y-43490444D01*
X106133131Y-43490444D01*
X106110851Y-43488250D01*
X106026767Y-43471524D01*
X106005340Y-43465024D01*
X105926142Y-43432220D01*
X105920697Y-43429309D01*
X105920691Y-43429307D01*
X105911831Y-43424571D01*
X105911827Y-43424568D01*
X105906386Y-43421660D01*
X105835101Y-43374029D01*
X105817796Y-43359828D01*
X105757172Y-43299204D01*
X105742971Y-43281899D01*
X105695340Y-43210614D01*
X105692432Y-43205173D01*
X105692429Y-43205169D01*
X105687693Y-43196309D01*
X105687691Y-43196303D01*
X105684780Y-43190858D01*
X105651976Y-43111660D01*
X105645476Y-43090233D01*
X105628750Y-43006149D01*
X105626556Y-42983869D01*
X105626556Y-42965450D01*
X105625954Y-42953199D01*
X105624148Y-42934862D01*
X105624148Y-42447140D01*
X105625737Y-42431001D01*
X105628652Y-42421392D01*
X105633390Y-42412528D01*
X105639763Y-42404763D01*
X105652206Y-42394552D01*
X105662575Y-42387622D01*
X105679902Y-42370295D01*
X105693515Y-42349920D01*
X105702891Y-42327280D01*
X105707671Y-42303247D01*
X105707670Y-42278743D01*
X105702888Y-42254710D01*
X105693510Y-42232071D01*
X105679895Y-42211698D01*
X105662568Y-42194371D01*
X105652198Y-42187442D01*
X105639763Y-42177237D01*
X105633390Y-42169472D01*
X105628652Y-42160608D01*
X105625737Y-42150999D01*
X105624148Y-42134860D01*
X105624148Y-41647139D01*
X105625954Y-41628801D01*
X105626556Y-41616550D01*
X105626556Y-41598131D01*
X105628750Y-41575851D01*
X105645476Y-41491767D01*
X105651976Y-41470340D01*
X105684780Y-41391142D01*
X105687691Y-41385697D01*
X105687693Y-41385691D01*
X105692429Y-41376831D01*
X105692432Y-41376827D01*
X105695340Y-41371386D01*
X105742971Y-41300101D01*
X105757172Y-41282796D01*
X105817796Y-41222172D01*
X105835101Y-41207971D01*
X105906386Y-41160340D01*
X105911827Y-41157432D01*
X105911831Y-41157429D01*
X105920691Y-41152693D01*
X105920697Y-41152691D01*
X105926142Y-41149780D01*
X106005340Y-41116976D01*
X106026767Y-41110476D01*
X106110851Y-41093750D01*
X106133131Y-41091556D01*
X106151550Y-41091556D01*
X106163801Y-41090954D01*
X106182139Y-41089148D01*
X106669861Y-41089148D01*
X106688199Y-41090954D01*
X106688199Y-41090954D01*
G37*
G36*
X97963000Y-42757000D02*
G01*
X94061000Y-42757000D01*
X94061000Y-40655000D01*
X97963000Y-40655000D01*
X97963000Y-42757000D01*
X97963000Y-42757000D01*
G37*
G36*
X148924674Y-41143465D02*
G01*
X148962367Y-41154899D01*
X148997103Y-41173466D01*
X149027548Y-41198452D01*
X149052534Y-41228897D01*
X149071101Y-41263633D01*
X149082535Y-41301326D01*
X149087000Y-41346661D01*
X149087000Y-42183339D01*
X149082535Y-42228674D01*
X149071101Y-42266367D01*
X149052534Y-42301103D01*
X149027548Y-42331548D01*
X148997103Y-42356534D01*
X148962367Y-42375101D01*
X148924674Y-42386535D01*
X148879339Y-42391000D01*
X147792661Y-42391000D01*
X147747326Y-42386535D01*
X147709633Y-42375101D01*
X147674897Y-42356534D01*
X147644452Y-42331548D01*
X147619466Y-42301103D01*
X147600899Y-42266367D01*
X147589465Y-42228674D01*
X147585000Y-42183339D01*
X147585000Y-41346661D01*
X147589465Y-41301326D01*
X147600899Y-41263633D01*
X147619466Y-41228897D01*
X147644452Y-41198452D01*
X147674897Y-41173466D01*
X147709633Y-41154899D01*
X147747326Y-41143465D01*
X147792661Y-41139000D01*
X148879339Y-41139000D01*
X148924674Y-41143465D01*
X148924674Y-41143465D01*
G37*
G36*
X101426674Y-41034465D02*
G01*
X101464367Y-41045899D01*
X101499103Y-41064466D01*
X101529548Y-41089452D01*
X101554534Y-41119897D01*
X101573101Y-41154633D01*
X101584535Y-41192326D01*
X101589000Y-41237661D01*
X101589000Y-42074339D01*
X101584535Y-42119674D01*
X101573101Y-42157367D01*
X101554534Y-42192103D01*
X101529548Y-42222548D01*
X101499103Y-42247534D01*
X101464367Y-42266101D01*
X101426674Y-42277535D01*
X101381339Y-42282000D01*
X100294661Y-42282000D01*
X100249326Y-42277535D01*
X100211633Y-42266101D01*
X100176897Y-42247534D01*
X100146452Y-42222548D01*
X100121466Y-42192103D01*
X100102899Y-42157367D01*
X100091465Y-42119674D01*
X100087000Y-42074339D01*
X100087000Y-41237661D01*
X100091465Y-41192326D01*
X100102899Y-41154633D01*
X100121466Y-41119897D01*
X100146452Y-41089452D01*
X100176897Y-41064466D01*
X100211633Y-41045899D01*
X100249326Y-41034465D01*
X100294661Y-41030000D01*
X101381339Y-41030000D01*
X101426674Y-41034465D01*
X101426674Y-41034465D01*
G37*
M02*
