G04 #@! TF.GenerationSoftware,KiCad,Pcbnew,5.1.2*
G04 #@! TF.CreationDate,2019-05-23T10:46:26+02:00*
G04 #@! TF.ProjectId,pcb,7063622e-6b69-4636-9164-5f7063625858,rev?*
G04 #@! TF.SameCoordinates,Original*
G04 #@! TF.FileFunction,Legend,Top*
G04 #@! TF.FilePolarity,Positive*
%FSLAX46Y46*%
G04 Gerber Fmt 4.6, Leading zero omitted, Abs format (unit mm)*
G04 Created by KiCad (PCBNEW 5.1.2) date 2019-05-23 10:46:26*
%MOMM*%
%LPD*%
G04 APERTURE LIST*
%ADD10C,0.150000*%
%ADD11C,0.120000*%
G04 APERTURE END LIST*
D10*
X111506047Y-43124380D02*
X111172714Y-42648190D01*
X110934619Y-43124380D02*
X110934619Y-42124380D01*
X111315571Y-42124380D01*
X111410809Y-42172000D01*
X111458428Y-42219619D01*
X111506047Y-42314857D01*
X111506047Y-42457714D01*
X111458428Y-42552952D01*
X111410809Y-42600571D01*
X111315571Y-42648190D01*
X110934619Y-42648190D01*
X111887000Y-43076761D02*
X111982238Y-43124380D01*
X112172714Y-43124380D01*
X112267952Y-43076761D01*
X112315571Y-42981523D01*
X112315571Y-42933904D01*
X112267952Y-42838666D01*
X112172714Y-42791047D01*
X112029857Y-42791047D01*
X111934619Y-42743428D01*
X111887000Y-42648190D01*
X111887000Y-42600571D01*
X111934619Y-42505333D01*
X112029857Y-42457714D01*
X112172714Y-42457714D01*
X112267952Y-42505333D01*
X112601285Y-42457714D02*
X112982238Y-42457714D01*
X112744142Y-42124380D02*
X112744142Y-42981523D01*
X112791761Y-43076761D01*
X112887000Y-43124380D01*
X112982238Y-43124380D01*
X97023180Y-82473752D02*
X96546990Y-82807085D01*
X97023180Y-83045180D02*
X96023180Y-83045180D01*
X96023180Y-82664228D01*
X96070800Y-82568990D01*
X96118419Y-82521371D01*
X96213657Y-82473752D01*
X96356514Y-82473752D01*
X96451752Y-82521371D01*
X96499371Y-82568990D01*
X96546990Y-82664228D01*
X96546990Y-83045180D01*
X96975561Y-82092800D02*
X97023180Y-81997561D01*
X97023180Y-81807085D01*
X96975561Y-81711847D01*
X96880323Y-81664228D01*
X96832704Y-81664228D01*
X96737466Y-81711847D01*
X96689847Y-81807085D01*
X96689847Y-81949942D01*
X96642228Y-82045180D01*
X96546990Y-82092800D01*
X96499371Y-82092800D01*
X96404133Y-82045180D01*
X96356514Y-81949942D01*
X96356514Y-81807085D01*
X96404133Y-81711847D01*
X96356514Y-81378514D02*
X96356514Y-80997561D01*
X96023180Y-81235657D02*
X96880323Y-81235657D01*
X96975561Y-81188038D01*
X97023180Y-81092800D01*
X97023180Y-80997561D01*
X133099942Y-41867580D02*
X133099942Y-40867580D01*
X133671371Y-41867580D02*
X133242800Y-41296152D01*
X133671371Y-40867580D02*
X133099942Y-41439009D01*
X134099942Y-41867580D02*
X134099942Y-40867580D01*
X134671371Y-41867580D01*
X134671371Y-40867580D01*
X135052323Y-40867580D02*
X135718990Y-41867580D01*
X135718990Y-40867580D02*
X135052323Y-41867580D01*
X136718990Y-41200914D02*
X137099942Y-41200914D01*
X136861847Y-40867580D02*
X136861847Y-41724723D01*
X136909466Y-41819961D01*
X137004704Y-41867580D01*
X137099942Y-41867580D01*
X137814228Y-41819961D02*
X137718990Y-41867580D01*
X137528514Y-41867580D01*
X137433276Y-41819961D01*
X137385657Y-41724723D01*
X137385657Y-41343771D01*
X137433276Y-41248533D01*
X137528514Y-41200914D01*
X137718990Y-41200914D01*
X137814228Y-41248533D01*
X137861847Y-41343771D01*
X137861847Y-41439009D01*
X137385657Y-41534247D01*
X138290419Y-41867580D02*
X138290419Y-41200914D01*
X138290419Y-41296152D02*
X138338038Y-41248533D01*
X138433276Y-41200914D01*
X138576133Y-41200914D01*
X138671371Y-41248533D01*
X138718990Y-41343771D01*
X138718990Y-41867580D01*
X138718990Y-41343771D02*
X138766609Y-41248533D01*
X138861847Y-41200914D01*
X139004704Y-41200914D01*
X139099942Y-41248533D01*
X139147561Y-41343771D01*
X139147561Y-41867580D01*
X139623752Y-41200914D02*
X139623752Y-42200914D01*
X139623752Y-41248533D02*
X139718990Y-41200914D01*
X139909466Y-41200914D01*
X140004704Y-41248533D01*
X140052323Y-41296152D01*
X140099942Y-41391390D01*
X140099942Y-41677104D01*
X140052323Y-41772342D01*
X140004704Y-41819961D01*
X139909466Y-41867580D01*
X139718990Y-41867580D01*
X139623752Y-41819961D01*
X140909466Y-41819961D02*
X140814228Y-41867580D01*
X140623752Y-41867580D01*
X140528514Y-41819961D01*
X140480895Y-41724723D01*
X140480895Y-41343771D01*
X140528514Y-41248533D01*
X140623752Y-41200914D01*
X140814228Y-41200914D01*
X140909466Y-41248533D01*
X140957085Y-41343771D01*
X140957085Y-41439009D01*
X140480895Y-41534247D01*
X141385657Y-41867580D02*
X141385657Y-41200914D01*
X141385657Y-41391390D02*
X141433276Y-41296152D01*
X141480895Y-41248533D01*
X141576133Y-41200914D01*
X141671371Y-41200914D01*
X142433276Y-41867580D02*
X142433276Y-41343771D01*
X142385657Y-41248533D01*
X142290419Y-41200914D01*
X142099942Y-41200914D01*
X142004704Y-41248533D01*
X142433276Y-41819961D02*
X142338038Y-41867580D01*
X142099942Y-41867580D01*
X142004704Y-41819961D01*
X141957085Y-41724723D01*
X141957085Y-41629485D01*
X142004704Y-41534247D01*
X142099942Y-41486628D01*
X142338038Y-41486628D01*
X142433276Y-41439009D01*
X142766609Y-41200914D02*
X143147561Y-41200914D01*
X142909466Y-40867580D02*
X142909466Y-41724723D01*
X142957085Y-41819961D01*
X143052323Y-41867580D01*
X143147561Y-41867580D01*
X143909466Y-41200914D02*
X143909466Y-41867580D01*
X143480895Y-41200914D02*
X143480895Y-41724723D01*
X143528514Y-41819961D01*
X143623752Y-41867580D01*
X143766609Y-41867580D01*
X143861847Y-41819961D01*
X143909466Y-41772342D01*
X144385657Y-41867580D02*
X144385657Y-41200914D01*
X144385657Y-41391390D02*
X144433276Y-41296152D01*
X144480895Y-41248533D01*
X144576133Y-41200914D01*
X144671371Y-41200914D01*
X145385657Y-41819961D02*
X145290419Y-41867580D01*
X145099942Y-41867580D01*
X145004704Y-41819961D01*
X144957085Y-41724723D01*
X144957085Y-41343771D01*
X145004704Y-41248533D01*
X145099942Y-41200914D01*
X145290419Y-41200914D01*
X145385657Y-41248533D01*
X145433276Y-41343771D01*
X145433276Y-41439009D01*
X144957085Y-41534247D01*
X131671371Y-43517580D02*
X131671371Y-42850914D01*
X131671371Y-42946152D02*
X131718990Y-42898533D01*
X131814228Y-42850914D01*
X131957085Y-42850914D01*
X132052323Y-42898533D01*
X132099942Y-42993771D01*
X132099942Y-43517580D01*
X132099942Y-42993771D02*
X132147561Y-42898533D01*
X132242800Y-42850914D01*
X132385657Y-42850914D01*
X132480895Y-42898533D01*
X132528514Y-42993771D01*
X132528514Y-43517580D01*
X133147561Y-43517580D02*
X133052323Y-43469961D01*
X133004704Y-43422342D01*
X132957085Y-43327104D01*
X132957085Y-43041390D01*
X133004704Y-42946152D01*
X133052323Y-42898533D01*
X133147561Y-42850914D01*
X133290419Y-42850914D01*
X133385657Y-42898533D01*
X133433276Y-42946152D01*
X133480895Y-43041390D01*
X133480895Y-43327104D01*
X133433276Y-43422342D01*
X133385657Y-43469961D01*
X133290419Y-43517580D01*
X133147561Y-43517580D01*
X133909466Y-42850914D02*
X133909466Y-43517580D01*
X133909466Y-42946152D02*
X133957085Y-42898533D01*
X134052323Y-42850914D01*
X134195180Y-42850914D01*
X134290419Y-42898533D01*
X134338038Y-42993771D01*
X134338038Y-43517580D01*
X134814228Y-43517580D02*
X134814228Y-42850914D01*
X134814228Y-42517580D02*
X134766609Y-42565200D01*
X134814228Y-42612819D01*
X134861847Y-42565200D01*
X134814228Y-42517580D01*
X134814228Y-42612819D01*
X135147561Y-42850914D02*
X135528514Y-42850914D01*
X135290419Y-42517580D02*
X135290419Y-43374723D01*
X135338038Y-43469961D01*
X135433276Y-43517580D01*
X135528514Y-43517580D01*
X136004704Y-43517580D02*
X135909466Y-43469961D01*
X135861847Y-43422342D01*
X135814228Y-43327104D01*
X135814228Y-43041390D01*
X135861847Y-42946152D01*
X135909466Y-42898533D01*
X136004704Y-42850914D01*
X136147561Y-42850914D01*
X136242800Y-42898533D01*
X136290419Y-42946152D01*
X136338038Y-43041390D01*
X136338038Y-43327104D01*
X136290419Y-43422342D01*
X136242800Y-43469961D01*
X136147561Y-43517580D01*
X136004704Y-43517580D01*
X136766609Y-43517580D02*
X136766609Y-42850914D01*
X136766609Y-43041390D02*
X136814228Y-42946152D01*
X136861847Y-42898533D01*
X136957085Y-42850914D01*
X137052323Y-42850914D01*
X138004704Y-42517580D02*
X138338038Y-43517580D01*
X138671371Y-42517580D01*
X139528514Y-43517580D02*
X138957085Y-43517580D01*
X139242800Y-43517580D02*
X139242800Y-42517580D01*
X139147561Y-42660438D01*
X139052323Y-42755676D01*
X138957085Y-42803295D01*
X139957085Y-43422342D02*
X140004704Y-43469961D01*
X139957085Y-43517580D01*
X139909466Y-43469961D01*
X139957085Y-43422342D01*
X139957085Y-43517580D01*
X140623752Y-42517580D02*
X140718990Y-42517580D01*
X140814228Y-42565200D01*
X140861847Y-42612819D01*
X140909466Y-42708057D01*
X140957085Y-42898533D01*
X140957085Y-43136628D01*
X140909466Y-43327104D01*
X140861847Y-43422342D01*
X140814228Y-43469961D01*
X140718990Y-43517580D01*
X140623752Y-43517580D01*
X140528514Y-43469961D01*
X140480895Y-43422342D01*
X140433276Y-43327104D01*
X140385657Y-43136628D01*
X140385657Y-42898533D01*
X140433276Y-42708057D01*
X140480895Y-42612819D01*
X140528514Y-42565200D01*
X140623752Y-42517580D01*
X142433276Y-43898533D02*
X142385657Y-43850914D01*
X142290419Y-43708057D01*
X142242800Y-43612819D01*
X142195180Y-43469961D01*
X142147561Y-43231866D01*
X142147561Y-43041390D01*
X142195180Y-42803295D01*
X142242800Y-42660438D01*
X142290419Y-42565200D01*
X142385657Y-42422342D01*
X142433276Y-42374723D01*
X142766609Y-42612819D02*
X142814228Y-42565200D01*
X142909466Y-42517580D01*
X143147561Y-42517580D01*
X143242800Y-42565200D01*
X143290419Y-42612819D01*
X143338038Y-42708057D01*
X143338038Y-42803295D01*
X143290419Y-42946152D01*
X142718990Y-43517580D01*
X143338038Y-43517580D01*
X143957085Y-42517580D02*
X144052323Y-42517580D01*
X144147561Y-42565200D01*
X144195180Y-42612819D01*
X144242800Y-42708057D01*
X144290419Y-42898533D01*
X144290419Y-43136628D01*
X144242800Y-43327104D01*
X144195180Y-43422342D01*
X144147561Y-43469961D01*
X144052323Y-43517580D01*
X143957085Y-43517580D01*
X143861847Y-43469961D01*
X143814228Y-43422342D01*
X143766609Y-43327104D01*
X143718990Y-43136628D01*
X143718990Y-42898533D01*
X143766609Y-42708057D01*
X143814228Y-42612819D01*
X143861847Y-42565200D01*
X143957085Y-42517580D01*
X145242800Y-43517580D02*
X144671371Y-43517580D01*
X144957085Y-43517580D02*
X144957085Y-42517580D01*
X144861847Y-42660438D01*
X144766609Y-42755676D01*
X144671371Y-42803295D01*
X145718990Y-43517580D02*
X145909466Y-43517580D01*
X146004704Y-43469961D01*
X146052323Y-43422342D01*
X146147561Y-43279485D01*
X146195180Y-43089009D01*
X146195180Y-42708057D01*
X146147561Y-42612819D01*
X146099942Y-42565200D01*
X146004704Y-42517580D01*
X145814228Y-42517580D01*
X145718990Y-42565200D01*
X145671371Y-42612819D01*
X145623752Y-42708057D01*
X145623752Y-42946152D01*
X145671371Y-43041390D01*
X145718990Y-43089009D01*
X145814228Y-43136628D01*
X146004704Y-43136628D01*
X146099942Y-43089009D01*
X146147561Y-43041390D01*
X146195180Y-42946152D01*
X146528514Y-43898533D02*
X146576133Y-43850914D01*
X146671371Y-43708057D01*
X146718990Y-43612819D01*
X146766609Y-43469961D01*
X146814228Y-43231866D01*
X146814228Y-43041390D01*
X146766609Y-42803295D01*
X146718990Y-42660438D01*
X146671371Y-42565200D01*
X146576133Y-42422342D01*
X146528514Y-42374723D01*
X114243790Y-41133780D02*
X114434266Y-41133780D01*
X114529504Y-41181400D01*
X114624742Y-41276638D01*
X114672361Y-41467114D01*
X114672361Y-41800447D01*
X114624742Y-41990923D01*
X114529504Y-42086161D01*
X114434266Y-42133780D01*
X114243790Y-42133780D01*
X114148552Y-42086161D01*
X114053314Y-41990923D01*
X114005695Y-41800447D01*
X114005695Y-41467114D01*
X114053314Y-41276638D01*
X114148552Y-41181400D01*
X114243790Y-41133780D01*
X115243790Y-42133780D02*
X115148552Y-42086161D01*
X115100933Y-41990923D01*
X115100933Y-41133780D01*
X115624742Y-42133780D02*
X115624742Y-41467114D01*
X115624742Y-41133780D02*
X115577123Y-41181400D01*
X115624742Y-41229019D01*
X115672361Y-41181400D01*
X115624742Y-41133780D01*
X115624742Y-41229019D01*
X116005695Y-41467114D02*
X116243790Y-42133780D01*
X116481885Y-41467114D01*
X116862838Y-42133780D02*
X116862838Y-41467114D01*
X116862838Y-41133780D02*
X116815219Y-41181400D01*
X116862838Y-41229019D01*
X116910457Y-41181400D01*
X116862838Y-41133780D01*
X116862838Y-41229019D01*
X117719980Y-42086161D02*
X117624742Y-42133780D01*
X117434266Y-42133780D01*
X117339028Y-42086161D01*
X117291409Y-41990923D01*
X117291409Y-41609971D01*
X117339028Y-41514733D01*
X117434266Y-41467114D01*
X117624742Y-41467114D01*
X117719980Y-41514733D01*
X117767600Y-41609971D01*
X117767600Y-41705209D01*
X117291409Y-41800447D01*
X118196171Y-42133780D02*
X118196171Y-41467114D01*
X118196171Y-41657590D02*
X118243790Y-41562352D01*
X118291409Y-41514733D01*
X118386647Y-41467114D01*
X118481885Y-41467114D01*
X119434266Y-41133780D02*
X119767600Y-42133780D01*
X120100933Y-41133780D01*
X120862838Y-42133780D02*
X120862838Y-41609971D01*
X120815219Y-41514733D01*
X120719980Y-41467114D01*
X120529504Y-41467114D01*
X120434266Y-41514733D01*
X120862838Y-42086161D02*
X120767600Y-42133780D01*
X120529504Y-42133780D01*
X120434266Y-42086161D01*
X120386647Y-41990923D01*
X120386647Y-41895685D01*
X120434266Y-41800447D01*
X120529504Y-41752828D01*
X120767600Y-41752828D01*
X120862838Y-41705209D01*
X121339028Y-41467114D02*
X121339028Y-42133780D01*
X121339028Y-41562352D02*
X121386647Y-41514733D01*
X121481885Y-41467114D01*
X121624742Y-41467114D01*
X121719980Y-41514733D01*
X121767600Y-41609971D01*
X121767600Y-42133780D01*
X123434266Y-42133780D02*
X123434266Y-41133780D01*
X123434266Y-42086161D02*
X123339028Y-42133780D01*
X123148552Y-42133780D01*
X123053314Y-42086161D01*
X123005695Y-42038542D01*
X122958076Y-41943304D01*
X122958076Y-41657590D01*
X123005695Y-41562352D01*
X123053314Y-41514733D01*
X123148552Y-41467114D01*
X123339028Y-41467114D01*
X123434266Y-41514733D01*
X124291409Y-42086161D02*
X124196171Y-42133780D01*
X124005695Y-42133780D01*
X123910457Y-42086161D01*
X123862838Y-41990923D01*
X123862838Y-41609971D01*
X123910457Y-41514733D01*
X124005695Y-41467114D01*
X124196171Y-41467114D01*
X124291409Y-41514733D01*
X124339028Y-41609971D01*
X124339028Y-41705209D01*
X123862838Y-41800447D01*
X124767600Y-41467114D02*
X124767600Y-42133780D01*
X124767600Y-41562352D02*
X124815219Y-41514733D01*
X124910457Y-41467114D01*
X125053314Y-41467114D01*
X125148552Y-41514733D01*
X125196171Y-41609971D01*
X125196171Y-42133780D01*
X126434266Y-41609971D02*
X126767600Y-41609971D01*
X126910457Y-42133780D02*
X126434266Y-42133780D01*
X126434266Y-41133780D01*
X126910457Y-41133780D01*
X127719980Y-42086161D02*
X127624742Y-42133780D01*
X127434266Y-42133780D01*
X127339028Y-42086161D01*
X127291409Y-41990923D01*
X127291409Y-41609971D01*
X127339028Y-41514733D01*
X127434266Y-41467114D01*
X127624742Y-41467114D01*
X127719980Y-41514733D01*
X127767600Y-41609971D01*
X127767600Y-41705209D01*
X127291409Y-41800447D01*
X128624742Y-42133780D02*
X128624742Y-41133780D01*
X128624742Y-42086161D02*
X128529504Y-42133780D01*
X128339028Y-42133780D01*
X128243790Y-42086161D01*
X128196171Y-42038542D01*
X128148552Y-41943304D01*
X128148552Y-41657590D01*
X128196171Y-41562352D01*
X128243790Y-41514733D01*
X128339028Y-41467114D01*
X128529504Y-41467114D01*
X128624742Y-41514733D01*
X129481885Y-42086161D02*
X129386647Y-42133780D01*
X129196171Y-42133780D01*
X129100933Y-42086161D01*
X129053314Y-41990923D01*
X129053314Y-41609971D01*
X129100933Y-41514733D01*
X129196171Y-41467114D01*
X129386647Y-41467114D01*
X129481885Y-41514733D01*
X129529504Y-41609971D01*
X129529504Y-41705209D01*
X129053314Y-41800447D01*
X91003428Y-68706952D02*
X91003428Y-67945047D01*
X90551047Y-63317428D02*
X91312952Y-63317428D01*
X90932000Y-63698380D02*
X90932000Y-62936476D01*
X116348000Y-84780380D02*
X116348000Y-83780380D01*
X116824190Y-84780380D02*
X116824190Y-83780380D01*
X117395619Y-84780380D01*
X117395619Y-83780380D01*
X117776571Y-83780380D02*
X118395619Y-83780380D01*
X118062285Y-84161333D01*
X118205142Y-84161333D01*
X118300380Y-84208952D01*
X118348000Y-84256571D01*
X118395619Y-84351809D01*
X118395619Y-84589904D01*
X118348000Y-84685142D01*
X118300380Y-84732761D01*
X118205142Y-84780380D01*
X117919428Y-84780380D01*
X117824190Y-84732761D01*
X117776571Y-84685142D01*
X111268000Y-84780380D02*
X111268000Y-83780380D01*
X111744190Y-84780380D02*
X111744190Y-83780380D01*
X112315619Y-84780380D01*
X112315619Y-83780380D01*
X112744190Y-83875619D02*
X112791809Y-83828000D01*
X112887047Y-83780380D01*
X113125142Y-83780380D01*
X113220380Y-83828000D01*
X113268000Y-83875619D01*
X113315619Y-83970857D01*
X113315619Y-84066095D01*
X113268000Y-84208952D01*
X112696571Y-84780380D01*
X113315619Y-84780380D01*
X105426000Y-84780380D02*
X105426000Y-83780380D01*
X105902190Y-84780380D02*
X105902190Y-83780380D01*
X106473619Y-84780380D01*
X106473619Y-83780380D01*
X107473619Y-84780380D02*
X106902190Y-84780380D01*
X107187904Y-84780380D02*
X107187904Y-83780380D01*
X107092666Y-83923238D01*
X106997428Y-84018476D01*
X106902190Y-84066095D01*
X100346000Y-84780380D02*
X100346000Y-83780380D01*
X100822190Y-84780380D02*
X100822190Y-83780380D01*
X101393619Y-84780380D01*
X101393619Y-83780380D01*
X102060285Y-83780380D02*
X102155523Y-83780380D01*
X102250761Y-83828000D01*
X102298380Y-83875619D01*
X102346000Y-83970857D01*
X102393619Y-84161333D01*
X102393619Y-84399428D01*
X102346000Y-84589904D01*
X102298380Y-84685142D01*
X102250761Y-84732761D01*
X102155523Y-84780380D01*
X102060285Y-84780380D01*
X101965047Y-84732761D01*
X101917428Y-84685142D01*
X101869809Y-84589904D01*
X101822190Y-84399428D01*
X101822190Y-84161333D01*
X101869809Y-83970857D01*
X101917428Y-83875619D01*
X101965047Y-83828000D01*
X102060285Y-83780380D01*
X133048380Y-78954380D02*
X133143619Y-78954380D01*
X133238857Y-79002000D01*
X133286476Y-79049619D01*
X133334095Y-79144857D01*
X133381714Y-79335333D01*
X133381714Y-79573428D01*
X133334095Y-79763904D01*
X133286476Y-79859142D01*
X133238857Y-79906761D01*
X133143619Y-79954380D01*
X133048380Y-79954380D01*
X132953142Y-79906761D01*
X132905523Y-79859142D01*
X132857904Y-79763904D01*
X132810285Y-79573428D01*
X132810285Y-79335333D01*
X132857904Y-79144857D01*
X132905523Y-79049619D01*
X132953142Y-79002000D01*
X133048380Y-78954380D01*
X133381714Y-77414380D02*
X132810285Y-77414380D01*
X133096000Y-77414380D02*
X133096000Y-76414380D01*
X133000761Y-76557238D01*
X132905523Y-76652476D01*
X132810285Y-76700095D01*
X139922285Y-79049619D02*
X139969904Y-79002000D01*
X140065142Y-78954380D01*
X140303238Y-78954380D01*
X140398476Y-79002000D01*
X140446095Y-79049619D01*
X140493714Y-79144857D01*
X140493714Y-79240095D01*
X140446095Y-79382952D01*
X139874666Y-79954380D01*
X140493714Y-79954380D01*
X139874666Y-76414380D02*
X140493714Y-76414380D01*
X140160380Y-76795333D01*
X140303238Y-76795333D01*
X140398476Y-76842952D01*
X140446095Y-76890571D01*
X140493714Y-76985809D01*
X140493714Y-77223904D01*
X140446095Y-77319142D01*
X140398476Y-77366761D01*
X140303238Y-77414380D01*
X140017523Y-77414380D01*
X139922285Y-77366761D01*
X139874666Y-77319142D01*
X135413904Y-84399428D02*
X136175809Y-84399428D01*
X135794857Y-84780380D02*
X135794857Y-84018476D01*
X137128190Y-83780380D02*
X136652000Y-83780380D01*
X136604380Y-84256571D01*
X136652000Y-84208952D01*
X136747238Y-84161333D01*
X136985333Y-84161333D01*
X137080571Y-84208952D01*
X137128190Y-84256571D01*
X137175809Y-84351809D01*
X137175809Y-84589904D01*
X137128190Y-84685142D01*
X137080571Y-84732761D01*
X136985333Y-84780380D01*
X136747238Y-84780380D01*
X136652000Y-84732761D01*
X136604380Y-84685142D01*
X137509142Y-84113714D02*
X137747238Y-84780380D01*
X137985333Y-84113714D01*
X132342000Y-75064857D02*
X132294380Y-75160095D01*
X132294380Y-75302952D01*
X132342000Y-75445809D01*
X132437238Y-75541047D01*
X132532476Y-75588666D01*
X132722952Y-75636285D01*
X132865809Y-75636285D01*
X133056285Y-75588666D01*
X133151523Y-75541047D01*
X133246761Y-75445809D01*
X133294380Y-75302952D01*
X133294380Y-75207714D01*
X133246761Y-75064857D01*
X133199142Y-75017238D01*
X132865809Y-75017238D01*
X132865809Y-75207714D01*
X132627714Y-74588666D02*
X133294380Y-74588666D01*
X132722952Y-74588666D02*
X132675333Y-74541047D01*
X132627714Y-74445809D01*
X132627714Y-74302952D01*
X132675333Y-74207714D01*
X132770571Y-74160095D01*
X133294380Y-74160095D01*
X133294380Y-73255333D02*
X132294380Y-73255333D01*
X133246761Y-73255333D02*
X133294380Y-73350571D01*
X133294380Y-73541047D01*
X133246761Y-73636285D01*
X133199142Y-73683904D01*
X133103904Y-73731523D01*
X132818190Y-73731523D01*
X132722952Y-73683904D01*
X132675333Y-73636285D01*
X132627714Y-73541047D01*
X132627714Y-73350571D01*
X132675333Y-73255333D01*
X140025500Y-75128357D02*
X139977880Y-75223595D01*
X139977880Y-75366452D01*
X140025500Y-75509309D01*
X140120738Y-75604547D01*
X140215976Y-75652166D01*
X140406452Y-75699785D01*
X140549309Y-75699785D01*
X140739785Y-75652166D01*
X140835023Y-75604547D01*
X140930261Y-75509309D01*
X140977880Y-75366452D01*
X140977880Y-75271214D01*
X140930261Y-75128357D01*
X140882642Y-75080738D01*
X140549309Y-75080738D01*
X140549309Y-75271214D01*
X140311214Y-74652166D02*
X140977880Y-74652166D01*
X140406452Y-74652166D02*
X140358833Y-74604547D01*
X140311214Y-74509309D01*
X140311214Y-74366452D01*
X140358833Y-74271214D01*
X140454071Y-74223595D01*
X140977880Y-74223595D01*
X140977880Y-73318833D02*
X139977880Y-73318833D01*
X140930261Y-73318833D02*
X140977880Y-73414071D01*
X140977880Y-73604547D01*
X140930261Y-73699785D01*
X140882642Y-73747404D01*
X140787404Y-73795023D01*
X140501690Y-73795023D01*
X140406452Y-73747404D01*
X140358833Y-73699785D01*
X140311214Y-73604547D01*
X140311214Y-73414071D01*
X140358833Y-73318833D01*
D11*
X98546000Y-83802000D02*
X100546000Y-83802000D01*
X98546000Y-81562000D02*
X98546000Y-83802000D01*
X105166000Y-80478000D02*
X105072000Y-80571000D01*
X107416000Y-78227000D02*
X107357000Y-78286000D01*
X105336000Y-80718000D02*
X105277000Y-80776000D01*
X107621000Y-78433000D02*
X107527000Y-78526000D01*
X108906000Y-75442000D02*
X108906000Y-83562000D01*
X98786000Y-75442000D02*
X98786000Y-83562000D01*
X98786000Y-83562000D02*
X108906000Y-83562000D01*
X98786000Y-75442000D02*
X108906000Y-75442000D01*
X98786000Y-77502000D02*
X108906000Y-77502000D01*
X98786000Y-81502000D02*
X108906000Y-81502000D01*
X108026000Y-79502000D02*
G75*
G03X108026000Y-79502000I-1680000J0D01*
G01*
X101375383Y-81182450D02*
G75*
G02X100557000Y-80986000I-29383J1680450D01*
G01*
X99862047Y-80291088D02*
G75*
G02X99862000Y-78713000I1483953J789088D01*
G01*
X100556912Y-78018047D02*
G75*
G02X102135000Y-78018000I789088J-1483953D01*
G01*
X102829953Y-78712912D02*
G75*
G02X102830000Y-80291000I-1483953J-789088D01*
G01*
X102134712Y-80985352D02*
G75*
G02X101346000Y-81182000I-788712J1483352D01*
G01*
D10*
X128255000Y-62819000D02*
X128605000Y-62819000D01*
X128255000Y-57069000D02*
X128705000Y-57069000D01*
X135905000Y-57069000D02*
X135455000Y-57069000D01*
X135905000Y-62819000D02*
X135455000Y-62819000D01*
X128255000Y-62819000D02*
X128255000Y-57069000D01*
X135905000Y-62819000D02*
X135905000Y-57069000D01*
X128605000Y-62819000D02*
X128605000Y-64419000D01*
D11*
X102616000Y-50546000D02*
X141986000Y-50546000D01*
X141986000Y-50546000D02*
X141986000Y-70866000D01*
X141986000Y-70866000D02*
X102616000Y-70866000D01*
X102616000Y-70866000D02*
X102616000Y-50546000D01*
X106672748Y-62155000D02*
X107195252Y-62155000D01*
X106672748Y-63575000D02*
X107195252Y-63575000D01*
X114692500Y-68532752D02*
X114692500Y-68010248D01*
X113272500Y-68532752D02*
X113272500Y-68010248D01*
X120666252Y-55170000D02*
X120143748Y-55170000D01*
X120666252Y-56590000D02*
X120143748Y-56590000D01*
X110219748Y-53138000D02*
X110742252Y-53138000D01*
X110219748Y-54558000D02*
X110742252Y-54558000D01*
X108314748Y-66115000D02*
X108837252Y-66115000D01*
X108314748Y-64695000D02*
X108837252Y-64695000D01*
X94232252Y-52272000D02*
X93709748Y-52272000D01*
X94232252Y-50852000D02*
X93709748Y-50852000D01*
X139429748Y-48566000D02*
X139952252Y-48566000D01*
X139429748Y-49986000D02*
X139952252Y-49986000D01*
X98027748Y-52272000D02*
X98550252Y-52272000D01*
X98027748Y-50852000D02*
X98550252Y-50852000D01*
X126798000Y-67580252D02*
X126798000Y-67057748D01*
X128218000Y-67580252D02*
X128218000Y-67057748D01*
X130313500Y-67571252D02*
X130313500Y-67048748D01*
X128893500Y-67571252D02*
X128893500Y-67048748D01*
X143308000Y-67834252D02*
X143308000Y-67311748D01*
X144728000Y-67834252D02*
X144728000Y-67311748D01*
X149296000Y-43790000D02*
X149296000Y-40930000D01*
X149296000Y-40930000D02*
X147376000Y-40930000D01*
X147376000Y-40930000D02*
X147376000Y-43790000D01*
X95818000Y-72965000D02*
X93158000Y-72965000D01*
X95818000Y-80645000D02*
X95818000Y-72965000D01*
X93158000Y-80645000D02*
X93158000Y-72965000D01*
X95818000Y-80645000D02*
X93158000Y-80645000D01*
X95818000Y-81915000D02*
X95818000Y-83245000D01*
X95818000Y-83245000D02*
X94488000Y-83245000D01*
X113157000Y-46097500D02*
X113157000Y-43437500D01*
X113157000Y-46097500D02*
X130997000Y-46097500D01*
X130997000Y-46097500D02*
X130997000Y-43437500D01*
X113157000Y-43437500D02*
X130997000Y-43437500D01*
X110557000Y-43437500D02*
X111887000Y-43437500D01*
X110557000Y-44767500D02*
X110557000Y-43437500D01*
X147403000Y-82108000D02*
X147403000Y-84058000D01*
X141903000Y-82108000D02*
X147403000Y-82108000D01*
X141903000Y-84058000D02*
X141903000Y-82108000D01*
X147403000Y-84058000D02*
X141903000Y-84058000D01*
X143018000Y-71461000D02*
X145018000Y-71461000D01*
X143018000Y-74261000D02*
X143018000Y-71461000D01*
X145018000Y-74261000D02*
X143018000Y-74261000D01*
X145018000Y-71461000D02*
X145018000Y-74261000D01*
X145018000Y-59015000D02*
X145018000Y-61815000D01*
X145018000Y-61815000D02*
X143018000Y-61815000D01*
X143018000Y-61815000D02*
X143018000Y-59015000D01*
X143018000Y-59015000D02*
X145018000Y-59015000D01*
X126452000Y-48942500D02*
X126452000Y-46942500D01*
X129252000Y-48942500D02*
X126452000Y-48942500D01*
X129252000Y-46942500D02*
X129252000Y-48942500D01*
X126452000Y-46942500D02*
X129252000Y-46942500D01*
X105462000Y-59183748D02*
X105462000Y-59706252D01*
X106882000Y-59183748D02*
X106882000Y-59706252D01*
X109422000Y-49268748D02*
X109422000Y-49791252D01*
X108002000Y-49268748D02*
X108002000Y-49791252D01*
X105716000Y-49268748D02*
X105716000Y-49791252D01*
X107136000Y-49268748D02*
X107136000Y-49791252D01*
X132409000Y-67580252D02*
X132409000Y-67057748D01*
X130989000Y-67580252D02*
X130989000Y-67057748D01*
X106104948Y-73178600D02*
X106627452Y-73178600D01*
X106104948Y-74598600D02*
X106627452Y-74598600D01*
X102124252Y-73178600D02*
X101601748Y-73178600D01*
X102124252Y-74598600D02*
X101601748Y-74598600D01*
X117349748Y-73178600D02*
X117872252Y-73178600D01*
X117349748Y-74598600D02*
X117872252Y-74598600D01*
X113002852Y-74598600D02*
X112480348Y-74598600D01*
X113002852Y-73178600D02*
X112480348Y-73178600D01*
X154344000Y-52340000D02*
X154344000Y-47840000D01*
X150344000Y-53590000D02*
X151844000Y-53590000D01*
X147844000Y-47840000D02*
X147844000Y-52340000D01*
X151844000Y-46590000D02*
X150344000Y-46590000D01*
X117910000Y-57292000D02*
X117910000Y-56842000D01*
X117910000Y-56842000D02*
X117460000Y-56842000D01*
X117910000Y-63612000D02*
X117910000Y-64062000D01*
X117910000Y-64062000D02*
X117460000Y-64062000D01*
X110690000Y-57292000D02*
X110690000Y-56842000D01*
X110690000Y-56842000D02*
X111140000Y-56842000D01*
X110690000Y-63612000D02*
X110690000Y-64062000D01*
X110690000Y-64062000D02*
X111140000Y-64062000D01*
X111140000Y-64062000D02*
X111140000Y-65352000D01*
X91146000Y-52864000D02*
X101386000Y-52864000D01*
X91146000Y-57505000D02*
X101386000Y-57505000D01*
X91146000Y-52864000D02*
X91146000Y-57505000D01*
X101386000Y-52864000D02*
X101386000Y-57505000D01*
X91146000Y-54374000D02*
X101386000Y-54374000D01*
X94416000Y-52864000D02*
X94416000Y-54374000D01*
X98117000Y-52864000D02*
X98117000Y-54374000D01*
X154668000Y-78412000D02*
X154668000Y-76412000D01*
X152428000Y-78412000D02*
X154668000Y-78412000D01*
X151344000Y-71792000D02*
X151437000Y-71886000D01*
X149093000Y-69542000D02*
X149152000Y-69601000D01*
X151584000Y-71622000D02*
X151642000Y-71681000D01*
X149299000Y-69337000D02*
X149392000Y-69431000D01*
X146308000Y-68052000D02*
X154428000Y-68052000D01*
X146308000Y-78172000D02*
X154428000Y-78172000D01*
X154428000Y-78172000D02*
X154428000Y-68052000D01*
X146308000Y-78172000D02*
X146308000Y-68052000D01*
X148368000Y-78172000D02*
X148368000Y-68052000D01*
X152368000Y-78172000D02*
X152368000Y-68052000D01*
X152048000Y-70612000D02*
G75*
G03X152048000Y-70612000I-1680000J0D01*
G01*
X152048450Y-75582617D02*
G75*
G02X151852000Y-76401000I-1680450J-29383D01*
G01*
X151157088Y-77095953D02*
G75*
G02X149579000Y-77096000I-789088J1483953D01*
G01*
X148884047Y-76401088D02*
G75*
G02X148884000Y-74823000I1483953J789088D01*
G01*
X149578912Y-74128047D02*
G75*
G02X151157000Y-74128000I789088J-1483953D01*
G01*
X151851352Y-74823288D02*
G75*
G02X152048000Y-75612000I-1483352J-788712D01*
G01*
X151851352Y-63901288D02*
G75*
G02X152048000Y-64690000I-1483352J-788712D01*
G01*
X149578912Y-63206047D02*
G75*
G02X151157000Y-63206000I789088J-1483953D01*
G01*
X148884047Y-65479088D02*
G75*
G02X148884000Y-63901000I1483953J789088D01*
G01*
X151157088Y-66173953D02*
G75*
G02X149579000Y-66174000I-789088J1483953D01*
G01*
X152048450Y-64660617D02*
G75*
G02X151852000Y-65479000I-1680450J-29383D01*
G01*
X152048000Y-59690000D02*
G75*
G03X152048000Y-59690000I-1680000J0D01*
G01*
X152368000Y-67250000D02*
X152368000Y-57130000D01*
X148368000Y-67250000D02*
X148368000Y-57130000D01*
X146308000Y-67250000D02*
X146308000Y-57130000D01*
X154428000Y-67250000D02*
X154428000Y-57130000D01*
X146308000Y-67250000D02*
X154428000Y-67250000D01*
X146308000Y-57130000D02*
X154428000Y-57130000D01*
X149299000Y-58415000D02*
X149392000Y-58509000D01*
X151584000Y-60700000D02*
X151642000Y-60759000D01*
X149093000Y-58620000D02*
X149152000Y-58679000D01*
X151344000Y-60870000D02*
X151437000Y-60964000D01*
X152428000Y-67490000D02*
X154668000Y-67490000D01*
X154668000Y-67490000D02*
X154668000Y-65490000D01*
X94528648Y-64114712D02*
G75*
G02X94332000Y-63326000I1483352J788712D01*
G01*
X96801088Y-64809953D02*
G75*
G02X95223000Y-64810000I-789088J1483953D01*
G01*
X97495953Y-62536912D02*
G75*
G02X97496000Y-64115000I-1483953J-789088D01*
G01*
X95222912Y-61842047D02*
G75*
G02X96801000Y-61842000I789088J-1483953D01*
G01*
X94331550Y-63355383D02*
G75*
G02X94528000Y-62537000I1680450J29383D01*
G01*
X97692000Y-68326000D02*
G75*
G03X97692000Y-68326000I-1680000J0D01*
G01*
X94012000Y-60766000D02*
X94012000Y-70886000D01*
X98012000Y-60766000D02*
X98012000Y-70886000D01*
X100072000Y-60766000D02*
X100072000Y-70886000D01*
X91952000Y-60766000D02*
X91952000Y-70886000D01*
X100072000Y-60766000D02*
X91952000Y-60766000D01*
X100072000Y-70886000D02*
X91952000Y-70886000D01*
X97081000Y-69601000D02*
X96988000Y-69507000D01*
X94796000Y-67316000D02*
X94738000Y-67257000D01*
X97287000Y-69396000D02*
X97228000Y-69337000D01*
X95036000Y-67146000D02*
X94943000Y-67052000D01*
X93952000Y-60526000D02*
X91712000Y-60526000D01*
X91712000Y-60526000D02*
X91712000Y-62526000D01*
X113132912Y-80985352D02*
G75*
G02X112344200Y-81182000I-788712J1483352D01*
G01*
X113828153Y-78712912D02*
G75*
G02X113828200Y-80291000I-1483953J-789088D01*
G01*
X111555112Y-78018047D02*
G75*
G02X113133200Y-78018000I789088J-1483953D01*
G01*
X110860247Y-80291088D02*
G75*
G02X110860200Y-78713000I1483953J789088D01*
G01*
X112373583Y-81182450D02*
G75*
G02X111555200Y-80986000I-29383J1680450D01*
G01*
X119024200Y-79502000D02*
G75*
G03X119024200Y-79502000I-1680000J0D01*
G01*
X109784200Y-81502000D02*
X119904200Y-81502000D01*
X109784200Y-77502000D02*
X119904200Y-77502000D01*
X109784200Y-75442000D02*
X119904200Y-75442000D01*
X109784200Y-83562000D02*
X119904200Y-83562000D01*
X109784200Y-75442000D02*
X109784200Y-83562000D01*
X119904200Y-75442000D02*
X119904200Y-83562000D01*
X118619200Y-78433000D02*
X118525200Y-78526000D01*
X116334200Y-80718000D02*
X116275200Y-80776000D01*
X118414200Y-78227000D02*
X118355200Y-78286000D01*
X116164200Y-80478000D02*
X116070200Y-80571000D01*
X109544200Y-81562000D02*
X109544200Y-83802000D01*
X109544200Y-83802000D02*
X111544200Y-83802000D01*
X120593200Y-83802000D02*
X122593200Y-83802000D01*
X120593200Y-81562000D02*
X120593200Y-83802000D01*
X127213200Y-80478000D02*
X127119200Y-80571000D01*
X129463200Y-78227000D02*
X129404200Y-78286000D01*
X127383200Y-80718000D02*
X127324200Y-80776000D01*
X129668200Y-78433000D02*
X129574200Y-78526000D01*
X130953200Y-75442000D02*
X130953200Y-83562000D01*
X120833200Y-75442000D02*
X120833200Y-83562000D01*
X120833200Y-83562000D02*
X130953200Y-83562000D01*
X120833200Y-75442000D02*
X130953200Y-75442000D01*
X120833200Y-77502000D02*
X130953200Y-77502000D01*
X120833200Y-81502000D02*
X130953200Y-81502000D01*
X130073200Y-79502000D02*
G75*
G03X130073200Y-79502000I-1680000J0D01*
G01*
X123422583Y-81182450D02*
G75*
G02X122604200Y-80986000I-29383J1680450D01*
G01*
X121909247Y-80291088D02*
G75*
G02X121909200Y-78713000I1483953J789088D01*
G01*
X122604112Y-78018047D02*
G75*
G02X124182200Y-78018000I789088J-1483953D01*
G01*
X124877153Y-78712912D02*
G75*
G02X124877200Y-80291000I-1483953J-789088D01*
G01*
X124181912Y-80985352D02*
G75*
G02X123393200Y-81182000I-788712J1483352D01*
G01*
X139252000Y-83372000D02*
X136652000Y-83372000D01*
X139252000Y-83372000D02*
X139252000Y-73092000D01*
X139252000Y-73092000D02*
X134052000Y-73092000D01*
X134052000Y-80772000D02*
X134052000Y-73092000D01*
X136652000Y-80772000D02*
X134052000Y-80772000D01*
X136652000Y-83372000D02*
X136652000Y-80772000D01*
X134052000Y-83372000D02*
X134052000Y-82042000D01*
X135382000Y-83372000D02*
X134052000Y-83372000D01*
X100128000Y-46719748D02*
X100128000Y-47242252D01*
X101548000Y-46719748D02*
X101548000Y-47242252D01*
X100128000Y-42942252D02*
X100128000Y-42419748D01*
X101548000Y-42942252D02*
X101548000Y-42419748D01*
X107426000Y-42991000D02*
G75*
G02X106726000Y-43691000I-700000J0D01*
G01*
X106126000Y-43691000D02*
G75*
G02X105426000Y-42991000I0J700000D01*
G01*
X105426000Y-41591000D02*
G75*
G02X106126000Y-40891000I700000J0D01*
G01*
X106726000Y-40891000D02*
G75*
G02X107426000Y-41591000I0J-700000D01*
G01*
X106126000Y-40891000D02*
X106726000Y-40891000D01*
X105426000Y-42991000D02*
X105426000Y-41591000D01*
X106726000Y-43691000D02*
X106126000Y-43691000D01*
X107426000Y-41591000D02*
X107426000Y-42991000D01*
X99422000Y-42946000D02*
X98162000Y-42946000D01*
X92602000Y-42946000D02*
X93862000Y-42946000D01*
X99422000Y-46706000D02*
X99422000Y-42946000D01*
X92602000Y-48956000D02*
X92602000Y-42946000D01*
D10*
X131532380Y-60705904D02*
X132341904Y-60705904D01*
X132437142Y-60658285D01*
X132484761Y-60610666D01*
X132532380Y-60515428D01*
X132532380Y-60324952D01*
X132484761Y-60229714D01*
X132437142Y-60182095D01*
X132341904Y-60134476D01*
X131532380Y-60134476D01*
X131627619Y-59705904D02*
X131580000Y-59658285D01*
X131532380Y-59563047D01*
X131532380Y-59324952D01*
X131580000Y-59229714D01*
X131627619Y-59182095D01*
X131722857Y-59134476D01*
X131818095Y-59134476D01*
X131960952Y-59182095D01*
X132532380Y-59753523D01*
X132532380Y-59134476D01*
X137282380Y-63563047D02*
X136282380Y-63563047D01*
X136996666Y-63229714D01*
X136282380Y-62896380D01*
X137282380Y-62896380D01*
X136996666Y-62467809D02*
X136996666Y-61991619D01*
X137282380Y-62563047D02*
X136282380Y-62229714D01*
X137282380Y-61896380D01*
X136282380Y-61658285D02*
X137282380Y-60991619D01*
X136282380Y-60991619D02*
X137282380Y-61658285D01*
X136282380Y-60705904D02*
X136282380Y-60086857D01*
X136663333Y-60420190D01*
X136663333Y-60277333D01*
X136710952Y-60182095D01*
X136758571Y-60134476D01*
X136853809Y-60086857D01*
X137091904Y-60086857D01*
X137187142Y-60134476D01*
X137234761Y-60182095D01*
X137282380Y-60277333D01*
X137282380Y-60563047D01*
X137234761Y-60658285D01*
X137187142Y-60705904D01*
X137282380Y-59134476D02*
X137282380Y-59705904D01*
X137282380Y-59420190D02*
X136282380Y-59420190D01*
X136425238Y-59515428D01*
X136520476Y-59610666D01*
X136568095Y-59705904D01*
X136710952Y-58563047D02*
X136663333Y-58658285D01*
X136615714Y-58705904D01*
X136520476Y-58753523D01*
X136472857Y-58753523D01*
X136377619Y-58705904D01*
X136330000Y-58658285D01*
X136282380Y-58563047D01*
X136282380Y-58372571D01*
X136330000Y-58277333D01*
X136377619Y-58229714D01*
X136472857Y-58182095D01*
X136520476Y-58182095D01*
X136615714Y-58229714D01*
X136663333Y-58277333D01*
X136710952Y-58372571D01*
X136710952Y-58563047D01*
X136758571Y-58658285D01*
X136806190Y-58705904D01*
X136901428Y-58753523D01*
X137091904Y-58753523D01*
X137187142Y-58705904D01*
X137234761Y-58658285D01*
X137282380Y-58563047D01*
X137282380Y-58372571D01*
X137234761Y-58277333D01*
X137187142Y-58229714D01*
X137091904Y-58182095D01*
X136901428Y-58182095D01*
X136806190Y-58229714D01*
X136758571Y-58277333D01*
X136710952Y-58372571D01*
X136282380Y-57324952D02*
X136282380Y-57515428D01*
X136330000Y-57610666D01*
X136377619Y-57658285D01*
X136520476Y-57753523D01*
X136710952Y-57801142D01*
X137091904Y-57801142D01*
X137187142Y-57753523D01*
X137234761Y-57705904D01*
X137282380Y-57610666D01*
X137282380Y-57420190D01*
X137234761Y-57324952D01*
X137187142Y-57277333D01*
X137091904Y-57229714D01*
X136853809Y-57229714D01*
X136758571Y-57277333D01*
X136710952Y-57324952D01*
X136663333Y-57420190D01*
X136663333Y-57610666D01*
X136710952Y-57705904D01*
X136758571Y-57753523D01*
X136853809Y-57801142D01*
X136282380Y-56324952D02*
X136282380Y-56801142D01*
X136758571Y-56848761D01*
X136710952Y-56801142D01*
X136663333Y-56705904D01*
X136663333Y-56467809D01*
X136710952Y-56372571D01*
X136758571Y-56324952D01*
X136853809Y-56277333D01*
X137091904Y-56277333D01*
X137187142Y-56324952D01*
X137234761Y-56372571D01*
X137282380Y-56467809D01*
X137282380Y-56705904D01*
X137234761Y-56801142D01*
X137187142Y-56848761D01*
X102020666Y-65357285D02*
X102020666Y-64881095D01*
X102306380Y-65452523D02*
X101306380Y-65119190D01*
X102306380Y-64785857D01*
X102306380Y-63928714D02*
X102306380Y-64500142D01*
X102306380Y-64214428D02*
X101306380Y-64214428D01*
X101449238Y-64309666D01*
X101544476Y-64404904D01*
X101592095Y-64500142D01*
X102306380Y-70667285D02*
X101306380Y-70667285D01*
X102306380Y-70095857D02*
X101734952Y-70524428D01*
X101306380Y-70095857D02*
X101877809Y-70667285D01*
X102306380Y-69667285D02*
X101306380Y-69667285D01*
X102306380Y-69191095D02*
X101306380Y-69191095D01*
X102020666Y-68857761D01*
X101306380Y-68524428D01*
X102306380Y-68524428D01*
X102306380Y-67619666D02*
X101782571Y-67619666D01*
X101687333Y-67667285D01*
X101639714Y-67762523D01*
X101639714Y-67953000D01*
X101687333Y-68048238D01*
X102258761Y-67619666D02*
X102306380Y-67714904D01*
X102306380Y-67953000D01*
X102258761Y-68048238D01*
X102163523Y-68095857D01*
X102068285Y-68095857D01*
X101973047Y-68048238D01*
X101925428Y-67953000D01*
X101925428Y-67714904D01*
X101877809Y-67619666D01*
X102306380Y-67143476D02*
X101639714Y-67143476D01*
X101306380Y-67143476D02*
X101354000Y-67191095D01*
X101401619Y-67143476D01*
X101354000Y-67095857D01*
X101306380Y-67143476D01*
X101401619Y-67143476D01*
X101639714Y-66667285D02*
X102639714Y-66667285D01*
X101687333Y-66667285D02*
X101639714Y-66572047D01*
X101639714Y-66381571D01*
X101687333Y-66286333D01*
X101734952Y-66238714D01*
X101830190Y-66191095D01*
X102115904Y-66191095D01*
X102211142Y-66238714D01*
X102258761Y-66286333D01*
X102306380Y-66381571D01*
X102306380Y-66572047D01*
X102258761Y-66667285D01*
X106275142Y-64936666D02*
X106322761Y-64984285D01*
X106370380Y-65127142D01*
X106370380Y-65222380D01*
X106322761Y-65365238D01*
X106227523Y-65460476D01*
X106132285Y-65508095D01*
X105941809Y-65555714D01*
X105798952Y-65555714D01*
X105608476Y-65508095D01*
X105513238Y-65460476D01*
X105418000Y-65365238D01*
X105370380Y-65222380D01*
X105370380Y-65127142D01*
X105418000Y-64984285D01*
X105465619Y-64936666D01*
X106370380Y-63984285D02*
X106370380Y-64555714D01*
X106370380Y-64270000D02*
X105370380Y-64270000D01*
X105513238Y-64365238D01*
X105608476Y-64460476D01*
X105656095Y-64555714D01*
X115990642Y-67667166D02*
X116038261Y-67714785D01*
X116085880Y-67857642D01*
X116085880Y-67952880D01*
X116038261Y-68095738D01*
X115943023Y-68190976D01*
X115847785Y-68238595D01*
X115657309Y-68286214D01*
X115514452Y-68286214D01*
X115323976Y-68238595D01*
X115228738Y-68190976D01*
X115133500Y-68095738D01*
X115085880Y-67952880D01*
X115085880Y-67857642D01*
X115133500Y-67714785D01*
X115181119Y-67667166D01*
X115181119Y-67286214D02*
X115133500Y-67238595D01*
X115085880Y-67143357D01*
X115085880Y-66905261D01*
X115133500Y-66810023D01*
X115181119Y-66762404D01*
X115276357Y-66714785D01*
X115371595Y-66714785D01*
X115514452Y-66762404D01*
X116085880Y-67333833D01*
X116085880Y-66714785D01*
X121880333Y-54713142D02*
X121832714Y-54760761D01*
X121689857Y-54808380D01*
X121594619Y-54808380D01*
X121451761Y-54760761D01*
X121356523Y-54665523D01*
X121308904Y-54570285D01*
X121261285Y-54379809D01*
X121261285Y-54236952D01*
X121308904Y-54046476D01*
X121356523Y-53951238D01*
X121451761Y-53856000D01*
X121594619Y-53808380D01*
X121689857Y-53808380D01*
X121832714Y-53856000D01*
X121880333Y-53903619D01*
X122213666Y-53808380D02*
X122832714Y-53808380D01*
X122499380Y-54189333D01*
X122642238Y-54189333D01*
X122737476Y-54236952D01*
X122785095Y-54284571D01*
X122832714Y-54379809D01*
X122832714Y-54617904D01*
X122785095Y-54713142D01*
X122737476Y-54760761D01*
X122642238Y-54808380D01*
X122356523Y-54808380D01*
X122261285Y-54760761D01*
X122213666Y-54713142D01*
X110314333Y-52555142D02*
X110266714Y-52602761D01*
X110123857Y-52650380D01*
X110028619Y-52650380D01*
X109885761Y-52602761D01*
X109790523Y-52507523D01*
X109742904Y-52412285D01*
X109695285Y-52221809D01*
X109695285Y-52078952D01*
X109742904Y-51888476D01*
X109790523Y-51793238D01*
X109885761Y-51698000D01*
X110028619Y-51650380D01*
X110123857Y-51650380D01*
X110266714Y-51698000D01*
X110314333Y-51745619D01*
X111171476Y-51983714D02*
X111171476Y-52650380D01*
X110933380Y-51602761D02*
X110695285Y-52317047D01*
X111314333Y-52317047D01*
X108282333Y-67413142D02*
X108234714Y-67460761D01*
X108091857Y-67508380D01*
X107996619Y-67508380D01*
X107853761Y-67460761D01*
X107758523Y-67365523D01*
X107710904Y-67270285D01*
X107663285Y-67079809D01*
X107663285Y-66936952D01*
X107710904Y-66746476D01*
X107758523Y-66651238D01*
X107853761Y-66556000D01*
X107996619Y-66508380D01*
X108091857Y-66508380D01*
X108234714Y-66556000D01*
X108282333Y-66603619D01*
X109187095Y-66508380D02*
X108710904Y-66508380D01*
X108663285Y-66984571D01*
X108710904Y-66936952D01*
X108806142Y-66889333D01*
X109044238Y-66889333D01*
X109139476Y-66936952D01*
X109187095Y-66984571D01*
X109234714Y-67079809D01*
X109234714Y-67317904D01*
X109187095Y-67413142D01*
X109139476Y-67460761D01*
X109044238Y-67508380D01*
X108806142Y-67508380D01*
X108710904Y-67460761D01*
X108663285Y-67413142D01*
X91797142Y-51728666D02*
X91844761Y-51776285D01*
X91892380Y-51919142D01*
X91892380Y-52014380D01*
X91844761Y-52157238D01*
X91749523Y-52252476D01*
X91654285Y-52300095D01*
X91463809Y-52347714D01*
X91320952Y-52347714D01*
X91130476Y-52300095D01*
X91035238Y-52252476D01*
X90940000Y-52157238D01*
X90892380Y-52014380D01*
X90892380Y-51919142D01*
X90940000Y-51776285D01*
X90987619Y-51728666D01*
X90892380Y-50871523D02*
X90892380Y-51062000D01*
X90940000Y-51157238D01*
X90987619Y-51204857D01*
X91130476Y-51300095D01*
X91320952Y-51347714D01*
X91701904Y-51347714D01*
X91797142Y-51300095D01*
X91844761Y-51252476D01*
X91892380Y-51157238D01*
X91892380Y-50966761D01*
X91844761Y-50871523D01*
X91797142Y-50823904D01*
X91701904Y-50776285D01*
X91463809Y-50776285D01*
X91368571Y-50823904D01*
X91320952Y-50871523D01*
X91273333Y-50966761D01*
X91273333Y-51157238D01*
X91320952Y-51252476D01*
X91368571Y-51300095D01*
X91463809Y-51347714D01*
X139524333Y-47983142D02*
X139476714Y-48030761D01*
X139333857Y-48078380D01*
X139238619Y-48078380D01*
X139095761Y-48030761D01*
X139000523Y-47935523D01*
X138952904Y-47840285D01*
X138905285Y-47649809D01*
X138905285Y-47506952D01*
X138952904Y-47316476D01*
X139000523Y-47221238D01*
X139095761Y-47126000D01*
X139238619Y-47078380D01*
X139333857Y-47078380D01*
X139476714Y-47126000D01*
X139524333Y-47173619D01*
X139857666Y-47078380D02*
X140524333Y-47078380D01*
X140095761Y-48078380D01*
X101195142Y-51728666D02*
X101242761Y-51776285D01*
X101290380Y-51919142D01*
X101290380Y-52014380D01*
X101242761Y-52157238D01*
X101147523Y-52252476D01*
X101052285Y-52300095D01*
X100861809Y-52347714D01*
X100718952Y-52347714D01*
X100528476Y-52300095D01*
X100433238Y-52252476D01*
X100338000Y-52157238D01*
X100290380Y-52014380D01*
X100290380Y-51919142D01*
X100338000Y-51776285D01*
X100385619Y-51728666D01*
X100718952Y-51157238D02*
X100671333Y-51252476D01*
X100623714Y-51300095D01*
X100528476Y-51347714D01*
X100480857Y-51347714D01*
X100385619Y-51300095D01*
X100338000Y-51252476D01*
X100290380Y-51157238D01*
X100290380Y-50966761D01*
X100338000Y-50871523D01*
X100385619Y-50823904D01*
X100480857Y-50776285D01*
X100528476Y-50776285D01*
X100623714Y-50823904D01*
X100671333Y-50871523D01*
X100718952Y-50966761D01*
X100718952Y-51157238D01*
X100766571Y-51252476D01*
X100814190Y-51300095D01*
X100909428Y-51347714D01*
X101099904Y-51347714D01*
X101195142Y-51300095D01*
X101242761Y-51252476D01*
X101290380Y-51157238D01*
X101290380Y-50966761D01*
X101242761Y-50871523D01*
X101195142Y-50823904D01*
X101099904Y-50776285D01*
X100909428Y-50776285D01*
X100814190Y-50823904D01*
X100766571Y-50871523D01*
X100718952Y-50966761D01*
X126341142Y-68501666D02*
X126388761Y-68549285D01*
X126436380Y-68692142D01*
X126436380Y-68787380D01*
X126388761Y-68930238D01*
X126293523Y-69025476D01*
X126198285Y-69073095D01*
X126007809Y-69120714D01*
X125864952Y-69120714D01*
X125674476Y-69073095D01*
X125579238Y-69025476D01*
X125484000Y-68930238D01*
X125436380Y-68787380D01*
X125436380Y-68692142D01*
X125484000Y-68549285D01*
X125531619Y-68501666D01*
X126436380Y-68025476D02*
X126436380Y-67835000D01*
X126388761Y-67739761D01*
X126341142Y-67692142D01*
X126198285Y-67596904D01*
X126007809Y-67549285D01*
X125626857Y-67549285D01*
X125531619Y-67596904D01*
X125484000Y-67644523D01*
X125436380Y-67739761D01*
X125436380Y-67930238D01*
X125484000Y-68025476D01*
X125531619Y-68073095D01*
X125626857Y-68120714D01*
X125864952Y-68120714D01*
X125960190Y-68073095D01*
X126007809Y-68025476D01*
X126055428Y-67930238D01*
X126055428Y-67739761D01*
X126007809Y-67644523D01*
X125960190Y-67596904D01*
X125864952Y-67549285D01*
X129087642Y-70461142D02*
X129040023Y-70508761D01*
X128897166Y-70556380D01*
X128801928Y-70556380D01*
X128659071Y-70508761D01*
X128563833Y-70413523D01*
X128516214Y-70318285D01*
X128468595Y-70127809D01*
X128468595Y-69984952D01*
X128516214Y-69794476D01*
X128563833Y-69699238D01*
X128659071Y-69604000D01*
X128801928Y-69556380D01*
X128897166Y-69556380D01*
X129040023Y-69604000D01*
X129087642Y-69651619D01*
X130040023Y-70556380D02*
X129468595Y-70556380D01*
X129754309Y-70556380D02*
X129754309Y-69556380D01*
X129659071Y-69699238D01*
X129563833Y-69794476D01*
X129468595Y-69842095D01*
X130659071Y-69556380D02*
X130754309Y-69556380D01*
X130849547Y-69604000D01*
X130897166Y-69651619D01*
X130944785Y-69746857D01*
X130992404Y-69937333D01*
X130992404Y-70175428D01*
X130944785Y-70365904D01*
X130897166Y-70461142D01*
X130849547Y-70508761D01*
X130754309Y-70556380D01*
X130659071Y-70556380D01*
X130563833Y-70508761D01*
X130516214Y-70461142D01*
X130468595Y-70365904D01*
X130420976Y-70175428D01*
X130420976Y-69937333D01*
X130468595Y-69746857D01*
X130516214Y-69651619D01*
X130563833Y-69604000D01*
X130659071Y-69556380D01*
X143375142Y-70470142D02*
X143327523Y-70517761D01*
X143184666Y-70565380D01*
X143089428Y-70565380D01*
X142946571Y-70517761D01*
X142851333Y-70422523D01*
X142803714Y-70327285D01*
X142756095Y-70136809D01*
X142756095Y-69993952D01*
X142803714Y-69803476D01*
X142851333Y-69708238D01*
X142946571Y-69613000D01*
X143089428Y-69565380D01*
X143184666Y-69565380D01*
X143327523Y-69613000D01*
X143375142Y-69660619D01*
X144327523Y-70565380D02*
X143756095Y-70565380D01*
X144041809Y-70565380D02*
X144041809Y-69565380D01*
X143946571Y-69708238D01*
X143851333Y-69803476D01*
X143756095Y-69851095D01*
X145279904Y-70565380D02*
X144708476Y-70565380D01*
X144994190Y-70565380D02*
X144994190Y-69565380D01*
X144898952Y-69708238D01*
X144803714Y-69803476D01*
X144708476Y-69851095D01*
X145280142Y-46045380D02*
X144803952Y-46045380D01*
X144803952Y-45045380D01*
X145613476Y-45521571D02*
X145946809Y-45521571D01*
X146089666Y-46045380D02*
X145613476Y-46045380D01*
X145613476Y-45045380D01*
X146089666Y-45045380D01*
X146518238Y-46045380D02*
X146518238Y-45045380D01*
X146756333Y-45045380D01*
X146899190Y-45093000D01*
X146994428Y-45188238D01*
X147042047Y-45283476D01*
X147089666Y-45473952D01*
X147089666Y-45616809D01*
X147042047Y-45807285D01*
X146994428Y-45902523D01*
X146899190Y-45997761D01*
X146756333Y-46045380D01*
X146518238Y-46045380D01*
X93384857Y-84732761D02*
X93527714Y-84780380D01*
X93765809Y-84780380D01*
X93861047Y-84732761D01*
X93908666Y-84685142D01*
X93956285Y-84589904D01*
X93956285Y-84494666D01*
X93908666Y-84399428D01*
X93861047Y-84351809D01*
X93765809Y-84304190D01*
X93575333Y-84256571D01*
X93480095Y-84208952D01*
X93432476Y-84161333D01*
X93384857Y-84066095D01*
X93384857Y-83970857D01*
X93432476Y-83875619D01*
X93480095Y-83828000D01*
X93575333Y-83780380D01*
X93813428Y-83780380D01*
X93956285Y-83828000D01*
X94289619Y-83780380D02*
X94527714Y-84780380D01*
X94718190Y-84066095D01*
X94908666Y-84780380D01*
X95146761Y-83780380D01*
X95527714Y-84780380D02*
X95527714Y-83780380D01*
X95765809Y-83780380D01*
X95908666Y-83828000D01*
X96003904Y-83923238D01*
X96051523Y-84018476D01*
X96099142Y-84208952D01*
X96099142Y-84351809D01*
X96051523Y-84542285D01*
X96003904Y-84637523D01*
X95908666Y-84732761D01*
X95765809Y-84780380D01*
X95527714Y-84780380D01*
X109569380Y-45529404D02*
X108569380Y-45529404D01*
X109045571Y-45529404D02*
X109045571Y-44957976D01*
X109569380Y-44957976D02*
X108569380Y-44957976D01*
X108664619Y-44529404D02*
X108617000Y-44481785D01*
X108569380Y-44386547D01*
X108569380Y-44148452D01*
X108617000Y-44053214D01*
X108664619Y-44005595D01*
X108759857Y-43957976D01*
X108855095Y-43957976D01*
X108997952Y-44005595D01*
X109569380Y-44577023D01*
X109569380Y-43957976D01*
X113475238Y-47823380D02*
X113475238Y-46823380D01*
X114046666Y-47823380D01*
X114046666Y-46823380D01*
X114665714Y-47823380D02*
X114570476Y-47775761D01*
X114522857Y-47728142D01*
X114475238Y-47632904D01*
X114475238Y-47347190D01*
X114522857Y-47251952D01*
X114570476Y-47204333D01*
X114665714Y-47156714D01*
X114808571Y-47156714D01*
X114903809Y-47204333D01*
X114951428Y-47251952D01*
X114999047Y-47347190D01*
X114999047Y-47632904D01*
X114951428Y-47728142D01*
X114903809Y-47775761D01*
X114808571Y-47823380D01*
X114665714Y-47823380D01*
X115427619Y-47823380D02*
X115427619Y-46823380D01*
X115522857Y-47442428D02*
X115808571Y-47823380D01*
X115808571Y-47156714D02*
X115427619Y-47537666D01*
X116237142Y-47823380D02*
X116237142Y-47156714D01*
X116237142Y-46823380D02*
X116189523Y-46871000D01*
X116237142Y-46918619D01*
X116284761Y-46871000D01*
X116237142Y-46823380D01*
X116237142Y-46918619D01*
X117141904Y-47823380D02*
X117141904Y-47299571D01*
X117094285Y-47204333D01*
X116999047Y-47156714D01*
X116808571Y-47156714D01*
X116713333Y-47204333D01*
X117141904Y-47775761D02*
X117046666Y-47823380D01*
X116808571Y-47823380D01*
X116713333Y-47775761D01*
X116665714Y-47680523D01*
X116665714Y-47585285D01*
X116713333Y-47490047D01*
X116808571Y-47442428D01*
X117046666Y-47442428D01*
X117141904Y-47394809D01*
X118856190Y-46823380D02*
X118380000Y-46823380D01*
X118332380Y-47299571D01*
X118380000Y-47251952D01*
X118475238Y-47204333D01*
X118713333Y-47204333D01*
X118808571Y-47251952D01*
X118856190Y-47299571D01*
X118903809Y-47394809D01*
X118903809Y-47632904D01*
X118856190Y-47728142D01*
X118808571Y-47775761D01*
X118713333Y-47823380D01*
X118475238Y-47823380D01*
X118380000Y-47775761D01*
X118332380Y-47728142D01*
X119856190Y-47823380D02*
X119284761Y-47823380D01*
X119570476Y-47823380D02*
X119570476Y-46823380D01*
X119475238Y-46966238D01*
X119380000Y-47061476D01*
X119284761Y-47109095D01*
X120808571Y-47823380D02*
X120237142Y-47823380D01*
X120522857Y-47823380D02*
X120522857Y-46823380D01*
X120427619Y-46966238D01*
X120332380Y-47061476D01*
X120237142Y-47109095D01*
X121427619Y-46823380D02*
X121522857Y-46823380D01*
X121618095Y-46871000D01*
X121665714Y-46918619D01*
X121713333Y-47013857D01*
X121760952Y-47204333D01*
X121760952Y-47442428D01*
X121713333Y-47632904D01*
X121665714Y-47728142D01*
X121618095Y-47775761D01*
X121522857Y-47823380D01*
X121427619Y-47823380D01*
X121332380Y-47775761D01*
X121284761Y-47728142D01*
X121237142Y-47632904D01*
X121189523Y-47442428D01*
X121189523Y-47204333D01*
X121237142Y-47013857D01*
X121284761Y-46918619D01*
X121332380Y-46871000D01*
X121427619Y-46823380D01*
X123427619Y-47823380D02*
X122951428Y-47823380D01*
X122951428Y-46823380D01*
X124332380Y-47728142D02*
X124284761Y-47775761D01*
X124141904Y-47823380D01*
X124046666Y-47823380D01*
X123903809Y-47775761D01*
X123808571Y-47680523D01*
X123760952Y-47585285D01*
X123713333Y-47394809D01*
X123713333Y-47251952D01*
X123760952Y-47061476D01*
X123808571Y-46966238D01*
X123903809Y-46871000D01*
X124046666Y-46823380D01*
X124141904Y-46823380D01*
X124284761Y-46871000D01*
X124332380Y-46918619D01*
X124760952Y-47823380D02*
X124760952Y-46823380D01*
X124999047Y-46823380D01*
X125141904Y-46871000D01*
X125237142Y-46966238D01*
X125284761Y-47061476D01*
X125332380Y-47251952D01*
X125332380Y-47394809D01*
X125284761Y-47585285D01*
X125237142Y-47680523D01*
X125141904Y-47775761D01*
X124999047Y-47823380D01*
X124760952Y-47823380D01*
X142225666Y-80478380D02*
X142225666Y-81192666D01*
X142178047Y-81335523D01*
X142082809Y-81430761D01*
X141939952Y-81478380D01*
X141844714Y-81478380D01*
X142701857Y-81478380D02*
X142701857Y-80478380D01*
X143082809Y-80478380D01*
X143178047Y-80526000D01*
X143225666Y-80573619D01*
X143273285Y-80668857D01*
X143273285Y-80811714D01*
X143225666Y-80906952D01*
X143178047Y-80954571D01*
X143082809Y-81002190D01*
X142701857Y-81002190D01*
X144225666Y-81478380D02*
X143654238Y-81478380D01*
X143939952Y-81478380D02*
X143939952Y-80478380D01*
X143844714Y-80621238D01*
X143749476Y-80716476D01*
X143654238Y-80764095D01*
X140629000Y-83700857D02*
X140581380Y-83796095D01*
X140581380Y-83938952D01*
X140629000Y-84081809D01*
X140724238Y-84177047D01*
X140819476Y-84224666D01*
X141009952Y-84272285D01*
X141152809Y-84272285D01*
X141343285Y-84224666D01*
X141438523Y-84177047D01*
X141533761Y-84081809D01*
X141581380Y-83938952D01*
X141581380Y-83843714D01*
X141533761Y-83700857D01*
X141486142Y-83653238D01*
X141152809Y-83653238D01*
X141152809Y-83843714D01*
X140914714Y-83224666D02*
X141581380Y-83224666D01*
X141009952Y-83224666D02*
X140962333Y-83177047D01*
X140914714Y-83081809D01*
X140914714Y-82938952D01*
X140962333Y-82843714D01*
X141057571Y-82796095D01*
X141581380Y-82796095D01*
X141581380Y-81891333D02*
X140581380Y-81891333D01*
X141533761Y-81891333D02*
X141581380Y-81986571D01*
X141581380Y-82177047D01*
X141533761Y-82272285D01*
X141486142Y-82319904D01*
X141390904Y-82367523D01*
X141105190Y-82367523D01*
X141009952Y-82319904D01*
X140962333Y-82272285D01*
X140914714Y-82177047D01*
X140914714Y-81986571D01*
X140962333Y-81891333D01*
X147622047Y-83129428D02*
X148383952Y-83129428D01*
X148003000Y-83510380D02*
X148003000Y-82748476D01*
X143184666Y-74636380D02*
X143184666Y-75350666D01*
X143137047Y-75493523D01*
X143041809Y-75588761D01*
X142898952Y-75636380D01*
X142803714Y-75636380D01*
X143660857Y-75636380D02*
X143660857Y-74636380D01*
X144041809Y-74636380D01*
X144137047Y-74684000D01*
X144184666Y-74731619D01*
X144232285Y-74826857D01*
X144232285Y-74969714D01*
X144184666Y-75064952D01*
X144137047Y-75112571D01*
X144041809Y-75160190D01*
X143660857Y-75160190D01*
X144613238Y-74731619D02*
X144660857Y-74684000D01*
X144756095Y-74636380D01*
X144994190Y-74636380D01*
X145089428Y-74684000D01*
X145137047Y-74731619D01*
X145184666Y-74826857D01*
X145184666Y-74922095D01*
X145137047Y-75064952D01*
X144565619Y-75636380D01*
X145184666Y-75636380D01*
X143184666Y-57544380D02*
X143184666Y-58258666D01*
X143137047Y-58401523D01*
X143041809Y-58496761D01*
X142898952Y-58544380D01*
X142803714Y-58544380D01*
X143660857Y-58544380D02*
X143660857Y-57544380D01*
X144041809Y-57544380D01*
X144137047Y-57592000D01*
X144184666Y-57639619D01*
X144232285Y-57734857D01*
X144232285Y-57877714D01*
X144184666Y-57972952D01*
X144137047Y-58020571D01*
X144041809Y-58068190D01*
X143660857Y-58068190D01*
X144565619Y-57544380D02*
X145184666Y-57544380D01*
X144851333Y-57925333D01*
X144994190Y-57925333D01*
X145089428Y-57972952D01*
X145137047Y-58020571D01*
X145184666Y-58115809D01*
X145184666Y-58353904D01*
X145137047Y-58449142D01*
X145089428Y-58496761D01*
X144994190Y-58544380D01*
X144708476Y-58544380D01*
X144613238Y-58496761D01*
X144565619Y-58449142D01*
X129807380Y-48648833D02*
X130521666Y-48648833D01*
X130664523Y-48696452D01*
X130759761Y-48791690D01*
X130807380Y-48934547D01*
X130807380Y-49029785D01*
X130807380Y-48172642D02*
X129807380Y-48172642D01*
X129807380Y-47791690D01*
X129855000Y-47696452D01*
X129902619Y-47648833D01*
X129997857Y-47601214D01*
X130140714Y-47601214D01*
X130235952Y-47648833D01*
X130283571Y-47696452D01*
X130331190Y-47791690D01*
X130331190Y-48172642D01*
X130140714Y-46744071D02*
X130807380Y-46744071D01*
X129759761Y-46982166D02*
X130474047Y-47220261D01*
X130474047Y-46601214D01*
X123471047Y-50294880D02*
X122994857Y-50294880D01*
X122994857Y-49294880D01*
X124232952Y-50247261D02*
X124137714Y-50294880D01*
X123947238Y-50294880D01*
X123852000Y-50247261D01*
X123804380Y-50199642D01*
X123756761Y-50104404D01*
X123756761Y-49818690D01*
X123804380Y-49723452D01*
X123852000Y-49675833D01*
X123947238Y-49628214D01*
X124137714Y-49628214D01*
X124232952Y-49675833D01*
X125090095Y-50294880D02*
X125090095Y-49294880D01*
X125090095Y-50247261D02*
X124994857Y-50294880D01*
X124804380Y-50294880D01*
X124709142Y-50247261D01*
X124661523Y-50199642D01*
X124613904Y-50104404D01*
X124613904Y-49818690D01*
X124661523Y-49723452D01*
X124709142Y-49675833D01*
X124804380Y-49628214D01*
X124994857Y-49628214D01*
X125090095Y-49675833D01*
X126328190Y-50294880D02*
X126328190Y-49294880D01*
X126328190Y-49675833D02*
X126423428Y-49628214D01*
X126613904Y-49628214D01*
X126709142Y-49675833D01*
X126756761Y-49723452D01*
X126804380Y-49818690D01*
X126804380Y-50104404D01*
X126756761Y-50199642D01*
X126709142Y-50247261D01*
X126613904Y-50294880D01*
X126423428Y-50294880D01*
X126328190Y-50247261D01*
X127661523Y-50294880D02*
X127661523Y-49771071D01*
X127613904Y-49675833D01*
X127518666Y-49628214D01*
X127328190Y-49628214D01*
X127232952Y-49675833D01*
X127661523Y-50247261D02*
X127566285Y-50294880D01*
X127328190Y-50294880D01*
X127232952Y-50247261D01*
X127185333Y-50152023D01*
X127185333Y-50056785D01*
X127232952Y-49961547D01*
X127328190Y-49913928D01*
X127566285Y-49913928D01*
X127661523Y-49866309D01*
X128566285Y-50247261D02*
X128471047Y-50294880D01*
X128280571Y-50294880D01*
X128185333Y-50247261D01*
X128137714Y-50199642D01*
X128090095Y-50104404D01*
X128090095Y-49818690D01*
X128137714Y-49723452D01*
X128185333Y-49675833D01*
X128280571Y-49628214D01*
X128471047Y-49628214D01*
X128566285Y-49675833D01*
X128994857Y-50294880D02*
X128994857Y-49294880D01*
X129090095Y-49913928D02*
X129375809Y-50294880D01*
X129375809Y-49628214D02*
X128994857Y-50009166D01*
X129947238Y-50294880D02*
X129852000Y-50247261D01*
X129804380Y-50152023D01*
X129804380Y-49294880D01*
X130328190Y-50294880D02*
X130328190Y-49628214D01*
X130328190Y-49294880D02*
X130280571Y-49342500D01*
X130328190Y-49390119D01*
X130375809Y-49342500D01*
X130328190Y-49294880D01*
X130328190Y-49390119D01*
X131232952Y-49628214D02*
X131232952Y-50437738D01*
X131185333Y-50532976D01*
X131137714Y-50580595D01*
X131042476Y-50628214D01*
X130899619Y-50628214D01*
X130804380Y-50580595D01*
X131232952Y-50247261D02*
X131137714Y-50294880D01*
X130947238Y-50294880D01*
X130852000Y-50247261D01*
X130804380Y-50199642D01*
X130756761Y-50104404D01*
X130756761Y-49818690D01*
X130804380Y-49723452D01*
X130852000Y-49675833D01*
X130947238Y-49628214D01*
X131137714Y-49628214D01*
X131232952Y-49675833D01*
X131709142Y-50294880D02*
X131709142Y-49294880D01*
X132137714Y-50294880D02*
X132137714Y-49771071D01*
X132090095Y-49675833D01*
X131994857Y-49628214D01*
X131852000Y-49628214D01*
X131756761Y-49675833D01*
X131709142Y-49723452D01*
X132471047Y-49628214D02*
X132852000Y-49628214D01*
X132613904Y-49294880D02*
X132613904Y-50152023D01*
X132661523Y-50247261D01*
X132756761Y-50294880D01*
X132852000Y-50294880D01*
X106132333Y-57348380D02*
X105799000Y-56872190D01*
X105560904Y-57348380D02*
X105560904Y-56348380D01*
X105941857Y-56348380D01*
X106037095Y-56396000D01*
X106084714Y-56443619D01*
X106132333Y-56538857D01*
X106132333Y-56681714D01*
X106084714Y-56776952D01*
X106037095Y-56824571D01*
X105941857Y-56872190D01*
X105560904Y-56872190D01*
X107084714Y-57348380D02*
X106513285Y-57348380D01*
X106799000Y-57348380D02*
X106799000Y-56348380D01*
X106703761Y-56491238D01*
X106608523Y-56586476D01*
X106513285Y-56634095D01*
X110815380Y-48680666D02*
X110339190Y-49014000D01*
X110815380Y-49252095D02*
X109815380Y-49252095D01*
X109815380Y-48871142D01*
X109863000Y-48775904D01*
X109910619Y-48728285D01*
X110005857Y-48680666D01*
X110148714Y-48680666D01*
X110243952Y-48728285D01*
X110291571Y-48775904D01*
X110339190Y-48871142D01*
X110339190Y-49252095D01*
X109910619Y-48299714D02*
X109863000Y-48252095D01*
X109815380Y-48156857D01*
X109815380Y-47918761D01*
X109863000Y-47823523D01*
X109910619Y-47775904D01*
X110005857Y-47728285D01*
X110101095Y-47728285D01*
X110243952Y-47775904D01*
X110815380Y-48347333D01*
X110815380Y-47728285D01*
X105354380Y-48680666D02*
X104878190Y-49014000D01*
X105354380Y-49252095D02*
X104354380Y-49252095D01*
X104354380Y-48871142D01*
X104402000Y-48775904D01*
X104449619Y-48728285D01*
X104544857Y-48680666D01*
X104687714Y-48680666D01*
X104782952Y-48728285D01*
X104830571Y-48775904D01*
X104878190Y-48871142D01*
X104878190Y-49252095D01*
X104354380Y-48347333D02*
X104354380Y-47728285D01*
X104735333Y-48061619D01*
X104735333Y-47918761D01*
X104782952Y-47823523D01*
X104830571Y-47775904D01*
X104925809Y-47728285D01*
X105163904Y-47728285D01*
X105259142Y-47775904D01*
X105306761Y-47823523D01*
X105354380Y-47918761D01*
X105354380Y-48204476D01*
X105306761Y-48299714D01*
X105259142Y-48347333D01*
X133802380Y-68365666D02*
X133326190Y-68699000D01*
X133802380Y-68937095D02*
X132802380Y-68937095D01*
X132802380Y-68556142D01*
X132850000Y-68460904D01*
X132897619Y-68413285D01*
X132992857Y-68365666D01*
X133135714Y-68365666D01*
X133230952Y-68413285D01*
X133278571Y-68460904D01*
X133326190Y-68556142D01*
X133326190Y-68937095D01*
X133135714Y-67508523D02*
X133802380Y-67508523D01*
X132754761Y-67746619D02*
X133469047Y-67984714D01*
X133469047Y-67365666D01*
X109367580Y-74055266D02*
X108891390Y-74388600D01*
X109367580Y-74626695D02*
X108367580Y-74626695D01*
X108367580Y-74245742D01*
X108415200Y-74150504D01*
X108462819Y-74102885D01*
X108558057Y-74055266D01*
X108700914Y-74055266D01*
X108796152Y-74102885D01*
X108843771Y-74150504D01*
X108891390Y-74245742D01*
X108891390Y-74626695D01*
X108367580Y-73150504D02*
X108367580Y-73626695D01*
X108843771Y-73674314D01*
X108796152Y-73626695D01*
X108748533Y-73531457D01*
X108748533Y-73293361D01*
X108796152Y-73198123D01*
X108843771Y-73150504D01*
X108939009Y-73102885D01*
X109177104Y-73102885D01*
X109272342Y-73150504D01*
X109319961Y-73198123D01*
X109367580Y-73293361D01*
X109367580Y-73531457D01*
X109319961Y-73626695D01*
X109272342Y-73674314D01*
X99766380Y-74055266D02*
X99290190Y-74388600D01*
X99766380Y-74626695D02*
X98766380Y-74626695D01*
X98766380Y-74245742D01*
X98814000Y-74150504D01*
X98861619Y-74102885D01*
X98956857Y-74055266D01*
X99099714Y-74055266D01*
X99194952Y-74102885D01*
X99242571Y-74150504D01*
X99290190Y-74245742D01*
X99290190Y-74626695D01*
X98766380Y-73198123D02*
X98766380Y-73388600D01*
X98814000Y-73483838D01*
X98861619Y-73531457D01*
X99004476Y-73626695D01*
X99194952Y-73674314D01*
X99575904Y-73674314D01*
X99671142Y-73626695D01*
X99718761Y-73579076D01*
X99766380Y-73483838D01*
X99766380Y-73293361D01*
X99718761Y-73198123D01*
X99671142Y-73150504D01*
X99575904Y-73102885D01*
X99337809Y-73102885D01*
X99242571Y-73150504D01*
X99194952Y-73198123D01*
X99147333Y-73293361D01*
X99147333Y-73483838D01*
X99194952Y-73579076D01*
X99242571Y-73626695D01*
X99337809Y-73674314D01*
X120612380Y-74055266D02*
X120136190Y-74388600D01*
X120612380Y-74626695D02*
X119612380Y-74626695D01*
X119612380Y-74245742D01*
X119660000Y-74150504D01*
X119707619Y-74102885D01*
X119802857Y-74055266D01*
X119945714Y-74055266D01*
X120040952Y-74102885D01*
X120088571Y-74150504D01*
X120136190Y-74245742D01*
X120136190Y-74626695D01*
X119612380Y-73721933D02*
X119612380Y-73055266D01*
X120612380Y-73483838D01*
X110662980Y-74055266D02*
X110186790Y-74388600D01*
X110662980Y-74626695D02*
X109662980Y-74626695D01*
X109662980Y-74245742D01*
X109710600Y-74150504D01*
X109758219Y-74102885D01*
X109853457Y-74055266D01*
X109996314Y-74055266D01*
X110091552Y-74102885D01*
X110139171Y-74150504D01*
X110186790Y-74245742D01*
X110186790Y-74626695D01*
X110091552Y-73483838D02*
X110043933Y-73579076D01*
X109996314Y-73626695D01*
X109901076Y-73674314D01*
X109853457Y-73674314D01*
X109758219Y-73626695D01*
X109710600Y-73579076D01*
X109662980Y-73483838D01*
X109662980Y-73293361D01*
X109710600Y-73198123D01*
X109758219Y-73150504D01*
X109853457Y-73102885D01*
X109901076Y-73102885D01*
X109996314Y-73150504D01*
X110043933Y-73198123D01*
X110091552Y-73293361D01*
X110091552Y-73483838D01*
X110139171Y-73579076D01*
X110186790Y-73626695D01*
X110282028Y-73674314D01*
X110472504Y-73674314D01*
X110567742Y-73626695D01*
X110615361Y-73579076D01*
X110662980Y-73483838D01*
X110662980Y-73293361D01*
X110615361Y-73198123D01*
X110567742Y-73150504D01*
X110472504Y-73102885D01*
X110282028Y-73102885D01*
X110186790Y-73150504D01*
X110139171Y-73198123D01*
X110091552Y-73293361D01*
X151498761Y-51423333D02*
X151546380Y-51280476D01*
X151546380Y-51042380D01*
X151498761Y-50947142D01*
X151451142Y-50899523D01*
X151355904Y-50851904D01*
X151260666Y-50851904D01*
X151165428Y-50899523D01*
X151117809Y-50947142D01*
X151070190Y-51042380D01*
X151022571Y-51232857D01*
X150974952Y-51328095D01*
X150927333Y-51375714D01*
X150832095Y-51423333D01*
X150736857Y-51423333D01*
X150641619Y-51375714D01*
X150594000Y-51328095D01*
X150546380Y-51232857D01*
X150546380Y-50994761D01*
X150594000Y-50851904D01*
X150546380Y-50518571D02*
X151546380Y-50280476D01*
X150832095Y-50090000D01*
X151546380Y-49899523D01*
X150546380Y-49661428D01*
X151546380Y-48756666D02*
X151546380Y-49328095D01*
X151546380Y-49042380D02*
X150546380Y-49042380D01*
X150689238Y-49137619D01*
X150784476Y-49232857D01*
X150832095Y-49328095D01*
X113690495Y-59904380D02*
X113690495Y-60713904D01*
X113738114Y-60809142D01*
X113785733Y-60856761D01*
X113880971Y-60904380D01*
X114071447Y-60904380D01*
X114166685Y-60856761D01*
X114214304Y-60809142D01*
X114261923Y-60713904D01*
X114261923Y-59904380D01*
X115261923Y-60904380D02*
X114690495Y-60904380D01*
X114976209Y-60904380D02*
X114976209Y-59904380D01*
X114880971Y-60047238D01*
X114785733Y-60142476D01*
X114690495Y-60190095D01*
X121054761Y-69436523D02*
X121102380Y-69293666D01*
X121102380Y-69055571D01*
X121054761Y-68960333D01*
X121007142Y-68912714D01*
X120911904Y-68865095D01*
X120816666Y-68865095D01*
X120721428Y-68912714D01*
X120673809Y-68960333D01*
X120626190Y-69055571D01*
X120578571Y-69246047D01*
X120530952Y-69341285D01*
X120483333Y-69388904D01*
X120388095Y-69436523D01*
X120292857Y-69436523D01*
X120197619Y-69388904D01*
X120150000Y-69341285D01*
X120102380Y-69246047D01*
X120102380Y-69007952D01*
X120150000Y-68865095D01*
X120102380Y-68579380D02*
X120102380Y-68007952D01*
X121102380Y-68293666D02*
X120102380Y-68293666D01*
X121102380Y-67674619D02*
X120102380Y-67674619D01*
X120816666Y-67341285D01*
X120102380Y-67007952D01*
X121102380Y-67007952D01*
X120102380Y-66627000D02*
X120102380Y-66007952D01*
X120483333Y-66341285D01*
X120483333Y-66198428D01*
X120530952Y-66103190D01*
X120578571Y-66055571D01*
X120673809Y-66007952D01*
X120911904Y-66007952D01*
X121007142Y-66055571D01*
X121054761Y-66103190D01*
X121102380Y-66198428D01*
X121102380Y-66484142D01*
X121054761Y-66579380D01*
X121007142Y-66627000D01*
X120197619Y-65627000D02*
X120150000Y-65579380D01*
X120102380Y-65484142D01*
X120102380Y-65246047D01*
X120150000Y-65150809D01*
X120197619Y-65103190D01*
X120292857Y-65055571D01*
X120388095Y-65055571D01*
X120530952Y-65103190D01*
X121102380Y-65674619D01*
X121102380Y-65055571D01*
X120578571Y-64293666D02*
X120578571Y-64627000D01*
X121102380Y-64627000D02*
X120102380Y-64627000D01*
X120102380Y-64150809D01*
X120102380Y-63579380D02*
X120102380Y-63484142D01*
X120150000Y-63388904D01*
X120197619Y-63341285D01*
X120292857Y-63293666D01*
X120483333Y-63246047D01*
X120721428Y-63246047D01*
X120911904Y-63293666D01*
X121007142Y-63341285D01*
X121054761Y-63388904D01*
X121102380Y-63484142D01*
X121102380Y-63579380D01*
X121054761Y-63674619D01*
X121007142Y-63722238D01*
X120911904Y-63769857D01*
X120721428Y-63817476D01*
X120483333Y-63817476D01*
X120292857Y-63769857D01*
X120197619Y-63722238D01*
X120150000Y-63674619D01*
X120102380Y-63579380D01*
X120102380Y-62912714D02*
X120102380Y-62246047D01*
X121102380Y-62674619D01*
X120197619Y-61912714D02*
X120150000Y-61865095D01*
X120102380Y-61769857D01*
X120102380Y-61531761D01*
X120150000Y-61436523D01*
X120197619Y-61388904D01*
X120292857Y-61341285D01*
X120388095Y-61341285D01*
X120530952Y-61388904D01*
X121102380Y-61960333D01*
X121102380Y-61341285D01*
X121007142Y-60341285D02*
X121054761Y-60388904D01*
X121102380Y-60531761D01*
X121102380Y-60627000D01*
X121054761Y-60769857D01*
X120959523Y-60865095D01*
X120864285Y-60912714D01*
X120673809Y-60960333D01*
X120530952Y-60960333D01*
X120340476Y-60912714D01*
X120245238Y-60865095D01*
X120150000Y-60769857D01*
X120102380Y-60627000D01*
X120102380Y-60531761D01*
X120150000Y-60388904D01*
X120197619Y-60341285D01*
X120530952Y-59769857D02*
X120483333Y-59865095D01*
X120435714Y-59912714D01*
X120340476Y-59960333D01*
X120292857Y-59960333D01*
X120197619Y-59912714D01*
X120150000Y-59865095D01*
X120102380Y-59769857D01*
X120102380Y-59579380D01*
X120150000Y-59484142D01*
X120197619Y-59436523D01*
X120292857Y-59388904D01*
X120340476Y-59388904D01*
X120435714Y-59436523D01*
X120483333Y-59484142D01*
X120530952Y-59579380D01*
X120530952Y-59769857D01*
X120578571Y-59865095D01*
X120626190Y-59912714D01*
X120721428Y-59960333D01*
X120911904Y-59960333D01*
X121007142Y-59912714D01*
X121054761Y-59865095D01*
X121102380Y-59769857D01*
X121102380Y-59579380D01*
X121054761Y-59484142D01*
X121007142Y-59436523D01*
X120911904Y-59388904D01*
X120721428Y-59388904D01*
X120626190Y-59436523D01*
X120578571Y-59484142D01*
X120530952Y-59579380D01*
X120102380Y-59103190D02*
X120102380Y-58531761D01*
X121102380Y-58817476D02*
X120102380Y-58817476D01*
X121102380Y-58293666D02*
X120435714Y-57769857D01*
X120435714Y-58293666D02*
X121102380Y-57769857D01*
X94099333Y-59086380D02*
X93623142Y-59086380D01*
X93623142Y-58086380D01*
X94432666Y-59086380D02*
X94432666Y-58086380D01*
X94766000Y-58800666D01*
X95099333Y-58086380D01*
X95099333Y-59086380D01*
X95480285Y-58086380D02*
X96146952Y-58086380D01*
X95718380Y-59086380D01*
X96670761Y-58514952D02*
X96575523Y-58467333D01*
X96527904Y-58419714D01*
X96480285Y-58324476D01*
X96480285Y-58276857D01*
X96527904Y-58181619D01*
X96575523Y-58134000D01*
X96670761Y-58086380D01*
X96861238Y-58086380D01*
X96956476Y-58134000D01*
X97004095Y-58181619D01*
X97051714Y-58276857D01*
X97051714Y-58324476D01*
X97004095Y-58419714D01*
X96956476Y-58467333D01*
X96861238Y-58514952D01*
X96670761Y-58514952D01*
X96575523Y-58562571D01*
X96527904Y-58610190D01*
X96480285Y-58705428D01*
X96480285Y-58895904D01*
X96527904Y-58991142D01*
X96575523Y-59038761D01*
X96670761Y-59086380D01*
X96861238Y-59086380D01*
X96956476Y-59038761D01*
X97004095Y-58991142D01*
X97051714Y-58895904D01*
X97051714Y-58705428D01*
X97004095Y-58610190D01*
X96956476Y-58562571D01*
X96861238Y-58514952D01*
X97670761Y-58086380D02*
X97766000Y-58086380D01*
X97861238Y-58134000D01*
X97908857Y-58181619D01*
X97956476Y-58276857D01*
X98004095Y-58467333D01*
X98004095Y-58705428D01*
X97956476Y-58895904D01*
X97908857Y-58991142D01*
X97861238Y-59038761D01*
X97766000Y-59086380D01*
X97670761Y-59086380D01*
X97575523Y-59038761D01*
X97527904Y-58991142D01*
X97480285Y-58895904D01*
X97432666Y-58705428D01*
X97432666Y-58467333D01*
X97480285Y-58276857D01*
X97527904Y-58181619D01*
X97575523Y-58134000D01*
X97670761Y-58086380D01*
X98908857Y-58086380D02*
X98432666Y-58086380D01*
X98385047Y-58562571D01*
X98432666Y-58514952D01*
X98527904Y-58467333D01*
X98766000Y-58467333D01*
X98861238Y-58514952D01*
X98908857Y-58562571D01*
X98956476Y-58657809D01*
X98956476Y-58895904D01*
X98908857Y-58991142D01*
X98861238Y-59038761D01*
X98766000Y-59086380D01*
X98527904Y-59086380D01*
X98432666Y-59038761D01*
X98385047Y-58991142D01*
X148042666Y-78874380D02*
X148614095Y-78874380D01*
X148328380Y-79874380D02*
X148328380Y-78874380D01*
X149328380Y-79826761D02*
X149233142Y-79874380D01*
X149042666Y-79874380D01*
X148947428Y-79826761D01*
X148899809Y-79731523D01*
X148899809Y-79350571D01*
X148947428Y-79255333D01*
X149042666Y-79207714D01*
X149233142Y-79207714D01*
X149328380Y-79255333D01*
X149376000Y-79350571D01*
X149376000Y-79445809D01*
X148899809Y-79541047D01*
X149804571Y-79874380D02*
X149804571Y-79207714D01*
X149804571Y-79302952D02*
X149852190Y-79255333D01*
X149947428Y-79207714D01*
X150090285Y-79207714D01*
X150185523Y-79255333D01*
X150233142Y-79350571D01*
X150233142Y-79874380D01*
X150233142Y-79350571D02*
X150280761Y-79255333D01*
X150376000Y-79207714D01*
X150518857Y-79207714D01*
X150614095Y-79255333D01*
X150661714Y-79350571D01*
X150661714Y-79874380D01*
X151137904Y-79207714D02*
X151137904Y-80207714D01*
X151137904Y-79255333D02*
X151233142Y-79207714D01*
X151423619Y-79207714D01*
X151518857Y-79255333D01*
X151566476Y-79302952D01*
X151614095Y-79398190D01*
X151614095Y-79683904D01*
X151566476Y-79779142D01*
X151518857Y-79826761D01*
X151423619Y-79874380D01*
X151233142Y-79874380D01*
X151137904Y-79826761D01*
X152804571Y-79493428D02*
X153566476Y-79493428D01*
X153185523Y-79874380D02*
X153185523Y-79112476D01*
X148042666Y-55252380D02*
X148614095Y-55252380D01*
X148328380Y-56252380D02*
X148328380Y-55252380D01*
X149328380Y-56204761D02*
X149233142Y-56252380D01*
X149042666Y-56252380D01*
X148947428Y-56204761D01*
X148899809Y-56109523D01*
X148899809Y-55728571D01*
X148947428Y-55633333D01*
X149042666Y-55585714D01*
X149233142Y-55585714D01*
X149328380Y-55633333D01*
X149376000Y-55728571D01*
X149376000Y-55823809D01*
X148899809Y-55919047D01*
X149804571Y-56252380D02*
X149804571Y-55585714D01*
X149804571Y-55680952D02*
X149852190Y-55633333D01*
X149947428Y-55585714D01*
X150090285Y-55585714D01*
X150185523Y-55633333D01*
X150233142Y-55728571D01*
X150233142Y-56252380D01*
X150233142Y-55728571D02*
X150280761Y-55633333D01*
X150376000Y-55585714D01*
X150518857Y-55585714D01*
X150614095Y-55633333D01*
X150661714Y-55728571D01*
X150661714Y-56252380D01*
X151137904Y-55585714D02*
X151137904Y-56585714D01*
X151137904Y-55633333D02*
X151233142Y-55585714D01*
X151423619Y-55585714D01*
X151518857Y-55633333D01*
X151566476Y-55680952D01*
X151614095Y-55776190D01*
X151614095Y-56061904D01*
X151566476Y-56157142D01*
X151518857Y-56204761D01*
X151423619Y-56252380D01*
X151233142Y-56252380D01*
X151137904Y-56204761D01*
X152804571Y-55871428D02*
X153566476Y-55871428D01*
X91384380Y-67047904D02*
X90384380Y-67047904D01*
X91384380Y-66476476D02*
X90812952Y-66905047D01*
X90384380Y-66476476D02*
X90955809Y-67047904D01*
X91384380Y-66047904D02*
X90384380Y-66047904D01*
X91384380Y-65476476D01*
X90384380Y-65476476D01*
X90384380Y-65095523D02*
X91384380Y-64428857D01*
X90384380Y-64428857D02*
X91384380Y-65095523D01*
X123526847Y-84481942D02*
X123479228Y-84529561D01*
X123336371Y-84577180D01*
X123241133Y-84577180D01*
X123098276Y-84529561D01*
X123003038Y-84434323D01*
X122955419Y-84339085D01*
X122907800Y-84148609D01*
X122907800Y-84005752D01*
X122955419Y-83815276D01*
X123003038Y-83720038D01*
X123098276Y-83624800D01*
X123241133Y-83577180D01*
X123336371Y-83577180D01*
X123479228Y-83624800D01*
X123526847Y-83672419D01*
X124098276Y-84577180D02*
X124003038Y-84529561D01*
X123955419Y-84481942D01*
X123907800Y-84386704D01*
X123907800Y-84100990D01*
X123955419Y-84005752D01*
X124003038Y-83958133D01*
X124098276Y-83910514D01*
X124241133Y-83910514D01*
X124336371Y-83958133D01*
X124383990Y-84005752D01*
X124431609Y-84100990D01*
X124431609Y-84386704D01*
X124383990Y-84481942D01*
X124336371Y-84529561D01*
X124241133Y-84577180D01*
X124098276Y-84577180D01*
X124860180Y-84577180D02*
X124860180Y-83910514D01*
X124860180Y-84005752D02*
X124907800Y-83958133D01*
X125003038Y-83910514D01*
X125145895Y-83910514D01*
X125241133Y-83958133D01*
X125288752Y-84053371D01*
X125288752Y-84577180D01*
X125288752Y-84053371D02*
X125336371Y-83958133D01*
X125431609Y-83910514D01*
X125574466Y-83910514D01*
X125669704Y-83958133D01*
X125717323Y-84053371D01*
X125717323Y-84577180D01*
X126193514Y-84577180D02*
X126193514Y-83910514D01*
X126193514Y-84005752D02*
X126241133Y-83958133D01*
X126336371Y-83910514D01*
X126479228Y-83910514D01*
X126574466Y-83958133D01*
X126622085Y-84053371D01*
X126622085Y-84577180D01*
X126622085Y-84053371D02*
X126669704Y-83958133D01*
X126764942Y-83910514D01*
X126907800Y-83910514D01*
X127003038Y-83958133D01*
X127050657Y-84053371D01*
X127050657Y-84577180D01*
X127669704Y-84577180D02*
X127574466Y-84529561D01*
X127526847Y-84481942D01*
X127479228Y-84386704D01*
X127479228Y-84100990D01*
X127526847Y-84005752D01*
X127574466Y-83958133D01*
X127669704Y-83910514D01*
X127812561Y-83910514D01*
X127907800Y-83958133D01*
X127955419Y-84005752D01*
X128003038Y-84100990D01*
X128003038Y-84386704D01*
X127955419Y-84481942D01*
X127907800Y-84529561D01*
X127812561Y-84577180D01*
X127669704Y-84577180D01*
X128431609Y-83910514D02*
X128431609Y-84577180D01*
X128431609Y-84005752D02*
X128479228Y-83958133D01*
X128574466Y-83910514D01*
X128717323Y-83910514D01*
X128812561Y-83958133D01*
X128860180Y-84053371D01*
X128860180Y-84577180D01*
X133929785Y-72270880D02*
X133596452Y-71794690D01*
X133358357Y-72270880D02*
X133358357Y-71270880D01*
X133739309Y-71270880D01*
X133834547Y-71318500D01*
X133882166Y-71366119D01*
X133929785Y-71461357D01*
X133929785Y-71604214D01*
X133882166Y-71699452D01*
X133834547Y-71747071D01*
X133739309Y-71794690D01*
X133358357Y-71794690D01*
X134739309Y-72223261D02*
X134644071Y-72270880D01*
X134453595Y-72270880D01*
X134358357Y-72223261D01*
X134310738Y-72128023D01*
X134310738Y-71747071D01*
X134358357Y-71651833D01*
X134453595Y-71604214D01*
X134644071Y-71604214D01*
X134739309Y-71651833D01*
X134786928Y-71747071D01*
X134786928Y-71842309D01*
X134310738Y-71937547D01*
X135358357Y-72270880D02*
X135263119Y-72223261D01*
X135215500Y-72128023D01*
X135215500Y-71270880D01*
X136167880Y-72270880D02*
X136167880Y-71747071D01*
X136120261Y-71651833D01*
X136025023Y-71604214D01*
X135834547Y-71604214D01*
X135739309Y-71651833D01*
X136167880Y-72223261D02*
X136072642Y-72270880D01*
X135834547Y-72270880D01*
X135739309Y-72223261D01*
X135691690Y-72128023D01*
X135691690Y-72032785D01*
X135739309Y-71937547D01*
X135834547Y-71889928D01*
X136072642Y-71889928D01*
X136167880Y-71842309D01*
X136548833Y-71604214D02*
X136786928Y-72270880D01*
X137025023Y-71604214D02*
X136786928Y-72270880D01*
X136691690Y-72508976D01*
X136644071Y-72556595D01*
X136548833Y-72604214D01*
X138310738Y-72270880D02*
X138215500Y-72223261D01*
X138167880Y-72175642D01*
X138120261Y-72080404D01*
X138120261Y-71794690D01*
X138167880Y-71699452D01*
X138215500Y-71651833D01*
X138310738Y-71604214D01*
X138453595Y-71604214D01*
X138548833Y-71651833D01*
X138596452Y-71699452D01*
X138644071Y-71794690D01*
X138644071Y-72080404D01*
X138596452Y-72175642D01*
X138548833Y-72223261D01*
X138453595Y-72270880D01*
X138310738Y-72270880D01*
X139501214Y-71604214D02*
X139501214Y-72270880D01*
X139072642Y-71604214D02*
X139072642Y-72128023D01*
X139120261Y-72223261D01*
X139215500Y-72270880D01*
X139358357Y-72270880D01*
X139453595Y-72223261D01*
X139501214Y-72175642D01*
X139834547Y-71604214D02*
X140215500Y-71604214D01*
X139977404Y-71270880D02*
X139977404Y-72128023D01*
X140025023Y-72223261D01*
X140120261Y-72270880D01*
X140215500Y-72270880D01*
X102845142Y-48140857D02*
X102892761Y-48188476D01*
X102940380Y-48331333D01*
X102940380Y-48426571D01*
X102892761Y-48569428D01*
X102797523Y-48664666D01*
X102702285Y-48712285D01*
X102511809Y-48759904D01*
X102368952Y-48759904D01*
X102178476Y-48712285D01*
X102083238Y-48664666D01*
X101988000Y-48569428D01*
X101940380Y-48426571D01*
X101940380Y-48331333D01*
X101988000Y-48188476D01*
X102035619Y-48140857D01*
X102940380Y-47188476D02*
X102940380Y-47759904D01*
X102940380Y-47474190D02*
X101940380Y-47474190D01*
X102083238Y-47569428D01*
X102178476Y-47664666D01*
X102226095Y-47759904D01*
X102035619Y-46807523D02*
X101988000Y-46759904D01*
X101940380Y-46664666D01*
X101940380Y-46426571D01*
X101988000Y-46331333D01*
X102035619Y-46283714D01*
X102130857Y-46236095D01*
X102226095Y-46236095D01*
X102368952Y-46283714D01*
X102940380Y-46855142D01*
X102940380Y-46236095D01*
X102973142Y-42806857D02*
X103020761Y-42854476D01*
X103068380Y-42997333D01*
X103068380Y-43092571D01*
X103020761Y-43235428D01*
X102925523Y-43330666D01*
X102830285Y-43378285D01*
X102639809Y-43425904D01*
X102496952Y-43425904D01*
X102306476Y-43378285D01*
X102211238Y-43330666D01*
X102116000Y-43235428D01*
X102068380Y-43092571D01*
X102068380Y-42997333D01*
X102116000Y-42854476D01*
X102163619Y-42806857D01*
X103068380Y-41854476D02*
X103068380Y-42425904D01*
X103068380Y-42140190D02*
X102068380Y-42140190D01*
X102211238Y-42235428D01*
X102306476Y-42330666D01*
X102354095Y-42425904D01*
X102068380Y-41521142D02*
X102068380Y-40902095D01*
X102449333Y-41235428D01*
X102449333Y-41092571D01*
X102496952Y-40997333D01*
X102544571Y-40949714D01*
X102639809Y-40902095D01*
X102877904Y-40902095D01*
X102973142Y-40949714D01*
X103020761Y-40997333D01*
X103068380Y-41092571D01*
X103068380Y-41378285D01*
X103020761Y-41473523D01*
X102973142Y-41521142D01*
X107910380Y-43124333D02*
X108624666Y-43124333D01*
X108767523Y-43171952D01*
X108862761Y-43267190D01*
X108910380Y-43410047D01*
X108910380Y-43505285D01*
X108910380Y-42648142D02*
X107910380Y-42648142D01*
X107910380Y-42267190D01*
X107958000Y-42171952D01*
X108005619Y-42124333D01*
X108100857Y-42076714D01*
X108243714Y-42076714D01*
X108338952Y-42124333D01*
X108386571Y-42171952D01*
X108434190Y-42267190D01*
X108434190Y-42648142D01*
X107910380Y-41171952D02*
X107910380Y-41648142D01*
X108386571Y-41695761D01*
X108338952Y-41648142D01*
X108291333Y-41552904D01*
X108291333Y-41314809D01*
X108338952Y-41219571D01*
X108386571Y-41171952D01*
X108481809Y-41124333D01*
X108719904Y-41124333D01*
X108815142Y-41171952D01*
X108862761Y-41219571D01*
X108910380Y-41314809D01*
X108910380Y-41552904D01*
X108862761Y-41648142D01*
X108815142Y-41695761D01*
X104036880Y-44354571D02*
X104036880Y-43735523D01*
X104417833Y-44068857D01*
X104417833Y-43926000D01*
X104465452Y-43830761D01*
X104513071Y-43783142D01*
X104608309Y-43735523D01*
X104846404Y-43735523D01*
X104941642Y-43783142D01*
X104989261Y-43830761D01*
X105036880Y-43926000D01*
X105036880Y-44211714D01*
X104989261Y-44306952D01*
X104941642Y-44354571D01*
X104941642Y-43306952D02*
X104989261Y-43259333D01*
X105036880Y-43306952D01*
X104989261Y-43354571D01*
X104941642Y-43306952D01*
X105036880Y-43306952D01*
X104036880Y-42926000D02*
X104036880Y-42306952D01*
X104417833Y-42640285D01*
X104417833Y-42497428D01*
X104465452Y-42402190D01*
X104513071Y-42354571D01*
X104608309Y-42306952D01*
X104846404Y-42306952D01*
X104941642Y-42354571D01*
X104989261Y-42402190D01*
X105036880Y-42497428D01*
X105036880Y-42783142D01*
X104989261Y-42878380D01*
X104941642Y-42926000D01*
X104370214Y-41973619D02*
X105036880Y-41735523D01*
X104370214Y-41497428D01*
X91860666Y-48148476D02*
X91860666Y-47672285D01*
X92146380Y-48243714D02*
X91146380Y-47910380D01*
X92146380Y-47577047D01*
X92146380Y-47243714D02*
X91146380Y-47243714D01*
X91860666Y-46910380D01*
X91146380Y-46577047D01*
X92146380Y-46577047D01*
X92098761Y-46148476D02*
X92146380Y-46005619D01*
X92146380Y-45767523D01*
X92098761Y-45672285D01*
X92051142Y-45624666D01*
X91955904Y-45577047D01*
X91860666Y-45577047D01*
X91765428Y-45624666D01*
X91717809Y-45672285D01*
X91670190Y-45767523D01*
X91622571Y-45958000D01*
X91574952Y-46053238D01*
X91527333Y-46100857D01*
X91432095Y-46148476D01*
X91336857Y-46148476D01*
X91241619Y-46100857D01*
X91194000Y-46053238D01*
X91146380Y-45958000D01*
X91146380Y-45719904D01*
X91194000Y-45577047D01*
X92146380Y-44624666D02*
X92146380Y-45196095D01*
X92146380Y-44910380D02*
X91146380Y-44910380D01*
X91289238Y-45005619D01*
X91384476Y-45100857D01*
X91432095Y-45196095D01*
X92146380Y-43672285D02*
X92146380Y-44243714D01*
X92146380Y-43958000D02*
X91146380Y-43958000D01*
X91289238Y-44053238D01*
X91384476Y-44148476D01*
X91432095Y-44243714D01*
X92146380Y-42719904D02*
X92146380Y-43291333D01*
X92146380Y-43005619D02*
X91146380Y-43005619D01*
X91289238Y-43100857D01*
X91384476Y-43196095D01*
X91432095Y-43291333D01*
X91146380Y-42386571D02*
X91146380Y-41719904D01*
X92146380Y-42148476D01*
M02*
