M48
; DRILL file {KiCad 5.1.2} date do 23 mei 2019 10:47:18 CEST
; FORMAT={-:-/ absolute / inch / decimal}
; #@! TF.CreationDate,2019-05-23T10:47:18+02:00
; #@! TF.GenerationSoftware,Kicad,Pcbnew,5.1.2
; #@! TF.FileFunction,Plated,1,2,PTH
FMAT,2
INCH
T1C0.0157
T2C0.0394
T3C0.0433
T4C0.0512
%
G90
G05
T1
X3.595Y-1.9375
X3.86Y-2.763
X3.888Y-2.804
X3.892Y-2.845
X3.97Y-2.87
X4.099Y-2.909
X4.115Y-1.91
X4.168Y-2.576
X4.23Y-2.88
X4.235Y-2.34
X4.2752Y-2.2923
X4.2975Y-1.66
X4.312Y-2.2
X4.337Y-2.723
X4.3993Y-2.88
X4.406Y-2.336
X4.418Y-2.432
X4.4308Y-2.2733
X4.4425Y-2.12
X4.46Y-2.47
X4.4825Y-2.37
X4.489Y-2.162
X4.497Y-2.291
X4.537Y-2.909
X4.5423Y-2.6248
X4.5429Y-2.3379
X4.558Y-2.398
X4.565Y-2.755
X4.589Y-1.919
X4.5975Y-2.61
X4.6375Y-2.6275
X4.67Y-2.655
X4.67Y-2.88
X4.7Y-2.12
X4.7325Y-2.375
X4.74Y-2.075
X4.765Y-2.45
X4.78Y-2.285
X5.005Y-2.45
X5.019Y-2.751
X5.102Y-2.751
X5.1504Y-2.3654
X5.28Y-2.5875
X5.37Y-2.255
X5.405Y-2.345
X5.432Y-2.532
X5.615Y-2.7775
X5.674Y-3.061
X5.775Y-1.805
T2
X4.09Y-2.04
X4.09Y-2.14
X4.09Y-2.24
X4.09Y-2.34
X4.09Y-2.44
X4.09Y-2.54
X4.09Y-2.64
X4.09Y-2.74
X5.54Y-2.04
X5.54Y-2.14
X5.54Y-2.24
X5.54Y-2.34
X5.54Y-2.44
X5.54Y-2.54
X5.54Y-2.64
X5.54Y-2.74
X5.33Y-2.93
X5.33Y-3.03
X5.33Y-3.13
X5.33Y-3.23
X5.43Y-2.93
X5.43Y-3.03
X5.43Y-3.13
X5.43Y-3.23
X4.405Y-1.7625
X4.505Y-1.7625
X4.605Y-1.7625
X4.705Y-1.7625
X4.805Y-1.7625
X4.905Y-1.7625
X5.005Y-1.7625
X5.105Y-1.7625
X3.72Y-2.925
X3.72Y-3.025
X3.72Y-3.125
X3.72Y-3.225
T3
X5.86Y-1.8441
X5.86Y-2.1
X6.0372Y-1.8441
X6.0372Y-2.1
X3.69Y-2.21
X3.79Y-2.21
X3.89Y-2.21
T4
X5.92Y-2.78
X5.92Y-2.9769
X5.92Y-2.35
X5.92Y-2.5469
X3.99Y-3.13
X4.1869Y-3.13
X3.78Y-2.4931
X3.78Y-2.69
X4.858Y-3.13
X5.0549Y-3.13
X4.423Y-3.13
X4.6199Y-3.13
T0
M30
