G04 #@! TF.GenerationSoftware,KiCad,Pcbnew,5.1.2*
G04 #@! TF.CreationDate,2019-05-23T10:46:26+02:00*
G04 #@! TF.ProjectId,pcb,7063622e-6b69-4636-9164-5f7063625858,rev?*
G04 #@! TF.SameCoordinates,Original*
G04 #@! TF.FileFunction,Copper,L2,Bot*
G04 #@! TF.FilePolarity,Positive*
%FSLAX46Y46*%
G04 Gerber Fmt 4.6, Leading zero omitted, Abs format (unit mm)*
G04 Created by KiCad (PCBNEW 5.1.2) date 2019-05-23 10:46:26*
%MOMM*%
%LPD*%
G04 APERTURE LIST*
%ADD10C,2.500000*%
%ADD11R,2.500000X2.500000*%
%ADD12R,1.700000X1.700000*%
%ADD13C,1.700000*%
%ADD14O,1.700000X1.700000*%
%ADD15C,2.000000*%
%ADD16R,1.905000X2.000000*%
%ADD17O,1.905000X2.000000*%
%ADD18C,0.800000*%
%ADD19C,0.250000*%
%ADD20C,0.750000*%
G04 APERTURE END LIST*
D10*
X106346000Y-79502000D03*
D11*
X101346000Y-79502000D03*
D12*
X103886000Y-51816000D03*
D13*
X103886000Y-54356000D03*
X103886000Y-56896000D03*
X103886000Y-59436000D03*
X103886000Y-61976000D03*
X103886000Y-64516000D03*
X103886000Y-67056000D03*
X103886000Y-69596000D03*
X140716000Y-69596000D03*
X140716000Y-67056000D03*
X140716000Y-64516000D03*
X140716000Y-61976000D03*
X140716000Y-59436000D03*
X140716000Y-56896000D03*
X140716000Y-54356000D03*
X140716000Y-51816000D03*
D12*
X94488000Y-81915000D03*
D14*
X94488000Y-79375000D03*
X94488000Y-76835000D03*
X94488000Y-74295000D03*
D12*
X111887000Y-44767500D03*
D14*
X114427000Y-44767500D03*
X116967000Y-44767500D03*
X119507000Y-44767500D03*
X122047000Y-44767500D03*
X124587000Y-44767500D03*
X127127000Y-44767500D03*
X129667000Y-44767500D03*
D15*
X153344000Y-53340000D03*
X148844000Y-53340000D03*
X153344000Y-46840000D03*
X148844000Y-46840000D03*
D16*
X93726000Y-56134000D03*
D17*
X96266000Y-56134000D03*
X98806000Y-56134000D03*
D10*
X150368000Y-70612000D03*
D11*
X150368000Y-75612000D03*
X150368000Y-64690000D03*
D10*
X150368000Y-59690000D03*
D11*
X96012000Y-63326000D03*
D10*
X96012000Y-68326000D03*
D11*
X112344200Y-79502000D03*
D10*
X117344200Y-79502000D03*
X128393200Y-79502000D03*
D11*
X123393200Y-79502000D03*
D12*
X135382000Y-82042000D03*
D14*
X137922000Y-82042000D03*
X135382000Y-79502000D03*
X137922000Y-79502000D03*
X135382000Y-76962000D03*
X137922000Y-76962000D03*
X135382000Y-74422000D03*
X137922000Y-74422000D03*
D18*
X107569000Y-59436000D03*
X129590800Y-69875400D03*
X127482600Y-69875400D03*
X105867200Y-65430400D03*
X112217200Y-61772800D03*
X109524800Y-55880000D03*
X114020600Y-54914800D03*
X121412000Y-58039000D03*
X114223800Y-58191400D03*
X144119600Y-77749400D03*
X137972800Y-64312800D03*
X110159800Y-69164200D03*
X146685000Y-45847000D03*
X112839500Y-53848000D03*
X119380000Y-53848000D03*
X115951000Y-69977000D03*
X104521000Y-48514000D03*
X115239800Y-73888600D03*
X104114600Y-73888600D03*
X91313000Y-49212500D03*
X137287000Y-59563000D03*
X136398000Y-57277000D03*
X113284000Y-62738000D03*
X98856800Y-72263000D03*
X112541545Y-57740952D03*
X98755200Y-71221600D03*
X108589998Y-58224502D03*
X98044000Y-70180200D03*
X120396000Y-52705000D03*
X116560600Y-48742600D03*
X115773200Y-60909200D03*
X113855500Y-60198000D03*
X115390118Y-59382999D03*
X111912400Y-59334400D03*
X142621000Y-70548500D03*
X134112000Y-65722500D03*
X115374847Y-66670347D03*
X100838000Y-72898002D03*
X116776500Y-66294000D03*
X107442000Y-73152004D03*
X118618000Y-67437000D03*
X118618000Y-73151998D03*
X117792500Y-66738500D03*
X111742000Y-73152006D03*
X127127000Y-62230000D03*
X121031000Y-62230000D03*
X130819153Y-60080153D03*
X120205500Y-60325000D03*
X109156500Y-42164000D03*
D19*
X103886000Y-54356000D02*
X107569000Y-58039000D01*
X107569000Y-58039000D02*
X107569000Y-59436000D01*
D20*
X105867200Y-65430400D02*
X108559600Y-65430400D01*
X112217200Y-61772800D02*
X112217200Y-61772800D01*
X148844000Y-53848000D02*
X148844000Y-53340000D01*
X140716000Y-61976000D02*
X148844000Y-53848000D01*
X148844000Y-46840000D02*
X148844000Y-53340000D01*
X140716000Y-59436000D02*
X146685000Y-53467000D01*
X146685000Y-53467000D02*
X146685000Y-45847000D01*
X112839500Y-53848000D02*
X119380000Y-53848000D01*
X124587000Y-45969581D02*
X124587000Y-44767500D01*
X120696002Y-53848000D02*
X124587000Y-49957002D01*
X124587000Y-49957002D02*
X124587000Y-45969581D01*
X119380000Y-53848000D02*
X120696002Y-53848000D01*
X115252500Y-73152000D02*
X115252500Y-70675500D01*
X115252500Y-70675500D02*
X115951000Y-69977000D01*
X115252500Y-73152000D02*
X115252500Y-73875900D01*
X115252500Y-73875900D02*
X115239800Y-73888600D01*
X105435400Y-75209400D02*
X104114600Y-73888600D01*
X115239800Y-73888600D02*
X113919000Y-75209400D01*
X113919000Y-75209400D02*
X105435400Y-75209400D01*
X98785398Y-73888600D02*
X104114600Y-73888600D01*
X92964000Y-68067202D02*
X98785398Y-73888600D01*
X101371400Y-51663600D02*
X101371400Y-57734200D01*
X92964000Y-62306200D02*
X92964000Y-68067202D01*
X104521000Y-48514000D02*
X101371400Y-51663600D01*
X101371400Y-57734200D02*
X98221800Y-60883800D01*
X98221800Y-60883800D02*
X94386400Y-60883800D01*
X94386400Y-60883800D02*
X92964000Y-62306200D01*
X140716000Y-51816000D02*
X137033000Y-51816000D01*
X137033000Y-51816000D02*
X133985000Y-48768000D01*
X133985000Y-48768000D02*
X133985000Y-42862500D01*
X133985000Y-42862500D02*
X131953000Y-40830500D01*
X131953000Y-40830500D02*
X112390498Y-40830500D01*
X112390498Y-40830500D02*
X108966000Y-40830500D01*
X108966000Y-40830500D02*
X92837000Y-40830500D01*
X92837000Y-40830500D02*
X91313000Y-42354500D01*
X91313000Y-42354500D02*
X91313000Y-49212500D01*
D19*
X137287000Y-59563000D02*
X136398000Y-58674000D01*
X136398000Y-58674000D02*
X136398000Y-57277000D01*
X99256799Y-71863001D02*
X98856800Y-72263000D01*
X100050600Y-71069200D02*
X99256799Y-71863001D01*
X104952800Y-71069200D02*
X100050600Y-71069200D01*
X113284000Y-62738000D02*
X104952800Y-71069200D01*
X112141546Y-58140951D02*
X111982047Y-58140951D01*
X104311598Y-65811400D02*
X103391598Y-65811400D01*
X112541545Y-57740952D02*
X112141546Y-58140951D01*
X111982047Y-58140951D02*
X104311598Y-65811400D01*
X103391598Y-65811400D02*
X98786296Y-70416702D01*
X98786296Y-70416702D02*
X98786296Y-71190504D01*
X98786296Y-71190504D02*
X98755200Y-71221600D01*
X103225600Y-63271400D02*
X98061286Y-68435714D01*
X104806602Y-63271400D02*
X103225600Y-63271400D01*
X108589998Y-58224502D02*
X108589998Y-59488004D01*
X108589998Y-59488004D02*
X104806602Y-63271400D01*
X98061286Y-68435714D02*
X98061286Y-70162914D01*
X98061286Y-70162914D02*
X98044000Y-70180200D01*
X111887000Y-45867500D02*
X111887000Y-44767500D01*
X118324501Y-52305001D02*
X111887000Y-45867500D01*
X119996001Y-52305001D02*
X118324501Y-52305001D01*
X120396000Y-52705000D02*
X119996001Y-52305001D01*
X116560600Y-45173900D02*
X116967000Y-44767500D01*
X116560600Y-48742600D02*
X116560600Y-45173900D01*
X135382000Y-76962000D02*
X131318000Y-76962000D01*
X131318000Y-76962000D02*
X116205000Y-61849000D01*
X115798600Y-61442600D02*
X116172715Y-61816715D01*
X115798600Y-60934600D02*
X115773200Y-60909200D01*
X115798600Y-61442600D02*
X115798600Y-60934600D01*
X131076499Y-77418999D02*
X113855500Y-60198000D01*
X135382000Y-79502000D02*
X133298999Y-77418999D01*
X133298999Y-77418999D02*
X131076499Y-77418999D01*
X136557001Y-78137001D02*
X136557001Y-76397999D01*
X137922000Y-79502000D02*
X136557001Y-78137001D01*
X116967000Y-61595000D02*
X116967000Y-60959881D01*
X116967000Y-60959881D02*
X115390118Y-59382999D01*
X136557001Y-76397999D02*
X135756003Y-75597001D01*
X135756003Y-75597001D02*
X130969001Y-75597001D01*
X130969001Y-75597001D02*
X116967000Y-61595000D01*
X139097001Y-78137001D02*
X139097001Y-80066001D01*
X137922000Y-76962000D02*
X139097001Y-78137001D01*
X139097001Y-80066001D02*
X138486001Y-80677001D01*
X138486001Y-80677001D02*
X133261499Y-80677001D01*
X133261499Y-80677001D02*
X112458500Y-59874002D01*
X112458500Y-59874002D02*
X112452002Y-59874002D01*
X112452002Y-59874002D02*
X111912400Y-59334400D01*
X142621000Y-67221998D02*
X141121502Y-65722500D01*
X142621000Y-70548500D02*
X142621000Y-67221998D01*
X141121502Y-65722500D02*
X134112000Y-65722500D01*
X101403685Y-72898002D02*
X100838000Y-72898002D01*
X102724487Y-71577200D02*
X101403685Y-72898002D01*
X105156000Y-71577200D02*
X102724487Y-71577200D01*
X115374847Y-66670347D02*
X110062853Y-66670347D01*
X110062853Y-66670347D02*
X105156000Y-71577200D01*
X108007685Y-73152004D02*
X107442000Y-73152004D01*
X108566489Y-72593200D02*
X108007685Y-73152004D01*
X116776500Y-66294000D02*
X110477300Y-72593200D01*
X110477300Y-72593200D02*
X108566489Y-72593200D01*
X118618000Y-67437000D02*
X118618000Y-73151998D01*
X111742000Y-72789000D02*
X111742000Y-73152006D01*
X117792500Y-66738500D02*
X111742000Y-72789000D01*
X127127000Y-62230000D02*
X121031000Y-62230000D01*
X130819153Y-60080153D02*
X120450347Y-60080153D01*
X120450347Y-60080153D02*
X120205500Y-60325000D01*
D20*
X109156500Y-42164000D02*
X131064000Y-42164000D01*
X131064000Y-42164000D02*
X132524500Y-43624500D01*
X132524500Y-43624500D02*
X132524500Y-49466500D01*
X137414000Y-54356000D02*
X140716000Y-54356000D01*
X132524500Y-49466500D02*
X137414000Y-54356000D01*
D19*
G36*
X154425000Y-45612638D02*
G01*
X154406963Y-45594601D01*
X154292913Y-45708651D01*
X154196410Y-45447291D01*
X153908327Y-45307754D01*
X153598557Y-45227101D01*
X153279005Y-45208431D01*
X152961951Y-45252461D01*
X152659579Y-45357500D01*
X152491590Y-45447291D01*
X152395086Y-45708652D01*
X153344000Y-46657566D01*
X153358142Y-46643424D01*
X153540576Y-46825858D01*
X153526434Y-46840000D01*
X153540576Y-46854142D01*
X153358142Y-47036576D01*
X153344000Y-47022434D01*
X152395086Y-47971348D01*
X152491590Y-48232709D01*
X152779673Y-48372246D01*
X153089443Y-48452899D01*
X153408995Y-48471569D01*
X153726049Y-48427539D01*
X154028421Y-48322500D01*
X154196410Y-48232709D01*
X154292913Y-47971349D01*
X154406963Y-48085399D01*
X154425000Y-48067362D01*
X154425000Y-52112638D01*
X154406963Y-52094601D01*
X154292913Y-52208651D01*
X154196410Y-51947291D01*
X153908327Y-51807754D01*
X153598557Y-51727101D01*
X153279005Y-51708431D01*
X152961951Y-51752461D01*
X152659579Y-51857500D01*
X152491590Y-51947291D01*
X152395086Y-52208652D01*
X153344000Y-53157566D01*
X153358142Y-53143424D01*
X153540576Y-53325858D01*
X153526434Y-53340000D01*
X153540576Y-53354142D01*
X153358142Y-53536576D01*
X153344000Y-53522434D01*
X152395086Y-54471348D01*
X152491590Y-54732709D01*
X152779673Y-54872246D01*
X153089443Y-54952899D01*
X153408995Y-54971569D01*
X153726049Y-54927539D01*
X154028421Y-54822500D01*
X154196410Y-54732709D01*
X154292913Y-54471349D01*
X154406963Y-54585399D01*
X154425000Y-54567362D01*
X154425001Y-84425000D01*
X90575000Y-84425000D01*
X90575000Y-81065000D01*
X93261186Y-81065000D01*
X93261186Y-82765000D01*
X93268426Y-82838513D01*
X93289869Y-82909200D01*
X93324691Y-82974347D01*
X93371552Y-83031448D01*
X93428653Y-83078309D01*
X93493800Y-83113131D01*
X93564487Y-83134574D01*
X93638000Y-83141814D01*
X95338000Y-83141814D01*
X95411513Y-83134574D01*
X95482200Y-83113131D01*
X95547347Y-83078309D01*
X95604448Y-83031448D01*
X95651309Y-82974347D01*
X95686131Y-82909200D01*
X95707574Y-82838513D01*
X95714814Y-82765000D01*
X95714814Y-81065000D01*
X95707574Y-80991487D01*
X95686131Y-80920800D01*
X95651309Y-80855653D01*
X95604448Y-80798552D01*
X95547347Y-80751691D01*
X95482200Y-80716869D01*
X95411513Y-80695426D01*
X95338000Y-80688186D01*
X93638000Y-80688186D01*
X93564487Y-80695426D01*
X93493800Y-80716869D01*
X93428653Y-80751691D01*
X93371552Y-80798552D01*
X93324691Y-80855653D01*
X93289869Y-80920800D01*
X93268426Y-80991487D01*
X93261186Y-81065000D01*
X90575000Y-81065000D01*
X90575000Y-79375000D01*
X93257073Y-79375000D01*
X93280725Y-79615142D01*
X93350772Y-79846055D01*
X93464522Y-80058866D01*
X93617603Y-80245397D01*
X93804134Y-80398478D01*
X94016945Y-80512228D01*
X94247858Y-80582275D01*
X94427822Y-80600000D01*
X94548178Y-80600000D01*
X94728142Y-80582275D01*
X94959055Y-80512228D01*
X95171866Y-80398478D01*
X95358397Y-80245397D01*
X95511478Y-80058866D01*
X95625228Y-79846055D01*
X95695275Y-79615142D01*
X95718927Y-79375000D01*
X95695275Y-79134858D01*
X95625228Y-78903945D01*
X95511478Y-78691134D01*
X95358397Y-78504603D01*
X95171866Y-78351522D01*
X94985674Y-78252000D01*
X99719186Y-78252000D01*
X99719186Y-80752000D01*
X99726426Y-80825513D01*
X99747869Y-80896200D01*
X99782691Y-80961347D01*
X99829552Y-81018448D01*
X99886653Y-81065309D01*
X99951800Y-81100131D01*
X100022487Y-81121574D01*
X100096000Y-81128814D01*
X102596000Y-81128814D01*
X102669513Y-81121574D01*
X102740200Y-81100131D01*
X102805347Y-81065309D01*
X102862448Y-81018448D01*
X102909309Y-80961347D01*
X102944131Y-80896200D01*
X102965574Y-80825513D01*
X102972814Y-80752000D01*
X102972814Y-79341951D01*
X104721000Y-79341951D01*
X104721000Y-79662049D01*
X104783448Y-79975995D01*
X104905943Y-80271726D01*
X105083780Y-80537877D01*
X105310123Y-80764220D01*
X105576274Y-80942057D01*
X105872005Y-81064552D01*
X106185951Y-81127000D01*
X106506049Y-81127000D01*
X106819995Y-81064552D01*
X107115726Y-80942057D01*
X107381877Y-80764220D01*
X107608220Y-80537877D01*
X107786057Y-80271726D01*
X107908552Y-79975995D01*
X107971000Y-79662049D01*
X107971000Y-79341951D01*
X107908552Y-79028005D01*
X107786057Y-78732274D01*
X107608220Y-78466123D01*
X107394097Y-78252000D01*
X110717386Y-78252000D01*
X110717386Y-80752000D01*
X110724626Y-80825513D01*
X110746069Y-80896200D01*
X110780891Y-80961347D01*
X110827752Y-81018448D01*
X110884853Y-81065309D01*
X110950000Y-81100131D01*
X111020687Y-81121574D01*
X111094200Y-81128814D01*
X113594200Y-81128814D01*
X113667713Y-81121574D01*
X113738400Y-81100131D01*
X113803547Y-81065309D01*
X113860648Y-81018448D01*
X113907509Y-80961347D01*
X113942331Y-80896200D01*
X113963774Y-80825513D01*
X113971014Y-80752000D01*
X113971014Y-79341951D01*
X115719200Y-79341951D01*
X115719200Y-79662049D01*
X115781648Y-79975995D01*
X115904143Y-80271726D01*
X116081980Y-80537877D01*
X116308323Y-80764220D01*
X116574474Y-80942057D01*
X116870205Y-81064552D01*
X117184151Y-81127000D01*
X117504249Y-81127000D01*
X117818195Y-81064552D01*
X118113926Y-80942057D01*
X118380077Y-80764220D01*
X118392297Y-80752000D01*
X121515176Y-80752000D01*
X121527243Y-80874521D01*
X121562981Y-80992334D01*
X121621017Y-81100911D01*
X121699120Y-81196080D01*
X121794289Y-81274183D01*
X121902866Y-81332219D01*
X122020679Y-81367957D01*
X122143200Y-81380024D01*
X123107950Y-81377000D01*
X123264200Y-81220750D01*
X123264200Y-79631000D01*
X123522200Y-79631000D01*
X123522200Y-81220750D01*
X123678450Y-81377000D01*
X124643200Y-81380024D01*
X124765721Y-81367957D01*
X124883534Y-81332219D01*
X124992111Y-81274183D01*
X125087280Y-81196080D01*
X125165383Y-81100911D01*
X125223419Y-80992334D01*
X125259157Y-80874521D01*
X125265357Y-80811562D01*
X127266072Y-80811562D01*
X127392732Y-81098494D01*
X127723416Y-81262999D01*
X128079841Y-81359830D01*
X128448306Y-81385266D01*
X128814655Y-81338329D01*
X129164806Y-81220822D01*
X129393668Y-81098494D01*
X129520328Y-80811562D01*
X128393200Y-79684434D01*
X127266072Y-80811562D01*
X125265357Y-80811562D01*
X125271224Y-80752000D01*
X125268200Y-79787250D01*
X125111950Y-79631000D01*
X123522200Y-79631000D01*
X123264200Y-79631000D01*
X121674450Y-79631000D01*
X121518200Y-79787250D01*
X121515176Y-80752000D01*
X118392297Y-80752000D01*
X118606420Y-80537877D01*
X118784257Y-80271726D01*
X118906752Y-79975995D01*
X118969200Y-79662049D01*
X118969200Y-79557106D01*
X126509934Y-79557106D01*
X126556871Y-79923455D01*
X126674378Y-80273606D01*
X126796706Y-80502468D01*
X127083638Y-80629128D01*
X128210766Y-79502000D01*
X128575634Y-79502000D01*
X129702762Y-80629128D01*
X129989694Y-80502468D01*
X130154199Y-80171784D01*
X130251030Y-79815359D01*
X130276466Y-79446894D01*
X130229529Y-79080545D01*
X130112022Y-78730394D01*
X129989694Y-78501532D01*
X129702762Y-78374872D01*
X128575634Y-79502000D01*
X128210766Y-79502000D01*
X127083638Y-78374872D01*
X126796706Y-78501532D01*
X126632201Y-78832216D01*
X126535370Y-79188641D01*
X126509934Y-79557106D01*
X118969200Y-79557106D01*
X118969200Y-79341951D01*
X118906752Y-79028005D01*
X118784257Y-78732274D01*
X118606420Y-78466123D01*
X118392297Y-78252000D01*
X121515176Y-78252000D01*
X121518200Y-79216750D01*
X121674450Y-79373000D01*
X123264200Y-79373000D01*
X123264200Y-77783250D01*
X123522200Y-77783250D01*
X123522200Y-79373000D01*
X125111950Y-79373000D01*
X125268200Y-79216750D01*
X125271224Y-78252000D01*
X125265358Y-78192438D01*
X127266072Y-78192438D01*
X128393200Y-79319566D01*
X129520328Y-78192438D01*
X129393668Y-77905506D01*
X129062984Y-77741001D01*
X128706559Y-77644170D01*
X128338094Y-77618734D01*
X127971745Y-77665671D01*
X127621594Y-77783178D01*
X127392732Y-77905506D01*
X127266072Y-78192438D01*
X125265358Y-78192438D01*
X125259157Y-78129479D01*
X125223419Y-78011666D01*
X125165383Y-77903089D01*
X125087280Y-77807920D01*
X124992111Y-77729817D01*
X124883534Y-77671781D01*
X124765721Y-77636043D01*
X124643200Y-77623976D01*
X123678450Y-77627000D01*
X123522200Y-77783250D01*
X123264200Y-77783250D01*
X123107950Y-77627000D01*
X122143200Y-77623976D01*
X122020679Y-77636043D01*
X121902866Y-77671781D01*
X121794289Y-77729817D01*
X121699120Y-77807920D01*
X121621017Y-77903089D01*
X121562981Y-78011666D01*
X121527243Y-78129479D01*
X121515176Y-78252000D01*
X118392297Y-78252000D01*
X118380077Y-78239780D01*
X118113926Y-78061943D01*
X117818195Y-77939448D01*
X117504249Y-77877000D01*
X117184151Y-77877000D01*
X116870205Y-77939448D01*
X116574474Y-78061943D01*
X116308323Y-78239780D01*
X116081980Y-78466123D01*
X115904143Y-78732274D01*
X115781648Y-79028005D01*
X115719200Y-79341951D01*
X113971014Y-79341951D01*
X113971014Y-78252000D01*
X113963774Y-78178487D01*
X113942331Y-78107800D01*
X113907509Y-78042653D01*
X113860648Y-77985552D01*
X113803547Y-77938691D01*
X113738400Y-77903869D01*
X113667713Y-77882426D01*
X113594200Y-77875186D01*
X111094200Y-77875186D01*
X111020687Y-77882426D01*
X110950000Y-77903869D01*
X110884853Y-77938691D01*
X110827752Y-77985552D01*
X110780891Y-78042653D01*
X110746069Y-78107800D01*
X110724626Y-78178487D01*
X110717386Y-78252000D01*
X107394097Y-78252000D01*
X107381877Y-78239780D01*
X107115726Y-78061943D01*
X106819995Y-77939448D01*
X106506049Y-77877000D01*
X106185951Y-77877000D01*
X105872005Y-77939448D01*
X105576274Y-78061943D01*
X105310123Y-78239780D01*
X105083780Y-78466123D01*
X104905943Y-78732274D01*
X104783448Y-79028005D01*
X104721000Y-79341951D01*
X102972814Y-79341951D01*
X102972814Y-78252000D01*
X102965574Y-78178487D01*
X102944131Y-78107800D01*
X102909309Y-78042653D01*
X102862448Y-77985552D01*
X102805347Y-77938691D01*
X102740200Y-77903869D01*
X102669513Y-77882426D01*
X102596000Y-77875186D01*
X100096000Y-77875186D01*
X100022487Y-77882426D01*
X99951800Y-77903869D01*
X99886653Y-77938691D01*
X99829552Y-77985552D01*
X99782691Y-78042653D01*
X99747869Y-78107800D01*
X99726426Y-78178487D01*
X99719186Y-78252000D01*
X94985674Y-78252000D01*
X94959055Y-78237772D01*
X94728142Y-78167725D01*
X94548178Y-78150000D01*
X94427822Y-78150000D01*
X94247858Y-78167725D01*
X94016945Y-78237772D01*
X93804134Y-78351522D01*
X93617603Y-78504603D01*
X93464522Y-78691134D01*
X93350772Y-78903945D01*
X93280725Y-79134858D01*
X93257073Y-79375000D01*
X90575000Y-79375000D01*
X90575000Y-74652268D01*
X93056922Y-74652268D01*
X93099610Y-74793009D01*
X93223444Y-75054301D01*
X93395874Y-75286414D01*
X93610274Y-75480427D01*
X93858405Y-75628885D01*
X94035576Y-75692120D01*
X94016945Y-75697772D01*
X93804134Y-75811522D01*
X93617603Y-75964603D01*
X93464522Y-76151134D01*
X93350772Y-76363945D01*
X93280725Y-76594858D01*
X93257073Y-76835000D01*
X93280725Y-77075142D01*
X93350772Y-77306055D01*
X93464522Y-77518866D01*
X93617603Y-77705397D01*
X93804134Y-77858478D01*
X94016945Y-77972228D01*
X94247858Y-78042275D01*
X94427822Y-78060000D01*
X94548178Y-78060000D01*
X94728142Y-78042275D01*
X94959055Y-77972228D01*
X95171866Y-77858478D01*
X95358397Y-77705397D01*
X95511478Y-77518866D01*
X95625228Y-77306055D01*
X95695275Y-77075142D01*
X95718927Y-76835000D01*
X95695275Y-76594858D01*
X95625228Y-76363945D01*
X95511478Y-76151134D01*
X95358397Y-75964603D01*
X95171866Y-75811522D01*
X94959055Y-75697772D01*
X94940424Y-75692120D01*
X95117595Y-75628885D01*
X95365726Y-75480427D01*
X95580126Y-75286414D01*
X95752556Y-75054301D01*
X95876390Y-74793009D01*
X95919078Y-74652268D01*
X95800425Y-74424000D01*
X94617000Y-74424000D01*
X94617000Y-74444000D01*
X94359000Y-74444000D01*
X94359000Y-74424000D01*
X93175575Y-74424000D01*
X93056922Y-74652268D01*
X90575000Y-74652268D01*
X90575000Y-73937732D01*
X93056922Y-73937732D01*
X93175575Y-74166000D01*
X94359000Y-74166000D01*
X94359000Y-72981897D01*
X94617000Y-72981897D01*
X94617000Y-74166000D01*
X95800425Y-74166000D01*
X95919078Y-73937732D01*
X95876390Y-73796991D01*
X95752556Y-73535699D01*
X95580126Y-73303586D01*
X95365726Y-73109573D01*
X95117595Y-72961115D01*
X94845269Y-72863917D01*
X94617000Y-72981897D01*
X94359000Y-72981897D01*
X94130731Y-72863917D01*
X93858405Y-72961115D01*
X93610274Y-73109573D01*
X93395874Y-73303586D01*
X93223444Y-73535699D01*
X93099610Y-73796991D01*
X93056922Y-73937732D01*
X90575000Y-73937732D01*
X90575000Y-62306200D01*
X92210373Y-62306200D01*
X92214000Y-62343027D01*
X92214001Y-68030365D01*
X92210373Y-68067202D01*
X92224853Y-68214227D01*
X92267739Y-68355602D01*
X92297432Y-68411154D01*
X92337382Y-68485895D01*
X92357509Y-68510419D01*
X92407624Y-68571485D01*
X92407627Y-68571488D01*
X92431106Y-68600097D01*
X92459715Y-68623576D01*
X98229023Y-74392885D01*
X98252503Y-74421495D01*
X98366705Y-74515219D01*
X98496997Y-74584861D01*
X98638372Y-74627747D01*
X98748563Y-74638600D01*
X98748570Y-74638600D01*
X98785397Y-74642227D01*
X98822225Y-74638600D01*
X103803941Y-74638600D01*
X104879030Y-75713691D01*
X104902505Y-75742295D01*
X104931108Y-75765769D01*
X104931115Y-75765776D01*
X104959741Y-75789268D01*
X105016707Y-75836019D01*
X105146999Y-75905661D01*
X105255326Y-75938522D01*
X105288373Y-75948547D01*
X105303217Y-75950009D01*
X105398565Y-75959400D01*
X105398571Y-75959400D01*
X105435399Y-75963027D01*
X105472227Y-75959400D01*
X113882173Y-75959400D01*
X113919000Y-75963027D01*
X113955827Y-75959400D01*
X113955835Y-75959400D01*
X114066026Y-75948547D01*
X114207401Y-75905661D01*
X114337693Y-75836019D01*
X114451895Y-75742295D01*
X114475378Y-75713681D01*
X115627286Y-74561774D01*
X115733834Y-74490582D01*
X115841782Y-74382634D01*
X115926596Y-74255700D01*
X115985017Y-74114659D01*
X116014800Y-73964931D01*
X116014800Y-73812269D01*
X116002500Y-73750433D01*
X116002500Y-70986159D01*
X116338483Y-70650176D01*
X116445034Y-70578982D01*
X116552982Y-70471034D01*
X116637796Y-70344100D01*
X116696217Y-70203059D01*
X116726000Y-70053331D01*
X116726000Y-69900669D01*
X116696217Y-69750941D01*
X116637796Y-69609900D01*
X116552982Y-69482966D01*
X116445034Y-69375018D01*
X116318100Y-69290204D01*
X116177059Y-69231783D01*
X116034650Y-69203456D01*
X117724606Y-67513500D01*
X117843034Y-67513500D01*
X117872783Y-67663059D01*
X117931204Y-67804100D01*
X118016018Y-67931034D01*
X118118000Y-68033016D01*
X118118001Y-72555981D01*
X118016018Y-72657964D01*
X117931204Y-72784898D01*
X117872783Y-72925939D01*
X117843000Y-73075667D01*
X117843000Y-73228329D01*
X117872783Y-73378057D01*
X117931204Y-73519098D01*
X118016018Y-73646032D01*
X118123966Y-73753980D01*
X118250900Y-73838794D01*
X118391941Y-73897215D01*
X118541669Y-73926998D01*
X118694331Y-73926998D01*
X118844059Y-73897215D01*
X118985100Y-73838794D01*
X119112034Y-73753980D01*
X119219982Y-73646032D01*
X119304796Y-73519098D01*
X119363217Y-73378057D01*
X119393000Y-73228329D01*
X119393000Y-73075667D01*
X119363217Y-72925939D01*
X119304796Y-72784898D01*
X119219982Y-72657964D01*
X119118000Y-72555982D01*
X119118000Y-68033016D01*
X119219982Y-67931034D01*
X119304796Y-67804100D01*
X119363217Y-67663059D01*
X119392622Y-67515230D01*
X132890579Y-81013188D01*
X132906235Y-81032265D01*
X132982370Y-81094747D01*
X133069232Y-81141176D01*
X133163482Y-81169766D01*
X133236939Y-81177001D01*
X133236948Y-81177001D01*
X133261498Y-81179419D01*
X133286048Y-81177001D01*
X134156663Y-81177001D01*
X134155186Y-81192000D01*
X134155186Y-82892000D01*
X134162426Y-82965513D01*
X134183869Y-83036200D01*
X134218691Y-83101347D01*
X134265552Y-83158448D01*
X134322653Y-83205309D01*
X134387800Y-83240131D01*
X134458487Y-83261574D01*
X134532000Y-83268814D01*
X136232000Y-83268814D01*
X136305513Y-83261574D01*
X136376200Y-83240131D01*
X136441347Y-83205309D01*
X136498448Y-83158448D01*
X136545309Y-83101347D01*
X136580131Y-83036200D01*
X136601574Y-82965513D01*
X136608814Y-82892000D01*
X136608814Y-81192000D01*
X136607337Y-81177001D01*
X137047173Y-81177001D01*
X136898522Y-81358134D01*
X136784772Y-81570945D01*
X136714725Y-81801858D01*
X136691073Y-82042000D01*
X136714725Y-82282142D01*
X136784772Y-82513055D01*
X136898522Y-82725866D01*
X137051603Y-82912397D01*
X137238134Y-83065478D01*
X137450945Y-83179228D01*
X137681858Y-83249275D01*
X137861822Y-83267000D01*
X137982178Y-83267000D01*
X138162142Y-83249275D01*
X138393055Y-83179228D01*
X138605866Y-83065478D01*
X138792397Y-82912397D01*
X138945478Y-82725866D01*
X139059228Y-82513055D01*
X139129275Y-82282142D01*
X139135964Y-82214225D01*
X150798000Y-82214225D01*
X150798000Y-82504775D01*
X150854683Y-82789742D01*
X150965872Y-83058175D01*
X151127293Y-83299758D01*
X151332742Y-83505207D01*
X151574325Y-83666628D01*
X151842758Y-83777817D01*
X152127725Y-83834500D01*
X152418275Y-83834500D01*
X152703242Y-83777817D01*
X152971675Y-83666628D01*
X153213258Y-83505207D01*
X153418707Y-83299758D01*
X153580128Y-83058175D01*
X153691317Y-82789742D01*
X153748000Y-82504775D01*
X153748000Y-82214225D01*
X153691317Y-81929258D01*
X153580128Y-81660825D01*
X153418707Y-81419242D01*
X153213258Y-81213793D01*
X152971675Y-81052372D01*
X152703242Y-80941183D01*
X152418275Y-80884500D01*
X152127725Y-80884500D01*
X151842758Y-80941183D01*
X151574325Y-81052372D01*
X151332742Y-81213793D01*
X151127293Y-81419242D01*
X150965872Y-81660825D01*
X150854683Y-81929258D01*
X150798000Y-82214225D01*
X139135964Y-82214225D01*
X139152927Y-82042000D01*
X139129275Y-81801858D01*
X139059228Y-81570945D01*
X138945478Y-81358134D01*
X138792397Y-81171603D01*
X138724930Y-81116235D01*
X138765130Y-81094747D01*
X138841265Y-81032265D01*
X138856930Y-81013177D01*
X139433187Y-80436921D01*
X139452265Y-80421265D01*
X139514747Y-80345130D01*
X139561176Y-80258268D01*
X139589766Y-80164018D01*
X139597001Y-80090561D01*
X139597001Y-80090552D01*
X139599419Y-80066002D01*
X139597001Y-80041452D01*
X139597001Y-78161550D01*
X139599419Y-78137000D01*
X139597001Y-78112450D01*
X139597001Y-78112441D01*
X139589766Y-78038984D01*
X139561176Y-77944734D01*
X139514747Y-77857872D01*
X139452265Y-77781737D01*
X139433188Y-77766081D01*
X139068755Y-77401649D01*
X139129275Y-77202142D01*
X139152927Y-76962000D01*
X139129275Y-76721858D01*
X139059228Y-76490945D01*
X138945478Y-76278134D01*
X138792397Y-76091603D01*
X138605866Y-75938522D01*
X138393055Y-75824772D01*
X138374424Y-75819120D01*
X138551595Y-75755885D01*
X138799726Y-75607427D01*
X139014126Y-75413414D01*
X139186556Y-75181301D01*
X139310390Y-74920009D01*
X139353078Y-74779268D01*
X139234425Y-74551000D01*
X138051000Y-74551000D01*
X138051000Y-74571000D01*
X137793000Y-74571000D01*
X137793000Y-74551000D01*
X135511000Y-74551000D01*
X135511000Y-74571000D01*
X135253000Y-74571000D01*
X135253000Y-74551000D01*
X134069575Y-74551000D01*
X133950922Y-74779268D01*
X133993610Y-74920009D01*
X134077492Y-75097001D01*
X131176108Y-75097001D01*
X130441107Y-74362000D01*
X148741186Y-74362000D01*
X148741186Y-76862000D01*
X148748426Y-76935513D01*
X148769869Y-77006200D01*
X148804691Y-77071347D01*
X148851552Y-77128448D01*
X148908653Y-77175309D01*
X148973800Y-77210131D01*
X149044487Y-77231574D01*
X149118000Y-77238814D01*
X151618000Y-77238814D01*
X151691513Y-77231574D01*
X151762200Y-77210131D01*
X151827347Y-77175309D01*
X151884448Y-77128448D01*
X151931309Y-77071347D01*
X151966131Y-77006200D01*
X151987574Y-76935513D01*
X151994814Y-76862000D01*
X151994814Y-74362000D01*
X151987574Y-74288487D01*
X151966131Y-74217800D01*
X151931309Y-74152653D01*
X151884448Y-74095552D01*
X151827347Y-74048691D01*
X151762200Y-74013869D01*
X151691513Y-73992426D01*
X151618000Y-73985186D01*
X149118000Y-73985186D01*
X149044487Y-73992426D01*
X148973800Y-74013869D01*
X148908653Y-74048691D01*
X148851552Y-74095552D01*
X148804691Y-74152653D01*
X148769869Y-74217800D01*
X148748426Y-74288487D01*
X148741186Y-74362000D01*
X130441107Y-74362000D01*
X130143839Y-74064732D01*
X133950922Y-74064732D01*
X134069575Y-74293000D01*
X135253000Y-74293000D01*
X135253000Y-73108897D01*
X135511000Y-73108897D01*
X135511000Y-74293000D01*
X137793000Y-74293000D01*
X137793000Y-73108897D01*
X138051000Y-73108897D01*
X138051000Y-74293000D01*
X139234425Y-74293000D01*
X139353078Y-74064732D01*
X139310390Y-73923991D01*
X139186556Y-73662699D01*
X139014126Y-73430586D01*
X138799726Y-73236573D01*
X138551595Y-73088115D01*
X138279269Y-72990917D01*
X138051000Y-73108897D01*
X137793000Y-73108897D01*
X137564731Y-72990917D01*
X137292405Y-73088115D01*
X137044274Y-73236573D01*
X136829874Y-73430586D01*
X136657444Y-73662699D01*
X136652000Y-73674186D01*
X136646556Y-73662699D01*
X136474126Y-73430586D01*
X136259726Y-73236573D01*
X136011595Y-73088115D01*
X135739269Y-72990917D01*
X135511000Y-73108897D01*
X135253000Y-73108897D01*
X135024731Y-72990917D01*
X134752405Y-73088115D01*
X134504274Y-73236573D01*
X134289874Y-73430586D01*
X134117444Y-73662699D01*
X133993610Y-73923991D01*
X133950922Y-74064732D01*
X130143839Y-74064732D01*
X126699420Y-70620313D01*
X139874121Y-70620313D01*
X139952491Y-70866348D01*
X140214994Y-70990892D01*
X140496751Y-71061830D01*
X140786933Y-71076438D01*
X141074389Y-71034154D01*
X141348073Y-70936602D01*
X141479509Y-70866348D01*
X141557879Y-70620313D01*
X140716000Y-69778434D01*
X139874121Y-70620313D01*
X126699420Y-70620313D01*
X125746040Y-69666933D01*
X139235562Y-69666933D01*
X139277846Y-69954389D01*
X139375398Y-70228073D01*
X139445652Y-70359509D01*
X139691687Y-70437879D01*
X140533566Y-69596000D01*
X139691687Y-68754121D01*
X139445652Y-68832491D01*
X139321108Y-69094994D01*
X139250170Y-69376751D01*
X139235562Y-69666933D01*
X125746040Y-69666933D01*
X121725276Y-65646169D01*
X133337000Y-65646169D01*
X133337000Y-65798831D01*
X133366783Y-65948559D01*
X133425204Y-66089600D01*
X133510018Y-66216534D01*
X133617966Y-66324482D01*
X133744900Y-66409296D01*
X133885941Y-66467717D01*
X134035669Y-66497500D01*
X134188331Y-66497500D01*
X134338059Y-66467717D01*
X134479100Y-66409296D01*
X134606034Y-66324482D01*
X134708016Y-66222500D01*
X139817089Y-66222500D01*
X139764481Y-66275108D01*
X139630419Y-66475745D01*
X139538076Y-66698681D01*
X139491000Y-66935348D01*
X139491000Y-67176652D01*
X139538076Y-67413319D01*
X139630419Y-67636255D01*
X139764481Y-67836892D01*
X139935108Y-68007519D01*
X140135745Y-68141581D01*
X140259467Y-68192828D01*
X140083927Y-68255398D01*
X139952491Y-68325652D01*
X139874121Y-68571687D01*
X140716000Y-69413566D01*
X141557879Y-68571687D01*
X141479509Y-68325652D01*
X141217006Y-68201108D01*
X141176913Y-68191014D01*
X141296255Y-68141581D01*
X141496892Y-68007519D01*
X141667519Y-67836892D01*
X141801581Y-67636255D01*
X141893924Y-67413319D01*
X141928979Y-67237084D01*
X142121001Y-67429106D01*
X142121000Y-69144598D01*
X142056602Y-68963927D01*
X141986348Y-68832491D01*
X141740313Y-68754121D01*
X140898434Y-69596000D01*
X141740313Y-70437879D01*
X141860432Y-70399617D01*
X141846000Y-70472169D01*
X141846000Y-70624831D01*
X141875783Y-70774559D01*
X141934204Y-70915600D01*
X142019018Y-71042534D01*
X142126966Y-71150482D01*
X142253900Y-71235296D01*
X142394941Y-71293717D01*
X142544669Y-71323500D01*
X142697331Y-71323500D01*
X142847059Y-71293717D01*
X142988100Y-71235296D01*
X143115034Y-71150482D01*
X143222982Y-71042534D01*
X143307796Y-70915600D01*
X143366217Y-70774559D01*
X143396000Y-70624831D01*
X143396000Y-70472169D01*
X143391979Y-70451951D01*
X148743000Y-70451951D01*
X148743000Y-70772049D01*
X148805448Y-71085995D01*
X148927943Y-71381726D01*
X149105780Y-71647877D01*
X149332123Y-71874220D01*
X149598274Y-72052057D01*
X149894005Y-72174552D01*
X150207951Y-72237000D01*
X150528049Y-72237000D01*
X150841995Y-72174552D01*
X151137726Y-72052057D01*
X151403877Y-71874220D01*
X151630220Y-71647877D01*
X151808057Y-71381726D01*
X151930552Y-71085995D01*
X151993000Y-70772049D01*
X151993000Y-70451951D01*
X151930552Y-70138005D01*
X151808057Y-69842274D01*
X151630220Y-69576123D01*
X151403877Y-69349780D01*
X151137726Y-69171943D01*
X150841995Y-69049448D01*
X150528049Y-68987000D01*
X150207951Y-68987000D01*
X149894005Y-69049448D01*
X149598274Y-69171943D01*
X149332123Y-69349780D01*
X149105780Y-69576123D01*
X148927943Y-69842274D01*
X148805448Y-70138005D01*
X148743000Y-70451951D01*
X143391979Y-70451951D01*
X143366217Y-70322441D01*
X143307796Y-70181400D01*
X143222982Y-70054466D01*
X143121000Y-69952484D01*
X143121000Y-67246547D01*
X143123418Y-67221997D01*
X143121000Y-67197447D01*
X143121000Y-67197438D01*
X143113765Y-67123981D01*
X143085175Y-67029731D01*
X143038746Y-66942869D01*
X142976264Y-66866734D01*
X142957187Y-66851078D01*
X141535259Y-65429152D01*
X141667519Y-65296892D01*
X141801581Y-65096255D01*
X141893924Y-64873319D01*
X141941000Y-64636652D01*
X141941000Y-64395348D01*
X141893924Y-64158681D01*
X141801581Y-63935745D01*
X141667519Y-63735108D01*
X141496892Y-63564481D01*
X141310594Y-63440000D01*
X148741186Y-63440000D01*
X148741186Y-65940000D01*
X148748426Y-66013513D01*
X148769869Y-66084200D01*
X148804691Y-66149347D01*
X148851552Y-66206448D01*
X148908653Y-66253309D01*
X148973800Y-66288131D01*
X149044487Y-66309574D01*
X149118000Y-66316814D01*
X151618000Y-66316814D01*
X151691513Y-66309574D01*
X151762200Y-66288131D01*
X151827347Y-66253309D01*
X151884448Y-66206448D01*
X151931309Y-66149347D01*
X151966131Y-66084200D01*
X151987574Y-66013513D01*
X151994814Y-65940000D01*
X151994814Y-63440000D01*
X151987574Y-63366487D01*
X151966131Y-63295800D01*
X151931309Y-63230653D01*
X151884448Y-63173552D01*
X151827347Y-63126691D01*
X151762200Y-63091869D01*
X151691513Y-63070426D01*
X151618000Y-63063186D01*
X149118000Y-63063186D01*
X149044487Y-63070426D01*
X148973800Y-63091869D01*
X148908653Y-63126691D01*
X148851552Y-63173552D01*
X148804691Y-63230653D01*
X148769869Y-63295800D01*
X148748426Y-63366487D01*
X148741186Y-63440000D01*
X141310594Y-63440000D01*
X141296255Y-63430419D01*
X141073319Y-63338076D01*
X140836652Y-63291000D01*
X140595348Y-63291000D01*
X140358681Y-63338076D01*
X140135745Y-63430419D01*
X139935108Y-63564481D01*
X139764481Y-63735108D01*
X139630419Y-63935745D01*
X139538076Y-64158681D01*
X139491000Y-64395348D01*
X139491000Y-64636652D01*
X139538076Y-64873319D01*
X139630419Y-65096255D01*
X139714774Y-65222500D01*
X134708016Y-65222500D01*
X134606034Y-65120518D01*
X134479100Y-65035704D01*
X134338059Y-64977283D01*
X134188331Y-64947500D01*
X134035669Y-64947500D01*
X133885941Y-64977283D01*
X133744900Y-65035704D01*
X133617966Y-65120518D01*
X133510018Y-65228466D01*
X133425204Y-65355400D01*
X133366783Y-65496441D01*
X133337000Y-65646169D01*
X121725276Y-65646169D01*
X118232775Y-62153669D01*
X120256000Y-62153669D01*
X120256000Y-62306331D01*
X120285783Y-62456059D01*
X120344204Y-62597100D01*
X120429018Y-62724034D01*
X120536966Y-62831982D01*
X120663900Y-62916796D01*
X120804941Y-62975217D01*
X120954669Y-63005000D01*
X121107331Y-63005000D01*
X121257059Y-62975217D01*
X121398100Y-62916796D01*
X121525034Y-62831982D01*
X121627016Y-62730000D01*
X126530984Y-62730000D01*
X126632966Y-62831982D01*
X126759900Y-62916796D01*
X126900941Y-62975217D01*
X127050669Y-63005000D01*
X127203331Y-63005000D01*
X127353059Y-62975217D01*
X127494100Y-62916796D01*
X127621034Y-62831982D01*
X127728982Y-62724034D01*
X127813796Y-62597100D01*
X127872217Y-62456059D01*
X127902000Y-62306331D01*
X127902000Y-62153669D01*
X127872217Y-62003941D01*
X127813796Y-61862900D01*
X127728982Y-61735966D01*
X127621034Y-61628018D01*
X127494100Y-61543204D01*
X127353059Y-61484783D01*
X127203331Y-61455000D01*
X127050669Y-61455000D01*
X126900941Y-61484783D01*
X126759900Y-61543204D01*
X126632966Y-61628018D01*
X126530984Y-61730000D01*
X121627016Y-61730000D01*
X121525034Y-61628018D01*
X121398100Y-61543204D01*
X121257059Y-61484783D01*
X121107331Y-61455000D01*
X120954669Y-61455000D01*
X120804941Y-61484783D01*
X120663900Y-61543204D01*
X120536966Y-61628018D01*
X120429018Y-61735966D01*
X120344204Y-61862900D01*
X120285783Y-62003941D01*
X120256000Y-62153669D01*
X118232775Y-62153669D01*
X117467000Y-61387895D01*
X117467000Y-60984441D01*
X117469419Y-60959881D01*
X117459765Y-60861864D01*
X117452096Y-60836583D01*
X117431175Y-60767614D01*
X117384746Y-60680752D01*
X117322264Y-60604617D01*
X117303181Y-60588956D01*
X116962894Y-60248669D01*
X119430500Y-60248669D01*
X119430500Y-60401331D01*
X119460283Y-60551059D01*
X119518704Y-60692100D01*
X119603518Y-60819034D01*
X119711466Y-60926982D01*
X119838400Y-61011796D01*
X119979441Y-61070217D01*
X120129169Y-61100000D01*
X120281831Y-61100000D01*
X120431559Y-61070217D01*
X120572600Y-61011796D01*
X120699534Y-60926982D01*
X120807482Y-60819034D01*
X120892296Y-60692100D01*
X120938666Y-60580153D01*
X130223137Y-60580153D01*
X130325119Y-60682135D01*
X130452053Y-60766949D01*
X130593094Y-60825370D01*
X130742822Y-60855153D01*
X130895484Y-60855153D01*
X131045212Y-60825370D01*
X131186253Y-60766949D01*
X131313187Y-60682135D01*
X131421135Y-60574187D01*
X131505949Y-60447253D01*
X131564370Y-60306212D01*
X131594153Y-60156484D01*
X131594153Y-60003822D01*
X131564370Y-59854094D01*
X131505949Y-59713053D01*
X131421135Y-59586119D01*
X131313187Y-59478171D01*
X131186253Y-59393357D01*
X131045212Y-59334936D01*
X130895484Y-59305153D01*
X130742822Y-59305153D01*
X130593094Y-59334936D01*
X130452053Y-59393357D01*
X130325119Y-59478171D01*
X130223137Y-59580153D01*
X120474907Y-59580153D01*
X120450347Y-59577734D01*
X120430892Y-59579650D01*
X120281831Y-59550000D01*
X120129169Y-59550000D01*
X119979441Y-59579783D01*
X119838400Y-59638204D01*
X119711466Y-59723018D01*
X119603518Y-59830966D01*
X119518704Y-59957900D01*
X119460283Y-60098941D01*
X119430500Y-60248669D01*
X116962894Y-60248669D01*
X116165118Y-59450894D01*
X116165118Y-59306668D01*
X116135335Y-59156940D01*
X116076914Y-59015899D01*
X115992100Y-58888965D01*
X115884152Y-58781017D01*
X115757218Y-58696203D01*
X115616177Y-58637782D01*
X115466449Y-58607999D01*
X115313787Y-58607999D01*
X115164059Y-58637782D01*
X115023018Y-58696203D01*
X114896084Y-58781017D01*
X114788136Y-58888965D01*
X114703322Y-59015899D01*
X114644901Y-59156940D01*
X114615118Y-59306668D01*
X114615118Y-59459330D01*
X114644901Y-59609058D01*
X114703322Y-59750099D01*
X114788136Y-59877033D01*
X114896084Y-59984981D01*
X115023018Y-60069795D01*
X115164059Y-60128216D01*
X115313787Y-60157999D01*
X115458013Y-60157999D01*
X115488349Y-60188335D01*
X115406100Y-60222404D01*
X115279166Y-60307218D01*
X115171218Y-60415166D01*
X115086404Y-60542100D01*
X115033771Y-60669166D01*
X114630500Y-60265895D01*
X114630500Y-60121669D01*
X114600717Y-59971941D01*
X114542296Y-59830900D01*
X114457482Y-59703966D01*
X114349534Y-59596018D01*
X114222600Y-59511204D01*
X114081559Y-59452783D01*
X113931831Y-59423000D01*
X113779169Y-59423000D01*
X113629441Y-59452783D01*
X113488400Y-59511204D01*
X113361466Y-59596018D01*
X113253518Y-59703966D01*
X113168704Y-59830900D01*
X113155172Y-59863569D01*
X112829429Y-59537826D01*
X112813764Y-59518738D01*
X112758450Y-59473343D01*
X112687400Y-59402293D01*
X112687400Y-59258069D01*
X112657617Y-59108341D01*
X112599196Y-58967300D01*
X112514382Y-58840366D01*
X112406434Y-58732418D01*
X112279500Y-58647604D01*
X112243262Y-58632594D01*
X112333813Y-58605126D01*
X112420675Y-58558697D01*
X112472760Y-58515952D01*
X112617876Y-58515952D01*
X112767604Y-58486169D01*
X112908645Y-58427748D01*
X113035579Y-58342934D01*
X113143527Y-58234986D01*
X113228341Y-58108052D01*
X113286762Y-57967011D01*
X113316545Y-57817283D01*
X113316545Y-57664621D01*
X113286762Y-57514893D01*
X113228341Y-57373852D01*
X113143527Y-57246918D01*
X113097278Y-57200669D01*
X135623000Y-57200669D01*
X135623000Y-57353331D01*
X135652783Y-57503059D01*
X135711204Y-57644100D01*
X135796018Y-57771034D01*
X135898001Y-57873017D01*
X135898000Y-58649440D01*
X135895581Y-58674000D01*
X135905235Y-58772017D01*
X135913908Y-58800607D01*
X135933825Y-58866266D01*
X135980254Y-58953129D01*
X136042736Y-59029264D01*
X136061824Y-59044929D01*
X136512000Y-59495106D01*
X136512000Y-59639331D01*
X136541783Y-59789059D01*
X136600204Y-59930100D01*
X136685018Y-60057034D01*
X136792966Y-60164982D01*
X136919900Y-60249796D01*
X137060941Y-60308217D01*
X137210669Y-60338000D01*
X137363331Y-60338000D01*
X137513059Y-60308217D01*
X137654100Y-60249796D01*
X137781034Y-60164982D01*
X137888982Y-60057034D01*
X137973796Y-59930100D01*
X138032217Y-59789059D01*
X138062000Y-59639331D01*
X138062000Y-59486669D01*
X138032217Y-59336941D01*
X137973796Y-59195900D01*
X137888982Y-59068966D01*
X137781034Y-58961018D01*
X137654100Y-58876204D01*
X137513059Y-58817783D01*
X137363331Y-58788000D01*
X137219106Y-58788000D01*
X136898000Y-58466895D01*
X136898000Y-57873016D01*
X136999982Y-57771034D01*
X137084796Y-57644100D01*
X137143217Y-57503059D01*
X137173000Y-57353331D01*
X137173000Y-57200669D01*
X137143217Y-57050941D01*
X137084796Y-56909900D01*
X136999982Y-56782966D01*
X136992364Y-56775348D01*
X139491000Y-56775348D01*
X139491000Y-57016652D01*
X139538076Y-57253319D01*
X139630419Y-57476255D01*
X139764481Y-57676892D01*
X139935108Y-57847519D01*
X140135745Y-57981581D01*
X140358681Y-58073924D01*
X140595348Y-58121000D01*
X140836652Y-58121000D01*
X141003536Y-58087805D01*
X140873092Y-58218248D01*
X140836652Y-58211000D01*
X140595348Y-58211000D01*
X140358681Y-58258076D01*
X140135745Y-58350419D01*
X139935108Y-58484481D01*
X139764481Y-58655108D01*
X139630419Y-58855745D01*
X139538076Y-59078681D01*
X139491000Y-59315348D01*
X139491000Y-59556652D01*
X139538076Y-59793319D01*
X139630419Y-60016255D01*
X139764481Y-60216892D01*
X139935108Y-60387519D01*
X140135745Y-60521581D01*
X140358681Y-60613924D01*
X140595348Y-60661000D01*
X140836652Y-60661000D01*
X141003536Y-60627805D01*
X140873092Y-60758248D01*
X140836652Y-60751000D01*
X140595348Y-60751000D01*
X140358681Y-60798076D01*
X140135745Y-60890419D01*
X139935108Y-61024481D01*
X139764481Y-61195108D01*
X139630419Y-61395745D01*
X139538076Y-61618681D01*
X139491000Y-61855348D01*
X139491000Y-62096652D01*
X139538076Y-62333319D01*
X139630419Y-62556255D01*
X139764481Y-62756892D01*
X139935108Y-62927519D01*
X140135745Y-63061581D01*
X140358681Y-63153924D01*
X140595348Y-63201000D01*
X140836652Y-63201000D01*
X141073319Y-63153924D01*
X141296255Y-63061581D01*
X141496892Y-62927519D01*
X141667519Y-62756892D01*
X141801581Y-62556255D01*
X141893924Y-62333319D01*
X141941000Y-62096652D01*
X141941000Y-61855348D01*
X141933752Y-61818908D01*
X144222709Y-59529951D01*
X148743000Y-59529951D01*
X148743000Y-59850049D01*
X148805448Y-60163995D01*
X148927943Y-60459726D01*
X149105780Y-60725877D01*
X149332123Y-60952220D01*
X149598274Y-61130057D01*
X149894005Y-61252552D01*
X150207951Y-61315000D01*
X150528049Y-61315000D01*
X150841995Y-61252552D01*
X151137726Y-61130057D01*
X151403877Y-60952220D01*
X151630220Y-60725877D01*
X151808057Y-60459726D01*
X151930552Y-60163995D01*
X151993000Y-59850049D01*
X151993000Y-59529951D01*
X151930552Y-59216005D01*
X151808057Y-58920274D01*
X151630220Y-58654123D01*
X151403877Y-58427780D01*
X151137726Y-58249943D01*
X150841995Y-58127448D01*
X150528049Y-58065000D01*
X150207951Y-58065000D01*
X149894005Y-58127448D01*
X149598274Y-58249943D01*
X149332123Y-58427780D01*
X149105780Y-58654123D01*
X148927943Y-58920274D01*
X148805448Y-59216005D01*
X148743000Y-59529951D01*
X144222709Y-59529951D01*
X149052120Y-54700540D01*
X149245073Y-54662159D01*
X149495307Y-54558509D01*
X149720511Y-54408032D01*
X149912032Y-54216511D01*
X150062509Y-53991307D01*
X150166159Y-53741073D01*
X150219000Y-53475426D01*
X150219000Y-53404995D01*
X151712431Y-53404995D01*
X151756461Y-53722049D01*
X151861500Y-54024421D01*
X151951291Y-54192410D01*
X152212652Y-54288914D01*
X153161566Y-53340000D01*
X152212652Y-52391086D01*
X151951291Y-52487590D01*
X151811754Y-52775673D01*
X151731101Y-53085443D01*
X151712431Y-53404995D01*
X150219000Y-53404995D01*
X150219000Y-53204574D01*
X150166159Y-52938927D01*
X150062509Y-52688693D01*
X149912032Y-52463489D01*
X149720511Y-52271968D01*
X149594000Y-52187436D01*
X149594000Y-47992564D01*
X149720511Y-47908032D01*
X149912032Y-47716511D01*
X150062509Y-47491307D01*
X150166159Y-47241073D01*
X150219000Y-46975426D01*
X150219000Y-46904995D01*
X151712431Y-46904995D01*
X151756461Y-47222049D01*
X151861500Y-47524421D01*
X151951291Y-47692410D01*
X152212652Y-47788914D01*
X153161566Y-46840000D01*
X152212652Y-45891086D01*
X151951291Y-45987590D01*
X151811754Y-46275673D01*
X151731101Y-46585443D01*
X151712431Y-46904995D01*
X150219000Y-46904995D01*
X150219000Y-46704574D01*
X150166159Y-46438927D01*
X150062509Y-46188693D01*
X149912032Y-45963489D01*
X149720511Y-45771968D01*
X149495307Y-45621491D01*
X149245073Y-45517841D01*
X148979426Y-45465000D01*
X148708574Y-45465000D01*
X148442927Y-45517841D01*
X148192693Y-45621491D01*
X147967489Y-45771968D01*
X147775968Y-45963489D01*
X147625491Y-46188693D01*
X147521841Y-46438927D01*
X147469000Y-46704574D01*
X147469000Y-46975426D01*
X147521841Y-47241073D01*
X147625491Y-47491307D01*
X147775968Y-47716511D01*
X147967489Y-47908032D01*
X148094000Y-47992564D01*
X148094001Y-52187435D01*
X147967489Y-52271968D01*
X147775968Y-52463489D01*
X147625491Y-52688693D01*
X147521841Y-52938927D01*
X147469000Y-53204574D01*
X147469000Y-53475426D01*
X147521841Y-53741073D01*
X147625491Y-53991307D01*
X147631316Y-54000024D01*
X141907805Y-59723536D01*
X141941000Y-59556652D01*
X141941000Y-59315348D01*
X141933752Y-59278908D01*
X147189287Y-54023373D01*
X147217895Y-53999895D01*
X147311619Y-53885693D01*
X147381261Y-53755401D01*
X147424147Y-53614026D01*
X147435000Y-53503835D01*
X147435000Y-53503828D01*
X147438627Y-53467000D01*
X147435000Y-53430172D01*
X147435000Y-46049013D01*
X147460000Y-45923331D01*
X147460000Y-45770669D01*
X147430217Y-45620941D01*
X147371796Y-45479900D01*
X147286982Y-45352966D01*
X147179034Y-45245018D01*
X147052100Y-45160204D01*
X146911059Y-45101783D01*
X146761331Y-45072000D01*
X146608669Y-45072000D01*
X146458941Y-45101783D01*
X146317900Y-45160204D01*
X146190966Y-45245018D01*
X146083018Y-45352966D01*
X145998204Y-45479900D01*
X145939783Y-45620941D01*
X145910000Y-45770669D01*
X145910000Y-45923331D01*
X145935001Y-46049018D01*
X145935000Y-53156340D01*
X141907805Y-57183536D01*
X141941000Y-57016652D01*
X141941000Y-56775348D01*
X141893924Y-56538681D01*
X141801581Y-56315745D01*
X141667519Y-56115108D01*
X141496892Y-55944481D01*
X141296255Y-55810419D01*
X141073319Y-55718076D01*
X140836652Y-55671000D01*
X140595348Y-55671000D01*
X140358681Y-55718076D01*
X140135745Y-55810419D01*
X139935108Y-55944481D01*
X139764481Y-56115108D01*
X139630419Y-56315745D01*
X139538076Y-56538681D01*
X139491000Y-56775348D01*
X136992364Y-56775348D01*
X136892034Y-56675018D01*
X136765100Y-56590204D01*
X136624059Y-56531783D01*
X136474331Y-56502000D01*
X136321669Y-56502000D01*
X136171941Y-56531783D01*
X136030900Y-56590204D01*
X135903966Y-56675018D01*
X135796018Y-56782966D01*
X135711204Y-56909900D01*
X135652783Y-57050941D01*
X135623000Y-57200669D01*
X113097278Y-57200669D01*
X113035579Y-57138970D01*
X112908645Y-57054156D01*
X112767604Y-56995735D01*
X112617876Y-56965952D01*
X112465214Y-56965952D01*
X112315486Y-56995735D01*
X112174445Y-57054156D01*
X112047511Y-57138970D01*
X111939563Y-57246918D01*
X111854749Y-57373852D01*
X111796328Y-57514893D01*
X111766545Y-57664621D01*
X111766545Y-57689195D01*
X111702918Y-57723205D01*
X111626783Y-57785687D01*
X111611122Y-57804770D01*
X105095993Y-64319900D01*
X105063924Y-64158681D01*
X104971581Y-63935745D01*
X104859879Y-63768572D01*
X104904619Y-63764165D01*
X104998869Y-63735575D01*
X105085731Y-63689146D01*
X105161866Y-63626664D01*
X105177531Y-63607576D01*
X108926179Y-59858929D01*
X108945262Y-59843268D01*
X109007744Y-59767133D01*
X109054173Y-59680271D01*
X109082763Y-59586021D01*
X109089998Y-59512564D01*
X109092417Y-59488004D01*
X109089998Y-59463444D01*
X109089998Y-58820518D01*
X109191980Y-58718536D01*
X109276794Y-58591602D01*
X109335215Y-58450561D01*
X109364998Y-58300833D01*
X109364998Y-58148171D01*
X109335215Y-57998443D01*
X109276794Y-57857402D01*
X109191980Y-57730468D01*
X109084032Y-57622520D01*
X108957098Y-57537706D01*
X108816057Y-57479285D01*
X108666329Y-57449502D01*
X108513667Y-57449502D01*
X108363939Y-57479285D01*
X108222898Y-57537706D01*
X108095964Y-57622520D01*
X107988016Y-57730468D01*
X107976617Y-57747528D01*
X107924264Y-57683736D01*
X107905187Y-57668080D01*
X105030681Y-54793575D01*
X105063924Y-54713319D01*
X105111000Y-54476652D01*
X105111000Y-54235348D01*
X105063924Y-53998681D01*
X104971581Y-53775745D01*
X104837519Y-53575108D01*
X104666892Y-53404481D01*
X104466255Y-53270419D01*
X104243319Y-53178076D01*
X104006652Y-53131000D01*
X103765348Y-53131000D01*
X103528681Y-53178076D01*
X103305745Y-53270419D01*
X103105108Y-53404481D01*
X102934481Y-53575108D01*
X102800419Y-53775745D01*
X102708076Y-53998681D01*
X102661000Y-54235348D01*
X102661000Y-54476652D01*
X102708076Y-54713319D01*
X102800419Y-54936255D01*
X102934481Y-55136892D01*
X103105108Y-55307519D01*
X103305745Y-55441581D01*
X103528681Y-55533924D01*
X103765348Y-55581000D01*
X104006652Y-55581000D01*
X104243319Y-55533924D01*
X104323575Y-55500681D01*
X107069000Y-58246107D01*
X107069001Y-58839983D01*
X106967018Y-58941966D01*
X106882204Y-59068900D01*
X106823783Y-59209941D01*
X106794000Y-59359669D01*
X106794000Y-59512331D01*
X106823783Y-59662059D01*
X106882204Y-59803100D01*
X106967018Y-59930034D01*
X107074966Y-60037982D01*
X107201900Y-60122796D01*
X107234569Y-60136328D01*
X105070466Y-62300431D01*
X105111000Y-62096652D01*
X105111000Y-61855348D01*
X105063924Y-61618681D01*
X104971581Y-61395745D01*
X104837519Y-61195108D01*
X104666892Y-61024481D01*
X104466255Y-60890419D01*
X104243319Y-60798076D01*
X104006652Y-60751000D01*
X103765348Y-60751000D01*
X103528681Y-60798076D01*
X103305745Y-60890419D01*
X103105108Y-61024481D01*
X102934481Y-61195108D01*
X102800419Y-61395745D01*
X102708076Y-61618681D01*
X102661000Y-61855348D01*
X102661000Y-62096652D01*
X102708076Y-62333319D01*
X102800419Y-62556255D01*
X102934481Y-62756892D01*
X103001715Y-62824126D01*
X102946471Y-62853654D01*
X102870336Y-62916136D01*
X102854680Y-62935213D01*
X97852533Y-67937361D01*
X97848329Y-67904545D01*
X97730822Y-67554394D01*
X97608494Y-67325532D01*
X97321562Y-67198872D01*
X96194434Y-68326000D01*
X97321562Y-69453128D01*
X97561287Y-69347307D01*
X97561287Y-69570654D01*
X97549966Y-69578218D01*
X97442018Y-69686166D01*
X97357204Y-69813100D01*
X97298783Y-69954141D01*
X97269000Y-70103869D01*
X97269000Y-70256531D01*
X97298783Y-70406259D01*
X97357204Y-70547300D01*
X97442018Y-70674234D01*
X97549966Y-70782182D01*
X97676900Y-70866996D01*
X97817941Y-70925417D01*
X97967669Y-70955200D01*
X98026693Y-70955200D01*
X98009983Y-70995541D01*
X97980200Y-71145269D01*
X97980200Y-71297931D01*
X98009983Y-71447659D01*
X98068404Y-71588700D01*
X98153218Y-71715634D01*
X98235485Y-71797901D01*
X98170004Y-71895900D01*
X98111583Y-72036941D01*
X98092141Y-72134683D01*
X96155410Y-70197952D01*
X96433455Y-70162329D01*
X96783606Y-70044822D01*
X97012468Y-69922494D01*
X97139128Y-69635562D01*
X96012000Y-68508434D01*
X95997858Y-68522576D01*
X95815424Y-68340142D01*
X95829566Y-68326000D01*
X94702438Y-67198872D01*
X94415506Y-67325532D01*
X94251001Y-67656216D01*
X94154170Y-68012641D01*
X94142284Y-68184827D01*
X93714000Y-67756543D01*
X93714000Y-67016438D01*
X94884872Y-67016438D01*
X96012000Y-68143566D01*
X97139128Y-67016438D01*
X97012468Y-66729506D01*
X96681784Y-66565001D01*
X96325359Y-66468170D01*
X95956894Y-66442734D01*
X95590545Y-66489671D01*
X95240394Y-66607178D01*
X95011532Y-66729506D01*
X94884872Y-67016438D01*
X93714000Y-67016438D01*
X93714000Y-62616859D01*
X94430874Y-61899987D01*
X94413869Y-61931800D01*
X94392426Y-62002487D01*
X94385186Y-62076000D01*
X94385186Y-64576000D01*
X94392426Y-64649513D01*
X94413869Y-64720200D01*
X94448691Y-64785347D01*
X94495552Y-64842448D01*
X94552653Y-64889309D01*
X94617800Y-64924131D01*
X94688487Y-64945574D01*
X94762000Y-64952814D01*
X97262000Y-64952814D01*
X97335513Y-64945574D01*
X97406200Y-64924131D01*
X97471347Y-64889309D01*
X97528448Y-64842448D01*
X97575309Y-64785347D01*
X97610131Y-64720200D01*
X97631574Y-64649513D01*
X97638814Y-64576000D01*
X97638814Y-62076000D01*
X97631574Y-62002487D01*
X97610131Y-61931800D01*
X97575309Y-61866653D01*
X97528448Y-61809552D01*
X97471347Y-61762691D01*
X97406200Y-61727869D01*
X97335513Y-61706426D01*
X97262000Y-61699186D01*
X94762000Y-61699186D01*
X94688487Y-61706426D01*
X94617800Y-61727869D01*
X94585987Y-61744873D01*
X94697061Y-61633800D01*
X98184973Y-61633800D01*
X98221800Y-61637427D01*
X98258627Y-61633800D01*
X98258635Y-61633800D01*
X98368826Y-61622947D01*
X98510201Y-61580061D01*
X98640493Y-61510419D01*
X98754695Y-61416695D01*
X98778179Y-61388080D01*
X100850911Y-59315348D01*
X102661000Y-59315348D01*
X102661000Y-59556652D01*
X102708076Y-59793319D01*
X102800419Y-60016255D01*
X102934481Y-60216892D01*
X103105108Y-60387519D01*
X103305745Y-60521581D01*
X103528681Y-60613924D01*
X103765348Y-60661000D01*
X104006652Y-60661000D01*
X104243319Y-60613924D01*
X104466255Y-60521581D01*
X104666892Y-60387519D01*
X104837519Y-60216892D01*
X104971581Y-60016255D01*
X105063924Y-59793319D01*
X105111000Y-59556652D01*
X105111000Y-59315348D01*
X105063924Y-59078681D01*
X104971581Y-58855745D01*
X104837519Y-58655108D01*
X104666892Y-58484481D01*
X104466255Y-58350419D01*
X104243319Y-58258076D01*
X104006652Y-58211000D01*
X103765348Y-58211000D01*
X103528681Y-58258076D01*
X103305745Y-58350419D01*
X103105108Y-58484481D01*
X102934481Y-58655108D01*
X102800419Y-58855745D01*
X102708076Y-59078681D01*
X102661000Y-59315348D01*
X100850911Y-59315348D01*
X101875686Y-58290574D01*
X101904295Y-58267095D01*
X101930647Y-58234986D01*
X101951295Y-58209826D01*
X101998019Y-58152893D01*
X102067661Y-58022601D01*
X102110547Y-57881226D01*
X102121400Y-57771035D01*
X102121400Y-57771028D01*
X102125027Y-57734201D01*
X102121400Y-57697373D01*
X102121400Y-56775348D01*
X102661000Y-56775348D01*
X102661000Y-57016652D01*
X102708076Y-57253319D01*
X102800419Y-57476255D01*
X102934481Y-57676892D01*
X103105108Y-57847519D01*
X103305745Y-57981581D01*
X103528681Y-58073924D01*
X103765348Y-58121000D01*
X104006652Y-58121000D01*
X104243319Y-58073924D01*
X104466255Y-57981581D01*
X104666892Y-57847519D01*
X104837519Y-57676892D01*
X104971581Y-57476255D01*
X105063924Y-57253319D01*
X105111000Y-57016652D01*
X105111000Y-56775348D01*
X105063924Y-56538681D01*
X104971581Y-56315745D01*
X104837519Y-56115108D01*
X104666892Y-55944481D01*
X104466255Y-55810419D01*
X104243319Y-55718076D01*
X104006652Y-55671000D01*
X103765348Y-55671000D01*
X103528681Y-55718076D01*
X103305745Y-55810419D01*
X103105108Y-55944481D01*
X102934481Y-56115108D01*
X102800419Y-56315745D01*
X102708076Y-56538681D01*
X102661000Y-56775348D01*
X102121400Y-56775348D01*
X102121400Y-51974259D01*
X102659186Y-51436473D01*
X102659186Y-52666000D01*
X102666426Y-52739513D01*
X102687869Y-52810200D01*
X102722691Y-52875347D01*
X102769552Y-52932448D01*
X102826653Y-52979309D01*
X102891800Y-53014131D01*
X102962487Y-53035574D01*
X103036000Y-53042814D01*
X104736000Y-53042814D01*
X104809513Y-53035574D01*
X104880200Y-53014131D01*
X104945347Y-52979309D01*
X105002448Y-52932448D01*
X105049309Y-52875347D01*
X105084131Y-52810200D01*
X105105574Y-52739513D01*
X105112814Y-52666000D01*
X105112814Y-50966000D01*
X105105574Y-50892487D01*
X105084131Y-50821800D01*
X105049309Y-50756653D01*
X105002448Y-50699552D01*
X104945347Y-50652691D01*
X104880200Y-50617869D01*
X104809513Y-50596426D01*
X104736000Y-50589186D01*
X103506474Y-50589186D01*
X104908484Y-49187176D01*
X105015034Y-49115982D01*
X105122982Y-49008034D01*
X105207796Y-48881100D01*
X105266217Y-48740059D01*
X105296000Y-48590331D01*
X105296000Y-48437669D01*
X105266217Y-48287941D01*
X105207796Y-48146900D01*
X105122982Y-48019966D01*
X105015034Y-47912018D01*
X104888100Y-47827204D01*
X104747059Y-47768783D01*
X104597331Y-47739000D01*
X104444669Y-47739000D01*
X104294941Y-47768783D01*
X104153900Y-47827204D01*
X104026966Y-47912018D01*
X103919018Y-48019966D01*
X103847824Y-48126516D01*
X100867120Y-51107221D01*
X100838505Y-51130705D01*
X100744781Y-51244908D01*
X100675139Y-51375200D01*
X100632253Y-51516575D01*
X100621400Y-51626766D01*
X100621400Y-51626773D01*
X100617773Y-51663600D01*
X100621400Y-51700427D01*
X100621401Y-57423539D01*
X97911141Y-60133800D01*
X94423224Y-60133800D01*
X94386399Y-60130173D01*
X94349574Y-60133800D01*
X94349565Y-60133800D01*
X94239374Y-60144653D01*
X94097999Y-60187539D01*
X93967707Y-60257181D01*
X93967705Y-60257182D01*
X93967706Y-60257182D01*
X93882115Y-60327424D01*
X93882108Y-60327431D01*
X93853505Y-60350905D01*
X93830030Y-60379509D01*
X92459719Y-61749822D01*
X92431105Y-61773305D01*
X92337381Y-61887508D01*
X92267739Y-62017800D01*
X92224853Y-62159175D01*
X92214000Y-62269366D01*
X92214000Y-62269373D01*
X92210373Y-62306200D01*
X90575000Y-62306200D01*
X90575000Y-55134000D01*
X92396686Y-55134000D01*
X92396686Y-57134000D01*
X92403926Y-57207513D01*
X92425369Y-57278200D01*
X92460191Y-57343347D01*
X92507052Y-57400448D01*
X92564153Y-57447309D01*
X92629300Y-57482131D01*
X92699987Y-57503574D01*
X92773500Y-57510814D01*
X94678500Y-57510814D01*
X94752013Y-57503574D01*
X94822700Y-57482131D01*
X94887847Y-57447309D01*
X94944948Y-57400448D01*
X94991809Y-57343347D01*
X95026631Y-57278200D01*
X95048074Y-57207513D01*
X95051334Y-57174410D01*
X95165376Y-57309893D01*
X95406663Y-57502932D01*
X95680974Y-57645189D01*
X95892639Y-57714180D01*
X96137000Y-57596884D01*
X96137000Y-56263000D01*
X96117000Y-56263000D01*
X96117000Y-56005000D01*
X96137000Y-56005000D01*
X96137000Y-54671116D01*
X96395000Y-54671116D01*
X96395000Y-56005000D01*
X96415000Y-56005000D01*
X96415000Y-56263000D01*
X96395000Y-56263000D01*
X96395000Y-57596884D01*
X96639361Y-57714180D01*
X96851026Y-57645189D01*
X97125337Y-57502932D01*
X97366624Y-57309893D01*
X97565614Y-57073490D01*
X97673153Y-56878191D01*
X97696884Y-56922588D01*
X97862775Y-57124726D01*
X98064913Y-57290616D01*
X98295531Y-57413884D01*
X98545766Y-57489792D01*
X98806000Y-57515423D01*
X99066235Y-57489792D01*
X99316470Y-57413884D01*
X99547088Y-57290616D01*
X99749226Y-57124726D01*
X99915116Y-56922587D01*
X100038384Y-56691969D01*
X100114292Y-56441734D01*
X100133500Y-56246713D01*
X100133500Y-56021286D01*
X100114292Y-55826265D01*
X100038384Y-55576030D01*
X99915116Y-55345412D01*
X99749226Y-55143274D01*
X99547087Y-54977384D01*
X99316469Y-54854116D01*
X99066234Y-54778208D01*
X98806000Y-54752577D01*
X98545765Y-54778208D01*
X98295530Y-54854116D01*
X98064912Y-54977384D01*
X97862774Y-55143274D01*
X97696884Y-55345413D01*
X97673153Y-55389810D01*
X97565614Y-55194510D01*
X97366624Y-54958107D01*
X97125337Y-54765068D01*
X96851026Y-54622811D01*
X96639361Y-54553820D01*
X96395000Y-54671116D01*
X96137000Y-54671116D01*
X95892639Y-54553820D01*
X95680974Y-54622811D01*
X95406663Y-54765068D01*
X95165376Y-54958107D01*
X95051334Y-55093590D01*
X95048074Y-55060487D01*
X95026631Y-54989800D01*
X94991809Y-54924653D01*
X94944948Y-54867552D01*
X94887847Y-54820691D01*
X94822700Y-54785869D01*
X94752013Y-54764426D01*
X94678500Y-54757186D01*
X92773500Y-54757186D01*
X92699987Y-54764426D01*
X92629300Y-54785869D01*
X92564153Y-54820691D01*
X92507052Y-54867552D01*
X92460191Y-54924653D01*
X92425369Y-54989800D01*
X92403926Y-55060487D01*
X92396686Y-55134000D01*
X90575000Y-55134000D01*
X90575000Y-49455982D01*
X90626204Y-49579600D01*
X90711018Y-49706534D01*
X90818966Y-49814482D01*
X90945900Y-49899296D01*
X91086941Y-49957717D01*
X91236669Y-49987500D01*
X91389331Y-49987500D01*
X91539059Y-49957717D01*
X91680100Y-49899296D01*
X91807034Y-49814482D01*
X91914982Y-49706534D01*
X91999796Y-49579600D01*
X92058217Y-49438559D01*
X92088000Y-49288831D01*
X92088000Y-49136169D01*
X92063000Y-49010487D01*
X92063000Y-43917500D01*
X110660186Y-43917500D01*
X110660186Y-45617500D01*
X110667426Y-45691013D01*
X110688869Y-45761700D01*
X110723691Y-45826847D01*
X110770552Y-45883948D01*
X110827653Y-45930809D01*
X110892800Y-45965631D01*
X110963487Y-45987074D01*
X111037000Y-45994314D01*
X111402971Y-45994314D01*
X111422825Y-46059766D01*
X111469254Y-46146629D01*
X111531736Y-46222764D01*
X111550824Y-46238429D01*
X117953580Y-52641187D01*
X117969237Y-52660265D01*
X118045372Y-52722747D01*
X118132234Y-52769176D01*
X118226484Y-52797766D01*
X118299941Y-52805001D01*
X118299942Y-52805001D01*
X118324500Y-52807420D01*
X118349058Y-52805001D01*
X119625708Y-52805001D01*
X119650783Y-52931059D01*
X119709204Y-53072100D01*
X119726510Y-53098000D01*
X119582013Y-53098000D01*
X119456331Y-53073000D01*
X119303669Y-53073000D01*
X119177987Y-53098000D01*
X113041513Y-53098000D01*
X112915831Y-53073000D01*
X112763169Y-53073000D01*
X112613441Y-53102783D01*
X112472400Y-53161204D01*
X112345466Y-53246018D01*
X112237518Y-53353966D01*
X112152704Y-53480900D01*
X112094283Y-53621941D01*
X112064500Y-53771669D01*
X112064500Y-53924331D01*
X112094283Y-54074059D01*
X112152704Y-54215100D01*
X112237518Y-54342034D01*
X112345466Y-54449982D01*
X112472400Y-54534796D01*
X112613441Y-54593217D01*
X112763169Y-54623000D01*
X112915831Y-54623000D01*
X113041513Y-54598000D01*
X119177987Y-54598000D01*
X119303669Y-54623000D01*
X119456331Y-54623000D01*
X119582013Y-54598000D01*
X120659175Y-54598000D01*
X120696002Y-54601627D01*
X120732829Y-54598000D01*
X120732837Y-54598000D01*
X120843028Y-54587147D01*
X120984403Y-54544261D01*
X121114695Y-54474619D01*
X121228897Y-54380895D01*
X121252381Y-54352280D01*
X125091287Y-50513375D01*
X125119895Y-50489897D01*
X125213619Y-50375695D01*
X125283261Y-50245403D01*
X125326147Y-50104028D01*
X125337000Y-49993837D01*
X125337000Y-49993830D01*
X125340627Y-49957003D01*
X125337000Y-49920175D01*
X125337000Y-45736704D01*
X125457397Y-45637897D01*
X125610478Y-45451366D01*
X125724228Y-45238555D01*
X125794275Y-45007642D01*
X125817927Y-44767500D01*
X125896073Y-44767500D01*
X125919725Y-45007642D01*
X125989772Y-45238555D01*
X126103522Y-45451366D01*
X126256603Y-45637897D01*
X126443134Y-45790978D01*
X126655945Y-45904728D01*
X126886858Y-45974775D01*
X127066822Y-45992500D01*
X127187178Y-45992500D01*
X127367142Y-45974775D01*
X127598055Y-45904728D01*
X127810866Y-45790978D01*
X127997397Y-45637897D01*
X128150478Y-45451366D01*
X128264228Y-45238555D01*
X128269880Y-45219924D01*
X128333115Y-45397095D01*
X128481573Y-45645226D01*
X128675586Y-45859626D01*
X128907699Y-46032056D01*
X129168991Y-46155890D01*
X129309732Y-46198578D01*
X129538000Y-46079925D01*
X129538000Y-44896500D01*
X129796000Y-44896500D01*
X129796000Y-46079925D01*
X130024268Y-46198578D01*
X130165009Y-46155890D01*
X130426301Y-46032056D01*
X130658414Y-45859626D01*
X130852427Y-45645226D01*
X131000885Y-45397095D01*
X131098083Y-45124769D01*
X130980103Y-44896500D01*
X129796000Y-44896500D01*
X129538000Y-44896500D01*
X129518000Y-44896500D01*
X129518000Y-44638500D01*
X129538000Y-44638500D01*
X129538000Y-43455075D01*
X129796000Y-43455075D01*
X129796000Y-44638500D01*
X130980103Y-44638500D01*
X131098083Y-44410231D01*
X131000885Y-44137905D01*
X130852427Y-43889774D01*
X130658414Y-43675374D01*
X130426301Y-43502944D01*
X130165009Y-43379110D01*
X130024268Y-43336422D01*
X129796000Y-43455075D01*
X129538000Y-43455075D01*
X129309732Y-43336422D01*
X129168991Y-43379110D01*
X128907699Y-43502944D01*
X128675586Y-43675374D01*
X128481573Y-43889774D01*
X128333115Y-44137905D01*
X128269880Y-44315076D01*
X128264228Y-44296445D01*
X128150478Y-44083634D01*
X127997397Y-43897103D01*
X127810866Y-43744022D01*
X127598055Y-43630272D01*
X127367142Y-43560225D01*
X127187178Y-43542500D01*
X127066822Y-43542500D01*
X126886858Y-43560225D01*
X126655945Y-43630272D01*
X126443134Y-43744022D01*
X126256603Y-43897103D01*
X126103522Y-44083634D01*
X125989772Y-44296445D01*
X125919725Y-44527358D01*
X125896073Y-44767500D01*
X125817927Y-44767500D01*
X125794275Y-44527358D01*
X125724228Y-44296445D01*
X125610478Y-44083634D01*
X125457397Y-43897103D01*
X125270866Y-43744022D01*
X125058055Y-43630272D01*
X124827142Y-43560225D01*
X124647178Y-43542500D01*
X124526822Y-43542500D01*
X124346858Y-43560225D01*
X124115945Y-43630272D01*
X123903134Y-43744022D01*
X123716603Y-43897103D01*
X123563522Y-44083634D01*
X123449772Y-44296445D01*
X123379725Y-44527358D01*
X123356073Y-44767500D01*
X123379725Y-45007642D01*
X123449772Y-45238555D01*
X123563522Y-45451366D01*
X123716603Y-45637897D01*
X123837000Y-45736704D01*
X123837000Y-46006415D01*
X123837001Y-46006425D01*
X123837000Y-49646342D01*
X121101145Y-52382198D01*
X121082796Y-52337900D01*
X120997982Y-52210966D01*
X120890034Y-52103018D01*
X120763100Y-52018204D01*
X120622059Y-51959783D01*
X120472331Y-51930000D01*
X120327215Y-51930000D01*
X120275130Y-51887255D01*
X120188268Y-51840826D01*
X120094018Y-51812236D01*
X120020561Y-51805001D01*
X119996001Y-51802582D01*
X119971441Y-51805001D01*
X118531608Y-51805001D01*
X116080496Y-49353889D01*
X116193500Y-49429396D01*
X116334541Y-49487817D01*
X116484269Y-49517600D01*
X116636931Y-49517600D01*
X116786659Y-49487817D01*
X116927700Y-49429396D01*
X117054634Y-49344582D01*
X117162582Y-49236634D01*
X117247396Y-49109700D01*
X117305817Y-48968659D01*
X117335600Y-48818931D01*
X117335600Y-48666269D01*
X117305817Y-48516541D01*
X117247396Y-48375500D01*
X117162582Y-48248566D01*
X117060600Y-48146584D01*
X117060600Y-45989208D01*
X117207142Y-45974775D01*
X117438055Y-45904728D01*
X117650866Y-45790978D01*
X117837397Y-45637897D01*
X117990478Y-45451366D01*
X118104228Y-45238555D01*
X118174275Y-45007642D01*
X118197927Y-44767500D01*
X118276073Y-44767500D01*
X118299725Y-45007642D01*
X118369772Y-45238555D01*
X118483522Y-45451366D01*
X118636603Y-45637897D01*
X118823134Y-45790978D01*
X119035945Y-45904728D01*
X119266858Y-45974775D01*
X119446822Y-45992500D01*
X119567178Y-45992500D01*
X119747142Y-45974775D01*
X119978055Y-45904728D01*
X120190866Y-45790978D01*
X120377397Y-45637897D01*
X120530478Y-45451366D01*
X120644228Y-45238555D01*
X120714275Y-45007642D01*
X120737927Y-44767500D01*
X120816073Y-44767500D01*
X120839725Y-45007642D01*
X120909772Y-45238555D01*
X121023522Y-45451366D01*
X121176603Y-45637897D01*
X121363134Y-45790978D01*
X121575945Y-45904728D01*
X121806858Y-45974775D01*
X121986822Y-45992500D01*
X122107178Y-45992500D01*
X122287142Y-45974775D01*
X122518055Y-45904728D01*
X122730866Y-45790978D01*
X122917397Y-45637897D01*
X123070478Y-45451366D01*
X123184228Y-45238555D01*
X123254275Y-45007642D01*
X123277927Y-44767500D01*
X123254275Y-44527358D01*
X123184228Y-44296445D01*
X123070478Y-44083634D01*
X122917397Y-43897103D01*
X122730866Y-43744022D01*
X122518055Y-43630272D01*
X122287142Y-43560225D01*
X122107178Y-43542500D01*
X121986822Y-43542500D01*
X121806858Y-43560225D01*
X121575945Y-43630272D01*
X121363134Y-43744022D01*
X121176603Y-43897103D01*
X121023522Y-44083634D01*
X120909772Y-44296445D01*
X120839725Y-44527358D01*
X120816073Y-44767500D01*
X120737927Y-44767500D01*
X120714275Y-44527358D01*
X120644228Y-44296445D01*
X120530478Y-44083634D01*
X120377397Y-43897103D01*
X120190866Y-43744022D01*
X119978055Y-43630272D01*
X119747142Y-43560225D01*
X119567178Y-43542500D01*
X119446822Y-43542500D01*
X119266858Y-43560225D01*
X119035945Y-43630272D01*
X118823134Y-43744022D01*
X118636603Y-43897103D01*
X118483522Y-44083634D01*
X118369772Y-44296445D01*
X118299725Y-44527358D01*
X118276073Y-44767500D01*
X118197927Y-44767500D01*
X118174275Y-44527358D01*
X118104228Y-44296445D01*
X117990478Y-44083634D01*
X117837397Y-43897103D01*
X117650866Y-43744022D01*
X117438055Y-43630272D01*
X117207142Y-43560225D01*
X117027178Y-43542500D01*
X116906822Y-43542500D01*
X116726858Y-43560225D01*
X116495945Y-43630272D01*
X116283134Y-43744022D01*
X116096603Y-43897103D01*
X115943522Y-44083634D01*
X115829772Y-44296445D01*
X115759725Y-44527358D01*
X115736073Y-44767500D01*
X115759725Y-45007642D01*
X115829772Y-45238555D01*
X115943522Y-45451366D01*
X116060601Y-45594028D01*
X116060600Y-48146584D01*
X115958618Y-48248566D01*
X115873804Y-48375500D01*
X115815383Y-48516541D01*
X115785600Y-48666269D01*
X115785600Y-48818931D01*
X115815383Y-48968659D01*
X115873804Y-49109700D01*
X115949311Y-49222705D01*
X112720919Y-45994314D01*
X112737000Y-45994314D01*
X112810513Y-45987074D01*
X112881200Y-45965631D01*
X112946347Y-45930809D01*
X113003448Y-45883948D01*
X113050309Y-45826847D01*
X113085131Y-45761700D01*
X113106574Y-45691013D01*
X113113814Y-45617500D01*
X113113814Y-44767500D01*
X113196073Y-44767500D01*
X113219725Y-45007642D01*
X113289772Y-45238555D01*
X113403522Y-45451366D01*
X113556603Y-45637897D01*
X113743134Y-45790978D01*
X113955945Y-45904728D01*
X114186858Y-45974775D01*
X114366822Y-45992500D01*
X114487178Y-45992500D01*
X114667142Y-45974775D01*
X114898055Y-45904728D01*
X115110866Y-45790978D01*
X115297397Y-45637897D01*
X115450478Y-45451366D01*
X115564228Y-45238555D01*
X115634275Y-45007642D01*
X115657927Y-44767500D01*
X115634275Y-44527358D01*
X115564228Y-44296445D01*
X115450478Y-44083634D01*
X115297397Y-43897103D01*
X115110866Y-43744022D01*
X114898055Y-43630272D01*
X114667142Y-43560225D01*
X114487178Y-43542500D01*
X114366822Y-43542500D01*
X114186858Y-43560225D01*
X113955945Y-43630272D01*
X113743134Y-43744022D01*
X113556603Y-43897103D01*
X113403522Y-44083634D01*
X113289772Y-44296445D01*
X113219725Y-44527358D01*
X113196073Y-44767500D01*
X113113814Y-44767500D01*
X113113814Y-43917500D01*
X113106574Y-43843987D01*
X113085131Y-43773300D01*
X113050309Y-43708153D01*
X113003448Y-43651052D01*
X112946347Y-43604191D01*
X112881200Y-43569369D01*
X112810513Y-43547926D01*
X112737000Y-43540686D01*
X111037000Y-43540686D01*
X110963487Y-43547926D01*
X110892800Y-43569369D01*
X110827653Y-43604191D01*
X110770552Y-43651052D01*
X110723691Y-43708153D01*
X110688869Y-43773300D01*
X110667426Y-43843987D01*
X110660186Y-43917500D01*
X92063000Y-43917500D01*
X92063000Y-42665159D01*
X93147661Y-41580500D01*
X108643984Y-41580500D01*
X108554518Y-41669966D01*
X108469704Y-41796900D01*
X108411283Y-41937941D01*
X108381500Y-42087669D01*
X108381500Y-42240331D01*
X108411283Y-42390059D01*
X108469704Y-42531100D01*
X108554518Y-42658034D01*
X108662466Y-42765982D01*
X108789400Y-42850796D01*
X108930441Y-42909217D01*
X109080169Y-42939000D01*
X109232831Y-42939000D01*
X109358513Y-42914000D01*
X130753341Y-42914000D01*
X131774500Y-43935160D01*
X131774501Y-49429663D01*
X131770873Y-49466500D01*
X131785353Y-49613525D01*
X131828239Y-49754900D01*
X131860086Y-49814482D01*
X131897882Y-49885193D01*
X131917224Y-49908761D01*
X131968124Y-49970783D01*
X131968127Y-49970786D01*
X131991606Y-49999395D01*
X132020215Y-50022874D01*
X136857626Y-54860286D01*
X136881105Y-54888895D01*
X136995307Y-54982619D01*
X137125599Y-55052261D01*
X137266973Y-55095147D01*
X137281817Y-55096609D01*
X137377165Y-55106000D01*
X137377171Y-55106000D01*
X137413999Y-55109627D01*
X137450827Y-55106000D01*
X139743840Y-55106000D01*
X139764481Y-55136892D01*
X139935108Y-55307519D01*
X140135745Y-55441581D01*
X140358681Y-55533924D01*
X140595348Y-55581000D01*
X140836652Y-55581000D01*
X141073319Y-55533924D01*
X141296255Y-55441581D01*
X141496892Y-55307519D01*
X141667519Y-55136892D01*
X141801581Y-54936255D01*
X141893924Y-54713319D01*
X141941000Y-54476652D01*
X141941000Y-54235348D01*
X141893924Y-53998681D01*
X141801581Y-53775745D01*
X141667519Y-53575108D01*
X141496892Y-53404481D01*
X141296255Y-53270419D01*
X141073319Y-53178076D01*
X140836652Y-53131000D01*
X140595348Y-53131000D01*
X140358681Y-53178076D01*
X140135745Y-53270419D01*
X139935108Y-53404481D01*
X139764481Y-53575108D01*
X139743840Y-53606000D01*
X137724660Y-53606000D01*
X133274500Y-49155841D01*
X133274500Y-49009461D01*
X133288739Y-49056400D01*
X133358381Y-49186692D01*
X133452105Y-49300895D01*
X133480720Y-49324379D01*
X136476626Y-52320286D01*
X136500105Y-52348895D01*
X136614307Y-52442619D01*
X136744599Y-52512261D01*
X136885974Y-52555147D01*
X136996165Y-52566000D01*
X136996172Y-52566000D01*
X137033000Y-52569627D01*
X137069827Y-52566000D01*
X139743840Y-52566000D01*
X139764481Y-52596892D01*
X139935108Y-52767519D01*
X140135745Y-52901581D01*
X140358681Y-52993924D01*
X140595348Y-53041000D01*
X140836652Y-53041000D01*
X141073319Y-52993924D01*
X141296255Y-52901581D01*
X141496892Y-52767519D01*
X141667519Y-52596892D01*
X141801581Y-52396255D01*
X141893924Y-52173319D01*
X141941000Y-51936652D01*
X141941000Y-51695348D01*
X141893924Y-51458681D01*
X141801581Y-51235745D01*
X141667519Y-51035108D01*
X141496892Y-50864481D01*
X141296255Y-50730419D01*
X141073319Y-50638076D01*
X140836652Y-50591000D01*
X140595348Y-50591000D01*
X140358681Y-50638076D01*
X140135745Y-50730419D01*
X139935108Y-50864481D01*
X139764481Y-51035108D01*
X139743840Y-51066000D01*
X137343660Y-51066000D01*
X134735000Y-48457341D01*
X134735000Y-42899327D01*
X134738627Y-42862500D01*
X134735000Y-42825672D01*
X134735000Y-42825665D01*
X134724147Y-42715474D01*
X134681261Y-42574099D01*
X134655940Y-42526725D01*
X150861500Y-42526725D01*
X150861500Y-42817275D01*
X150918183Y-43102242D01*
X151029372Y-43370675D01*
X151190793Y-43612258D01*
X151396242Y-43817707D01*
X151637825Y-43979128D01*
X151906258Y-44090317D01*
X152191225Y-44147000D01*
X152481775Y-44147000D01*
X152766742Y-44090317D01*
X153035175Y-43979128D01*
X153276758Y-43817707D01*
X153482207Y-43612258D01*
X153643628Y-43370675D01*
X153754817Y-43102242D01*
X153811500Y-42817275D01*
X153811500Y-42526725D01*
X153754817Y-42241758D01*
X153643628Y-41973325D01*
X153482207Y-41731742D01*
X153276758Y-41526293D01*
X153035175Y-41364872D01*
X152766742Y-41253683D01*
X152481775Y-41197000D01*
X152191225Y-41197000D01*
X151906258Y-41253683D01*
X151637825Y-41364872D01*
X151396242Y-41526293D01*
X151190793Y-41731742D01*
X151029372Y-41973325D01*
X150918183Y-42241758D01*
X150861500Y-42526725D01*
X134655940Y-42526725D01*
X134611619Y-42443807D01*
X134517895Y-42329605D01*
X134489286Y-42306126D01*
X132758159Y-40575000D01*
X154425000Y-40575000D01*
X154425000Y-45612638D01*
X154425000Y-45612638D01*
G37*
X154425000Y-45612638D02*
X154406963Y-45594601D01*
X154292913Y-45708651D01*
X154196410Y-45447291D01*
X153908327Y-45307754D01*
X153598557Y-45227101D01*
X153279005Y-45208431D01*
X152961951Y-45252461D01*
X152659579Y-45357500D01*
X152491590Y-45447291D01*
X152395086Y-45708652D01*
X153344000Y-46657566D01*
X153358142Y-46643424D01*
X153540576Y-46825858D01*
X153526434Y-46840000D01*
X153540576Y-46854142D01*
X153358142Y-47036576D01*
X153344000Y-47022434D01*
X152395086Y-47971348D01*
X152491590Y-48232709D01*
X152779673Y-48372246D01*
X153089443Y-48452899D01*
X153408995Y-48471569D01*
X153726049Y-48427539D01*
X154028421Y-48322500D01*
X154196410Y-48232709D01*
X154292913Y-47971349D01*
X154406963Y-48085399D01*
X154425000Y-48067362D01*
X154425000Y-52112638D01*
X154406963Y-52094601D01*
X154292913Y-52208651D01*
X154196410Y-51947291D01*
X153908327Y-51807754D01*
X153598557Y-51727101D01*
X153279005Y-51708431D01*
X152961951Y-51752461D01*
X152659579Y-51857500D01*
X152491590Y-51947291D01*
X152395086Y-52208652D01*
X153344000Y-53157566D01*
X153358142Y-53143424D01*
X153540576Y-53325858D01*
X153526434Y-53340000D01*
X153540576Y-53354142D01*
X153358142Y-53536576D01*
X153344000Y-53522434D01*
X152395086Y-54471348D01*
X152491590Y-54732709D01*
X152779673Y-54872246D01*
X153089443Y-54952899D01*
X153408995Y-54971569D01*
X153726049Y-54927539D01*
X154028421Y-54822500D01*
X154196410Y-54732709D01*
X154292913Y-54471349D01*
X154406963Y-54585399D01*
X154425000Y-54567362D01*
X154425001Y-84425000D01*
X90575000Y-84425000D01*
X90575000Y-81065000D01*
X93261186Y-81065000D01*
X93261186Y-82765000D01*
X93268426Y-82838513D01*
X93289869Y-82909200D01*
X93324691Y-82974347D01*
X93371552Y-83031448D01*
X93428653Y-83078309D01*
X93493800Y-83113131D01*
X93564487Y-83134574D01*
X93638000Y-83141814D01*
X95338000Y-83141814D01*
X95411513Y-83134574D01*
X95482200Y-83113131D01*
X95547347Y-83078309D01*
X95604448Y-83031448D01*
X95651309Y-82974347D01*
X95686131Y-82909200D01*
X95707574Y-82838513D01*
X95714814Y-82765000D01*
X95714814Y-81065000D01*
X95707574Y-80991487D01*
X95686131Y-80920800D01*
X95651309Y-80855653D01*
X95604448Y-80798552D01*
X95547347Y-80751691D01*
X95482200Y-80716869D01*
X95411513Y-80695426D01*
X95338000Y-80688186D01*
X93638000Y-80688186D01*
X93564487Y-80695426D01*
X93493800Y-80716869D01*
X93428653Y-80751691D01*
X93371552Y-80798552D01*
X93324691Y-80855653D01*
X93289869Y-80920800D01*
X93268426Y-80991487D01*
X93261186Y-81065000D01*
X90575000Y-81065000D01*
X90575000Y-79375000D01*
X93257073Y-79375000D01*
X93280725Y-79615142D01*
X93350772Y-79846055D01*
X93464522Y-80058866D01*
X93617603Y-80245397D01*
X93804134Y-80398478D01*
X94016945Y-80512228D01*
X94247858Y-80582275D01*
X94427822Y-80600000D01*
X94548178Y-80600000D01*
X94728142Y-80582275D01*
X94959055Y-80512228D01*
X95171866Y-80398478D01*
X95358397Y-80245397D01*
X95511478Y-80058866D01*
X95625228Y-79846055D01*
X95695275Y-79615142D01*
X95718927Y-79375000D01*
X95695275Y-79134858D01*
X95625228Y-78903945D01*
X95511478Y-78691134D01*
X95358397Y-78504603D01*
X95171866Y-78351522D01*
X94985674Y-78252000D01*
X99719186Y-78252000D01*
X99719186Y-80752000D01*
X99726426Y-80825513D01*
X99747869Y-80896200D01*
X99782691Y-80961347D01*
X99829552Y-81018448D01*
X99886653Y-81065309D01*
X99951800Y-81100131D01*
X100022487Y-81121574D01*
X100096000Y-81128814D01*
X102596000Y-81128814D01*
X102669513Y-81121574D01*
X102740200Y-81100131D01*
X102805347Y-81065309D01*
X102862448Y-81018448D01*
X102909309Y-80961347D01*
X102944131Y-80896200D01*
X102965574Y-80825513D01*
X102972814Y-80752000D01*
X102972814Y-79341951D01*
X104721000Y-79341951D01*
X104721000Y-79662049D01*
X104783448Y-79975995D01*
X104905943Y-80271726D01*
X105083780Y-80537877D01*
X105310123Y-80764220D01*
X105576274Y-80942057D01*
X105872005Y-81064552D01*
X106185951Y-81127000D01*
X106506049Y-81127000D01*
X106819995Y-81064552D01*
X107115726Y-80942057D01*
X107381877Y-80764220D01*
X107608220Y-80537877D01*
X107786057Y-80271726D01*
X107908552Y-79975995D01*
X107971000Y-79662049D01*
X107971000Y-79341951D01*
X107908552Y-79028005D01*
X107786057Y-78732274D01*
X107608220Y-78466123D01*
X107394097Y-78252000D01*
X110717386Y-78252000D01*
X110717386Y-80752000D01*
X110724626Y-80825513D01*
X110746069Y-80896200D01*
X110780891Y-80961347D01*
X110827752Y-81018448D01*
X110884853Y-81065309D01*
X110950000Y-81100131D01*
X111020687Y-81121574D01*
X111094200Y-81128814D01*
X113594200Y-81128814D01*
X113667713Y-81121574D01*
X113738400Y-81100131D01*
X113803547Y-81065309D01*
X113860648Y-81018448D01*
X113907509Y-80961347D01*
X113942331Y-80896200D01*
X113963774Y-80825513D01*
X113971014Y-80752000D01*
X113971014Y-79341951D01*
X115719200Y-79341951D01*
X115719200Y-79662049D01*
X115781648Y-79975995D01*
X115904143Y-80271726D01*
X116081980Y-80537877D01*
X116308323Y-80764220D01*
X116574474Y-80942057D01*
X116870205Y-81064552D01*
X117184151Y-81127000D01*
X117504249Y-81127000D01*
X117818195Y-81064552D01*
X118113926Y-80942057D01*
X118380077Y-80764220D01*
X118392297Y-80752000D01*
X121515176Y-80752000D01*
X121527243Y-80874521D01*
X121562981Y-80992334D01*
X121621017Y-81100911D01*
X121699120Y-81196080D01*
X121794289Y-81274183D01*
X121902866Y-81332219D01*
X122020679Y-81367957D01*
X122143200Y-81380024D01*
X123107950Y-81377000D01*
X123264200Y-81220750D01*
X123264200Y-79631000D01*
X123522200Y-79631000D01*
X123522200Y-81220750D01*
X123678450Y-81377000D01*
X124643200Y-81380024D01*
X124765721Y-81367957D01*
X124883534Y-81332219D01*
X124992111Y-81274183D01*
X125087280Y-81196080D01*
X125165383Y-81100911D01*
X125223419Y-80992334D01*
X125259157Y-80874521D01*
X125265357Y-80811562D01*
X127266072Y-80811562D01*
X127392732Y-81098494D01*
X127723416Y-81262999D01*
X128079841Y-81359830D01*
X128448306Y-81385266D01*
X128814655Y-81338329D01*
X129164806Y-81220822D01*
X129393668Y-81098494D01*
X129520328Y-80811562D01*
X128393200Y-79684434D01*
X127266072Y-80811562D01*
X125265357Y-80811562D01*
X125271224Y-80752000D01*
X125268200Y-79787250D01*
X125111950Y-79631000D01*
X123522200Y-79631000D01*
X123264200Y-79631000D01*
X121674450Y-79631000D01*
X121518200Y-79787250D01*
X121515176Y-80752000D01*
X118392297Y-80752000D01*
X118606420Y-80537877D01*
X118784257Y-80271726D01*
X118906752Y-79975995D01*
X118969200Y-79662049D01*
X118969200Y-79557106D01*
X126509934Y-79557106D01*
X126556871Y-79923455D01*
X126674378Y-80273606D01*
X126796706Y-80502468D01*
X127083638Y-80629128D01*
X128210766Y-79502000D01*
X128575634Y-79502000D01*
X129702762Y-80629128D01*
X129989694Y-80502468D01*
X130154199Y-80171784D01*
X130251030Y-79815359D01*
X130276466Y-79446894D01*
X130229529Y-79080545D01*
X130112022Y-78730394D01*
X129989694Y-78501532D01*
X129702762Y-78374872D01*
X128575634Y-79502000D01*
X128210766Y-79502000D01*
X127083638Y-78374872D01*
X126796706Y-78501532D01*
X126632201Y-78832216D01*
X126535370Y-79188641D01*
X126509934Y-79557106D01*
X118969200Y-79557106D01*
X118969200Y-79341951D01*
X118906752Y-79028005D01*
X118784257Y-78732274D01*
X118606420Y-78466123D01*
X118392297Y-78252000D01*
X121515176Y-78252000D01*
X121518200Y-79216750D01*
X121674450Y-79373000D01*
X123264200Y-79373000D01*
X123264200Y-77783250D01*
X123522200Y-77783250D01*
X123522200Y-79373000D01*
X125111950Y-79373000D01*
X125268200Y-79216750D01*
X125271224Y-78252000D01*
X125265358Y-78192438D01*
X127266072Y-78192438D01*
X128393200Y-79319566D01*
X129520328Y-78192438D01*
X129393668Y-77905506D01*
X129062984Y-77741001D01*
X128706559Y-77644170D01*
X128338094Y-77618734D01*
X127971745Y-77665671D01*
X127621594Y-77783178D01*
X127392732Y-77905506D01*
X127266072Y-78192438D01*
X125265358Y-78192438D01*
X125259157Y-78129479D01*
X125223419Y-78011666D01*
X125165383Y-77903089D01*
X125087280Y-77807920D01*
X124992111Y-77729817D01*
X124883534Y-77671781D01*
X124765721Y-77636043D01*
X124643200Y-77623976D01*
X123678450Y-77627000D01*
X123522200Y-77783250D01*
X123264200Y-77783250D01*
X123107950Y-77627000D01*
X122143200Y-77623976D01*
X122020679Y-77636043D01*
X121902866Y-77671781D01*
X121794289Y-77729817D01*
X121699120Y-77807920D01*
X121621017Y-77903089D01*
X121562981Y-78011666D01*
X121527243Y-78129479D01*
X121515176Y-78252000D01*
X118392297Y-78252000D01*
X118380077Y-78239780D01*
X118113926Y-78061943D01*
X117818195Y-77939448D01*
X117504249Y-77877000D01*
X117184151Y-77877000D01*
X116870205Y-77939448D01*
X116574474Y-78061943D01*
X116308323Y-78239780D01*
X116081980Y-78466123D01*
X115904143Y-78732274D01*
X115781648Y-79028005D01*
X115719200Y-79341951D01*
X113971014Y-79341951D01*
X113971014Y-78252000D01*
X113963774Y-78178487D01*
X113942331Y-78107800D01*
X113907509Y-78042653D01*
X113860648Y-77985552D01*
X113803547Y-77938691D01*
X113738400Y-77903869D01*
X113667713Y-77882426D01*
X113594200Y-77875186D01*
X111094200Y-77875186D01*
X111020687Y-77882426D01*
X110950000Y-77903869D01*
X110884853Y-77938691D01*
X110827752Y-77985552D01*
X110780891Y-78042653D01*
X110746069Y-78107800D01*
X110724626Y-78178487D01*
X110717386Y-78252000D01*
X107394097Y-78252000D01*
X107381877Y-78239780D01*
X107115726Y-78061943D01*
X106819995Y-77939448D01*
X106506049Y-77877000D01*
X106185951Y-77877000D01*
X105872005Y-77939448D01*
X105576274Y-78061943D01*
X105310123Y-78239780D01*
X105083780Y-78466123D01*
X104905943Y-78732274D01*
X104783448Y-79028005D01*
X104721000Y-79341951D01*
X102972814Y-79341951D01*
X102972814Y-78252000D01*
X102965574Y-78178487D01*
X102944131Y-78107800D01*
X102909309Y-78042653D01*
X102862448Y-77985552D01*
X102805347Y-77938691D01*
X102740200Y-77903869D01*
X102669513Y-77882426D01*
X102596000Y-77875186D01*
X100096000Y-77875186D01*
X100022487Y-77882426D01*
X99951800Y-77903869D01*
X99886653Y-77938691D01*
X99829552Y-77985552D01*
X99782691Y-78042653D01*
X99747869Y-78107800D01*
X99726426Y-78178487D01*
X99719186Y-78252000D01*
X94985674Y-78252000D01*
X94959055Y-78237772D01*
X94728142Y-78167725D01*
X94548178Y-78150000D01*
X94427822Y-78150000D01*
X94247858Y-78167725D01*
X94016945Y-78237772D01*
X93804134Y-78351522D01*
X93617603Y-78504603D01*
X93464522Y-78691134D01*
X93350772Y-78903945D01*
X93280725Y-79134858D01*
X93257073Y-79375000D01*
X90575000Y-79375000D01*
X90575000Y-74652268D01*
X93056922Y-74652268D01*
X93099610Y-74793009D01*
X93223444Y-75054301D01*
X93395874Y-75286414D01*
X93610274Y-75480427D01*
X93858405Y-75628885D01*
X94035576Y-75692120D01*
X94016945Y-75697772D01*
X93804134Y-75811522D01*
X93617603Y-75964603D01*
X93464522Y-76151134D01*
X93350772Y-76363945D01*
X93280725Y-76594858D01*
X93257073Y-76835000D01*
X93280725Y-77075142D01*
X93350772Y-77306055D01*
X93464522Y-77518866D01*
X93617603Y-77705397D01*
X93804134Y-77858478D01*
X94016945Y-77972228D01*
X94247858Y-78042275D01*
X94427822Y-78060000D01*
X94548178Y-78060000D01*
X94728142Y-78042275D01*
X94959055Y-77972228D01*
X95171866Y-77858478D01*
X95358397Y-77705397D01*
X95511478Y-77518866D01*
X95625228Y-77306055D01*
X95695275Y-77075142D01*
X95718927Y-76835000D01*
X95695275Y-76594858D01*
X95625228Y-76363945D01*
X95511478Y-76151134D01*
X95358397Y-75964603D01*
X95171866Y-75811522D01*
X94959055Y-75697772D01*
X94940424Y-75692120D01*
X95117595Y-75628885D01*
X95365726Y-75480427D01*
X95580126Y-75286414D01*
X95752556Y-75054301D01*
X95876390Y-74793009D01*
X95919078Y-74652268D01*
X95800425Y-74424000D01*
X94617000Y-74424000D01*
X94617000Y-74444000D01*
X94359000Y-74444000D01*
X94359000Y-74424000D01*
X93175575Y-74424000D01*
X93056922Y-74652268D01*
X90575000Y-74652268D01*
X90575000Y-73937732D01*
X93056922Y-73937732D01*
X93175575Y-74166000D01*
X94359000Y-74166000D01*
X94359000Y-72981897D01*
X94617000Y-72981897D01*
X94617000Y-74166000D01*
X95800425Y-74166000D01*
X95919078Y-73937732D01*
X95876390Y-73796991D01*
X95752556Y-73535699D01*
X95580126Y-73303586D01*
X95365726Y-73109573D01*
X95117595Y-72961115D01*
X94845269Y-72863917D01*
X94617000Y-72981897D01*
X94359000Y-72981897D01*
X94130731Y-72863917D01*
X93858405Y-72961115D01*
X93610274Y-73109573D01*
X93395874Y-73303586D01*
X93223444Y-73535699D01*
X93099610Y-73796991D01*
X93056922Y-73937732D01*
X90575000Y-73937732D01*
X90575000Y-62306200D01*
X92210373Y-62306200D01*
X92214000Y-62343027D01*
X92214001Y-68030365D01*
X92210373Y-68067202D01*
X92224853Y-68214227D01*
X92267739Y-68355602D01*
X92297432Y-68411154D01*
X92337382Y-68485895D01*
X92357509Y-68510419D01*
X92407624Y-68571485D01*
X92407627Y-68571488D01*
X92431106Y-68600097D01*
X92459715Y-68623576D01*
X98229023Y-74392885D01*
X98252503Y-74421495D01*
X98366705Y-74515219D01*
X98496997Y-74584861D01*
X98638372Y-74627747D01*
X98748563Y-74638600D01*
X98748570Y-74638600D01*
X98785397Y-74642227D01*
X98822225Y-74638600D01*
X103803941Y-74638600D01*
X104879030Y-75713691D01*
X104902505Y-75742295D01*
X104931108Y-75765769D01*
X104931115Y-75765776D01*
X104959741Y-75789268D01*
X105016707Y-75836019D01*
X105146999Y-75905661D01*
X105255326Y-75938522D01*
X105288373Y-75948547D01*
X105303217Y-75950009D01*
X105398565Y-75959400D01*
X105398571Y-75959400D01*
X105435399Y-75963027D01*
X105472227Y-75959400D01*
X113882173Y-75959400D01*
X113919000Y-75963027D01*
X113955827Y-75959400D01*
X113955835Y-75959400D01*
X114066026Y-75948547D01*
X114207401Y-75905661D01*
X114337693Y-75836019D01*
X114451895Y-75742295D01*
X114475378Y-75713681D01*
X115627286Y-74561774D01*
X115733834Y-74490582D01*
X115841782Y-74382634D01*
X115926596Y-74255700D01*
X115985017Y-74114659D01*
X116014800Y-73964931D01*
X116014800Y-73812269D01*
X116002500Y-73750433D01*
X116002500Y-70986159D01*
X116338483Y-70650176D01*
X116445034Y-70578982D01*
X116552982Y-70471034D01*
X116637796Y-70344100D01*
X116696217Y-70203059D01*
X116726000Y-70053331D01*
X116726000Y-69900669D01*
X116696217Y-69750941D01*
X116637796Y-69609900D01*
X116552982Y-69482966D01*
X116445034Y-69375018D01*
X116318100Y-69290204D01*
X116177059Y-69231783D01*
X116034650Y-69203456D01*
X117724606Y-67513500D01*
X117843034Y-67513500D01*
X117872783Y-67663059D01*
X117931204Y-67804100D01*
X118016018Y-67931034D01*
X118118000Y-68033016D01*
X118118001Y-72555981D01*
X118016018Y-72657964D01*
X117931204Y-72784898D01*
X117872783Y-72925939D01*
X117843000Y-73075667D01*
X117843000Y-73228329D01*
X117872783Y-73378057D01*
X117931204Y-73519098D01*
X118016018Y-73646032D01*
X118123966Y-73753980D01*
X118250900Y-73838794D01*
X118391941Y-73897215D01*
X118541669Y-73926998D01*
X118694331Y-73926998D01*
X118844059Y-73897215D01*
X118985100Y-73838794D01*
X119112034Y-73753980D01*
X119219982Y-73646032D01*
X119304796Y-73519098D01*
X119363217Y-73378057D01*
X119393000Y-73228329D01*
X119393000Y-73075667D01*
X119363217Y-72925939D01*
X119304796Y-72784898D01*
X119219982Y-72657964D01*
X119118000Y-72555982D01*
X119118000Y-68033016D01*
X119219982Y-67931034D01*
X119304796Y-67804100D01*
X119363217Y-67663059D01*
X119392622Y-67515230D01*
X132890579Y-81013188D01*
X132906235Y-81032265D01*
X132982370Y-81094747D01*
X133069232Y-81141176D01*
X133163482Y-81169766D01*
X133236939Y-81177001D01*
X133236948Y-81177001D01*
X133261498Y-81179419D01*
X133286048Y-81177001D01*
X134156663Y-81177001D01*
X134155186Y-81192000D01*
X134155186Y-82892000D01*
X134162426Y-82965513D01*
X134183869Y-83036200D01*
X134218691Y-83101347D01*
X134265552Y-83158448D01*
X134322653Y-83205309D01*
X134387800Y-83240131D01*
X134458487Y-83261574D01*
X134532000Y-83268814D01*
X136232000Y-83268814D01*
X136305513Y-83261574D01*
X136376200Y-83240131D01*
X136441347Y-83205309D01*
X136498448Y-83158448D01*
X136545309Y-83101347D01*
X136580131Y-83036200D01*
X136601574Y-82965513D01*
X136608814Y-82892000D01*
X136608814Y-81192000D01*
X136607337Y-81177001D01*
X137047173Y-81177001D01*
X136898522Y-81358134D01*
X136784772Y-81570945D01*
X136714725Y-81801858D01*
X136691073Y-82042000D01*
X136714725Y-82282142D01*
X136784772Y-82513055D01*
X136898522Y-82725866D01*
X137051603Y-82912397D01*
X137238134Y-83065478D01*
X137450945Y-83179228D01*
X137681858Y-83249275D01*
X137861822Y-83267000D01*
X137982178Y-83267000D01*
X138162142Y-83249275D01*
X138393055Y-83179228D01*
X138605866Y-83065478D01*
X138792397Y-82912397D01*
X138945478Y-82725866D01*
X139059228Y-82513055D01*
X139129275Y-82282142D01*
X139135964Y-82214225D01*
X150798000Y-82214225D01*
X150798000Y-82504775D01*
X150854683Y-82789742D01*
X150965872Y-83058175D01*
X151127293Y-83299758D01*
X151332742Y-83505207D01*
X151574325Y-83666628D01*
X151842758Y-83777817D01*
X152127725Y-83834500D01*
X152418275Y-83834500D01*
X152703242Y-83777817D01*
X152971675Y-83666628D01*
X153213258Y-83505207D01*
X153418707Y-83299758D01*
X153580128Y-83058175D01*
X153691317Y-82789742D01*
X153748000Y-82504775D01*
X153748000Y-82214225D01*
X153691317Y-81929258D01*
X153580128Y-81660825D01*
X153418707Y-81419242D01*
X153213258Y-81213793D01*
X152971675Y-81052372D01*
X152703242Y-80941183D01*
X152418275Y-80884500D01*
X152127725Y-80884500D01*
X151842758Y-80941183D01*
X151574325Y-81052372D01*
X151332742Y-81213793D01*
X151127293Y-81419242D01*
X150965872Y-81660825D01*
X150854683Y-81929258D01*
X150798000Y-82214225D01*
X139135964Y-82214225D01*
X139152927Y-82042000D01*
X139129275Y-81801858D01*
X139059228Y-81570945D01*
X138945478Y-81358134D01*
X138792397Y-81171603D01*
X138724930Y-81116235D01*
X138765130Y-81094747D01*
X138841265Y-81032265D01*
X138856930Y-81013177D01*
X139433187Y-80436921D01*
X139452265Y-80421265D01*
X139514747Y-80345130D01*
X139561176Y-80258268D01*
X139589766Y-80164018D01*
X139597001Y-80090561D01*
X139597001Y-80090552D01*
X139599419Y-80066002D01*
X139597001Y-80041452D01*
X139597001Y-78161550D01*
X139599419Y-78137000D01*
X139597001Y-78112450D01*
X139597001Y-78112441D01*
X139589766Y-78038984D01*
X139561176Y-77944734D01*
X139514747Y-77857872D01*
X139452265Y-77781737D01*
X139433188Y-77766081D01*
X139068755Y-77401649D01*
X139129275Y-77202142D01*
X139152927Y-76962000D01*
X139129275Y-76721858D01*
X139059228Y-76490945D01*
X138945478Y-76278134D01*
X138792397Y-76091603D01*
X138605866Y-75938522D01*
X138393055Y-75824772D01*
X138374424Y-75819120D01*
X138551595Y-75755885D01*
X138799726Y-75607427D01*
X139014126Y-75413414D01*
X139186556Y-75181301D01*
X139310390Y-74920009D01*
X139353078Y-74779268D01*
X139234425Y-74551000D01*
X138051000Y-74551000D01*
X138051000Y-74571000D01*
X137793000Y-74571000D01*
X137793000Y-74551000D01*
X135511000Y-74551000D01*
X135511000Y-74571000D01*
X135253000Y-74571000D01*
X135253000Y-74551000D01*
X134069575Y-74551000D01*
X133950922Y-74779268D01*
X133993610Y-74920009D01*
X134077492Y-75097001D01*
X131176108Y-75097001D01*
X130441107Y-74362000D01*
X148741186Y-74362000D01*
X148741186Y-76862000D01*
X148748426Y-76935513D01*
X148769869Y-77006200D01*
X148804691Y-77071347D01*
X148851552Y-77128448D01*
X148908653Y-77175309D01*
X148973800Y-77210131D01*
X149044487Y-77231574D01*
X149118000Y-77238814D01*
X151618000Y-77238814D01*
X151691513Y-77231574D01*
X151762200Y-77210131D01*
X151827347Y-77175309D01*
X151884448Y-77128448D01*
X151931309Y-77071347D01*
X151966131Y-77006200D01*
X151987574Y-76935513D01*
X151994814Y-76862000D01*
X151994814Y-74362000D01*
X151987574Y-74288487D01*
X151966131Y-74217800D01*
X151931309Y-74152653D01*
X151884448Y-74095552D01*
X151827347Y-74048691D01*
X151762200Y-74013869D01*
X151691513Y-73992426D01*
X151618000Y-73985186D01*
X149118000Y-73985186D01*
X149044487Y-73992426D01*
X148973800Y-74013869D01*
X148908653Y-74048691D01*
X148851552Y-74095552D01*
X148804691Y-74152653D01*
X148769869Y-74217800D01*
X148748426Y-74288487D01*
X148741186Y-74362000D01*
X130441107Y-74362000D01*
X130143839Y-74064732D01*
X133950922Y-74064732D01*
X134069575Y-74293000D01*
X135253000Y-74293000D01*
X135253000Y-73108897D01*
X135511000Y-73108897D01*
X135511000Y-74293000D01*
X137793000Y-74293000D01*
X137793000Y-73108897D01*
X138051000Y-73108897D01*
X138051000Y-74293000D01*
X139234425Y-74293000D01*
X139353078Y-74064732D01*
X139310390Y-73923991D01*
X139186556Y-73662699D01*
X139014126Y-73430586D01*
X138799726Y-73236573D01*
X138551595Y-73088115D01*
X138279269Y-72990917D01*
X138051000Y-73108897D01*
X137793000Y-73108897D01*
X137564731Y-72990917D01*
X137292405Y-73088115D01*
X137044274Y-73236573D01*
X136829874Y-73430586D01*
X136657444Y-73662699D01*
X136652000Y-73674186D01*
X136646556Y-73662699D01*
X136474126Y-73430586D01*
X136259726Y-73236573D01*
X136011595Y-73088115D01*
X135739269Y-72990917D01*
X135511000Y-73108897D01*
X135253000Y-73108897D01*
X135024731Y-72990917D01*
X134752405Y-73088115D01*
X134504274Y-73236573D01*
X134289874Y-73430586D01*
X134117444Y-73662699D01*
X133993610Y-73923991D01*
X133950922Y-74064732D01*
X130143839Y-74064732D01*
X126699420Y-70620313D01*
X139874121Y-70620313D01*
X139952491Y-70866348D01*
X140214994Y-70990892D01*
X140496751Y-71061830D01*
X140786933Y-71076438D01*
X141074389Y-71034154D01*
X141348073Y-70936602D01*
X141479509Y-70866348D01*
X141557879Y-70620313D01*
X140716000Y-69778434D01*
X139874121Y-70620313D01*
X126699420Y-70620313D01*
X125746040Y-69666933D01*
X139235562Y-69666933D01*
X139277846Y-69954389D01*
X139375398Y-70228073D01*
X139445652Y-70359509D01*
X139691687Y-70437879D01*
X140533566Y-69596000D01*
X139691687Y-68754121D01*
X139445652Y-68832491D01*
X139321108Y-69094994D01*
X139250170Y-69376751D01*
X139235562Y-69666933D01*
X125746040Y-69666933D01*
X121725276Y-65646169D01*
X133337000Y-65646169D01*
X133337000Y-65798831D01*
X133366783Y-65948559D01*
X133425204Y-66089600D01*
X133510018Y-66216534D01*
X133617966Y-66324482D01*
X133744900Y-66409296D01*
X133885941Y-66467717D01*
X134035669Y-66497500D01*
X134188331Y-66497500D01*
X134338059Y-66467717D01*
X134479100Y-66409296D01*
X134606034Y-66324482D01*
X134708016Y-66222500D01*
X139817089Y-66222500D01*
X139764481Y-66275108D01*
X139630419Y-66475745D01*
X139538076Y-66698681D01*
X139491000Y-66935348D01*
X139491000Y-67176652D01*
X139538076Y-67413319D01*
X139630419Y-67636255D01*
X139764481Y-67836892D01*
X139935108Y-68007519D01*
X140135745Y-68141581D01*
X140259467Y-68192828D01*
X140083927Y-68255398D01*
X139952491Y-68325652D01*
X139874121Y-68571687D01*
X140716000Y-69413566D01*
X141557879Y-68571687D01*
X141479509Y-68325652D01*
X141217006Y-68201108D01*
X141176913Y-68191014D01*
X141296255Y-68141581D01*
X141496892Y-68007519D01*
X141667519Y-67836892D01*
X141801581Y-67636255D01*
X141893924Y-67413319D01*
X141928979Y-67237084D01*
X142121001Y-67429106D01*
X142121000Y-69144598D01*
X142056602Y-68963927D01*
X141986348Y-68832491D01*
X141740313Y-68754121D01*
X140898434Y-69596000D01*
X141740313Y-70437879D01*
X141860432Y-70399617D01*
X141846000Y-70472169D01*
X141846000Y-70624831D01*
X141875783Y-70774559D01*
X141934204Y-70915600D01*
X142019018Y-71042534D01*
X142126966Y-71150482D01*
X142253900Y-71235296D01*
X142394941Y-71293717D01*
X142544669Y-71323500D01*
X142697331Y-71323500D01*
X142847059Y-71293717D01*
X142988100Y-71235296D01*
X143115034Y-71150482D01*
X143222982Y-71042534D01*
X143307796Y-70915600D01*
X143366217Y-70774559D01*
X143396000Y-70624831D01*
X143396000Y-70472169D01*
X143391979Y-70451951D01*
X148743000Y-70451951D01*
X148743000Y-70772049D01*
X148805448Y-71085995D01*
X148927943Y-71381726D01*
X149105780Y-71647877D01*
X149332123Y-71874220D01*
X149598274Y-72052057D01*
X149894005Y-72174552D01*
X150207951Y-72237000D01*
X150528049Y-72237000D01*
X150841995Y-72174552D01*
X151137726Y-72052057D01*
X151403877Y-71874220D01*
X151630220Y-71647877D01*
X151808057Y-71381726D01*
X151930552Y-71085995D01*
X151993000Y-70772049D01*
X151993000Y-70451951D01*
X151930552Y-70138005D01*
X151808057Y-69842274D01*
X151630220Y-69576123D01*
X151403877Y-69349780D01*
X151137726Y-69171943D01*
X150841995Y-69049448D01*
X150528049Y-68987000D01*
X150207951Y-68987000D01*
X149894005Y-69049448D01*
X149598274Y-69171943D01*
X149332123Y-69349780D01*
X149105780Y-69576123D01*
X148927943Y-69842274D01*
X148805448Y-70138005D01*
X148743000Y-70451951D01*
X143391979Y-70451951D01*
X143366217Y-70322441D01*
X143307796Y-70181400D01*
X143222982Y-70054466D01*
X143121000Y-69952484D01*
X143121000Y-67246547D01*
X143123418Y-67221997D01*
X143121000Y-67197447D01*
X143121000Y-67197438D01*
X143113765Y-67123981D01*
X143085175Y-67029731D01*
X143038746Y-66942869D01*
X142976264Y-66866734D01*
X142957187Y-66851078D01*
X141535259Y-65429152D01*
X141667519Y-65296892D01*
X141801581Y-65096255D01*
X141893924Y-64873319D01*
X141941000Y-64636652D01*
X141941000Y-64395348D01*
X141893924Y-64158681D01*
X141801581Y-63935745D01*
X141667519Y-63735108D01*
X141496892Y-63564481D01*
X141310594Y-63440000D01*
X148741186Y-63440000D01*
X148741186Y-65940000D01*
X148748426Y-66013513D01*
X148769869Y-66084200D01*
X148804691Y-66149347D01*
X148851552Y-66206448D01*
X148908653Y-66253309D01*
X148973800Y-66288131D01*
X149044487Y-66309574D01*
X149118000Y-66316814D01*
X151618000Y-66316814D01*
X151691513Y-66309574D01*
X151762200Y-66288131D01*
X151827347Y-66253309D01*
X151884448Y-66206448D01*
X151931309Y-66149347D01*
X151966131Y-66084200D01*
X151987574Y-66013513D01*
X151994814Y-65940000D01*
X151994814Y-63440000D01*
X151987574Y-63366487D01*
X151966131Y-63295800D01*
X151931309Y-63230653D01*
X151884448Y-63173552D01*
X151827347Y-63126691D01*
X151762200Y-63091869D01*
X151691513Y-63070426D01*
X151618000Y-63063186D01*
X149118000Y-63063186D01*
X149044487Y-63070426D01*
X148973800Y-63091869D01*
X148908653Y-63126691D01*
X148851552Y-63173552D01*
X148804691Y-63230653D01*
X148769869Y-63295800D01*
X148748426Y-63366487D01*
X148741186Y-63440000D01*
X141310594Y-63440000D01*
X141296255Y-63430419D01*
X141073319Y-63338076D01*
X140836652Y-63291000D01*
X140595348Y-63291000D01*
X140358681Y-63338076D01*
X140135745Y-63430419D01*
X139935108Y-63564481D01*
X139764481Y-63735108D01*
X139630419Y-63935745D01*
X139538076Y-64158681D01*
X139491000Y-64395348D01*
X139491000Y-64636652D01*
X139538076Y-64873319D01*
X139630419Y-65096255D01*
X139714774Y-65222500D01*
X134708016Y-65222500D01*
X134606034Y-65120518D01*
X134479100Y-65035704D01*
X134338059Y-64977283D01*
X134188331Y-64947500D01*
X134035669Y-64947500D01*
X133885941Y-64977283D01*
X133744900Y-65035704D01*
X133617966Y-65120518D01*
X133510018Y-65228466D01*
X133425204Y-65355400D01*
X133366783Y-65496441D01*
X133337000Y-65646169D01*
X121725276Y-65646169D01*
X118232775Y-62153669D01*
X120256000Y-62153669D01*
X120256000Y-62306331D01*
X120285783Y-62456059D01*
X120344204Y-62597100D01*
X120429018Y-62724034D01*
X120536966Y-62831982D01*
X120663900Y-62916796D01*
X120804941Y-62975217D01*
X120954669Y-63005000D01*
X121107331Y-63005000D01*
X121257059Y-62975217D01*
X121398100Y-62916796D01*
X121525034Y-62831982D01*
X121627016Y-62730000D01*
X126530984Y-62730000D01*
X126632966Y-62831982D01*
X126759900Y-62916796D01*
X126900941Y-62975217D01*
X127050669Y-63005000D01*
X127203331Y-63005000D01*
X127353059Y-62975217D01*
X127494100Y-62916796D01*
X127621034Y-62831982D01*
X127728982Y-62724034D01*
X127813796Y-62597100D01*
X127872217Y-62456059D01*
X127902000Y-62306331D01*
X127902000Y-62153669D01*
X127872217Y-62003941D01*
X127813796Y-61862900D01*
X127728982Y-61735966D01*
X127621034Y-61628018D01*
X127494100Y-61543204D01*
X127353059Y-61484783D01*
X127203331Y-61455000D01*
X127050669Y-61455000D01*
X126900941Y-61484783D01*
X126759900Y-61543204D01*
X126632966Y-61628018D01*
X126530984Y-61730000D01*
X121627016Y-61730000D01*
X121525034Y-61628018D01*
X121398100Y-61543204D01*
X121257059Y-61484783D01*
X121107331Y-61455000D01*
X120954669Y-61455000D01*
X120804941Y-61484783D01*
X120663900Y-61543204D01*
X120536966Y-61628018D01*
X120429018Y-61735966D01*
X120344204Y-61862900D01*
X120285783Y-62003941D01*
X120256000Y-62153669D01*
X118232775Y-62153669D01*
X117467000Y-61387895D01*
X117467000Y-60984441D01*
X117469419Y-60959881D01*
X117459765Y-60861864D01*
X117452096Y-60836583D01*
X117431175Y-60767614D01*
X117384746Y-60680752D01*
X117322264Y-60604617D01*
X117303181Y-60588956D01*
X116962894Y-60248669D01*
X119430500Y-60248669D01*
X119430500Y-60401331D01*
X119460283Y-60551059D01*
X119518704Y-60692100D01*
X119603518Y-60819034D01*
X119711466Y-60926982D01*
X119838400Y-61011796D01*
X119979441Y-61070217D01*
X120129169Y-61100000D01*
X120281831Y-61100000D01*
X120431559Y-61070217D01*
X120572600Y-61011796D01*
X120699534Y-60926982D01*
X120807482Y-60819034D01*
X120892296Y-60692100D01*
X120938666Y-60580153D01*
X130223137Y-60580153D01*
X130325119Y-60682135D01*
X130452053Y-60766949D01*
X130593094Y-60825370D01*
X130742822Y-60855153D01*
X130895484Y-60855153D01*
X131045212Y-60825370D01*
X131186253Y-60766949D01*
X131313187Y-60682135D01*
X131421135Y-60574187D01*
X131505949Y-60447253D01*
X131564370Y-60306212D01*
X131594153Y-60156484D01*
X131594153Y-60003822D01*
X131564370Y-59854094D01*
X131505949Y-59713053D01*
X131421135Y-59586119D01*
X131313187Y-59478171D01*
X131186253Y-59393357D01*
X131045212Y-59334936D01*
X130895484Y-59305153D01*
X130742822Y-59305153D01*
X130593094Y-59334936D01*
X130452053Y-59393357D01*
X130325119Y-59478171D01*
X130223137Y-59580153D01*
X120474907Y-59580153D01*
X120450347Y-59577734D01*
X120430892Y-59579650D01*
X120281831Y-59550000D01*
X120129169Y-59550000D01*
X119979441Y-59579783D01*
X119838400Y-59638204D01*
X119711466Y-59723018D01*
X119603518Y-59830966D01*
X119518704Y-59957900D01*
X119460283Y-60098941D01*
X119430500Y-60248669D01*
X116962894Y-60248669D01*
X116165118Y-59450894D01*
X116165118Y-59306668D01*
X116135335Y-59156940D01*
X116076914Y-59015899D01*
X115992100Y-58888965D01*
X115884152Y-58781017D01*
X115757218Y-58696203D01*
X115616177Y-58637782D01*
X115466449Y-58607999D01*
X115313787Y-58607999D01*
X115164059Y-58637782D01*
X115023018Y-58696203D01*
X114896084Y-58781017D01*
X114788136Y-58888965D01*
X114703322Y-59015899D01*
X114644901Y-59156940D01*
X114615118Y-59306668D01*
X114615118Y-59459330D01*
X114644901Y-59609058D01*
X114703322Y-59750099D01*
X114788136Y-59877033D01*
X114896084Y-59984981D01*
X115023018Y-60069795D01*
X115164059Y-60128216D01*
X115313787Y-60157999D01*
X115458013Y-60157999D01*
X115488349Y-60188335D01*
X115406100Y-60222404D01*
X115279166Y-60307218D01*
X115171218Y-60415166D01*
X115086404Y-60542100D01*
X115033771Y-60669166D01*
X114630500Y-60265895D01*
X114630500Y-60121669D01*
X114600717Y-59971941D01*
X114542296Y-59830900D01*
X114457482Y-59703966D01*
X114349534Y-59596018D01*
X114222600Y-59511204D01*
X114081559Y-59452783D01*
X113931831Y-59423000D01*
X113779169Y-59423000D01*
X113629441Y-59452783D01*
X113488400Y-59511204D01*
X113361466Y-59596018D01*
X113253518Y-59703966D01*
X113168704Y-59830900D01*
X113155172Y-59863569D01*
X112829429Y-59537826D01*
X112813764Y-59518738D01*
X112758450Y-59473343D01*
X112687400Y-59402293D01*
X112687400Y-59258069D01*
X112657617Y-59108341D01*
X112599196Y-58967300D01*
X112514382Y-58840366D01*
X112406434Y-58732418D01*
X112279500Y-58647604D01*
X112243262Y-58632594D01*
X112333813Y-58605126D01*
X112420675Y-58558697D01*
X112472760Y-58515952D01*
X112617876Y-58515952D01*
X112767604Y-58486169D01*
X112908645Y-58427748D01*
X113035579Y-58342934D01*
X113143527Y-58234986D01*
X113228341Y-58108052D01*
X113286762Y-57967011D01*
X113316545Y-57817283D01*
X113316545Y-57664621D01*
X113286762Y-57514893D01*
X113228341Y-57373852D01*
X113143527Y-57246918D01*
X113097278Y-57200669D01*
X135623000Y-57200669D01*
X135623000Y-57353331D01*
X135652783Y-57503059D01*
X135711204Y-57644100D01*
X135796018Y-57771034D01*
X135898001Y-57873017D01*
X135898000Y-58649440D01*
X135895581Y-58674000D01*
X135905235Y-58772017D01*
X135913908Y-58800607D01*
X135933825Y-58866266D01*
X135980254Y-58953129D01*
X136042736Y-59029264D01*
X136061824Y-59044929D01*
X136512000Y-59495106D01*
X136512000Y-59639331D01*
X136541783Y-59789059D01*
X136600204Y-59930100D01*
X136685018Y-60057034D01*
X136792966Y-60164982D01*
X136919900Y-60249796D01*
X137060941Y-60308217D01*
X137210669Y-60338000D01*
X137363331Y-60338000D01*
X137513059Y-60308217D01*
X137654100Y-60249796D01*
X137781034Y-60164982D01*
X137888982Y-60057034D01*
X137973796Y-59930100D01*
X138032217Y-59789059D01*
X138062000Y-59639331D01*
X138062000Y-59486669D01*
X138032217Y-59336941D01*
X137973796Y-59195900D01*
X137888982Y-59068966D01*
X137781034Y-58961018D01*
X137654100Y-58876204D01*
X137513059Y-58817783D01*
X137363331Y-58788000D01*
X137219106Y-58788000D01*
X136898000Y-58466895D01*
X136898000Y-57873016D01*
X136999982Y-57771034D01*
X137084796Y-57644100D01*
X137143217Y-57503059D01*
X137173000Y-57353331D01*
X137173000Y-57200669D01*
X137143217Y-57050941D01*
X137084796Y-56909900D01*
X136999982Y-56782966D01*
X136992364Y-56775348D01*
X139491000Y-56775348D01*
X139491000Y-57016652D01*
X139538076Y-57253319D01*
X139630419Y-57476255D01*
X139764481Y-57676892D01*
X139935108Y-57847519D01*
X140135745Y-57981581D01*
X140358681Y-58073924D01*
X140595348Y-58121000D01*
X140836652Y-58121000D01*
X141003536Y-58087805D01*
X140873092Y-58218248D01*
X140836652Y-58211000D01*
X140595348Y-58211000D01*
X140358681Y-58258076D01*
X140135745Y-58350419D01*
X139935108Y-58484481D01*
X139764481Y-58655108D01*
X139630419Y-58855745D01*
X139538076Y-59078681D01*
X139491000Y-59315348D01*
X139491000Y-59556652D01*
X139538076Y-59793319D01*
X139630419Y-60016255D01*
X139764481Y-60216892D01*
X139935108Y-60387519D01*
X140135745Y-60521581D01*
X140358681Y-60613924D01*
X140595348Y-60661000D01*
X140836652Y-60661000D01*
X141003536Y-60627805D01*
X140873092Y-60758248D01*
X140836652Y-60751000D01*
X140595348Y-60751000D01*
X140358681Y-60798076D01*
X140135745Y-60890419D01*
X139935108Y-61024481D01*
X139764481Y-61195108D01*
X139630419Y-61395745D01*
X139538076Y-61618681D01*
X139491000Y-61855348D01*
X139491000Y-62096652D01*
X139538076Y-62333319D01*
X139630419Y-62556255D01*
X139764481Y-62756892D01*
X139935108Y-62927519D01*
X140135745Y-63061581D01*
X140358681Y-63153924D01*
X140595348Y-63201000D01*
X140836652Y-63201000D01*
X141073319Y-63153924D01*
X141296255Y-63061581D01*
X141496892Y-62927519D01*
X141667519Y-62756892D01*
X141801581Y-62556255D01*
X141893924Y-62333319D01*
X141941000Y-62096652D01*
X141941000Y-61855348D01*
X141933752Y-61818908D01*
X144222709Y-59529951D01*
X148743000Y-59529951D01*
X148743000Y-59850049D01*
X148805448Y-60163995D01*
X148927943Y-60459726D01*
X149105780Y-60725877D01*
X149332123Y-60952220D01*
X149598274Y-61130057D01*
X149894005Y-61252552D01*
X150207951Y-61315000D01*
X150528049Y-61315000D01*
X150841995Y-61252552D01*
X151137726Y-61130057D01*
X151403877Y-60952220D01*
X151630220Y-60725877D01*
X151808057Y-60459726D01*
X151930552Y-60163995D01*
X151993000Y-59850049D01*
X151993000Y-59529951D01*
X151930552Y-59216005D01*
X151808057Y-58920274D01*
X151630220Y-58654123D01*
X151403877Y-58427780D01*
X151137726Y-58249943D01*
X150841995Y-58127448D01*
X150528049Y-58065000D01*
X150207951Y-58065000D01*
X149894005Y-58127448D01*
X149598274Y-58249943D01*
X149332123Y-58427780D01*
X149105780Y-58654123D01*
X148927943Y-58920274D01*
X148805448Y-59216005D01*
X148743000Y-59529951D01*
X144222709Y-59529951D01*
X149052120Y-54700540D01*
X149245073Y-54662159D01*
X149495307Y-54558509D01*
X149720511Y-54408032D01*
X149912032Y-54216511D01*
X150062509Y-53991307D01*
X150166159Y-53741073D01*
X150219000Y-53475426D01*
X150219000Y-53404995D01*
X151712431Y-53404995D01*
X151756461Y-53722049D01*
X151861500Y-54024421D01*
X151951291Y-54192410D01*
X152212652Y-54288914D01*
X153161566Y-53340000D01*
X152212652Y-52391086D01*
X151951291Y-52487590D01*
X151811754Y-52775673D01*
X151731101Y-53085443D01*
X151712431Y-53404995D01*
X150219000Y-53404995D01*
X150219000Y-53204574D01*
X150166159Y-52938927D01*
X150062509Y-52688693D01*
X149912032Y-52463489D01*
X149720511Y-52271968D01*
X149594000Y-52187436D01*
X149594000Y-47992564D01*
X149720511Y-47908032D01*
X149912032Y-47716511D01*
X150062509Y-47491307D01*
X150166159Y-47241073D01*
X150219000Y-46975426D01*
X150219000Y-46904995D01*
X151712431Y-46904995D01*
X151756461Y-47222049D01*
X151861500Y-47524421D01*
X151951291Y-47692410D01*
X152212652Y-47788914D01*
X153161566Y-46840000D01*
X152212652Y-45891086D01*
X151951291Y-45987590D01*
X151811754Y-46275673D01*
X151731101Y-46585443D01*
X151712431Y-46904995D01*
X150219000Y-46904995D01*
X150219000Y-46704574D01*
X150166159Y-46438927D01*
X150062509Y-46188693D01*
X149912032Y-45963489D01*
X149720511Y-45771968D01*
X149495307Y-45621491D01*
X149245073Y-45517841D01*
X148979426Y-45465000D01*
X148708574Y-45465000D01*
X148442927Y-45517841D01*
X148192693Y-45621491D01*
X147967489Y-45771968D01*
X147775968Y-45963489D01*
X147625491Y-46188693D01*
X147521841Y-46438927D01*
X147469000Y-46704574D01*
X147469000Y-46975426D01*
X147521841Y-47241073D01*
X147625491Y-47491307D01*
X147775968Y-47716511D01*
X147967489Y-47908032D01*
X148094000Y-47992564D01*
X148094001Y-52187435D01*
X147967489Y-52271968D01*
X147775968Y-52463489D01*
X147625491Y-52688693D01*
X147521841Y-52938927D01*
X147469000Y-53204574D01*
X147469000Y-53475426D01*
X147521841Y-53741073D01*
X147625491Y-53991307D01*
X147631316Y-54000024D01*
X141907805Y-59723536D01*
X141941000Y-59556652D01*
X141941000Y-59315348D01*
X141933752Y-59278908D01*
X147189287Y-54023373D01*
X147217895Y-53999895D01*
X147311619Y-53885693D01*
X147381261Y-53755401D01*
X147424147Y-53614026D01*
X147435000Y-53503835D01*
X147435000Y-53503828D01*
X147438627Y-53467000D01*
X147435000Y-53430172D01*
X147435000Y-46049013D01*
X147460000Y-45923331D01*
X147460000Y-45770669D01*
X147430217Y-45620941D01*
X147371796Y-45479900D01*
X147286982Y-45352966D01*
X147179034Y-45245018D01*
X147052100Y-45160204D01*
X146911059Y-45101783D01*
X146761331Y-45072000D01*
X146608669Y-45072000D01*
X146458941Y-45101783D01*
X146317900Y-45160204D01*
X146190966Y-45245018D01*
X146083018Y-45352966D01*
X145998204Y-45479900D01*
X145939783Y-45620941D01*
X145910000Y-45770669D01*
X145910000Y-45923331D01*
X145935001Y-46049018D01*
X145935000Y-53156340D01*
X141907805Y-57183536D01*
X141941000Y-57016652D01*
X141941000Y-56775348D01*
X141893924Y-56538681D01*
X141801581Y-56315745D01*
X141667519Y-56115108D01*
X141496892Y-55944481D01*
X141296255Y-55810419D01*
X141073319Y-55718076D01*
X140836652Y-55671000D01*
X140595348Y-55671000D01*
X140358681Y-55718076D01*
X140135745Y-55810419D01*
X139935108Y-55944481D01*
X139764481Y-56115108D01*
X139630419Y-56315745D01*
X139538076Y-56538681D01*
X139491000Y-56775348D01*
X136992364Y-56775348D01*
X136892034Y-56675018D01*
X136765100Y-56590204D01*
X136624059Y-56531783D01*
X136474331Y-56502000D01*
X136321669Y-56502000D01*
X136171941Y-56531783D01*
X136030900Y-56590204D01*
X135903966Y-56675018D01*
X135796018Y-56782966D01*
X135711204Y-56909900D01*
X135652783Y-57050941D01*
X135623000Y-57200669D01*
X113097278Y-57200669D01*
X113035579Y-57138970D01*
X112908645Y-57054156D01*
X112767604Y-56995735D01*
X112617876Y-56965952D01*
X112465214Y-56965952D01*
X112315486Y-56995735D01*
X112174445Y-57054156D01*
X112047511Y-57138970D01*
X111939563Y-57246918D01*
X111854749Y-57373852D01*
X111796328Y-57514893D01*
X111766545Y-57664621D01*
X111766545Y-57689195D01*
X111702918Y-57723205D01*
X111626783Y-57785687D01*
X111611122Y-57804770D01*
X105095993Y-64319900D01*
X105063924Y-64158681D01*
X104971581Y-63935745D01*
X104859879Y-63768572D01*
X104904619Y-63764165D01*
X104998869Y-63735575D01*
X105085731Y-63689146D01*
X105161866Y-63626664D01*
X105177531Y-63607576D01*
X108926179Y-59858929D01*
X108945262Y-59843268D01*
X109007744Y-59767133D01*
X109054173Y-59680271D01*
X109082763Y-59586021D01*
X109089998Y-59512564D01*
X109092417Y-59488004D01*
X109089998Y-59463444D01*
X109089998Y-58820518D01*
X109191980Y-58718536D01*
X109276794Y-58591602D01*
X109335215Y-58450561D01*
X109364998Y-58300833D01*
X109364998Y-58148171D01*
X109335215Y-57998443D01*
X109276794Y-57857402D01*
X109191980Y-57730468D01*
X109084032Y-57622520D01*
X108957098Y-57537706D01*
X108816057Y-57479285D01*
X108666329Y-57449502D01*
X108513667Y-57449502D01*
X108363939Y-57479285D01*
X108222898Y-57537706D01*
X108095964Y-57622520D01*
X107988016Y-57730468D01*
X107976617Y-57747528D01*
X107924264Y-57683736D01*
X107905187Y-57668080D01*
X105030681Y-54793575D01*
X105063924Y-54713319D01*
X105111000Y-54476652D01*
X105111000Y-54235348D01*
X105063924Y-53998681D01*
X104971581Y-53775745D01*
X104837519Y-53575108D01*
X104666892Y-53404481D01*
X104466255Y-53270419D01*
X104243319Y-53178076D01*
X104006652Y-53131000D01*
X103765348Y-53131000D01*
X103528681Y-53178076D01*
X103305745Y-53270419D01*
X103105108Y-53404481D01*
X102934481Y-53575108D01*
X102800419Y-53775745D01*
X102708076Y-53998681D01*
X102661000Y-54235348D01*
X102661000Y-54476652D01*
X102708076Y-54713319D01*
X102800419Y-54936255D01*
X102934481Y-55136892D01*
X103105108Y-55307519D01*
X103305745Y-55441581D01*
X103528681Y-55533924D01*
X103765348Y-55581000D01*
X104006652Y-55581000D01*
X104243319Y-55533924D01*
X104323575Y-55500681D01*
X107069000Y-58246107D01*
X107069001Y-58839983D01*
X106967018Y-58941966D01*
X106882204Y-59068900D01*
X106823783Y-59209941D01*
X106794000Y-59359669D01*
X106794000Y-59512331D01*
X106823783Y-59662059D01*
X106882204Y-59803100D01*
X106967018Y-59930034D01*
X107074966Y-60037982D01*
X107201900Y-60122796D01*
X107234569Y-60136328D01*
X105070466Y-62300431D01*
X105111000Y-62096652D01*
X105111000Y-61855348D01*
X105063924Y-61618681D01*
X104971581Y-61395745D01*
X104837519Y-61195108D01*
X104666892Y-61024481D01*
X104466255Y-60890419D01*
X104243319Y-60798076D01*
X104006652Y-60751000D01*
X103765348Y-60751000D01*
X103528681Y-60798076D01*
X103305745Y-60890419D01*
X103105108Y-61024481D01*
X102934481Y-61195108D01*
X102800419Y-61395745D01*
X102708076Y-61618681D01*
X102661000Y-61855348D01*
X102661000Y-62096652D01*
X102708076Y-62333319D01*
X102800419Y-62556255D01*
X102934481Y-62756892D01*
X103001715Y-62824126D01*
X102946471Y-62853654D01*
X102870336Y-62916136D01*
X102854680Y-62935213D01*
X97852533Y-67937361D01*
X97848329Y-67904545D01*
X97730822Y-67554394D01*
X97608494Y-67325532D01*
X97321562Y-67198872D01*
X96194434Y-68326000D01*
X97321562Y-69453128D01*
X97561287Y-69347307D01*
X97561287Y-69570654D01*
X97549966Y-69578218D01*
X97442018Y-69686166D01*
X97357204Y-69813100D01*
X97298783Y-69954141D01*
X97269000Y-70103869D01*
X97269000Y-70256531D01*
X97298783Y-70406259D01*
X97357204Y-70547300D01*
X97442018Y-70674234D01*
X97549966Y-70782182D01*
X97676900Y-70866996D01*
X97817941Y-70925417D01*
X97967669Y-70955200D01*
X98026693Y-70955200D01*
X98009983Y-70995541D01*
X97980200Y-71145269D01*
X97980200Y-71297931D01*
X98009983Y-71447659D01*
X98068404Y-71588700D01*
X98153218Y-71715634D01*
X98235485Y-71797901D01*
X98170004Y-71895900D01*
X98111583Y-72036941D01*
X98092141Y-72134683D01*
X96155410Y-70197952D01*
X96433455Y-70162329D01*
X96783606Y-70044822D01*
X97012468Y-69922494D01*
X97139128Y-69635562D01*
X96012000Y-68508434D01*
X95997858Y-68522576D01*
X95815424Y-68340142D01*
X95829566Y-68326000D01*
X94702438Y-67198872D01*
X94415506Y-67325532D01*
X94251001Y-67656216D01*
X94154170Y-68012641D01*
X94142284Y-68184827D01*
X93714000Y-67756543D01*
X93714000Y-67016438D01*
X94884872Y-67016438D01*
X96012000Y-68143566D01*
X97139128Y-67016438D01*
X97012468Y-66729506D01*
X96681784Y-66565001D01*
X96325359Y-66468170D01*
X95956894Y-66442734D01*
X95590545Y-66489671D01*
X95240394Y-66607178D01*
X95011532Y-66729506D01*
X94884872Y-67016438D01*
X93714000Y-67016438D01*
X93714000Y-62616859D01*
X94430874Y-61899987D01*
X94413869Y-61931800D01*
X94392426Y-62002487D01*
X94385186Y-62076000D01*
X94385186Y-64576000D01*
X94392426Y-64649513D01*
X94413869Y-64720200D01*
X94448691Y-64785347D01*
X94495552Y-64842448D01*
X94552653Y-64889309D01*
X94617800Y-64924131D01*
X94688487Y-64945574D01*
X94762000Y-64952814D01*
X97262000Y-64952814D01*
X97335513Y-64945574D01*
X97406200Y-64924131D01*
X97471347Y-64889309D01*
X97528448Y-64842448D01*
X97575309Y-64785347D01*
X97610131Y-64720200D01*
X97631574Y-64649513D01*
X97638814Y-64576000D01*
X97638814Y-62076000D01*
X97631574Y-62002487D01*
X97610131Y-61931800D01*
X97575309Y-61866653D01*
X97528448Y-61809552D01*
X97471347Y-61762691D01*
X97406200Y-61727869D01*
X97335513Y-61706426D01*
X97262000Y-61699186D01*
X94762000Y-61699186D01*
X94688487Y-61706426D01*
X94617800Y-61727869D01*
X94585987Y-61744873D01*
X94697061Y-61633800D01*
X98184973Y-61633800D01*
X98221800Y-61637427D01*
X98258627Y-61633800D01*
X98258635Y-61633800D01*
X98368826Y-61622947D01*
X98510201Y-61580061D01*
X98640493Y-61510419D01*
X98754695Y-61416695D01*
X98778179Y-61388080D01*
X100850911Y-59315348D01*
X102661000Y-59315348D01*
X102661000Y-59556652D01*
X102708076Y-59793319D01*
X102800419Y-60016255D01*
X102934481Y-60216892D01*
X103105108Y-60387519D01*
X103305745Y-60521581D01*
X103528681Y-60613924D01*
X103765348Y-60661000D01*
X104006652Y-60661000D01*
X104243319Y-60613924D01*
X104466255Y-60521581D01*
X104666892Y-60387519D01*
X104837519Y-60216892D01*
X104971581Y-60016255D01*
X105063924Y-59793319D01*
X105111000Y-59556652D01*
X105111000Y-59315348D01*
X105063924Y-59078681D01*
X104971581Y-58855745D01*
X104837519Y-58655108D01*
X104666892Y-58484481D01*
X104466255Y-58350419D01*
X104243319Y-58258076D01*
X104006652Y-58211000D01*
X103765348Y-58211000D01*
X103528681Y-58258076D01*
X103305745Y-58350419D01*
X103105108Y-58484481D01*
X102934481Y-58655108D01*
X102800419Y-58855745D01*
X102708076Y-59078681D01*
X102661000Y-59315348D01*
X100850911Y-59315348D01*
X101875686Y-58290574D01*
X101904295Y-58267095D01*
X101930647Y-58234986D01*
X101951295Y-58209826D01*
X101998019Y-58152893D01*
X102067661Y-58022601D01*
X102110547Y-57881226D01*
X102121400Y-57771035D01*
X102121400Y-57771028D01*
X102125027Y-57734201D01*
X102121400Y-57697373D01*
X102121400Y-56775348D01*
X102661000Y-56775348D01*
X102661000Y-57016652D01*
X102708076Y-57253319D01*
X102800419Y-57476255D01*
X102934481Y-57676892D01*
X103105108Y-57847519D01*
X103305745Y-57981581D01*
X103528681Y-58073924D01*
X103765348Y-58121000D01*
X104006652Y-58121000D01*
X104243319Y-58073924D01*
X104466255Y-57981581D01*
X104666892Y-57847519D01*
X104837519Y-57676892D01*
X104971581Y-57476255D01*
X105063924Y-57253319D01*
X105111000Y-57016652D01*
X105111000Y-56775348D01*
X105063924Y-56538681D01*
X104971581Y-56315745D01*
X104837519Y-56115108D01*
X104666892Y-55944481D01*
X104466255Y-55810419D01*
X104243319Y-55718076D01*
X104006652Y-55671000D01*
X103765348Y-55671000D01*
X103528681Y-55718076D01*
X103305745Y-55810419D01*
X103105108Y-55944481D01*
X102934481Y-56115108D01*
X102800419Y-56315745D01*
X102708076Y-56538681D01*
X102661000Y-56775348D01*
X102121400Y-56775348D01*
X102121400Y-51974259D01*
X102659186Y-51436473D01*
X102659186Y-52666000D01*
X102666426Y-52739513D01*
X102687869Y-52810200D01*
X102722691Y-52875347D01*
X102769552Y-52932448D01*
X102826653Y-52979309D01*
X102891800Y-53014131D01*
X102962487Y-53035574D01*
X103036000Y-53042814D01*
X104736000Y-53042814D01*
X104809513Y-53035574D01*
X104880200Y-53014131D01*
X104945347Y-52979309D01*
X105002448Y-52932448D01*
X105049309Y-52875347D01*
X105084131Y-52810200D01*
X105105574Y-52739513D01*
X105112814Y-52666000D01*
X105112814Y-50966000D01*
X105105574Y-50892487D01*
X105084131Y-50821800D01*
X105049309Y-50756653D01*
X105002448Y-50699552D01*
X104945347Y-50652691D01*
X104880200Y-50617869D01*
X104809513Y-50596426D01*
X104736000Y-50589186D01*
X103506474Y-50589186D01*
X104908484Y-49187176D01*
X105015034Y-49115982D01*
X105122982Y-49008034D01*
X105207796Y-48881100D01*
X105266217Y-48740059D01*
X105296000Y-48590331D01*
X105296000Y-48437669D01*
X105266217Y-48287941D01*
X105207796Y-48146900D01*
X105122982Y-48019966D01*
X105015034Y-47912018D01*
X104888100Y-47827204D01*
X104747059Y-47768783D01*
X104597331Y-47739000D01*
X104444669Y-47739000D01*
X104294941Y-47768783D01*
X104153900Y-47827204D01*
X104026966Y-47912018D01*
X103919018Y-48019966D01*
X103847824Y-48126516D01*
X100867120Y-51107221D01*
X100838505Y-51130705D01*
X100744781Y-51244908D01*
X100675139Y-51375200D01*
X100632253Y-51516575D01*
X100621400Y-51626766D01*
X100621400Y-51626773D01*
X100617773Y-51663600D01*
X100621400Y-51700427D01*
X100621401Y-57423539D01*
X97911141Y-60133800D01*
X94423224Y-60133800D01*
X94386399Y-60130173D01*
X94349574Y-60133800D01*
X94349565Y-60133800D01*
X94239374Y-60144653D01*
X94097999Y-60187539D01*
X93967707Y-60257181D01*
X93967705Y-60257182D01*
X93967706Y-60257182D01*
X93882115Y-60327424D01*
X93882108Y-60327431D01*
X93853505Y-60350905D01*
X93830030Y-60379509D01*
X92459719Y-61749822D01*
X92431105Y-61773305D01*
X92337381Y-61887508D01*
X92267739Y-62017800D01*
X92224853Y-62159175D01*
X92214000Y-62269366D01*
X92214000Y-62269373D01*
X92210373Y-62306200D01*
X90575000Y-62306200D01*
X90575000Y-55134000D01*
X92396686Y-55134000D01*
X92396686Y-57134000D01*
X92403926Y-57207513D01*
X92425369Y-57278200D01*
X92460191Y-57343347D01*
X92507052Y-57400448D01*
X92564153Y-57447309D01*
X92629300Y-57482131D01*
X92699987Y-57503574D01*
X92773500Y-57510814D01*
X94678500Y-57510814D01*
X94752013Y-57503574D01*
X94822700Y-57482131D01*
X94887847Y-57447309D01*
X94944948Y-57400448D01*
X94991809Y-57343347D01*
X95026631Y-57278200D01*
X95048074Y-57207513D01*
X95051334Y-57174410D01*
X95165376Y-57309893D01*
X95406663Y-57502932D01*
X95680974Y-57645189D01*
X95892639Y-57714180D01*
X96137000Y-57596884D01*
X96137000Y-56263000D01*
X96117000Y-56263000D01*
X96117000Y-56005000D01*
X96137000Y-56005000D01*
X96137000Y-54671116D01*
X96395000Y-54671116D01*
X96395000Y-56005000D01*
X96415000Y-56005000D01*
X96415000Y-56263000D01*
X96395000Y-56263000D01*
X96395000Y-57596884D01*
X96639361Y-57714180D01*
X96851026Y-57645189D01*
X97125337Y-57502932D01*
X97366624Y-57309893D01*
X97565614Y-57073490D01*
X97673153Y-56878191D01*
X97696884Y-56922588D01*
X97862775Y-57124726D01*
X98064913Y-57290616D01*
X98295531Y-57413884D01*
X98545766Y-57489792D01*
X98806000Y-57515423D01*
X99066235Y-57489792D01*
X99316470Y-57413884D01*
X99547088Y-57290616D01*
X99749226Y-57124726D01*
X99915116Y-56922587D01*
X100038384Y-56691969D01*
X100114292Y-56441734D01*
X100133500Y-56246713D01*
X100133500Y-56021286D01*
X100114292Y-55826265D01*
X100038384Y-55576030D01*
X99915116Y-55345412D01*
X99749226Y-55143274D01*
X99547087Y-54977384D01*
X99316469Y-54854116D01*
X99066234Y-54778208D01*
X98806000Y-54752577D01*
X98545765Y-54778208D01*
X98295530Y-54854116D01*
X98064912Y-54977384D01*
X97862774Y-55143274D01*
X97696884Y-55345413D01*
X97673153Y-55389810D01*
X97565614Y-55194510D01*
X97366624Y-54958107D01*
X97125337Y-54765068D01*
X96851026Y-54622811D01*
X96639361Y-54553820D01*
X96395000Y-54671116D01*
X96137000Y-54671116D01*
X95892639Y-54553820D01*
X95680974Y-54622811D01*
X95406663Y-54765068D01*
X95165376Y-54958107D01*
X95051334Y-55093590D01*
X95048074Y-55060487D01*
X95026631Y-54989800D01*
X94991809Y-54924653D01*
X94944948Y-54867552D01*
X94887847Y-54820691D01*
X94822700Y-54785869D01*
X94752013Y-54764426D01*
X94678500Y-54757186D01*
X92773500Y-54757186D01*
X92699987Y-54764426D01*
X92629300Y-54785869D01*
X92564153Y-54820691D01*
X92507052Y-54867552D01*
X92460191Y-54924653D01*
X92425369Y-54989800D01*
X92403926Y-55060487D01*
X92396686Y-55134000D01*
X90575000Y-55134000D01*
X90575000Y-49455982D01*
X90626204Y-49579600D01*
X90711018Y-49706534D01*
X90818966Y-49814482D01*
X90945900Y-49899296D01*
X91086941Y-49957717D01*
X91236669Y-49987500D01*
X91389331Y-49987500D01*
X91539059Y-49957717D01*
X91680100Y-49899296D01*
X91807034Y-49814482D01*
X91914982Y-49706534D01*
X91999796Y-49579600D01*
X92058217Y-49438559D01*
X92088000Y-49288831D01*
X92088000Y-49136169D01*
X92063000Y-49010487D01*
X92063000Y-43917500D01*
X110660186Y-43917500D01*
X110660186Y-45617500D01*
X110667426Y-45691013D01*
X110688869Y-45761700D01*
X110723691Y-45826847D01*
X110770552Y-45883948D01*
X110827653Y-45930809D01*
X110892800Y-45965631D01*
X110963487Y-45987074D01*
X111037000Y-45994314D01*
X111402971Y-45994314D01*
X111422825Y-46059766D01*
X111469254Y-46146629D01*
X111531736Y-46222764D01*
X111550824Y-46238429D01*
X117953580Y-52641187D01*
X117969237Y-52660265D01*
X118045372Y-52722747D01*
X118132234Y-52769176D01*
X118226484Y-52797766D01*
X118299941Y-52805001D01*
X118299942Y-52805001D01*
X118324500Y-52807420D01*
X118349058Y-52805001D01*
X119625708Y-52805001D01*
X119650783Y-52931059D01*
X119709204Y-53072100D01*
X119726510Y-53098000D01*
X119582013Y-53098000D01*
X119456331Y-53073000D01*
X119303669Y-53073000D01*
X119177987Y-53098000D01*
X113041513Y-53098000D01*
X112915831Y-53073000D01*
X112763169Y-53073000D01*
X112613441Y-53102783D01*
X112472400Y-53161204D01*
X112345466Y-53246018D01*
X112237518Y-53353966D01*
X112152704Y-53480900D01*
X112094283Y-53621941D01*
X112064500Y-53771669D01*
X112064500Y-53924331D01*
X112094283Y-54074059D01*
X112152704Y-54215100D01*
X112237518Y-54342034D01*
X112345466Y-54449982D01*
X112472400Y-54534796D01*
X112613441Y-54593217D01*
X112763169Y-54623000D01*
X112915831Y-54623000D01*
X113041513Y-54598000D01*
X119177987Y-54598000D01*
X119303669Y-54623000D01*
X119456331Y-54623000D01*
X119582013Y-54598000D01*
X120659175Y-54598000D01*
X120696002Y-54601627D01*
X120732829Y-54598000D01*
X120732837Y-54598000D01*
X120843028Y-54587147D01*
X120984403Y-54544261D01*
X121114695Y-54474619D01*
X121228897Y-54380895D01*
X121252381Y-54352280D01*
X125091287Y-50513375D01*
X125119895Y-50489897D01*
X125213619Y-50375695D01*
X125283261Y-50245403D01*
X125326147Y-50104028D01*
X125337000Y-49993837D01*
X125337000Y-49993830D01*
X125340627Y-49957003D01*
X125337000Y-49920175D01*
X125337000Y-45736704D01*
X125457397Y-45637897D01*
X125610478Y-45451366D01*
X125724228Y-45238555D01*
X125794275Y-45007642D01*
X125817927Y-44767500D01*
X125896073Y-44767500D01*
X125919725Y-45007642D01*
X125989772Y-45238555D01*
X126103522Y-45451366D01*
X126256603Y-45637897D01*
X126443134Y-45790978D01*
X126655945Y-45904728D01*
X126886858Y-45974775D01*
X127066822Y-45992500D01*
X127187178Y-45992500D01*
X127367142Y-45974775D01*
X127598055Y-45904728D01*
X127810866Y-45790978D01*
X127997397Y-45637897D01*
X128150478Y-45451366D01*
X128264228Y-45238555D01*
X128269880Y-45219924D01*
X128333115Y-45397095D01*
X128481573Y-45645226D01*
X128675586Y-45859626D01*
X128907699Y-46032056D01*
X129168991Y-46155890D01*
X129309732Y-46198578D01*
X129538000Y-46079925D01*
X129538000Y-44896500D01*
X129796000Y-44896500D01*
X129796000Y-46079925D01*
X130024268Y-46198578D01*
X130165009Y-46155890D01*
X130426301Y-46032056D01*
X130658414Y-45859626D01*
X130852427Y-45645226D01*
X131000885Y-45397095D01*
X131098083Y-45124769D01*
X130980103Y-44896500D01*
X129796000Y-44896500D01*
X129538000Y-44896500D01*
X129518000Y-44896500D01*
X129518000Y-44638500D01*
X129538000Y-44638500D01*
X129538000Y-43455075D01*
X129796000Y-43455075D01*
X129796000Y-44638500D01*
X130980103Y-44638500D01*
X131098083Y-44410231D01*
X131000885Y-44137905D01*
X130852427Y-43889774D01*
X130658414Y-43675374D01*
X130426301Y-43502944D01*
X130165009Y-43379110D01*
X130024268Y-43336422D01*
X129796000Y-43455075D01*
X129538000Y-43455075D01*
X129309732Y-43336422D01*
X129168991Y-43379110D01*
X128907699Y-43502944D01*
X128675586Y-43675374D01*
X128481573Y-43889774D01*
X128333115Y-44137905D01*
X128269880Y-44315076D01*
X128264228Y-44296445D01*
X128150478Y-44083634D01*
X127997397Y-43897103D01*
X127810866Y-43744022D01*
X127598055Y-43630272D01*
X127367142Y-43560225D01*
X127187178Y-43542500D01*
X127066822Y-43542500D01*
X126886858Y-43560225D01*
X126655945Y-43630272D01*
X126443134Y-43744022D01*
X126256603Y-43897103D01*
X126103522Y-44083634D01*
X125989772Y-44296445D01*
X125919725Y-44527358D01*
X125896073Y-44767500D01*
X125817927Y-44767500D01*
X125794275Y-44527358D01*
X125724228Y-44296445D01*
X125610478Y-44083634D01*
X125457397Y-43897103D01*
X125270866Y-43744022D01*
X125058055Y-43630272D01*
X124827142Y-43560225D01*
X124647178Y-43542500D01*
X124526822Y-43542500D01*
X124346858Y-43560225D01*
X124115945Y-43630272D01*
X123903134Y-43744022D01*
X123716603Y-43897103D01*
X123563522Y-44083634D01*
X123449772Y-44296445D01*
X123379725Y-44527358D01*
X123356073Y-44767500D01*
X123379725Y-45007642D01*
X123449772Y-45238555D01*
X123563522Y-45451366D01*
X123716603Y-45637897D01*
X123837000Y-45736704D01*
X123837000Y-46006415D01*
X123837001Y-46006425D01*
X123837000Y-49646342D01*
X121101145Y-52382198D01*
X121082796Y-52337900D01*
X120997982Y-52210966D01*
X120890034Y-52103018D01*
X120763100Y-52018204D01*
X120622059Y-51959783D01*
X120472331Y-51930000D01*
X120327215Y-51930000D01*
X120275130Y-51887255D01*
X120188268Y-51840826D01*
X120094018Y-51812236D01*
X120020561Y-51805001D01*
X119996001Y-51802582D01*
X119971441Y-51805001D01*
X118531608Y-51805001D01*
X116080496Y-49353889D01*
X116193500Y-49429396D01*
X116334541Y-49487817D01*
X116484269Y-49517600D01*
X116636931Y-49517600D01*
X116786659Y-49487817D01*
X116927700Y-49429396D01*
X117054634Y-49344582D01*
X117162582Y-49236634D01*
X117247396Y-49109700D01*
X117305817Y-48968659D01*
X117335600Y-48818931D01*
X117335600Y-48666269D01*
X117305817Y-48516541D01*
X117247396Y-48375500D01*
X117162582Y-48248566D01*
X117060600Y-48146584D01*
X117060600Y-45989208D01*
X117207142Y-45974775D01*
X117438055Y-45904728D01*
X117650866Y-45790978D01*
X117837397Y-45637897D01*
X117990478Y-45451366D01*
X118104228Y-45238555D01*
X118174275Y-45007642D01*
X118197927Y-44767500D01*
X118276073Y-44767500D01*
X118299725Y-45007642D01*
X118369772Y-45238555D01*
X118483522Y-45451366D01*
X118636603Y-45637897D01*
X118823134Y-45790978D01*
X119035945Y-45904728D01*
X119266858Y-45974775D01*
X119446822Y-45992500D01*
X119567178Y-45992500D01*
X119747142Y-45974775D01*
X119978055Y-45904728D01*
X120190866Y-45790978D01*
X120377397Y-45637897D01*
X120530478Y-45451366D01*
X120644228Y-45238555D01*
X120714275Y-45007642D01*
X120737927Y-44767500D01*
X120816073Y-44767500D01*
X120839725Y-45007642D01*
X120909772Y-45238555D01*
X121023522Y-45451366D01*
X121176603Y-45637897D01*
X121363134Y-45790978D01*
X121575945Y-45904728D01*
X121806858Y-45974775D01*
X121986822Y-45992500D01*
X122107178Y-45992500D01*
X122287142Y-45974775D01*
X122518055Y-45904728D01*
X122730866Y-45790978D01*
X122917397Y-45637897D01*
X123070478Y-45451366D01*
X123184228Y-45238555D01*
X123254275Y-45007642D01*
X123277927Y-44767500D01*
X123254275Y-44527358D01*
X123184228Y-44296445D01*
X123070478Y-44083634D01*
X122917397Y-43897103D01*
X122730866Y-43744022D01*
X122518055Y-43630272D01*
X122287142Y-43560225D01*
X122107178Y-43542500D01*
X121986822Y-43542500D01*
X121806858Y-43560225D01*
X121575945Y-43630272D01*
X121363134Y-43744022D01*
X121176603Y-43897103D01*
X121023522Y-44083634D01*
X120909772Y-44296445D01*
X120839725Y-44527358D01*
X120816073Y-44767500D01*
X120737927Y-44767500D01*
X120714275Y-44527358D01*
X120644228Y-44296445D01*
X120530478Y-44083634D01*
X120377397Y-43897103D01*
X120190866Y-43744022D01*
X119978055Y-43630272D01*
X119747142Y-43560225D01*
X119567178Y-43542500D01*
X119446822Y-43542500D01*
X119266858Y-43560225D01*
X119035945Y-43630272D01*
X118823134Y-43744022D01*
X118636603Y-43897103D01*
X118483522Y-44083634D01*
X118369772Y-44296445D01*
X118299725Y-44527358D01*
X118276073Y-44767500D01*
X118197927Y-44767500D01*
X118174275Y-44527358D01*
X118104228Y-44296445D01*
X117990478Y-44083634D01*
X117837397Y-43897103D01*
X117650866Y-43744022D01*
X117438055Y-43630272D01*
X117207142Y-43560225D01*
X117027178Y-43542500D01*
X116906822Y-43542500D01*
X116726858Y-43560225D01*
X116495945Y-43630272D01*
X116283134Y-43744022D01*
X116096603Y-43897103D01*
X115943522Y-44083634D01*
X115829772Y-44296445D01*
X115759725Y-44527358D01*
X115736073Y-44767500D01*
X115759725Y-45007642D01*
X115829772Y-45238555D01*
X115943522Y-45451366D01*
X116060601Y-45594028D01*
X116060600Y-48146584D01*
X115958618Y-48248566D01*
X115873804Y-48375500D01*
X115815383Y-48516541D01*
X115785600Y-48666269D01*
X115785600Y-48818931D01*
X115815383Y-48968659D01*
X115873804Y-49109700D01*
X115949311Y-49222705D01*
X112720919Y-45994314D01*
X112737000Y-45994314D01*
X112810513Y-45987074D01*
X112881200Y-45965631D01*
X112946347Y-45930809D01*
X113003448Y-45883948D01*
X113050309Y-45826847D01*
X113085131Y-45761700D01*
X113106574Y-45691013D01*
X113113814Y-45617500D01*
X113113814Y-44767500D01*
X113196073Y-44767500D01*
X113219725Y-45007642D01*
X113289772Y-45238555D01*
X113403522Y-45451366D01*
X113556603Y-45637897D01*
X113743134Y-45790978D01*
X113955945Y-45904728D01*
X114186858Y-45974775D01*
X114366822Y-45992500D01*
X114487178Y-45992500D01*
X114667142Y-45974775D01*
X114898055Y-45904728D01*
X115110866Y-45790978D01*
X115297397Y-45637897D01*
X115450478Y-45451366D01*
X115564228Y-45238555D01*
X115634275Y-45007642D01*
X115657927Y-44767500D01*
X115634275Y-44527358D01*
X115564228Y-44296445D01*
X115450478Y-44083634D01*
X115297397Y-43897103D01*
X115110866Y-43744022D01*
X114898055Y-43630272D01*
X114667142Y-43560225D01*
X114487178Y-43542500D01*
X114366822Y-43542500D01*
X114186858Y-43560225D01*
X113955945Y-43630272D01*
X113743134Y-43744022D01*
X113556603Y-43897103D01*
X113403522Y-44083634D01*
X113289772Y-44296445D01*
X113219725Y-44527358D01*
X113196073Y-44767500D01*
X113113814Y-44767500D01*
X113113814Y-43917500D01*
X113106574Y-43843987D01*
X113085131Y-43773300D01*
X113050309Y-43708153D01*
X113003448Y-43651052D01*
X112946347Y-43604191D01*
X112881200Y-43569369D01*
X112810513Y-43547926D01*
X112737000Y-43540686D01*
X111037000Y-43540686D01*
X110963487Y-43547926D01*
X110892800Y-43569369D01*
X110827653Y-43604191D01*
X110770552Y-43651052D01*
X110723691Y-43708153D01*
X110688869Y-43773300D01*
X110667426Y-43843987D01*
X110660186Y-43917500D01*
X92063000Y-43917500D01*
X92063000Y-42665159D01*
X93147661Y-41580500D01*
X108643984Y-41580500D01*
X108554518Y-41669966D01*
X108469704Y-41796900D01*
X108411283Y-41937941D01*
X108381500Y-42087669D01*
X108381500Y-42240331D01*
X108411283Y-42390059D01*
X108469704Y-42531100D01*
X108554518Y-42658034D01*
X108662466Y-42765982D01*
X108789400Y-42850796D01*
X108930441Y-42909217D01*
X109080169Y-42939000D01*
X109232831Y-42939000D01*
X109358513Y-42914000D01*
X130753341Y-42914000D01*
X131774500Y-43935160D01*
X131774501Y-49429663D01*
X131770873Y-49466500D01*
X131785353Y-49613525D01*
X131828239Y-49754900D01*
X131860086Y-49814482D01*
X131897882Y-49885193D01*
X131917224Y-49908761D01*
X131968124Y-49970783D01*
X131968127Y-49970786D01*
X131991606Y-49999395D01*
X132020215Y-50022874D01*
X136857626Y-54860286D01*
X136881105Y-54888895D01*
X136995307Y-54982619D01*
X137125599Y-55052261D01*
X137266973Y-55095147D01*
X137281817Y-55096609D01*
X137377165Y-55106000D01*
X137377171Y-55106000D01*
X137413999Y-55109627D01*
X137450827Y-55106000D01*
X139743840Y-55106000D01*
X139764481Y-55136892D01*
X139935108Y-55307519D01*
X140135745Y-55441581D01*
X140358681Y-55533924D01*
X140595348Y-55581000D01*
X140836652Y-55581000D01*
X141073319Y-55533924D01*
X141296255Y-55441581D01*
X141496892Y-55307519D01*
X141667519Y-55136892D01*
X141801581Y-54936255D01*
X141893924Y-54713319D01*
X141941000Y-54476652D01*
X141941000Y-54235348D01*
X141893924Y-53998681D01*
X141801581Y-53775745D01*
X141667519Y-53575108D01*
X141496892Y-53404481D01*
X141296255Y-53270419D01*
X141073319Y-53178076D01*
X140836652Y-53131000D01*
X140595348Y-53131000D01*
X140358681Y-53178076D01*
X140135745Y-53270419D01*
X139935108Y-53404481D01*
X139764481Y-53575108D01*
X139743840Y-53606000D01*
X137724660Y-53606000D01*
X133274500Y-49155841D01*
X133274500Y-49009461D01*
X133288739Y-49056400D01*
X133358381Y-49186692D01*
X133452105Y-49300895D01*
X133480720Y-49324379D01*
X136476626Y-52320286D01*
X136500105Y-52348895D01*
X136614307Y-52442619D01*
X136744599Y-52512261D01*
X136885974Y-52555147D01*
X136996165Y-52566000D01*
X136996172Y-52566000D01*
X137033000Y-52569627D01*
X137069827Y-52566000D01*
X139743840Y-52566000D01*
X139764481Y-52596892D01*
X139935108Y-52767519D01*
X140135745Y-52901581D01*
X140358681Y-52993924D01*
X140595348Y-53041000D01*
X140836652Y-53041000D01*
X141073319Y-52993924D01*
X141296255Y-52901581D01*
X141496892Y-52767519D01*
X141667519Y-52596892D01*
X141801581Y-52396255D01*
X141893924Y-52173319D01*
X141941000Y-51936652D01*
X141941000Y-51695348D01*
X141893924Y-51458681D01*
X141801581Y-51235745D01*
X141667519Y-51035108D01*
X141496892Y-50864481D01*
X141296255Y-50730419D01*
X141073319Y-50638076D01*
X140836652Y-50591000D01*
X140595348Y-50591000D01*
X140358681Y-50638076D01*
X140135745Y-50730419D01*
X139935108Y-50864481D01*
X139764481Y-51035108D01*
X139743840Y-51066000D01*
X137343660Y-51066000D01*
X134735000Y-48457341D01*
X134735000Y-42899327D01*
X134738627Y-42862500D01*
X134735000Y-42825672D01*
X134735000Y-42825665D01*
X134724147Y-42715474D01*
X134681261Y-42574099D01*
X134655940Y-42526725D01*
X150861500Y-42526725D01*
X150861500Y-42817275D01*
X150918183Y-43102242D01*
X151029372Y-43370675D01*
X151190793Y-43612258D01*
X151396242Y-43817707D01*
X151637825Y-43979128D01*
X151906258Y-44090317D01*
X152191225Y-44147000D01*
X152481775Y-44147000D01*
X152766742Y-44090317D01*
X153035175Y-43979128D01*
X153276758Y-43817707D01*
X153482207Y-43612258D01*
X153643628Y-43370675D01*
X153754817Y-43102242D01*
X153811500Y-42817275D01*
X153811500Y-42526725D01*
X153754817Y-42241758D01*
X153643628Y-41973325D01*
X153482207Y-41731742D01*
X153276758Y-41526293D01*
X153035175Y-41364872D01*
X152766742Y-41253683D01*
X152481775Y-41197000D01*
X152191225Y-41197000D01*
X151906258Y-41253683D01*
X151637825Y-41364872D01*
X151396242Y-41526293D01*
X151190793Y-41731742D01*
X151029372Y-41973325D01*
X150918183Y-42241758D01*
X150861500Y-42526725D01*
X134655940Y-42526725D01*
X134611619Y-42443807D01*
X134517895Y-42329605D01*
X134489286Y-42306126D01*
X132758159Y-40575000D01*
X154425000Y-40575000D01*
X154425000Y-45612638D01*
G36*
X111405824Y-72418071D02*
G01*
X111386736Y-72433736D01*
X111343916Y-72485913D01*
X111247966Y-72550024D01*
X111140018Y-72657972D01*
X111055204Y-72784906D01*
X110996783Y-72925947D01*
X110967000Y-73075675D01*
X110967000Y-73228337D01*
X110996783Y-73378065D01*
X111055204Y-73519106D01*
X111140018Y-73646040D01*
X111247966Y-73753988D01*
X111374900Y-73838802D01*
X111515941Y-73897223D01*
X111665669Y-73927006D01*
X111818331Y-73927006D01*
X111968059Y-73897223D01*
X112109100Y-73838802D01*
X112236034Y-73753988D01*
X112343982Y-73646040D01*
X112428796Y-73519106D01*
X112487217Y-73378065D01*
X112517000Y-73228337D01*
X112517000Y-73075675D01*
X112487217Y-72925947D01*
X112435943Y-72802162D01*
X114502501Y-70735604D01*
X114502500Y-73115165D01*
X114502500Y-73565239D01*
X113608341Y-74459400D01*
X105746061Y-74459400D01*
X104787777Y-73501118D01*
X104716582Y-73394566D01*
X104608634Y-73286618D01*
X104481700Y-73201804D01*
X104340659Y-73143383D01*
X104190931Y-73113600D01*
X104038269Y-73113600D01*
X103912587Y-73138600D01*
X101870192Y-73138600D01*
X102931593Y-72077200D01*
X105131440Y-72077200D01*
X105156000Y-72079619D01*
X105180560Y-72077200D01*
X105246220Y-72070733D01*
X105254017Y-72069965D01*
X105348267Y-72041375D01*
X105435129Y-71994946D01*
X105511264Y-71932464D01*
X105526929Y-71913376D01*
X110269959Y-67170347D01*
X114778831Y-67170347D01*
X114880813Y-67272329D01*
X115006850Y-67356544D01*
X110270195Y-72093200D01*
X108591046Y-72093200D01*
X108566488Y-72090781D01*
X108541930Y-72093200D01*
X108541929Y-72093200D01*
X108468472Y-72100435D01*
X108374222Y-72129025D01*
X108287360Y-72175454D01*
X108211225Y-72237936D01*
X108195564Y-72257019D01*
X107915969Y-72536615D01*
X107809100Y-72465208D01*
X107668059Y-72406787D01*
X107518331Y-72377004D01*
X107365669Y-72377004D01*
X107215941Y-72406787D01*
X107074900Y-72465208D01*
X106947966Y-72550022D01*
X106840018Y-72657970D01*
X106755204Y-72784904D01*
X106696783Y-72925945D01*
X106667000Y-73075673D01*
X106667000Y-73228335D01*
X106696783Y-73378063D01*
X106755204Y-73519104D01*
X106840018Y-73646038D01*
X106947966Y-73753986D01*
X107074900Y-73838800D01*
X107215941Y-73897221D01*
X107365669Y-73927004D01*
X107518331Y-73927004D01*
X107668059Y-73897221D01*
X107809100Y-73838800D01*
X107936034Y-73753986D01*
X108038647Y-73651373D01*
X108105702Y-73644769D01*
X108199952Y-73616179D01*
X108286814Y-73569750D01*
X108362949Y-73507268D01*
X108378614Y-73488180D01*
X108773595Y-73093200D01*
X110452740Y-73093200D01*
X110477300Y-73095619D01*
X110501860Y-73093200D01*
X110531619Y-73090269D01*
X110575317Y-73085965D01*
X110669567Y-73057375D01*
X110756429Y-73010946D01*
X110832564Y-72948464D01*
X110848229Y-72929376D01*
X116708606Y-67069000D01*
X116754894Y-67069000D01*
X111405824Y-72418071D01*
X111405824Y-72418071D01*
G37*
X111405824Y-72418071D02*
X111386736Y-72433736D01*
X111343916Y-72485913D01*
X111247966Y-72550024D01*
X111140018Y-72657972D01*
X111055204Y-72784906D01*
X110996783Y-72925947D01*
X110967000Y-73075675D01*
X110967000Y-73228337D01*
X110996783Y-73378065D01*
X111055204Y-73519106D01*
X111140018Y-73646040D01*
X111247966Y-73753988D01*
X111374900Y-73838802D01*
X111515941Y-73897223D01*
X111665669Y-73927006D01*
X111818331Y-73927006D01*
X111968059Y-73897223D01*
X112109100Y-73838802D01*
X112236034Y-73753988D01*
X112343982Y-73646040D01*
X112428796Y-73519106D01*
X112487217Y-73378065D01*
X112517000Y-73228337D01*
X112517000Y-73075675D01*
X112487217Y-72925947D01*
X112435943Y-72802162D01*
X114502501Y-70735604D01*
X114502500Y-73115165D01*
X114502500Y-73565239D01*
X113608341Y-74459400D01*
X105746061Y-74459400D01*
X104787777Y-73501118D01*
X104716582Y-73394566D01*
X104608634Y-73286618D01*
X104481700Y-73201804D01*
X104340659Y-73143383D01*
X104190931Y-73113600D01*
X104038269Y-73113600D01*
X103912587Y-73138600D01*
X101870192Y-73138600D01*
X102931593Y-72077200D01*
X105131440Y-72077200D01*
X105156000Y-72079619D01*
X105180560Y-72077200D01*
X105246220Y-72070733D01*
X105254017Y-72069965D01*
X105348267Y-72041375D01*
X105435129Y-71994946D01*
X105511264Y-71932464D01*
X105526929Y-71913376D01*
X110269959Y-67170347D01*
X114778831Y-67170347D01*
X114880813Y-67272329D01*
X115006850Y-67356544D01*
X110270195Y-72093200D01*
X108591046Y-72093200D01*
X108566488Y-72090781D01*
X108541930Y-72093200D01*
X108541929Y-72093200D01*
X108468472Y-72100435D01*
X108374222Y-72129025D01*
X108287360Y-72175454D01*
X108211225Y-72237936D01*
X108195564Y-72257019D01*
X107915969Y-72536615D01*
X107809100Y-72465208D01*
X107668059Y-72406787D01*
X107518331Y-72377004D01*
X107365669Y-72377004D01*
X107215941Y-72406787D01*
X107074900Y-72465208D01*
X106947966Y-72550022D01*
X106840018Y-72657970D01*
X106755204Y-72784904D01*
X106696783Y-72925945D01*
X106667000Y-73075673D01*
X106667000Y-73228335D01*
X106696783Y-73378063D01*
X106755204Y-73519104D01*
X106840018Y-73646038D01*
X106947966Y-73753986D01*
X107074900Y-73838800D01*
X107215941Y-73897221D01*
X107365669Y-73927004D01*
X107518331Y-73927004D01*
X107668059Y-73897221D01*
X107809100Y-73838800D01*
X107936034Y-73753986D01*
X108038647Y-73651373D01*
X108105702Y-73644769D01*
X108199952Y-73616179D01*
X108286814Y-73569750D01*
X108362949Y-73507268D01*
X108378614Y-73488180D01*
X108773595Y-73093200D01*
X110452740Y-73093200D01*
X110477300Y-73095619D01*
X110501860Y-73093200D01*
X110531619Y-73090269D01*
X110575317Y-73085965D01*
X110669567Y-73057375D01*
X110756429Y-73010946D01*
X110832564Y-72948464D01*
X110848229Y-72929376D01*
X116708606Y-67069000D01*
X116754894Y-67069000D01*
X111405824Y-72418071D01*
G36*
X111225604Y-59701500D02*
G01*
X111310418Y-59828434D01*
X111418366Y-59936382D01*
X111545300Y-60021196D01*
X111686341Y-60079617D01*
X111836069Y-60109400D01*
X111980293Y-60109400D01*
X112081081Y-60210188D01*
X112096738Y-60229266D01*
X112152062Y-60274669D01*
X117840892Y-65963500D01*
X117716169Y-65963500D01*
X117566441Y-65993283D01*
X117501871Y-66020029D01*
X117463296Y-65926900D01*
X117378482Y-65799966D01*
X117270534Y-65692018D01*
X117143600Y-65607204D01*
X117002559Y-65548783D01*
X116852831Y-65519000D01*
X116700169Y-65519000D01*
X116550441Y-65548783D01*
X116409400Y-65607204D01*
X116282466Y-65692018D01*
X116174518Y-65799966D01*
X116089704Y-65926900D01*
X116031283Y-66067941D01*
X116002179Y-66214253D01*
X115976829Y-66176313D01*
X115868881Y-66068365D01*
X115741947Y-65983551D01*
X115600906Y-65925130D01*
X115451178Y-65895347D01*
X115298516Y-65895347D01*
X115148788Y-65925130D01*
X115007747Y-65983551D01*
X114880813Y-66068365D01*
X114778831Y-66170347D01*
X110558759Y-66170347D01*
X113216106Y-63513000D01*
X113360331Y-63513000D01*
X113510059Y-63483217D01*
X113651100Y-63424796D01*
X113778034Y-63339982D01*
X113885982Y-63232034D01*
X113970796Y-63105100D01*
X114029217Y-62964059D01*
X114059000Y-62814331D01*
X114059000Y-62661669D01*
X114029217Y-62511941D01*
X113970796Y-62370900D01*
X113885982Y-62243966D01*
X113778034Y-62136018D01*
X113651100Y-62051204D01*
X113510059Y-61992783D01*
X113360331Y-61963000D01*
X113207669Y-61963000D01*
X113057941Y-61992783D01*
X112916900Y-62051204D01*
X112789966Y-62136018D01*
X112682018Y-62243966D01*
X112597204Y-62370900D01*
X112538783Y-62511941D01*
X112509000Y-62661669D01*
X112509000Y-62805894D01*
X104745695Y-70569200D01*
X104634444Y-70569200D01*
X104666892Y-70547519D01*
X104837519Y-70376892D01*
X104971581Y-70176255D01*
X105063924Y-69953319D01*
X105111000Y-69716652D01*
X105111000Y-69475348D01*
X105063924Y-69238681D01*
X104971581Y-69015745D01*
X104837519Y-68815108D01*
X104666892Y-68644481D01*
X104466255Y-68510419D01*
X104243319Y-68418076D01*
X104006652Y-68371000D01*
X103765348Y-68371000D01*
X103528681Y-68418076D01*
X103305745Y-68510419D01*
X103105108Y-68644481D01*
X102934481Y-68815108D01*
X102800419Y-69015745D01*
X102708076Y-69238681D01*
X102661000Y-69475348D01*
X102661000Y-69716652D01*
X102708076Y-69953319D01*
X102800419Y-70176255D01*
X102934481Y-70376892D01*
X103105108Y-70547519D01*
X103137556Y-70569200D01*
X100075157Y-70569200D01*
X100050599Y-70566781D01*
X100026041Y-70569200D01*
X100026040Y-70569200D01*
X99952583Y-70576435D01*
X99858333Y-70605025D01*
X99771471Y-70651454D01*
X99695336Y-70713936D01*
X99679675Y-70733019D01*
X99476030Y-70936665D01*
X99441996Y-70854500D01*
X99357182Y-70727566D01*
X99286296Y-70656680D01*
X99286296Y-70623807D01*
X102673021Y-67237084D01*
X102708076Y-67413319D01*
X102800419Y-67636255D01*
X102934481Y-67836892D01*
X103105108Y-68007519D01*
X103305745Y-68141581D01*
X103528681Y-68233924D01*
X103765348Y-68281000D01*
X104006652Y-68281000D01*
X104243319Y-68233924D01*
X104466255Y-68141581D01*
X104666892Y-68007519D01*
X104837519Y-67836892D01*
X104971581Y-67636255D01*
X105063924Y-67413319D01*
X105111000Y-67176652D01*
X105111000Y-66935348D01*
X105063924Y-66698681D01*
X104971581Y-66475745D01*
X104837519Y-66275108D01*
X104696257Y-66133846D01*
X111197193Y-59632911D01*
X111225604Y-59701500D01*
X111225604Y-59701500D01*
G37*
X111225604Y-59701500D02*
X111310418Y-59828434D01*
X111418366Y-59936382D01*
X111545300Y-60021196D01*
X111686341Y-60079617D01*
X111836069Y-60109400D01*
X111980293Y-60109400D01*
X112081081Y-60210188D01*
X112096738Y-60229266D01*
X112152062Y-60274669D01*
X117840892Y-65963500D01*
X117716169Y-65963500D01*
X117566441Y-65993283D01*
X117501871Y-66020029D01*
X117463296Y-65926900D01*
X117378482Y-65799966D01*
X117270534Y-65692018D01*
X117143600Y-65607204D01*
X117002559Y-65548783D01*
X116852831Y-65519000D01*
X116700169Y-65519000D01*
X116550441Y-65548783D01*
X116409400Y-65607204D01*
X116282466Y-65692018D01*
X116174518Y-65799966D01*
X116089704Y-65926900D01*
X116031283Y-66067941D01*
X116002179Y-66214253D01*
X115976829Y-66176313D01*
X115868881Y-66068365D01*
X115741947Y-65983551D01*
X115600906Y-65925130D01*
X115451178Y-65895347D01*
X115298516Y-65895347D01*
X115148788Y-65925130D01*
X115007747Y-65983551D01*
X114880813Y-66068365D01*
X114778831Y-66170347D01*
X110558759Y-66170347D01*
X113216106Y-63513000D01*
X113360331Y-63513000D01*
X113510059Y-63483217D01*
X113651100Y-63424796D01*
X113778034Y-63339982D01*
X113885982Y-63232034D01*
X113970796Y-63105100D01*
X114029217Y-62964059D01*
X114059000Y-62814331D01*
X114059000Y-62661669D01*
X114029217Y-62511941D01*
X113970796Y-62370900D01*
X113885982Y-62243966D01*
X113778034Y-62136018D01*
X113651100Y-62051204D01*
X113510059Y-61992783D01*
X113360331Y-61963000D01*
X113207669Y-61963000D01*
X113057941Y-61992783D01*
X112916900Y-62051204D01*
X112789966Y-62136018D01*
X112682018Y-62243966D01*
X112597204Y-62370900D01*
X112538783Y-62511941D01*
X112509000Y-62661669D01*
X112509000Y-62805894D01*
X104745695Y-70569200D01*
X104634444Y-70569200D01*
X104666892Y-70547519D01*
X104837519Y-70376892D01*
X104971581Y-70176255D01*
X105063924Y-69953319D01*
X105111000Y-69716652D01*
X105111000Y-69475348D01*
X105063924Y-69238681D01*
X104971581Y-69015745D01*
X104837519Y-68815108D01*
X104666892Y-68644481D01*
X104466255Y-68510419D01*
X104243319Y-68418076D01*
X104006652Y-68371000D01*
X103765348Y-68371000D01*
X103528681Y-68418076D01*
X103305745Y-68510419D01*
X103105108Y-68644481D01*
X102934481Y-68815108D01*
X102800419Y-69015745D01*
X102708076Y-69238681D01*
X102661000Y-69475348D01*
X102661000Y-69716652D01*
X102708076Y-69953319D01*
X102800419Y-70176255D01*
X102934481Y-70376892D01*
X103105108Y-70547519D01*
X103137556Y-70569200D01*
X100075157Y-70569200D01*
X100050599Y-70566781D01*
X100026041Y-70569200D01*
X100026040Y-70569200D01*
X99952583Y-70576435D01*
X99858333Y-70605025D01*
X99771471Y-70651454D01*
X99695336Y-70713936D01*
X99679675Y-70733019D01*
X99476030Y-70936665D01*
X99441996Y-70854500D01*
X99357182Y-70727566D01*
X99286296Y-70656680D01*
X99286296Y-70623807D01*
X102673021Y-67237084D01*
X102708076Y-67413319D01*
X102800419Y-67636255D01*
X102934481Y-67836892D01*
X103105108Y-68007519D01*
X103305745Y-68141581D01*
X103528681Y-68233924D01*
X103765348Y-68281000D01*
X104006652Y-68281000D01*
X104243319Y-68233924D01*
X104466255Y-68141581D01*
X104666892Y-68007519D01*
X104837519Y-67836892D01*
X104971581Y-67636255D01*
X105063924Y-67413319D01*
X105111000Y-67176652D01*
X105111000Y-66935348D01*
X105063924Y-66698681D01*
X104971581Y-66475745D01*
X104837519Y-66275108D01*
X104696257Y-66133846D01*
X111197193Y-59632911D01*
X111225604Y-59701500D01*
M02*
